<?xml version="1.0" encoding="UTF-8"?>
<svg version="1.1" xmlns="http://www.w3.org/2000/svg" width="474" height="241">
<path d="M0 0 C0.87785156 0.49628906 1.75570312 0.99257813 2.66015625 1.50390625 C6.01239187 3.57909973 8.54898665 5.41961936 10.98828125 8.55859375 C15.23267323 13.89704254 15.23267323 13.89704254 21.38378906 16.48095703 C26.13139223 16.908086 30.86576379 16.87999097 35.62890625 16.8828125 C42.33264443 16.91319374 47.80380522 18.39107588 54 21 C54.87527344 21.3609375 55.75054687 21.721875 56.65234375 22.09375 C70.53592995 28.42586327 80.09685566 39.20598223 85.96875 53.19140625 C91.38837039 67.95166027 91.69057735 82.47255082 85.7109375 97.16796875 C82.57946449 103.77420459 78.81298555 109.50703416 74 115 C73.20142578 115.92232422 73.20142578 115.92232422 72.38671875 116.86328125 C62.37445984 127.64019956 48.28111195 133.52658083 33.60669518 134.09225845 C30.62563258 134.13015592 27.64609688 134.13506393 24.66479492 134.12939453 C22.9634288 134.13202301 22.9634288 134.13202301 21.22769165 134.13470459 C17.47860176 134.13910406 13.72955913 134.13618961 9.98046875 134.1328125 C7.36176037 134.1334866 4.74305204 134.13445751 2.12434387 134.13571167 C-3.37080391 134.13752993 -8.86593825 134.13513902 -14.36108398 134.13037109 C-20.67063959 134.12495895 -26.98016272 134.12667019 -33.2897175 134.1321975 C-39.39683567 134.1373293 -45.50393974 134.13672527 -51.61105919 134.13381577 C-54.1899281 134.1331538 -56.76879786 134.13394908 -59.34766579 134.13629532 C-108.19259638 134.17095057 -108.19259638 134.17095057 -122 123 C-122.92039063 122.28263672 -122.92039063 122.28263672 -123.859375 121.55078125 C-132.76786381 113.72628997 -136.85925544 102.16519877 -137.90625 90.66015625 C-138.24120133 77.58309817 -134.27486248 66.33578523 -125.3125 56.625 C-122.10951268 53.59059096 -118.83288262 51.90800275 -114.875 50 C-108.02397179 46.23966121 -106.61671992 41.13439355 -104.40625 34.13671875 C-98.84681939 16.76349808 -84.67529931 3.9081241 -68.9375 -4.25 C-45.73005662 -15.39313863 -21.97921888 -12.43438422 0 0 Z " fill="#FCFCFB" transform="translate(261,59)"/>
<path d="M0 0 C0.87785156 0.49628906 1.75570312 0.99257813 2.66015625 1.50390625 C6.01239187 3.57909973 8.54898665 5.41961936 10.98828125 8.55859375 C15.23267323 13.89704254 15.23267323 13.89704254 21.38378906 16.48095703 C26.13139223 16.908086 30.86576379 16.87999097 35.62890625 16.8828125 C42.33264443 16.91319374 47.80380522 18.39107588 54 21 C54.87527344 21.3609375 55.75054687 21.721875 56.65234375 22.09375 C70.53592995 28.42586327 80.09685566 39.20598223 85.96875 53.19140625 C91.38837039 67.95166027 91.69057735 82.47255082 85.7109375 97.16796875 C82.57946449 103.77420459 78.81298555 109.50703416 74 115 C73.20142578 115.92232422 73.20142578 115.92232422 72.38671875 116.86328125 C62.37445984 127.64019956 48.28111195 133.52658083 33.60669518 134.09225845 C30.62563258 134.13015592 27.64609688 134.13506393 24.66479492 134.12939453 C22.9634288 134.13202301 22.9634288 134.13202301 21.22769165 134.13470459 C17.47860176 134.13910406 13.72955913 134.13618961 9.98046875 134.1328125 C7.36176037 134.1334866 4.74305204 134.13445751 2.12434387 134.13571167 C-3.37080391 134.13752993 -8.86593825 134.13513902 -14.36108398 134.13037109 C-20.67063959 134.12495895 -26.98016272 134.12667019 -33.2897175 134.1321975 C-39.39683567 134.1373293 -45.50393974 134.13672527 -51.61105919 134.13381577 C-54.1899281 134.1331538 -56.76879786 134.13394908 -59.34766579 134.13629532 C-108.19259638 134.17095057 -108.19259638 134.17095057 -122 123 C-122.92039063 122.28263672 -122.92039063 122.28263672 -123.859375 121.55078125 C-132.76786381 113.72628997 -136.85925544 102.16519877 -137.90625 90.66015625 C-138.24120133 77.58309817 -134.27486248 66.33578523 -125.3125 56.625 C-122.10951268 53.59059096 -118.83288262 51.90800275 -114.875 50 C-108.02397179 46.23966121 -106.61671992 41.13439355 -104.40625 34.13671875 C-98.84681939 16.76349808 -84.67529931 3.9081241 -68.9375 -4.25 C-45.73005662 -15.39313863 -21.97921888 -12.43438422 0 0 Z M-53 7 C-53.82886719 7.17660156 -54.65773438 7.35320312 -55.51171875 7.53515625 C-66.27116224 10.14292083 -77.29827519 18.26327656 -84 27 C-86.30176918 30.8835786 -88.19917697 34.8637346 -90 39 C-90.33 39.68964844 -90.66 40.37929687 -91 41.08984375 C-93.64672378 47.10859542 -93.71297804 53.50736542 -94 60 C-95.299375 60.061875 -96.59875 60.12375 -97.9375 60.1875 C-104.49044094 60.9213467 -109.78087222 63.66091937 -114.3125 68.4375 C-115.1478125 69.7059375 -115.1478125 69.7059375 -116 71 C-116.721875 72.010625 -117.44375 73.02125 -118.1875 74.0625 C-122.12554665 80.44485147 -121.5675106 87.70118312 -121 95 C-118.9815686 103.22730191 -115.01326446 109.21054196 -107.875 113.8125 C-103.61368095 116.37426573 -100.29544539 117.12700112 -95.32911682 117.15390015 C-94.14752487 117.16250061 -92.96593292 117.17110107 -91.74853516 117.17996216 C-90.45036865 117.18422211 -89.15220215 117.18848206 -87.81469727 117.19287109 C-86.4347259 117.20077442 -85.05475658 117.20904351 -83.67478943 117.21765137 C-79.13868174 117.2438604 -74.60256491 117.25918497 -70.06640625 117.2734375 C-68.50186597 117.27879898 -66.93732574 117.28417649 -65.37278557 117.28956985 C-58.85914821 117.31120326 -52.3455133 117.32993534 -45.8318491 117.34119225 C-36.51662198 117.35739896 -27.20181413 117.39049111 -17.88674504 117.44759309 C-11.32774032 117.48641834 -4.76884711 117.50584016 1.79026943 117.51111281 C5.70207513 117.51475116 9.61343354 117.52660784 13.52511406 117.55921555 C17.21314183 117.58951628 20.90045695 117.59553102 24.58858299 117.58383179 C26.5687164 117.58350935 28.54880727 117.60783158 30.52877808 117.63320923 C42.64983808 117.54967046 53.3062723 113.71568156 62 105 C62 104.34 62 103.68 62 103 C62.66 103 63.32 103 64 103 C64.33 101.68 64.66 100.36 65 99 C65.66 99 66.32 99 67 99 C73.38398405 85.96400204 76.15647396 74.78693861 71.93359375 60.5625 C70.65938694 57.06509553 69.01407361 54.12528663 67 51 C66.34 51 65.68 51 65 51 C64.89816406 50.40058594 64.79632813 49.80117187 64.69140625 49.18359375 C62.96129988 43.7195855 55.87942523 39.89899586 51.1328125 37.1015625 C40.59595805 31.65945086 27.25785625 31.11838576 15.9375 34.5 C14.61575944 34.97503488 13.29825932 35.46410917 12 36 C11.67 34.35 11.34 32.7 11 31 C10.34 31 9.68 31 9 31 C8.6596875 29.948125 8.6596875 29.948125 8.3125 28.875 C5.51602877 22.74939635 1.59107034 19.52480521 -4 16 C-5.01868662 15.01904252 -6.02351983 14.02297922 -7 13 C-10.02512312 10.98325126 -12.55831059 10.10305077 -16 9 C-16.86238281 8.64679688 -17.72476563 8.29359375 -18.61328125 7.9296875 C-24.7423838 5.53481386 -30.22917539 4.62642797 -36.75 4.625 C-37.44649658 4.6235498 -38.14299316 4.62209961 -38.8605957 4.62060547 C-43.83877169 4.72555813 -48.20286697 5.67545551 -53 7 Z " fill="#A0A0A0" transform="translate(261,59)"/>
<path d="M0 0 C2.40453906 3.20605208 3.47879375 4.78523316 4.625 8.375 C4.86476563 9.10460937 5.10453125 9.83421875 5.3515625 10.5859375 C9.37446984 25.56278532 6.89350137 40.67366039 -0.33203125 54.21484375 C-2.87814186 58.46631181 -5.73689593 62.27588343 -9 66 C-9.79857422 66.92232422 -9.79857422 66.92232422 -10.61328125 67.86328125 C-20.38705535 78.38350111 -32.95882838 83.15911237 -47 85 C-50.86853419 85.14163846 -54.73425458 85.12627902 -58.60498047 85.11352539 C-59.76653152 85.11367142 -60.92808258 85.11381744 -62.12483215 85.1139679 C-65.95563641 85.11327247 -69.78639176 85.10549734 -73.6171875 85.09765625 C-76.27662234 85.09579076 -78.93605448 85.09431826 -81.5954895 85.09336853 C-87.87454908 85.09026537 -94.15359117 85.0820657 -100.43264306 85.07201904 C-107.58379243 85.06082634 -114.73494266 85.05533951 -121.88609862 85.05032361 C-136.59074135 85.03988221 -151.29537037 85.02230247 -166 85 C-166 84.67 -166 84.34 -166 84 C-155.59266305 83.86783659 -145.18530648 83.73734597 -134.77792358 83.60884857 C-129.94259636 83.54909845 -125.10727697 83.48882453 -120.27197266 83.42724609 C-79.20655873 82.90498483 -79.20655873 82.90498483 -59 83 C-59 82.34 -59 81.68 -59 81 C-55.37 80.67 -51.74 80.34 -48 80 C-48 76.37 -48 72.74 -48 69 C-91.23 69 -134.46 69 -179 69 C-179 68.67 -179 68.34 -179 68 C-177.95750029 67.99918285 -177.95750029 67.99918285 -176.89393997 67.99834919 C-159.94047118 67.98334636 -142.98731499 67.94075862 -126.0340004 67.86790943 C-117.83529977 67.83333632 -109.63676594 67.80791403 -101.43798828 67.80444336 C-94.28738029 67.80139273 -87.13706994 67.78075551 -79.9865768 67.73947543 C-76.20446453 67.71824269 -72.42277435 67.70549416 -68.64060211 67.71384621 C-65.07149595 67.72144882 -61.5032406 67.70531625 -57.93428993 67.67193985 C-56.01863911 67.65992654 -54.10288259 67.6722141 -52.1872406 67.68556213 C-40.69012306 67.53524001 -30.50258179 63.94350792 -22 56 C-21.67 55.34 -21.34 54.68 -21 54 C-20.34 54 -19.68 54 -19 54 C-18.67 52.68 -18.34 51.36 -18 50 C-17.34 50 -16.68 50 -16 50 C-15.731875 49.175 -15.46375 48.35 -15.1875 47.5 C-14.32632139 44.96178935 -13.41498788 42.49163578 -12.4375 40 C-11.17897186 36.69477459 -10.44027988 33.52223906 -10 30 C-9.67 30.99 -9.34 31.98 -9 33 C-6.03 33 -3.06 33 0 33 C-0.185625 31.55625 -0.37125 30.1125 -0.5625 28.625 C-1.125 24.25 -1.125 24.25 0 22 C1.65 22 3.3 22 5 22 C4.01 16.555 4.01 16.555 3 11 C2.01 10.67 1.02 10.34 0 10 C0 6.7 0 3.4 0 0 Z " fill="#9E9E9E" transform="translate(344,108)"/>
<path d="M0 0 C1.051875 0.07863281 2.10375 0.15726562 3.1875 0.23828125 C6 0.6875 6 0.6875 9 2.6875 C9 3.6775 9 4.6675 9 5.6875 C4.71 5.6875 0.42 5.6875 -4 5.6875 C-3.505 7.6675 -3.505 7.6675 -3 9.6875 C-0.82458156 10.90411243 -0.82458156 10.90411243 1.8125 11.6875 C8.78221393 14.26001244 8.78221393 14.26001244 11 17.6875 C11.73865679 21.54492989 11.30106368 23.1745767 9.3125 26.5625 C4.21905303 29.82999428 -1.09844373 29.42714096 -7 28.6875 C-7.99 28.0275 -8.98 27.3675 -10 26.6875 C-10 25.3675 -10 24.0475 -10 22.6875 C-10.66386719 23.120625 -11.32773437 23.55375 -12.01171875 24 C-12.89472656 24.556875 -13.77773437 25.11375 -14.6875 25.6875 C-15.55761719 26.244375 -16.42773438 26.80125 -17.32421875 27.375 C-20.16973337 28.77075608 -21.8788594 28.95743648 -25 28.6875 C-26.70961461 24.6598944 -27.94432621 20.58606986 -29.125 16.375 C-29.47820312 15.12074219 -29.83140625 13.86648437 -30.1953125 12.57421875 C-30.46085937 11.62160156 -30.72640625 10.66898438 -31 9.6875 C-31.27714844 10.89148438 -31.55429688 12.09546875 -31.83984375 13.3359375 C-32.20559679 14.91148907 -32.57148945 16.48700823 -32.9375 18.0625 C-33.11990234 18.8565625 -33.30230469 19.650625 -33.49023438 20.46875 C-33.75610352 21.60957031 -33.75610352 21.60957031 -34.02734375 22.7734375 C-34.18968506 23.4751709 -34.35202637 24.1769043 -34.51928711 24.89990234 C-35 26.6875 -35 26.6875 -36 28.6875 C-37.65 28.6875 -39.3 28.6875 -41 28.6875 C-43.15239094 23.12031875 -45.02356237 17.54328218 -46.6875 11.8125 C-46.91244141 11.05453125 -47.13738281 10.2965625 -47.36914062 9.515625 C-49 3.94393522 -49 3.94393522 -49 1.6875 C-47.35 1.6875 -45.7 1.6875 -44 1.6875 C-42.35 6.9675 -40.7 12.2475 -39 17.6875 C-37.22714569 14.14179137 -36.28770187 11.25425327 -35.375 7.4375 C-35.11460937 6.35984375 -34.85421875 5.2821875 -34.5859375 4.171875 C-34.39257812 3.35203125 -34.19921875 2.5321875 -34 1.6875 C-32.02 1.6875 -30.04 1.6875 -28 1.6875 C-26.03470991 5.13957476 -25.2253523 8.57226226 -24.375 12.4375 C-23.98441406 14.19320312 -23.98441406 14.19320312 -23.5859375 15.984375 C-23.39257812 16.87640625 -23.19921875 17.7684375 -23 18.6875 C-20.69557475 12.76183507 -18.76463072 6.79487442 -17 0.6875 C-14.33333333 0.6875 -11.66666667 0.6875 -9 0.6875 C-5.64610273 -0.43046576 -3.50497864 -0.28778624 0 0 Z " fill="#EFF1F1" transform="translate(269,106.3125)"/>
<path d="M0 0 C0 0.33 0 0.66 0 1 C-0.66531738 1.0501123 -1.33063477 1.10022461 -2.01611328 1.15185547 C-5.05306969 1.38506072 -8.08897946 1.62992364 -11.125 1.875 C-12.17171875 1.95363281 -13.2184375 2.03226563 -14.296875 2.11328125 C-19.47371022 2.53922339 -24.1442995 3.00059391 -29 5 C-29 6.32 -29 7.64 -29 9 C-24.82262526 10.59138085 -21.46839215 11.21278058 -17 11 C-17.33 12.65 -17.66 14.3 -18 16 C-17.01 16.33 -16.02 16.66 -15 17 C-16.11375 17.268125 -17.2275 17.53625 -18.375 17.8125 C-19.11105469 18.00328125 -19.84710938 18.1940625 -20.60546875 18.390625 C-22.16283694 18.78695361 -23.72824472 19.15331468 -25.30078125 19.484375 C-33.6798904 21.51401191 -42.31545302 26.66655507 -47.9296875 33.26953125 C-50.97567387 35.81551609 -53.35815367 35.39414246 -57.25 35.25 C-58.51328125 35.21390625 -59.7765625 35.1778125 -61.078125 35.140625 C-62.04234375 35.09421875 -63.0065625 35.0478125 -64 35 C-64.495 33.515 -64.495 33.515 -65 32 C-65.66 31.67 -66.32 31.34 -67 31 C-54.9400058 14.96382242 -40.17596335 4.23519267 -20.25 0.25 C-13.54878057 -0.36571033 -6.72173593 -0.07341702 0 0 Z " fill="#929292" transform="translate(231,48)"/>
<path d="M0 0 C12.21 0 24.42 0 37 0 C36.34 0.66 35.68 1.32 35 2 C34.79527165 3.91494687 34.79527165 3.91494687 34.9375 6 C35.09830508 9.80338983 35.09830508 9.80338983 34 12 C31.49609375 12.4140625 31.49609375 12.4140625 28.4375 12.625 C26.91962891 12.73714844 26.91962891 12.73714844 25.37109375 12.8515625 C24.58863281 12.90054688 23.80617187 12.94953125 23 13 C23 13.66 23 14.32 23 15 C11.12 15 -0.76 15 -13 15 C-13 14.67 -13 14.34 -13 14 C-5.41 13.67 2.18 13.34 10 13 C6.7 12.67 3.4 12.34 0 12 C0 8.04 0 4.08 0 0 Z " fill="#A4A4A4" transform="translate(226,177)"/>
<path d="M0 0 C17.35053298 -0.02337741 34.70106104 -0.04100297 52.05160618 -0.05181217 C60.10805857 -0.05696484 68.16450116 -0.06398792 76.22094727 -0.07543945 C83.24428643 -0.08541774 90.26761849 -0.09186092 97.29096454 -0.09408849 C101.00853061 -0.09539026 104.72607639 -0.09844228 108.44363594 -0.10573006 C112.59728006 -0.11380641 116.75088906 -0.11398911 120.90454102 -0.11352539 C122.74628906 -0.1189183 122.74628906 -0.1189183 124.62524414 -0.12442017 C130.19018445 -0.11769271 135.52106246 -0.00710789 141 1 C142.16552619 5.19589427 142.08954032 5.82091936 140 10 C144.455 10.99 144.455 10.99 149 12 C136.93736636 20.04175576 118.3539667 17.37882215 104.6015625 17.29296875 C101.95355481 17.28736487 99.30557158 17.28295068 96.65756226 17.28010559 C90.43536577 17.2708438 84.21333061 17.2463111 77.99120462 17.21605712 C70.8979302 17.18232845 63.80464739 17.16598107 56.71131253 17.15097082 C42.14079246 17.11975502 27.57039849 17.06711094 13 17 C13 16.67 13 16.34 13 16 C23.40733695 15.86783659 33.81469352 15.73734597 44.22207642 15.60884857 C49.05740364 15.54909845 53.89272303 15.48882453 58.72802734 15.42724609 C99.79344127 14.90498483 99.79344127 14.90498483 120 15 C120 14.34 120 13.68 120 13 C123.63 12.67 127.26 12.34 131 12 C131 8.37 131 4.74 131 1 C87.77 1 44.54 1 0 1 C0 0.67 0 0.34 0 0 Z " fill="#C4C4C4" transform="translate(165,176)"/>
<path d="M0 0 C1.65 0 3.3 0 5 0 C4.37869771 6.30928097 2.50010374 11.96207569 0.4375 17.9375 C0.10814453 18.90751953 -0.22121094 19.87753906 -0.56054688 20.87695312 C-1.3682448 23.25322384 -2.18150948 25.62742969 -3 28 C-4.65 28 -6.3 28 -8 28 C-9.70961461 23.9723944 -10.94432621 19.89856986 -12.125 15.6875 C-12.47820312 14.43324219 -12.83140625 13.17898437 -13.1953125 11.88671875 C-13.46085937 10.93410156 -13.72640625 9.98148438 -14 9 C-14.27714844 10.20398438 -14.55429688 11.40796875 -14.83984375 12.6484375 C-15.20559679 14.22398907 -15.57148945 15.79950823 -15.9375 17.375 C-16.11990234 18.1690625 -16.30230469 18.963125 -16.49023438 19.78125 C-16.75610352 20.92207031 -16.75610352 20.92207031 -17.02734375 22.0859375 C-17.18968506 22.7876709 -17.35202637 23.4894043 -17.51928711 24.21240234 C-18 26 -18 26 -19 28 C-20.65 28 -22.3 28 -24 28 C-26.15239094 22.43281875 -28.02356237 16.85578218 -29.6875 11.125 C-29.91244141 10.36703125 -30.13738281 9.6090625 -30.36914062 8.828125 C-32 3.25643522 -32 3.25643522 -32 1 C-30.35 1 -28.7 1 -27 1 C-25.35 6.28 -23.7 11.56 -22 17 C-20.22714569 13.45429137 -19.28770187 10.56675327 -18.375 6.75 C-18.11460937 5.67234375 -17.85421875 4.5946875 -17.5859375 3.484375 C-17.39257812 2.66453125 -17.19921875 1.8446875 -17 1 C-15.02 1 -13.04 1 -11 1 C-9.03470991 4.45207476 -8.2253523 7.88476226 -7.375 11.75 C-6.98441406 13.50570312 -6.98441406 13.50570312 -6.5859375 15.296875 C-6.39257812 16.18890625 -6.19921875 17.0809375 -6 18 C-3.69557475 12.07433507 -1.76463072 6.10737442 0 0 Z " fill="#2D3543" transform="translate(252,107)"/>
<path d="M0 0 C3.28168779 1.05992401 6.5227248 2.18320701 9.734375 3.4375 C10.39179688 3.69273437 11.04921875 3.94796875 11.7265625 4.2109375 C13.06196876 4.73169438 14.39536613 5.25763628 15.7265625 5.7890625 C24.91996407 9.33048956 33.81124969 10.36559442 43.625 10.3125 C45.19507813 10.30730347 45.19507813 10.30730347 46.796875 10.30200195 C58.43213472 10.14030186 69.18574059 8.45293035 80 4 C80.99 4 81.98 4 83 4 C81.29142348 8.95160711 77.39874879 10.30156123 72.92919922 12.48071289 C56.03205368 20.30268141 37.32233418 19.82202933 20 14 C12.88948117 11.08370426 5.55912772 7.42832472 0 2 C0 1.34 0 0.68 0 0 Z " fill="#E4A43C" transform="translate(192,144)"/>
<path d="M0 0 C1.04027344 -0.03738281 2.08054688 -0.07476562 3.15234375 -0.11328125 C6.74710064 0.41266305 7.82849387 1.51869651 10.0625 4.3125 C11.26520964 6.71791929 11.26566663 8.41616591 11.37890625 11.1015625 C11.42080078 12.04257813 11.46269531 12.98359375 11.50585938 13.953125 C11.54517578 14.93796875 11.58449219 15.9228125 11.625 16.9375 C11.66818359 17.93007812 11.71136719 18.92265625 11.75585938 19.9453125 C11.86211069 22.40089838 11.96414964 24.85658703 12.0625 27.3125 C10.7425 27.6425 9.4225 27.9725 8.0625 28.3125 C7.7325 27.3225 7.4025 26.3325 7.0625 25.3125 C6.423125 25.8075 5.78375 26.3025 5.125 26.8125 C0.99950322 28.83315148 -2.42266755 28.89370045 -6.9375 28.3125 C-9.5 27.375 -9.5 27.375 -10.9375 25.3125 C-11.55417478 22.18168955 -11.55356021 19.44366841 -10.9375 16.3125 C-9.1875 13.75 -9.1875 13.75 -5.9375 12.3125 C-1.91366469 12.00377922 2.0362062 12.08132524 6.0625 12.3125 C5.0725 10.0025 4.0825 7.6925 3.0625 5.3125 C1.64594207 5.2852585 0.22922955 5.26599533 -1.1875 5.25 C-1.97640625 5.23839844 -2.7653125 5.22679688 -3.578125 5.21484375 C-5.84441002 5.30864694 -7.7663895 5.68008937 -9.9375 6.3125 C-9.6075 4.6625 -9.2775 3.0125 -8.9375 1.3125 C-5.77550849 0.25850283 -3.32289814 0.07804087 0 0 Z " fill="#262F37" transform="translate(205.9375,106.6875)"/>
<path d="M0 0 C1.60294922 0.05414063 1.60294922 0.05414063 3.23828125 0.109375 C4.45064453 0.17898437 4.45064453 0.17898437 5.6875 0.25 C6.44805392 4.55980557 7.02735157 8.04563817 5.6875 12.25 C2.98954864 14.98139704 -0.17132715 17.05280656 -3.3125 19.25 C-4.116875 19.889375 -4.92125 20.52875 -5.75 21.1875 C-9.79340415 22.86403343 -13.99753211 22.81313988 -18.3125 22.25 C-19.3025 21.59 -20.2925 20.93 -21.3125 20.25 C-20.9825 19.6725 -20.6525 19.095 -20.3125 18.5 C-19.04174102 16.05116138 -19.04174102 16.05116138 -19.3125 12.25 C-21.6225 11.92 -23.9325 11.59 -26.3125 11.25 C-22.53004269 8.72836179 -18.54607794 7.30565058 -14.3203125 5.6640625 C-11.2359323 4.37890191 -11.2359323 4.37890191 -8.82421875 2.1015625 C-5.66020023 -0.2308555 -3.87846017 -0.17048177 0 0 Z " fill="#989898" transform="translate(325.3125,165.75)"/>
<path d="M0 0 C0 3.3 0 6.6 0 10 C1.32 10.33 2.64 10.66 4 11 C5.28317892 14.84953676 5.06643637 17.94738135 5 22 C3.35 22 1.7 22 0 22 C0 25.63 0 29.26 0 33 C-2.97 33 -5.94 33 -9 33 C-9.04898437 32.16597656 -9.09796875 31.33195312 -9.1484375 30.47265625 C-9.62948425 22.88446712 -9.62948425 22.88446712 -11.0625 15.4375 C-12.42985752 10.00858422 -12.16935801 4.56058808 -12 -1 C-7.31034294 -2.11658501 -4.46236469 -1.80619523 0 0 Z " fill="#A5A5A5" transform="translate(344,108)"/>
<path d="M0 0 C0.6894873 -0.01305176 1.37897461 -0.02610352 2.08935547 -0.03955078 C6.11679641 -0.04637861 9.18920413 0.40751193 12.8125 2.1875 C12.85491723 4.52044775 12.85342937 6.85452567 12.8125 9.1875 C11.8125 10.1875 11.8125 10.1875 9.52734375 10.28515625 C8.15255859 10.26775391 8.15255859 10.26775391 6.75 10.25 C5.83089844 10.24097656 4.91179687 10.23195313 3.96484375 10.22265625 C3.25457031 10.21105469 2.54429687 10.19945312 1.8125 10.1875 C1.4825 11.8375 1.1525 13.4875 0.8125 15.1875 C-3.1475 15.1875 -7.1075 15.1875 -11.1875 15.1875 C-10.8575 13.5375 -10.5275 11.8875 -10.1875 10.1875 C-11.4559375 10.5278125 -11.4559375 10.5278125 -12.75 10.875 C-17.19327003 11.27893364 -19.24145199 10.16052401 -23.1875 8.1875 C-22.8575 6.5375 -22.5275 4.8875 -22.1875 3.1875 C-14.81371328 0.42232998 -7.79310391 0.08633554 0 0 Z " fill="#A5A5A5" transform="translate(224.1875,48.8125)"/>
<path d="M0 0 C0.99 0 1.98 0 3 0 C3.33 0.66 3.66 1.32 4 2 C6.58605332 2.4683265 6.58605332 2.4683265 9.5625 2.625 C11.08037109 2.73714844 11.08037109 2.73714844 12.62890625 2.8515625 C13.80259766 2.92503906 13.80259766 2.92503906 15 3 C15.33 2.34 15.66 1.68 16 1 C17 4 17 4 16.109375 5.8671875 C15.43648437 6.86105469 15.43648437 6.86105469 14.75 7.875 C14.28722656 8.57367188 13.82445312 9.27234375 13.34765625 9.9921875 C12.90292969 10.65476562 12.45820313 11.31734375 12 12 C10.99490786 13.66360078 9.99230897 15.32874278 9 17 C7.35 16.34 5.7 15.68 4 15 C4.01160156 15.62648438 4.02320313 16.25296875 4.03515625 16.8984375 C4.04869141 18.12433594 4.04869141 18.12433594 4.0625 19.375 C4.07410156 20.18710938 4.08570313 20.99921875 4.09765625 21.8359375 C4 24 4 24 3 26 C1.18757948 26.02687279 -0.62495233 26.04633715 -2.4375 26.0625 C-3.44683594 26.07410156 -4.45617187 26.08570312 -5.49609375 26.09765625 C-8 26 -8 26 -9 25 C-9.16516955 15.58533569 -4.34560944 8.06758928 0 0 Z " fill="#969696" transform="translate(163,80)"/>
<path d="M0 0 C0.66 0 1.32 0 2 0 C2.33 3.63 2.66 7.26 3 11 C5.31 11 7.62 11 10 11 C10.33 10.01 10.66 9.02 11 8 C11 13.28 11 18.56 11 24 C8.36 24 5.72 24 3 24 C2.67 27.63 2.34 31.26 2 35 C1.34 35 0.68 35 0 35 C-5.00235646 26.44758412 -6.06421331 17.68592398 -4 8 C-2.82864272 5.2335017 -1.4907252 2.6070357 0 0 Z " fill="#9D9D9D" transform="translate(128,130)"/>
<path d="M0 0 C0.99 0.66 1.98 1.32 3 2 C3 2.99 3 3.98 3 5 C-1.29 5 -5.58 5 -10 5 C-9.67 6.32 -9.34 7.64 -9 9 C-6.82458156 10.21661243 -6.82458156 10.21661243 -4.1875 11 C2.78221393 13.57251244 2.78221393 13.57251244 5 17 C5.73865679 20.85742989 5.30106368 22.4870767 3.3125 25.875 C-1.78094697 29.14249428 -7.09844373 28.73964096 -13 28 C-13.99 27.34 -14.98 26.68 -16 26 C-16 25.01 -16 24.02 -16 23 C-11.38 23 -6.76 23 -2 23 C-1.67 21.68 -1.34 20.36 -1 19 C-1.75925781 18.67386719 -2.51851563 18.34773438 -3.30078125 18.01171875 C-4.29464844 17.57472656 -5.28851563 17.13773438 -6.3125 16.6875 C-7.29863281 16.25824219 -8.28476562 15.82898438 -9.30078125 15.38671875 C-11.78129519 14.1123592 -13.32553705 13.20294793 -15 11 C-15.5 7.5625 -15.5 7.5625 -15 4 C-11.17204477 -0.9763418 -5.81693603 -0.84789237 0 0 Z " fill="#313742" transform="translate(275,107)"/>
<path d="M0 0 C0.66 0.66 1.32 1.32 2 2 C1.68092141 8.02567649 -0.81457432 13.00949976 -4 18 C-4.99 18 -5.98 18 -7 18 C-7 16.02 -7 14.04 -7 12 C-8.65 12.33 -10.3 12.66 -12 13 C-10.35 11.02 -8.7 9.04 -7 7 C-7.85980469 7.33773437 -8.71960938 7.67546875 -9.60546875 8.0234375 C-25.80646107 14.13635281 -40.81497969 14.27314496 -58 14 C-58 13.67 -58 13.34 -58 13 C-56.13021484 12.94392578 -56.13021484 12.94392578 -54.22265625 12.88671875 C-44.05308401 12.5162407 -34.29148029 11.60736551 -24.30859375 9.62109375 C-21 9 -21 9 -18 9 C-18 8.34 -18 7.68 -18 7 C-18.66 6.67 -19.32 6.34 -20 6 C-19.01 5.67 -18.02 5.34 -17 5 C-17 4.34 -17 3.68 -17 3 C-11.38477834 0.07031913 -6.34042864 -0.89252835 0 0 Z " fill="#FDEDC1" transform="translate(282,141)"/>
<path d="M0 0 C0 0.33 0 0.66 0 1 C-0.99797607 1.07516846 -0.99797607 1.07516846 -2.01611328 1.15185547 C-5.05306969 1.38506072 -8.08897946 1.62992364 -11.125 1.875 C-12.17171875 1.95363281 -13.2184375 2.03226563 -14.296875 2.11328125 C-19.47371022 2.53922339 -24.1442995 3.00059391 -29 5 C-29 6.32 -29 7.64 -29 9 C-24.82262526 10.59138085 -21.46839215 11.21278058 -17 11 C-17.33 12.65 -17.66 14.3 -18 16 C-17.01 16.33 -16.02 16.66 -15 17 C-16.155 17.28875 -17.31 17.5775 -18.5 17.875 C-19.5828125 18.14570312 -19.5828125 18.14570312 -20.6875 18.421875 C-22.22916667 18.80729167 -23.77083333 19.19270833 -25.3125 19.578125 C-26.3953125 19.84882812 -26.3953125 19.84882812 -27.5 20.125 C-29.2325 20.558125 -29.2325 20.558125 -31 21 C-30.67 17.7 -30.34 14.4 -30 11 C-33.96 11 -37.92 11 -42 11 C-41.67 12.32 -41.34 13.64 -41 15 C-41.99 15.495 -41.99 15.495 -43 16 C-43.99 15.67 -44.98 15.34 -46 15 C-46 15.99 -46 16.98 -46 18 C-46.86625 18.12375 -47.7325 18.2475 -48.625 18.375 C-51.89513853 18.98058121 -54.87256899 19.88306035 -58 21 C-41.33287181 3.85666815 -22.89889932 -0.25010934 0 0 Z " fill="#AAAAAA" transform="translate(231,48)"/>
<path d="M0 0 C10.13106902 4.41610701 17.33061404 11.5558443 23 21 C23.71875 23.33203125 23.71875 23.33203125 24 25 C22.68 25 21.36 25 20 25 C20 24.34 20 23.68 20 23 C19.34 23.33 18.68 23.66 18 24 C16.00039988 24.039992 13.99952758 24.04346799 12 24 C12.20625 25.27875 12.4125 26.5575 12.625 27.875 C12.9765625 30.0546875 12.9765625 30.0546875 13 32 C12.34 32.66 11.68 33.32 11 34 C8 29.25 8 29.25 8 27 C7.34 27 6.68 27 6 27 C5.67 25.68 5.34 24.36 5 23 C6.98 22.67 8.96 22.34 11 22 C11 18.7 11 15.4 11 12 C11.66 12 12.32 12 13 12 C13 11.34 13 10.68 13 10 C12.484375 10.33 11.96875 10.66 11.4375 11 C8.18784356 12.33319238 5.47998753 12.19333264 2 12 C1.34 11.67 0.68 11.34 0 11 C0 7.37 0 3.74 0 0 Z " fill="#B0B0B0" transform="translate(320,83)"/>
<path d="M0 0 C3.23490776 0.55774272 4.97855006 1.37211508 7 4 C7 4.99 7 5.98 7 7 C8.32 7 9.64 7 11 7 C11.33 7.99 11.66 8.98 12 10 C17.445 10.495 17.445 10.495 23 11 C23 9.68 23 8.36 23 7 C20.36 7 17.72 7 15 7 C15 6.67 15 6.34 15 6 C19.29 6 23.58 6 28 6 C28 6.66 28 7.32 28 8 C27.34 8 26.68 8 26 8 C26 8.99 26 9.98 26 11 C25.01 11.495 25.01 11.495 24 12 C24.020625 12.94875 24.04125 13.8975 24.0625 14.875 C24 18 24 18 23 20 C19.04 20 15.08 20 11 20 C11 17.36 11 14.72 11 12 C7.04 12 3.08 12 -1 12 C-1.125 2.25 -1.125 2.25 0 0 Z " fill="#949494" transform="translate(273,71)"/>
<path d="M0 0 C2.97 0 5.94 0 9 0 C8 4 8 4 5 6 C5.391875 6.7425 5.78375 7.485 6.1875 8.25 C7.38533518 13.77847004 6.04463523 18.76698724 4 24 C3.01 24.66 2.02 25.32 1 26 C1.22816406 25.32453125 1.45632813 24.6490625 1.69140625 23.953125 C1.97886719 23.06109375 2.26632812 22.1690625 2.5625 21.25 C2.85253906 20.36828125 3.14257812 19.4865625 3.44140625 18.578125 C4.01697435 15.92165684 3.89248371 14.52968894 3 12 C-2.73842251 11.79586639 -7.60539047 11.72858546 -13 14 C-15.37783838 11.62216162 -15.59009208 10.27926335 -16 7 C-15.67 6.34 -15.34 5.68 -15 5 C-12.6015625 4.62109375 -12.6015625 4.62109375 -9.625 4.4375 C-6.46357425 4.23313343 -4.01866352 4.00622117 -1 3 C-0.67 2.01 -0.34 1.02 0 0 Z " fill="#F5FBF7" transform="translate(279,130)"/>
<path d="M0 0 C1.2375 0.495 1.2375 0.495 2.5 1 C2.5 1.33 2.5 1.66 2.5 2 C-1.79 2.66 -6.08 3.32 -10.5 4 C-10.5 5.98 -10.5 7.96 -10.5 10 C-5.82114742 10.42744381 -5.82114742 10.42744381 -1.625 8.75 C-0.39493337 6.83656302 0.11502006 5.23288365 0.5 3 C1.49 3 2.48 3 3.5 3 C3.83 2.01 4.16 1.02 4.5 0 C4.83820166 1.5823006 5.17035939 3.16589375 5.5 4.75 C5.685625 5.63171875 5.87125 6.5134375 6.0625 7.421875 C6.5 10 6.5 10 6.5 14 C5.18 14.33 3.86 14.66 2.5 15 C2.17 14.01 1.84 13.02 1.5 12 C0.860625 12.495 0.22125 12.99 -0.4375 13.5 C-4.56299678 15.52065148 -7.98516755 15.58120045 -12.5 15 C-15.0625 14.0625 -15.0625 14.0625 -16.5 12 C-17.11612915 8.87195971 -17.13760888 6.12597627 -16.5 3 C-12.13245493 -2.59591713 -6.1822214 -1.76634897 0 0 Z " fill="#242934" transform="translate(211.5,120)"/>
<path d="M0 0 C8.58 0 17.16 0 26 0 C26 2.64 26 5.28 26 8 C25.67 8 25.34 8 25 8 C25 5.69 25 3.38 25 1 C21.04 1 17.08 1 13 1 C13.66 4.3 14.32 7.6 15 11 C16.44375 11.103125 17.8875 11.20625 19.375 11.3125 C21.8359375 11.48828125 21.8359375 11.48828125 24 12 C24.99 13.485 24.99 13.485 26 15 C21.71 15 17.42 15 13 15 C12.67 14.34 12.34 13.68 12 13 C9.64400765 12.53248212 9.64400765 12.53248212 6.9375 12.375 C6.01839844 12.30023438 5.09929687 12.22546875 4.15234375 12.1484375 C3.44207031 12.09945312 2.73179687 12.05046875 2 12 C0.8299903 8.08263419 1.30415983 5.02040985 2 1 C1.34 0.67 0.68 0.34 0 0 Z " fill="#A5A5A5" transform="translate(176,177)"/>
<path d="M0 0 C3.63 0 7.26 0 11 0 C11 3.63 11 7.26 11 11 C16.445 11.495 16.445 11.495 22 12 C22.495 13.485 22.495 13.485 23 15 C11.12 15 -0.76 15 -13 15 C-13 14.67 -13 14.34 -13 14 C-5.41 13.67 2.18 13.34 10 13 C6.7 12.67 3.4 12.34 0 12 C0 8.04 0 4.08 0 0 Z " fill="#A8A8A8" transform="translate(226,177)"/>
<path d="M0 0 C-1.90160719 5.16789719 -5.94570087 6.45833044 -10.69140625 8.671875 C-19.47470791 12.19763954 -28.40134532 12.19605637 -37.75 12.3125 C-38.73266846 12.33038574 -39.71533691 12.34827148 -40.7277832 12.36669922 C-46.86000872 12.35942555 -51.39760859 11.51576581 -57 9 C-57 8.67 -57 8.34 -57 8 C-55.6996582 8.00785522 -55.6996582 8.00785522 -54.37304688 8.01586914 C-51.1227239 8.03302411 -47.87242419 8.04550486 -44.62207031 8.05493164 C-43.22167191 8.05992616 -41.82127863 8.06672408 -40.42089844 8.07543945 C-29.67268863 8.14293426 -29.67268863 8.14293426 -19 7 C-19 6.34 -19 5.68 -19 5 C-18.09636719 4.72285156 -17.19273437 4.44570312 -16.26171875 4.16015625 C-14.49248047 3.61681641 -14.49248047 3.61681641 -12.6875 3.0625 C-11.51574219 2.70285156 -10.34398437 2.34320313 -9.13671875 1.97265625 C-2.7751004 0 -2.7751004 0 0 0 Z " fill="#F59A10" transform="translate(275,148)"/>
<path d="M0 0 C4.54805635 -0.17835515 7.8794254 0.00214565 12 2 C12.04241723 4.33294775 12.04092937 6.66702567 12 9 C11 10 11 10 8.71484375 10.09765625 C7.34005859 10.08025391 7.34005859 10.08025391 5.9375 10.0625 C5.01839844 10.05347656 4.09929687 10.04445313 3.15234375 10.03515625 C2.44207031 10.02355469 1.73179687 10.01195312 1 10 C0.67 11.65 0.34 13.3 0 15 C-3.96 15 -7.92 15 -12 15 C-11.67 13.35 -11.34 11.7 -11 10 C-7.7 9.67 -4.4 9.34 -1 9 C-0.67 6.03 -0.34 3.06 0 0 Z " fill="#929292" transform="translate(225,49)"/>
<path d="M0 0 C7.36095182 0.31323199 13.30883089 1.93914605 20 5 C19.01 5.495 19.01 5.495 18 6 C17.67 7.32 17.34 8.64 17 10 C13.37 10.33 9.74 10.66 6 11 C5.67 12.65 5.34 14.3 5 16 C1.04 15.67 -2.92 15.34 -7 15 C-6.67 13.35 -6.34 11.7 -6 10 C-2.7 9.67 0.6 9.34 4 9 C4 6.69 4 4.38 4 2 C2.68 1.34 1.36 0.68 0 0 Z " fill="#AAAAAA" transform="translate(232,49)"/>
<path d="M0 0 C3.96 0 7.92 0 12 0 C12 3.63 12 7.26 12 11 C15.3 11 18.6 11 22 11 C22.33 11.99 22.66 12.98 23 14 C19.04 14 15.08 14 11 14 C10.67 13.34 10.34 12.68 10 12 C7.64400765 11.53248212 7.64400765 11.53248212 4.9375 11.375 C4.01839844 11.30023438 3.09929687 11.22546875 2.15234375 11.1484375 C1.44207031 11.09945312 0.73179687 11.05046875 0 11 C-0.19491452 9.54263913 -0.38069358 8.08405407 -0.5625 6.625 C-0.66691406 5.81289062 -0.77132812 5.00078125 -0.87890625 4.1640625 C-1 2 -1 2 0 0 Z " fill="#939393" transform="translate(166,178)"/>
<path d="M0 0 C1.98 0 3.96 0 6 0 C6 0.33 6 0.66 6 1 C4.35 1 2.7 1 1 1 C1.21205078 1.65597168 1.42410156 2.31194336 1.64257812 2.98779297 C2.59805207 5.94923722 3.54907874 8.91209091 4.5 11.875 C4.83386719 12.90753906 5.16773438 13.94007812 5.51171875 15.00390625 C5.98544922 16.48310547 5.98544922 16.48310547 6.46875 17.9921875 C6.76201172 18.90339355 7.05527344 19.81459961 7.35742188 20.75341797 C8 23 8 23 8 25 C7.01 25 6.02 25 5 25 C5 25.99 5 26.98 5 28 C2.36 28 -0.28 28 -3 28 C-2.34 27.67 -1.68 27.34 -1 27 C-1.15847412 26.42926758 -1.31694824 25.85853516 -1.48022461 25.27050781 C-1.99361343 23.02789812 -2.20165896 20.96682085 -2.31640625 18.671875 C-2.35830078 17.87265625 -2.40019531 17.0734375 -2.44335938 16.25 C-2.48267578 15.425 -2.52199219 14.6 -2.5625 13.75 C-2.60568359 12.90953125 -2.64886719 12.0690625 -2.69335938 11.203125 C-2.79908543 9.13559329 -2.90001295 7.06781719 -3 5 C-2.34 4.67 -1.68 4.34 -1 4 C-0.34786708 1.97536745 -0.34786708 1.97536745 0 0 Z " fill="#E9ECED" transform="translate(219,107)"/>
<path d="M0 0 C23.47355777 -0.82174835 23.47355777 -0.82174835 35 4 C36.40572266 4.56074219 36.40572266 4.56074219 37.83984375 5.1328125 C38.90912109 5.56207031 38.90912109 5.56207031 40 6 C40 6.33 40 6.66 40 7 C36.37 7 32.74 7 29 7 C28.67 7.66 28.34 8.32 28 9 C28 8.34 28 7.68 28 7 C24.37 7 20.74 7 17 7 C17.66 6.67 18.32 6.34 19 6 C19 5.01 19 4.02 19 3 C19.66 3 20.32 3 21 3 C21 2.34 21 1.68 21 1 C19.35 1.33 17.7 1.66 16 2 C16 3.32 16 4.64 16 6 C12.37 6 8.74 6 5 6 C4.67 4.68 4.34 3.36 4 2 C2.68 2 1.36 2 0 2 C0 1.34 0 0.68 0 0 Z " fill="#999999" transform="translate(280,76)"/>
<path d="M0 0 C3.96 0 7.92 0 12 0 C12 2.64 12 5.28 12 8 C21.9 7.505 21.9 7.505 32 7 C32 7.99 32 8.98 32 10 C31.08504761 9.98428955 31.08504761 9.98428955 30.15161133 9.96826172 C27.37194993 9.92653379 24.59235461 9.90062078 21.8125 9.875 C20.85279297 9.85824219 19.89308594 9.84148437 18.90429688 9.82421875 C17.50727539 9.81455078 17.50727539 9.81455078 16.08203125 9.8046875 C15.22843018 9.79421387 14.3748291 9.78374023 13.49536133 9.77294922 C10.68777957 10.02840867 8.58493782 10.90864723 6 12 C3.1875 12.125 3.1875 12.125 1 12 C0.67 10.35 0.34 8.7 0 7 C-0.66 7 -1.32 7 -2 7 C-2.33 6.01 -2.66 5.02 -3 4 C-2.01 3.67 -1.02 3.34 0 3 C0 2.01 0 1.02 0 0 Z " fill="#ABABAB" transform="translate(272,83)"/>
<path d="M0 0 C3.96 0.33 7.92 0.66 12 1 C12.96455656 6.69965241 12.96455656 6.69965241 12 10 C8.70405957 13.03616187 5.11563121 15.23262684 1 17 C0.34 16.67 -0.32 16.34 -1 16 C-0.835 15.154375 -0.67 14.30875 -0.5 13.4375 C0.01431553 9.9015807 0.06732569 6.5682616 0 3 C0 2.01 0 1.02 0 0 Z " fill="#949494" transform="translate(189,58)"/>
<path d="M0 0 C3.96 0 7.92 0 12 0 C12.33 3.63 12.66 7.26 13 11 C16.3 11 19.6 11 23 11 C23.33 11.66 23.66 12.32 24 13 C22.02090602 13.02686553 20.04171029 13.04633375 18.0625 13.0625 C16.96035156 13.07410156 15.85820312 13.08570313 14.72265625 13.09765625 C12 13 12 13 11 12 C9.48530552 11.76807135 7.96245438 11.58784762 6.4375 11.4375 C5.61121094 11.35371094 4.78492188 11.26992187 3.93359375 11.18359375 C3.29550781 11.12300781 2.65742188 11.06242188 2 11 C0.80712589 7.12315913 0 4.08378077 0 0 Z " fill="#919191" transform="translate(213,178)"/>
<path d="M0 0 C4.29 0 8.58 0 13 0 C12.67 3.96 12.34 7.92 12 12 C8.04 12 4.08 12 0 12 C0 8.04 0 4.08 0 0 Z " fill="#A5A5A5" transform="translate(272,177)"/>
<path d="M0 0 C3.73487777 0.4979837 5.81237635 0.87491756 9 3 C9 3.66 9 4.32 9 5 C8.01 5.33 7.02 5.66 6 6 C6 5.34 6 4.68 6 4 C3.69 4.33 1.38 4.66 -1 5 C-1 7.97 -1 10.94 -1 14 C-6.94 12.515 -6.94 12.515 -13 11 C-13 5 -13 5 -12 4 C-10.14712498 3.92773498 -8.29166122 3.9161878 -6.4375 3.9375 C-5.42558594 3.94652344 -4.41367188 3.95554688 -3.37109375 3.96484375 C-2.19740234 3.98224609 -2.19740234 3.98224609 -1 4 C-0.67 2.68 -0.34 1.36 0 0 Z " fill="#949494" transform="translate(250,55)"/>
<path d="M0 0 C3.96 0 7.92 0 12 0 C12.1953125 2.83203125 12.390625 5.6640625 12.5859375 8.49609375 C12.72257813 9.32238281 12.85921875 10.14867187 13 11 C13.66 11.33 14.32 11.66 15 12 C14.01 12.33 13.02 12.66 12 13 C11.67 12.67 11.34 12.34 11 12 C9.48530552 11.76807135 7.96245438 11.58784762 6.4375 11.4375 C5.61121094 11.35371094 4.78492188 11.26992187 3.93359375 11.18359375 C3.29550781 11.12300781 2.65742188 11.06242188 2 11 C0.02896975 6.81156072 0 5.00147987 0 0 Z " fill="#929292" transform="translate(189,178)"/>
<path d="M0 0 C1.35015859 4.05047576 0.62084998 6.7920168 0 11 C-3.96 11 -7.92 11 -12 11 C-12.125 2.25 -12.125 2.25 -11 0 C-6.94952424 -1.35015859 -4.2079832 -0.62084998 0 0 Z " fill="#929292" transform="translate(320,83)"/>
<path d="M0 0 C3.63 0 7.26 0 11 0 C11.5745952 3.73486879 12 7.21293268 12 11 C11.01 11 10.02 11 9 11 C8.34 11.66 7.68 12.32 7 13 C4.69 12.34 2.38 11.68 0 11 C0 7.37 0 3.74 0 0 Z " fill="#929292" transform="translate(320,166)"/>
<path d="M0 0 C3.96 0 7.92 0 12 0 C12.09765625 7.71484375 12.09765625 7.71484375 12 10 C11 11 11 11 9.00390625 11.1328125 C8.19824219 11.13023437 7.39257812 11.12765625 6.5625 11.125 C5.75941406 11.12757813 4.95632812 11.13015625 4.12890625 11.1328125 C2 11 2 11 0 10 C0 6.7 0 3.4 0 0 Z " fill="#929292" transform="translate(237,178)"/>
<path d="M0 0 C2.40453906 3.20605208 3.47879375 4.78523316 4.625 8.375 C4.86476563 9.10460937 5.10453125 9.83421875 5.3515625 10.5859375 C6.6924965 15.57808938 7.13728721 20.33937339 7.125 25.5 C7.12757813 26.5828125 7.13015625 27.665625 7.1328125 28.78125 C7.00272728 31.93390353 6.5876874 34.90298066 6 38 C5.67 38 5.34 38 5 38 C5 36.35 5 34.7 5 33 C3.35 33 1.7 33 0 33 C-0.19491452 31.54263913 -0.38069358 30.08405407 -0.5625 28.625 C-0.66691406 27.81289062 -0.77132813 27.00078125 -0.87890625 26.1640625 C-1 24 -1 24 0 22 C1.65 22 3.3 22 5 22 C4.34 18.37 3.68 14.74 3 11 C2.01 10.67 1.02 10.34 0 10 C0 6.7 0 3.4 0 0 Z " fill="#B3B3B3" transform="translate(344,108)"/>
<path d="M0 0 C0 3.3 0 6.6 0 10 C-3.96 10 -7.92 10 -12 10 C-12 6.37 -12 2.74 -12 -1 C-7.31034294 -2.11658501 -4.46236469 -1.80619523 0 0 Z " fill="#919191" transform="translate(344,108)"/>
<path d="M0 0 C-0.55363461 8.02770189 -2.65687944 15.33854067 -5 23 C-6.78596189 20.32105716 -7.39169178 18.9968331 -8.0703125 15.98828125 C-8.33134766 14.85229492 -8.33134766 14.85229492 -8.59765625 13.69335938 C-8.77167969 12.90767578 -8.94570312 12.12199219 -9.125 11.3125 C-9.39763672 10.11657227 -9.39763672 10.11657227 -9.67578125 8.89648438 C-10.12273427 6.93224349 -10.56210416 4.96627986 -11 3 C-12.65 3 -14.3 3 -16 3 C-16 2.67 -16 2.34 -16 2 C-11.83861737 1.91840426 -8.0527516 2.01751476 -4 3 C-4 2.34 -4 1.68 -4 1 C-2 0 -2 0 0 0 Z " fill="#EAECEC" transform="translate(252,105)"/>
<path d="M0 0 C0.99 0 1.98 0 3 0 C3 0.99 3 1.98 3 3 C2.34 3 1.68 3 1 3 C1 6.63 1 10.26 1 14 C-6.41988304 14.48654971 -6.41988304 14.48654971 -8.9375 12.375 C-10.1956515 9.56266136 -10.72756803 7.06485963 -11 4 C-10 3 -10 3 -7.71484375 2.90234375 C-6.34005859 2.91974609 -6.34005859 2.91974609 -4.9375 2.9375 C-4.01839844 2.94652344 -3.09929687 2.95554688 -2.15234375 2.96484375 C-1.44207031 2.97644531 -0.73179687 2.98804688 0 3 C0 2.01 0 1.02 0 0 Z " fill="#969696" transform="translate(141,163)"/>
<path d="M0 0 C1.65 0 3.3 0 5 0 C4.40531984 5.66828055 2.90757199 10.60322154 0.9375 15.9375 C0.65583984 16.71673828 0.37417969 17.49597656 0.08398438 18.29882812 C-0.60467706 20.20140125 -1.30149903 22.10101725 -2 24 C-3.32 23.67 -4.64 23.34 -6 23 C-6.33 21.35 -6.66 19.7 -7 18 C-6.34 17.67 -5.68 17.34 -5 17 C-4.25501015 15.27295087 -4.25501015 15.27295087 -3.7109375 13.18359375 C-3.49179688 12.41982422 -3.27265625 11.65605469 -3.046875 10.86914062 C-2.82515625 10.06669922 -2.6034375 9.26425781 -2.375 8.4375 C-2.14554688 7.63119141 -1.91609375 6.82488281 -1.6796875 5.99414062 C-1.11275846 3.99807797 -0.55547357 1.99928081 0 0 Z " fill="#2A303D" transform="translate(252,107)"/>
<path d="M0 0 C8.26485149 -0.62376238 8.26485149 -0.62376238 11.0625 1.75 C12 4 12 4 12 8 C10.78763672 8.05607422 10.78763672 8.05607422 9.55078125 8.11328125 C8.48214844 8.17902344 7.41351563 8.24476562 6.3125 8.3125 C4.72888672 8.39951172 4.72888672 8.39951172 3.11328125 8.48828125 C-0.23009964 9.03782064 -2.23526262 10.08674018 -5 12 C-5 8.88742431 -4.82638376 6.89234315 -4 4 C-3.01 4 -2.02 4 -1 4 C-0.67 2.68 -0.34 1.36 0 0 Z " fill="#ECEEF1" transform="translate(200,111)"/>
<path d="M0 0 C0.66 0 1.32 0 2 0 C2.33 0.66 2.66 1.32 3 2 C5.58605332 2.4683265 5.58605332 2.4683265 8.5625 2.625 C10.08037109 2.73714844 10.08037109 2.73714844 11.62890625 2.8515625 C12.80259766 2.92503906 12.80259766 2.92503906 14 3 C14.33 2.34 14.66 1.68 15 1 C16 4 16 4 15.0390625 5.97265625 C14.33910156 7.00712891 14.33910156 7.00712891 13.625 8.0625 C13.16351563 8.75472656 12.70203125 9.44695312 12.2265625 10.16015625 C11.82179687 10.76730469 11.41703125 11.37445313 11 12 C10.67 12.66 10.34 13.32 10 14 C7.66705225 14.04241723 5.33297433 14.04092937 3 14 C2.67 13.67 2.34 13.34 2 13 C2.020625 11.7625 2.04125 10.525 2.0625 9.25 C2.11958698 5.72329353 1.59958458 3.19916916 0 0 Z " fill="#929292" transform="translate(164,80)"/>
<path d="M0 0 C0 0.33 0 0.66 0 1 C-0.61294922 1.02916504 -1.22589844 1.05833008 -1.85742188 1.08837891 C-16.05149347 1.83948628 -29.85914181 2.90609454 -42 11 C-41.67 12.32 -41.34 13.64 -41 15 C-41.99 15.495 -41.99 15.495 -43 16 C-43.99 15.67 -44.98 15.34 -46 15 C-46 15.99 -46 16.98 -46 18 C-46.86625 18.12375 -47.7325 18.2475 -48.625 18.375 C-51.89513853 18.98058121 -54.87256899 19.88306035 -58 21 C-41.33287181 3.85666815 -22.89889932 -0.25010934 0 0 Z " fill="#C6C6C6" transform="translate(231,48)"/>
<path d="M0 0 C1.32 0.33 2.64 0.66 4 1 C3.34 2.65 2.68 4.3 2 6 C2.66 6 3.32 6 4 6 C4.33 4.68 4.66 3.36 5 2 C6.4606285 4.64738916 7 5.89448334 7 9 C7.66 9 8.32 9 9 9 C9 6.03 9 3.06 9 0 C10.49403054 2.98806107 11.79310745 5.89656201 13 9 C12.01 9 11.02 9 10 9 C10 9.99 10 10.98 10 12 C6.7 12.33 3.4 12.66 0 13 C-0.33 14.32 -0.66 15.64 -1 17 C-1.86627399 15.40233897 -2.71766465 13.79660056 -3.5625 12.1875 C-4.03816406 11.29417969 -4.51382813 10.40085938 -5.00390625 9.48046875 C-6 7 -6 7 -5 4 C-4.34 6.31 -3.68 8.62 -3 11 C-2.34 11 -1.68 11 -1 11 C-0.67 7.37 -0.34 3.74 0 0 Z M1 6 C2 8 2 8 2 8 Z " fill="#A7A7A7" transform="translate(131,154)"/>
<path d="M0 0 C1.32 0.33 2.64 0.66 4 1 C4.33 1.66 4.66 2.32 5 3 C4.26246894 4.87735178 3.52278593 6.75390162 2.76953125 8.625 C1.46324521 12.65658332 1.25022248 16.78935957 1 21 C0.01 21 -0.98 21 -2 21 C-2.33 18.36 -2.66 15.72 -3 13 C-3.66 13 -4.32 13 -5 13 C-5.33 14.32 -5.66 15.64 -6 17 C-6.33 15.68 -6.66 14.36 -7 13 C-8.65 12.67 -10.3 12.34 -12 12 C-12.33 13.32 -12.66 14.64 -13 16 C-13 14.68 -13 13.36 -13 12 C-17.455 13.485 -17.455 13.485 -22 15 C-19 12 -19 12 -16.9375 11 C-14.66757845 10.02674942 -14.66757845 10.02674942 -13 7 C-12.67 7.99 -12.34 8.98 -12 10 C-8.37 10.33 -4.74 10.66 -1 11 C-0.67 7.37 -0.34 3.74 0 0 Z " fill="#ADADAD" transform="translate(167,95)"/>
<path d="M0 0 C1 1 1 1 1.09765625 3.50390625 C1.08605469 4.51324219 1.07445312 5.52257812 1.0625 6.5625 C1.05347656 7.57441406 1.04445312 8.58632812 1.03515625 9.62890625 C1.02355469 10.41136719 1.01195312 11.19382813 1 12 C-0.65 12.33 -2.3 12.66 -4 13 C-4 12.34 -4 11.68 -4 11 C-6.31 11 -8.62 11 -11 11 C-9.47420704 4.3882305 -7.72182891 -1.04349039 0 0 Z " fill="#919191" transform="translate(141,118)"/>
<path d="M0 0 C2.31 0.33 4.62 0.66 7 1 C7 1.66 7 2.32 7 3 C8.98 3.66 10.96 4.32 13 5 C10.5332355 5.88336837 9.36140628 6.1312406 6.859375 5.22265625 C6.16328125 4.83980469 5.4671875 4.45695313 4.75 4.0625 C3.69039062 3.49208984 3.69039062 3.49208984 2.609375 2.91015625 C2.07828125 2.60980469 1.5471875 2.30945313 1 2 C7.96640671 9.89526094 17.14523305 13.81499928 27 17 C27 17.33 27 17.66 27 18 C25.39620659 18.05416188 23.79188594 18.09286638 22.1875 18.125 C21.29417969 18.14820313 20.40085938 18.17140625 19.48046875 18.1953125 C17 18 17 18 14 16 C11.37468476 15.83286431 11.37468476 15.83286431 9 16 C8.67 14.35 8.34 12.7 8 11 C7.09701172 10.85691406 7.09701172 10.85691406 6.17578125 10.7109375 C3.52101494 9.84349142 2.76963456 8.89065493 1.1875 6.625 C0.74792969 6.01914063 0.30835938 5.41328125 -0.14453125 4.7890625 C-1 3 -1 3 0 0 Z " fill="#FCF4D3" transform="translate(191,142)"/>
<path d="M0 0 C0.66 0 1.32 0 2 0 C2 0.66 2 1.32 2 2 C2.99 2 3.98 2 5 2 C4.40072174 5.35595828 3.15377564 7.37801226 1 10 C1.66 10 2.32 10 3 10 C3.33 9.01 3.66 8.02 4 7 C4.33 7 4.66 7 5 7 C5 8.98 5 10.96 5 13 C1.7 13.33 -1.6 13.66 -5 14 C-5.33 13.01 -5.66 12.02 -6 11 C-6.66 10.67 -7.32 10.34 -8 10 C-6.71580959 8.32756598 -5.42242815 6.66218553 -4.125 5 C-3.04605469 3.6078125 -3.04605469 3.6078125 -1.9453125 2.1875 C-1.30335938 1.465625 -0.66140625 0.74375 0 0 Z " fill="#A6A6A6" transform="translate(172,69)"/>
<path d="M0 0 C4.87362847 0.45336079 7.39042389 1.7089159 11 5 C10.67 6.32 10.34 7.64 10 9 C6.7 9 3.4 9 0 9 C0 10.98 0 12.96 0 15 C-2.475 14.01 -2.475 14.01 -5 13 C-5 12.34 -5 11.68 -5 11 C-5.99 10.67 -6.98 10.34 -8 10 C-8 9.67 -8 9.34 -8 9 C-5.36 8.67 -2.72 8.34 0 8 C0 5.36 0 2.72 0 0 Z " fill="#939393" transform="translate(261,62)"/>
<path d="M0 0 C2.64 0 5.28 0 8 0 C8 0.66 8 1.32 8 2 C7.01 2.495 7.01 2.495 6 3 C12.93 3.495 12.93 3.495 20 4 C21.1040267 10.52379417 21.26715222 14.19172939 18 20 C17.34 20.33 16.68 20.66 16 21 C16.22816406 20.32453125 16.45632813 19.6490625 16.69140625 18.953125 C16.97886719 18.06109375 17.26632812 17.1690625 17.5625 16.25 C17.99755859 14.92742187 17.99755859 14.92742187 18.44140625 13.578125 C19.01697435 10.92165684 18.89248371 9.52968894 18 7 C12.26157749 6.79586639 7.39460953 6.72858546 2 9 C-0.37783838 6.62216162 -0.59009208 5.27926335 -1 2 C-0.67 1.34 -0.34 0.68 0 0 Z " fill="#FDF0CD" transform="translate(264,135)"/>
<path d="M0 0 C-0.33 0.99 -0.66 1.98 -1 3 C-1.04325781 4.54105966 -1.04016009 6.0838565 -1 7.625 C-0.96225644 9.08284483 -0.95354285 10.54240683 -1 12 C-2 13 -2 13 -5.375 13.3125 C-9 13 -9 13 -10.9375 11.125 C-12 9 -12 9 -12 7 C-10.68 6.67 -9.36 6.34 -8 6 C-8.33 5.01 -8.66 4.02 -9 3 C-2.25 0 -2.25 0 0 0 Z " fill="#929292" transform="translate(333,93)"/>
<path d="M0 0 C1.31677734 -0.02126953 1.31677734 -0.02126953 2.66015625 -0.04296875 C4.9375 0.1875 4.9375 0.1875 6.9375 2.1875 C6.59122332 7.22335234 5.03746527 12.18337819 1.9375 16.1875 C1.2775 16.1875 0.6175 16.1875 -0.0625 16.1875 C0.5975 12.2275 1.2575 8.2675 1.9375 4.1875 C-2.3525 4.1875 -6.6425 4.1875 -11.0625 4.1875 C-7.31390115 0.43890115 -5.0910937 0.03748964 0 0 Z " fill="#DCA447" transform="translate(277.0625,140.8125)"/>
<path d="M0 0 C2.08351615 3.58727128 2.80141379 7.20694042 3.625 11.25 C3.88539063 12.51328125 4.14578125 13.7765625 4.4140625 15.078125 C4.60742188 16.04234375 4.80078125 17.0065625 5 18 C3.81470703 18.19916016 3.81470703 18.19916016 2.60546875 18.40234375 C-0.28192637 19.06466977 -1.05836403 19.87344632 -3 22 C-3.66 22 -4.32 22 -5 22 C-3.89644911 14.44392214 -2.40656211 7.25177382 0 0 Z " fill="#F0F0F1" transform="translate(238,114)"/>
<path d="M0 0 C4.75515672 1.55027053 9.44275497 3.24524398 14.125 5 C14.82753906 5.26039063 15.53007812 5.52078125 16.25390625 5.7890625 C19.59315305 7.03891291 22.85817598 8.30699638 26 10 C24.02 10 22.04 10 20 10 C20 10.66 20 11.32 20 12 C21.32 12.33 22.64 12.66 24 13 C24 13.66 24 14.32 24 15 C16.40742384 12.88403615 10.46241879 9.47789649 4 5 C3.23300781 4.4740625 2.46601563 3.948125 1.67578125 3.40625 C1.12277344 2.9421875 0.56976563 2.478125 0 2 C0 1.34 0 0.68 0 0 Z " fill="#E2A43F" transform="translate(192,144)"/>
<path d="M0 0 C0 3.63 0 7.26 0 11 C-6.8359375 11.1953125 -6.8359375 11.1953125 -9 11 C-11 9 -11 9 -11.0625 6.625 C-9.210201 2.04873189 -4.91894878 0 0 0 Z " fill="#929292" transform="translate(154,107)"/>
<path d="M0 0 C0.67095703 0.58007812 0.67095703 0.58007812 1.35546875 1.171875 C4.8521026 4.18390075 8.37407463 7.14321031 12 10 C11.01 10 10.02 10 9 10 C9 10.99 9 11.98 9 13 C5.7 13 2.4 13 -1 13 C-1.33 9.37 -1.66 5.74 -2 2 C-1.34 2 -0.68 2 0 2 C0 1.34 0 0.68 0 0 Z " fill="#A8A8A8" transform="translate(144,164)"/>
<path d="M0 0 C2.05078125 0.03255208 4.1015625 0.06510417 6.15234375 0.09765625 C6.15234375 3.72765625 6.15234375 7.35765625 6.15234375 11.09765625 C3.18234375 11.09765625 0.21234375 11.09765625 -2.84765625 11.09765625 C-2.87453776 9.45191059 -2.89399748 7.80604212 -2.91015625 6.16015625 C-2.92175781 5.24363281 -2.93335938 4.32710937 -2.9453125 3.3828125 C-2.82618856 0.59531224 -2.79215837 0.14757708 0 0 Z " fill="#929292" transform="translate(337.84765625,129.90234375)"/>
<path d="M0 0 C0.66 0.33 1.32 0.66 2 1 C1.6875 3.875 1.6875 3.875 1 7 C-2.65653827 9.43769218 -4.69000101 9.23944439 -9 9 C-10 8 -10 8 -10.0625 4.9375 C-10.041875 3.968125 -10.02125 2.99875 -10 2 C-6.59659693 -0.09440189 -3.95562822 -0.25797575 0 0 Z " fill="#E3E8EB" transform="translate(210,122)"/>
<path d="M0 0 C0.91007812 0.00902344 1.82015625 0.01804688 2.7578125 0.02734375 C3.80582031 0.04474609 3.80582031 0.04474609 4.875 0.0625 C4.545 1.7125 4.215 3.3625 3.875 5.0625 C-3.817641 5.91050767 -11.38791674 6.18402487 -19.125 6.0625 C-19.455 5.0725 -19.785 4.0825 -20.125 3.0625 C-16.165 3.0625 -12.205 3.0625 -8.125 3.0625 C-7.795 2.4025 -7.465 1.7425 -7.125 1.0625 C-4.60024538 -0.19987731 -2.81299534 -0.03606404 0 0 Z " fill="#999999" transform="translate(268.125,185.9375)"/>
<path d="M0 0 C2.64 0 5.28 0 8 0 C8 3.96 8 7.92 8 12 C5.36 11.67 2.72 11.34 0 11 C0 7.37 0 3.74 0 0 Z " fill="#909090" transform="translate(131,142)"/>
<path d="M0 0 C1.8871875 0.0309375 1.8871875 0.0309375 3.8125 0.0625 C3.85491723 2.39544775 3.85342937 4.72952567 3.8125 7.0625 C1.93606239 8.93893761 -0.68555701 8.24234987 -3.1796875 8.29296875 C-5.1875 8.0625 -5.1875 8.0625 -8.1875 6.0625 C-7.8575 4.4125 -7.5275 2.7625 -7.1875 1.0625 C-4.43671116 0.14557039 -2.82801087 -0.04636083 0 0 Z " fill="#919191" transform="translate(209.1875,50.9375)"/>
<path d="M0 0 C0 3.63 0 7.26 0 11 C-3.63 11 -7.26 11 -11 11 C-10.67 10.01 -10.34 9.02 -10 8 C-11.98 8.33 -13.96 8.66 -16 9 C-13.88279445 6.88279445 -12.36201245 6.19458655 -9.625 5.0625 C-6.92431009 3.90320063 -2.59470023 0 0 0 Z " fill="#ADADAD" transform="translate(320,166)"/>
<path d="M0 0 C2.97 0 5.94 0 9 0 C9 3.63 9 7.26 9 11 C7.02 11 5.04 11 3 11 C1.12270187 7.8320594 0.90412328 5.64331523 1 2 C0.67 1.34 0.34 0.68 0 0 Z " fill="#919191" transform="translate(157,95)"/>
<path d="M0 0 C0.33 1.32 0.66 2.64 1 4 C2.65 4 4.3 4 6 4 C6 7.63 6 11.26 6 15 C4.35 15 2.7 15 1 15 C0.67 16.32 0.34 17.64 0 19 C-0.78441153 12.43507888 -1.10914408 6.53162622 0 0 Z " fill="#B1B1B1" transform="translate(124,138)"/>
<path d="M0 0 C7.26 0 14.52 0 22 0 C22 0.33 22 0.66 22 1 C20.02 1.33 18.04 1.66 16 2 C16 3.32 16 4.64 16 6 C12.37 6 8.74 6 5 6 C4.67 4.68 4.34 3.36 4 2 C2.68 2 1.36 2 0 2 C0 1.34 0 0.68 0 0 Z " fill="#B2B2B2" transform="translate(280,76)"/>
<path d="M0 0 C1.28583984 0.00580078 1.28583984 0.00580078 2.59765625 0.01171875 C4.9375 0.3125 4.9375 0.3125 7.9375 2.3125 C7.9375 3.3025 7.9375 4.2925 7.9375 5.3125 C3.6475 5.3125 -0.6425 5.3125 -5.0625 5.3125 C-5.0625 5.9725 -5.0625 6.6325 -5.0625 7.3125 C-6.0525 7.6425 -7.0425 7.9725 -8.0625 8.3125 C-8.3925 6.6625 -8.7225 5.0125 -9.0625 3.3125 C-5.98853295 0.60940601 -4.08036274 -0.08000711 0 0 Z " fill="#32383F" transform="translate(270.0625,106.6875)"/>
<path d="M0 0 C1.51953125 1.14453125 1.51953125 1.14453125 3 3 C3.07421875 5.69921875 3.07421875 5.69921875 2.6875 8.6875 C2.50767578 10.17830078 2.50767578 10.17830078 2.32421875 11.69921875 C2.21722656 12.45847656 2.11023438 13.21773437 2 14 C-0.64 14 -3.28 14 -6 14 C-5.41892368 10.2397015 -4.34800504 7.46964968 -2.4375 4.1875 C-1.98246094 3.39730469 -1.52742187 2.60710937 -1.05859375 1.79296875 C-0.53458984 0.90544922 -0.53458984 0.90544922 0 0 Z " fill="#ABABAB" transform="translate(163,80)"/>
<path d="M0 0 C2.13586678 3.20380017 2.23132175 4.01939967 2.125 7.6875 C2.10695313 8.49574219 2.08890625 9.30398437 2.0703125 10.13671875 C2.03550781 11.05904297 2.03550781 11.05904297 2 12 C-2.17737474 13.59138085 -5.53160785 14.21278058 -10 14 C-8.625 12 -8.625 12 -7 10 C-6.34 10 -5.68 10 -5 10 C-4.67 8.68 -4.34 7.36 -4 6 C-3.34 6 -2.68 6 -2 6 C-1.34 4.02 -0.68 2.04 0 0 Z " fill="#AAAAAA" transform="translate(330,152)"/>
<path d="M0 0 C3.96 0 7.92 0 12 0 C11.67 4.62 11.34 9.24 11 14 C10.01 14 9.02 14 8 14 C8 12.02 8 10.04 8 8 C6.35 8.33 4.7 8.66 3 9 C4.65 7.02 6.3 5.04 8 3 C7.4225 2.87625 6.845 2.7525 6.25 2.625 C4 2 4 2 0 0 Z " fill="#F6EBC2" transform="translate(267,145)"/>
<path d="M0 0 C2 3.75 2 3.75 2 6 C2.63808594 6.04898438 3.27617187 6.09796875 3.93359375 6.1484375 C4.75988281 6.22320312 5.58617187 6.29796875 6.4375 6.375 C7.26121094 6.44460937 8.08492187 6.51421875 8.93359375 6.5859375 C9.61550781 6.72257813 10.29742187 6.85921875 11 7 C11.33 7.66 11.66 8.32 12 9 C4.30881404 9.75166913 -3.27227893 10.13690844 -11 10 C-11 9.34 -11 8.68 -11 8 C-10.37351563 7.92523438 -9.74703125 7.85046875 -9.1015625 7.7734375 C-6.59401809 7.37001553 -4.36502817 6.93390509 -2 6 C-0.30834699 3.01716843 -0.30834699 3.01716843 0 0 Z " fill="#9B9B9B" transform="translate(213,182)"/>
<path d="M0 0 C3.63 0 7.26 0 11 0 C11 0.66 11 1.32 11 2 C13.31 2 15.62 2 18 2 C18 2.33 18 2.66 18 3 C4.14 3 -9.72 3 -24 3 C-24 2.67 -24 2.34 -24 2 C-16.08 2 -8.16 2 0 2 C0 1.34 0 0.68 0 0 Z " fill="#B0B0B0" transform="translate(285,189)"/>
<path d="M0 0 C0.66 0.33 1.32 0.66 2 1 C1.835 1.763125 1.67 2.52625 1.5 3.3125 C0.90854604 6.03596236 0.90854604 6.03596236 1 9 C0.84739214 10.73046409 0.67951995 12.45962045 0.5 14.1875 C0.4071875 15.08855469 0.314375 15.98960938 0.21875 16.91796875 C0.1465625 17.60503906 0.074375 18.29210937 0 19 C-0.33 19 -0.66 19 -1 19 C-1.33 15.7 -1.66 12.4 -2 9 C-7.44328904 9 -8.20127698 9.52688181 -12 13 C-10.61536056 9.87250593 -9.00477577 7.7595015 -6.5625 5.375 C-5.96566406 4.78460938 -5.36882812 4.19421875 -4.75390625 3.5859375 C-3 2 -3 2 0 0 Z " fill="#B1B1B1" transform="translate(143,110)"/>
<path d="M0 0 C1.32 0.33 2.64 0.66 4 1 C4.38133299 2.9914056 4.71325582 4.99279077 5 7 C4 8 4 8 1.49609375 8.09765625 C-0.01791016 8.08025391 -0.01791016 8.08025391 -1.5625 8.0625 C-2.57441406 8.05347656 -3.58632812 8.04445313 -4.62890625 8.03515625 C-5.41136719 8.02355469 -6.19382813 8.01195313 -7 8 C-6.67 6.68 -6.34 5.36 -6 4 C-3.92446352 3.4465236 -2.15634036 3 0 3 C0 2.01 0 1.02 0 0 Z " fill="#A6A6A6" transform="translate(185,63)"/>
<path d="M0 0 C0.36256858 1.4562672 0.71479793 2.91511185 1.0625 4.375 C1.25972656 5.18710938 1.45695313 5.99921875 1.66015625 6.8359375 C2 9 2 9 1 11 C-0.65 11 -2.3 11 -4 11 C-4.50403768 9.70990357 -5.00309926 8.41786211 -5.5 7.125 C-5.7784375 6.40570313 -6.056875 5.68640625 -6.34375 4.9453125 C-7 3 -7 3 -7 1 C-4.50935112 0.31292445 -2.62113708 0 0 0 Z " fill="#373F4B" transform="translate(232,124)"/>
<path d="M0 0 C2 2 2 2 2.375 5.4375 C2.64213535 9.05180504 2.64213535 9.05180504 5.0625 10.9375 C5.701875 11.288125 6.34125 11.63875 7 12 C6.67 12.99 6.34 13.98 6 15 C4.35 15 2.7 15 1 15 C-1.20399168 10.44508386 -1.58846263 5.97093824 -2 1 C-1.34 0.67 -0.68 0.34 0 0 Z " fill="#272830" transform="translate(243,120)"/>
<path d="M0 0 C1.32 0.33 2.64 0.66 4 1 C5.28317892 4.84953676 5.06643637 7.94738135 5 12 C3.35 12 1.7 12 0 12 C0 8.04 0 4.08 0 0 Z " fill="#919191" transform="translate(344,118)"/>
<path d="M0 0 C2 2 2 2 2 4 C2.66 4.66 3.32 5.32 4 6 C3.34 7.98 2.68 9.96 2 12 C1.67 12 1.34 12 1 12 C1 10.02 1 8.04 1 6 C-2.3 6 -5.6 6 -9 6 C-9.33 5.34 -9.66 4.68 -10 4 C-6.7 2.68 -3.4 1.36 0 0 Z " fill="#A2A2A2" transform="translate(200,53)"/>
<path d="M0 0 C0.33 0.66 0.66 1.32 1 2 C3.02463255 2.65213292 3.02463255 2.65213292 5 3 C3.35 3 1.7 3 0 3 C0.309375 4.918125 0.309375 4.918125 0.625 6.875 C0.9765625 9.0546875 0.9765625 9.0546875 1 11 C0.34 11.66 -0.32 12.32 -1 13 C-4 8.25 -4 8.25 -4 6 C-4.66 6 -5.32 6 -6 6 C-6.33 4.68 -6.66 3.36 -7 2 C-4.69 1.34 -2.38 0.68 0 0 Z " fill="#A5A5A5" transform="translate(332,104)"/>
<path d="M0 0 C0.33 0.66 0.66 1.32 1 2 C1.66 2.33 2.32 2.66 3 3 C0.03 5.31 -2.94 7.62 -6 10 C-6.66 9.67 -7.32 9.34 -8 9 C-8 6.69 -8 4.38 -8 2 C-5.69 2.33 -3.38 2.66 -1 3 C-0.67 2.01 -0.34 1.02 0 0 Z " fill="#B8B8B8" transform="translate(328,175)"/>
<path d="M0 0 C-1.450954 3.82524236 -3.38181932 5.19090966 -7 7 C-7.66 7 -8.32 7 -9 7 C-9 6.34 -9 5.68 -9 5 C-12.3 5.33 -15.6 5.66 -19 6 C-19 5.67 -19 5.34 -19 5 C-18.09636719 4.72285156 -17.19273437 4.44570312 -16.26171875 4.16015625 C-15.08222656 3.79792969 -13.90273438 3.43570313 -12.6875 3.0625 C-10.92986328 2.52302734 -10.92986328 2.52302734 -9.13671875 1.97265625 C-2.7751004 0 -2.7751004 0 0 0 Z " fill="#DDA34D" transform="translate(275,148)"/>
<path d="M0 0 C0.66 0.33 1.32 0.66 2 1 C1.67 5.29 1.34 9.58 1 14 C1.66 14.33 2.32 14.66 3 15 C2.34 15 1.68 15 1 15 C1 15.66 1 16.32 1 17 C-2.3 17 -5.6 17 -9 17 C-9 16.67 -9 16.34 -9 16 C-6.03 16 -3.06 16 0 16 C-0.33 14.35 -0.66 12.7 -1 11 C-1.33 11.66 -1.66 12.32 -2 13 C-2.66 13 -3.32 13 -4 13 C-2.87548273 10.0280615 -1.77706209 7.66559313 0 5 C-0.99 5 -1.98 5 -3 5 C-1.125 1.125 -1.125 1.125 0 0 Z " fill="#9A9A9A" transform="translate(177,66)"/>
<path d="M0 0 C2.31 0.33 4.62 0.66 7 1 C7 1.66 7 2.32 7 3 C8.98 3.66 10.96 4.32 13 5 C10.5332355 5.88336837 9.36140628 6.1312406 6.859375 5.22265625 C6.16328125 4.83980469 5.4671875 4.45695313 4.75 4.0625 C3.69039062 3.49208984 3.69039062 3.49208984 2.609375 2.91015625 C2.07828125 2.60980469 1.5471875 2.30945313 1 2 C1.763125 2.763125 2.52625 3.52625 3.3125 4.3125 C5.20833333 6.20833333 7.10416667 8.10416667 9 10 C4.10842202 8.7771055 1.65381366 7.3522544 -1 3 C-0.67 2.01 -0.34 1.02 0 0 Z " fill="#F6E8C0" transform="translate(191,142)"/>
<path d="M0 0 C0.90105469 0.00902344 1.80210937 0.01804688 2.73046875 0.02734375 C3.41753906 0.03894531 4.10460937 0.05054688 4.8125 0.0625 C4.4825 1.0525 4.1525 2.0425 3.8125 3.0625 C2.8225 2.7325 1.8325 2.4025 0.8125 2.0625 C0.8125 2.7225 0.8125 3.3825 0.8125 4.0625 C-3.1475 4.0625 -7.1075 4.0625 -11.1875 4.0625 C-7.36211648 0.23711648 -5.18269223 -0.06730769 0 0 Z " fill="#D8AB5D" transform="translate(277.1875,140.9375)"/>
<path d="M0 0 C0 3.63 0 7.26 0 11 C-0.66 11 -1.32 11 -2 11 C-2 10.01 -2 9.02 -2 8 C-2.66 7.67 -3.32 7.34 -4 7 C-4.33 7.33 -4.66 7.66 -5 8 C-5.66 8 -6.32 8 -7 8 C-6.8125 5.6875 -6.8125 5.6875 -6 3 C-1.86206897 0 -1.86206897 0 0 0 Z " fill="#A3A3A3" transform="translate(140,152)"/>
<path d="M0 0 C4.29 0.33 8.58 0.66 13 1 C13 1.99 13 2.98 13 4 C11.39773045 4.22245393 9.79303233 4.42746669 8.1875 4.625 C7.29417969 4.74101562 6.40085937 4.85703125 5.48046875 4.9765625 C3 5 3 5 0 3 C0 2.01 0 1.02 0 0 Z " fill="#36394A" transform="translate(259,130)"/>
<path d="M0 0 C0.66 0.66 1.32 1.32 2 2 C1.71267364 6.45355865 1.4056198 10.15100832 -1 14 C-2.75747614 9.49646738 -3.19294408 5.82360189 -3 1 C-2.01 0.67 -1.02 0.34 0 0 Z " fill="#F5F6F5" transform="translate(247,114)"/>
<path d="M0 0 C1.35439668 2.70879335 1.06501451 5.00933268 1 8 C2.32 8.33 3.64 8.66 5 9 C5.33 8.34 5.66 7.68 6 7 C6.33 7.99 6.66 8.98 7 10 C6.67 10.66 6.34 11.32 6 12 C3.525 11.01 3.525 11.01 1 10 C1 12.97 1 15.94 1 19 C0.67 19 0.34 19 0 19 C0 16.03 0 13.06 0 10 C-3.3 10.33 -6.6 10.66 -10 11 C-10 10.34 -10 9.68 -10 9 C-7.03 9 -4.06 9 -1 9 C-1.020625 7.700625 -1.04125 6.40125 -1.0625 5.0625 C-1.08399454 3.70834367 -1.07148199 2.35243917 -1 1 C-0.67 0.67 -0.34 0.34 0 0 Z " fill="#9E9E9E" transform="translate(166,85)"/>
<path d="M0 0 C6.43681228 0.51085812 11.95942424 1.72942897 18 4 C18 4.66 18 5.32 18 6 C11.38914524 5.51030705 6.05022986 3.66557258 0 1 C0 0.67 0 0.34 0 0 Z " fill="#FBEAB1" transform="translate(204,148)"/>
<path d="M0 0 C0.33 0 0.66 0 1 0 C1.33 3.63 1.66 7.26 2 11 C0.02 11 -1.96 11 -4 11 C-5 9 -5 9 -4.0625 5.875 C-3.711875 4.92625 -3.36125 3.9775 -3 3 C-2.01 3 -1.02 3 0 3 C0 2.01 0 1.02 0 0 Z " fill="#1E2736" transform="translate(215,120)"/>
<path d="M0 0 C0.33 0 0.66 0 1 0 C1 4.95 1 9.9 1 15 C0.67 15 0.34 15 0 15 C-0.33 13.35 -0.66 11.7 -1 10 C-2.65 10 -4.3 10 -6 10 C-5.67 9.34 -5.34 8.68 -5 8 C-5.99 8 -6.98 8 -8 8 C-8 7.34 -8 6.68 -8 6 C-7.38125 5.9175 -6.7625 5.835 -6.125 5.75 C-3.81562433 5.18741541 -3.81562433 5.18741541 -2.75 2.9375 C-2.5025 2.298125 -2.255 1.65875 -2 1 C-1.67 1.99 -1.34 2.98 -1 4 C-0.67 2.68 -0.34 1.36 0 0 Z " fill="#414A56" transform="translate(216,113)"/>
<path d="M0 0 C1.65 0 3.3 0 5 0 C5 3.63 5 7.26 5 11 C4.34 11 3.68 11 3 11 C0 4.5 0 4.5 0 0 Z " fill="#919191" transform="translate(125,154)"/>
<path d="M0 0 C1.65 0 3.3 0 5 0 C5.22331199 1.58129029 5.42804644 3.16521089 5.625 4.75 C5.74101562 5.63171875 5.85703125 6.5134375 5.9765625 7.421875 C6.00207817 10.22859878 5.44843844 11.63384866 4 14 C3.32968281 12.0429132 2.66385317 10.08428887 2 8.125 C1.62875 7.03445312 1.2575 5.94390625 0.875 4.8203125 C0 2 0 2 0 0 Z " fill="#222736" transform="translate(220,108)"/>
<path d="M0 0 C0.33 0.66 0.66 1.32 1 2 C3.02463255 2.65213292 3.02463255 2.65213292 5 3 C3.14570806 4.85429194 0.49788211 4.46489394 -1.98828125 4.74609375 C-4.04849406 5.00612061 -6.00636538 5.41852324 -8 6 C-7.67 4.35 -7.34 2.7 -7 1 C-4 0 -4 0 0 0 Z " fill="#363A43" transform="translate(204,107)"/>
<path d="M0 0 C3.465 1.485 3.465 1.485 7 3 C7 3.66 7 4.32 7 5 C3.17679443 6.42258812 0.08718695 7.24042276 -4 7 C-3.01 6.67 -2.02 6.34 -1 6 C-1 5.34 -1 4.68 -1 4 C-1.66 3.67 -2.32 3.34 -3 3 C-2.01 2.67 -1.02 2.34 0 2 C0 1.34 0 0.68 0 0 Z " fill="#FCF5DA" transform="translate(265,144)"/>
<path d="M0 0 C0.33 0 0.66 0 1 0 C1 1.65 1 3.3 1 5 C3.97 5.495 3.97 5.495 7 6 C7 6.33 7 6.66 7 7 C5.02 7 3.04 7 1 7 C1 8.65 1 10.3 1 12 C0.67 12 0.34 12 0 12 C0 10.35 0 8.7 0 7 C-0.66 7 -1.32 7 -2 7 C-2.12375 7.78375 -2.2475 8.5675 -2.375 9.375 C-3 12 -3 12 -5 14 C-4.46515599 8.65155992 -2.53309233 4.64203897 0 0 Z " fill="#BCBCBC" transform="translate(130,123)"/>
<path d="M0 0 C3.98010684 5.30680912 6.65776513 11.20309371 6 18 C4.79371992 15.66785852 3.8345262 13.50357861 3 11 C2.01 10.67 1.02 10.34 0 10 C0 6.7 0 3.4 0 0 Z " fill="#C2C2C2" transform="translate(344,108)"/>
<path d="M0 0 C2.35953094 2.35953094 2.49141413 3.77895617 3 7 C3.66 7 4.32 7 5 7 C5.33 5.68 5.66 4.36 6 3 C6 4.32 6 5.64 6 7 C9.3 7 12.6 7 16 7 C16 7.33 16 7.66 16 8 C12.7 8.33 9.4 8.66 6 9 C5.67 10.32 5.34 11.64 5 13 C4.15930585 11.39967863 3.32768495 9.79458829 2.5 8.1875 C1.80390625 6.84751953 1.80390625 6.84751953 1.09375 5.48046875 C0 3 0 3 0 0 Z " fill="#B4B4B4" transform="translate(125,158)"/>
<path d="M0 0 C0.66 0 1.32 0 2 0 C2 3.63 2 7.26 2 11 C0.68 11 -0.64 11 -2 11 C-2.19622241 6.78121808 -1.80230168 3.82989106 0 0 Z " fill="#8E8E8E" transform="translate(128,130)"/>
<path d="M0 0 C-0.5625 1.9375 -0.5625 1.9375 -2 4 C-5.4375 4.9375 -5.4375 4.9375 -9 5 C-10.9375 3.5625 -10.9375 3.5625 -12 2 C-10.7625 1.67 -9.525 1.34 -8.25 1 C-7.55390625 0.814375 -6.8578125 0.62875 -6.140625 0.4375 C-4 0 -4 0 0 0 Z " fill="#ED9C22" transform="translate(266,153)"/>
<path d="M0 0 C-0.11398665 1.62580966 -0.24155659 3.25067157 -0.375 4.875 C-0.47941406 6.23238281 -0.47941406 6.23238281 -0.5859375 7.6171875 C-1 10 -1 10 -3 12 C-4.20272819 9.59454362 -4.10071472 8.05003047 -4.0625 5.375 C-4.05347656 4.55773437 -4.04445312 3.74046875 -4.03515625 2.8984375 C-4.02355469 2.27195312 -4.01195312 1.64546875 -4 1 C-2 0 -2 0 0 0 Z " fill="#232F38" transform="translate(236,119)"/>
<path d="M0 0 C1.65 0 3.3 0 5 0 C3.5682479 5.01113235 1.01554307 6.94469549 -3 10 C-3.33 8.68 -3.66 7.36 -4 6 C-3.01 5.67 -2.02 5.34 -1 5 C-0.67 4.01 -0.34 3.02 0 2 C0 2.66 0 3.32 0 4 C0.66 4 1.32 4 2 4 C1.34 2.68 0.68 1.36 0 0 Z " fill="#B7B7B7" transform="translate(335,166)"/>
<path d="M0 0 C0.99 0 1.98 0 3 0 C3 0.66 3 1.32 3 2 C3.60328125 2.10957031 4.2065625 2.21914062 4.828125 2.33203125 C6.02695313 2.56986328 6.02695313 2.56986328 7.25 2.8125 C8.03890625 2.96332031 8.8278125 3.11414063 9.640625 3.26953125 C12.25904109 4.08019981 13.91104512 5.25121897 16 7 C14.3745692 6.85904936 12.74965949 6.71207913 11.125 6.5625 C10.22007812 6.48128906 9.31515625 6.40007812 8.3828125 6.31640625 C6 6 6 6 4 5 C4 4.34 4 3.68 4 3 C2.68 2.67 1.36 2.34 0 2 C0 1.34 0 0.68 0 0 Z " fill="#E99F2E" transform="translate(212,154)"/>
<path d="M0 0 C3.3 0 6.6 0 10 0 C10 1.98 10 3.96 10 6 C6.00499382 4.6302836 3.19990508 2.74277578 0 0 Z " fill="#AFAFAF" transform="translate(310,95)"/>
<path d="M0 0 C4 1.33333333 8 2.66666667 12 4 C11.34 5.32 10.68 6.64 10 8 C6.01328937 6.63312778 3.11505367 4.84804907 0 2 C0 1.34 0 0.68 0 0 Z " fill="#D2A159" transform="translate(192,144)"/>
<path d="M0 0 C0 1.32 0 2.64 0 4 C-1.32 4.33 -2.64 4.66 -4 5 C-4.33 4.01 -4.66 3.02 -5 2 C-5.99 2.33 -6.98 2.66 -8 3 C-10.3406065 2.72230092 -12.67624308 2.39460023 -15 2 C-15 1.67 -15 1.34 -15 1 C-10.03926578 -0.32286246 -5.08888488 -0.08893197 0 0 Z " fill="#3C4147" transform="translate(218,130)"/>
<path d="M0 0 C1.49403054 2.98806107 2.79310745 5.89656201 4 9 C3.01 9 2.02 9 1 9 C1 9.66 1 10.32 1 11 C-1.31 11 -3.62 11 -6 11 C-5.01 10.67 -4.02 10.34 -3 10 C-2.26676204 7.98491642 -2.26676204 7.98491642 -2 6 C-2 6.99 -2 7.98 -2 9 C-1.34 9 -0.68 9 0 9 C0 6.03 0 3.06 0 0 Z " fill="#ADADAD" transform="translate(140,154)"/>
<path d="M0 0 C1.37432457 3.81756824 0.67975039 7.07255329 0 11 C0.66 11.33 1.32 11.66 2 12 C1.67 12.66 1.34 13.32 1 14 C-0.32 13.67 -1.64 13.34 -3 13 C-3.33 11.35 -3.66 9.7 -4 8 C-3.34 7.67 -2.68 7.34 -2 7 C-1.26924352 4.6859378 -0.59861742 2.35171131 0 0 Z " fill="#424D55" transform="translate(249,117)"/>
<path d="M0 0 C2.64 0 5.28 0 8 0 C8 0.66 8 1.32 8 2 C6.35 2.33 4.7 2.66 3 3 C2.67 3.99 2.34 4.98 2 6 C1.01 5.01 0.02 4.02 -1 3 C-0.67 2.01 -0.34 1.02 0 0 Z " fill="#DCE4E3" transform="translate(264,135)"/>
<path d="M0 0 C-0.33 1.98 -0.66 3.96 -1 6 C-3.64 6 -6.28 6 -9 6 C-8.34 5.67 -7.68 5.34 -7 5 C-7 3.68 -7 2.36 -7 1 C-2.25 0 -2.25 0 0 0 Z " fill="#F3F2F0" transform="translate(225,129)"/>
<path d="M0 0 C3 4 3 4 4 6 C3.01 6.33 2.02 6.66 1 7 C1 6.34 1 5.68 1 5 C-4.94 4.01 -4.94 4.01 -11 3 C-11 2.67 -11 2.34 -11 2 C-5.555 1.01 -5.555 1.01 0 0 Z " fill="#E2E6E6" transform="translate(214,104)"/>
<path d="M0 0 C2.31 0 4.62 0 7 0 C6.195625 0.45375 5.39125 0.9075 4.5625 1.375 C0.85998002 5.16782534 1.10763497 8.87266134 1 14 C-1.36574234 10.4513865 -1.10865265 9.4235475 -0.625 5.3125 C-0.51414063 4.31863281 -0.40328125 3.32476562 -0.2890625 2.30078125 C-0.19367188 1.54152344 -0.09828125 0.78226563 0 0 Z " fill="#989898" transform="translate(225,49)"/>
<path d="M0 0 C2.31 0 4.62 0 7 0 C8.125 3.75 8.125 3.75 7 6 C3.63279613 4.60667426 2.0140476 3.0210714 0 0 Z " fill="#B7B7B7" transform="translate(135,177)"/>
<path d="M0 0 C0.33 0.66 0.66 1.32 1 2 C6.445 1.505 6.445 1.505 12 1 C11.01 2.485 11.01 2.485 10 4 C7.90625 4.328125 7.90625 4.328125 5.5 4.25 C4.30890625 4.22679687 4.30890625 4.22679687 3.09375 4.203125 C1 4 1 4 -1 3 C-0.67 2.01 -0.34 1.02 0 0 Z " fill="#22272C" transform="translate(198,131)"/>
<path d="M0 0 C2.33944736 0.28730055 4.6739143 0.61936779 7 1 C7.33 2.32 7.66 3.64 8 5 C4.17902761 4.46930939 1.93828597 3.50298434 -1 1 C-0.67 0.67 -0.34 0.34 0 0 Z " fill="#21292E" transform="translate(270,107)"/>
<path d="M0 0 C1.97986082 0.11347619 3.95891598 0.2410935 5.9375 0.375 C7.03964844 0.44460937 8.14179688 0.51421875 9.27734375 0.5859375 C10.62505859 0.79089844 10.62505859 0.79089844 12 1 C12.33 1.66 12.66 2.32 13 3 C9.04 3 5.08 3 1 3 C0.67 2.01 0.34 1.02 0 0 Z " fill="#A0A0A0" transform="translate(236,188)"/>
<path d="M0 0 C0.66 0.33 1.32 0.66 2 1 C0.13497412 3.62799102 -1.30410791 4.86365751 -4.4921875 5.48828125 C-6.9964272 5.72593573 -9.48653979 5.9040664 -12 6 C-9.48617788 4.32411859 -7.17052712 3.05969689 -4.4375 1.8125 C-3.65246094 1.44769531 -2.86742187 1.08289063 -2.05859375 0.70703125 C-1.37925781 0.47371094 -0.69992187 0.24039063 0 0 Z " fill="#FBE9B8" transform="translate(268,154)"/>
<path d="M0 0 C2.97 0.495 2.97 0.495 6 1 C6.33 1.99 6.66 2.98 7 4 C4.6875 4.6875 4.6875 4.6875 2 5 C0.1875 3.5625 0.1875 3.5625 -1 2 C-0.67 1.34 -0.34 0.68 0 0 Z " fill="#E79C34" transform="translate(202,149)"/>
<path d="M0 0 C0.66 0 1.32 0 2 0 C2.33 2.64 2.66 5.28 3 8 C2.01 8.33 1.02 8.66 0 9 C-0.33 9.66 -0.66 10.32 -1 11 C-1.14285714 3.57142857 -1.14285714 3.57142857 0 0 Z " fill="#333B45" transform="translate(241,112)"/>
<path d="M0 0 C4.29 0 8.58 0 13 0 C13 0.66 13 1.32 13 2 C12.34 2 11.68 2 11 2 C11 2.99 11 3.98 11 5 C10.01 5 9.02 5 8 5 C8 3.68 8 2.36 8 1 C5.36 1 2.72 1 0 1 C0 0.67 0 0.34 0 0 Z " fill="#939393" transform="translate(288,77)"/>
<path d="M0 0 C0.66 0 1.32 0 2 0 C1.125 6.75 1.125 6.75 0 9 C-0.66 9 -1.32 9 -2 9 C-2.125 5.625 -2.125 5.625 -2 2 C-1.34 1.34 -0.68 0.68 0 0 Z " fill="#1F2934" transform="translate(251,119)"/>
<path d="M0 0 C3.96 0 7.92 0 12 0 C12 1.98 12 3.96 12 6 C11.71125 5.360625 11.4225 4.72125 11.125 4.0625 C10.17176549 1.84793921 10.17176549 1.84793921 8 1 C8 1.66 8 2.32 8 3 C4.92463146 2.34099246 2.92264434 1.46132217 0 0 Z " fill="#FBE9AB" transform="translate(267,145)"/>
<path d="M0 0 C0.66 0 1.32 0 2 0 C2.98844951 3.94647618 2.96191905 7.27392964 2.5625 11.3125 C2.46066406 12.38113281 2.35882813 13.44976562 2.25390625 14.55078125 C2.12822266 15.76314453 2.12822266 15.76314453 2 17 C1.67 17 1.34 17 1 17 C1 12.38 1 7.76 1 3 C0.34 3 -0.32 3 -1 3 C-0.67 2.01 -0.34 1.02 0 0 Z " fill="#B2B2B2" transform="translate(138,135)"/>
<path d="M0 0 C0.33 0.99 0.66 1.98 1 3 C-1.64738916 4.4606285 -2.89448334 5 -6 5 C-6 3.68 -6 2.36 -6 1 C-4 0 -4 0 0 0 Z " fill="#E9EEEF" transform="translate(271,111)"/>
<path d="M0 0 C1.98 0.66 3.96 1.32 6 2 C5.67 3.32 5.34 4.64 5 6 C3.35 6 1.7 6 0 6 C0 4.02 0 2.04 0 0 Z " fill="#29343B" transform="translate(244,129)"/>
<path d="M0 0 C1.65 0 3.3 0 5 0 C4.67 2.31 4.34 4.62 4 7 C1 5 1 5 0.3125 2.375 C0.209375 1.59125 0.10625 0.8075 0 0 Z " fill="#3F414F" transform="translate(252,107)"/>
<path d="M0 0 C2.125 0.9375 2.125 0.9375 4 2 C3.67 3.65 3.34 5.3 3 7 C2.67 6.34 2.34 5.68 2 5 C-0.01669827 3.86649466 -0.01669827 3.86649466 -2 3 C-2 2.34 -2 1.68 -2 1 C-1.34 0.67 -0.68 0.34 0 0 Z " fill="#919191" transform="translate(269,82)"/>
<path d="M0 0 C0.33 0 0.66 0 1 0 C1.66 2.97 2.32 5.94 3 9 C1.68 9.33 0.36 9.66 -1 10 C-0.67 6.7 -0.34 3.4 0 0 Z " fill="#FCF7E9" transform="translate(285,142)"/>
<path d="M0 0 C0.66 0.33 1.32 0.66 2 1 C1.34 2.65 0.68 4.3 0 6 C-1.98 6 -3.96 6 -6 6 C-4 4 -2 2 0 0 Z " fill="#C2C2C2" transform="translate(143,110)"/>
<path d="M0 0 C1.875 0.3125 1.875 0.3125 4 1 C6 4 6 4 5.625 6.1875 C5.41875 6.785625 5.2125 7.38375 5 8 C4.7525 7.195625 4.505 6.39125 4.25 5.5625 C3.27761141 2.828919 3.27761141 2.828919 0.875 2.1875 C0.25625 2.125625 -0.3625 2.06375 -1 2 C-0.67 1.34 -0.34 0.68 0 0 Z " fill="#DFE2E7" transform="translate(206,111)"/>
<path d="M0 0 C4.84659077 0.59104765 8.60748167 1.97944157 13 4 C13 4.33 13 4.66 13 5 C7.25 5.125 7.25 5.125 5 4 C5 3.34 5 2.68 5 2 C4.01 2.33 3.02 2.66 2 3 C2 2.34 2 1.68 2 1 C1.34 0.67 0.68 0.34 0 0 Z " fill="#C2C2C2" transform="translate(307,78)"/>
<path d="M0 0 C0.33 1.32 0.66 2.64 1 4 C-1.97 6.475 -1.97 6.475 -5 9 C-5.66 8.67 -6.32 8.34 -7 8 C-4.69 5.36 -2.38 2.72 0 0 Z " fill="#BEBEBE" transform="translate(172,69)"/>
<path d="M0 0 C0.99 0.495 0.99 0.495 2 1 C2 2.32 2 3.64 2 5 C3.65 4.34 5.3 3.68 7 3 C7 3.99 7 4.98 7 6 C4.69 6 2.38 6 0 6 C0 4.02 0 2.04 0 0 Z " fill="#A9A9A9" transform="translate(131,135)"/>
<path d="M0 0 C0.66 0 1.32 0 2 0 C3.125 3.75 3.125 3.75 2 6 C0.35 6 -1.3 6 -3 6 C-3 5.34 -3 4.68 -3 4 C-2.34 3.67 -1.68 3.34 -1 3 C-0.67 2.01 -0.34 1.02 0 0 Z " fill="#2D3941" transform="translate(231,129)"/>
<path d="M0 0 C1.32 0.66 2.64 1.32 4 2 C4 2.66 4 3.32 4 4 C3.01 4 2.02 4 1 4 C0.67 5.32 0.34 6.64 0 8 C-0.99 6.02 -1.98 4.04 -3 2 C-2.01 1.67 -1.02 1.34 0 1 C0 0.67 0 0.34 0 0 Z " fill="#1B232A" transform="translate(275,121)"/>
<path d="M0 0 C-2.25 2.0625 -2.25 2.0625 -5 4 C-7.3125 3.75 -7.3125 3.75 -9 3 C-9 2.01 -9 1.02 -9 0 C-8.01 0.495 -8.01 0.495 -7 1 C-6.67 0.67 -6.34 0.34 -6 0 C-3 -1 -3 -1 0 0 Z " fill="#E7EBED" transform="translate(266,107)"/>
<path d="M0 0 C1.2065625 0.0309375 1.2065625 0.0309375 2.4375 0.0625 C1.4475 0.7225 0.4575 1.3825 -0.5625 2.0625 C-0.2325 2.7225 0.0975 3.3825 0.4375 4.0625 C0.7675 4.7225 1.0975 5.3825 1.4375 6.0625 C0.7775 6.7225 0.1175 7.3825 -0.5625 8.0625 C-0.5625 7.4025 -0.5625 6.7425 -0.5625 6.0625 C-1.2225 6.0625 -1.8825 6.0625 -2.5625 6.0625 C-2.94468767 4.40635343 -3.27645102 2.73792976 -3.5625 1.0625 C-2.5625 0.0625 -2.5625 0.0625 0 0 Z " fill="#8C8C8C" transform="translate(133.5625,165.9375)"/>
<path d="M0 0 C1.485 0.99 1.485 0.99 3 2 C3.99 1.34 4.98 0.68 6 0 C5.43628586 3.26954202 4.50037734 4.82575883 2 7 C1.01 5.02 0.02 3.04 -1 1 C-0.67 0.67 -0.34 0.34 0 0 Z " fill="#9D9D9D" transform="translate(138,130)"/>
<path d="M0 0 C0 1.98 0 3.96 0 6 C-1.32 5.67 -2.64 5.34 -4 5 C-4 3.68 -4 2.36 -4 1 C-1 0 -1 0 0 0 Z " fill="#3D4146" transform="translate(280,124)"/>
<path d="M0 0 C2.475 0.495 2.475 0.495 5 1 C4.67 2.98 4.34 4.96 4 7 C3.34 7 2.68 7 2 7 C1.34 4.69 0.68 2.38 0 0 Z " fill="#F6F9F6" transform="translate(205,123)"/>
<path d="M0 0 C0.66 0.33 1.32 0.66 2 1 C1.6875 2.9375 1.6875 2.9375 1 5 C0.01 5.33 -0.98 5.66 -2 6 C-2.33 4.35 -2.66 2.7 -3 1 C-2.01 0.67 -1.02 0.34 0 0 Z " fill="#DEE4EC" transform="translate(273,125)"/>
<path d="M0 0 C2 4 2 4 1.25 6.6875 C0 9 0 9 -2 10 C-1.34 6.7 -0.68 3.4 0 0 Z " fill="#D6DEE4" transform="translate(238,114)"/>
<path d="M0 0 C2.64 0 5.28 0 8 0 C7.67 0.66 7.34 1.32 7 2 C3.9375 2.625 3.9375 2.625 1 3 C0.67 2.01 0.34 1.02 0 0 Z " fill="#929292" transform="translate(154,118)"/>
<path d="M0 0 C1.9375 0.3125 1.9375 0.3125 4 1 C4.33 1.99 4.66 2.98 5 4 C3.35 4.33 1.7 4.66 0 5 C0 3.35 0 1.7 0 0 Z " fill="#A5A5A5" transform="translate(332,166)"/>
<path d="M0 0 C0.99 0.66 1.98 1.32 3 2 C3 2.66 3 3.32 3 4 C-0.63 4 -4.26 4 -8 4 C-8 3.67 -8 3.34 -8 3 C-5.36 3 -2.72 3 0 3 C0 2.01 0 1.02 0 0 Z " fill="#22272D" transform="translate(272,131)"/>
<path d="M0 0 C0.66 0.33 1.32 0.66 2 1 C2 2.98 2 4.96 2 7 C1.34 7 0.68 7 0 7 C-0.33 7.66 -0.66 8.32 -1 9 C-0.67 6.03 -0.34 3.06 0 0 Z " fill="#D9E1E4" transform="translate(235,124)"/>
<path d="M0 0 C0.99 0 1.98 0 3 0 C3 0.99 3 1.98 3 3 C3.66 3.33 4.32 3.66 5 4 C3.68 4.33 2.36 4.66 1 5 C0.34 3.68 -0.32 2.36 -1 1 C-0.67 0.67 -0.34 0.34 0 0 Z " fill="#242B38" transform="translate(263,117)"/>
<path d="M0 0 C2.31 0.33 4.62 0.66 7 1 C6.01 1.33 5.02 1.66 4 2 C4 2.66 4 3.32 4 4 C2.68 4.33 1.36 4.66 0 5 C0 3.35 0 1.7 0 0 Z " fill="#2E3440" transform="translate(200,119)"/>
<path d="M0 0 C0.99 0.33 1.98 0.66 3 1 C3 2.32 3 3.64 3 5 C2.01 5.33 1.02 5.66 0 6 C-0.38218767 4.34385343 -0.71395102 2.67542976 -1 1 C-0.67 0.67 -0.34 0.34 0 0 Z " fill="#232833" transform="translate(262,109)"/>
</svg>
