<?xml version="1.0" encoding="UTF-8"?>
<svg version="1.1" xmlns="http://www.w3.org/2000/svg" width="3840" height="2160">
<path d="M0 0 C0.66 0 1.32 0 2 0 C2.3309668 0.61705811 2.66193359 1.23411621 3.00292969 1.86987305 C9.3101987 13.61298351 15.68653937 25.30342203 22.33911133 36.85473633 C26.44165239 43.98996758 30.44981496 51.17502723 34.4375 58.375 C39.63335844 67.75419399 44.86974151 77.10850049 50.15600586 86.43701172 C54.12620629 93.44567417 58.06868319 100.46945989 62 107.5 C66.48029336 115.51125156 70.9780611 123.51218091 75.5 131.5 C81.77973355 142.59467275 88.01100732 153.71613454 94.23388672 164.84277344 C97.15398136 170.06293709 100.07709832 175.28140773 103 180.5 C106.51323852 186.77258848 110.02581749 193.04554119 113.53515625 199.3203125 C119.16934113 209.39204122 124.81542249 219.45661343 130.5 229.5 C137.96921324 242.69644174 145.369364 255.93131721 152.77050781 269.16601562 C158.99194386 280.28970968 165.22197534 291.40812405 171.5 302.5 C178.96921324 315.69644174 186.369364 328.93131721 193.77050781 342.16601562 C199.99194386 353.28970968 206.22197534 364.40812405 212.5 375.5 C218.77963839 386.59472704 225.01100698 397.71613393 231.23388672 408.84277344 C234.15398136 414.06293709 237.07709832 419.28140773 240 424.5 C243.51323852 430.77258848 247.02581749 437.04554119 250.53515625 443.3203125 C256.16934113 453.39204122 261.81542249 463.45661343 267.5 473.5 C274.96921324 486.69644174 282.369364 499.93131721 289.77050781 513.16601562 C295.99194386 524.28970968 302.22197534 535.40812405 308.5 546.5 C315.96921324 559.69644174 323.369364 572.93131721 330.77050781 586.16601562 C336.99194386 597.28970968 343.22197534 608.40812405 349.5 619.5 C355.77963839 630.59472704 362.01100698 641.71613393 368.23388672 652.84277344 C371.15398136 658.06293709 374.07709832 663.28140773 377 668.5 C380.51323852 674.77258848 384.02581749 681.04554119 387.53515625 687.3203125 C393.16934113 697.39204122 398.81542249 707.45661343 404.5 717.5 C411.96921324 730.69644174 419.369364 743.93131721 426.77050781 757.16601562 C432.99194386 768.28970968 439.22197534 779.40812405 445.5 790.5 C451.77963839 801.59472704 458.01100698 812.71613393 464.23388672 823.84277344 C467.15398136 829.06293709 470.07709832 834.28140773 473 839.5 C476.51323852 845.77258848 480.02581749 852.04554119 483.53515625 858.3203125 C489.16934113 868.39204122 494.81542249 878.45661343 500.5 888.5 C507.96921324 901.69644174 515.369364 914.93131721 522.77050781 928.16601562 C528.99194386 939.28970968 535.22197534 950.40812405 541.5 961.5 C548.96921324 974.69644174 556.369364 987.93131721 563.77050781 1001.16601562 C569.99194386 1012.28970968 576.22197534 1023.40812405 582.5 1034.5 C588.77963839 1045.59472704 595.01100698 1056.71613393 601.23388672 1067.84277344 C604.15398136 1073.06293709 607.07709832 1078.28140773 610 1083.5 C613.51323852 1089.77258848 617.02581749 1096.04554119 620.53515625 1102.3203125 C626.16934113 1112.39204122 631.81542249 1122.45661343 637.5 1132.5 C644.96921324 1145.69644174 652.369364 1158.93131721 659.77050781 1172.16601562 C665.99194386 1183.28970968 672.22197534 1194.40812405 678.5 1205.5 C685.96921324 1218.69644174 693.369364 1231.93131721 700.77050781 1245.16601562 C706.99194386 1256.28970968 713.22197534 1267.40812405 719.5 1278.5 C725.77963839 1289.59472704 732.01100698 1300.71613393 738.23388672 1311.84277344 C741.15398136 1317.06293709 744.07709832 1322.28140773 747 1327.5 C750.51323852 1333.77258848 754.02581749 1340.04554119 757.53515625 1346.3203125 C763.16934113 1356.39204122 768.81542249 1366.45661343 774.5 1376.5 C781.96921324 1389.69644174 789.369364 1402.93131721 796.77050781 1416.16601562 C802.99194386 1427.28970968 809.22197534 1438.40812405 815.5 1449.5 C822.96921324 1462.69644174 830.369364 1475.93131721 837.77050781 1489.16601562 C843.99194386 1500.28970968 850.22197534 1511.40812405 856.5 1522.5 C862.77963839 1533.59472704 869.01100698 1544.71613393 875.23388672 1555.84277344 C878.15398136 1561.06293709 881.07709832 1566.28140773 884 1571.5 C887.51323852 1577.77258848 891.02581749 1584.04554119 894.53515625 1590.3203125 C900.16934113 1600.39204122 905.81542249 1610.45661343 911.5 1620.5 C918.96921324 1633.69644174 926.369364 1646.93131721 933.77050781 1660.16601562 C939.99194386 1671.28970968 946.22197534 1682.40812405 952.5 1693.5 C959.96921324 1706.69644174 967.369364 1719.93131721 974.77050781 1733.16601562 C980.99194386 1744.28970968 987.22197534 1755.40812405 993.5 1766.5 C999.77963839 1777.59472704 1006.01100698 1788.71613393 1012.23388672 1799.84277344 C1015.15398136 1805.06293709 1018.07709832 1810.28140773 1021 1815.5 C1024.51323852 1821.77258848 1028.02581749 1828.04554119 1031.53515625 1834.3203125 C1037.16934113 1844.39204122 1042.81542249 1854.45661343 1048.5 1864.5 C1055.96921324 1877.69644174 1063.369364 1890.93131721 1070.77050781 1904.16601562 C1077.22401783 1915.70464922 1083.68681781 1927.23785947 1090.1875 1938.75 C1090.72834229 1939.7085791 1091.26918457 1940.6671582 1091.82641602 1941.65478516 C1092.58329712 1942.99355713 1092.58329712 1942.99355713 1093.35546875 1944.359375 C1093.79528076 1945.13764648 1094.23509277 1945.91591797 1094.68823242 1946.71777344 C1095.64732983 1948.38642086 1096.64538555 1950.03284396 1097.6652832 1951.66503906 C1099 1954 1099 1954 1099 1956 C428.77 1956 -241.46 1956 -932 1956 C-932 1955.67 -932 1955.34 -932 1955 C-931.06377808 1954.83973107 -930.12755615 1954.67946215 -929.16296387 1954.51433659 C-825.60405704 1936.78626808 -722.0461031 1919.05272321 -618.5 1901.25 C-617.52574837 1901.08249851 -616.55149674 1900.91499701 -615.54772234 1900.74241972 C-596.77256981 1897.51442807 -577.99748951 1894.28601643 -559.2224884 1891.05714417 C-531.92329007 1886.36230821 -504.62386311 1881.66880418 -477.32421875 1876.9765625 C-475.87532174 1876.7275271 -475.87532174 1876.7275271 -474.39715409 1876.47346067 C-462.6231423 1874.44975825 -450.84911841 1872.42612629 -439.07508963 1870.40252268 C-432.15557446 1869.21326226 -425.23606508 1868.02396812 -418.31655884 1866.83465576 C-356.01941675 1856.12714543 -293.72177188 1845.42256277 -231.42385685 1834.71955049 C-223.07222116 1833.28470803 -214.72058858 1831.84984744 -206.36895752 1830.41497803 C-160.37703919 1822.51324857 -114.38508119 1814.61175037 -68.39277458 1806.71228123 C-56.2219291 1804.62186138 -44.0510905 1802.53140151 -31.88027954 1800.44078064 C-30.68012636 1800.23462637 -29.47997318 1800.0284721 -28.24345171 1799.81607074 C-22.20236465 1798.77837023 -16.1612794 1797.74065923 -10.12019539 1796.70294094 C1.79326086 1794.65650138 13.70674707 1792.61023654 25.62030029 1790.56436157 C39.58027577 1788.16704553 53.54018653 1785.76935299 67.5 1783.37109375 C68.63607838 1783.17591888 69.77215676 1782.980744 70.94266176 1782.77965474 C103.80632284 1777.13354345 136.66745762 1771.47292764 169.5263958 1765.79939651 C176.0311274 1764.67630003 182.53594716 1763.55371477 189.04078674 1762.4312439 C192.20219369 1761.88569041 195.36359967 1761.34013129 198.52500522 1760.79456973 C200.5990043 1760.43666332 202.67300473 1760.07876471 204.74700654 1759.72087407 C216.72473007 1757.6539233 228.70206683 1755.58476134 240.67875922 1753.51184374 C247.99106396 1752.2463751 255.30375648 1750.98316527 262.61676633 1749.72177786 C267.59497007 1748.86298816 272.57268794 1748.00145658 277.55003351 1747.13770783 C280.5465162 1746.61843036 283.54347059 1746.10192005 286.54057801 1745.58626175 C287.91146438 1745.34982698 289.28215367 1745.11224611 290.65262592 1744.87342262 C292.50554935 1744.55068362 294.35925398 1744.23243912 296.21299744 1743.91444397 C297.24186034 1743.73649323 298.27072325 1743.5585425 299.33076382 1743.37519932 C302 1743 302 1743 306 1743 C300.23689876 1735.60844731 294.42627926 1728.26161679 288.5 1721 C282.11843112 1713.17658218 275.87800854 1705.24927888 269.66601562 1697.29101562 C264.34131666 1690.4738463 258.96758053 1683.7033374 253.5 1677 C247.11866558 1669.17638634 240.87801305 1661.24928465 234.66601562 1653.29101562 C228.80106395 1645.78216508 222.86044974 1638.34337472 216.83642578 1630.96142578 C212.88834926 1626.11547458 209.01215189 1621.21847906 205.16625977 1616.29125977 C201.64624854 1611.79336154 198.05143112 1607.36014298 194.4375 1602.9375 C189.71034725 1597.1500513 185.12160224 1591.2818091 180.58984375 1585.33984375 C177.65282767 1581.5220669 174.60927609 1577.79286477 171.5625 1574.0625 C165.15725135 1566.22014034 158.89624413 1558.27264072 152.66601562 1550.29101562 C146.80169245 1542.78296975 140.86111529 1535.34549047 134.83862305 1527.96362305 C130.86906645 1523.09037015 126.96497145 1518.17031232 123.09375 1513.21875 C119.75845272 1508.95537 116.38742566 1504.72205605 113 1500.5 C109.15735793 1495.71056643 105.3443538 1490.90005836 101.5625 1486.0625 C97.64512972 1481.05225557 93.65331342 1476.10886026 89.625 1471.1875 C85.15833253 1465.7270651 80.81931944 1460.18785975 76.5625 1454.5625 C71.56347568 1447.960215 66.38366203 1441.53615642 61.09228516 1435.16650391 C57.01548631 1430.25367164 53.03798528 1425.27583758 49.11499023 1420.23974609 C45.61506265 1415.75640485 42.03686574 1411.34126349 38.4375 1406.9375 C33.71027267 1401.15011481 29.12159964 1395.28180569 24.58984375 1389.33984375 C21.65282767 1385.5220669 18.60927609 1381.79286477 15.5625 1378.0625 C9.15725135 1370.22014034 2.89624413 1362.27264072 -3.33398438 1354.29101562 C-9.19830755 1346.78296975 -15.13888471 1339.34549047 -21.16137695 1331.96362305 C-25.13093355 1327.09037015 -29.03502855 1322.17031232 -32.90625 1317.21875 C-36.24154728 1312.95537 -39.61257434 1308.72205605 -43 1304.5 C-46.84264207 1299.71056643 -50.6556462 1294.90005836 -54.4375 1290.0625 C-58.35487028 1285.05225557 -62.34668658 1280.10886026 -66.375 1275.1875 C-70.84166747 1269.7270651 -75.18068056 1264.18785975 -79.4375 1258.5625 C-84.43652432 1251.960215 -89.61633797 1245.53615642 -94.90771484 1239.16650391 C-98.98451369 1234.25367164 -102.96201472 1229.27583758 -106.88500977 1224.23974609 C-110.38493735 1219.75640485 -113.96313426 1215.34126349 -117.5625 1210.9375 C-122.28972733 1205.15011481 -126.87840036 1199.28180569 -131.41015625 1193.33984375 C-134.34717233 1189.5220669 -137.39072391 1185.79286477 -140.4375 1182.0625 C-146.84274865 1174.22014034 -153.10375587 1166.27264072 -159.33398438 1158.29101562 C-165.19830755 1150.78296975 -171.13888471 1143.34549047 -177.16137695 1135.96362305 C-181.13093355 1131.09037015 -185.03502855 1126.17031232 -188.90625 1121.21875 C-192.24154728 1116.95537 -195.61257434 1112.72205605 -199 1108.5 C-202.84264207 1103.71056643 -206.6556462 1098.90005836 -210.4375 1094.0625 C-214.35487028 1089.05225557 -218.34668658 1084.10886026 -222.375 1079.1875 C-226.84166747 1073.7270651 -231.18068056 1068.18785975 -235.4375 1062.5625 C-240.43652432 1055.960215 -245.61633797 1049.53615642 -250.90771484 1043.16650391 C-254.98451369 1038.25367164 -258.96201472 1033.27583758 -262.88500977 1028.23974609 C-266.38493735 1023.75640485 -269.96313426 1019.34126349 -273.5625 1014.9375 C-278.28972733 1009.15011481 -282.87840036 1003.28180569 -287.41015625 997.33984375 C-290.34717233 993.5220669 -293.39072391 989.79286477 -296.4375 986.0625 C-301.92103157 979.34865811 -307.30851621 972.56716681 -312.64404297 965.73535156 C-314.98720405 962.73657789 -317.33733317 959.74328404 -319.6875 956.75 C-320.10273926 956.22003418 -320.51797852 955.69006836 -320.94580078 955.14404297 C-321.35942871 954.61697754 -321.77305664 954.08991211 -322.19921875 953.546875 C-322.61929199 952.99088623 -323.03936523 952.43489746 -323.47216797 951.86206055 C-325.04490667 949.87765704 -325.04490667 949.87765704 -327.23486328 947.80395508 C-333.02430894 941.74169873 -333.02430894 941.74169873 -332.9597168 937.11376953 C-332.05722543 933.66450291 -330.85530688 930.48580521 -329.5 927.1875 C-329.00944871 925.88345462 -328.52428113 924.57737392 -328.04394531 923.26953125 C-326.97701756 920.38401735 -325.88322666 917.51062524 -324.77148438 914.64208984 C-322.93052317 909.86105012 -321.21258767 905.04076833 -319.515625 900.20703125 C-319.06526382 898.92551178 -319.06526382 898.92551178 -318.60580444 897.61810303 C-317.97862569 895.83338649 -317.35154233 894.04863643 -316.72454834 892.26385498 C-315.02726193 887.45028823 -313.30560213 882.64545124 -311.5859375 877.83984375 C-306.95810322 864.89698056 -302.3611695 851.94319651 -297.76721191 838.98828125 C-296.36439762 835.03241584 -294.96107006 831.07673264 -293.55761719 827.12109375 C-293.20646221 826.13135716 -293.20646221 826.13135716 -292.8482132 825.1216259 C-292.37374452 823.78432944 -291.89927502 822.44703327 -291.42480469 821.1097374 C-290.47066743 818.42043941 -289.51660206 815.73111592 -288.56253815 813.04179192 C-285.53423719 804.50559896 -282.50550581 795.96955879 -279.4765625 787.43359375 C-279.25038616 786.79619829 -279.02420982 786.15880283 -278.79117966 785.50209236 C-277.65044443 782.28735284 -276.50970249 779.0726157 -275.36895752 775.85787964 C-273.3085594 770.05145664 -271.24822101 764.24501245 -269.18787766 758.43857002 C-268.04192084 755.20904583 -266.89596023 751.97952298 -265.75 748.75 C-265.29166665 747.45833334 -264.83333332 746.16666667 -264.375 744.875 C-239.62499944 675.12499842 -239.62499944 675.12499842 -238.93749523 673.18748665 C-238.47917772 671.89586451 -238.02086028 670.60424235 -237.56254292 669.31262016 C-236.41646811 666.08277197 -235.27039203 662.85292422 -234.12431335 659.62307739 C-232.0646955 653.81871615 -230.00508632 648.01435183 -227.94552517 642.20997047 C-226.80353353 638.99154057 -225.66153436 635.77311333 -224.51953125 632.5546875 C-224.29326365 631.91701321 -224.06699604 631.27933891 -223.83387184 630.62234116 C-220.56796355 621.41830638 -217.30162366 612.21442485 -214.03504562 603.01062775 C-211.91910489 597.04878455 -209.80326733 591.08690474 -207.6875 585.125 C-207.45634491 584.47364075 -207.22518982 583.82228149 -206.98703003 583.15118408 C-200.81870942 565.76957138 -194.65535455 548.38620926 -188.5 531 C-179.7636678 506.32364731 -171.00894072 481.65382952 -162.25332642 456.98431396 C-158.99535882 447.80477041 -155.73775547 438.62509768 -152.48046875 429.4453125 C-152.25417597 428.80756771 -152.02788319 428.16982292 -151.79473305 427.51275253 C-150.65313808 424.29547059 -149.51154983 421.07818627 -148.3699646 417.86090088 C-146.3092861 412.05338079 -144.24854795 406.24588186 -142.18781471 400.4383812 C-141.04187407 397.20892165 -139.89593723 393.97946076 -138.75 390.75 C-138.29166668 389.45833333 -137.83333335 388.16666666 -137.375 386.875 C-137.148125 386.235625 -136.92125 385.59625 -136.6875 384.9375 C-102.65625 289.03125 -102.65625 289.03125 -46.625 131.125 C-46.39811934 130.48560895 -46.17123867 129.8462179 -45.93748283 129.18745136 C-45.47920694 127.89594674 -45.02093083 126.6044422 -44.5626545 125.31293774 C-43.41594055 122.08129239 -42.26923042 118.84964568 -41.12252808 115.61799622 C-39.07054756 109.83509321 -37.01854236 104.05219897 -34.96639061 98.26935673 C-33.83434537 95.07931755 -32.70232301 91.88927025 -31.5703125 88.69921875 C-31.34562412 88.06603918 -31.12093575 87.43285961 -30.88943863 86.78049278 C-27.72983303 77.87647466 -24.57131106 68.97207271 -21.41351318 60.06741333 C-19.63588947 55.05471552 -17.85798248 50.0421182 -16.08001328 45.02954292 C-14.6343752 40.95381523 -13.18911189 36.87795492 -11.74413872 32.80199146 C-11.06625439 30.89004582 -10.38816731 28.97817222 -9.70999146 27.06632996 C-8.88826623 24.74980834 -8.06684849 22.43317762 -7.24581909 20.1164093 C-4.86234057 13.39920078 -2.44636156 6.6945651 0 0 Z " fill="#0073CA" transform="translate(2146,181)"/>
<path d="M0 0 C0.33 0.66 0.66 1.32 1 2 C0.22167969 4.22265625 0.22167969 4.22265625 -1.078125 7.0625 C-1.56949951 8.14700439 -2.06087402 9.23150879 -2.56713867 10.34887695 C-3.12803385 11.56594498 -3.68898988 12.78298495 -4.25 14 C-4.83582865 15.28634465 -5.42084806 16.57305811 -6.00512695 17.86010742 C-7.29532136 20.69935587 -8.58986966 23.5365671 -9.88720703 26.37255859 C-12.09248242 31.19705748 -14.28019191 36.02941477 -16.46484375 40.86328125 C-17.03856216 42.13267044 -17.03856216 42.13267044 -17.62387085 43.42770386 C-18.41110963 45.16964028 -19.19831012 46.91159401 -19.98547363 48.65356445 C-21.20130235 51.3430314 -22.41832191 54.03195627 -23.63574219 56.72070312 C-29.10762835 68.80612705 -34.56018668 80.9001095 -40 93 C-48.50656792 111.91940283 -57.05356279 130.820377 -65.60888672 149.71777344 C-67.99144486 154.98071954 -70.37285734 160.24418345 -72.75390625 165.5078125 C-73.14557983 166.37365967 -73.53725342 167.23950684 -73.9407959 168.1315918 C-75.12721658 170.75438579 -76.31361312 173.37719071 -77.5 176 C-81.86165701 185.64254979 -86.22332867 195.28509201 -90.58811951 204.92622375 C-92.57985463 209.3256914 -94.571237 213.72531865 -96.5625 218.125 C-96.95498932 218.9921463 -97.34747864 219.8592926 -97.75186157 220.75271606 C-103.2045036 232.80107668 -108.63701443 244.85833809 -114.05700684 256.92141724 C-114.43006958 257.75172455 -114.80313232 258.58203186 -115.1875 259.4375 C-115.55862915 260.26353729 -115.9297583 261.08957458 -116.31213379 261.94064331 C-121.60155977 273.70994804 -126.9368537 285.45734044 -132.3125 297.1875 C-138.39865562 310.46859888 -144.40689658 323.78208374 -150.36860657 337.11962891 C-154.10754511 345.48150942 -157.86620846 353.8345295 -161.625 362.1875 C-162.19297806 363.44972885 -162.19297806 363.44972885 -162.77243042 364.73745728 C-171.02565955 383.0758101 -179.31498387 401.39778923 -187.60888672 419.71777344 C-189.99144486 424.98071954 -192.37285734 430.24418345 -194.75390625 435.5078125 C-195.14557983 436.37365967 -195.53725342 437.23950684 -195.9407959 438.1315918 C-197.12721658 440.75438579 -198.31361312 443.37719071 -199.5 446 C-203.86165701 455.64254979 -208.22332867 465.28509201 -212.58811951 474.92622375 C-214.57985463 479.3256914 -216.571237 483.72531865 -218.5625 488.125 C-218.95498932 488.9921463 -219.34747864 489.8592926 -219.75186157 490.75271606 C-225.2045036 502.80107668 -230.63701443 514.85833809 -236.05700684 526.92141724 C-236.43006958 527.75172455 -236.80313232 528.58203186 -237.1875 529.4375 C-237.55862915 530.26353729 -237.9297583 531.08957458 -238.31213379 531.94064331 C-243.60155977 543.70994804 -248.9368537 555.45734044 -254.3125 567.1875 C-260.39865562 580.46859888 -266.40689658 593.78208374 -272.36860657 607.11962891 C-276.10754511 615.48150942 -279.86620846 623.8345295 -283.625 632.1875 C-284.00365204 633.0289859 -284.38230408 633.8704718 -284.77243042 634.73745728 C-293.02565955 653.0758101 -301.31498387 671.39778923 -309.60888672 689.71777344 C-311.99144486 694.98071954 -314.37285734 700.24418345 -316.75390625 705.5078125 C-317.14557983 706.37365967 -317.53725342 707.23950684 -317.9407959 708.1315918 C-319.12721658 710.75438579 -320.31361312 713.37719071 -321.5 716 C-325.86165701 725.64254979 -330.22332867 735.28509201 -334.58811951 744.92622375 C-336.57985463 749.3256914 -338.571237 753.72531865 -340.5625 758.125 C-340.95498932 758.9921463 -341.34747864 759.8592926 -341.75186157 760.75271606 C-347.2045036 772.80107668 -352.63701443 784.85833809 -358.05700684 796.92141724 C-358.43006958 797.75172455 -358.80313232 798.58203186 -359.1875 799.4375 C-359.55862915 800.26353729 -359.9297583 801.08957458 -360.31213379 801.94064331 C-365.60155977 813.70994804 -370.9368537 825.45734044 -376.3125 837.1875 C-382.39865562 850.46859888 -388.40689658 863.78208374 -394.36860657 877.11962891 C-398.10754511 885.48150942 -401.86620846 893.8345295 -405.625 902.1875 C-406.00365204 903.0289859 -406.38230408 903.8704718 -406.77243042 904.73745728 C-415.02565955 923.0758101 -423.31498387 941.39778923 -431.60888672 959.71777344 C-433.99144486 964.98071954 -436.37285734 970.24418345 -438.75390625 975.5078125 C-439.14557983 976.37365967 -439.53725342 977.23950684 -439.9407959 978.1315918 C-441.12721658 980.75438579 -442.31361312 983.37719071 -443.5 986 C-447.86167298 995.64258508 -452.22336628 1005.28516 -456.58816528 1014.92633057 C-464.74443952 1032.94237441 -472.8899188 1050.96310844 -481 1069 C-489.50683792 1087.91928197 -498.05356241 1106.82037614 -506.60888672 1125.71777344 C-508.99144486 1130.98071954 -511.37285734 1136.24418345 -513.75390625 1141.5078125 C-514.34141663 1142.80658325 -514.34141663 1142.80658325 -514.9407959 1144.1315918 C-516.12721658 1146.75438579 -517.31361312 1149.37719071 -518.5 1152 C-522.86165701 1161.64254979 -527.22332867 1171.28509201 -531.58811951 1180.92622375 C-533.57985463 1185.3256914 -535.571237 1189.72531865 -537.5625 1194.125 C-538.15123398 1195.42571945 -538.15123398 1195.42571945 -538.75186157 1196.75271606 C-544.2045036 1208.80107668 -549.63701443 1220.85833809 -555.05700684 1232.92141724 C-555.43006958 1233.75172455 -555.80313232 1234.58203186 -556.1875 1235.4375 C-556.55862915 1236.26353729 -556.9297583 1237.08957458 -557.31213379 1237.94064331 C-562.60155977 1249.70994804 -567.9368537 1261.45734044 -573.3125 1273.1875 C-579.39865562 1286.46859888 -585.40689658 1299.78208374 -591.36860657 1313.11962891 C-595.10754511 1321.48150942 -598.86620846 1329.8345295 -602.625 1338.1875 C-603.00365204 1339.0289859 -603.38230408 1339.8704718 -603.77243042 1340.73745728 C-612.02565955 1359.0758101 -620.31498387 1377.39778923 -628.60888672 1395.71777344 C-630.99144486 1400.98071954 -633.37285734 1406.24418345 -635.75390625 1411.5078125 C-636.34141663 1412.80658325 -636.34141663 1412.80658325 -636.9407959 1414.1315918 C-638.12721658 1416.75438579 -639.31361312 1419.37719071 -640.5 1422 C-644.86165701 1431.64254979 -649.22332867 1441.28509201 -653.58811951 1450.92622375 C-655.57985463 1455.3256914 -657.571237 1459.72531865 -659.5625 1464.125 C-660.15123398 1465.42571945 -660.15123398 1465.42571945 -660.75186157 1466.75271606 C-666.2045036 1478.80107668 -671.63701443 1490.85833809 -677.05700684 1502.92141724 C-677.43006958 1503.75172455 -677.80313232 1504.58203186 -678.1875 1505.4375 C-678.55862915 1506.26353729 -678.9297583 1507.08957458 -679.31213379 1507.94064331 C-684.60155977 1519.70994804 -689.9368537 1531.45734044 -695.3125 1543.1875 C-701.39865562 1556.46859888 -707.40689658 1569.78208374 -713.36860657 1583.11962891 C-717.10754511 1591.48150942 -720.86620846 1599.8345295 -724.625 1608.1875 C-725.00365204 1609.0289859 -725.38230408 1609.8704718 -725.77243042 1610.73745728 C-734.02565955 1629.0758101 -742.31498387 1647.39778923 -750.60888672 1665.71777344 C-752.99144486 1670.98071954 -755.37285734 1676.24418345 -757.75390625 1681.5078125 C-758.34141663 1682.80658325 -758.34141663 1682.80658325 -758.9407959 1684.1315918 C-760.12721658 1686.75438579 -761.31361312 1689.37719071 -762.5 1692 C-766.86165701 1701.64254979 -771.22332867 1711.28509201 -775.58811951 1720.92622375 C-777.57985463 1725.3256914 -779.571237 1729.72531865 -781.5625 1734.125 C-782.15123398 1735.42571945 -782.15123398 1735.42571945 -782.75186157 1736.75271606 C-788.2045036 1748.80107668 -793.63701443 1760.85833809 -799.05700684 1772.92141724 C-799.43006958 1773.75172455 -799.80313232 1774.58203186 -800.1875 1775.4375 C-800.55862915 1776.26353729 -800.9297583 1777.08957458 -801.31213379 1777.94064331 C-806.92802646 1790.43635692 -812.59874981 1802.90598817 -818.3081665 1815.35922241 C-823.45958977 1826.59658812 -828.55006954 1837.8596264 -833.57739258 1849.15307617 C-837.29253492 1857.48368089 -841.14081946 1865.73032741 -845 1874 C-1043.33 1874 -1241.66 1874 -1446 1874 C-1444.53715293 1869.6114588 -1443.26157219 1866.38327323 -1441.05078125 1862.45703125 C-1440.4578125 1861.39742187 -1439.86484375 1860.3378125 -1439.25390625 1859.24609375 C-1438.61324219 1858.11300781 -1437.97257812 1856.97992187 -1437.3125 1855.8125 C-1436.63747533 1854.60968097 -1435.96300629 1853.40654998 -1435.2890625 1852.203125 C-1433.88967866 1849.7053307 -1432.487923 1847.20889044 -1431.08447266 1844.71337891 C-1427.8672301 1838.9880619 -1424.6855432 1833.24299266 -1421.5 1827.5 C-1420.25145416 1825.25251967 -1419.00275573 1823.00512412 -1417.75390625 1820.7578125 C-1415.23972366 1816.23241482 -1412.72682608 1811.70630685 -1410.21484375 1807.1796875 C-1403.58931321 1795.24278123 -1396.94370133 1783.31759071 -1390.26708984 1771.40917969 C-1386.01604972 1763.8234056 -1381.78411245 1756.22718772 -1377.5625 1748.625 C-1376.94133301 1747.50641602 -1376.32016602 1746.38783203 -1375.68017578 1745.23535156 C-1372.51012175 1739.52515333 -1369.34228988 1733.81372742 -1366.17578125 1728.1015625 C-1360.34413717 1717.58665963 -1354.49604535 1707.0827934 -1348.5625 1696.625 C-1343.31610828 1687.37676602 -1338.16444848 1678.07824552 -1333.03790283 1668.76330566 C-1327.80472665 1659.25541734 -1322.52786566 1649.77326797 -1317.21679688 1640.30859375 C-1312.98063144 1632.757377 -1308.76548718 1625.19473236 -1304.5625 1617.625 C-1303.94052734 1616.50480469 -1303.31855469 1615.38460938 -1302.67773438 1614.23046875 C-1300.78482706 1610.82049508 -1298.89233229 1607.41029281 -1297 1604 C-1289.11434725 1589.78876182 -1281.21526713 1575.58555676 -1273.26708984 1561.40917969 C-1269.01604972 1553.8234056 -1264.78411245 1546.22718772 -1260.5625 1538.625 C-1259.94133301 1537.50641602 -1259.32016602 1536.38783203 -1258.68017578 1535.23535156 C-1255.51012175 1529.52515333 -1252.34228988 1523.81372742 -1249.17578125 1518.1015625 C-1243.34413717 1507.58665963 -1237.49604535 1497.0827934 -1231.5625 1486.625 C-1226.31610828 1477.37676602 -1221.16444848 1468.07824552 -1216.03790283 1458.76330566 C-1210.80472665 1449.25541734 -1205.52786566 1439.77326797 -1200.21679688 1430.30859375 C-1195.98063144 1422.757377 -1191.76548718 1415.19473236 -1187.5625 1407.625 C-1186.94052734 1406.50480469 -1186.31855469 1405.38460938 -1185.67773438 1404.23046875 C-1183.78482706 1400.82049508 -1181.89233229 1397.41029281 -1180 1394 C-1172.11434725 1379.78876182 -1164.21526713 1365.58555676 -1156.26708984 1351.40917969 C-1149.47670389 1339.2920666 -1142.73940719 1327.1455159 -1136 1315 C-1128.11434725 1300.78876182 -1120.21526713 1286.58555676 -1112.26708984 1272.40917969 C-1108.01604972 1264.8234056 -1103.78411245 1257.22718772 -1099.5625 1249.625 C-1098.94133301 1248.50641602 -1098.32016602 1247.38783203 -1097.68017578 1246.23535156 C-1094.51012175 1240.52515333 -1091.34228988 1234.81372742 -1088.17578125 1229.1015625 C-1082.34413717 1218.58665963 -1076.49604535 1208.0827934 -1070.5625 1197.625 C-1065.31610828 1188.37676602 -1060.16444848 1179.07824552 -1055.03790283 1169.76330566 C-1049.80472665 1160.25541734 -1044.52786566 1150.77326797 -1039.21679688 1141.30859375 C-1034.98063144 1133.757377 -1030.76548718 1126.19473236 -1026.5625 1118.625 C-1025.94052734 1117.50480469 -1025.31855469 1116.38460938 -1024.67773438 1115.23046875 C-1022.78482706 1111.82049508 -1020.89233229 1108.41029281 -1019 1105 C-1011.11434725 1090.78876182 -1003.21526713 1076.58555676 -995.26708984 1062.40917969 C-991.01604972 1054.8234056 -986.78411245 1047.22718772 -982.5625 1039.625 C-981.94133301 1038.50641602 -981.32016602 1037.38783203 -980.68017578 1036.23535156 C-977.51012175 1030.52515333 -974.34228988 1024.81372742 -971.17578125 1019.1015625 C-965.34413717 1008.58665963 -959.49604535 998.0827934 -953.5625 987.625 C-948.31610828 978.37676602 -943.16444848 969.07824552 -938.03790283 959.76330566 C-932.80472665 950.25541734 -927.52786566 940.77326797 -922.21679688 931.30859375 C-917.98063144 923.757377 -913.76548718 916.19473236 -909.5625 908.625 C-908.94052734 907.50480469 -908.31855469 906.38460937 -907.67773438 905.23046875 C-905.78482706 901.82049508 -903.89233229 898.41029281 -902 895 C-894.11434725 880.78876182 -886.21526713 866.58555676 -878.26708984 852.40917969 C-874.01604972 844.8234056 -869.78411245 837.22718772 -865.5625 829.625 C-864.94133301 828.50641602 -864.32016602 827.38783203 -863.68017578 826.23535156 C-860.51012175 820.52515333 -857.34228988 814.81372742 -854.17578125 809.1015625 C-848.34413717 798.58665963 -842.49604535 788.0827934 -836.5625 777.625 C-831.31610828 768.37676602 -826.16444848 759.07824552 -821.03790283 749.76330566 C-815.81199982 740.26863159 -810.54298311 730.79937189 -805.23876953 721.34814453 C-799.55497915 711.21744238 -793.91453871 701.06292689 -788.27734375 690.90625 C-787.7150708 689.89900879 -787.15279785 688.89176758 -786.57348633 687.85400391 C-785.57314869 686.03958233 -784.5915237 684.21462044 -783.63549805 682.37646484 C-781.25269405 677.84119612 -779.13531418 674.72745694 -774.9375 671.625 C-770.76450519 668.40983353 -766.83838576 665.09727956 -763 661.5 C-758.41411077 657.22908177 -753.66541152 653.24228513 -748.78125 649.3125 C-745.75980664 646.80028867 -742.87559922 644.17597543 -740 641.5 C-735.38998361 637.2104224 -730.62216764 633.19589103 -725.71484375 629.24609375 C-722.89326505 626.9116941 -720.19409288 624.48009402 -717.5 622 C-713.94329756 618.72581577 -710.32838189 615.59357567 -706.5625 612.5625 C-702.56776014 609.34056899 -698.75445651 605.99344505 -695 602.5 C-690.38995664 598.21044887 -685.62217044 594.19589328 -680.71484375 590.24609375 C-677.89326505 587.9116941 -675.19409288 585.48009402 -672.5 583 C-668.94329756 579.72581577 -665.32838189 576.59357567 -661.5625 573.5625 C-657.56776014 570.34056899 -653.75445651 566.99344505 -650 563.5 C-645.38995664 559.21044887 -640.62217044 555.19589328 -635.71484375 551.24609375 C-632.89326505 548.9116941 -630.19409288 546.48009402 -627.5 544 C-623.94329756 540.72581577 -620.32838189 537.59357567 -616.5625 534.5625 C-612.02683557 530.90428985 -607.7429883 527.05257035 -603.48071289 523.08618164 C-599.39338994 519.30509442 -595.11956756 515.80310034 -590.78125 512.3125 C-587.75980664 509.80028867 -584.87559922 507.17597543 -582 504.5 C-577.38998361 500.2104224 -572.62216764 496.19589103 -567.71484375 492.24609375 C-564.89326505 489.9116941 -562.19409288 487.48009402 -559.5 485 C-555.94329756 481.72581577 -552.32838189 478.59357567 -548.5625 475.5625 C-544.56776014 472.34056899 -540.75445651 468.99344505 -537 465.5 C-532.38995664 461.21044887 -527.62217044 457.19589328 -522.71484375 453.24609375 C-519.89326505 450.9116941 -517.19409288 448.48009402 -514.5 446 C-510.94329756 442.72581577 -507.32838189 439.59357567 -503.5625 436.5625 C-499.02683557 432.90428985 -494.7429883 429.05257035 -490.48071289 425.08618164 C-486.39338994 421.30509442 -482.11956756 417.80310034 -477.78125 414.3125 C-474.75980664 411.80028867 -471.87559922 409.17597543 -469 406.5 C-464.38998361 402.2104224 -459.62216764 398.19589103 -454.71484375 394.24609375 C-451.89326505 391.9116941 -449.19409288 389.48009402 -446.5 387 C-442.94329756 383.72581577 -439.32838189 380.59357567 -435.5625 377.5625 C-431.56776014 374.34056899 -427.75445651 370.99344505 -424 367.5 C-419.38995664 363.21044887 -414.62217044 359.19589328 -409.71484375 355.24609375 C-406.89326505 352.9116941 -404.19409288 350.48009402 -401.5 348 C-397.94329756 344.72581577 -394.32838189 341.59357567 -390.5625 338.5625 C-386.02683557 334.90428985 -381.7429883 331.05257035 -377.48071289 327.08618164 C-373.39338994 323.30509442 -369.11956756 319.80310034 -364.78125 316.3125 C-361.75980664 313.80028867 -358.87559922 311.17597543 -356 308.5 C-351.38998361 304.2104224 -346.62216764 300.19589103 -341.71484375 296.24609375 C-338.89326505 293.9116941 -336.19409288 291.48009402 -333.5 289 C-329.94329756 285.72581577 -326.32838189 282.59357567 -322.5625 279.5625 C-318.56776014 276.34056899 -314.75445651 272.99344505 -311 269.5 C-306.38995664 265.21044887 -301.62217044 261.19589328 -296.71484375 257.24609375 C-293.89326505 254.9116941 -291.19409288 252.48009402 -288.5 250 C-284.94329756 246.72581577 -281.32838189 243.59357567 -277.5625 240.5625 C-273.56776014 237.34056899 -269.75445651 233.99344505 -266 230.5 C-261.38995664 226.21044887 -256.62217044 222.19589328 -251.71484375 218.24609375 C-248.89326505 215.9116941 -246.19409288 213.48009402 -243.5 211 C-239.94329756 207.72581577 -236.32838189 204.59357567 -232.5625 201.5625 C-228.02683557 197.90428985 -223.7429883 194.05257035 -219.48071289 190.08618164 C-215.39338994 186.30509442 -211.11956756 182.80310034 -206.78125 179.3125 C-203.75980664 176.80028867 -200.87559922 174.17597543 -198 171.5 C-193.38998361 167.2104224 -188.62216764 163.19589103 -183.71484375 159.24609375 C-180.89326505 156.9116941 -178.19409288 154.48009402 -175.5 152 C-171.94329756 148.72581577 -168.32838189 145.59357567 -164.5625 142.5625 C-160.56776014 139.34056899 -156.75445651 135.99344505 -153 132.5 C-148.38995664 128.21044887 -143.62217044 124.19589328 -138.71484375 120.24609375 C-135.89326505 117.9116941 -133.19409288 115.48009402 -130.5 113 C-126.94329756 109.72581577 -123.32838189 106.59357567 -119.5625 103.5625 C-115.02683557 99.90428985 -110.7429883 96.05257035 -106.48071289 92.08618164 C-102.39338994 88.30509442 -98.11956756 84.80310034 -93.78125 81.3125 C-90.75980664 78.80028867 -87.87559922 76.17597543 -85 73.5 C-80.38998361 69.2104224 -75.62216764 65.19589103 -70.71484375 61.24609375 C-67.89326505 58.9116941 -65.19409288 56.48009402 -62.5 54 C-58.94329756 50.72581577 -55.32838189 47.59357567 -51.5625 44.5625 C-47.56776014 41.34056899 -43.75445651 37.99344505 -40 34.5 C-35.38995664 30.21044887 -30.62217044 26.19589328 -25.71484375 22.24609375 C-21.94922093 19.13065041 -18.38361025 15.8135835 -14.7890625 12.50390625 C-11.0032813 9.10518671 -7.07864278 5.9075747 -3.1171875 2.71484375 C-1.13793226 1.17273924 -1.13793226 1.17273924 0 0 Z " fill="#0073CA" transform="translate(2041,23)"/>
<path d="" fill="#0073CA" transform="translate(0,0)"/>
</svg>
