<?xml version="1.0" encoding="UTF-8"?>
<svg version="1.1" xmlns="http://www.w3.org/2000/svg" width="800" height="728">
<path d="M0 0 C3.61030802 2.68759238 5.51277618 5.19457854 6.92578125 9.43359375 C7.36720173 15.56254735 7.60532313 21.41204197 5.30078125 27.18359375 C3.45499193 31.92491039 3.94563648 35.77783873 5.92578125 40.43359375 C8.36148517 43.03167793 10.4910583 43.78484899 13.92578125 44.43359375 C16.30681246 44.48143765 18.68923409 44.47121536 21.0703125 44.42578125 C22.48371669 44.40825787 23.89712863 44.39135028 25.31054688 44.375 C27.52243811 44.34413298 29.73393537 44.30868508 31.94555664 44.26220703 C34.09135637 44.21953556 36.23670151 44.19633436 38.3828125 44.17578125 C39.6613208 44.15370605 40.9398291 44.13163086 42.25708008 44.10888672 C47.32713941 44.55762425 51.43527431 45.73983586 54.90234375 49.6796875 C56.59824442 54.24308435 55.45663015 58.43790233 54.76171875 63.15625 C54.59593195 66.49301809 54.59593195 66.49301809 56.77734375 68.6171875 C66.41934782 74.17988216 76.63739155 75.90705979 87.47607422 77.71264648 C106.86148664 80.98222347 106.86148664 80.98222347 113.55078125 88.30859375 C115.13903019 91.91825042 115.23805873 94.53012525 114.92578125 98.43359375 C115.55742187 98.49675781 116.1890625 98.55992188 116.83984375 98.625 C129.4224822 100.34740728 139.29824402 106.88202068 149.51489258 113.93359375 C155.82772033 118.20663813 162.17612977 120.5475494 169.57910156 122.296875 C173.87658764 123.37094935 177.98577747 124.79211809 182.1328125 126.33984375 C182.89201996 126.62064285 183.65122742 126.90144196 184.43344116 127.19075012 C186.87135887 128.09732946 189.3054581 129.01343438 191.73828125 129.93359375 C192.56703766 130.24694672 193.39579407 130.56029968 194.24966431 130.88314819 C235.01428832 146.37624363 235.01428832 146.37624363 245.73828125 164.49609375 C246.92578125 167.43359375 246.92578125 167.43359375 246.92578125 169.68359375 C245.43832085 172.28664945 243.74975732 172.52698941 240.92578125 173.43359375 C229.41258948 174.78058047 219.71870086 172.08366386 208.92578125 168.43359375 C192.26264232 161.87882954 192.26264232 161.87882954 174.98828125 162.43359375 C170.68566327 165.24346672 168.98889453 168.27687702 167.33355713 173.1920929 C166.74793362 176.41120335 166.76160966 179.600004 166.77636719 182.86010742 C166.77864193 183.60418696 166.78091667 184.34826651 166.78326035 185.11489391 C166.87293748 194.63797655 167.60401467 204.11659218 168.31640625 213.609375 C168.46411129 215.62873348 168.6114623 217.64811789 168.75848389 219.66752625 C169.06717911 223.8876309 169.38035843 228.10737195 169.69677734 232.3269043 C170.09317679 237.61805816 170.47801772 242.90997619 170.85966969 248.20221138 C174.16506569 295.00337507 174.16506569 295.00337507 180.73828125 341.43359375 C180.86272614 342.1382074 180.98717102 342.84282104 181.11538696 343.56878662 C189.59074233 391.34641515 204.81854186 437.21478312 233.92578125 476.43359375 C234.34682129 477.00239258 234.76786133 477.57119141 235.20166016 478.15722656 C245.20357215 491.58709954 256.06483017 504.39033813 267.015625 517.05078125 C268.94832244 519.28701336 270.85492133 521.54172282 272.7421875 523.81640625 C283.88820537 537.18246501 296.044598 549.88849597 309.92578125 560.43359375 C311.07721236 561.3367433 312.22822595 562.2404253 313.37890625 563.14453125 C357.80965024 597.65513113 409.58283341 619.75246894 464.23828125 631.93359375 C465.03434784 632.11166565 465.83041443 632.28973755 466.65060425 632.47320557 C468.92433073 632.97809867 471.19983195 633.47369197 473.4765625 633.96484375 C474.15564667 634.11440521 474.83473083 634.26396667 475.53439331 634.4180603 C479.03904852 635.15850225 482.34695479 635.81882973 485.92578125 635.43359375 C488.10265698 633.6541313 489.90402116 631.97375777 491.80078125 629.93359375 C492.32889404 629.38550049 492.85700684 628.83740723 493.40112305 628.27270508 C496.83435753 624.68353421 500.13201799 620.98420579 503.375 617.22265625 C511.38544285 607.98138969 522.57850856 597.86459955 535.12890625 596.12890625 C541.05804895 595.78606467 544.83971511 597.47442799 549.92578125 600.43359375 C549.48934804 612.21729048 541.72653953 620.17470464 534.31640625 628.6484375 C530.55841712 632.91111703 530.55841712 632.91111703 529.92578125 638.43359375 C533.29399569 639.5563319 535.61433483 639.45639435 539.15625 639.3203125 C554.60541912 638.90380282 568.0275254 639.61004249 582.984375 644.12109375 C589.55882301 646.04678298 595.48897779 646.18454913 601.89453125 643.56640625 C605.70890061 641.4391618 608.8072739 638.46086817 611.92578125 635.43359375 C612.43367187 635.77132812 612.9415625 636.1090625 613.46484375 636.45703125 C614.15320313 636.90304687 614.8415625 637.3490625 615.55078125 637.80859375 C616.22367188 638.24945312 616.8965625 638.6903125 617.58984375 639.14453125 C623.547805 642.4323694 628.7888666 642.68613453 635.41796875 642.55859375 C636.32273956 642.55102051 637.22751038 642.54344727 638.15969849 642.53564453 C642.00920222 642.50312812 645.85827155 642.44689306 649.70751953 642.39257812 C652.52764895 642.35622022 655.34770787 642.33215048 658.16796875 642.30859375 C659.45584793 642.28369873 659.45584793 642.28369873 660.76974487 642.25830078 C668.43483275 642.19661372 675.16430651 642.84670916 680.92578125 648.43359375 C682.38921581 651.36046287 682.09622385 653.98812988 682.11328125 657.24609375 C682.13455078 659.08107422 682.13455078 659.08107422 682.15625 660.953125 C681.93314566 664.32237866 681.54709599 666.49101278 679.92578125 669.43359375 C670.74246405 676.84469184 655.10047126 677.5891011 643.953125 679.45117188 C635.20144924 680.9894357 626.23678561 682.63697432 619.11328125 688.24609375 C615.92578125 690.43359375 615.92578125 690.43359375 612.86328125 690.37109375 C610.97038797 689.76697887 609.0924517 689.11261653 607.23828125 688.3984375 C592.68640589 684.1598606 577.93596155 689.36978225 564.20751953 694.06787109 C553.01913243 697.88707093 541.938049 701.62918688 529.97265625 701.35546875 C523.22153661 701.29034356 516.67265722 702.35601913 510.02346802 703.39953613 C492.04856853 706.20215251 474.06184203 708.06758044 455.92578125 709.43359375 C454.99910645 709.50562012 454.07243164 709.57764648 453.11767578 709.65185547 C448.32387744 710.00923375 443.53893787 710.23989028 438.73339844 710.36181641 C436.72853222 710.41307125 434.72396458 710.47660729 432.71972656 710.54833984 C345.38927229 713.40629589 248.13803913 701.36349675 130.92578125 639.43359375 C130.28833984 639.03301758 129.65089844 638.63244141 128.99414062 638.21972656 C121.16286852 633.27389988 113.93968089 627.6480109 106.72119141 621.86572266 C104.33291399 619.96068657 101.92565024 618.08048706 99.51806641 616.19995117 C90.19361565 608.91050743 81.00309707 601.52179057 72.25390625 593.54296875 C70.19425092 591.67683808 68.1018923 589.86289587 65.98828125 588.05859375 C54.04169829 577.60533366 44.32100034 565.65307506 34.71875 553.0703125 C32.70044539 550.43121634 30.6572987 547.81316425 28.6015625 545.203125 C20.70652206 535.16735405 13.136758 524.97215837 5.92578125 514.43359375 C5.43899902 513.72267578 4.9522168 513.01175781 4.45068359 512.27929688 C-40.8853596 445.77647504 -70.89303718 374.23746043 -89.3609314 296.21124268 C-89.61694122 295.12961853 -89.87295105 294.04799438 -90.13671875 292.93359375 C-90.39135895 291.85712585 -90.64599915 290.78065796 -90.90835571 289.67156982 C-96.764696 264.97950673 -103.57671426 241.20055716 -114.15771484 218.06445312 C-114.69452881 216.87819336 -114.69452881 216.87819336 -115.2421875 215.66796875 C-115.56856201 214.95350586 -115.89493652 214.23904297 -116.23120117 213.50292969 C-120.1301222 203.93233756 -119.22300474 190.81322827 -115.52734375 181.33984375 C-107.36148781 165.00813188 -94.13826701 153.78449893 -77.07421875 147.43359375 C-78.18796875 146.97984375 -79.30171875 146.52609375 -80.44921875 146.05859375 C-84.07421875 144.43359375 -84.07421875 144.43359375 -86.07421875 142.43359375 C-87.82229063 136.92044397 -86.49165034 132.49333429 -84.07421875 127.43359375 C-78.19855189 120.08901018 -70.73666466 117.80784949 -61.94726562 116.01171875 C-57.24013582 114.96267541 -54.0447449 113.29191156 -50.07421875 110.43359375 C-49.08421875 110.10359375 -48.09421875 109.77359375 -47.07421875 109.43359375 C-45.93876313 107.13825117 -45.93876313 107.13825117 -45.07421875 104.43359375 C-44.73132813 103.66402344 -44.3884375 102.89445312 -44.03515625 102.1015625 C-42.00158901 96.45552012 -42.3092345 90.4155984 -44.44921875 84.87109375 C-45.99046082 82.38660759 -45.99046082 82.38660759 -48.07421875 80.43359375 C-48.63388509 77.42538715 -48.7033688 75.38395248 -46.97436523 72.7722168 C-43.25136319 68.45174947 -39.32247299 65.16016168 -34.63671875 61.93359375 C-24.88062851 55.47192431 -24.88062851 55.47192431 -18.88671875 45.87109375 C-19.12936168 41.42263999 -20.14646153 39.78980325 -23.07421875 36.43359375 C-24.34746487 35.47122513 -25.64087543 34.53517623 -26.94921875 33.62109375 C-32.94524328 29.35899422 -37.70394528 22.74171895 -39.07421875 15.43359375 C-39.21442434 10.59650103 -38.59555545 7.29705767 -36.07421875 3.12109375 C-26.93145075 -6.12469136 -10.79538341 -6.40465604 0 0 Z M-26.55859375 6.234375 C-29.61317704 10.65322443 -30.84385129 13.93621847 -30.07421875 19.43359375 C-29.41421875 20.09359375 -28.75421875 20.75359375 -28.07421875 21.43359375 C-28.07421875 19.45359375 -28.07421875 17.47359375 -28.07421875 15.43359375 C-27.35766113 15.43883057 -26.64110352 15.44406738 -25.90283203 15.44946289 C-22.66830313 15.47020042 -19.43378819 15.48324359 -16.19921875 15.49609375 C-15.07128906 15.50447266 -13.94335938 15.51285156 -12.78125 15.52148438 C-11.16669922 15.52631836 -11.16669922 15.52631836 -9.51953125 15.53125 C-8.02703857 15.53910522 -8.02703857 15.53910522 -6.50439453 15.54711914 C-4.06461102 15.59753525 -4.06461102 15.59753525 -2.07421875 14.43359375 C-2.58277305 10.06002673 -3.33474544 6.92878383 -6.07421875 3.43359375 C-13.59300921 -1.52197269 -20.74973608 -0.81268654 -26.55859375 6.234375 Z M-28.07421875 21.43359375 C-27.07421875 23.43359375 -27.07421875 23.43359375 -27.07421875 23.43359375 Z M13.92578125 56.43359375 C13.92578125 57.42359375 13.92578125 58.41359375 13.92578125 59.43359375 C19.36469775 59.65115041 23.79658939 59.53787759 28.92578125 57.43359375 C28.59578125 56.44359375 28.26578125 55.45359375 27.92578125 54.43359375 C26.15528436 54.37948688 24.38431276 54.34075256 22.61328125 54.30859375 C21.62714844 54.28539062 20.64101562 54.2621875 19.625 54.23828125 C16.70171598 54.22676736 16.70171598 54.22676736 13.92578125 56.43359375 Z M19.92578125 75.43359375 C19.36305593 83.31174823 21.09849701 87.89421367 26.01953125 94.0546875 C31.98240896 101.32080286 31.98240896 101.32080286 40.3828125 104.7265625 C41.16011719 104.69175781 41.93742187 104.65695313 42.73828125 104.62109375 C43.92357422 104.58048828 43.92357422 104.58048828 45.1328125 104.5390625 C45.72449219 104.50425781 46.31617188 104.46945313 46.92578125 104.43359375 C48.63634666 101.8492863 48.97798877 100.75037836 48.46484375 97.63671875 C48.16320312 96.6621875 47.8615625 95.68765625 47.55078125 94.68359375 C47.25429687 93.69875 46.9578125 92.71390625 46.65234375 91.69921875 C46.41257813 90.9515625 46.1728125 90.20390625 45.92578125 89.43359375 C48.56578125 89.76359375 51.20578125 90.09359375 53.92578125 90.43359375 C47.66545389 80.81951959 34.5359167 78.07139131 23.92578125 75.43359375 C22.60578125 75.43359375 21.28578125 75.43359375 19.92578125 75.43359375 Z M1.86328125 94.18359375 C0.95900391 94.43625 0.05472656 94.68890625 -0.87695312 94.94921875 C-7.11644545 96.73320512 -13.09608833 98.91120318 -19.07421875 101.43359375 C-19.07421875 101.76359375 -19.07421875 102.09359375 -19.07421875 102.43359375 C-15.32298681 102.72215005 -12.62620349 102.33464509 -9.19921875 100.93359375 C-3.03712864 98.80919009 3.04078678 99.10693919 9.48828125 99.24609375 C11.28749023 99.26639648 11.28749023 99.26639648 13.12304688 99.28710938 C16.05777004 99.32218575 18.99153007 99.37133948 21.92578125 99.43359375 C20.22034676 95.69264068 18.35245455 93.77376088 14.92578125 91.43359375 C10.35549758 91.43359375 6.23428521 92.9252286 1.86328125 94.18359375 Z M64.11328125 104.49609375 C63.25307373 104.71579834 62.39286621 104.93550293 61.5065918 105.16186523 C53.2966306 107.28317959 45.1432703 109.60508274 36.98583984 111.91845703 C30.6226396 113.71240541 24.26381029 115.34421091 17.81665039 116.80712891 C11.06933885 118.3599216 4.36752254 120.08650928 -2.32803345 121.84744263 C-4.26059262 122.35440297 -6.195088 122.85396454 -8.12963867 123.35327148 C-16.37093553 125.53601938 -24.18569764 128.20745035 -32.07421875 131.43359375 C-32.07421875 131.76359375 -32.07421875 132.09359375 -32.07421875 132.43359375 C-25.71887298 131.83570408 -19.98063515 130.35499103 -13.88671875 128.49609375 C4.61687686 123.06322578 23.34809781 119.84576642 40.92578125 129.43359375 C40.92578125 126.13359375 40.92578125 122.83359375 40.92578125 119.43359375 C42.24578125 119.10359375 43.56578125 118.77359375 44.92578125 118.43359375 C48.55909599 121.28132692 50.76550319 124.66198196 53.30078125 128.49609375 C56.41525274 133.02561858 58.73965024 135.51280449 63.92578125 137.43359375 C67.20504122 136.83736466 68.45730002 135.9522694 70.67578125 133.49609375 C73.53335864 128.78109105 73.56516165 123.78944252 72.92578125 118.43359375 C71.8401345 116.02051865 70.64944374 114.48044296 68.92578125 112.43359375 C69.56515625 113.09359375 70.20453125 113.75359375 70.86328125 114.43359375 C73.38115027 116.94422751 75.98101097 119.35582251 78.61328125 121.74609375 C79.38027344 122.44347656 80.14726562 123.14085938 80.9375 123.859375 C82.76444848 125.64050788 82.76444848 125.64050788 84.92578125 125.43359375 C83.56546193 121.35263578 81.54447713 118.46428478 78.8515625 115.1796875 C77.92578125 113.43359375 77.92578125 113.43359375 78.21484375 111.390625 C79.06584151 109.04804325 79.96717208 106.73425577 80.92578125 104.43359375 C79.09006254 102.17501912 79.09006254 102.17501912 76.3515625 102.1796875 C72.10787325 102.49421407 68.22105729 103.42002299 64.11328125 104.49609375 Z M126.26953125 129.33203125 C125.45939575 129.40902252 124.64926025 129.48601379 123.8145752 129.56533813 C119.40991187 129.93435835 119.40991187 129.93435835 115.92578125 132.43359375 C116.87453125 132.68109375 117.82328125 132.92859375 118.80078125 133.18359375 C121.92578125 134.43359375 121.92578125 134.43359375 123.23828125 136.43359375 C123.46515625 137.09359375 123.69203125 137.75359375 123.92578125 138.43359375 C124.25578125 139.09359375 124.58578125 139.75359375 124.92578125 140.43359375 C125.05993597 143.10595585 124.96896666 145.75609863 124.92578125 148.43359375 C121.98191502 149.90552687 119.55188089 149.28295548 116.30078125 148.99609375 C115.11226562 148.89425781 113.92375 148.79242188 112.69921875 148.6875 C111.78398437 148.60371094 110.86875 148.51992187 109.92578125 148.43359375 C110.06744482 146.51661438 110.21427709 144.60001652 110.36328125 142.68359375 C110.48509766 141.08257812 110.48509766 141.08257812 110.609375 139.44921875 C111.13202807 134.46788334 111.13202807 134.46788334 111.92578125 132.43359375 C112.91578125 132.10359375 113.90578125 131.77359375 114.92578125 131.43359375 C87.38234306 133.32317302 60.75304691 141.49977694 34.45135498 149.36967468 C30.81864862 150.4562354 27.18508886 151.53990129 23.55078125 152.62109375 C22.48413239 152.93876205 22.48413239 152.93876205 21.39593506 153.2628479 C4.05127178 158.41169676 -13.51032263 162.57052206 -31.31640625 165.79296875 C-33.85681132 166.38309118 -35.81878791 167.14788921 -38.07421875 168.43359375 C-37.99656416 170.34198277 -37.99656416 170.34198277 -37.07421875 172.43359375 C-34.54835249 174.23022032 -34.54835249 174.23022032 -31.51171875 175.68359375 C-30.49980469 176.204375 -29.48789063 176.72515625 -28.4453125 177.26171875 C-27.66285156 177.6484375 -26.88039063 178.03515625 -26.07421875 178.43359375 C-28.07421875 179.76692708 -30.07421875 181.10026042 -32.07421875 182.43359375 C-30.31163976 186.80293431 -27.75488392 188.01615091 -23.75390625 190.1875 C-23.19960937 190.59871094 -22.6453125 191.00992188 -22.07421875 191.43359375 C-22.07421875 192.42359375 -22.07421875 193.41359375 -22.07421875 194.43359375 C-27.63561838 197.31360427 -31.21120421 197.75811115 -37.13671875 196.05151367 C-37.83796875 195.8269751 -38.53921875 195.60243652 -39.26171875 195.37109375 C-40.27685547 195.04685425 -40.27685547 195.04685425 -41.3125 194.71606445 C-46.89703193 192.77448148 -51.71200772 190.4769103 -55.07421875 185.43359375 C-55.48828125 182.734375 -55.48828125 182.734375 -55.69921875 179.74609375 C-55.77398437 178.75222656 -55.84875 177.75835937 -55.92578125 176.734375 C-55.97476563 175.97511719 -56.02375 175.21585938 -56.07421875 174.43359375 C-69.56453773 173.94870424 -84.73392985 179.04476932 -95.16015625 187.62890625 C-99.71911416 191.92735228 -102.17901109 196.5419989 -102.44921875 202.87109375 C-102.35789894 211.78129768 -98.32340863 220.18440387 -92.07421875 226.43359375 C-91.74421875 226.43359375 -91.41421875 226.43359375 -91.07421875 226.43359375 C-91.09742188 225.17804688 -91.120625 223.9225 -91.14453125 222.62890625 C-91.45450493 199.11787216 -91.45450493 199.11787216 -85.07421875 190.43359375 C-79.81323255 186.35632944 -73.43650152 186.95619302 -67.07421875 187.43359375 C-66.08421875 187.76359375 -65.09421875 188.09359375 -64.07421875 188.43359375 C-64.61691406 188.68753906 -65.15960938 188.94148438 -65.71875 189.203125 C-66.43417969 189.54730469 -67.14960937 189.89148438 -67.88671875 190.24609375 C-68.59441406 190.58253906 -69.30210938 190.91898438 -70.03125 191.265625 C-72.12287149 192.46140861 -73.5364289 193.58447221 -75.07421875 195.43359375 C-75.72620999 198.54866302 -75.52790484 200.54223402 -74.078125 203.390625 C-69.32996382 210.42543604 -61.44536671 215.75936416 -53.07421875 217.43359375 C-49.37367466 217.36998585 -49.37367466 217.36998585 -46.07421875 216.43359375 C-43.93835197 213.22979358 -43.842897 212.41419408 -43.94921875 208.74609375 C-43.96726563 207.93785156 -43.9853125 207.12960938 -44.00390625 206.296875 C-44.02710938 205.68199219 -44.0503125 205.06710938 -44.07421875 204.43359375 C-42.86185547 204.45099609 -42.86185547 204.45099609 -41.625 204.46875 C-40.55636719 204.47777344 -39.48773438 204.48679687 -38.38671875 204.49609375 C-37.33097656 204.50769531 -36.27523437 204.51929688 -35.1875 204.53125 C-32.33678213 204.44182974 -29.85508596 204.01143629 -27.07421875 203.43359375 C-25.47118248 203.36988007 -23.86584203 203.34715161 -22.26171875 203.37109375 C-21.47152344 203.38011719 -20.68132812 203.38914062 -19.8671875 203.3984375 C-19.27550781 203.41003906 -18.68382813 203.42164063 -18.07421875 203.43359375 C-18.40421875 205.74359375 -18.73421875 208.05359375 -19.07421875 210.43359375 C-4.28406114 210.36248722 8.73350888 202.61323431 21.40576172 195.84106445 C33.62186487 189.37162575 46.84562559 183.06036048 60.9609375 183.55859375 C70.10760409 183.59901023 79.08374492 182.13023784 88.11328125 180.80859375 C89.50649597 180.60801361 89.50649597 180.60801361 90.92785645 180.40338135 C105.84201419 178.24264915 120.39212456 175.46907213 134.92578125 171.43359375 C136.33442108 171.05778944 137.74325817 170.68272326 139.15234375 170.30859375 C142.43278899 169.40945672 145.68107248 168.45323592 148.92578125 167.43359375 C149.90417969 167.129375 150.88257813 166.82515625 151.890625 166.51171875 C163.25792562 162.70702554 173.37323984 155.88419487 178.98828125 144.93359375 C180.36339498 139.79983584 180.25621384 135.15349805 177.89697266 130.33032227 C174.89927468 127.44586406 171.70604835 127.89994085 167.76953125 127.97265625 C166.95319214 127.97357269 166.13685303 127.97448914 165.29577637 127.97543335 C163.55731436 127.98148373 161.81886347 127.99727273 160.08056641 128.02197266 C157.49079367 128.05769694 154.90248937 128.06299702 152.3125 128.0625 C143.59254561 128.09898604 134.94877935 128.47150105 126.26953125 129.33203125 Z M-68.26171875 143.68359375 C-69.15890625 144.54984375 -69.15890625 144.54984375 -70.07421875 145.43359375 C-64.85676809 144.90852547 -60.84770764 143.65373785 -56.13671875 141.37109375 C-54.99332031 140.82324219 -53.84992188 140.27539062 -52.671875 139.7109375 C-51.81464844 139.28941406 -50.95742187 138.86789063 -50.07421875 138.43359375 C-56.28236807 136.16944517 -63.21979921 140.12459172 -68.26171875 143.68359375 Z M219.92578125 152.43359375 C223.06956831 156.96064712 226.08587062 159.01363844 230.92578125 161.43359375 C231.58578125 161.43359375 232.24578125 161.43359375 232.92578125 161.43359375 C233.21453125 162.23796875 233.50328125 163.04234375 233.80078125 163.87109375 C234.65840693 166.56624055 234.65840693 166.56624055 236.92578125 167.43359375 C237.86849127 164.17719716 237.86849127 164.17719716 237.92578125 160.43359375 C234.94578144 156.46026067 231.54668705 154.18953795 226.92578125 152.43359375 C223.17504921 152.18215063 223.17504921 152.18215063 219.92578125 152.43359375 Z M143.23828125 181.80859375 C138.81436095 184.42206482 134.64991027 185.01726716 129.61328125 185.43359375 C122.61901729 186.01823528 115.98491576 187.15576279 109.17578125 188.87109375 C108.34264404 189.07669922 107.50950684 189.28230469 106.65112305 189.49414062 C102.09166768 190.67916253 98.07651859 192.13729874 93.92578125 194.43359375 C96.60310935 196.63845218 99.26975408 198.65849907 102.17578125 200.55859375 C104.92578125 202.43359375 104.92578125 202.43359375 105.92578125 204.43359375 C95.74236921 203.08761233 85.88864149 200.89149699 75.92578125 198.43359375 C75.755625 198.98789063 75.58546875 199.5421875 75.41015625 200.11328125 C75.04664063 201.19996094 75.04664063 201.19996094 74.67578125 202.30859375 C74.44375 203.02789062 74.21171875 203.7471875 73.97265625 204.48828125 C72.63059123 206.98211848 71.57938472 207.51311387 68.92578125 208.43359375 C66.72753906 208.66064453 66.72753906 208.66064453 64.37890625 208.62890625 C63.53457031 208.62246094 62.69023437 208.61601562 61.8203125 208.609375 C60.94761719 208.59261719 60.07492188 208.57585937 59.17578125 208.55859375 C58.28761719 208.54957031 57.39945312 208.54054687 56.484375 208.53125 C54.29790067 208.50773952 52.11198031 208.47487874 49.92578125 208.43359375 C50.91578125 209.42359375 50.91578125 209.42359375 51.92578125 210.43359375 C52.11328125 213.68359375 52.11328125 213.68359375 50.92578125 217.43359375 C44.48454682 223.99899655 33.55553079 227.58976186 24.48828125 227.74609375 C20.92578125 227.43359375 20.92578125 227.43359375 17.67578125 226.68359375 C14.82238071 226.1191095 14.82238071 226.1191095 12.61328125 228.12109375 C10.92076143 230.44047276 10.35834305 231.64768979 9.92578125 234.43359375 C10.82895752 239.64969043 13.206251 244.03313972 16.05078125 248.43359375 C18.79213096 252.81565152 20.71207494 257.16650315 19.92578125 262.43359375 C18.546875 263.9375 18.546875 263.9375 16.92578125 265.43359375 C16.64774658 266.10648437 16.36971191 266.779375 16.08325195 267.47265625 C14.92578125 269.43359375 14.92578125 269.43359375 13.04980469 270.08374023 C12.3024707 270.15665283 11.55513672 270.22956543 10.78515625 270.3046875 C9.96144531 270.40458984 9.13773438 270.50449219 8.2890625 270.60742188 C6.56273115 270.78160329 4.83616977 270.95352136 3.109375 271.12304688 C-2.83002556 271.84815254 -5.9195013 273.04732357 -10.07421875 277.43359375 C-11.23196935 280.90684556 -11.14288527 283.79426823 -11.07421875 287.43359375 C-13.38421875 287.10359375 -15.69421875 286.77359375 -18.07421875 286.43359375 C-20.38074046 289.27489571 -20.38074046 289.27489571 -20.01171875 292.62109375 C-18.58026377 298.44234401 -16.10892125 303.07712542 -11.07421875 306.43359375 C-8.84959106 306.30457741 -8.84959106 306.30457741 -6.44921875 305.80859375 C-0.65796963 305.10049342 2.96519209 306.54760043 7.92578125 309.43359375 C8.57804687 309.78550781 9.2303125 310.13742187 9.90234375 310.5 C15.0831387 313.66359181 17.34198294 317.63798955 18.92578125 323.43359375 C19.39448685 328.80191206 19.30601324 334.11419543 19.17578125 339.49609375 C19.15567815 340.94854298 19.13743413 342.40101919 19.12109375 343.85351562 C19.07741631 347.38077709 19.00860232 350.90700874 18.92578125 354.43359375 C13.47509031 352.83753508 11.20314967 351.16757035 7.92578125 346.43359375 C5.74691138 341.76458688 5.0222219 336.53433202 5.92578125 331.43359375 C8.01527622 328.8246763 9.64301638 327.99958769 12.92578125 327.43359375 C11.09154482 321.38061353 7.28275968 316.9707536 2.05078125 313.55859375 C-1.62519552 313.41155468 -2.14944692 313.89621016 -4.88671875 316.18359375 C-9.53597992 320.68897063 -13.8289233 325.54953856 -18.07421875 330.43359375 C-15.15294012 333.53400739 -12.08553731 335.90662034 -8.57421875 338.30859375 C-4.34748487 341.35432845 -1.20420662 343.64112103 0.92578125 348.43359375 C0.92578125 351.96159295 0.2166274 353.10749352 -2.13671875 355.74609375 C-2.77609375 356.30296875 -3.41546875 356.85984375 -4.07421875 357.43359375 C-3.42195313 357.71332031 -2.7696875 357.99304688 -2.09765625 358.28125 C6.94123785 362.42740939 10.96385337 366.54466145 14.61328125 375.80859375 C16.0146375 379.67455751 17.25960527 383.55454925 18.42578125 387.49609375 C19.66123922 391.38100204 21.40564582 393.24540146 24.92578125 395.43359375 C27.38808122 394.71614019 27.38808122 394.71614019 29.92578125 393.43359375 C30.19390625 392.77359375 30.46203125 392.11359375 30.73828125 391.43359375 C31.92578125 389.43359375 31.92578125 389.43359375 33.8203125 388.73046875 C35.84102294 388.23502311 37.88312768 387.82894605 39.92578125 387.43359375 C36.04434329 382.46050136 31.7098753 378.52362235 26.92578125 374.43359375 C25.12814409 372.85704228 23.33657755 371.27354515 21.55078125 369.68359375 C20.71804687 368.94625 19.8853125 368.20890625 19.02734375 367.44921875 C16.92578125 365.43359375 16.92578125 365.43359375 14.92578125 362.43359375 C14.92578125 361.44359375 14.92578125 360.45359375 14.92578125 359.43359375 C18.88578125 359.43359375 22.84578125 359.43359375 26.92578125 359.43359375 C26.83039063 357.95246094 26.735 356.47132813 26.63671875 354.9453125 C26.52417535 353.00393888 26.41222708 351.06253069 26.30078125 349.12109375 C26.23632812 348.14462891 26.171875 347.16816406 26.10546875 346.16210938 C26.05390625 345.22431641 26.00234375 344.28652344 25.94921875 343.3203125 C25.89685059 342.45623779 25.84448242 341.59216309 25.79052734 340.7019043 C25.92578125 338.43359375 25.92578125 338.43359375 27.92578125 335.43359375 C29.25911458 335.10026042 30.59244792 334.76692708 31.92578125 334.43359375 C32.58578125 333.44359375 33.24578125 332.45359375 33.92578125 331.43359375 C34.02770355 336.14466901 33.99556561 340.82008107 33.6328125 345.51953125 C33.57923584 346.22722656 33.52565918 346.93492187 33.47045898 347.6640625 C33.35871847 349.07633403 33.23737556 350.48788379 33.10571289 351.8984375 C32.81068717 355.66151133 32.78346008 358.2446424 34.92578125 361.43359375 C38.95282418 360.90832728 41.02355266 359.87363501 43.98828125 357.12109375 C44.67921875 356.49589844 45.37015625 355.87070312 46.08203125 355.2265625 C48.04025436 353.3876477 48.04025436 353.3876477 49.98828125 350.93359375 C51.92578125 349.43359375 51.92578125 349.43359375 55.23828125 349.05859375 C60.89694843 351.16860524 62.82240977 355.46081041 65.92578125 360.43359375 C66.87537045 361.66952814 67.83256606 362.89969585 68.80078125 364.12109375 C71.15674942 367.79363237 72.00806272 370.07267597 71.92578125 374.43359375 C70.61328125 376.93359375 70.61328125 376.93359375 67.92578125 378.43359375 C60.73636838 378.95741254 54.34991802 376.37229461 47.92578125 373.43359375 C50.03017537 378.59892477 54.26238151 381.85903467 58.3359375 385.484375 C58.93341797 386.01869141 59.53089844 386.55300781 60.14648438 387.10351562 C61.37073279 388.19534268 62.60251886 389.27877821 63.84179688 390.35351562 C68.7193264 394.75647471 72.62819216 399.50541773 73.140625 406.26953125 C73.00333984 407.52636719 73.00333984 407.52636719 72.86328125 408.80859375 C72.61731301 414.89842803 74.41345416 419.47936397 77.92578125 424.43359375 C79.79232767 426.27301747 79.79232767 426.27301747 81.92578125 427.43359375 C85.40633999 427.25792017 85.40633999 427.25792017 88.92578125 426.43359375 C89.89515625 426.24796875 90.86453125 426.06234375 91.86328125 425.87109375 C92.54390625 425.72671875 93.22453125 425.58234375 93.92578125 425.43359375 C94.02890625 426.36171875 94.13203125 427.28984375 94.23828125 428.24609375 C94.93280045 431.46613733 95.40319064 432.4593924 97.92578125 434.43359375 C100.0340518 431.27118793 100.2639559 429.92701906 100.55078125 426.24609375 C100.62554687 425.34503906 100.7003125 424.44398438 100.77734375 423.515625 C100.85082031 422.48501953 100.85082031 422.48501953 100.92578125 421.43359375 C107.90999449 423.16208113 114.8351643 424.9260162 119.1015625 431.1484375 C121.61892188 435.90128976 123.32243223 441.04632445 125.09375 446.11328125 C125.86784651 448.4169421 125.86784651 448.4169421 126.92578125 450.43359375 C128.24578125 450.43359375 129.56578125 450.43359375 130.92578125 450.43359375 C130.42404048 443.85622836 128.03368797 438.47894985 125.36328125 432.49609375 C124.93853516 431.52607422 124.51378906 430.55605469 124.07617188 429.55664062 C123.03367172 427.17880318 121.98340886 424.80473177 120.92578125 422.43359375 C145.00039382 443.32642417 145.00039382 443.32642417 147.05078125 454.80859375 C146.91254265 458.81751326 146.57434334 460.44328171 143.92578125 463.43359375 C138.58900105 467.12828774 132.21538133 467.5685193 125.92578125 468.43359375 C126.60640625 468.94921875 127.28703125 469.46484375 127.98828125 469.99609375 C130.22666817 471.85347864 132.12407381 473.65318355 134.11328125 475.74609375 C140.21326507 481.93951277 147.72452563 488.17353097 156.67578125 488.62109375 C163.07065383 489.32090999 167.56962742 493.81621417 171.72265625 498.4296875 C177.53121028 505.80540091 179.4315119 512.1244036 178.92578125 521.43359375 C167.16017083 523.52104076 160.14222929 519.74915969 150.30859375 513.4375 C143.34040865 509.3096952 135.94272779 506.56863089 127.92578125 505.43359375 C127.92578125 506.09359375 127.92578125 506.75359375 127.92578125 507.43359375 C139.27413799 516.91587271 153.99956515 522.07625934 167.43261719 527.91162109 C174.55541658 531.01502698 181.63372202 534.2180945 188.70849609 537.42919922 C190.17354026 538.09284068 191.63999278 538.7533828 193.10791016 539.41064453 C216.2050861 549.771063 235.90411264 562.14207275 252.48828125 581.55859375 C255.95100139 585.60656237 259.83530689 589.03371896 263.92578125 592.43359375 C259.59587791 594.55609539 255.54111572 594.81807231 250.80078125 594.80859375 C250.05103027 594.80843262 249.3012793 594.80827148 248.52880859 594.80810547 C240.83345096 594.65119219 234.3521514 592.71784052 227.92578125 588.43359375 C227.92578125 587.11359375 227.92578125 585.79359375 227.92578125 584.43359375 C230.42578125 582.68359375 230.42578125 582.68359375 232.92578125 581.43359375 C226.62107392 578.04641464 220.0066665 577.13227948 212.92578125 577.43359375 C211.86534474 579.52854678 211.86534474 579.52854678 211.92578125 582.43359375 C215.70926392 589.85101433 221.54204438 593.95864359 229.2578125 596.5546875 C243.04244726 600.54596828 257.6298214 601.60670325 271.92578125 601.43359375 C271.58804687 602.036875 271.2503125 602.64015625 270.90234375 603.26171875 C270.45632813 604.0609375 270.0103125 604.86015625 269.55078125 605.68359375 C269.10992187 606.4725 268.6690625 607.26140625 268.21484375 608.07421875 C267.06830302 610.17273572 265.97928573 612.28720145 264.92578125 614.43359375 C266.90578125 615.09359375 268.88578125 615.75359375 270.92578125 616.43359375 C269.60578125 617.42359375 268.28578125 618.41359375 266.92578125 619.43359375 C267.02454162 621.3371159 267.02454162 621.3371159 267.92578125 623.43359375 C270.30655 625.271768 270.30655 625.271768 273.23828125 626.74609375 C274.20378906 627.27847656 275.16929687 627.81085938 276.1640625 628.359375 C279.17898772 629.53208283 279.98312953 629.49223065 282.92578125 628.43359375 C287.43623944 627.86877788 290.76350919 627.60339942 294.55078125 630.30859375 C297.28159621 633.90177133 299.87033487 637.56999785 302.375 641.32421875 C303.75624937 643.538717 303.75624937 643.538717 305.92578125 644.43359375 C309.60752446 644.85116352 311.3264957 644.8623354 314.3828125 642.67578125 C315.16011719 641.89460938 315.93742187 641.1134375 316.73828125 640.30859375 C321.19407937 636.02859343 325.70120195 632.72002266 330.92578125 629.43359375 C327.95578125 633.39359375 324.98578125 637.35359375 321.92578125 641.43359375 C322.91578125 641.76359375 323.90578125 642.09359375 324.92578125 642.43359375 C327.68159388 641.05955014 327.68159388 641.05955014 330.61328125 639.12109375 C341.81703734 632.39347945 352.44013816 631.99114169 365.23828125 634.80859375 C377.63894352 637.97357114 389.37393117 643.6704056 401.05102539 648.80883789 C406.68997136 651.24246032 411.79094085 653.0849241 417.86328125 653.99609375 C422.99039889 654.82612239 427.79068737 655.91918913 432.73828125 657.55859375 C444.74000145 661.34783465 452.43832608 660.28012593 463.92578125 655.43359375 C463.59578125 654.44359375 463.26578125 653.45359375 462.92578125 652.43359375 C461.104096 651.53818175 461.104096 651.53818175 458.83203125 651.00390625 C457.97424072 650.76841064 457.1164502 650.53291504 456.23266602 650.2902832 C454.84325806 649.92809692 454.84325806 649.92809692 453.42578125 649.55859375 C451.5076791 649.03434201 449.5897122 648.50959518 447.671875 647.984375 C446.70749512 647.72479004 445.74311523 647.46520508 444.74951172 647.19775391 C440.65024676 646.08840761 436.56717459 644.92783776 432.48828125 643.74609375 C431.81023437 643.55611816 431.1321875 643.36614258 430.43359375 643.17041016 C426.33331317 641.98549507 422.48687043 640.81302438 418.92578125 638.43359375 C418.05078125 635.24609375 418.05078125 635.24609375 417.92578125 632.43359375 C416.9821875 632.46839844 416.03859375 632.50320313 415.06640625 632.5390625 C396.19091315 632.93703976 382.48419153 627.23472887 368.66015625 614.31640625 C365.94258544 611.64916083 363.39487778 609.12107102 361.2434082 605.96801758 C358.35790821 602.81260039 356.13551839 602.13763353 352.0546875 600.92578125 C350.67122969 600.49831061 349.28793521 600.07031109 347.90478516 599.6418457 C347.18333313 599.42485016 346.4618811 599.20785461 345.71856689 598.98428345 C326.97626162 593.30609482 309.16550596 586.07824013 293.92578125 573.43359375 C293.08144531 572.76199219 292.23710937 572.09039063 291.3671875 571.3984375 C283.45399301 564.76195323 276.42288294 556.26919225 272.92578125 546.43359375 C273.91578125 546.10359375 274.90578125 545.77359375 275.92578125 545.43359375 C273.02461519 539.73978405 269.63741756 535.94882294 264.98828125 531.62109375 C252.22184943 519.2234011 243.08688712 504.69972322 234.4765625 489.19970703 C230.80449485 482.79715382 226.91989907 478.12544021 221.21020508 473.42822266 C217.8702509 470.51196471 215.38422452 467.10127131 212.92578125 463.43359375 C212.26578125 463.76359375 211.60578125 464.09359375 210.92578125 464.43359375 C210.46055062 466.32892717 210.46055062 466.32892717 210.30078125 468.49609375 C210.11515625 470.44515625 210.11515625 470.44515625 209.92578125 472.43359375 C209.51328125 471.50417969 209.10078125 470.57476562 208.67578125 469.6171875 C204.94045267 461.51284876 201.26901907 454.60521266 192.92578125 450.43359375 C190.92618113 450.39360175 188.92530883 450.39012576 186.92578125 450.43359375 C187.30608803 446.15514244 187.73284163 442.63870623 190.83984375 439.5 C192.82133224 438.04014011 194.80938477 436.68866608 196.92578125 435.43359375 C196.48853455 432.98501221 196.01639741 431.54922367 194.46557617 429.5703125 C192.84138835 427.31648471 192.24980787 425.67841039 191.6015625 422.99609375 C191.27188477 421.67617432 191.27188477 421.67617432 190.93554688 420.32958984 C190.59040039 418.89607178 190.59040039 418.89607178 190.23828125 417.43359375 C188.30113743 409.6614854 186.22823833 401.95674572 183.95214844 394.27685547 C179.60848782 379.5989195 176.32128955 364.90407855 173.46313477 349.87841797 C173.03235519 347.44275616 173.03235519 347.44275616 171.92578125 345.43359375 C168.04776076 345.96436035 166.60790925 347.52588113 164.23828125 350.55859375 C161.19492128 354.62290995 160.03311206 357.38904545 159.92578125 362.43359375 C159.26578125 362.43359375 158.60578125 362.43359375 157.92578125 362.43359375 C158.37303234 359.34854713 158.83551677 356.26597094 159.30078125 353.18359375 C159.42710937 352.31089844 159.5534375 351.43820312 159.68359375 350.5390625 C159.8125 349.69472656 159.94140625 348.85039062 160.07421875 347.98046875 C160.24703369 346.81789551 160.24703369 346.81789551 160.42333984 345.63183594 C160.95071409 343.32450956 161.78585106 341.49946001 162.92578125 339.43359375 C163.91578125 339.43359375 164.90578125 339.43359375 165.92578125 339.43359375 C166.58578125 340.09359375 167.24578125 340.75359375 167.92578125 341.43359375 C170.58251162 336.8950127 171.3377725 333.68648215 170.92578125 328.43359375 C169.8004402 327.07740876 169.8004402 327.07740876 166.86328125 327.37109375 C165.89390625 327.39171875 164.92453125 327.41234375 163.92578125 327.43359375 C164.14234375 326.65757812 164.35890625 325.8815625 164.58203125 325.08203125 C166.71240265 316.81697925 169.38830636 306.23609546 165.90625 298.03125 C165.42091797 297.24041016 165.42091797 297.24041016 164.92578125 296.43359375 C163.60578125 296.76359375 162.28578125 297.09359375 160.92578125 297.43359375 C161.05855469 296.83933594 161.19132813 296.24507813 161.328125 295.6328125 C163.44457092 285.69942033 164.0263111 276.00666656 164.11328125 265.87109375 C164.12633301 264.99670654 164.13938477 264.12231934 164.15283203 263.22143555 C164.16223327 256.05836175 163.98718836 248.52570441 159.92578125 242.43359375 C158.60578125 242.43359375 157.28578125 242.43359375 155.92578125 242.43359375 C156.20292969 241.15484375 156.48007812 239.87609375 156.765625 238.55859375 C157.13168826 236.85029852 157.49756368 235.14196302 157.86328125 233.43359375 C158.04568359 232.59441406 158.22808594 231.75523437 158.41601562 230.890625 C160.19121737 222.56331499 161.10640385 214.51719449 161.11328125 205.99609375 C161.12552734 205.20138672 161.13777344 204.40667969 161.15039062 203.58789062 C161.17056003 195.3251596 160.24144323 188.03790106 154.92578125 181.43359375 C150.40764241 178.42150119 147.53620531 178.691022 143.23828125 181.80859375 Z M18.92578125 213.43359375 C18.59578125 214.09359375 18.26578125 214.75359375 17.92578125 215.43359375 C18.91578125 215.76359375 19.90578125 216.09359375 20.92578125 216.43359375 C21.25578125 215.44359375 21.58578125 214.45359375 21.92578125 213.43359375 C20.93578125 213.43359375 19.94578125 213.43359375 18.92578125 213.43359375 Z M-78.07421875 220.43359375 C-77.74421875 221.42359375 -77.41421875 222.41359375 -77.07421875 223.43359375 C-75.42421875 223.10359375 -73.77421875 222.77359375 -72.07421875 222.43359375 C-71.74421875 221.44359375 -71.41421875 220.45359375 -71.07421875 219.43359375 C-74.70307199 219.28210077 -74.70307199 219.28210077 -78.07421875 220.43359375 Z M-22.07421875 236.43359375 C-18.77319702 239.22112321 -15.42846413 240.58310775 -11.38671875 242.05859375 C-5.16560715 244.34220535 -5.16560715 244.34220535 -4.07421875 245.43359375 C-8.36421875 245.43359375 -12.65421875 245.43359375 -17.07421875 245.43359375 C-16.53602499 249.34610011 -16.53602499 249.34610011 -14.44921875 250.68359375 C-9.41822141 252.27232975 -5.43887993 251.83351062 -0.76171875 249.55859375 C1.56859074 248.32247673 3.0394428 247.3199322 4.92578125 245.43359375 C5.42593078 242.97617838 5.42593078 242.97617838 4.92578125 240.43359375 C1.74612482 237.13617227 -1.69014899 236.52210912 -6.1652832 236.35595703 C-8.57325068 236.3353094 -10.9787993 236.34638739 -13.38671875 236.37109375 C-14.6406543 236.37786133 -14.6406543 236.37786133 -15.91992188 236.38476562 C-17.97138524 236.39648827 -20.02281148 236.41442172 -22.07421875 236.43359375 Z M-47.07421875 247.43359375 C-46.69914493 250.15287892 -46.23203214 251.27578036 -44.26171875 253.24609375 C-42.18563852 254.62299075 -42.18563852 254.62299075 -40.01171875 254.30859375 C-37.75397106 253.28896576 -36.50570093 252.46780527 -35.07421875 250.43359375 C-35.30179606 248.27060164 -35.30179606 248.27060164 -36.07421875 246.43359375 C-40.36721518 245.17094774 -42.95253186 245.80408963 -47.07421875 247.43359375 Z M-29.07421875 256.43359375 C-29.07421875 257.09359375 -29.07421875 257.75359375 -29.07421875 258.43359375 C-26.10421875 258.92859375 -26.10421875 258.92859375 -23.07421875 259.43359375 C-22.74421875 258.44359375 -22.41421875 257.45359375 -22.07421875 256.43359375 C-24.38421875 256.43359375 -26.69421875 256.43359375 -29.07421875 256.43359375 Z M2.92578125 256.43359375 C3.92578125 259.43359375 3.92578125 259.43359375 3.92578125 259.43359375 Z M-80.07421875 259.43359375 C-79.74421875 260.42359375 -79.41421875 261.41359375 -79.07421875 262.43359375 C-78.74421875 261.44359375 -78.41421875 260.45359375 -78.07421875 259.43359375 C-78.73421875 259.43359375 -79.39421875 259.43359375 -80.07421875 259.43359375 Z M-37.07421875 262.43359375 C-37.07421875 263.42359375 -37.07421875 264.41359375 -37.07421875 265.43359375 C-35.42421875 265.10359375 -33.77421875 264.77359375 -32.07421875 264.43359375 C-32.40421875 263.44359375 -32.73421875 262.45359375 -33.07421875 261.43359375 C-35.14875435 261.28452255 -35.14875435 261.28452255 -37.07421875 262.43359375 Z M-86.07421875 265.43359375 C-85.07421875 268.43359375 -85.07421875 268.43359375 -85.07421875 268.43359375 Z M-48.07421875 279.43359375 C-48.07421875 280.09359375 -48.07421875 280.75359375 -48.07421875 281.43359375 C-46.68940547 282.30551322 -45.29076629 283.15549759 -43.88671875 283.99609375 C-43.10941406 284.47175781 -42.33210938 284.94742187 -41.53125 285.4375 C-38.59060908 286.62965172 -37.06975512 286.32214539 -34.07421875 285.43359375 C-34.07421875 284.44359375 -34.07421875 283.45359375 -34.07421875 282.43359375 C-39.04415069 279.99934137 -42.42027244 279.08743377 -48.07421875 279.43359375 Z M-71.07421875 291.43359375 C-72.29936164 292.47235609 -72.29936164 292.47235609 -72.51171875 294.68359375 C-71.84376196 298.8821793 -69.44335815 299.9769296 -66.07421875 302.43359375 C-65.41421875 302.10359375 -64.75421875 301.77359375 -64.07421875 301.43359375 C-65.56500236 295.93943146 -65.56500236 295.93943146 -69.26171875 291.93359375 C-69.85984375 291.76859375 -70.45796875 291.60359375 -71.07421875 291.43359375 Z M-47.07421875 293.43359375 C-46.91688908 295.39584332 -46.91688908 295.39584332 -46.07421875 297.43359375 C-44.06727017 298.60956021 -44.06727017 298.60956021 -41.63671875 299.24609375 C-40.83363281 299.50003906 -40.03054687 299.75398438 -39.203125 300.015625 C-37.03193927 300.66709965 -37.03193927 300.66709965 -35.07421875 299.43359375 C-36.5720244 295.6058682 -37.32726167 293.80707229 -41.07421875 291.93359375 C-44.24520403 291.05362646 -44.24520403 291.05362646 -47.07421875 293.43359375 Z M-49.07421875 303.43359375 C-46.54465347 306.52528465 -43.84967263 307.34290707 -40.07421875 308.43359375 C-41.18131366 306.37064083 -41.18131366 306.37064083 -43.07421875 304.43359375 C-46.17619272 303.62412953 -46.17619272 303.62412953 -49.07421875 303.43359375 Z M-62.07421875 317.43359375 C-61.61804435 324.88444225 -59.16563072 331.56558461 -56.72070312 338.54833984 C-55.761225 341.34633458 -54.89735696 344.17400058 -54.01171875 346.99609375 C-52.53679756 351.39124042 -51.11798433 354.9142398 -48.07421875 358.43359375 C-46.00846739 359.10150749 -46.00846739 359.10150749 -44.07421875 359.43359375 C-46.33601915 345.64738181 -51.50489329 327.30437184 -62.07421875 317.43359375 Z M-70.07421875 325.43359375 C-69.30943999 334.22854945 -65.68720106 341.40454085 -61.44921875 349.05859375 C-57.80279885 355.65103039 -54.90638879 362.45726066 -52.07421875 369.43359375 C-44.00113995 389.39215389 -44.00113995 389.39215389 -31.07421875 406.43359375 C-30.41421875 406.43359375 -29.75421875 406.43359375 -29.07421875 406.43359375 C-30.17867101 402.71861796 -31.59315468 399.29391673 -33.26171875 395.80859375 C-35.74300058 390.48948225 -37.59248649 385.05287708 -39.44921875 379.49609375 C-42.167202 371.44521673 -45.4061269 364.56283303 -50.07421875 357.43359375 C-52.25330345 353.99922584 -53.8284168 350.67425957 -55.26171875 346.87109375 C-58.49370811 338.95761678 -62.76660666 330.26735943 -70.07421875 325.43359375 Z M-16.07421875 349.43359375 C-14.58921875 350.42359375 -14.58921875 350.42359375 -13.07421875 351.43359375 C-12.08421875 350.77359375 -11.09421875 350.11359375 -10.07421875 349.43359375 C-12.05421875 349.43359375 -14.03421875 349.43359375 -16.07421875 349.43359375 Z M-11.07421875 367.43359375 C-8.88430455 369.62350795 -8.1108137 370.17331418 -5.07421875 370.43359375 C-2.34440043 369.0795873 -2.34440043 369.0795873 -0.07421875 367.43359375 C-4.44313594 364.52098229 -6.51324112 365.4612791 -11.07421875 367.43359375 Z M34.92578125 367.43359375 C33.93578125 368.91859375 33.93578125 368.91859375 32.92578125 370.43359375 C33.25578125 371.09359375 33.58578125 371.75359375 33.92578125 372.43359375 C34.91578125 372.43359375 35.90578125 372.43359375 36.92578125 372.43359375 C36.59578125 370.78359375 36.26578125 369.13359375 35.92578125 367.43359375 C35.59578125 367.43359375 35.26578125 367.43359375 34.92578125 367.43359375 Z M57.92578125 369.43359375 C59.41078125 370.42359375 59.41078125 370.42359375 60.92578125 371.43359375 C60.92578125 370.77359375 60.92578125 370.11359375 60.92578125 369.43359375 C59.93578125 369.43359375 58.94578125 369.43359375 57.92578125 369.43359375 Z M-47.07421875 395.43359375 C-45.21870253 402.12733338 -42.96966549 408.43449674 -40.07421875 414.74609375 C-39.68322998 415.60219238 -39.29224121 416.45829102 -38.8894043 417.34033203 C-28.79645953 439.16237866 -16.65788165 459.47548386 -2.63549805 478.99926758 C2.21636428 485.76623194 6.80758475 492.70036763 11.3828125 499.65649414 C11.94613281 500.50977295 12.50945312 501.36305176 13.08984375 502.2421875 C13.83935303 503.38385376 13.83935303 503.38385376 14.60400391 504.54858398 C15.9251031 506.54824202 15.9251031 506.54824202 17.92578125 508.43359375 C17.92578125 507.77359375 17.92578125 507.11359375 17.92578125 506.43359375 C18.58578125 506.43359375 19.24578125 506.43359375 19.92578125 506.43359375 C20.58578125 508.41359375 21.24578125 510.39359375 21.92578125 512.43359375 C20.93578125 512.92859375 20.93578125 512.92859375 19.92578125 513.43359375 C26.89529695 525.9749839 34.32749481 537.94135561 42.92578125 549.43359375 C43.65023437 550.40425781 44.3746875 551.37492188 45.12109375 552.375 C53.05948172 562.50172686 62.50511566 573.04599827 73.23828125 580.24609375 C79.9465478 584.74876357 85.32543263 590.71271369 90.85083008 596.55786133 C99.30627731 605.32532422 109.0596422 611.97500035 121.55078125 612.62109375 C122.33453125 612.55921875 123.11828125 612.49734375 123.92578125 612.43359375 C124.25578125 611.44359375 124.58578125 610.45359375 124.92578125 609.43359375 C120.92809719 601.43822562 112.84255399 594.72832103 104.79296875 591.04296875 C102.68649124 590.27184246 102.68649124 590.27184246 99.36328125 590.18359375 C94.83949636 589.19658614 93.49409485 587.16453024 90.69921875 583.6171875 C88.95616342 581.47100264 87.10242264 579.717571 85.05078125 577.87109375 C81.74661086 574.65562592 81.01938976 572.11401917 80.92578125 567.43359375 C80.92578125 567.10359375 80.92578125 566.77359375 80.92578125 566.43359375 C80.07306641 566.32144531 80.07306641 566.32144531 79.203125 566.20703125 C78.43097656 566.07554687 77.65882813 565.9440625 76.86328125 565.80859375 C76.10917969 565.69257812 75.35507813 565.5765625 74.578125 565.45703125 C67.12010606 562.57926842 63.31858708 556.44714724 59.67578125 549.68359375 C58.84348698 548.16452906 58.00518538 546.64873629 57.16015625 545.13671875 C56.80147461 544.47317383 56.44279297 543.80962891 56.07324219 543.12597656 C54.87210024 541.12524736 54.87210024 541.12524736 51.92578125 539.43359375 C50.99765625 539.30984375 50.06953125 539.18609375 49.11328125 539.05859375 C45.31358281 538.31355484 43.06289788 536.64383501 39.92578125 534.43359375 C39.26578125 534.43359375 38.60578125 534.43359375 37.92578125 534.43359375 C37.67828125 533.79421875 37.43078125 533.15484375 37.17578125 532.49609375 C36.50771517 530.85933186 35.82837283 529.22575919 35.078125 527.625 C33.13034418 523.45343702 31.53313167 519.30337147 30.16625977 514.90209961 C26.56481577 503.38347885 21.47534625 495.92045271 11.92578125 488.43359375 C10.93578125 487.93859375 10.93578125 487.93859375 9.92578125 487.43359375 C9.16456146 485.64266193 8.46693315 483.82451766 7.80078125 481.99609375 C5.12559826 475.41638067 1.53678487 470.76760274 -3.07421875 465.43359375 C-13.83127881 452.59630556 -22.98878662 440.26076621 -29.2109375 424.56640625 C-33.40911548 414.05004015 -38.48031014 403.92543075 -46.07421875 395.43359375 C-46.40421875 395.43359375 -46.73421875 395.43359375 -47.07421875 395.43359375 Z M51.92578125 389.43359375 C52.86327692 392.31304474 53.78073621 395.11932949 55.05078125 397.87109375 C56.16526109 401.13492758 56.06002923 404.01027035 55.92578125 407.43359375 C48.7341296 409.76602131 42.29050906 405.90229122 35.7578125 403.05078125 C34.72011719 402.59960938 33.68242187 402.1484375 32.61328125 401.68359375 C31.66839844 401.255625 30.72351563 400.82765625 29.75 400.38671875 C26.6294817 399.33359778 24.19778488 399.18807544 20.92578125 399.43359375 C20.59578125 399.76359375 20.26578125 400.09359375 19.92578125 400.43359375 C20.15002744 405.92762543 21.71191257 409.1674908 24.8671875 413.63671875 C25.92578125 415.43359375 25.92578125 415.43359375 25.92578125 418.43359375 C26.52712891 418.70397461 27.12847656 418.97435547 27.74804688 419.25292969 C30.64292021 420.55813902 33.53479687 421.86979211 36.42578125 423.18359375 C37.49699219 423.67005371 38.56820312 424.15651367 39.671875 424.65771484 C45.36631173 427.26655758 51.00539806 429.94796623 56.58203125 432.80078125 C57.64615234 433.34508789 58.71027344 433.88939453 59.80664062 434.45019531 C61.84482451 435.5011937 63.87767044 436.56262688 65.90429688 437.63574219 C71.37753257 440.45911705 75.75273927 442.12785346 81.92578125 442.43359375 C79.17821351 433.30197155 74.86437294 426.66584737 66.92578125 421.43359375 C64.15045522 415.0839842 62.78481215 408.65408708 61.46484375 401.88085938 C60.57142261 397.56387771 59.67872475 394.00196609 56.92578125 390.43359375 C54.33455382 389.54700909 54.33455382 389.54700909 51.92578125 389.43359375 Z M18.92578125 425.43359375 C18.59578125 426.09359375 18.26578125 426.75359375 17.92578125 427.43359375 C19.57578125 427.43359375 21.22578125 427.43359375 22.92578125 427.43359375 C22.92578125 426.77359375 22.92578125 426.11359375 22.92578125 425.43359375 C21.60578125 425.43359375 20.28578125 425.43359375 18.92578125 425.43359375 Z M17.92578125 446.43359375 C19.04244299 449.78357896 19.6727305 450.22699597 22.48828125 452.12109375 C23.12894531 452.55808594 23.76960937 452.99507813 24.4296875 453.4453125 C24.92339844 453.77144531 25.41710937 454.09757812 25.92578125 454.43359375 C26.58578125 454.10359375 27.24578125 453.77359375 27.92578125 453.43359375 C25.04236591 449.21937133 22.88274706 447.6728352 17.92578125 446.43359375 Z M112.92578125 447.43359375 C112.92578125 448.75359375 112.92578125 450.07359375 112.92578125 451.43359375 C115.83178386 452.69024353 117.72182709 453.43359375 120.92578125 453.43359375 C120.37869398 450.8961506 120.37869398 450.8961506 118.92578125 448.43359375 C115.8730566 447.53528536 115.8730566 447.53528536 112.92578125 447.43359375 Z M68.92578125 452.43359375 C70.66137563 455.49154575 72.31050744 458.06739364 74.92578125 460.43359375 C73.23307292 459.65234375 71.54036458 458.87109375 69.84765625 458.08984375 C67.63335289 457.21816451 67.63335289 457.21816451 63.92578125 457.43359375 C64.25578125 459.74359375 64.58578125 462.05359375 64.92578125 464.43359375 C61.95578125 464.10359375 58.98578125 463.77359375 55.92578125 463.43359375 C58.78328284 466.82272354 61.60290798 470.11072048 64.73828125 473.24609375 C66.92578125 475.43359375 66.92578125 475.43359375 67.92578125 477.43359375 C65.94578125 477.43359375 63.96578125 477.43359375 61.92578125 477.43359375 C65.79551392 481.5613086 70.06041094 484.99597895 74.5234375 488.46875 C76.81079439 490.33954759 78.87598965 492.30805927 80.92578125 494.43359375 C76.49356993 493.86169552 72.88680775 492.11207725 68.9140625 490.17578125 C68.25792969 489.93085938 67.60179687 489.6859375 66.92578125 489.43359375 C65.93578125 489.92859375 65.93578125 489.92859375 64.92578125 490.43359375 C69.9687512 495.4765637 75.4035938 498.3351586 81.74609375 501.40258789 C86.90332268 503.90017709 91.84494946 506.63515388 96.7734375 509.5625 C100.61816154 511.84456049 104.48253814 514.08844564 108.36328125 516.30859375 C109.03810547 516.70232178 109.71292969 517.0960498 110.40820312 517.50170898 C113.90313968 519.4927558 116.86168288 520.94809452 120.92578125 521.43359375 C119.99304016 520.30464499 119.05438003 519.18058499 118.11328125 518.05859375 C117.59121094 517.43210937 117.06914062 516.805625 116.53125 516.16015625 C114.84352386 514.21148895 114.84352386 514.21148895 111.92578125 512.43359375 C112.17328125 511.56734375 112.42078125 510.70109375 112.67578125 509.80859375 C113.01171765 505.27345239 111.81286691 503.89809654 108.92578125 500.43359375 C107.70879745 499.43932594 106.47902517 498.4605483 105.23828125 497.49609375 C103.3671875 495.99609375 103.3671875 495.99609375 101.92578125 494.43359375 C101.84328125 493.29921875 101.76078125 492.16484375 101.67578125 490.99609375 C101.30036567 487.31393847 101.30036567 487.31393847 98.54296875 485.57421875 C96.58370112 484.37717273 94.59928643 483.22013553 92.58984375 482.109375 C89.92578125 480.43359375 89.92578125 480.43359375 86.92578125 476.43359375 C90.55578125 476.43359375 94.18578125 476.43359375 97.92578125 476.43359375 C96.60578125 475.44359375 95.28578125 474.45359375 93.92578125 473.43359375 C91.67578125 471.43359375 91.67578125 471.43359375 89.92578125 469.43359375 C89.92578125 468.44359375 89.92578125 467.45359375 89.92578125 466.43359375 C90.54066406 466.24023438 91.15554687 466.046875 91.7890625 465.84765625 C92.59730469 465.58726562 93.40554687 465.326875 94.23828125 465.05859375 C95.03878906 464.80335938 95.83929688 464.548125 96.6640625 464.28515625 C99.15302653 463.44527564 99.15302653 463.44527564 101.92578125 461.43359375 C101.92578125 460.77359375 101.92578125 460.11359375 101.92578125 459.43359375 C97.93073932 458.24947772 93.92906686 457.08950342 89.92578125 455.93359375 C88.80042969 455.59972656 87.67507812 455.26585937 86.515625 454.921875 C80.45270869 453.1845481 75.23573659 452.0005576 68.92578125 452.43359375 Z M36.92578125 461.43359375 C40.34966217 465.26028418 42.93303068 467.15637849 47.92578125 468.43359375 C45.55607628 465.21756557 43.7549973 462.79234783 39.92578125 461.43359375 C38.93578125 461.43359375 37.94578125 461.43359375 36.92578125 461.43359375 Z M20.92578125 474.43359375 C22.24578125 475.75359375 23.56578125 477.07359375 24.92578125 478.43359375 C24.26578125 477.11359375 23.60578125 475.79359375 22.92578125 474.43359375 C22.26578125 474.43359375 21.60578125 474.43359375 20.92578125 474.43359375 Z M146.92578125 506.43359375 C146.92578125 507.09359375 146.92578125 507.75359375 146.92578125 508.43359375 C147.91578125 508.10359375 148.90578125 507.77359375 149.92578125 507.43359375 C148.93578125 507.10359375 147.94578125 506.77359375 146.92578125 506.43359375 Z M161.92578125 514.43359375 C161.92578125 515.42359375 161.92578125 516.41359375 161.92578125 517.43359375 C162.91578125 517.10359375 163.90578125 516.77359375 164.92578125 516.43359375 C163.93578125 515.77359375 162.94578125 515.11359375 161.92578125 514.43359375 Z M88.92578125 522.43359375 C93.07542542 525.54582688 94.93415338 525.95362953 99.92578125 526.43359375 C100.25578125 525.77359375 100.58578125 525.11359375 100.92578125 524.43359375 C94.98578125 523.44359375 94.98578125 523.44359375 88.92578125 522.43359375 Z M129.92578125 525.43359375 C130.59220278 528.48549487 130.59220278 528.48549487 132.7109375 529.56640625 C137.8682632 531.81333717 142.30937322 533.02512771 147.92578125 533.43359375 C145.37112066 530.40880465 142.55561852 529.22738764 138.92578125 527.74609375 C137.87390625 527.30910156 136.82203125 526.87210938 135.73828125 526.421875 C132.95090389 525.26783499 132.95090389 525.26783499 129.92578125 525.43359375 Z M89.92578125 528.43359375 C89.92578125 529.09359375 89.92578125 529.75359375 89.92578125 530.43359375 C90.91578125 530.10359375 91.90578125 529.77359375 92.92578125 529.43359375 C91.93578125 529.10359375 90.94578125 528.77359375 89.92578125 528.43359375 Z M108.92578125 529.43359375 C111.31151504 531.32572744 112.99753473 532.45751158 115.92578125 533.43359375 C116.58578125 532.77359375 117.24578125 532.11359375 117.92578125 531.43359375 C114.79079833 529.5758261 112.55106693 529.23218899 108.92578125 529.43359375 Z M93.92578125 536.43359375 C93.26578125 537.75359375 92.60578125 539.07359375 91.92578125 540.43359375 C93.04989885 541.72602843 94.17510717 543.0175145 95.30078125 544.30859375 C95.92726562 545.02789063 96.55375 545.7471875 97.19921875 546.48828125 C100.46608543 550.16904959 102.77343797 551.20359488 107.39453125 552.63671875 C108.99396906 553.14024547 110.58089781 553.68733608 112.14453125 554.29296875 C121.06068681 557.52965536 132.90942139 558.24849724 141.92578125 555.05859375 C144.99917078 553.76469998 144.99917078 553.76469998 145.92578125 551.43359375 C143.63204562 548.82384667 141.59884427 547.71053281 138.34765625 546.53125 C137.44128418 546.19996094 136.53491211 545.86867188 135.60107422 545.52734375 C134.63572754 545.18703125 133.67038086 544.84671875 132.67578125 544.49609375 C131.68594238 544.14417969 130.69610352 543.79226563 129.67626953 543.4296875 C117.77534795 539.25731441 106.71443963 535.57625352 93.92578125 536.43359375 Z M145.92578125 540.43359375 C149.25286157 545.14695754 153.2972422 548.12491154 157.92578125 551.43359375 C158.91191406 552.21476563 158.91191406 552.21476563 159.91796875 553.01171875 C165.85275641 557.21456449 173.78474976 558.37959729 180.92578125 558.43359375 C181.58578125 558.10359375 182.24578125 557.77359375 182.92578125 557.43359375 C182.92578125 556.77359375 182.92578125 556.11359375 182.92578125 555.43359375 C182.28511719 555.17964844 181.64445312 554.92570313 180.984375 554.6640625 C179.68693359 554.14779297 179.68693359 554.14779297 178.36328125 553.62109375 C177.51636719 553.28464844 176.66945313 552.94820312 175.796875 552.6015625 C168.86087944 549.77998063 162.24403858 546.62170542 155.62304688 543.13085938 C152.06414791 541.30569616 150.0000267 540.43359375 145.92578125 540.43359375 Z M166.92578125 540.43359375 C166.92578125 541.09359375 166.92578125 541.75359375 166.92578125 542.43359375 C167.90417969 542.81451172 167.90417969 542.81451172 168.90234375 543.203125 C176.4082895 546.15900629 176.4082895 546.15900629 179.98828125 548.05859375 C188.04441828 551.82955151 196.16605508 551.67729556 204.92578125 551.43359375 C204.43078125 550.44359375 204.43078125 550.44359375 203.92578125 549.43359375 C200.6342581 548.50550446 197.34293363 547.75114593 194.00390625 547.02148438 C189.78080149 546.04722032 186.58728781 544.85280344 182.92578125 542.43359375 C177.47013297 540.4401838 172.64603133 540.20011416 166.92578125 540.43359375 Z M290.92578125 554.43359375 C290.26578125 555.75359375 289.60578125 557.07359375 288.92578125 558.43359375 C291.40078125 558.92859375 291.40078125 558.92859375 293.92578125 559.43359375 C293.59578125 557.78359375 293.26578125 556.13359375 292.92578125 554.43359375 C292.26578125 554.43359375 291.60578125 554.43359375 290.92578125 554.43359375 Z M170.92578125 563.43359375 C174.56876762 567.51815423 177.71023462 569.72505261 182.92578125 571.43359375 C186.71830912 571.68556618 186.71830912 571.68556618 189.92578125 571.43359375 C187.29648516 568.23148672 184.24882165 567.1797339 180.42578125 565.74609375 C179.28109375 565.30910156 178.13640625 564.87210938 176.95703125 564.421875 C173.98178971 563.27860752 173.98178971 563.27860752 170.92578125 563.43359375 Z M304.92578125 570.43359375 C304.92578125 571.09359375 304.92578125 571.75359375 304.92578125 572.43359375 C307.40078125 572.92859375 307.40078125 572.92859375 309.92578125 573.43359375 C309.26578125 572.44359375 308.60578125 571.45359375 307.92578125 570.43359375 C306.93578125 570.43359375 305.94578125 570.43359375 304.92578125 570.43359375 Z M168.92578125 581.43359375 C170.98160459 586.5731521 174.51729103 588.15112455 179.2890625 590.359375 C184.24661516 592.37911868 188.62694103 594.04425443 193.92578125 592.43359375 C182.2299172 584.62149579 182.2299172 584.62149579 168.92578125 581.43359375 Z M192.92578125 582.43359375 C192.59578125 583.09359375 192.26578125 583.75359375 191.92578125 584.43359375 C194.89578125 584.92859375 194.89578125 584.92859375 197.92578125 585.43359375 C197.59578125 584.44359375 197.26578125 583.45359375 196.92578125 582.43359375 C195.60578125 582.43359375 194.28578125 582.43359375 192.92578125 582.43359375 Z M156.92578125 586.43359375 C156.26578125 587.09359375 155.60578125 587.75359375 154.92578125 588.43359375 C157.28016858 589.8630432 158.40610558 590.52020636 161.17578125 590.05859375 C161.75328125 589.85234375 162.33078125 589.64609375 162.92578125 589.43359375 C162.92578125 588.77359375 162.92578125 588.11359375 162.92578125 587.43359375 C160.02504944 586.75558341 160.02504944 586.75558341 156.92578125 586.43359375 Z M540.92578125 601.43359375 C540.59578125 602.75359375 540.26578125 604.07359375 539.92578125 605.43359375 C540.91578125 605.76359375 541.90578125 606.09359375 542.92578125 606.43359375 C542.92578125 604.78359375 542.92578125 603.13359375 542.92578125 601.43359375 C542.26578125 601.43359375 541.60578125 601.43359375 540.92578125 601.43359375 Z M149.92578125 608.43359375 C149.92578125 609.09359375 149.92578125 609.75359375 149.92578125 610.43359375 C153.35808573 610.16965874 153.35808573 610.16965874 156.92578125 609.43359375 C157.58578125 608.44359375 158.24578125 607.45359375 158.92578125 606.43359375 C155.13020244 606.43359375 153.29675508 606.93538316 149.92578125 608.43359375 Z M186.92578125 607.43359375 C189.30361963 609.81143213 190.6465179 610.02368583 193.92578125 610.43359375 C194.58578125 610.10359375 195.24578125 609.77359375 195.92578125 609.43359375 C195.92578125 608.77359375 195.92578125 608.11359375 195.92578125 607.43359375 C192.95578125 607.43359375 189.98578125 607.43359375 186.92578125 607.43359375 Z M205.92578125 611.43359375 C205.92578125 612.42359375 205.92578125 613.41359375 205.92578125 614.43359375 C209.43354909 616.03714476 212.06933004 616.65396239 215.92578125 616.43359375 C215.57791417 614.4582263 215.57791417 614.4582263 214.92578125 612.43359375 C211.96913606 610.95527115 209.18348388 611.37326592 205.92578125 611.43359375 Z M250.92578125 617.43359375 C250.92578125 618.09359375 250.92578125 618.75359375 250.92578125 619.43359375 C253.76661766 620.85401196 255.78055403 620.74811647 258.92578125 620.43359375 C261.30297818 618.55857444 261.30297818 618.55857444 262.92578125 616.43359375 C261.48838612 616.40647309 260.05084262 616.38714308 258.61328125 616.37109375 C257.81277344 616.35949219 257.01226562 616.34789062 256.1875 616.3359375 C253.75716791 616.3370152 253.75716791 616.3370152 250.92578125 617.43359375 Z M503.92578125 620.43359375 C504.91578125 621.42359375 505.90578125 622.41359375 506.92578125 623.43359375 C507.91578125 622.77359375 508.90578125 622.11359375 509.92578125 621.43359375 C509.92578125 620.44359375 509.92578125 619.45359375 509.92578125 618.43359375 C507.46299324 618.43359375 506.07354006 619.28812238 503.92578125 620.43359375 Z M147.92578125 622.43359375 C149.41078125 623.42359375 149.41078125 623.42359375 150.92578125 624.43359375 C150.92578125 623.77359375 150.92578125 623.11359375 150.92578125 622.43359375 C149.93578125 622.43359375 148.94578125 622.43359375 147.92578125 622.43359375 Z M394.92578125 625.43359375 C394.26578125 626.09359375 393.60578125 626.75359375 392.92578125 627.43359375 C394.24578125 627.10359375 395.56578125 626.77359375 396.92578125 626.43359375 C396.26578125 626.10359375 395.60578125 625.77359375 394.92578125 625.43359375 Z M164.92578125 628.43359375 C164.59578125 629.42359375 164.26578125 630.41359375 163.92578125 631.43359375 C164.91578125 631.43359375 165.90578125 631.43359375 166.92578125 631.43359375 C166.59578125 630.44359375 166.26578125 629.45359375 165.92578125 628.43359375 C165.59578125 628.43359375 165.26578125 628.43359375 164.92578125 628.43359375 Z M246.92578125 628.43359375 C246.92578125 628.76359375 246.92578125 629.09359375 246.92578125 629.43359375 C249.89578125 629.43359375 252.86578125 629.43359375 255.92578125 629.43359375 C255.92578125 629.10359375 255.92578125 628.77359375 255.92578125 628.43359375 C252.95578125 628.43359375 249.98578125 628.43359375 246.92578125 628.43359375 Z M152.92578125 632.43359375 C156.68205198 636.83857976 161.5144053 639.31916904 166.48828125 642.12109375 C167.41487549 642.64711182 168.34146973 643.17312988 169.29614258 643.71508789 C177.65450232 648.39841264 186.22434588 652.52635633 194.93017578 656.515625 C197.65326278 657.76823169 200.35701543 659.05668887 203.05078125 660.37109375 C203.79585938 660.73074219 204.5409375 661.09039063 205.30859375 661.4609375 C206.92578125 662.43359375 206.92578125 662.43359375 207.92578125 664.43359375 C194.16330288 659.49675281 180.80325721 654.37391381 167.92578125 647.43359375 C165.3373836 646.0409758 162.74829087 644.64983888 160.15551758 643.26538086 C158.44623847 642.35042229 156.74145052 641.42701318 155.04174805 640.49438477 C154.27386963 640.08115967 153.50599121 639.66793457 152.71484375 639.2421875 C152.03115723 638.86892334 151.3474707 638.49565918 150.64306641 638.11108398 C150.0763623 637.88751221 149.5096582 637.66394043 148.92578125 637.43359375 C147.93578125 637.92859375 147.93578125 637.92859375 146.92578125 638.43359375 C149.91870124 640.44436104 152.91949187 642.4428704 155.92578125 644.43359375 C156.55661621 644.8522168 157.18745117 645.27083984 157.83740234 645.70214844 C181.84736737 661.2978045 210.82332002 671.57818801 237.92578125 680.43359375 C238.73998535 680.70816406 239.55418945 680.98273437 240.39306641 681.265625 C260.8472659 688.0350605 282.68351647 690.34051297 303.92578125 693.43359375 C304.88504517 693.57385986 305.84430908 693.71412598 306.8326416 693.85864258 C320.51325153 695.85463656 334.20782689 697.71323163 347.92578125 699.43359375 C348.65569275 699.52660767 349.38560425 699.61962158 350.13763428 699.7154541 C381.70045808 703.72416177 417.63234403 706.5103254 448.92578125 699.43359375 C449.25578125 698.77359375 449.58578125 698.11359375 449.92578125 697.43359375 C441.79149038 695.03532137 434.51364467 694.04713523 426.0546875 694.28125 C423.82877853 694.30944177 421.60286697 694.33743035 419.37695312 694.36523438 C415.93008932 694.42727155 412.48348495 694.49619723 409.03686523 694.57055664 C386.42530217 695.0201772 386.42530217 695.0201772 376.56079102 691.27270508 C372.10212724 689.85285634 368.15559556 690.58891838 363.61328125 691.24609375 C355.93343386 692.2247 348.49730542 692.57976484 340.765625 692.2109375 C339.73853424 692.16426941 338.71144348 692.11760132 337.65322876 692.06951904 C327.00656393 691.50616713 316.49275514 690.18845327 305.94921875 688.64208984 C302.76940004 688.17902381 299.58645774 687.74492856 296.40234375 687.3125 C285.31595269 685.75452305 275.28280833 683.79699329 264.92578125 679.43359375 C262.65808198 678.54682081 260.3898389 677.66143744 258.12109375 676.77734375 C255.76303856 675.83262661 253.40631454 674.88458149 251.05078125 673.93359375 C249.75482983 673.41130649 248.45884924 672.88909159 247.1628418 672.36694336 C245.13908507 671.55130569 243.11552274 670.73520076 241.09251404 669.91770935 C237.01266724 668.26995692 232.92691768 666.6381388 228.8354187 665.01954651 C186.44047469 648.23700199 186.44047469 648.23700199 168.16308594 636.71606445 C163.27349805 633.91324853 158.54395283 632.43359375 152.92578125 632.43359375 Z M184.92578125 635.43359375 C185.25578125 636.42359375 185.58578125 637.41359375 185.92578125 638.43359375 C187.94086483 639.16683171 187.94086483 639.16683171 189.92578125 639.43359375 C190.58578125 638.11359375 191.24578125 636.79359375 191.92578125 635.43359375 C188.34250372 634.43142311 188.34250372 634.43142311 184.92578125 635.43359375 Z M352.92578125 648.43359375 C347.75622836 652.95265787 347.75622836 652.95265787 345.74609375 659.1796875 C345.80539062 659.92347656 345.8646875 660.66726563 345.92578125 661.43359375 C349.96098722 659.84396716 353.94389407 658.15127057 357.92578125 656.43359375 C358.25578125 658.41359375 358.58578125 660.39359375 358.92578125 662.43359375 C363.77892484 662.43359375 365.04784651 661.35261894 368.5 658.2109375 C370.23522069 656.34768369 370.23522069 656.34768369 370.48828125 652.93359375 C369.94833451 649.57392517 369.16161512 646.60041805 367.92578125 643.43359375 C361.59047572 641.55103855 357.92220899 644.69403137 352.92578125 648.43359375 Z M342.80078125 648.43359375 C342.18203125 649.09359375 341.56328125 649.75359375 340.92578125 650.43359375 C344.65192278 649.31504789 344.65192278 649.31504789 346.92578125 646.43359375 C344.68215552 646.20513885 344.68215552 646.20513885 342.80078125 648.43359375 Z M483.92578125 654.43359375 C484.25578125 655.42359375 484.58578125 656.41359375 484.92578125 657.43359375 C485.77696533 657.4586499 486.62814941 657.48370605 487.50512695 657.50952148 C490.71647751 657.60565926 493.92771781 657.70481841 497.13891602 657.8059082 C498.51876276 657.84875261 499.89864558 657.89045348 501.27856445 657.9309082 C508.65887845 658.14805511 515.97587174 658.48396791 523.32299805 659.21313477 C527.93792143 659.60402453 532.54658294 659.65780434 537.17578125 659.68359375 C538.11679687 659.70421875 539.0578125 659.72484375 540.02734375 659.74609375 C545.77308329 659.77828277 549.87216637 659.24722798 554.92578125 656.43359375 C555.25578125 655.77359375 555.58578125 655.11359375 555.92578125 654.43359375 C552.65138698 652.79639661 548.99386912 652.69406991 545.39453125 652.2421875 C544.53001343 652.13262222 543.66549561 652.02305695 542.77478027 651.91017151 C540.93231173 651.67864334 539.08956846 651.44929279 537.24658203 651.22192383 C534.49105109 650.87921152 531.73783711 650.52100823 528.984375 650.16210938 C520.35857145 649.07084049 511.78197175 648.1969269 503.08203125 648.09375 C502.37357056 648.0778331 501.66510986 648.0619162 500.93518066 648.04551697 C494.34374128 648.07583995 488.43565391 649.47733905 483.92578125 654.43359375 Z M329.92578125 649.43359375 C330.92578125 651.43359375 330.92578125 651.43359375 330.92578125 651.43359375 Z M373.92578125 656.43359375 C374.24619522 659.03639943 374.24619522 659.03639943 374.92578125 661.43359375 C378.26381288 660.8212479 380.31708291 659.62761443 382.98828125 657.55859375 C383.65988281 657.04554688 384.33148438 656.5325 385.0234375 656.00390625 C386.78190555 654.55235768 388.42192124 653.14827526 389.92578125 651.43359375 C389.92578125 650.77359375 389.92578125 650.11359375 389.92578125 649.43359375 C383.29220644 648.6043969 378.47871277 651.88066223 373.92578125 656.43359375 Z M609.92578125 650.43359375 C609.59578125 651.75359375 609.26578125 653.07359375 608.92578125 654.43359375 C609.91578125 654.43359375 610.90578125 654.43359375 611.92578125 654.43359375 C611.92578125 653.11359375 611.92578125 651.79359375 611.92578125 650.43359375 C611.26578125 650.43359375 610.60578125 650.43359375 609.92578125 650.43359375 Z M572.92578125 652.43359375 C571.89970785 653.74696771 570.898508 655.0802348 569.92578125 656.43359375 C571.24578125 656.76359375 572.56578125 657.09359375 573.92578125 657.43359375 C573.92578125 655.78359375 573.92578125 654.13359375 573.92578125 652.43359375 C573.59578125 652.43359375 573.26578125 652.43359375 572.92578125 652.43359375 Z M624.92578125 656.43359375 C630.31282264 658.71475134 634.84720032 658.56218565 640.55078125 658.18359375 C641.43290283 658.13130615 642.31502441 658.07901855 643.22387695 658.02514648 C653.1903841 657.45203151 653.1903841 657.45203151 662.92578125 655.43359375 C663.25578125 654.77359375 663.58578125 654.11359375 663.92578125 653.43359375 C659.63412927 653.404236 655.34250361 653.38667573 651.05078125 653.37109375 C649.24480469 653.35852539 649.24480469 653.35852539 647.40234375 653.34570312 C635.36791637 652.41639279 635.36791637 652.41639279 624.92578125 656.43359375 Z M221.92578125 656.43359375 C221.26578125 657.09359375 220.60578125 657.75359375 219.92578125 658.43359375 C222.70692181 660.76750578 222.70692181 660.76750578 225.61328125 660.05859375 C226.37640625 659.85234375 227.13953125 659.64609375 227.92578125 659.43359375 C227.92578125 658.77359375 227.92578125 658.11359375 227.92578125 657.43359375 C225.02504944 656.75558341 225.02504944 656.75558341 221.92578125 656.43359375 Z M397.92578125 661.43359375 C397.03919659 664.02482118 397.03919659 664.02482118 396.92578125 666.43359375 C401.96013698 664.15459724 401.96013698 664.15459724 405.92578125 660.43359375 C405.92578125 659.77359375 405.92578125 659.11359375 405.92578125 658.43359375 C402.2573587 658.43359375 400.82126166 659.22388501 397.92578125 661.43359375 Z M306.92578125 660.43359375 C306.26578125 662.08359375 305.60578125 663.73359375 304.92578125 665.43359375 C306.24578125 664.77359375 307.56578125 664.11359375 308.92578125 663.43359375 C308.92578125 662.44359375 308.92578125 661.45359375 308.92578125 660.43359375 C308.26578125 660.43359375 307.60578125 660.43359375 306.92578125 660.43359375 Z M385.92578125 660.43359375 C382.09853168 662.54248637 379.42717637 664.22968743 377.92578125 668.43359375 C380.40078125 668.92859375 380.40078125 668.92859375 382.92578125 669.43359375 C384.90578125 666.79359375 386.88578125 664.15359375 388.92578125 661.43359375 C387.93578125 661.10359375 386.94578125 660.77359375 385.92578125 660.43359375 Z M318.92578125 663.43359375 C319.92578125 665.43359375 319.92578125 665.43359375 319.92578125 665.43359375 Z M244.92578125 665.43359375 C259.56154076 677.66093714 284.51895704 681.08268376 302.92578125 681.43359375 C302.92578125 680.77359375 302.92578125 680.11359375 302.92578125 679.43359375 C295.32559678 675.58102182 288.17417245 673.33611063 279.80078125 671.87109375 C277.60500487 671.46211816 275.4096917 671.05064798 273.21484375 670.63671875 C272.14911133 670.43755859 271.08337891 670.23839844 269.98535156 670.03320312 C264.99666104 669.05552806 260.0649333 667.8588012 255.14013672 666.60131836 C251.65658447 665.73606638 248.51735274 665.24853186 244.92578125 665.43359375 Z M414.92578125 669.43359375 C415.91578125 669.76359375 416.90578125 670.09359375 417.92578125 670.43359375 C419.57578125 668.78359375 421.22578125 667.13359375 422.92578125 665.43359375 C419.64419641 665.43359375 417.54697017 667.61015798 414.92578125 669.43359375 Z M402.92578125 670.43359375 C403.25578125 671.42359375 403.58578125 672.41359375 403.92578125 673.43359375 C406.79275617 672.1483981 408.90185837 670.86230121 410.92578125 668.43359375 C410.92578125 667.77359375 410.92578125 667.11359375 410.92578125 666.43359375 C407.01739259 666.43359375 405.80984018 667.93927251 402.92578125 670.43359375 Z M430.953125 667.359375 C430.26347656 667.81699219 429.57382812 668.27460937 428.86328125 668.74609375 C428.17105469 669.19597656 427.47882812 669.64585937 426.765625 670.109375 C424.81032417 671.44182335 424.81032417 671.44182335 422.92578125 673.43359375 C422.92578125 674.42359375 422.92578125 675.41359375 422.92578125 676.43359375 C428.33067644 674.91346698 431.91070753 671.15974157 435.92578125 667.43359375 C433.05835308 666.09483137 433.05835308 666.09483137 430.953125 667.359375 Z M462.92578125 696.43359375 C462.59578125 697.42359375 462.26578125 698.41359375 461.92578125 699.43359375 C464.34197948 699.68390352 464.34197948 699.68390352 466.92578125 699.43359375 C467.58578125 698.44359375 468.24578125 697.45359375 468.92578125 696.43359375 C466.94578125 696.43359375 464.96578125 696.43359375 462.92578125 696.43359375 Z " fill="#0C0C0C" transform="translate(118.07421875,3.56640625)"/>
<path d="M0 0 C1.87004174 2.8050626 2.96169124 5.25399884 4.1875 8.375 C6.97824578 15.20982051 10.39842571 21.5649105 14 28 C14 25.00806634 13.60462433 23.73096173 12.43359375 21.05859375 C12.11326172 20.31029297 11.79292969 19.56199219 11.46289062 18.79101562 C10.77724283 17.21729068 10.08973082 15.64437669 9.40039062 14.07226562 C9.08134766 13.32525391 8.76230469 12.57824219 8.43359375 11.80859375 C8.13509521 11.12595459 7.83659668 10.44331543 7.52905273 9.73999023 C7 8 7 8 8 6 C15.31560925 6.84410876 20.63675433 14.7181763 25 20 C25.45697266 20.54462891 25.91394531 21.08925781 26.38476562 21.65039062 C27.91690578 23.48458695 29.42894037 25.33387819 30.9375 27.1875 C31.68326294 28.07876587 31.68326294 28.07876587 32.4440918 28.98803711 C34.58983015 31.66673828 35.94231193 33.46656339 36.31640625 36.92578125 C36.21199219 37.61027344 36.10757813 38.29476562 36 39 C34.68 39.66 33.36 40.32 32 41 C32.45822468 44.46941546 32.89131683 47.67395049 34 51 C31 50 31 50 29.0625 47.875 C27.20988034 45.75459133 27.20988034 45.75459133 24.9375 46.0625 C22.91154127 46.89694063 22.91154127 46.89694063 21.5 48.625 C21.005 49.07875 20.51 49.5325 20 50 C16.08669541 49.47397535 14.10767349 47.64148103 11.64453125 44.5859375 C3.95501865 32.49458989 -1.74908189 15.360448 -1 1 C-0.67 0.67 -0.34 0.34 0 0 Z " fill="#1E1E1E" transform="translate(181,322)"/>
<path d="M0 0 C4.5929708 3.52127761 5.11941917 7.57747597 6 13 C6.804375 12.979375 7.60875 12.95875 8.4375 12.9375 C11 13 11 13 12 14 C12.20352902 17.8255917 12.34713381 21.64470782 12.4296875 25.47460938 C12.460625 26.27576172 12.4915625 27.07691406 12.5234375 27.90234375 C12.54325684 28.63960693 12.56307617 29.37687012 12.58349609 30.13647461 C12.86627433 32.40992226 12.86627433 32.40992226 16 34 C15.64259735 39.54590313 15.19421263 44.26783315 12 49 C9.89453125 49.65625 9.89453125 49.65625 8 50 C0.24936721 39.17959411 -4.17617119 32.09665767 -4.25 18.6875 C-4.270625 17.76259766 -4.29125 16.83769531 -4.3125 15.88476562 C-4.34526183 10.12277841 -3.72596725 6.10086295 -1 1 C-0.67 0.67 -0.34 0.34 0 0 Z " fill="#151515" transform="translate(245,318)"/>
<path d="M0 0 C3.875 0.875 3.875 0.875 5 2 C5.45970726 7.48441457 5.1725937 12.59093286 3.4375 17.8203125 C2.75591472 21.21606772 2.94246956 24.54098235 3 28 C3.16604736 27.45996338 3.33209473 26.91992676 3.50317383 26.36352539 C4.26043028 23.92575323 5.0361714 21.49426216 5.8125 19.0625 C6.07353516 18.21236328 6.33457031 17.36222656 6.60351562 16.48632812 C6.86455078 15.67744141 7.12558594 14.86855469 7.39453125 14.03515625 C7.63018799 13.2862915 7.86584473 12.53742676 8.10864258 11.76586914 C9 10 9 10 12 9 C12.63216782 19.95757555 9.68917475 32.22928942 2.5 40.78515625 C1 42 1 42 -1.5 41.875 C-4.180323 40.93688695 -5.32171194 40.26568888 -7 38 C-10.18205626 28.01187896 -8.01691244 15.48277018 -3.6875 6.1796875 C-2.52246123 4.06805473 -1.31930246 2.01806345 0 0 Z " fill="#212121" transform="translate(262,214)"/>
<path d="M0 0 C4.65211726 1.63452769 4.65211726 1.63452769 6.390625 3.4609375 C8.29369105 5.28085989 9.97753373 5.9040133 12.4375 6.8125 C16.86972699 8.73265046 19.01698952 10.43045411 21 15 C21.63480536 19.74042967 21.67444085 23.8902759 19 28 C15.875 29.1875 15.875 29.1875 12 29 C8.86177732 27.13525899 6.50645785 24.63133475 4 22 C2.66582031 20.64261719 2.66582031 20.64261719 1.3046875 19.2578125 C-6.4981687 11.05480983 -6.4981687 11.05480983 -7 6 C-1.73829306 7.41167747 1.72171358 9.74850232 6 13 C5.39786904 9.85784533 4.38706131 7.89665479 2.4375 5.375 C0 2.21246459 0 2.21246459 0 0 Z " fill="#222222" transform="translate(132,296)"/>
<path d="M0 0 C12.93255932 1.1667239 26.54531583 11.43587764 35 21 C35 21.99 35 22.98 35 24 C28.97352675 23.57954838 23.86317853 21.57277609 18.2890625 19.3046875 C15.10246742 17.98841949 15.10246742 17.98841949 12.1484375 17.1328125 C5.74031534 15.1000245 3.15822275 12.26359602 -0.13671875 6.4375 C-1.08551512 3.75854554 -0.99861829 2.61456425 0 0 Z " fill="#202020" transform="translate(149,279)"/>
<path d="M0 0 C0.66 0 1.32 0 2 0 C2.98073419 1.64159815 3.90822627 3.31507477 4.8125 5 C8.63994146 11.31405947 12.9488933 13.89446196 19.3046875 17.24609375 C22 19 22 19 22.8828125 21.22265625 C22.92148438 21.80917969 22.96015625 22.39570313 23 23 C22.01 23.66 21.02 24.32 20 25 C20.433125 25.48210937 20.86625 25.96421875 21.3125 26.4609375 C21.869375 27.09257812 22.42625 27.72421875 23 28.375 C23.556875 29.00148438 24.11375 29.62796875 24.6875 30.2734375 C26 32 26 32 26 34 C19.9374781 33.08842515 15.21492802 30.07266374 10 27 C8.948125 26.38125 7.89625 25.7625 6.8125 25.125 C4.54684042 22.46870946 4.90004235 20.99944413 5.15625 17.63671875 C4.79667501 11.56889087 2.06720271 5.67004172 0 0 Z " fill="#262626" transform="translate(161,245)"/>
<path d="M0 0 C5.33037772 2.66518886 9.66992512 7.07369089 13 12 C13.69921875 14.75390625 13.69921875 14.75390625 14 17 C13.01 17.66 12.02 18.32 11 19 C7.65243647 17.83860041 4.6698722 16.34871512 1.53125 14.71484375 C-2.99505102 12.37670934 -6.82582536 10.40848747 -12 10 C-11.69393785 6.6333163 -11.2999963 4.43845613 -9.375 1.625 C-6.01761295 -0.67215956 -3.99651304 -0.55124318 0 0 Z " fill="#1E1E1E" transform="translate(123,179)"/>
<path d="M0 0 C-0.2421875 1.890625 -0.2421875 1.890625 -1 4 C-5.86491687 6.79784919 -11.48220897 7.45043192 -17 7 C-17.66 6.67 -18.32 6.34 -19 6 C-25.71791839 5.46683187 -30.33699136 6.5729963 -36.51953125 9.22265625 C-39.19776231 10.0619759 -40.40773607 9.96076915 -43 9 C-42 6 -42 6 -38.6875 4 C-27.58138613 -1.08378452 -11.92972924 -3.97657641 0 0 Z " fill="#2B2B2B" transform="translate(196,154)"/>
<path d="M0 0 C3.75201497 1.25067166 5.32289365 3.12211067 8 6 C8.598125 6.598125 9.19625 7.19625 9.8125 7.8125 C11.71745688 11.32163109 11.38320675 14.04019692 11 18 C7.59558729 20.26960847 6.88753927 20.16765738 3 19.6875 C2.13375 19.58824219 1.2675 19.48898438 0.375 19.38671875 C-2 19 -2 19 -5 18 C-6.3685156 14.78758969 -5.85258316 12.21390904 -5.125 8.875 C-4.94195312 8.00617188 -4.75890625 7.13734375 -4.5703125 6.2421875 C-4 4 -4 4 -3 2 C-2.01 2 -1.02 2 0 2 C0 1.34 0 0.68 0 0 Z " fill="#191919" transform="translate(233,134)"/>
<path d="M0 0 C9.92846442 0.22564692 18.41140334 7.0747011 25.57421875 13.421875 C27 15 27 15 28 18 C26.16489032 19.83510968 23.64853236 19.23478884 21.203125 19.328125 C15.72771108 18.51263782 11.75500923 14.23125072 7.8125 10.625 C7.27947266 10.15578125 6.74644531 9.6865625 6.19726562 9.203125 C3.09725515 6.3799708 1.1970661 4.03918008 0 0 Z " fill="#292929" transform="translate(135,288)"/>
<path d="M0 0 C4.26765448 0.46556231 5.88249932 2.77294436 8.5 6 C12.85750295 11.52763965 16.66571962 16.90506539 17.25 24.0625 C17.1675 24.701875 17.085 25.34125 17 26 C11.83310752 25.06364176 9.17551468 22.01548954 6 18 C2.36588943 12.05182777 -0.43265947 7.10194696 0 0 Z " fill="#2D2D2D" transform="translate(355,521)"/>
<path d="M0 0 C2.37753649 1.46124454 4.00696783 3.00696783 6 5 C5.67 6.32 5.34 7.64 5 9 C1.11632567 10.29455811 -2.96854084 10.70909064 -7 10 C-10.0625 7.8125 -10.0625 7.8125 -12 5 C-11.9375 2.25 -11.9375 2.25 -11 0 C-7.48915202 -1.75542399 -3.71516887 -0.93968258 0 0 Z " fill="#2C2C2C" transform="translate(139,170)"/>
<path d="M0 0 C11.762329 -0.90479454 23.36174919 4.55955644 33 11 C33.495 12.485 33.495 12.485 34 14 C26.73785966 13.36850954 20.438696 10.7909875 14 7.4375 C10.44969318 5.73631132 6.88460026 4.80061711 3.07421875 3.84375 C2.38972656 3.5653125 1.70523438 3.286875 1 3 C0.67 2.01 0.34 1.02 0 0 Z " fill="#404040" transform="translate(156,276)"/>
<path d="M0 0 C1.875 0.125 1.875 0.125 4 1 C7.21880588 4.93409608 7.87464409 9.05326279 8 14 C7.5625 17.5 7.5625 17.5 7 20 C2.15056032 15.81944855 0.13497011 10.87580156 -0.75 4.625 C-0.8325 3.42875 -0.915 2.2325 -1 1 C-0.67 0.67 -0.34 0.34 0 0 Z " fill="#313131" transform="translate(297,421)"/>
<path d="M0 0 C0.33 1.32 0.66 2.64 1 4 C-0.41225926 4.67595315 -1.83002905 5.34040059 -3.25 6 C-4.43335938 6.556875 -4.43335938 6.556875 -5.640625 7.125 C-8 8 -8 8 -12 8 C-12 9.98 -12 11.96 -12 14 C-13.32 14 -14.64 14 -16 14 C-15.61104749 8.55466487 -13.7851047 5.87313039 -10 2 C-6.73791081 -0.31503104 -3.93241958 -0.17874634 0 0 Z " fill="#3C3C3C" transform="translate(265,139)"/>
<path d="M0 0 C1.9375 0.125 1.9375 0.125 4 1 C5.68644932 3.89105597 6.06919665 5.48102512 5.625 8.8125 C5.41875 9.534375 5.2125 10.25625 5 11 C2.32388302 10.63088042 1.1568531 10.15144437 -0.8125 8.25 C-2 6 -2 6 -1.75 3.3125 C-1 1 -1 1 0 0 Z " fill="#373737" transform="translate(176,342)"/>
<path d="M0 0 C0.66 0 1.32 0 2 0 C2.33050781 6.83049471 1.62376027 12.63316889 -1 19 C-1.66 19.66 -2.32 20.32 -3 21 C-3.2635606 14.11813996 -2.84472171 7.66523539 -1 1 C-0.67 0.67 -0.34 0.34 0 0 Z " fill="#464646" transform="translate(277,319)"/>
<path d="M0 0 C3.63396553 1.00943487 4.93391767 1.91605758 7.3125 4.9375 C9 8 9 8 9 11 C6.6875 11.25 6.6875 11.25 4 11 C0.57390217 7.94098408 0.42400674 4.40967012 0 0 Z " fill="#454545" transform="translate(334,491)"/>
<path d="M0 0 C1.9375 0.5625 1.9375 0.5625 4 2 C4.75 5.625 4.75 5.625 5 9 C3.25 9.75 3.25 9.75 1 10 C-1.3125 8.3125 -1.3125 8.3125 -3 6 C-2.82246387 2.98188578 -2.16264785 2.16264785 0 0 Z " fill="#383838" transform="translate(184,249)"/>
<path d="M0 0 C0.66 0.33 1.32 0.66 2 1 C-1.96 4.96 -5.92 8.92 -10 13 C-9.67 13.66 -9.34 14.32 -9 15 C-10.97746603 15.73080266 -12.98072489 16.39421747 -15 17 C-15.66 16.67 -16.32 16.34 -17 16 C-15.10730953 14.08014172 -13.21100983 12.16408963 -11.3125 10.25 C-10.51682617 9.44175781 -10.51682617 9.44175781 -9.70507812 8.6171875 C-6.62068501 5.51387173 -3.48423727 2.66327598 0 0 Z " fill="#5E5E5E" transform="translate(635,608)"/>
<path d="M0 0 C2.22189555 4.22058698 3.81081007 8.66660483 5.48828125 13.125 C7.19288866 16.36683734 9.02021132 17.92363134 12 20 C11.01 20 10.02 20 9 20 C8.67 20.66 8.34 21.32 8 22 C3.6281447 16.53518088 0.61818183 10.86151127 -1 4 C-0.6015625 1.66796875 -0.6015625 1.66796875 0 0 Z " fill="#7E7E7E" transform="translate(62,344)"/>
<path d="M0 0 C0.66 0.33 1.32 0.66 2 1 C2.05429959 2.74965358 2.09292823 4.49979787 2.125 6.25 C2.14820313 7.22453125 2.17140625 8.1990625 2.1953125 9.203125 C1.99862781 12.0196498 1.44568916 13.60949036 0 16 C-2.38825352 12.35570204 -1.94295451 9.9306564 -1.125 5.75 C-0.92132813 4.67234375 -0.71765625 3.5946875 -0.5078125 2.484375 C-0.34023438 1.66453125 -0.17265625 0.8446875 0 0 Z " fill="#5A5A5A" transform="translate(270,316)"/>
<path d="M0 0 C1.75 0.125 1.75 0.125 4 1 C8 6.22222222 8 6.22222222 8 9 C5.6875 8.875 5.6875 8.875 3 8 C0 3.13793103 0 3.13793103 0 0 Z " fill="#535353" transform="translate(165,314)"/>
<path d="M0 0 C0.66 0.33 1.32 0.66 2 1 C3.1577506 4.47325181 3.06866652 7.36067448 3 11 C1.68 10.34 0.36 9.68 -1 9 C-1.09765625 2.84765625 -1.09765625 2.84765625 -1 1 C-0.67 0.67 -0.34 0.34 0 0 Z " fill="#464646" transform="translate(160,334)"/>
<path d="M0 0 C0.66 0.33 1.32 0.66 2 1 C-2.62 5.62 -7.24 10.24 -12 15 C-12 10.09687565 -8.29800369 7.38658643 -5 4 C-3.37458956 2.61667196 -1.72614587 1.25537882 0 0 Z " fill="#575757" transform="translate(22,161)"/>
<path d="M0 0 C2 2 2 2 2.125 5.625 C2.08375 6.73875 2.0425 7.8525 2 9 C0.68 9 -0.64 9 -2 9 C-2.25 3.375 -2.25 3.375 0 0 Z " fill="#4D4D4D" transform="translate(313,461)"/>
<path d="M0 0 C2.20914 3.31371 2.22481553 4.3446021 2.125 8.1875 C2.10695312 9.08855469 2.08890625 9.98960937 2.0703125 10.91796875 C2.03550781 11.94857422 2.03550781 11.94857422 2 13 C1.34 13 0.68 13 0 13 C-0.98248196 8.94726192 -1.16017882 5.16464926 -1 1 C-0.67 0.67 -0.34 0.34 0 0 Z " fill="#606060" transform="translate(226,316)"/>
<path d="M0 0 C3.07692057 2.76922851 4.77800007 5.02850024 6 9 C6 9.99 6 10.98 6 12 C5.34 12 4.68 12 4 12 C3.32645501 10.56570999 2.66140299 9.12742943 2 7.6875 C1.62875 6.88699219 1.2575 6.08648437 0.875 5.26171875 C0 3 0 3 0 0 Z " fill="#6E6E6E" transform="translate(249,277)"/>
<path d="M0 0 C0.33 0 0.66 0 1 0 C1 2.97 1 5.94 1 9 C-0.32 9 -1.64 9 -3 9 C-2.5020163 5.26512223 -2.12508244 3.18762365 0 0 Z " fill="#595959" transform="translate(252,144)"/>
<path d="M0 0 C0.66 0.33 1.32 0.66 2 1 C-1.63 4.63 -5.26 8.26 -9 12 C-9.33 11.34 -9.66 10.68 -10 10 C-3.84965831 2.51708428 -3.84965831 2.51708428 0 0 Z " fill="#555555" transform="translate(80,68)"/>
<path d="M0 0 C1.32 0.33 2.64 0.66 4 1 C4.33 2.65 4.66 4.3 5 6 C3.68 5.67 2.36 5.34 1 5 C0.67 3.35 0.34 1.7 0 0 Z " fill="#626262" transform="translate(207,410)"/>
<path d="M0 0 C-0.66 1.32 -1.32 2.64 -2 4 C-3.65 4 -5.3 4 -7 4 C-7.33 3.34 -7.66 2.68 -8 2 C-4.77208445 -0.1519437 -3.71599191 -0.20086443 0 0 Z " fill="#4B4B4B" transform="translate(120,171)"/>
<path d="M0 0 C3.465 1.98 3.465 1.98 7 4 C7 4.66 7 5.32 7 6 C2.545 5.01 2.545 5.01 -2 4 C-1.34 2.68 -0.68 1.36 0 0 Z " fill="#737373" transform="translate(319,662)"/>
<path d="M0 0 C0.66 0 1.32 0 2 0 C2 2.97 2 5.94 2 9 C1.34 7.68 0.68 6.36 0 5 C-0.66 5.99 -1.32 6.98 -2 8 C-1.125 1.125 -1.125 1.125 0 0 Z " fill="#767676" transform="translate(277,319)"/>
<path d="M0 0 C0.66 0 1.32 0 2 0 C6.08529742 5.01907969 6.08529742 5.01907969 5.75 8.875 C5.5025 9.57625 5.255 10.2775 5 11 C3.33167423 8.49751135 2.37618326 6.58850813 1.375 3.8125 C1.11460937 3.09707031 0.85421875 2.38164062 0.5859375 1.64453125 C0.39257812 1.10183594 0.19921875 0.55914062 0 0 Z " fill="#8B8B8B" transform="translate(161,245)"/>
<path d="M0 0 C0 1.65 0 3.3 0 5 C-1.32 5 -2.64 5 -4 5 C-4.33 4.01 -4.66 3.02 -5 2 C-2 0 -2 0 0 0 Z " fill="#626262" transform="translate(161,315)"/>
<path d="M0 0 C-0.33 1.65 -0.66 3.3 -1 5 C-1.99 5 -2.98 5 -4 5 C-4 3.68 -4 2.36 -4 1 C-2 0 -2 0 0 0 Z " fill="#696969" transform="translate(152,163)"/>
<path d="M0 0 C0.99 0.33 1.98 0.66 3 1 C0.69 3.31 -1.62 5.62 -4 8 C-4 4.09161134 -2.49432124 2.88405893 0 0 Z " fill="#535353" transform="translate(85,4)"/>
<path d="M0 0 C0.66 0 1.32 0 2 0 C2.66 1.98 3.32 3.96 4 6 C2.0625 5.6875 2.0625 5.6875 0 5 C-0.33 4.01 -0.66 3.02 -1 2 C-0.67 1.34 -0.34 0.68 0 0 Z " fill="#9B9B9B" transform="translate(136,510)"/>
<path d="M0 0 C0.66 0.33 1.32 0.66 2 1 C-0.31 3.31 -2.62 5.62 -5 8 C-5.33 7.34 -5.66 6.68 -6 6 C-4 4 -2 2 0 0 Z " fill="#5B5B5B" transform="translate(36,191)"/>
<path d="M0 0 C2.31 0 4.62 0 7 0 C7 0.66 7 1.32 7 2 C6.01 2 5.02 2 4 2 C4 2.66 4 3.32 4 4 C2.35 3.67 0.7 3.34 -1 3 C-0.67 2.01 -0.34 1.02 0 0 Z " fill="#616161" transform="translate(339,663)"/>
<path d="M0 0 C2.62187494 1.04874998 3.79371361 1.64931313 5.25 4.125 C5.4975 4.74375 5.745 5.3625 6 6 C3.5625 5.25 3.5625 5.25 1 4 C0.1875 1.875 0.1875 1.875 0 0 Z " fill="#838383" transform="translate(236,413)"/>
<path d="M0 0 C0.66 0 1.32 0 2 0 C1.690625 0.495 1.38125 0.99 1.0625 1.5 C-0.41644382 4.97986781 -0.62402851 8.24028509 -1 12 C-1.33 12 -1.66 12 -2 12 C-2.05422947 10.5629191 -2.09289723 9.12524538 -2.125 7.6875 C-2.14820312 6.88699219 -2.17140625 6.08648437 -2.1953125 5.26171875 C-2 3 -2 3 0 0 Z " fill="#636363" transform="translate(125,332)"/>
<path d="M0 0 C0.66 0.33 1.32 0.66 2 1 C-0.31 3.31 -2.62 5.62 -5 8 C-5 5 -5 5 -2.5 2.3125 C-1.675 1.549375 -0.85 0.78625 0 0 Z " fill="#4C4C4C" transform="translate(40,125)"/>
<path d="M0 0 C0.33 0 0.66 0 1 0 C1 2.97 1 5.94 1 9 C0.34 8.67 -0.32 8.34 -1 8 C-1.04241723 5.66705225 -1.04092937 3.33297433 -1 1 C-0.67 0.67 -0.34 0.34 0 0 Z " fill="#575757" transform="translate(288,376)"/>
<path d="M0 0 C1.25541557 3.76624671 0.37061958 5.37188934 -1 9 C-1.33 9 -1.66 9 -2 9 C-2.25 3.375 -2.25 3.375 0 0 Z " fill="#8B8B8B" transform="translate(284,358)"/>
<path d="M0 0 C0.66 0 1.32 0 2 0 C2.33 2.31 2.66 4.62 3 7 C1.5 5.75 1.5 5.75 0 4 C0 2.68 0 1.36 0 0 Z " fill="#939393" transform="translate(245,266)"/>
<path d="M0 0 C2 2 2 2 2.125 5.125 C2.08375 6.07375 2.0425 7.0225 2 8 C1.34 7.67 0.68 7.34 0 7 C0 4.69 0 2.38 0 0 Z " fill="#6D6D6D" transform="translate(348,510)"/>
<path d="M0 0 C0.33 0 0.66 0 1 0 C1 1.65 1 3.3 1 5 C0.01 5.495 0.01 5.495 -1 6 C-1.042721 4.33388095 -1.04063832 2.66617115 -1 1 C-0.67 0.67 -0.34 0.34 0 0 Z " fill="#C2C2C2" transform="translate(281,373)"/>
<path d="M0 0 C0.99 0 1.98 0 3 0 C3 0.99 3 1.98 3 3 C2.01 2.67 1.02 2.34 0 2 C0 1.34 0 0.68 0 0 Z " fill="#797979" transform="translate(154,237)"/>
<path d="M0 0 C1.32 0 2.64 0 4 0 C4 0.66 4 1.32 4 2 C2.68 1.67 1.36 1.34 0 1 C0 0.67 0 0.34 0 0 Z " fill="#636363" transform="translate(471,609)"/>
<path d="M0 0 C0.99 1.485 0.99 1.485 2 3 C1.67 3.66 1.34 4.32 1 5 C0.67 3.35 0.34 1.7 0 0 Z " fill="#CCCCCC" transform="translate(256,294)"/>
<path d="M0 0 C0.33 0.99 0.66 1.98 1 3 C0.01 3.495 0.01 3.495 -1 4 C-0.67 2.68 -0.34 1.36 0 0 Z " fill="#979797" transform="translate(268,186)"/>
</svg>
