<?xml version="1.0" encoding="UTF-8"?>
<svg version="1.1" xmlns="http://www.w3.org/2000/svg" width="556" height="448">
<path d="M0 0 C0.80953125 0.58265625 1.6190625 1.1653125 2.453125 1.765625 C3.19046875 2.29671875 3.9278125 2.8278125 4.6875 3.375 C5.65236328 4.06722656 5.65236328 4.06722656 6.63671875 4.7734375 C7.08660156 5.17820313 7.53648437 5.58296875 8 6 C8 6.66 8 7.32 8 8 C8.56203125 8.2371875 9.1240625 8.474375 9.703125 8.71875 C12.51894042 10.28947697 14.47955416 12.21471464 16.75 14.5 C17.54921875 15.2940625 18.3484375 16.088125 19.171875 16.90625 C21 19 21 19 21 21 C21.99 21.33 22.98 21.66 24 22 C27 25.44444444 27 25.44444444 27 28 C27.66 28 28.32 28 29 28 C30.81214772 30.46500902 32.48469563 32.92305243 34.125 35.5 C34.86097412 36.64891724 34.86097412 36.64891724 35.61181641 37.82104492 C42.84862988 49.31335012 50.78897506 62.85893033 53.69921875 76.20703125 C55.84865365 85.79419326 60.555399 89.88247239 68.078125 95.63671875 C69.52445312 96.80654297 69.52445312 96.80654297 71 98 C71 98.66 71 99.32 71 100 C71.99 100.33 72.98 100.66 74 101 C74 101.66 74 102.32 74 103 C74.66 103 75.32 103 76 103 C77.63429751 105.0944968 79.14167234 107.17782091 80.625 109.375 C81.25535156 110.27992188 81.25535156 110.27992188 81.8984375 111.203125 C85 115.73462865 85 115.73462865 85 118 C85.66 118 86.32 118 87 118 C92.19490678 128.47462158 97.06668815 138.64156469 100 150 C100.21140625 150.74378906 100.4228125 151.48757812 100.640625 152.25390625 C104.77114875 167.33031793 104.6678264 185.89352857 101 201 C100.58041016 202.79630859 100.58041016 202.79630859 100.15234375 204.62890625 C97.07068802 216.99295819 92.38292815 227.99784753 86 239 C85.53078125 239.81339844 85.0615625 240.62679688 84.578125 241.46484375 C82.10733639 245.59978116 82.10733639 245.59978116 81 247 C80.34 247 79.68 247 79 247 C78.76925781 247.54398437 78.53851563 248.08796875 78.30078125 248.6484375 C73.89337215 256.61618608 66.13346553 263.22426056 59 268.75 C58.44852295 269.18006348 57.8970459 269.61012695 57.32885742 270.05322266 C53.38987249 273 53.38987249 273 50 273 C50 273.66 50 274.32 50 275 C26.84376711 288.83486795 1.96880252 292.32768131 -24.56665039 292.25878906 C-26.3559839 292.26150763 -28.14531629 292.26507337 -29.93464661 292.26940918 C-34.74037462 292.27843191 -39.54601559 292.27503142 -44.35174489 292.26865101 C-49.41308252 292.26353882 -54.47441338 292.26829674 -59.53575134 292.27142334 C-68.02946288 292.27504759 -76.52313948 292.27030421 -85.0168457 292.26074219 C-94.79794363 292.24985712 -104.57895816 292.25338986 -114.36005408 292.264395 C-122.80134859 292.2735078 -131.24261818 292.27473382 -139.68391603 292.26951766 C-144.70658415 292.26642027 -149.72921322 292.26592663 -154.75187874 292.27259064 C-159.475758 292.27842207 -164.19953103 292.27426263 -168.92339897 292.26280212 C-170.64373983 292.26018639 -172.36408982 292.26086685 -174.08442688 292.26532745 C-188.27057862 292.29868333 -202.36153977 291.67355948 -216 287.375 C-216.83539307 287.11630127 -217.67078613 286.85760254 -218.53149414 286.59106445 C-234.81572986 281.32823991 -249.07061522 272.58930876 -261.75 261.125 C-262.26401367 260.66053467 -262.77802734 260.19606934 -263.30761719 259.7175293 C-265.68801804 257.49068955 -266.95130491 256.14608527 -268 253 C-268.99 252.67 -269.98 252.34 -271 252 C-272.1875 249.4375 -272.1875 249.4375 -273 247 C-273.66 247 -274.32 247 -275 247 C-282.7796599 236.13651094 -289.02758226 223.73800068 -293 211 C-293.37382812 209.8965625 -293.74765625 208.793125 -294.1328125 207.65625 C-299.92501626 188.69836211 -299.52698849 163.66880871 -293 145 C-292.78569336 144.37464355 -292.57138672 143.74928711 -292.35058594 143.10498047 C-287.34703766 128.77531346 -280.20082301 114.36481733 -270 103 C-269.34 103 -268.68 103 -268 103 C-267.67 102.01 -267.34 101.02 -267 100 C-266.34 100 -265.68 100 -265 100 C-264.62875 99.071875 -264.62875 99.071875 -264.25 98.125 C-262.79371361 95.64931313 -261.62187494 95.04874998 -259 94 C-259 93.34 -259 92.68 -259 92 C-257.31480498 91.058363 -255.62671303 90.1219099 -253.9375 89.1875 C-246.3942987 83.94216337 -244.92101854 76.62069562 -242.53515625 68.09375 C-241.40152471 64.06639455 -239.92965701 60.53016487 -237.96264648 56.84521484 C-237.06035406 55.11568754 -236.30504185 53.31170494 -235.5625 51.5078125 C-230.02076441 39.06661611 -221.18180156 27.95759681 -212 18 C-211.51869629 17.46955078 -211.03739258 16.93910156 -210.54150391 16.39257812 C-201.75428374 6.80233325 -191.78552525 -0.77491384 -181 -8 C-180.28021973 -8.48984375 -179.56043945 -8.9796875 -178.81884766 -9.484375 C-178.12194824 -9.94328125 -177.42504883 -10.4021875 -176.70703125 -10.875 C-175.78047729 -11.48988281 -175.78047729 -11.48988281 -174.83520508 -12.1171875 C-173 -13 -173 -13 -169 -13 C-169 -13.66 -169 -14.32 -169 -15 C-150.65904863 -22.97285352 -132.97709712 -29.04101442 -113 -31 C-111.41251953 -31.16628906 -111.41251953 -31.16628906 -109.79296875 -31.3359375 C-71.10056937 -35.01146709 -30.81735153 -23.75095245 0 0 Z M-152 59 C-153.09634766 59.76570313 -153.09634766 59.76570313 -154.21484375 60.546875 C-154.80394531 61.02640625 -155.39304687 61.5059375 -156 62 C-156 62.66 -156 63.32 -156 64 C-157.32 64.66 -158.64 65.32 -160 66 C-159.505 66.99 -159.505 66.99 -159 68 C-157.15030395 68.58161354 -157.15030395 68.58161354 -154.9375 68.9375 C-150.38633179 69.86777023 -146.29300319 71.24960151 -142 73 C-141.07058594 73.3609375 -140.14117187 73.721875 -139.18359375 74.09375 C-133.06555394 76.53158962 -127.50430883 79.30224821 -121.9609375 82.86328125 C-120.08938047 84.16717058 -120.08938047 84.16717058 -118 84 C-118 84.66 -118 85.32 -118 86 C-116.39928901 87.24765698 -114.74152892 88.42241864 -113.0625 89.5625 C-106.32120244 94.33794821 -99.48177702 99.94297968 -95 107 C-95.3125 110.25 -95.3125 110.25 -96 113 C-96.99 113.33 -97.98 113.66 -99 114 C-99 114.66 -99 115.32 -99 116 C-100.485 116.495 -100.485 116.495 -102 117 C-102 117.66 -102 118.32 -102 119 C-102.66 119 -103.32 119 -104 119 C-104 119.66 -104 120.32 -104 121 C-105.485 121.495 -105.485 121.495 -107 122 C-107 122.66 -107 123.32 -107 124 C-108.485 124.495 -108.485 124.495 -110 125 C-110 125.66 -110 126.32 -110 127 C-110.66 127 -111.32 127 -112 127 C-112.86625 128.0828125 -112.86625 128.0828125 -113.75 129.1875 C-115.55757862 131.44697327 -117.03007704 132.92831576 -119.25 134.6875 C-120.1575 135.450625 -121.065 136.21375 -122 137 C-122 137.66 -122 138.32 -122 139 C-123.485 139.495 -123.485 139.495 -125 140 C-125 140.66 -125 141.32 -125 142 C-125.66 142 -126.32 142 -127 142 C-129.16666667 143.83333333 -129.16666667 143.83333333 -131 146 C-131 146.66 -131 147.32 -131 148 C-131.66 148 -132.32 148 -133 148 C-134.36176922 149.64351457 -135.68962066 151.31522656 -137 153 C-141.50549451 157.83516484 -141.50549451 157.83516484 -145 159 C-145.4125 158.27554688 -145.825 157.55109375 -146.25 156.8046875 C-152.47668077 146.38055675 -159.58039973 141.13014362 -171 137 C-175.49782919 136.02088072 -179.84060982 135.83602554 -184.4375 135.8125 C-185.69433594 135.79832031 -186.95117188 135.78414063 -188.24609375 135.76953125 C-193.91369657 136.11749022 -198.81149181 137.75915007 -203.9375 140.125 C-204.70964844 140.47820312 -205.48179687 140.83140625 -206.27734375 141.1953125 C-207.13005859 141.59363281 -207.13005859 141.59363281 -208 142 C-208 142.66 -208 143.32 -208 144 C-208.59554687 144.25652344 -209.19109375 144.51304687 -209.8046875 144.77734375 C-212.19696371 146.10969687 -213.42728199 147.43368605 -215.125 149.5625 C-217.80555556 152.90277778 -217.80555556 152.90277778 -220 154 C-221.32849167 156.36058711 -221.32849167 156.36058711 -222.5625 159.1875 C-223.21412109 160.60095703 -223.21412109 160.60095703 -223.87890625 162.04296875 C-228.2550523 173.58562575 -226.74285231 186.96310625 -221.875 198.0625 C-221.25839861 199.37896647 -220.63648972 200.69303325 -220 202 C-219.34 202 -218.68 202 -218 202 C-217.731875 202.58910156 -217.46375 203.17820312 -217.1875 203.78515625 C-213.24962406 211.12981303 -206.40800978 214.82003439 -199 218 C-198.21882813 218.35449219 -197.43765625 218.70898438 -196.6328125 219.07421875 C-191.03299918 221.04329257 -185.27601554 221.12617369 -179.39201355 221.13371277 C-178.29106644 221.1371111 -178.29106644 221.1371111 -177.16787797 221.14057809 C-174.72542772 221.14687326 -172.2830336 221.14609163 -169.84057617 221.14526367 C-168.08239165 221.14825796 -166.32420779 221.15166111 -164.56602478 221.15544128 C-159.80145347 221.16425798 -155.03690014 221.16661842 -150.27232146 221.16725707 C-147.29237352 221.16796889 -144.31243011 221.17010572 -141.33248329 221.17275429 C-130.92730037 221.18199998 -120.52213025 221.18609014 -110.11694336 221.18530273 C-100.43250623 221.18470214 -90.74812484 221.19525238 -81.06370181 221.2110464 C-72.73650673 221.22414086 -64.40932982 221.22948583 -56.08212453 221.22884732 C-51.11426635 221.2285929 -46.14645773 221.23141344 -41.17860985 221.24202538 C-36.50413652 221.25173846 -31.8297598 221.25176358 -27.15528297 221.24450874 C-25.44532759 221.24346689 -23.73536608 221.24580194 -22.02542114 221.2518692 C-4.82738887 221.30891157 7.87729752 219.50409451 20.8046875 207.265625 C30.23572124 197.53252968 32.28821527 187.34307134 32.15234375 174.1484375 C31.6017543 162.76958889 25.96708724 152.95376436 18 145 C8.45438519 138.28427985 -1.50041134 135.62334219 -13 135 C-12.855625 134.24976563 -12.71125 133.49953125 -12.5625 132.7265625 C-9.50206687 115.85167424 -11.51295918 100.4762612 -19 85 C-19.433125 84.04996094 -19.86625 83.09992188 -20.3125 82.12109375 C-22.36617057 78.32275397 -24.8234058 75.06341656 -27.5 71.6875 C-27.98597656 71.05521484 -28.47195313 70.42292969 -28.97265625 69.77148438 C-31.84945271 66.04231386 -31.84945271 66.04231386 -36 64 C-36.33 63.01 -36.66 62.02 -37 61 C-38.38662704 59.68087108 -38.38662704 59.68087108 -40.140625 58.51171875 C-40.79224609 58.05547119 -41.44386719 57.59922363 -42.11523438 57.12915039 C-42.81970703 56.65340576 -43.52417969 56.17766113 -44.25 55.6875 C-44.97509766 55.19693115 -45.70019531 54.7063623 -46.44726562 54.20092773 C-79.01202922 32.61855203 -121.49099617 34.36627997 -152 59 Z " fill="#4386F4" transform="translate(375,94)"/>
<path d="M0 0 C1.39129091 1.00631024 2.78648868 2.00726743 4.1875 3 C5.115625 3.66 6.04375 4.32 7 5 C6.48947175 9.06599283 4.56816699 10.55872452 1.5 13.125 C-2.14405178 16.28110183 -5.45036303 19.49684346 -8.625 23.125 C-11.32807042 26.21422334 -14.03702996 28.99462653 -17.1875 31.625 C-19.84381123 33.85859765 -21.88031369 36.03662284 -23.875 38.875 C-26.96216531 43.24990553 -30.77542203 46.55017189 -34.828125 50.01953125 C-37.17229837 51.99729817 -37.17229837 51.99729817 -39 55 C-39.66 55 -40.32 55 -41 55 C-41 55.66 -41 56.32 -41 57 C-45.01138783 56.33964869 -48.14306241 54.2530415 -51.5625 52.1875 C-57.52058017 48.69736908 -63.36248644 45.99028791 -70 44 C-70.89589844 43.71382813 -71.79179687 43.42765625 -72.71484375 43.1328125 C-94.42763987 36.87809757 -118.10288494 40.05240068 -138 50.4375 C-142.97608119 53.27570927 -147.59303054 56.34356246 -152 60 C-152.67289063 60.55171875 -153.34578125 61.1034375 -154.0390625 61.671875 C-156.56942544 63.78018761 -156.56942544 63.78018761 -159 66 C-159 66.33 -159 66.66 -159 67 C-158.1646875 67.16435547 -158.1646875 67.16435547 -157.3125 67.33203125 C-151.96623714 68.44282573 -147.04989007 69.94263738 -142 72 C-141.09378906 72.34933594 -140.18757812 72.69867188 -139.25390625 73.05859375 C-131.82400203 76.00543483 -124.55763853 79.38407359 -118 84 C-118 84.66 -118 85.32 -118 86 C-116.96166016 86.31904297 -116.96166016 86.31904297 -115.90234375 86.64453125 C-112.13496522 88.40399336 -109.55169329 90.83833002 -106.5625 93.6875 C-105.99063965 94.22697266 -105.4187793 94.76644531 -104.82958984 95.32226562 C-96.97070784 102.80605952 -96.97070784 102.80605952 -94 107 C-94.61374294 111.97707164 -98.30786892 115.81134134 -102 119 C-102.66 119 -103.32 119 -104 119 C-104 119.66 -104 120.32 -104 121 C-105.65002828 122.35386936 -107.3174387 123.68678142 -109 125 C-109.33 125.66 -109.66 126.32 -110 127 C-110.66 127 -111.32 127 -112 127 C-112.226875 127.556875 -112.45375 128.11375 -112.6875 128.6875 C-114.95600449 132.68438886 -117.61899946 135.53966649 -122 137 C-122 137.66 -122 138.32 -122 139 C-123.375 140.625 -123.375 140.625 -125 142 C-125.66 142 -126.32 142 -127 142 C-127.33 142.99 -127.66 143.98 -128 145 C-129.4375 146.6875 -129.4375 146.6875 -131 148 C-131.66 148 -132.32 148 -133 148 C-133.33 148.99 -133.66 149.98 -134 151 C-134.66 151 -135.32 151 -136 151 C-136.33 151.99 -136.66 152.98 -137 154 C-137.66 154 -138.32 154 -139 154 C-139.2475 154.61875 -139.495 155.2375 -139.75 155.875 C-141.22047178 158.37480203 -142.41403076 158.83316022 -145 160 C-146.17232685 158.3790787 -147.3377077 156.75313167 -148.5 155.125 C-149.1496875 154.22007812 -149.799375 153.31515625 -150.46875 152.3828125 C-152 150 -152 150 -152 148 C-152.58136719 147.72027344 -153.16273438 147.44054687 -153.76171875 147.15234375 C-155.87710447 146.06327082 -157.82249501 144.86350123 -159.8125 143.5625 C-167.79570023 138.5415262 -174.97365935 136.86093317 -184.4375 136.8125 C-185.69433594 136.79832031 -186.95117188 136.78414062 -188.24609375 136.76953125 C-193.41263545 137.08672788 -197.63303609 138.31651804 -202.25 140.625 C-205 142 -205 142 -208 142 C-208 142.66 -208 143.32 -208 144 C-209.6796875 145.62109375 -209.6796875 145.62109375 -211.875 147.4375 C-214.46193722 149.58400884 -216.11184374 151.16776562 -218 154 C-218.66 154 -219.32 154 -220 154 C-220.103125 154.515625 -220.20625 155.03125 -220.3125 155.5625 C-221 158 -221 158 -222.5 161.375 C-226.4779764 170.98844296 -226.28229672 183.15310983 -223 193 C-222.02995879 195.01470098 -221.03755118 197.01922047 -220 199 C-220 199.99 -220 200.98 -220 202 C-219.34 202 -218.68 202 -218 202 C-216.44921875 203.609375 -216.44921875 203.609375 -214.6875 205.75 C-210.96089668 210.12605286 -207.31040149 213.63982156 -202 216 C-203.61594832 218.04119788 -205.2856382 220.04072937 -207 222 C-207.66 222 -208.32 222 -209 222 C-209.226875 222.556875 -209.45375 223.11375 -209.6875 223.6875 C-211.36990252 226.65173302 -213.56048093 228.61972639 -216 231 C-217.6887844 232.66536521 -219.37628742 234.33203083 -221.0625 236 C-222.31740234 237.2375 -222.31740234 237.2375 -223.59765625 238.5 C-226.05885396 240.96197171 -226.05885396 240.96197171 -228.12109375 243.8125 C-228.74113281 244.534375 -229.36117187 245.25625 -230 246 C-230.99 246 -231.98 246 -233 246 C-233.08765625 246.57621094 -233.1753125 247.15242188 -233.265625 247.74609375 C-234.91561826 252.81016882 -240.19798864 256.95231898 -244.6875 259.5625 C-248.1380481 261.7074353 -249.77132416 264.62514801 -252 268 C-255.60686535 266.43982103 -258.21200604 264.24234682 -261.125 261.625 C-261.99382812 260.85414063 -262.86265625 260.08328125 -263.7578125 259.2890625 C-265.81515429 257.18871008 -266.71930911 255.57271533 -268 253 C-268.99 252.67 -269.98 252.34 -271 252 C-272.1875 249.4375 -272.1875 249.4375 -273 247 C-273.66 247 -274.32 247 -275 247 C-282.7796599 236.13651094 -289.02758226 223.73800068 -293 211 C-293.37382812 209.8965625 -293.74765625 208.793125 -294.1328125 207.65625 C-299.92501626 188.69836211 -299.52698849 163.66880871 -293 145 C-292.78569336 144.37464355 -292.57138672 143.74928711 -292.35058594 143.10498047 C-287.34703766 128.77531346 -280.20082301 114.36481733 -270 103 C-269.34 103 -268.68 103 -268 103 C-267.67 102.01 -267.34 101.02 -267 100 C-266.34 100 -265.68 100 -265 100 C-264.62875 99.071875 -264.62875 99.071875 -264.25 98.125 C-262.79371361 95.64931313 -261.62187494 95.04874998 -259 94 C-259 93.34 -259 92.68 -259 92 C-257.31480498 91.058363 -255.62671303 90.1219099 -253.9375 89.1875 C-246.3942987 83.94216337 -244.92101854 76.62069562 -242.53515625 68.09375 C-241.40152471 64.06639455 -239.92965701 60.53016487 -237.96264648 56.84521484 C-237.06035406 55.11568754 -236.30504185 53.31170494 -235.5625 51.5078125 C-230.02076441 39.06661611 -221.18180156 27.95759681 -212 18 C-211.51869629 17.46955078 -211.03739258 16.93910156 -210.54150391 16.39257812 C-201.75428374 6.80233325 -191.78552525 -0.77491384 -181 -8 C-180.28021973 -8.48984375 -179.56043945 -8.9796875 -178.81884766 -9.484375 C-178.12194824 -9.94328125 -177.42504883 -10.4021875 -176.70703125 -10.875 C-175.78047729 -11.48988281 -175.78047729 -11.48988281 -174.83520508 -12.1171875 C-173 -13 -173 -13 -169 -13 C-169 -13.66 -169 -14.32 -169 -15 C-150.65904863 -22.97285352 -132.97709712 -29.04101442 -113 -31 C-111.41251953 -31.16628906 -111.41251953 -31.16628906 -109.79296875 -31.3359375 C-71.04071046 -35.01715331 -30.88836275 -23.70972525 0 0 Z " fill="#F9BC06" transform="translate(375,94)"/>
<path d="M0 0 C1.39129091 1.00631024 2.78648868 2.00726743 4.1875 3 C5.5796875 3.99 5.5796875 3.99 7 5 C6.48947175 9.06599283 4.56816699 10.55872452 1.5 13.125 C-2.14405178 16.28110183 -5.45036303 19.49684346 -8.625 23.125 C-11.32807042 26.21422334 -14.03702996 28.99462653 -17.1875 31.625 C-19.84381123 33.85859765 -21.88031369 36.03662284 -23.875 38.875 C-26.96216531 43.24990553 -30.77542203 46.55017189 -34.828125 50.01953125 C-37.17229837 51.99729817 -37.17229837 51.99729817 -39 55 C-39.66 55 -40.32 55 -41 55 C-41 55.66 -41 56.32 -41 57 C-45.01138783 56.33964869 -48.14306241 54.2530415 -51.5625 52.1875 C-57.52058017 48.69736908 -63.36248644 45.99028791 -70 44 C-70.89589844 43.71382813 -71.79179687 43.42765625 -72.71484375 43.1328125 C-94.42763987 36.87809757 -118.10288494 40.05240068 -138 50.4375 C-145.16795231 54.52588761 -151.39369215 59.34185282 -157.5546875 64.80078125 C-161.09735876 67.74024092 -164.83593674 67.07209674 -169.19921875 66.9921875 C-170.90168635 66.97463276 -172.60416076 66.95772832 -174.30664062 66.94140625 C-176.97651392 66.91079345 -179.64603828 66.87573179 -182.31567383 66.82861328 C-197.78592174 66.57007379 -211.37488716 67.89838813 -225.75 74.1875 C-227.4512331 74.91459888 -229.15428326 75.63746528 -230.859375 76.35546875 C-231.58608398 76.67153076 -232.31279297 76.98759277 -233.06152344 77.31323242 C-235 78 -235 78 -238 78 C-238 78.66 -238 79.32 -238 80 C-243.75 83 -243.75 83 -246 83 C-245.13697192 58.83521388 -227.72714108 35.21541416 -212 18 C-211.51724609 17.46665039 -211.03449219 16.93330078 -210.53710938 16.38378906 C-201.75147818 6.79789395 -191.78178561 -0.77741898 -181 -8 C-180.28021973 -8.48984375 -179.56043945 -8.9796875 -178.81884766 -9.484375 C-178.12194824 -9.94328125 -177.42504883 -10.4021875 -176.70703125 -10.875 C-175.78047729 -11.48988281 -175.78047729 -11.48988281 -174.83520508 -12.1171875 C-173 -13 -173 -13 -169 -13 C-169 -13.66 -169 -14.32 -169 -15 C-150.65904863 -22.97285352 -132.97709712 -29.04101442 -113 -31 C-111.41251953 -31.16628906 -111.41251953 -31.16628906 -109.79296875 -31.3359375 C-71.04071046 -35.01715331 -30.88836275 -23.70972525 0 0 Z " fill="#E94335" transform="translate(375,94)"/>
<path d="M0 0 C1.89735949 0.48237953 3.79461735 0.96520056 5.68998623 1.45534325 C11.18202043 2.78713344 16.33185009 3.24129406 21.97094727 3.25634766 C22.85008286 3.26639328 23.72921844 3.2764389 24.63499451 3.28678894 C27.50795912 3.31739913 30.38083153 3.33459384 33.25390625 3.3515625 C35.2588733 3.37029202 37.26383262 3.38986674 39.26878357 3.4102478 C44.52116315 3.46138658 49.77356823 3.50110961 55.02606201 3.53839111 C61.34137658 3.58561758 67.65656641 3.64713664 73.97177887 3.70623779 C83.54363505 3.79422728 93.11547003 3.86415111 102.6875 3.9375 C102.6875 27.0375 102.6875 50.1375 102.6875 73.9375 C96.74272268 74.59803081 91.13977328 75.08645595 85.20874023 75.08276367 C84.01637001 75.08780159 84.01637001 75.08780159 82.7999115 75.09294128 C80.19862254 75.10235896 77.59739865 75.10439007 74.99609375 75.10546875 C73.16398595 75.10868887 71.3318784 75.11205349 69.49977112 75.11555481 C65.66610113 75.12152404 61.8324536 75.1233971 57.9987793 75.12280273 C53.12979645 75.12270151 48.26096073 75.13632256 43.3920126 75.15357494 C39.60746117 75.16479634 35.8229441 75.16671882 32.03837776 75.16619301 C30.24576374 75.16735912 28.45314841 75.1717021 26.66055107 75.17952538 C12.10507988 75.23708007 -2.31034484 74.72411752 -16.3125 70.3125 C-17.14571777 70.05525146 -17.97893555 69.79800293 -18.83740234 69.53295898 C-31.04845806 65.59492262 -42.1364822 59.765206 -52.3125 51.9375 C-51.42738032 47.14310172 -48.70494204 44.29700571 -45.3125 40.9375 C-43.66428756 39.90736723 -41.99746298 38.90635372 -40.3125 37.9375 C-37.12660301 35.16143928 -34.66558403 32.99675208 -33.3125 28.9375 C-32.61125 28.545625 -31.91 28.15375 -31.1875 27.75 C-27.80027808 25.61457749 -25.76574643 23.10037674 -23.2109375 20.0546875 C-21.3066279 17.93095128 -19.31113391 16.14105067 -17.125 14.3125 C-13.8013697 11.50559533 -11.69484645 8.59043122 -9.3125 4.9375 C-6.52075252 1.73399036 -4.43880063 -0.08375096 0 0 Z " fill="#35A753" transform="translate(175.3125,311.0625)"/>
<path d="M0 0 C3.80076033 0.48520345 7.45555238 1.09279974 11.1736908 2.01913452 C15.91698802 3.0830848 20.43593926 3.30590721 25.28344727 3.31884766 C26.16258286 3.32889328 27.04171844 3.3389389 27.94749451 3.34928894 C30.82045912 3.37989913 33.69333153 3.39709384 36.56640625 3.4140625 C38.5713733 3.43279202 40.57633262 3.45236674 42.58128357 3.4727478 C47.83366315 3.52388658 53.08606823 3.56360961 58.33856201 3.60089111 C64.65387658 3.64811758 70.96906641 3.70963664 77.28427887 3.76873779 C86.85613505 3.85672728 96.42797003 3.92665111 106 4 C106 27.1 106 50.2 106 74 C100.40037024 74.62218108 95.47000681 75.12073691 89.9375 75.0625 C88.24947266 75.04896484 88.24947266 75.04896484 86.52734375 75.03515625 C85.27630859 75.01775391 85.27630859 75.01775391 84 75 C84 74.67 84 74.34 84 74 C91.17699961 73.04306672 97.61778574 73 105 73 C105 50.89 105 28.78 105 6 C95.44611328 5.90912109 95.44611328 5.90912109 85.69921875 5.81640625 C81.64778024 5.77587889 77.59634775 5.73508884 73.54492188 5.69335938 C67.12396389 5.62724866 60.70300655 5.56207471 54.28198242 5.50268555 C49.10128718 5.45470728 43.9206524 5.40235593 38.74003029 5.34705925 C36.77025688 5.3267862 34.80046699 5.30804989 32.83066368 5.29092598 C13.01641473 5.11674166 13.01641473 5.11674166 4 4 C3.67 3.01 3.34 2.02 3 1 C2.01 1.33 1.02 1.66 0 2 C0 1.34 0 0.68 0 0 Z " fill="#489B73" transform="translate(172,311)"/>
<path d="M0 0 C0.495 1.98 0.495 1.98 1 4 C1.78375 3.855625 2.5675 3.71125 3.375 3.5625 C7.90242749 2.85996815 12.43927072 2.42362505 17 2 C17 1.34 17 0.68 17 0 C19.31 0 21.62 0 24 0 C20.91243128 1.63116838 17.80117004 2.86411353 14.5 4 C13.5615625 4.33 12.623125 4.66 11.65625 5 C-1.22065381 8.52188822 -13.81189967 8.17843336 -27.046875 7.9765625 C-29.2717381 7.95035364 -31.49661251 7.92509008 -33.72149658 7.90072632 C-39.5412035 7.83448412 -45.36066863 7.75550511 -51.18017578 7.67376709 C-57.13304454 7.59244541 -63.08605394 7.52331616 -69.0390625 7.453125 C-80.69287679 7.31393721 -92.34647192 7.16127762 -104 7 C-104 6.67 -104 6.34 -104 6 C-71 5.67 -38 5.34 -4 5 C-3.67 4.01 -3.34 3.02 -3 2 C-2.01 2 -1.02 2 0 2 C0 1.34 0 0.68 0 0 Z " fill="#4784E4" transform="translate(383,377)"/>
<path d="M0 0 C2.68747323 0.02389851 5.37396858 0.02049599 8.06152344 0.01391602 C9.79330012 0.01948555 11.5250727 0.02659085 13.25683594 0.03540039 C14.04860229 0.03448898 14.84036865 0.03357758 15.65612793 0.03263855 C22.16007939 0.11509221 27.32268118 1.41597926 33.16308594 4.33618164 C34.92652344 4.83118164 34.92652344 4.83118164 36.72558594 5.33618164 C40.16308594 6.33618164 40.16308594 6.33618164 43.16308594 8.33618164 C41.84308594 8.66618164 40.52308594 8.99618164 39.16308594 9.33618164 C39.16308594 8.67618164 39.16308594 8.01618164 39.16308594 7.33618164 C34.54308594 7.33618164 29.92308594 7.33618164 25.16308594 7.33618164 C24.66808594 5.85118164 24.66808594 5.85118164 24.16308594 4.33618164 C10.92652069 1.64073563 -2.3974005 2.13912132 -15.83691406 2.33618164 C-15.83691406 2.99618164 -15.83691406 3.65618164 -15.83691406 4.33618164 C-17.01253906 4.25368164 -18.18816406 4.17118164 -19.39941406 4.08618164 C-24.71973944 4.04382236 -29.56806832 5.45010221 -34.60668945 7.0012207 C-38.01842398 8.01598847 -40.45690789 8.68988688 -43.83691406 7.33618164 C-29.28514051 1.37630765 -15.55281767 -0.14805362 0 0 Z " fill="#FCA51E" transform="translate(192.8369140625,159.663818359375)"/>
<path d="M0 0 C0.33 0 0.66 0 1 0 C5.38910823 16.09339684 5.88233531 34.76477961 2 51 C1.73574219 52.11632812 1.47148437 53.23265625 1.19921875 54.3828125 C0.49408502 57.26350099 -0.2377615 60.13398324 -1 63 C-1.66 62.67 -2.32 62.34 -3 62 C-2.84660156 61.43796875 -2.69320313 60.8759375 -2.53515625 60.296875 C-1.98639581 57.94161122 -1.68502401 55.65451896 -1.4375 53.25 C-1.35371094 52.45078125 -1.26992188 51.6515625 -1.18359375 50.828125 C-1.12300781 50.22484375 -1.06242187 49.6215625 -1 49 C-0.34 49 0.32 49 1 49 C1.02490464 44.58919646 1.04295604 40.17843129 1.05493164 35.76757812 C1.05992943 34.27017503 1.0667299 32.77277673 1.07543945 31.27539062 C1.08770623 29.11066495 1.09327397 26.94600435 1.09765625 24.78125 C1.10551147 22.8331543 1.10551147 22.8331543 1.11352539 20.84570312 C0.99462033 16.81776226 0.54134922 12.99033585 0 9 C-0.05915294 7.3342531 -0.08854052 5.66659344 -0.0625 4 C-0.05347656 3.236875 -0.04445313 2.47375 -0.03515625 1.6875 C-0.02355469 1.130625 -0.01195312 0.57375 0 0 Z " fill="#7FA7E2" transform="translate(474,244)"/>
<path d="M0 0 C-0.33 1.65 -0.66 3.3 -1 5 C0.98 5 2.96 5 5 5 C5 5.66 5 6.32 5 7 C8.63 7.66 12.26 8.32 16 9 C16.495 10.98 16.495 10.98 17 13 C13.33058649 12.00620051 9.8606193 10.94566515 6.3125 9.5625 C-8.0845098 4.16019346 -22.78190524 3.75454686 -38 4 C-38 3.67 -38 3.34 -38 3 C-31.13589217 1.77866219 -24.42504045 1.9690975 -17.47460938 2.12695312 C-16.12012695 2.14338867 -16.12012695 2.14338867 -14.73828125 2.16015625 C-13.51685425 2.18541382 -13.51685425 2.18541382 -12.27075195 2.21118164 C-7.75817394 1.79150849 -4.86276355 -0.22103471 0 0 Z " fill="#DC6258" transform="translate(303,130)"/>
<path d="M0 0 C0.66 1.32 1.32 2.64 2 4 C1.53335938 4.41765625 1.06671875 4.8353125 0.5859375 5.265625 C-1.47531379 7.51980129 -2.11816002 10.01617148 -3.11328125 12.859375 C-4.56957891 16.37501869 -6.60308273 19.04994798 -9 22 C-9.66 22 -10.32 22 -11 22 C-11 23.65 -11 25.3 -11 27 C-11.66 27 -12.32 27 -13 27 C-13 27.99 -13 28.98 -13 30 C-11.68 30 -10.36 30 -9 30 C-9 30.99 -9 31.98 -9 33 C-12.465 33.495 -12.465 33.495 -16 34 C-16.12117187 34.63808594 -16.24234375 35.27617187 -16.3671875 35.93359375 C-16.53476563 36.75988281 -16.70234375 37.58617187 -16.875 38.4375 C-17.03742188 39.26121094 -17.19984375 40.08492187 -17.3671875 40.93359375 C-17.57601562 41.61550781 -17.78484375 42.29742187 -18 43 C-18.99 43.495 -18.99 43.495 -20 44 C-16.11441804 27.95223062 -9.05485993 13.72581074 0 0 Z " fill="#DF6E64" transform="translate(149,129)"/>
<path d="M0 0 C0.495 0.99 0.495 0.99 1 2 C0.38125 2.268125 -0.2375 2.53625 -0.875 2.8125 C-3.2995233 3.95556848 -3.2995233 3.95556848 -5 7 C-8.97295498 8.23877209 -12.95100429 8.12086855 -17.08520508 8.11352539 C-17.77843872 8.11367142 -18.47167236 8.11381744 -19.18591309 8.1139679 C-21.46381829 8.11327451 -23.74164043 8.10550915 -26.01953125 8.09765625 C-27.60422216 8.09579003 -29.18891365 8.09436709 -30.77360535 8.09336853 C-34.9344951 8.08955943 -39.09534968 8.07974292 -43.25622559 8.06866455 C-47.50609868 8.05841582 -51.75597748 8.0538635 -56.00585938 8.04882812 C-64.33725569 8.03811916 -72.66862346 8.02106211 -81 8 C-81 7.67 -81 7.34 -81 7 C-59.88 6.67 -38.76 6.34 -17 6 C-17 5.67 -17 5.34 -17 5 C-16.35933594 4.89042969 -15.71867187 4.78085937 -15.05859375 4.66796875 C-9.6438309 3.67539672 -4.96677361 2.37541347 0 0 Z " fill="#4A87E8" transform="translate(385,309)"/>
<path d="M0 0 C1.32 0 2.64 0 4 0 C4 0.66 4 1.32 4 2 C3.34 2 2.68 2 2 2 C1.773125 2.556875 1.54625 3.11375 1.3125 3.6875 C-0.95600449 7.68438886 -3.61899946 10.53966649 -8 12 C-8 12.66 -8 13.32 -8 14 C-9.375 15.625 -9.375 15.625 -11 17 C-11.66 17 -12.32 17 -13 17 C-13.33 17.99 -13.66 18.98 -14 20 C-16.0625 21.6875 -16.0625 21.6875 -18 23 C-18 21.35 -18 19.7 -18 18 C-16.68 18 -15.36 18 -14 18 C-14.33 16.35 -14.66 14.7 -15 13 C-13.68 13.33 -12.36 13.66 -11 14 C-11 13.34 -11 12.68 -11 12 C-11.66 11.67 -12.32 11.34 -13 11 C-13.33 10.34 -13.66 9.68 -14 9 C-13.34 8.34 -12.68 7.68 -12 7 C-11.01 7.33 -10.02 7.66 -9 8 C-8.3503125 7.2575 -8.3503125 7.2575 -7.6875 6.5 C-6 5 -6 5 -3 5 C-2.67 4.01 -2.34 3.02 -2 2 C-1.34 2 -0.68 2 0 2 C0 1.34 0 0.68 0 0 Z " fill="#F6C435" transform="translate(261,219)"/>
<path d="M0 0 C0.66 0 1.32 0 2 0 C3.40912096 2.81824192 3.11183553 5.17251282 3.09765625 8.3203125 C3.09443359 9.57714844 3.09121094 10.83398438 3.08789062 12.12890625 C3.07951172 13.44761719 3.07113281 14.76632813 3.0625 16.125 C3.05748489 17.46484211 3.05292201 18.804686 3.04882812 20.14453125 C3.03701086 23.42973206 3.02053617 26.71484397 3 30 C3.93730957 29.98646484 4.87461914 29.97292969 5.84033203 29.95898438 C8.91676029 29.99891947 11.00799149 30.45745145 13.875 31.5 C14.65617187 31.7784375 15.43734375 32.056875 16.2421875 32.34375 C16.82226562 32.5603125 17.40234375 32.776875 18 33 C18 33.66 18 34.32 18 35 C12.06 34.01 6.12 33.02 0 32 C0.165 30.22625 0.33 28.4525 0.5 26.625 C1.24116849 17.60392061 1.07066877 8.98597001 0 0 Z " fill="#6B98E4" transform="translate(362,197)"/>
<path d="M0 0 C1.19044922 0.14308594 2.38089844 0.28617188 3.60742188 0.43359375 C6.509868 0.78328605 9.41146111 1.13885091 12.3125 1.5 C10.3125 3.5 10.3125 3.5 7.1875 3.625 C6.23875 3.58375 5.29 3.5425 4.3125 3.5 C4.3125 2.84 4.3125 2.18 4.3125 1.5 C-0.00675092 1.47490379 -4.32596094 1.45695678 -8.64526367 1.44506836 C-10.10848736 1.44010176 -11.57170625 1.43332622 -13.03491211 1.42456055 C-21.39732914 1.37579173 -29.6155963 1.5131994 -37.9465332 2.38110352 C-40.71770104 2.50131005 -43.00338035 2.16115394 -45.6875 1.5 C-45.6875 1.17 -45.6875 0.84 -45.6875 0.5 C-42.41755463 0.15756873 -39.14644101 -0.17219142 -35.875 -0.5 C-34.96556641 -0.59539063 -34.05613281 -0.69078125 -33.11914062 -0.7890625 C-21.85445405 -1.90358979 -11.22499227 -1.39918489 0 0 Z M-43.6875 3.5 C-41.6875 4.5 -41.6875 4.5 -41.6875 4.5 Z " fill="#DC7E78" transform="translate(298.6875,63.5)"/>
<path d="M0 0 C0.33 0 0.66 0 1 0 C1.05389087 1.95803507 1.09274217 3.91648909 1.125 5.875 C1.14820312 6.96554688 1.17140625 8.05609375 1.1953125 9.1796875 C1 12 1 12 -1 14 C-2.43504714 21.33769387 -2.09685917 29.10786024 -2.125 36.5625 C-2.13200928 37.88386963 -2.13200928 37.88386963 -2.13916016 39.23193359 C-2.13706543 40.06418457 -2.1349707 40.89643555 -2.1328125 41.75390625 C-2.13168457 42.49970947 -2.13055664 43.2455127 -2.12939453 44.01391602 C-2.07063301 46.21123807 -2.07063301 46.21123807 -1 49 C-0.96045766 51.33299825 -0.95598268 53.66708189 -1 56 C-6.14287678 50.85712322 -4.28525546 40.64753956 -4.3125 33.75 C-4.31644775 33.03223389 -4.32039551 32.31446777 -4.32446289 31.57495117 C-4.35270644 20.61768304 -3.52249078 10.44166911 0 0 Z " fill="#F4D56B" transform="translate(82,239)"/>
<path d="M0 0 C4.95 0.99 4.95 0.99 10 2 C10.33 4.31 10.66 6.62 11 9 C11.66 9 12.32 9 13 9 C13.268125 9.61875 13.53625 10.2375 13.8125 10.875 C14.95556848 13.2995233 14.95556848 13.2995233 18 15 C19.49470029 19.48410087 19.09166185 24.32524567 19 29 C18.67 29 18.34 29 18 29 C17.7525 27.845 17.505 26.69 17.25 25.5 C15.28675165 17.80948233 11.83657745 12.40748294 6.390625 6.6640625 C5 5 5 5 5 3 C2.525 2.01 2.525 2.01 0 1 C0 0.67 0 0.34 0 0 Z " fill="#6B9AE9" transform="translate(388,236)"/>
<path d="M0 0 C3.74687393 0.47832433 7.33070603 1.07059238 10.98803711 2.01318359 C16.72781267 3.30072618 22.39168498 3.35199405 28.25390625 3.4140625 C29.39536606 3.43342865 30.53682587 3.4527948 31.71287537 3.4727478 C35.32934285 3.53213598 38.94584286 3.57876535 42.5625 3.625 C45.02670596 3.6632173 47.4908991 3.70227117 49.95507812 3.7421875 C55.96993756 3.83780372 61.98487536 3.92296849 68 4 C68 4.33 68 4.66 68 5 C60.6534093 5.02550799 53.30683016 5.04293284 45.96020508 5.05493164 C43.46475803 5.05993771 40.96931388 5.06674455 38.47387695 5.07543945 C34.87190024 5.08766905 31.26996255 5.09326573 27.66796875 5.09765625 C26.01416451 5.10539818 26.01416451 5.10539818 24.32695007 5.11329651 C17.49610425 5.11378312 10.79034632 4.74561764 4 4 C3.67 3.01 3.34 2.02 3 1 C2.01 1.33 1.02 1.66 0 2 C0 1.34 0 0.68 0 0 Z " fill="#4F9960" transform="translate(172,311)"/>
<path d="M0 0 C0.33 1.32 0.66 2.64 1 4 C2.175625 3.7834375 2.175625 3.7834375 3.375 3.5625 C7.90242749 2.85996815 12.43927072 2.42362505 17 2 C17 1.34 17 0.68 17 0 C19.31 0 21.62 0 24 0 C11.85880343 6.41421705 -1.45764897 8.97270468 -15 7 C-15 6.67 -15 6.34 -15 6 C-9.555 5.505 -9.555 5.505 -4 5 C-3.67 4.01 -3.34 3.02 -3 2 C-2.01 2 -1.02 2 0 2 C0 1.34 0 0.68 0 0 Z " fill="#6395ED" transform="translate(383,377)"/>
<path d="M0 0 C0 3 0 3 -2.15234375 5.375 C-3.07144531 6.24125 -3.99054688 7.1075 -4.9375 8 C-8.78096644 11.4734167 -8.78096644 11.4734167 -11 16 C-15.31818182 20.77272727 -15.31818182 20.77272727 -19 22 C-18.67 23.98 -18.34 25.96 -18 28 C-18.66 28 -19.32 28 -20 28 C-20 27.01 -20 26.02 -20 25 C-21.65 25.66 -23.3 26.32 -25 27 C-23.64009955 23.86072732 -22.22394125 22.12472649 -19.5625 20 C-14.77712882 15.96699065 -10.68791895 11.41469024 -6.515625 6.76953125 C-4.40165384 4.44219343 -2.24601936 2.19878998 0 0 Z " fill="#6D75C2" transform="translate(378,104)"/>
<path d="M0 0 C1 2 1 2 1 6 C1.29142044 7.42587857 1.62500961 8.84378602 2 10.25 C2.33 11.4875 2.66 12.725 3 14 C4.32 14 5.64 14 7 14 C7 15.98 7 17.96 7 20 C2.81708722 16.49213943 -1.19020752 12.91864369 -5 9 C-5.66 8.34 -6.32 7.68 -7 7 C-6.34 7 -5.68 7 -5 7 C-5 6.34 -5 5.68 -5 5 C-3.37446717 3.29319053 -1.70884005 1.62339805 0 0 Z " fill="#6492E5" transform="translate(339,144)"/>
<path d="M0 0 C5.32366042 5.32366042 7.44576113 13.96464892 9.8125 21 C10.14084839 21.97005981 10.14084839 21.97005981 10.47583008 22.9597168 C11.39545212 25.77043436 12 28.02109465 12 31 C11.01 30.67 10.02 30.34 9 30 C8.0859375 27.75 8.0859375 27.75 7.375 25 C6.712884 21.71560993 6.712884 21.71560993 5 19 C4.95919217 17.00041636 4.95745644 14.99954746 5 13 C4.34 13 3.68 13 3 13 C2.49242138 11.58603098 1.99425075 10.16868271 1.5 8.75 C1.08234375 7.56664062 1.08234375 7.56664062 0.65625 6.359375 C0 4 0 4 0 0 Z " fill="#689CE3" transform="translate(418,146)"/>
<path d="M0 0 C0.33 0.99 0.66 1.98 1 3 C0.38125 3.2475 -0.2375 3.495 -0.875 3.75 C-3.38895216 5.22879539 -3.8534051 6.37921165 -5 9 C-5.66 9.66 -6.32 10.32 -7 11 C-8.32 11 -9.64 11 -11 11 C-11 11.99 -11 12.98 -11 14 C-11.61875 14.28875 -12.2375 14.5775 -12.875 14.875 C-15.13325765 15.93720042 -15.13325765 15.93720042 -17 18 C-17.66 17.34 -18.32 16.68 -19 16 C-18.34 16 -17.68 16 -17 16 C-16.7525 15.38125 -16.505 14.7625 -16.25 14.125 C-14.79371361 11.64931313 -13.62187494 11.04874998 -11 10 C-11 9.34 -11 8.68 -11 8 C-9.217871 6.55925285 -7.37339724 5.19489351 -5.5 3.875 C-4.4790625 3.15054688 -3.458125 2.42609375 -2.40625 1.6796875 C-1.6121875 1.12539062 -0.818125 0.57109375 0 0 Z " fill="#F3C338" transform="translate(127,178)"/>
<path d="M0 0 C3.75732602 2.07781457 6.62096351 4.37668619 9.625 7.4375 C10.38039063 8.19933594 11.13578125 8.96117187 11.9140625 9.74609375 C13.78135324 11.76374685 15.50095879 13.69564863 17 16 C16.6875 18.25 16.6875 18.25 16 20 C15.67 18.68 15.34 17.36 15 16 C14.21625 16.185625 13.4325 16.37125 12.625 16.5625 C10 17 10 17 8 16 C8.33 14.02 8.66 12.04 9 10 C7.68 9.34 6.36 8.68 5 8 C5 7.01 5 6.02 5 5 C3.68 4.67 2.36 4.34 1 4 C0.67 2.68 0.34 1.36 0 0 Z " fill="#F4C742" transform="translate(264,185)"/>
<path d="M0 0 C0.99 0 1.98 0 3 0 C2.97679687 1.24394531 2.95359375 2.48789062 2.9296875 3.76953125 C2.81461442 12.71916035 2.79876672 21.2540285 5 30 C4.34 30 3.68 30 3 30 C-0.02970109 23.32034406 -0.37373178 17.77736502 -0.1875 10.5 C-0.17396484 9.48679687 -0.16042969 8.47359375 -0.14648438 7.4296875 C-0.11143063 4.95255596 -0.06229764 2.47657073 0 0 Z " fill="#EEC542" transform="translate(147,259)"/>
<path d="M0 0 C4.35234661 0.50608682 7.59222909 1.16019091 11 4 C12.3125 7.6875 12.3125 7.6875 13 11 C14.98 11 16.96 11 19 11 C17.68 12.65 16.36 14.3 15 16 C11.37648747 14.79216249 10.84784764 13.70346858 8.8125 10.5625 C8.01779297 9.35787109 8.01779297 9.35787109 7.20703125 8.12890625 C6 6 6 6 6 4 C5.38125 3.71125 4.7625 3.4225 4.125 3.125 C2 2 2 2 0 0 Z " fill="#F0C93F" transform="translate(217,238)"/>
<path d="M0 0 C0.67095703 0.58007812 0.67095703 0.58007812 1.35546875 1.171875 C8.174308 7.32626967 8.174308 7.32626967 16 12 C14.35830472 14.02054804 12.69088222 16.02043058 11 18 C10.67 18 10.34 18 10 18 C10 16.02 10 14.04 10 12 C9.34 12 8.68 12 8 12 C8 11.01 8 10.02 8 9 C6.68 9.33 5.36 9.66 4 10 C3.566875 8.63875 3.566875 8.63875 3.125 7.25 C2.23158284 4.66901709 1.24772883 2.41157674 0 0 Z " fill="#F5D257" transform="translate(157,298)"/>
<path d="M0 0 C9.21409698 0.78085568 18.45872982 2.34623442 27 6 C26.67 6.66 26.34 7.32 26 8 C8.14350797 3.96127563 8.14350797 3.96127563 0 1 C0 0.67 0 0.34 0 0 Z " fill="#69B47C" transform="translate(149,377)"/>
<path d="M0 0 C0.33 0 0.66 0 1 0 C2.36875247 11.32196341 1.63703519 20.13572322 -2 31 C-2.66 30.67 -3.32 30.34 -4 30 C-3.84660156 29.43796875 -3.69320313 28.8759375 -3.53515625 28.296875 C-2.98639581 25.94161122 -2.68502401 23.65451896 -2.4375 21.25 C-2.35371094 20.45078125 -2.26992188 19.6515625 -2.18359375 18.828125 C-2.09271484 17.92320312 -2.09271484 17.92320312 -2 17 C-1.34 17 -0.68 17 0 17 C0 11.39 0 5.78 0 0 Z " fill="#689BE5" transform="translate(475,276)"/>
<path d="M0 0 C1.32 0.33 2.64 0.66 4 1 C3.26394531 1.72445312 2.52789062 2.44890625 1.76953125 3.1953125 C-5.43016311 10.30935914 -5.43016311 10.30935914 -12 18 C-12.66 17.67 -13.32 17.34 -14 17 C-13.360625 16.4225 -12.72125 15.845 -12.0625 15.25 C-10.01776132 13.01937599 -9.41794801 11.92563609 -9 9 C-8.01 9 -7.02 9 -6 9 C-5.67 7.68 -5.34 6.36 -5 5 C-3.68 4.67 -2.36 4.34 -1 4 C-0.67 2.68 -0.34 1.36 0 0 Z " fill="#CC4D52" transform="translate(374,104)"/>
<path d="M0 0 C0.66 1.32 1.32 2.64 2 4 C1.53464844 4.41378906 1.06929687 4.82757813 0.58984375 5.25390625 C-1.1363544 7.14975533 -1.68736954 8.5100592 -2.4375 10.9375 C-3.65857523 14.46432899 -5.07448618 16.57888511 -8 19 C-8.52121824 13.64122498 -6.89970226 10.4549608 -4 6.125 C-3.6184375 5.53203125 -3.236875 4.9390625 -2.84375 4.328125 C-1.90790125 2.87755944 -0.95558369 1.43764153 0 0 Z " fill="#DE5D53" transform="translate(149,129)"/>
<path d="M0 0 C1.14849559 3.96753021 0.87071371 6.93666935 0 11 C-1.4375 13.4375 -1.4375 13.4375 -3 15 C-3.66 15 -4.32 15 -5 15 C-5 16.32 -5 17.64 -5 19 C-5.66 19 -6.32 19 -7 19 C-5.58495328 12.18204762 -3.01578157 6.26177547 0 0 Z " fill="#F1C332" transform="translate(90,220)"/>
<path d="M0 0 C0.66 0.33 1.32 0.66 2 1 C0.62714844 2.24716797 0.62714844 2.24716797 -0.7734375 3.51953125 C-1.97411032 4.61702125 -3.1746228 5.71468668 -4.375 6.8125 C-4.97828125 7.35970703 -5.5815625 7.90691406 -6.203125 8.47070312 C-7.07324219 9.26831055 -7.07324219 9.26831055 -7.9609375 10.08203125 C-8.76217041 10.81256714 -8.76217041 10.81256714 -9.57958984 11.55786133 C-11.23454469 13.14742726 -11.23454469 13.14742726 -13 16 C-13.66 16 -14.32 16 -15 16 C-15 16.66 -15 17.32 -15 18 C-18.26954202 17.43628586 -19.82575883 16.50037734 -22 14 C-20.824375 14.165 -19.64875 14.33 -18.4375 14.5 C-15.55063917 14.510165 -14.37987011 14.32353344 -12.15625 12.4296875 C-10.99033427 11.03588824 -9.85284257 9.61790904 -8.7421875 8.1796875 C-6.18216824 4.97679345 -3.16946344 2.58731709 0 0 Z " fill="#AB6A8B" transform="translate(349,133)"/>
<path d="M0 0 C0.66 0 1.32 0 2 0 C3.83407845 2.3822279 5.52377853 4.75326404 7.1875 7.25 C7.66380859 7.93191406 8.14011719 8.61382812 8.63085938 9.31640625 C9.07623047 9.98027344 9.52160156 10.64414063 9.98046875 11.328125 C10.39192139 11.9355957 10.80337402 12.54306641 11.22729492 13.16894531 C12.20687435 15.49022359 11.82431351 16.66942629 11 19 C8 17 8 17 7.26953125 14.8359375 C7.04330078 13.61777344 7.04330078 13.61777344 6.8125 12.375 C6.57466797 11.14910156 6.57466797 11.14910156 6.33203125 9.8984375 C6.22246094 9.27195313 6.11289062 8.64546875 6 8 C5.34 8 4.68 8 4 8 C1.6716065 6.23042094 1.04711194 5.18416484 0.3125 2.3125 C0.209375 1.549375 0.10625 0.78625 0 0 Z " fill="#79A7E5" transform="translate(402,122)"/>
<path d="M0 0 C1.32 0.33 2.64 0.66 4 1 C3.07347299 2.17539996 2.13336613 3.34010577 1.1875 4.5 C0.40439453 5.47453125 0.40439453 5.47453125 -0.39453125 6.46875 C-2 8 -2 8 -5 8 C-5.08121094 8.57234375 -5.16242188 9.1446875 -5.24609375 9.734375 C-6.23275695 12.69947685 -7.81104466 14.10575681 -10.0625 16.25 C-10.79597656 16.95640625 -11.52945313 17.6628125 -12.28515625 18.390625 C-12.85105469 18.92171875 -13.41695312 19.4528125 -14 20 C-14 17 -14 17 -12.50390625 15.31640625 C-11.21236468 14.14960109 -9.92069853 12.98293383 -8.62890625 11.81640625 C-6.84172775 9.82350936 -6.59975268 8.54489652 -6 6 C-4.33333333 5.33333333 -2.66666667 4.66666667 -1 4 C-0.11306697 1.95894361 -0.11306697 1.95894361 0 0 Z " fill="#BFBB24" transform="translate(147,332)"/>
<path d="M0 0 C0.55429687 0.42152344 1.10859375 0.84304687 1.6796875 1.27734375 C2.40414063 1.82519531 3.12859375 2.37304688 3.875 2.9375 C4.59429687 3.48277344 5.31359375 4.02804688 6.0546875 4.58984375 C7.94357079 6.03964624 7.94357079 6.03964624 10 7 C9.625 8.9375 9.625 8.9375 9 11 C8.01 11.495 8.01 11.495 7 12 C7 10.35 7 8.7 7 7 C5.35 7.33 3.7 7.66 2 8 C2 8.66 2 9.32 2 10 C1.34 9.67 0.68 9.34 0 9 C0.66 8.01 1.32 7.02 2 6 C1.34 5.67 0.68 5.34 0 5 C0 3.35 0 1.7 0 0 Z " fill="#D96563" transform="translate(372,92)"/>
<path d="M0 0 C3.96 1.98 7.92 3.96 12 6 C12 6.66 12 7.32 12 8 C14.475 8.99 14.475 8.99 17 10 C15.4375 10.75 15.4375 10.75 13 11 C10.49713591 9.86915563 8.32992278 8.47860484 6 7 C6 6.34 6 5.68 6 5 C5.01 5 4.02 5 3 5 C3 4.34 3 3.68 3 3 C2.01 2.67 1.02 2.34 0 2 C0 1.34 0 0.68 0 0 Z " fill="#F0CC54" transform="translate(245,172)"/>
<path d="M0 0 C2.76765757 0.83707126 5.32775632 1.87484476 8 3 C8 3.33 8 3.66 8 4 C2.06 4 -3.88 4 -10 4 C-10 3.34 -10 2.68 -10 2 C-6.22486447 -0.51675702 -4.4906709 -0.36808778 0 0 Z " fill="#E05A49" transform="translate(330,70)"/>
<path d="M0 0 C0 3.99904969 -1.72586967 5.80200422 -4 9 C-3.34 9.45375 -2.68 9.9075 -2 10.375 C-1.34 10.91125 -0.68 11.4475 0 12 C0 12.66 0 13.32 0 14 C0.66 14.33 1.32 14.66 2 15 C1.01 15.495 1.01 15.495 0 16 C-2.31 14.35 -4.62 12.7 -7 11 C-6.03302499 7.13209997 -5.47299793 6.05523175 -2.9375 3.25 C-2.38964844 2.63640625 -1.84179688 2.0228125 -1.27734375 1.390625 C-0.85582031 0.93171875 -0.43429688 0.4728125 0 0 Z " fill="#7CB15B" transform="translate(130,352)"/>
<path d="M0 0 C0.33 0 0.66 0 1 0 C1.05389087 1.95803507 1.09274217 3.91648909 1.125 5.875 C1.14820312 6.96554688 1.17140625 8.05609375 1.1953125 9.1796875 C1 12 1 12 -1 14 C-1.46396693 16.89223503 -1.46396693 16.89223503 -1.625 20.125 C-1.69976562 21.22070312 -1.77453125 22.31640625 -1.8515625 23.4453125 C-1.92503906 24.70988281 -1.92503906 24.70988281 -2 26 C-2.33 26 -2.66 26 -3 26 C-3.40411834 16.85495156 -2.42614476 8.82365744 0 0 Z " fill="#F0C648" transform="translate(82,239)"/>
<path d="M0 0 C-0.3125 1.9375 -0.3125 1.9375 -1 4 C-1.99 4.33 -2.98 4.66 -4 5 C-4 5.66 -4 6.32 -4 7 C-5.32 7.33 -6.64 7.66 -8 8 C-8 8.99 -8 9.98 -8 11 C-9.65 11.33 -11.3 11.66 -13 12 C-2.93659942 0 -2.93659942 0 0 0 Z " fill="#5EA638" transform="translate(161,324)"/>
<path d="M0 0 C2 3 2 3 3 6.625 C3.33 7.73875 3.66 8.8525 4 10 C4.66 10.33 5.32 10.66 6 11 C6.4140625 13.50390625 6.4140625 13.50390625 6.625 16.5625 C6.69976562 17.57441406 6.77453125 18.58632813 6.8515625 19.62890625 C6.92503906 20.80259766 6.92503906 20.80259766 7 22 C1.5400847 16.5400847 0.48467999 7.3913699 0 0 Z " fill="#F1CA5E" transform="translate(81,296)"/>
<path d="M0 0 C6.22144658 0.77768082 11.78150204 2.52100136 17 6 C15.68 6.33 14.36 6.66 13 7 C13 6.34 13 5.68 13 5 C9.04 5 5.08 5 1 5 C1.66 4.34 2.32 3.68 3 3 C2.01 2.67 1.02 2.34 0 2 C0 1.34 0 0.68 0 0 Z " fill="#F4C950" transform="translate(219,162)"/>
<path d="M0 0 C0.33 0.66 0.66 1.32 1 2 C-0.46615298 5.77010767 -2.13404221 9.41161963 -4 13 C-4.66 13 -5.32 13 -6 13 C-6 12.01 -6 11.02 -6 10 C-6.66 9.67 -7.32 9.34 -8 9 C-5.36 6.03 -2.72 3.06 0 0 Z " fill="#4C81EE" transform="translate(380,103)"/>
<path d="M0 0 C5.31522416 2.06100529 9.44815281 4.5628909 14 8 C13.67 8.66 13.34 9.32 13 10 C10.03 9.505 10.03 9.505 7 9 C6.67 7.35 6.34 5.7 6 4 C4.02 3.34 2.04 2.68 0 2 C0 1.34 0 0.68 0 0 Z " fill="#E1706A" transform="translate(357,83)"/>
<path d="M0 0 C0.66 0 1.32 0 2 0 C2.33 0.99 2.66 1.98 3 3 C2.01 4.485 2.01 4.485 1 6 C-0.32 5.34 -1.64 4.68 -3 4 C-3 4.66 -3 5.32 -3 6 C-5.97 6.66 -8.94 7.32 -12 8 C-4.6 2 -4.6 2 0 2 C0 1.34 0 0.68 0 0 Z " fill="#DF6B62" transform="translate(206,79)"/>
<path d="M0 0 C0.66 0 1.32 0 2 0 C0.54718935 5.32697239 -3.08111378 8.36402802 -7 12 C-7.66 11.67 -8.32 11.34 -9 11 C-7.625 9 -7.625 9 -6 7 C-5.34 7 -4.68 7 -4 7 C-4 5.35 -4 3.7 -4 2 C-2.68 2 -1.36 2 0 2 C0 1.34 0 0.68 0 0 Z " fill="#7FA8E5" transform="translate(448,345)"/>
<path d="M0 0 C1.32 0.33 2.64 0.66 4 1 C4.33 3.97 4.66 6.94 5 10 C4.01 10.495 4.01 10.495 3 11 C-0.875 4.25 -0.875 4.25 -2 2 C-1.34 2 -0.68 2 0 2 C0 1.34 0 0.68 0 0 Z " fill="#5D91EC" transform="translate(351,166)"/>
<path d="M0 0 C2.31 0 4.62 0 7 0 C3.78163043 1.71337661 0.51221914 2.95044241 -2.9375 4.125 C-4.46697266 4.65480469 -4.46697266 4.65480469 -6.02734375 5.1953125 C-8.84947867 5.95925441 -11.09707535 6.16038258 -14 6 C-10.92307254 3.3184721 -8.80265337 2.57912193 -4.75 2.3125 C-3.85796875 2.24675781 -2.9659375 2.18101562 -2.046875 2.11328125 C-1.37140625 2.07589844 -0.6959375 2.03851563 0 2 C0 1.34 0 0.68 0 0 Z " fill="#79A6E5" transform="translate(400,377)"/>
<path d="M0 0 C6.37120686 -0.4633605 11.59554303 0.36712851 17 4 C18.2578125 6.140625 18.2578125 6.140625 19 8 C17.69675781 7.36771484 17.69675781 7.36771484 16.3671875 6.72265625 C15.21476563 6.17480469 14.06234375 5.62695312 12.875 5.0625 C11.73804688 4.51722656 10.60109375 3.97195312 9.4296875 3.41015625 C6.21813339 2.0896881 3.43290921 1.41215779 0 1 C0 0.67 0 0.34 0 0 Z " fill="#F4D066" transform="translate(198,230)"/>
<path d="M0 0 C4.28990392 -0.19953041 7.07959822 0.33382924 11 2 C12.9924325 2.37593066 14.9918674 2.71979545 17 3 C17.33 4.32 17.66 5.64 18 7 C5.36842105 3.57894737 5.36842105 3.57894737 0 0 Z " fill="#DD7F78" transform="translate(302,136)"/>
<path d="M0 0 C-0.639375 0.309375 -1.27875 0.61875 -1.9375 0.9375 C-3.93610821 1.8345163 -3.93610821 1.8345163 -5 3 C-6.51928038 3.07179964 -8.04167482 3.08392007 -9.5625 3.0625 C-10.38878906 3.05347656 -11.21507812 3.04445313 -12.06640625 3.03515625 C-12.70449219 3.02355469 -13.34257812 3.01195312 -14 3 C-14 3.66 -14 4.32 -14 5 C-15.98 5.33 -17.96 5.66 -20 6 C-19.67 5.34 -19.34 4.68 -19 4 C-18.34 4 -17.68 4 -17 4 C-17 3.34 -17 2.68 -17 2 C-15.10507994 1.66151348 -13.20901534 1.32943089 -11.3125 1 C-9.72888672 0.7215625 -9.72888672 0.7215625 -8.11328125 0.4375 C-5.35095938 0.04931926 -2.78257957 -0.08259976 0 0 Z " fill="#568FE5" transform="translate(414,374)"/>
<path d="M0 0 C0.99 0 1.98 0 3 0 C2.67 5.61 2.34 11.22 2 17 C1.67 17 1.34 17 1 17 C0.00749455 11.29309366 -0.10477512 5.78591511 0 0 Z " fill="#F4CA4E" transform="translate(147,259)"/>
<path d="M0 0 C2.52940738 3.13164723 4.44920018 6.27808042 6 10 C5.6875 12.375 5.6875 12.375 5 14 C4.01 13.67 3.02 13.34 2 13 C1.26953125 11.07421875 1.26953125 11.07421875 0.8125 8.6875 C0.65394531 7.90761719 0.49539063 7.12773437 0.33203125 6.32421875 C0 4 0 4 0 0 Z " fill="#6A9CE9" transform="translate(464,218)"/>
<path d="M0 0 C8.25 0 16.5 0 25 0 C25 0.33 25 0.66 25 1 C24.34926514 1.01981934 23.69853027 1.03963867 23.02807617 1.06005859 C20.08080849 1.15529299 17.13425115 1.26497818 14.1875 1.375 C13.16333984 1.4059375 12.13917969 1.436875 11.08398438 1.46875 C9.60961914 1.52675781 9.60961914 1.52675781 8.10546875 1.5859375 C6.74651489 1.63306885 6.74651489 1.63306885 5.36010742 1.68115234 C2.73474608 1.86027919 2.73474608 1.86027919 0 4 C0 2.68 0 1.36 0 0 Z " fill="#4789E9" transform="translate(279,316)"/>
<path d="M0 0 C0.33 0.66 0.66 1.32 1 2 C-0.109375 4.34765625 -0.109375 4.34765625 -1.75 7.0625 C-2.28109375 7.96097656 -2.8121875 8.85945312 -3.359375 9.78515625 C-5 12 -5 12 -8 13 C-6.40956621 7.91061189 -3.2553049 4.12543357 0 0 Z " fill="#F2CD55" transform="translate(101,203)"/>
<path d="M0 0 C0.66 0.33 1.32 0.66 2 1 C1.01 2.485 1.01 2.485 0 4 C-1.32 4 -2.64 4 -4 4 C-4 4.66 -4 5.32 -4 6 C-6.64 6.33 -9.28 6.66 -12 7 C-11.67 5.68 -11.34 4.36 -11 3 C-11 3.99 -11 4.98 -11 6 C-10.05125 5.505 -9.1025 5.01 -8.125 4.5 C-5 3 -5 3 -3 3 C-3 2.34 -3 1.68 -3 1 C-2.01 0.67 -1.02 0.34 0 0 Z " fill="#F69E25" transform="translate(140,171)"/>
<path d="M0 0 C2.97 0.495 2.97 0.495 6 1 C6 1.66 6 2.32 6 3 C8.475 3.99 8.475 3.99 11 5 C10.67 5.99 10.34 6.98 10 8 C6.05205855 6.32971708 3.18203882 3.8204435 0 1 C0 0.67 0 0.34 0 0 Z " fill="#EECB51" transform="translate(113,354)"/>
<path d="M0 0 C0.99 0 1.98 0 3 0 C3.33 0.66 3.66 1.32 4 2 C5.98 2 7.96 2 10 2 C8.68 3.65 7.36 5.3 6 7 C3 6 3 6 1.3125 2.9375 C0.879375 1.968125 0.44625 0.99875 0 0 Z " fill="#F4D260" transform="translate(226,247)"/>
<path d="M0 0 C3.51855159 1.40742064 4.38612834 2.66466523 6 6 C6.99 6.33 7.98 6.66 9 7 C9 7.66 9 8.32 9 9 C9.66 9 10.32 9 11 9 C10.67 9.66 10.34 10.32 10 11 C9.566875 10.525625 9.13375 10.05125 8.6875 9.5625 C6.97690387 7.76313043 6.97690387 7.76313043 4 7 C4 6.01 4 5.02 4 4 C2.35 4 0.7 4 -1 4 C-0.67 2.68 -0.34 1.36 0 0 Z " fill="#89B0E5" transform="translate(440,188)"/>
<path d="M0 0 C0.33 0.99 0.66 1.98 1 3 C-0.98 3.99 -0.98 3.99 -3 5 C-3 5.66 -3 6.32 -3 7 C-5.64 7.99 -8.28 8.98 -11 10 C-11 9.34 -11 8.68 -11 8 C-9.217871 6.55925285 -7.37339724 5.19489351 -5.5 3.875 C-4.4790625 3.15054688 -3.458125 2.42609375 -2.40625 1.6796875 C-1.6121875 1.12539062 -0.818125 0.57109375 0 0 Z " fill="#F4C74A" transform="translate(127,178)"/>
<path d="M0 0 C0.99 0.33 1.98 0.66 3 1 C3 1.66 3 2.32 3 3 C3.66 3 4.32 3 5 3 C6.625 4.1875 6.625 4.1875 8 6 C8.1875 8.6875 8.1875 8.6875 8 11 C7.34 11 6.68 11 6 11 C4.4921875 9.1015625 4.4921875 9.1015625 2.875 6.625 C2.33617188 5.81289063 1.79734375 5.00078125 1.2421875 4.1640625 C0 2 0 2 0 0 Z " fill="#F4CA4D" transform="translate(94,330)"/>
<path d="M0 0 C1.14926266 0.95421808 2.29430541 1.91352045 3.4375 2.875 C4.07558594 3.40867188 4.71367187 3.94234375 5.37109375 4.4921875 C7 6 7 6 8 8 C5.1875 8.25 5.1875 8.25 2 8 C0.0625 6.25 0.0625 6.25 -1 4 C-0.56640625 1.859375 -0.56640625 1.859375 0 0 Z " fill="#729DEA" transform="translate(430,178)"/>
<path d="M0 0 C0.33 0.66 0.66 1.32 1 2 C-5.02818509 6.28670939 -9.71304215 6.474377 -17 6 C-17 5.67 -17 5.34 -17 5 C-16.35933594 4.89042969 -15.71867187 4.78085937 -15.05859375 4.66796875 C-9.6438309 3.67539672 -4.96677361 2.37541347 0 0 Z " fill="#7EAAE5" transform="translate(385,309)"/>
<path d="M0 0 C0.33 0 0.66 0 1 0 C1.33 5.28 1.66 10.56 2 16 C1.34 16 0.68 16 0 16 C-0.33 16.66 -0.66 17.32 -1 18 C-0.505 9.09 -0.505 9.09 0 0 Z " fill="#87ABEC" transform="translate(407,266)"/>
<path d="M0 0 C4.82675589 2.41337795 7.69984002 5.86062408 11 10 C9.02 9.34 7.04 8.68 5 8 C5 7.01 5 6.02 5 5 C3.68 4.67 2.36 4.34 1 4 C0.67 2.68 0.34 1.36 0 0 Z " fill="#F4D264" transform="translate(264,185)"/>
<path d="M0 0 C5.41798672 0.69165788 10.6822785 1.75799248 16 3 C16 3.33 16 3.66 16 4 C12.04 4 8.08 4 4 4 C3.67 3.01 3.34 2.02 3 1 C2.01 1.33 1.02 1.66 0 2 C0 1.34 0 0.68 0 0 Z " fill="#75BA82" transform="translate(172,311)"/>
<path d="M0 0 C0.33 0 0.66 0 1 0 C2.88341198 6.09339169 3.0748291 10.72532201 2 17 C1.67 17 1.34 17 1 17 C0.1679418 11.27959989 -0.12036664 5.77759884 0 0 Z " fill="#759FE5" transform="translate(474,244)"/>
<path d="M0 0 C3.96 0.33 7.92 0.66 12 1 C12.33 1.99 12.66 2.98 13 4 C8.71 3.34 4.42 2.68 0 2 C0 1.34 0 0.68 0 0 Z " fill="#7DA6E6" transform="translate(367,228)"/>
<path d="M0 0 C-1.28813342 0.83878455 -2.58063256 1.67086783 -3.875 2.5 C-4.59429687 2.9640625 -5.31359375 3.428125 -6.0546875 3.90625 C-8 5 -8 5 -10 5 C-10.66 3.68 -11.32 2.36 -12 1 C-9 1 -9 1 -6 2 C-6 1.34 -6 0.68 -6 0 C-3.50907189 -1.24546405 -2.58919267 -0.7767578 0 0 Z " fill="#E17260" transform="translate(236,145)"/>
<path d="M0 0 C0 0.33 0 0.66 0 1 C-1.546875 1.4021875 -1.546875 1.4021875 -3.125 1.8125 C-5.78867631 2.55811325 -7.79855455 3.40681081 -10.3125 4.6875 C-11.199375 5.120625 -12.08625 5.55375 -13 6 C-13.66 5.67 -14.32 5.34 -15 5 C-15 4.34 -15 3.68 -15 3 C-13.68 3 -12.36 3 -11 3 C-11 2.34 -11 1.68 -11 1 C-7.32589215 -0.17571451 -3.83070817 -0.07366746 0 0 Z " fill="#F1D061" transform="translate(183,230)"/>
<path d="M0 0 C1.485 0.99 1.485 0.99 3 2 C3 2.66 3 3.32 3 4 C3.99 4.33 4.98 4.66 6 5 C6.33 5.99 6.66 6.98 7 8 C6.34 8 5.68 8 5 8 C5 7.34 5 6.68 5 6 C3.68 6.33 2.36 6.66 1 7 C-1 4 -1 4 -0.625 1.8125 C-0.41875 1.214375 -0.2125 0.61625 0 0 Z " fill="#6B9BEA" transform="translate(393,111)"/>
<path d="M0 0 C-0.33 1.32 -0.66 2.64 -1 4 C-1.7425 3.79375 -2.485 3.5875 -3.25 3.375 C-6.32330841 2.95591249 -7.42786866 3.38050989 -10 5 C-10.66 4.34 -11.32 3.68 -12 3 C-10.3789897 2.30314502 -8.75303934 1.61777139 -7.125 0.9375 C-6.22007812 0.55464844 -5.31515625 0.17179687 -4.3828125 -0.22265625 C-2 -1 -2 -1 0 0 Z " fill="#DF6D62" transform="translate(220,75)"/>
<path d="M0 0 C-1.65 0.33 -3.3 0.66 -5 1 C-5 1.66 -5 2.32 -5 3 C-8.63 3 -12.26 3 -16 3 C-13.13771795 1.56885897 -11.00359672 0.59273118 -8 -0.1875 C-7.34 -0.36667969 -6.68 -0.54585938 -6 -0.73046875 C-3.73459024 -1.03576811 -2.164908 -0.68136613 0 0 Z " fill="#D86E63" transform="translate(251,66)"/>
<path d="M0 0 C1.67542976 0.28604898 3.34385343 0.61781233 5 1 C3.35830472 3.02054804 1.69088222 5.02043058 0 7 C-0.33 7 -0.66 7 -1 7 C-1.04254356 5.00045254 -1.04080783 2.99958364 -1 1 C-0.67 0.67 -0.34 0.34 0 0 Z " fill="#E1C332" transform="translate(168,309)"/>
<path d="M0 0 C1.32 0 2.64 0 4 0 C4 0.66 4 1.32 4 2 C3.34 2 2.68 2 2 2 C1.731875 2.61875 1.46375 3.2375 1.1875 3.875 C0 6 0 6 -3 8 C-2.67 6.02 -2.34 4.04 -2 2 C-1.34 2 -0.68 2 0 2 C0 1.34 0 0.68 0 0 Z " fill="#F5D06C" transform="translate(261,219)"/>
<path d="M0 0 C2.475 0.99 2.475 0.99 5 2 C5 2.66 5 3.32 5 4 C6.65 4 8.3 4 10 4 C6.25 7 6.25 7 4 7 C3.67 6.01 3.34 5.02 3 4 C0.03 3.505 0.03 3.505 -3 3 C-2.01 2.67 -1.02 2.34 0 2 C0 1.34 0 0.68 0 0 Z " fill="#F9B626" transform="translate(214,160)"/>
<path d="M0 0 C0.33 0.99 0.66 1.98 1 3 C-1.13478166 6.20217249 -2.62795029 7.27285259 -6 9 C-6.99 9 -7.98 9 -9 9 C-6.03 6.03 -3.06 3.06 0 0 Z " fill="#DD6962" transform="translate(175,100)"/>
<path d="M0 0 C-0.33 0.66 -0.66 1.32 -1 2 C-1.66 2 -2.32 2 -3 2 C-3.33 3.32 -3.66 4.64 -4 6 C-4.433125 5.54625 -4.86625 5.0925 -5.3125 4.625 C-7.10798342 2.79975666 -7.10798342 2.79975666 -10 1 C-6.52674819 -0.1577506 -3.63932552 -0.06866652 0 0 Z " fill="#DC493C" transform="translate(258,65)"/>
<path d="M0 0 C1.32 0.33 2.64 0.66 4 1 C3.1875 3.4375 3.1875 3.4375 2 6 C1.01 6.33 0.02 6.66 -1 7 C-1.625 5.1875 -1.625 5.1875 -2 3 C-1.34 2.01 -0.68 1.02 0 0 Z " fill="#F5C53C" transform="translate(254,224)"/>
<path d="M0 0 C-7.5 5 -7.5 5 -11 5 C-11 4.34 -11 3.68 -11 3 C-10.34 3 -9.68 3 -9 3 C-9 2.34 -9 1.68 -9 1 C-5.92677456 0.08941469 -3.19902639 -0.08886184 0 0 Z " fill="#DC7767" transform="translate(249,138)"/>
<path d="M0 0 C0 3 0 3 -2.375 5.625 C-5 8 -5 8 -7 9 C-5.125 3.25 -5.125 3.25 -4 1 C-1.9375 0.375 -1.9375 0.375 0 0 Z " fill="#C44F60" transform="translate(357,124)"/>
<path d="M0 0 C2 3 2 3 1.625 5.1875 C1.41875 5.785625 1.2125 6.38375 1 7 C0.34 7 -0.32 7 -1 7 C-1 8.32 -1 9.64 -1 11 C-1.66 11 -2.32 11 -3 11 C-1.125 3.375 -1.125 3.375 0 0 Z " fill="#F3CC51" transform="translate(86,228)"/>
<path d="M0 0 C3.63 0.33 7.26 0.66 11 1 C7.3558226 3.4294516 5.28758728 3.16179575 1 3 C0.67 2.01 0.34 1.02 0 0 Z " fill="#FDB811" transform="translate(200,161)"/>
<path d="M0 0 C1.67542976 0.28604898 3.34385343 0.61781233 5 1 C3.35 2.65 1.7 4.3 0 6 C-0.38218767 4.34385343 -0.71395102 2.67542976 -1 1 C-0.67 0.67 -0.34 0.34 0 0 Z " fill="#EABD17" transform="translate(151,326)"/>
<path d="M0 0 C0.33 0.66 0.66 1.32 1 2 C0.67 2.66 0.34 3.32 0 4 C0.99 4.33 1.98 4.66 3 5 C1.02 5.33 -0.96 5.66 -3 6 C-3.33 5.01 -3.66 4.02 -4 3 C-2.68 2.01 -1.36 1.02 0 0 Z " fill="#6399EB" transform="translate(391,305)"/>
<path d="M0 0 C1.32 0 2.64 0 4 0 C4 0.66 4 1.32 4 2 C5.32 1.67 6.64 1.34 8 1 C8.33 2.32 8.66 3.64 9 5 C2.25 2.25 2.25 2.25 0 0 Z " fill="#66B57E" transform="translate(133,369)"/>
<path d="M0 0 C1.65 0 3.3 0 5 0 C5.33 1.98 5.66 3.96 6 6 C3.97945196 4.35830472 1.97956942 2.69088222 0 1 C0 0.67 0 0.34 0 0 Z " fill="#F4D355" transform="translate(107,348)"/>
<path d="M0 0 C3 3.625 3 3.625 3 7 C3.66 7 4.32 7 5 7 C5 7.66 5 8.32 5 9 C1.125 7.125 1.125 7.125 0 6 C-0.04080783 4.00041636 -0.04254356 1.99954746 0 0 Z " fill="#F4CC5F" transform="translate(152,289)"/>
<path d="M0 0 C2.475 0.495 2.475 0.495 5 1 C3.02 3.97 3.02 3.97 1 7 C0.31292445 4.50935112 0 2.62113708 0 0 Z " fill="#F6CB52" transform="translate(156,241)"/>
<path d="M0 0 C3.14737182 0.69941596 6.02588876 1.76078698 9 3 C7.02 3.99 7.02 3.99 5 5 C5 4.34 5 3.68 5 3 C3.35 3 1.7 3 0 3 C0 2.01 0 1.02 0 0 Z " fill="#F4CC54" transform="translate(236,168)"/>
<path d="M0 0 C0.66 0 1.32 0 2 0 C4 3 4 3 3.625 5.1875 C3.41875 5.785625 3.2125 6.38375 3 7 C2.01 6.34 1.02 5.68 0 5 C-0.1875 2.375 -0.1875 2.375 0 0 Z " fill="#5A93E4" transform="translate(410,134)"/>
<path d="M0 0 C0 0.66 0 1.32 0 2 C-6.96428571 4.27678571 -6.96428571 4.27678571 -11 3 C-9.73160474 2.49384702 -8.46016898 1.99530901 -7.1875 1.5 C-6.12595703 1.08234375 -6.12595703 1.08234375 -5.04296875 0.65625 C-3 0 -3 0 0 0 Z " fill="#DB6F64" transform="translate(231,70)"/>
<path d="M0 0 C1.98 0.99 1.98 0.99 4 2 C3.34 3.98 2.68 5.96 2 8 C1.67 8 1.34 8 1 8 C0.67 5.36 0.34 2.72 0 0 Z " fill="#F2C02B" transform="translate(152,244)"/>
<path d="M0 0 C1.485 0.99 1.485 0.99 3 2 C2.67 2.99 2.34 3.98 2 5 C1.34 5 0.68 5 0 5 C-0.33 5.66 -0.66 6.32 -1 7 C-1.04254356 5.00045254 -1.04080783 2.99958364 -1 1 C-0.67 0.67 -0.34 0.34 0 0 Z " fill="#F2CD45" transform="translate(239,240)"/>
<path d="M0 0 C2.31 0.33 4.62 0.66 7 1 C7 2.65 7 4.3 7 6 C6.34 5.67 5.68 5.34 5 5 C5 4.34 5 3.68 5 3 C2.525 2.01 2.525 2.01 0 1 C0 0.67 0 0.34 0 0 Z " fill="#88ACEF" transform="translate(388,236)"/>
<path d="M0 0 C0.33 0 0.66 0 1 0 C1.66 3.3 2.32 6.6 3 10 C2.01 9.67 1.02 9.34 0 9 C0 6.03 0 3.06 0 0 Z " fill="#89AFEB" transform="translate(427,167)"/>
<path d="M0 0 C1.65 0 3.3 0 5 0 C5 1.98 5 3.96 5 6 C3.31237149 4.3545622 1.6459651 2.68711423 0 1 C0 0.67 0 0.34 0 0 Z " fill="#709CE4" transform="translate(341,158)"/>
</svg>
