<?xml version="1.0" encoding="UTF-8"?>
<svg version="1.1" xmlns="http://www.w3.org/2000/svg" width="512" height="512">
<path d="M0 0 C120.12 0 240.24 0 364 0 C362.23534452 22.35230278 360.46541176 44.69442032 358.48933029 67.02752304 C358.08487885 71.60326612 357.68286293 76.17922181 357.28094482 80.75518799 C356.62270803 88.24588652 355.96268158 95.73642623 355.30195151 103.22690521 C354.76507103 109.31378286 354.22890218 115.40072284 353.6932106 121.48770523 C353.61619568 122.36281171 353.53918076 123.23791818 353.45983205 124.13954303 C353.30328454 125.91840472 353.14673888 127.69726658 352.99019505 129.47612859 C351.53438135 146.01819208 350.07652748 162.56007525 348.61790933 179.10189165 C347.36826155 193.27433688 346.1202893 207.44692884 344.87353516 221.61962891 C343.4185032 238.15994869 341.96253238 254.70018536 340.50500023 271.24028504 C340.34971858 273.00244586 340.19443779 274.76460676 340.03915787 276.52676773 C339.96278846 277.39341957 339.88641904 278.2600714 339.80773541 279.15298542 C339.27114009 285.24305628 338.73520428 291.33318496 338.19952011 297.42333603 C337.54823584 304.8274873 336.89589507 312.23154458 336.24220763 319.63548408 C335.90918532 323.40772152 335.57662658 327.17999826 335.24534225 330.95238876 C334.88617298 335.04212111 334.52472667 339.13164904 334.16305542 343.22116089 C334.00707439 345.0033083 334.00707439 345.0033083 333.84794223 346.8214587 C333.3379843 352.56557701 332.76299333 358.28379097 332 364 C312.99481099 369.51355475 293.98422355 375.00809436 274.9670496 380.48017216 C266.1367872 383.0215046 257.30838621 385.56898317 248.48413086 388.13110352 C240.79118425 390.36473157 233.09497013 392.58665617 225.39464086 394.79470438 C221.31902901 395.96381303 217.24526854 397.13863734 213.17537117 398.3275013 C209.34060697 399.44747988 205.50164621 400.55169517 201.65898132 401.64424706 C200.25332435 402.04684181 198.84926113 402.45505252 197.44703484 402.86943817 C189.97565265 405.07374617 183.65719397 406.91207465 176 405 C174.98557799 404.74858214 173.97115599 404.49716429 172.92599392 404.23812771 C169.18745229 403.25386455 165.47304477 402.19639632 161.75952148 401.12280273 C160.3396698 400.71809798 158.91963586 400.31403219 157.49943542 399.91055298 C153.66764261 398.82000244 149.83844326 397.72059434 146.00966525 396.61951327 C141.99930736 395.4678698 137.98659784 394.32447918 133.97413635 393.18019104 C126.38666889 391.01502515 118.80132871 388.84250291 111.21673495 386.66729456 C102.57745705 384.19000092 93.93582468 381.72097095 85.29399002 379.2526139 C67.5267013 374.17756501 49.76237857 369.09220591 32 364 C28.29193384 324.44821095 24.74672103 284.88324613 21.25664083 245.31174355 C20.74370687 239.49602509 20.23033907 233.68034506 19.7166996 227.86468887 C19.6424423 227.02389968 19.56818499 226.18311049 19.49167747 225.31684283 C19.34068637 223.60722658 19.18969504 221.89761035 19.03870348 220.18799414 C17.64166433 204.36919492 16.24610676 188.55026527 14.85103974 172.73129202 C13.57580437 158.27166736 12.29862264 143.81221533 11.02057644 129.35283886 C9.69923416 114.40342318 8.37918206 99.4538941 7.06053811 84.50424016 C6.32364201 76.15020577 5.58623605 67.79621716 4.84746361 59.44234848 C4.22225349 52.37246228 3.59825524 45.30247042 2.97584965 38.23233674 C2.65873186 34.63046314 2.34104643 31.02864195 2.02184486 27.42695236 C1.67646308 23.52966365 1.33378034 19.63214037 0.99137878 15.73458862 C0.88973378 14.59244428 0.78808877 13.45029993 0.68336362 12.27354515 C0.59239543 11.23296364 0.50142724 10.19238214 0.40770245 9.12026787 C0.32839322 8.2215033 0.24908399 7.32273874 0.16737145 6.39673889 C0.01878122 4.26894477 0 2.13297605 0 0 Z " fill="#E65100" transform="translate(74,53)"/>
<path d="M0 0 C48.18 0 96.36 0 146 0 C144.83952764 18.56755778 144.83952764 18.56755778 144.31640625 25.4609375 C144.22576149 26.6614122 144.22576149 26.6614122 144.13328552 27.88613892 C144.00702485 29.5510918 143.88016161 31.2159991 143.75268555 32.88085938 C143.56321168 35.36566688 143.37825194 37.85078546 143.19335938 40.3359375 C142.52019433 49.22797931 141.69310268 58.08265844 140.67018127 66.94136047 C139.94149529 73.31460045 139.59579333 79.62695461 139.34375 86.03515625 C139.10710781 90.33979038 138.58819665 94.60206401 138.0625 98.87890625 C137.02239986 107.38232443 136.31523349 115.89325414 135.68136597 124.43539429 C134.79498243 136.35839386 133.83258803 148.25340832 132.4921875 160.13476562 C131.90492798 165.67807977 131.52209917 171.23310215 131.12890625 176.79296875 C130.00082512 192.35106522 128.70967215 207.89420355 127.39550781 223.4375 C127.06328944 227.36840873 126.73496363 231.29963249 126.407547 235.23094368 C126.14865457 238.3319641 125.88715222 241.43276068 125.62496948 244.53350449 C125.50289508 245.98190597 125.3816954 247.43038153 125.26150513 248.87894058 C124.55999047 257.31958126 123.72820184 265.73007531 122.69366455 274.13643837 C121.88134283 280.76454707 121.35205927 287.40322186 120.875 294.0625 C120.74544922 295.80756836 120.74544922 295.80756836 120.61328125 297.58789062 C120.40559132 300.39170474 120.20116106 303.19571129 120 306 C113.7963764 308.43011245 107.54187427 310.37195266 101.13354492 312.1862793 C100.0740564 312.48907806 99.01456787 312.79187683 97.92297363 313.10385132 C94.44309569 314.09736637 90.96184934 315.08598313 87.48046875 316.07421875 C85.05523165 316.76477983 82.63004624 317.45552245 80.20491028 318.1464386 C75.13438678 319.59015891 70.0631815 321.03145954 64.99145508 322.47094727 C59.12907057 324.13489936 53.26822113 325.80417579 47.40810889 327.47611111 C41.76006711 329.08734488 36.1107778 330.69416931 30.4609623 332.29917336 C28.05997115 332.98177752 25.65932356 333.66559127 23.25902367 334.35062218 C19.91357309 335.30484181 16.56673779 336.25403821 13.21948242 337.2019043 C12.22360611 337.48706406 11.2277298 337.77222382 10.20167542 338.06602478 C8.83711716 338.45077972 8.83711716 338.45077972 7.44499207 338.8433075 C6.25902073 339.1803698 6.25902073 339.1803698 5.04909039 339.52424145 C3 340 3 340 0 340 C-0.33 323.5 -0.66 307 -1 290 C-11.56753266 286.10669849 -21.66700774 282.38747916 -32.41503906 279.34912109 C-40.80145705 276.92405744 -49.06501725 274.08961572 -57.34375 271.32397461 C-60.41745802 270.29833251 -63.49378833 269.28083127 -66.5703125 268.26367188 C-68.53401576 267.60986014 -70.49756352 266.95558113 -72.4609375 266.30078125 C-73.37644379 265.9986824 -74.29195007 265.69658356 -75.23519897 265.3853302 C-76.08103546 265.10130844 -76.92687195 264.81728668 -77.79833984 264.5246582 C-78.53982269 264.27770706 -79.28130554 264.03075592 -80.04525757 263.77632141 C-82 263 -82 263 -85 261 C-85.47465515 259.13859558 -85.47465515 259.13859558 -85.6159668 256.84838867 C-85.70572029 255.5601545 -85.70572029 255.5601545 -85.79728699 254.24589539 C-85.84742447 253.3126796 -85.89756195 252.37946381 -85.94921875 251.41796875 C-86.01156204 250.45280838 -86.07390533 249.48764801 -86.13813782 248.49324036 C-86.26808589 246.44162287 -86.39119319 244.38956259 -86.50805664 242.3371582 C-86.68465696 239.23740214 -86.8803209 236.13935659 -87.08007812 233.04101562 C-87.20426383 231.04173708 -87.3273435 229.04238947 -87.44921875 227.04296875 C-87.50542892 226.1320195 -87.5616391 225.22107025 -87.61955261 224.28251648 C-88.02149511 217.15389249 -88 210.17327243 -88 203 C-74.14 203 -60.28 203 -46 203 C-44.6256372 212.6205396 -43.79037332 220.56679932 -44 230 C-43.05362671 230.24435791 -43.05362671 230.24435791 -42.08813477 230.49365234 C-34.263348 232.56531347 -26.60679748 235.0421839 -18.9375 237.625 C-17.71611328 238.03234375 -16.49472656 238.4396875 -15.23632812 238.859375 C-6.28169643 241.85915179 -6.28169643 241.85915179 -4 243 C1.92569355 243.46379911 6.4180611 242.13696262 11.890625 240.15625 C12.71705505 239.86770142 13.54348511 239.57915283 14.3949585 239.28186035 C17.01701931 238.36475588 19.63366607 237.43330365 22.25 236.5 C24.88131302 235.56889782 27.51365282 234.64094228 30.14788818 233.71813965 C31.78245754 233.14477365 33.41522994 232.56625317 35.04595947 231.98205566 C38.14837119 230.88788376 40.68439318 230 44 230 C43.98912354 229.17064941 43.97824707 228.34129883 43.96704102 227.48681641 C43.90073897 218.40785659 44.30206478 209.43333183 44.9375 200.375 C45.02572828 199.02736581 45.11362007 197.67970955 45.20117188 196.33203125 C45.86931129 186.52275485 45.86931129 186.52275485 47 182 C1.79 182 -43.42 182 -90 182 C-90.99 164.51 -91.98 147.02 -93 129 C-93.80007725 116.32720452 -94.60866784 103.6554996 -95.45581055 90.98583984 C-95.71845231 87.05334615 -95.97438204 83.12042603 -96.23046875 79.1875 C-96.3085527 78.0428125 -96.38663666 76.898125 -96.46708679 75.71875 C-96.95973205 68.09633222 -97 60.67424412 -97 53 C-64.99 53 -32.98 53 0 53 C0 35.51 0 18.02 0 0 Z " fill="#FE6D01" transform="translate(256,85)"/>
<path d="M0 0 C64.35 0 128.7 0 195 0 C193 33 193 33 192 42 C143.49 42 94.98 42 45 42 C45.99 53.88 46.98 65.76 48 78 C48 80.31 48 82.62 48 85 C94.53 85 141.06 85 189 85 C187.87564362 110.86019682 187.87564362 110.86019682 187.0703125 120.55078125 C185.76488683 137.24877976 184.90091038 153.96996117 184.00842285 170.69396973 C183.78234438 174.91913428 183.55312634 179.14412857 183.32421875 183.36914062 C182.8798417 191.57926895 182.43878099 199.7895707 182 208 C180.83355957 208.37697021 179.66711914 208.75394043 178.46533203 209.14233398 C173.01748423 210.90409195 167.57096292 212.66992471 162.125 214.4375 C161.14415436 214.75579773 160.16330872 215.07409546 159.15274048 215.40203857 C147.45796598 219.20087035 135.78954234 223.05116952 124.1875 227.125 C97.31198806 236.50347797 97.31198806 236.50347797 81.03564453 230.43505859 C77.23431571 229.0524242 73.37929361 227.90879521 69.48828125 226.80859375 C59.45747435 223.9109813 49.55800736 220.63181266 39.65625 217.32397461 C36.58254198 216.29833251 33.50621167 215.28083127 30.4296875 214.26367188 C28.46598424 213.60986014 26.50243648 212.95558113 24.5390625 212.30078125 C23.62355621 211.9986824 22.70804993 211.69658356 21.76480103 211.3853302 C20.4960463 210.95929756 20.4960463 210.95929756 19.20166016 210.5246582 C18.46017731 210.27770706 17.71869446 210.03075592 16.95474243 209.77632141 C15 209 15 209 12 207 C11.52534485 205.13859558 11.52534485 205.13859558 11.3840332 202.84838867 C11.29427971 201.5601545 11.29427971 201.5601545 11.20271301 200.24589539 C11.15257553 199.3126796 11.10243805 198.37946381 11.05078125 197.41796875 C10.98843796 196.45280838 10.92609467 195.48764801 10.86186218 194.49324036 C10.73191411 192.44162287 10.60880681 190.38956259 10.49194336 188.3371582 C10.31534304 185.23740214 10.1196791 182.13935659 9.91992188 179.04101562 C9.79573617 177.04173708 9.6726565 175.04238947 9.55078125 173.04296875 C9.49457108 172.1320195 9.4383609 171.22107025 9.38044739 170.28251648 C8.97850489 163.15389249 9 156.17327243 9 149 C22.86 149 36.72 149 51 149 C52.3743628 158.6205396 53.20962668 166.56679932 53 176 C53.94637329 176.24435791 53.94637329 176.24435791 54.91186523 176.49365234 C62.736652 178.56531347 70.39320252 181.0421839 78.0625 183.625 C79.28388672 184.03234375 80.50527344 184.4396875 81.76367188 184.859375 C90.71830357 187.85915179 90.71830357 187.85915179 93 189 C98.92569355 189.46379911 103.4180611 188.13696262 108.890625 186.15625 C109.71705505 185.86770142 110.54348511 185.57915283 111.3949585 185.28186035 C114.01701931 184.36475588 116.63366607 183.43330365 119.25 182.5 C121.88131302 181.56889782 124.51365282 180.64094228 127.14788818 179.71813965 C128.78245754 179.14477365 130.41522994 178.56625317 132.04595947 177.98205566 C135.14837119 176.88788376 137.68439318 176 141 176 C140.98912354 175.17064941 140.97824707 174.34129883 140.96704102 173.48681641 C140.90073897 164.40785659 141.30206478 155.43333183 141.9375 146.375 C142.02572828 145.02736581 142.11362007 143.67970955 142.20117188 142.33203125 C142.86931129 132.52275485 142.86931129 132.52275485 144 128 C98.79 128 53.58 128 7 128 C6.01 110.51 5.02 93.02 4 75 C3.19985579 62.30205931 2.39018429 49.60528809 1.54418945 36.91040039 C1.28191962 32.97047685 1.02581015 29.03016153 0.76953125 25.08984375 C0.6914473 23.93999496 0.61336334 22.79014618 0.53291321 21.60545349 C0.46251328 20.51612015 0.39211334 19.4267868 0.31958008 18.30444336 C0.25756912 17.37176132 0.19555817 16.43907928 0.13166809 15.47813416 C-0.06351236 10.32226248 0 5.15956473 0 0 Z " fill="#FFFEFD" transform="translate(159,139)"/>
<path d="M0 0 C64.35 0 128.7 0 195 0 C193 33 193 33 192 42 C143.49 42 94.98 42 45 42 C45.99 53.88 46.98 65.76 48 78 C48 80.31 48 82.62 48 85 C64.17 85 80.34 85 97 85 C97 98.86 97 112.72 97 127 C112.51 127 128.02 127 144 127 C144 127.33 144 127.66 144 128 C98.79 128 53.58 128 7 128 C6.01 110.51 5.02 93.02 4 75 C3.19985579 62.30205931 2.39018429 49.60528809 1.54418945 36.91040039 C1.28191962 32.97047685 1.02581015 29.03016153 0.76953125 25.08984375 C0.6914473 23.93999496 0.61336334 22.79014618 0.53291321 21.60545349 C0.46251328 20.51612015 0.39211334 19.4267868 0.31958008 18.30444336 C0.25756912 17.37176132 0.19555817 16.43907928 0.13166809 15.47813416 C-0.06351236 10.32226248 0 5.15956473 0 0 Z " fill="#EEECEC" transform="translate(159,139)"/>
<path d="M0 0 C13.86 0 27.72 0 42 0 C43.3743628 9.6205396 44.20962668 17.56679932 44 27 C44.63454102 27.16363037 45.26908203 27.32726074 45.92285156 27.49584961 C53.64447879 29.53862649 61.18848298 31.99593858 68.75 34.5625 C71.09848234 35.35687736 73.44742743 36.1498882 75.796875 36.94140625 C77.33359863 37.46263062 77.33359863 37.46263062 78.90136719 37.99438477 C82.24198759 39.07853348 85.62299387 40.03514111 89 41 C88.67 55.85 88.34 70.7 88 86 C78.01396348 83.78088077 78.01396348 83.78088077 74 82.1875 C69.58462544 80.51374255 65.12450339 79.13389535 60.5859375 77.84375 C50.52391841 74.93017975 40.59068938 71.6427306 30.65625 68.32397461 C27.58254198 67.29833251 24.50621167 66.28083127 21.4296875 65.26367188 C19.46598424 64.60986014 17.50243648 63.95558113 15.5390625 63.30078125 C14.16580307 62.84763298 14.16580307 62.84763298 12.76480103 62.3853302 C11.91896454 62.10130844 11.07312805 61.81728668 10.20166016 61.5246582 C9.08943588 61.15423149 9.08943588 61.15423149 7.95474243 60.77632141 C6 60 6 60 3 58 C2.52534485 56.13859558 2.52534485 56.13859558 2.3840332 53.84838867 C2.32419754 52.98956589 2.26436188 52.1307431 2.20271301 51.24589539 C2.15257553 50.3126796 2.10243805 49.37946381 2.05078125 48.41796875 C1.98843796 47.45280838 1.92609467 46.48764801 1.86186218 45.49324036 C1.73191411 43.44162287 1.60880681 41.38956259 1.49194336 39.3371582 C1.31534304 36.23740214 1.1196791 33.13935659 0.91992188 30.04101562 C0.79573617 28.04173708 0.6726565 26.04238947 0.55078125 24.04296875 C0.49457108 23.1320195 0.4383609 22.22107025 0.38044739 21.28251648 C-0.02149511 14.15389249 0 7.17327243 0 0 Z " fill="#EDECEC" transform="translate(168,288)"/>
<path d="M0 0 C32.34 0 64.68 0 98 0 C96 33 96 33 95 42 C63.65 42 32.3 42 0 42 C0 28.14 0 14.28 0 0 Z " fill="#FFFEFE" transform="translate(256,139)"/>
<path d="M0 0 C15.51 0 31.02 0 47 0 C46.42641574 16.06035924 45.43844903 31.99658972 44 48 C38.21790344 49.99966863 32.43378769 51.99333979 26.64770508 53.98144531 C24.67903684 54.65882955 22.71093371 55.33785841 20.7434082 56.01855469 C17.91764402 56.99585452 15.08991021 57.96725039 12.26171875 58.9375 C11.38037766 59.24373291 10.49903656 59.54996582 9.59098816 59.86547852 C8.77036392 60.14576904 7.94973969 60.42605957 7.10424805 60.71484375 C6.38254929 60.96355225 5.66085052 61.21226074 4.9172821 61.46850586 C3 62 3 62 0 62 C0 41.54 0 21.08 0 0 Z " fill="#FF6D00" transform="translate(256,267)"/>
<path d="M0 0 C17.16 0 34.32 0 52 0 C52 13.86 52 27.72 52 42 C35.83 42 19.66 42 3 42 C1.78409539 28.01709701 0.73769838 14.01626916 0 0 Z " fill="#E65100" transform="translate(204,182)"/>
</svg>
