<?xml version="1.0" encoding="UTF-8"?>
<svg version="1.1" xmlns="http://www.w3.org/2000/svg" width="632" height="395">
<path d="M0 0 C0.99 0 1.98 0 3 0 C3.34611328 0.80050781 3.34611328 0.80050781 3.69921875 1.6171875 C9.2696498 14.34331061 15.37206197 24.26846007 24.7578125 34.5390625 C26.809513 36.7909289 28.81809312 39.07244442 30.8125 41.375 C32.63285373 43.47475686 34.44348316 45.43211179 36.4375 47.375 C38 49 38 49 38 51 C39.485 51.495 39.485 51.495 41 52 C43.97545815 55.42458391 46.45311892 59.24960277 49 63 C49.42909668 63.63067383 49.85819336 64.26134766 50.30029297 64.91113281 C59.07276786 77.90668789 67.05155582 91.45935868 73 106 C73.44730469 107.03382812 73.89460937 108.06765625 74.35546875 109.1328125 C78.54998348 119.11769847 81.54323409 129.30723988 84.37451172 139.75195312 C84.86870015 141.52809951 85.41199263 143.29057933 85.97265625 145.046875 C96.15688792 177.18605837 91.20379091 217.6099169 81 249 C80.79117188 249.66322266 80.58234375 250.32644531 80.3671875 251.00976562 C75.21340473 267.27853991 66.78021732 282.05676494 57.25 296.125 C56.86078369 296.70660889 56.47156738 297.28821777 56.07055664 297.88745117 C55.09931665 299.29582343 54.0552874 300.65345328 53 302 C52.34 302 51.68 302 51 302 C50.79632813 302.68320312 50.59265625 303.36640625 50.3828125 304.0703125 C48.52166332 308.01342516 45.86898199 310.74398884 42.875 313.875 C42.28678467 314.49777832 41.69856934 315.12055664 41.0925293 315.76220703 C36.20105572 320.89237107 31.20556079 325.70194957 25.43359375 329.83984375 C19.20079094 334.42145281 15.70670589 338.34665849 14 346 C12.82166944 353.81912065 12.91866107 361.54355655 13 369.4375 C13.02541088 371.95698924 13.04647732 374.47652731 13.0625 376.99609375 C13.07410156 378.10138428 13.08570313 379.2066748 13.09765625 380.34545898 C13 383 13 383 12 385 C7.34605219 385.32469403 4.76641082 384.79790518 1 382 C-0.3288204 379.34235919 -0.24755433 377.14352984 -0.39453125 374.171875 C-0.2030817 353.23938432 -0.2030817 353.23938432 -8.75390625 335.3515625 C-11.86307551 332.92666746 -11.86307551 332.92666746 -15.02734375 330.96484375 C-19.13478566 328.24993799 -22.41799496 325.74601513 -24 321 C-24.66 320.67 -25.32 320.34 -26 320 C-28 319 -28 319 -29 316 C-29.59554687 315.70738281 -30.19109375 315.41476562 -30.8046875 315.11328125 C-33.70771914 313.64110328 -35.10489497 311.73313051 -37.125 309.1875 C-38.300625 307.70830078 -38.300625 307.70830078 -39.5 306.19921875 C-40.33337917 305.13284832 -41.16671165 304.0664414 -42 303 C-42.85399415 301.92304026 -43.70816181 300.84621809 -44.5625 299.76953125 C-51.95778358 290.37742267 -58.39148853 280.55819178 -64 270 C-64.51046875 269.10152344 -65.0209375 268.20304687 -65.546875 267.27734375 C-90.67559616 220.76615574 -88.56913115 166.41157868 -74 117 C-73.70609375 115.97648437 -73.4121875 114.95296875 -73.109375 113.8984375 C-72.17525079 110.88376392 -71.12094772 107.95078139 -70 105 C-69.73300293 104.29278809 -69.46600586 103.58557617 -69.19091797 102.85693359 C-61.27064835 82.25407297 -50.06779354 63.01459911 -36 46 C-34.72489376 44.33660011 -33.45369924 42.67019 -32.1875 41 C-29.65481258 37.75296485 -26.99057889 34.84104995 -24 32 C-23.40832031 31.38769531 -22.81664062 30.77539062 -22.20703125 30.14453125 C-21.58183594 29.49871094 -20.95664062 28.85289063 -20.3125 28.1875 C-19.73113281 27.58292969 -19.14976562 26.97835938 -18.55078125 26.35546875 C-17 25 -17 25 -15 25 C-15 24.34 -15 23.68 -15 23 C-13.42578125 21.73828125 -13.42578125 21.73828125 -11.3125 20.3125 C-4.34132266 15.1920777 -1.64880719 10.48027181 -0.26171875 1.94140625 C-0.13216797 0.98041016 -0.13216797 0.98041016 0 0 Z " fill="#4EB040" transform="translate(312,0)"/>
<path d="M0 0 C0.33 0.66 0.66 1.32 1 2 C1.66 2 2.32 2 3 2 C5 5 5 5 5.625 7.8125 C7.32356889 11.75009152 9.27441702 12.85860924 12.71875 15.2421875 C17.05394789 18.58266532 20.44919707 22.86165414 24 27 C25.26953415 28.45946446 26.54025458 29.91789841 27.8125 31.375 C28.36679687 32.014375 28.92109375 32.65375 29.4921875 33.3125 C30.74991782 34.72011528 32.08550091 36.05766755 33.4375 37.375 C35 39 35 39 35 41 C35.99 41.33 36.98 41.66 38 42 C40.97545815 45.42458391 43.45311892 49.24960277 46 53 C46.42909668 53.63067383 46.85819336 54.26134766 47.30029297 54.91113281 C56.07276786 67.90668789 64.05155582 81.45935868 70 96 C70.44730469 97.03382812 70.89460938 98.06765625 71.35546875 99.1328125 C75.54998348 109.11769847 78.54323409 119.30723988 81.37451172 129.75195312 C81.86870015 131.52809951 82.41199263 133.29057933 82.97265625 135.046875 C93.15688792 167.18605837 88.20379091 207.6099169 78 239 C77.79117188 239.66322266 77.58234375 240.32644531 77.3671875 241.00976562 C72.21340473 257.27853991 63.78021732 272.05676494 54.25 286.125 C53.66617554 286.99741333 53.66617554 286.99741333 53.07055664 287.88745117 C52.09931665 289.29582343 51.0552874 290.65345328 50 292 C49.34 292 48.68 292 48 292 C47.79632813 292.68320312 47.59265625 293.36640625 47.3828125 294.0703125 C45.52160666 298.01354522 42.86879114 300.74366998 39.875 303.875 C38.99811523 304.80481689 38.99811523 304.80481689 38.10351562 305.75341797 C33.9551341 310.10921857 29.68415679 314.21921631 25 318 C24.0925 318.763125 23.185 319.52625 22.25 320.3125 C17.33333333 324 17.33333333 324 13.5 324 C9.90664804 322.56265922 8.6034659 320.36148273 7 317 C2.1255483 305.39416263 0.85158967 293.4151547 0.890625 280.953125 C0.89215576 280.09180969 0.89368652 279.23049438 0.89526367 278.34307861 C0.96236603 266.82495862 1.57367265 255.32518835 2.14550781 243.82324219 C2.98249358 226.77036893 3.11972943 209.75687659 3.01585388 192.68704224 C2.99865621 189.77224371 2.98361237 186.85743891 2.96887207 183.94262695 C2.88067339 166.75321028 2.7594479 149.56411196 2.625 132.375 C2.61472033 131.04078175 2.60445247 129.7065634 2.59419632 128.37234497 C2.26358389 85.56247527 1.60030154 42.78292368 0 0 Z " fill="#419D3A" transform="translate(315,10)"/>
<path d="M0 0 C0.33 0 0.66 0 1 0 C1.06469482 0.68400879 1.12938965 1.36801758 1.19604492 2.07275391 C2.41253389 22.91356609 2.41253389 22.91356609 10.95703125 41.37109375 C12.99057967 43.37208192 12.99057967 43.37208192 16.25 42.75 C17.1575 42.5025 18.065 42.255 19 42 C18.13375 42.680625 18.13375 42.680625 17.25 43.375 C8.68404166 53.36861807 9.87289345 67.10180925 10 79.4375 C10.02541088 81.95698924 10.04647732 84.47652731 10.0625 86.99609375 C10.07410156 88.10138428 10.08570313 89.2066748 10.09765625 90.34545898 C10 93 10 93 9 95 C4.34605219 95.32469403 1.76641082 94.79790518 -2 92 C-3.3288204 89.34235919 -3.24755433 87.14352984 -3.39453125 84.171875 C-3.49784582 61.65069429 -3.49784582 61.65069429 -14 43 C-11.36 43.66 -8.72 44.32 -6 45 C-2.35362409 30.25933141 -1.3655052 15.08202687 0 0 Z " fill="#E9EBDA" transform="translate(315,290)"/>
<path d="M0 0 C0.99 0 1.98 0 3 0 C3.34611328 0.80050781 3.34611328 0.80050781 3.69921875 1.6171875 C5.92876968 6.71078607 8.31336416 11.69356326 10.8515625 16.640625 C12.02625846 19.05394595 13.03261806 21.49723205 14 24 C10.99756307 22.49878154 9.30509817 21.59494142 7.75 18.5625 C7.11198733 16.38262338 6.49271908 14.21723587 6 12 C5.01 12 4.02 12 3 12 C2.67 12.66 2.34 13.32 2 14 C1.34 14 0.68 14 0 14 C0 14.99 0 15.98 0 17 C-3.33333333 20 -3.33333333 20 -6 20 C-6.66 23.3 -7.32 26.6 -8 30 C-11.70152678 30.92538169 -12.63458162 31.08174162 -16 30 C-16.103125 30.763125 -16.20625 31.52625 -16.3125 32.3125 C-17.04711194 35.18416484 -17.6716065 36.23042094 -20 38 C-20.66 38 -21.32 38 -22 38 C-22.33 37.34 -22.66 36.68 -23 36 C-23.20625 36.78375 -23.4125 37.5675 -23.625 38.375 C-25 41 -25 41 -27.9375 42.1875 C-28.948125 42.455625 -29.95875 42.72375 -31 43 C-31.99 43.66 -32.98 44.32 -34 45 C-32.35996677 40.98674221 -29.55124416 38.11105958 -26.625 35 C-25.90183594 34.21882813 -25.90183594 34.21882813 -25.1640625 33.421875 C-23.78582152 31.93876786 -22.39320816 30.46905617 -21 29 C-20.26523437 28.21625 -19.53046875 27.4325 -18.7734375 26.625 C-17 25 -17 25 -15 25 C-15 24.34 -15 23.68 -15 23 C-13.42578125 21.73828125 -13.42578125 21.73828125 -11.3125 20.3125 C-4.34132266 15.1920777 -1.64880719 10.48027181 -0.26171875 1.94140625 C-0.17535156 1.30074219 -0.08898437 0.66007812 0 0 Z " fill="#85C475" transform="translate(312,0)"/>
<path d="M0 0 C1.32 0.33 2.64 0.66 4 1 C3.01 3.97 2.02 6.94 1 10 C-1.31 9.67 -3.62 9.34 -6 9 C-6.103125 9.763125 -6.20625 10.52625 -6.3125 11.3125 C-7.04711194 14.18416484 -7.6716065 15.23042094 -10 17 C-10.66 17 -11.32 17 -12 17 C-12.33 16.34 -12.66 15.68 -13 15 C-13.20625 15.78375 -13.4125 16.5675 -13.625 17.375 C-15 20 -15 20 -17.9375 21.1875 C-18.948125 21.455625 -19.95875 21.72375 -21 22 C-21.99 22.66 -22.98 23.32 -24 24 C-22.35996677 19.98674221 -19.55124416 17.11105958 -16.625 14 C-16.14289063 13.47921875 -15.66078125 12.9584375 -15.1640625 12.421875 C-13.78582152 10.93876786 -12.39320816 9.46905617 -11 8 C-10.28972656 7.25105469 -9.57945312 6.50210937 -8.84765625 5.73046875 C-6.48785601 3.52033871 -3.91467 2.36017933 -1 1 C-0.67 0.67 -0.34 0.34 0 0 Z " fill="#5EB649" transform="translate(302,21)"/>
<path d="M0 0 C0.33 0 0.66 0 1 0 C1.06469482 0.68400879 1.12938965 1.36801758 1.19604492 2.07275391 C3.1540355 22.14905881 3.1540355 22.14905881 10 41 C9.01 41 8.02 41 7 41 C4 34.375 4 34.375 4 31 C3.34 30.67 2.68 30.34 2 30 C2 29.01 2 28.02 2 27 C-0.22456937 30.05878288 -1.00743654 31.59099029 -0.9375 35.4375 C-1.01370202 39.78101525 -2.37048118 41.63092901 -5 45 C-6.44670438 42.10659125 -5.48740331 40.46637015 -4.66796875 37.36328125 C-2.81105253 29.69147999 -2.01152345 22.03463267 -1.3125 14.1875 C-1.18244252 12.80135682 -1.05158698 11.41528828 -0.91992188 10.02929688 C-0.60547489 6.68684187 -0.29897737 3.34386802 0 0 Z " fill="#CFE1BB" transform="translate(315,290)"/>
<path d="M0 0 C4.72321946 3.4350687 8.23451701 7.5914407 12 12 C13.39160291 13.58705276 14.78745214 15.1703921 16.1875 16.75 C17.13689453 17.82507812 17.13689453 17.82507812 18.10546875 18.921875 C19.43172357 20.37665349 20.8155905 21.78000627 22.23828125 23.140625 C24 25 24 25 24 27 C24.99 27.33 25.98 27.66 27 28 C28.97265625 30.328125 28.97265625 30.328125 31.0625 33.25 C31.75472656 34.20390625 32.44695312 35.1578125 33.16015625 36.140625 C34.82379095 38.72614644 35.98227489 41.11029346 37 44 C36.01 43.67 35.02 43.34 34 43 C33.690625 42.360625 33.38125 41.72125 33.0625 41.0625 C32.18379086 38.849519 32.18379086 38.849519 30.0625 38.0625 C27.25009798 36.61368684 26.39247104 34.78494207 25 32 C25 31.34 25 30.68 25 30 C24.34 30 23.68 30 23 30 C22.7525 29.030625 22.505 28.06125 22.25 27.0625 C21.8375 26.051875 21.425 25.04125 21 24 C20.36191406 23.84660156 19.72382813 23.69320312 19.06640625 23.53515625 C17 23 17 23 15.76171875 21.3984375 C15.40722656 20.73070313 15.05273438 20.06296875 14.6875 19.375 C12.11084149 14.94186704 9.00429693 11.22764488 5 8 C4.34 8 3.68 8 3 8 C3 7.34 3 6.68 3 6 C2.34 6 1.68 6 1 6 C0.67 4.02 0.34 2.04 0 0 Z " fill="#9ECC9A" transform="translate(326,24)"/>
<path d="M0 0 C2.9142584 3.46013157 4.61215043 7.29037623 6.3125 11.4375 C6.76544434 12.53892334 6.76544434 12.53892334 7.22753906 13.66259766 C10.60980256 22.15367277 13.0189767 30.90406659 15.38183594 39.72265625 C15.90928502 41.66580199 16.47070076 43.59967477 17.0390625 45.53125 C18.51175755 50.54116589 19.34844091 54.77338629 19 60 C18.67 60 18.34 60 18 60 C17.01 54.72 16.02 49.44 15 44 C14.34 44 13.68 44 13 44 C6.59562607 27.08747856 6.59562607 27.08747856 7 19 C6.34 19 5.68 19 5 19 C4.70996094 17.75283203 4.70996094 17.75283203 4.4140625 16.48046875 C4.15367187 15.39378906 3.89328125 14.30710937 3.625 13.1875 C3.36976563 12.10855469 3.11453125 11.02960938 2.8515625 9.91796875 C2.11267119 6.84466657 2.11267119 6.84466657 0 4 C0 2.68 0 1.36 0 0 Z " fill="#9BCB97" transform="translate(381,100)"/>
<path d="M0 0 C0.87087881 3.20807649 1.05105915 5.73579644 0.75 9.0625 C0.68296875 9.91972656 0.6159375 10.77695313 0.546875 11.66015625 C-0.08395279 14.35919801 -0.96697566 15.19522643 -3 17 C-3.71447643 19.10332891 -3.71447643 19.10332891 -4 21 C-4.66 21 -5.32 21 -6 21 C-6.66 25.95 -7.32 30.9 -8 36 C-9.485 36.495 -9.485 36.495 -11 37 C-10.37907401 30.59623314 -8.97235188 24.67390453 -7.1875 18.5 C-6.93935547 17.60152344 -6.69121094 16.70304687 -6.43554688 15.77734375 C-4.82314847 10.14010354 -2.78077626 5.16343704 0 0 Z " fill="#93C98C" transform="translate(245,99)"/>
<path d="M0 0 C0.66 0 1.32 0 2 0 C1.46684515 2.31033767 0.82868141 4.4604187 0 6.6875 C-2.62140532 15.37090511 -2.09248166 24.46215493 -2 33.4375 C-1.97458912 35.95698924 -1.95352268 38.47652731 -1.9375 40.99609375 C-1.92589844 42.10138428 -1.91429687 43.2066748 -1.90234375 44.34545898 C-2 47 -2 47 -3 49 C-8.41538462 49.36923077 -8.41538462 49.36923077 -11.375 47.5 C-11.91125 47.005 -12.4475 46.51 -13 46 C-10.36 46.33 -7.72 46.66 -5 47 C-3.81050298 43.29225074 -3.9328195 39.83226498 -4.0078125 35.9609375 C-4.02534771 34.5612054 -4.04225414 33.16146531 -4.05859375 31.76171875 C-4.08934497 29.57642963 -4.12464593 27.39155161 -4.17138672 25.20654297 C-4.34127613 16.80942472 -4.44681876 8.86144135 -1 1 C-0.67 0.67 -0.34 0.34 0 0 Z " fill="#FDFDF8" transform="translate(327,336)"/>
<path d="M0 0 C3.50454929 1.65492605 5.32013515 3.20461191 7.125 6.5625 C8.74475639 10.16555096 8.74475639 10.16555096 12 12 C12 13.32 12 14.64 12 16 C13.32 16.33 14.64 16.66 16 17 C16.33 19.31 16.66 21.62 17 24 C13.41063615 20.55015206 10.35247603 17.01089555 7.375 13 C6.24191406 11.4840625 6.24191406 11.4840625 5.0859375 9.9375 C0 2.7752809 0 2.7752809 0 0 Z " fill="#84C181" transform="translate(255,280)"/>
<path d="M0 0 C0.33 0 0.66 0 1 0 C1.12118066 8.34800068 1.15724883 16.7135269 0 25 C-0.33 25.33 -0.66 25.66 -1 26 C-1.39943176 28.52195967 -1.75079848 31.02963656 -2.0625 33.5625 C-2.15337891 34.27341797 -2.24425781 34.98433594 -2.33789062 35.71679688 C-2.56239503 37.47738403 -2.78168397 39.23863478 -3 41 C-3.33 41 -3.66 41 -4 41 C-3.64262923 27.10597743 -2.51059045 13.67403354 0 0 Z " fill="#8DC388" transform="translate(233,136)"/>
<path d="M0 0 C0.33 0.66 0.66 1.32 1 2 C-0.72861157 6.36701869 -1.91644014 7.95822007 -6 10 C-6.2165625 11.11375 -6.2165625 11.11375 -6.4375 12.25 C-7.25469439 16.24517259 -9.19786678 18.06117736 -12 21 C-12.66 21 -13.32 21 -14 21 C-14 21.99 -14 22.98 -14 24 C-14.66 24 -15.32 24 -16 24 C-12.96996047 15.41488801 -6.38911349 6.38911349 0 0 Z " fill="#A1D298" transform="translate(277,45)"/>
<path d="M0 0 C0.99 0.495 0.99 0.495 2 1 C2.30859375 2.8984375 2.30859375 2.8984375 2.4375 5.375 C3.15858275 14.07772284 5.32195567 22.57016488 10 30 C12.6147267 31.12815365 12.6147267 31.12815365 15 31 C14.67 31.66 14.34 32.32 14 33 C11.75 32.875 11.75 32.875 9 32 C2.73274561 24.97307841 -0.20106442 13.47131628 -0.0625 4.1875 C-0.05347656 3.39730469 -0.04445313 2.60710937 -0.03515625 1.79296875 C-0.02355469 1.20128906 -0.01195312 0.60960937 0 0 Z " fill="#579551" transform="translate(317,301)"/>
<path d="M0 0 C0.33 0 0.66 0 1 0 C1.33 4.62 1.66 9.24 2 14 C1.67 14 1.34 14 1 14 C0.66178803 16.85366354 0.3293022 19.70780596 0 22.5625 C-0.09539062 23.36236328 -0.19078125 24.16222656 -0.2890625 24.98632812 C-0.71009608 28.67037192 -0.99746372 32.15724939 -0.9375 35.875 C-1.01854731 39.92736567 -2.54922627 41.85994616 -5 45 C-6.44670438 42.10659125 -5.48740331 40.46637015 -4.66796875 37.36328125 C-2.81105253 29.69147999 -2.01152345 22.03463267 -1.3125 14.1875 C-1.18244252 12.80135682 -1.05158698 11.41528828 -0.91992188 10.02929688 C-0.60547489 6.68684187 -0.29897737 3.34386802 0 0 Z " fill="#C3DFB1" transform="translate(315,290)"/>
<path d="M0 0 C2.69220239 2.29715095 3.43216389 3.90883374 4 7.375 C4.7229727 11.14303567 5.85339901 13.78009852 8 17 C8 17.66 8 18.32 8 19 C6.0085944 19.38133299 4.00720923 19.71325582 2 20 C1 19 1 19 0.9375 15.9375 C0.958125 14.968125 0.97875 13.99875 1 13 C1.33 13 1.66 13 2 13 C2.33 11.35 2.66 9.7 3 8 C2.01 7.67 1.02 7.34 0 7 C0 4.69 0 2.38 0 0 Z " fill="#4AA141" transform="translate(377,92)"/>
<path d="M0 0 C1.32 0 2.64 0 4 0 C2.50328459 4.49014624 0.16631659 8.47848764 -3 12 C-3.66 12 -4.32 12 -5 12 C-5.226875 12.7425 -5.45375 13.485 -5.6875 14.25 C-7.24407532 17.51139591 -9.08518854 18.92894975 -12 21 C-10.84826645 18.53199953 -9.95216435 16.95216435 -8 15 C-7.29289322 13.35008418 -6.62056011 11.68437744 -6 10 C-5.34 10 -4.68 10 -4 10 C-4 8.35 -4 6.7 -4 5 C-3.01 4.67 -2.02 4.34 -1 4 C-0.26676204 1.98491642 -0.26676204 1.98491642 0 0 Z " fill="#98C596" transform="translate(368,290)"/>
<path d="M0 0 C0.66 0.33 1.32 0.66 2 1 C1.44570313 1.49628906 0.89140625 1.99257813 0.3203125 2.50390625 C-4.6441632 6.92400382 -4.6441632 6.92400382 -7.125 12.875 C-7.558125 14.421875 -7.558125 14.421875 -8 16 C-10.9375 17.3125 -10.9375 17.3125 -14 18 C-14.99 18.66 -15.98 19.32 -17 20 C-15.35996677 15.98674221 -12.55124416 13.11105958 -9.625 10 C-9.14289063 9.47921875 -8.66078125 8.9584375 -8.1640625 8.421875 C-5.50002964 5.55514398 -2.78689283 2.74726877 0 0 Z " fill="#B6E1AC" transform="translate(295,25)"/>
<path d="M0 0 C0.47905362 6.86643527 -1.00047747 13.44193299 -3 20 C-3.66 20.66 -4.32 21.32 -5 22 C-4.91911825 18.89476646 -4.8062811 15.79149667 -4.6875 12.6875 C-4.66494141 11.80642578 -4.64238281 10.92535156 -4.61914062 10.01757812 C-4.58369141 9.17001953 -4.54824219 8.32246094 -4.51171875 7.44921875 C-4.48553467 6.66893311 -4.45935059 5.88864746 -4.43237305 5.0847168 C-3.96198224 2.81669473 -2.70350835 0 0 0 Z " fill="#9BC797" transform="translate(400,216)"/>
<path d="M0 0 C1.69636983 4.07542508 0.14844185 7.45009138 -1.25 11.375 C-1.57677734 12.34566406 -1.57677734 12.34566406 -1.91015625 13.3359375 C-3.31103787 17.39931342 -4.99945579 21.198966 -7 25 C-8.52713961 21.94572078 -7.4452876 19.7092749 -6.6875 16.4375 C-6.42324219 15.26058594 -6.15898437 14.08367187 -5.88671875 12.87109375 C-5.59410156 11.92363281 -5.30148437 10.97617188 -5 10 C-4.34 9.67 -3.68 9.34 -3 9 C-2.09274566 6.88672575 -2.09274566 6.88672575 -1.375 4.4375 C-0.98441406 3.19806641 -0.98441406 3.19806641 -0.5859375 1.93359375 C-0.39257812 1.29550781 -0.19921875 0.65742188 0 0 Z " fill="#ACD4A9" transform="translate(394,239)"/>
<path d="M0 0 C0.33 0.99 0.66 1.98 1 3 C0.109375 4.6484375 0.109375 4.6484375 -1.25 6.375 C-2.90344345 8.53825518 -4.34962203 10.58686555 -5.75 12.9375 C-6.1625 13.618125 -6.575 14.29875 -7 15 C-7.33 15 -7.66 15 -8 15 C-8.625 11.625 -8.625 11.625 -9 8 C-8.34 7.34 -7.68 6.68 -7 6 C-6.34 6.33 -5.68 6.66 -5 7 C-4.67 5.68 -4.34 4.36 -4 3 C-3.01 3 -2.02 3 -1 3 C-0.67 2.01 -0.34 1.02 0 0 Z " fill="#77B176" transform="translate(380,275)"/>
<path d="M0 0 C3.1755394 3.69180808 4.80710155 7.85633791 6.625 12.3125 C6.93695313 13.04662109 7.24890625 13.78074219 7.5703125 14.53710938 C9.43303606 19.06144009 10.52373317 23.1279191 11 28 C9 26 9 26 8.0625 23.0625 C7.28643465 20.04480854 7.28643465 20.04480854 5.5 18.62109375 C3.53006783 16.4921306 3.3731878 14.84254565 2.9375 12 C2.39260956 8.51270117 2.01369592 7.02054387 0 4 C0 2.68 0 1.36 0 0 Z " fill="#BDE0B9" transform="translate(381,100)"/>
<path d="M0 0 C0.33 0.66 0.66 1.32 1 2 C0.35330586 3.34313399 -0.31903578 4.67391178 -1 6 C-1.2475 7.051875 -1.495 8.10375 -1.75 9.1875 C-3.25862992 14.80836309 -6.91905634 19.91905634 -11 24 C-10.3768443 19.11062454 -8.28672194 15.19747025 -6.0625 10.875 C-5.70220703 10.15957031 -5.34191406 9.44414063 -4.97070312 8.70703125 C-3.43066268 5.67232909 -1.89255759 2.83883639 0 0 Z " fill="#BEE4B8" transform="translate(257,74)"/>
<path d="M0 0 C3.99421201 2.90488146 7.03458038 6.23210729 10.21875 9.9609375 C12.68369753 12.78265375 15.31884445 15.38423849 18 18 C17.67 18.66 17.34 19.32 17 20 C16.15695312 19.13375 15.31390625 18.2675 14.4453125 17.375 C13.33880643 16.24973959 12.23202112 15.12475372 11.125 14 C10.56941406 13.42765625 10.01382812 12.8553125 9.44140625 12.265625 C7.99865596 10.80549218 6.5025626 9.39850702 5 8 C4.34 8 3.68 8 3 8 C3 7.34 3 6.68 3 6 C2.34 6 1.68 6 1 6 C0.67 4.02 0.34 2.04 0 0 Z " fill="#CAEBC9" transform="translate(326,24)"/>
<path d="M0 0 C2.72810161 2.72810161 3.92296238 4.49313243 5.5625 7.875 C6.18318359 9.13957031 6.18318359 9.13957031 6.81640625 10.4296875 C7.96521211 12.92445402 9.00467741 15.44059905 10 18 C6.83282717 16.41641358 5.26731682 15.54736301 3.6875 12.3125 C3.460625 11.549375 3.23375 10.78625 3 10 C2.67 10 2.34 10 2 10 C1.34 6.7 0.68 3.4 0 0 Z " fill="#A7D5A2" transform="translate(316,6)"/>
<path d="M0 0 C0.8971875 0.5259375 0.8971875 0.5259375 1.8125 1.0625 C4.10813214 2.33304698 4.10813214 2.33304698 7 1 C7.66 2.98 8.32 4.96 9 7 C9.66 7 10.32 7 11 7 C11.66 8.65 12.32 10.3 13 12 C9.84296394 10.57401292 7.41971432 8.8370866 4.8125 6.5625 C4.11769531 5.96566406 3.42289062 5.36882812 2.70703125 4.75390625 C1 3 1 3 0 0 Z " fill="#A8D7A3" transform="translate(288,321)"/>
<path d="M0 0 C1.01573289 3.04719867 1.0097124 3.98833004 0.44140625 7.01171875 C0.30283203 7.76904297 0.16425781 8.52636719 0.02148438 9.30664062 C-0.12998047 10.09232422 -0.28144531 10.87800781 -0.4375 11.6875 C-0.58509766 12.48478516 -0.73269531 13.28207031 -0.88476562 14.10351562 C-1.24984964 16.07025852 -1.62405289 18.03530467 -2 20 C-2.99 20.33 -3.98 20.66 -5 21 C-4.42351925 13.64987044 -2.28953836 6.98575424 0 0 Z " fill="#B7DCB1" transform="translate(239,115)"/>
<path d="M0 0 C3.16326376 2.90882733 5.21466613 5.78479699 7.25 9.5625 C8.03117187 10.98755859 8.03117187 10.98755859 8.828125 12.44140625 C10 15 10 15 10 18 C9.01 18 8.02 18 7 18 C6.67 16.02 6.34 14.04 6 12 C5.34 12 4.68 12 4 12 C4 10.35 4 8.7 4 7 C3.01 7 2.02 7 1 7 C0.67 4.69 0.34 2.38 0 0 Z " fill="#ABD3A7" transform="translate(367,74)"/>
<path d="M0 0 C1 2 1 2 0.43359375 3.83984375 C-1.91954929 8.79528616 -3.67152568 11.00182213 -9 13 C-9.78375 13.391875 -10.5675 13.78375 -11.375 14.1875 C-11.91125 14.455625 -12.4475 14.72375 -13 15 C-13 14.34 -13 13.68 -13 13 C-11.42578125 11.73828125 -11.42578125 11.73828125 -9.3125 10.3125 C-5.17555202 7.33654275 -2.73615941 4.27524908 0 0 Z " fill="#B9E1AE" transform="translate(310,10)"/>
<path d="M0 0 C4.85737231 2.29375915 6.90790705 5.21956762 9 10 C9.75 12.9375 9.75 12.9375 10 15 C5.81340142 11.17225273 2.62179138 7.05392126 0 2 C0 1.34 0 0.68 0 0 Z " fill="#A6D4A2" transform="translate(255,280)"/>
<path d="M0 0 C0.33 0.66 0.66 1.32 1 2 C-0.89467269 7.12676141 -3.31614016 9.29376987 -8 12 C-6.49087042 7.01987239 -3.44338151 3.75740058 0 0 Z " fill="#AAD7A1" transform="translate(277,45)"/>
<path d="M0 0 C0 3 0 3 -1.42578125 4.46484375 C-2.04839844 4.95082031 -2.67101562 5.43679688 -3.3125 5.9375 C-5.96874049 8.09367902 -8.11068229 10.11045526 -10 13 C-10.66 12.67 -11.32 12.34 -12 12 C-11.375 9.6875 -11.375 9.6875 -10 7 C-8.03533587 5.93224776 -6.03144641 4.93446535 -4 4 C-1.68581709 1.93832739 -1.68581709 1.93832739 0 0 Z " fill="#BDDBBB" transform="translate(353,313)"/>
<path d="M0 0 C0.33 0.99 0.66 1.98 1 3 C-0.11375 3.556875 -0.11375 3.556875 -1.25 4.125 C-4.47464465 6.32362135 -6.00778279 8.67963799 -8 12 C-8.33 11.34 -8.66 10.68 -9 10 C-7.10532731 4.87323859 -4.68385984 2.70623013 0 0 Z " fill="#5EB14B" transform="translate(285,40)"/>
<path d="M0 0 C0.58265625 0.22558594 1.1653125 0.45117188 1.765625 0.68359375 C-0.40594819 2.9637456 -2.53361104 5.04676711 -5.234375 6.68359375 C-7.36328125 6.26171875 -7.36328125 6.26171875 -9.234375 5.68359375 C-8.16544282 4.64769037 -7.07859012 3.63025433 -5.984375 2.62109375 C-5.38109375 2.05261719 -4.7778125 1.48414062 -4.15625 0.8984375 C-2.234375 -0.31640625 -2.234375 -0.31640625 0 0 Z " fill="#68B554" transform="translate(304.234375,21.31640625)"/>
<path d="M0 0 C0.99 0 1.98 0 3 0 C2.54663921 4.87362847 1.2910841 7.39042389 -2 11 C-2.25 3.375 -2.25 3.375 0 0 Z " fill="#9DC79A" transform="translate(383,264)"/>
<path d="M0 0 C0.66 0 1.32 0 2 0 C1.19429304 3.49422385 0.08208283 6.85317353 -1.0625 10.25 C-1.42472656 11.32765625 -1.78695313 12.4053125 -2.16015625 13.515625 C-2.43730469 14.33546875 -2.71445312 15.1553125 -3 16 C-3.33 16 -3.66 16 -4 16 C-2.58823529 2.58823529 -2.58823529 2.58823529 0 0 Z " fill="#F8F8F0" transform="translate(327,336)"/>
<path d="M0 0 C4.455 1.98 4.455 1.98 9 4 C9 5.65 9 7.3 9 9 C7.0625 8.1875 7.0625 8.1875 5 7 C4.67 6.01 4.34 5.02 4 4 C1.99983534 2.79117904 1.99983534 2.79117904 0 2 C0 1.34 0 0.68 0 0 Z " fill="#A7D4A2" transform="translate(279,312)"/>
<path d="M0 0 C1.32129824 0.734389 2.63183171 1.48816894 3.9375 2.25 C4.66839844 2.66765625 5.39929688 3.0853125 6.15234375 3.515625 C8.31857318 5.25593617 8.63594751 6.29561004 9 9 C8.01 8.67 7.02 8.34 6 8 C6 7.34 6 6.68 6 6 C5.071875 5.9071875 5.071875 5.9071875 4.125 5.8125 C2 5 2 5 0.75 2.4375 C0.5025 1.633125 0.255 0.82875 0 0 Z " fill="#8FC48C" transform="translate(341,42)"/>
<path d="M0 0 C-0.375 1.9375 -0.375 1.9375 -1 4 C-1.99 4.495 -1.99 4.495 -3 5 C-3.33 5.99 -3.66 6.98 -4 8 C-4.99 8.33 -5.98 8.66 -7 9 C-6.53149863 4.78348764 -4.94559315 0 0 0 Z " fill="#399637" transform="translate(368,290)"/>
<path d="M0 0 C1.32 0 2.64 0 4 0 C2.6062718 4.43458973 0.39417765 6.87378374 -3 10 C-2.01 6.7 -1.02 3.4 0 0 Z " fill="#A6CCA2" transform="translate(368,290)"/>
<path d="M0 0 C0.33 0.99 0.66 1.98 1 3 C0.0390625 4.82421875 0.0390625 4.82421875 -1.375 6.6875 C-1.83648437 7.31011719 -2.29796875 7.93273437 -2.7734375 8.57421875 C-3.17820312 9.04472656 -3.58296875 9.51523437 -4 10 C-4.33 10 -4.66 10 -5 10 C-4.67 7.69 -4.34 5.38 -4 3 C-3.01 3 -2.02 3 -1 3 C-0.67 2.01 -0.34 1.02 0 0 Z " fill="#A8D0A6" transform="translate(380,275)"/>
<path d="M0 0 C1.60031344 3.20062687 0.03173691 5.72271806 -1 9 C-1.99 8.67 -2.98 8.34 -4 8 C-3.6875 5.125 -3.6875 5.125 -3 2 C-2.01 1.34 -1.02 0.68 0 0 Z " fill="#42A839" transform="translate(255,264)"/>
<path d="M0 0 C2.89932357 2.39509338 3.50168276 4.31245243 4 8 C2.68 7.67 1.36 7.34 0 7 C0 4.69 0 2.38 0 0 Z " fill="#9ACB97" transform="translate(377,92)"/>
<path d="M0 0 C0.66 0.33 1.32 0.66 2 1 C-3.75 6 -3.75 6 -6 6 C-6.33 5.01 -6.66 4.02 -7 3 C-4.69631264 1.93347808 -2.35981813 0.93578995 0 0 Z " fill="#90C18F" transform="translate(339,326)"/>
<path d="M0 0 C0.33 0 0.66 0 1 0 C1.33 4.62 1.66 9.24 2 14 C1.01 14 0.02 14 -1 14 C-0.67 9.38 -0.34 4.76 0 0 Z " fill="#A6DB93" transform="translate(315,290)"/>
<path d="M0 0 C0.33 1.32 0.66 2.64 1 4 C0.34 4 -0.32 4 -1 4 C-0.67 5.98 -0.34 7.96 0 10 C-1.32 10.33 -2.64 10.66 -4 11 C-3.5247412 9.35303396 -3.04468109 7.70745272 -2.5625 6.0625 C-2.29566406 5.14597656 -2.02882813 4.22945313 -1.75390625 3.28515625 C-1 1 -1 1 0 0 Z " fill="#89C37E" transform="translate(260,69)"/>
<path d="M0 0 C1.65 1.32 3.3 2.64 5 4 C4.67 5.32 4.34 6.64 4 8 C3.67 7.34 3.34 6.68 3 6 C2.34 6 1.68 6 1 6 C0.67 4.02 0.34 2.04 0 0 Z " fill="#9ECD99" transform="translate(326,24)"/>
<path d="M0 0 C1.9375 0.5625 1.9375 0.5625 4 2 C4.75 5.625 4.75 5.625 5 9 C1.7457985 6.16569547 0.4793247 4.31392226 0 0 Z " fill="#ACD8A7" transform="translate(250,271)"/>
<path d="M0 0 C1.32 0.33 2.64 0.66 4 1 C4.1875 3.375 4.1875 3.375 4 6 C3.01 6.66 2.02 7.32 1 8 C0.67 5.36 0.34 2.72 0 0 Z " fill="#40903C" transform="translate(336,320)"/>
<path d="M0 0 C0.66 0 1.32 0 2 0 C2.625 2.375 2.625 2.375 3 5 C2.34 5.66 1.68 6.32 1 7 C0.01 7 -0.98 7 -2 7 C-2 6.01 -2 5.02 -2 4 C-1.34 4 -0.68 4 0 4 C0 2.68 0 1.36 0 0 Z " fill="#57AF49" transform="translate(261,69)"/>
<path d="M0 0 C2.31 1.98 4.62 3.96 7 6 C6.34 6.66 5.68 7.32 5 8 C1.91763635 5.21592961 1.04793663 4.19174654 0 0 Z " fill="#519F49" transform="translate(330,31)"/>
<path d="M0 0 C2.50037734 2.17424117 3.43628586 3.73045798 4 7 C2.35 6.67 0.7 6.34 -1 6 C-0.67 4.02 -0.34 2.04 0 0 Z " fill="#58A050" transform="translate(381,104)"/>
</svg>
