<?xml version="1.0" encoding="UTF-8"?>
<svg version="1.1" xmlns="http://www.w3.org/2000/svg" width="612" height="408">
<path d="M0 0 C1.65926183 -0.00576172 1.65926183 -0.00576172 3.35204411 -0.01163983 C4.56204295 -0.01077335 5.7720418 -0.00990687 7.01870728 -0.00901413 C8.95308608 -0.01347081 8.95308608 -0.01347081 10.92654324 -0.01801753 C14.50445141 -0.02607612 18.0823395 -0.02787647 21.66025567 -0.028615 C25.52003532 -0.0304676 29.3798046 -0.0380161 33.23957825 -0.04475021 C41.67996707 -0.05832715 50.12035113 -0.06435759 58.56074905 -0.06876087 C63.83391673 -0.07152504 69.10708258 -0.07576278 74.38024902 -0.08026505 C88.98765447 -0.09245813 103.59505845 -0.10275655 118.20246887 -0.10614014 C119.60464915 -0.10646949 119.60464915 -0.10646949 121.03515631 -0.10680549 C122.44065187 -0.10713291 122.44065187 -0.10713291 123.87454128 -0.10746694 C125.77318255 -0.1079104 127.67182382 -0.10835696 129.57046509 -0.10880661 C130.9831461 -0.10913875 130.9831461 -0.10913875 132.42436612 -0.10947761 C147.67305718 -0.11342273 162.92170038 -0.13086786 178.17037296 -0.15416613 C193.83595784 -0.17790758 209.50151873 -0.1903433 225.16712189 -0.19150805 C233.9586396 -0.19242338 242.75009497 -0.19813949 251.54159546 -0.21632767 C259.03049965 -0.23176655 266.51932224 -0.23682693 274.00823933 -0.22858956 C277.82554838 -0.22469609 281.64269331 -0.22554841 285.45998192 -0.23964691 C289.60882455 -0.25482897 293.75730112 -0.24648063 297.90615845 -0.23606491 C299.69438806 -0.24814952 299.69438806 -0.24814952 301.51874352 -0.26047826 C314.22813676 -0.18616574 324.65177563 2.45040998 335.47036743 9.13142776 C336.52224243 9.70892776 337.57411743 10.28642776 338.65786743 10.88142776 C349.37975526 19.45893803 353.85235305 30.85385721 355.47036743 44.13142776 C355.75472841 49.90141511 355.75471193 55.66198776 355.74502563 61.43782425 C355.74938048 63.16379897 355.75456619 64.88977176 355.76051331 66.61574173 C355.77383024 71.27486043 355.77449025 75.93389764 355.77195001 80.59303164 C355.77087549 84.4944244 355.7757758 88.39580098 355.78055543 92.29719025 C355.79162496 101.50635284 355.79210217 110.71547464 355.78604126 119.92464066 C355.78000066 129.4001184 355.79232056 138.87544769 355.81361133 148.35090011 C355.83126684 156.5109118 355.83722254 164.67087639 355.83397359 172.83090645 C355.83216717 177.69371431 355.83473275 182.5564162 355.84868813 187.41920662 C355.86132664 191.9936514 355.8592658 196.56786575 355.84627724 201.14230728 C355.84392512 202.81272398 355.8465967 204.4831572 355.85490036 206.15355492 C355.93164646 222.80356626 353.68223406 237.37936765 341.90396118 249.83455276 C329.34677018 261.6862836 315.12648291 263.56910671 298.47036743 263.13142776 C296.94545614 260.08160518 297.32675309 256.91020237 297.34536743 253.56892776 C297.34150024 252.87090042 297.33763306 252.17287308 297.33364868 251.45369339 C297.34372749 246.25806771 297.34372749 246.25806771 298.47036743 245.13142776 C300.20965869 245.05525443 301.9493802 244.98444873 303.68984985 244.94319534 C312.29566347 244.69659088 320.69186357 243.77901371 327.18130493 237.46736526 C328.33150254 236.0645231 329.40948504 234.60297431 330.47036743 233.13142776 C331.13036743 233.13142776 331.79036743 233.13142776 332.47036743 233.13142776 C332.75911743 232.22392776 333.04786743 231.31642776 333.34536743 230.38142776 C334.47036743 227.13142776 334.47036743 227.13142776 335.52354527 225.38599968 C336.85226987 222.22204209 336.75634031 219.18322583 336.74452209 215.80827713 C336.74975877 215.06870856 336.75499545 214.32913999 336.76039082 213.56716025 C336.77539837 211.08771431 336.77609614 208.60847461 336.77676392 206.12898636 C336.78438512 204.35153734 336.79281255 202.57409162 336.80198669 200.79664993 C336.82394772 195.96578457 336.83273323 191.13498251 336.83781314 186.30407286 C336.84145607 183.28410053 336.84769594 180.26414478 336.85481453 177.24417877 C336.8793186 166.70284421 336.89236213 156.16155888 336.89590454 145.6201973 C336.89953629 135.80449309 336.9294034 125.98910224 336.97130913 116.17349374 C337.00604703 107.74019471 337.02145362 99.30699929 337.02215058 90.87362921 C337.02294246 85.83966357 337.03163991 80.80601678 337.06014824 75.77212524 C337.08638744 71.03270072 337.08850147 66.29385799 337.0724926 61.55439377 C337.07068252 59.82024107 337.07732887 58.08605448 337.09331131 56.35197449 C337.17541219 46.86105176 336.79611363 39.33468354 331.47036743 31.13142776 C330.94945605 30.04432038 330.94945605 30.04432038 330.4180212 28.93525124 C329.15791684 26.53668976 327.92977337 26.22449707 325.47036743 25.13142776 C324.56286743 24.47142776 323.65536743 23.81142776 322.72036743 23.13142776 C315.17454934 18.4878474 307.21591678 18.84354825 298.61700439 18.87073135 C296.68785629 18.86499303 296.68785629 18.86499303 294.7197355 18.85913879 C291.16558974 18.84888323 287.61154513 18.85103434 284.05739117 18.85531938 C280.21816618 18.85779105 276.37896526 18.84876697 272.53974915 18.84128189 C265.02433163 18.82854512 257.50894986 18.82673992 249.99352337 18.82908215 C243.88347906 18.83086662 237.77344558 18.82911292 231.66340256 18.82485771 C230.79313492 18.82426252 229.92286727 18.82366733 229.02622788 18.82305411 C227.25816247 18.82184233 225.49009705 18.8206282 223.72203164 18.81941173 C207.14822431 18.80854013 190.57443734 18.81069689 174.00062887 18.81679658 C158.84709618 18.8219654 143.69362778 18.81071054 128.5401078 18.79169836 C112.97048931 18.77231427 97.40090122 18.76406496 81.83127058 18.76782161 C73.09411273 18.76973279 64.35700959 18.76725421 55.6198616 18.75310707 C48.18180914 18.74118504 40.74384509 18.73979761 33.30579139 18.75189724 C29.51314042 18.75778015 25.72065108 18.75890172 21.92801094 18.74689484 C17.8111122 18.7340132 13.69459704 18.74451438 9.57769775 18.75720596 C8.38663441 18.74983168 7.19557107 18.74245739 5.9684149 18.73485965 C-4.86078554 18.80502494 -13.41830272 20.73691311 -21.52963257 28.13142776 C-29.06378625 36.08414554 -30.64443971 44.69378092 -30.67007446 55.40446854 C-30.67304559 56.10238687 -30.67601671 56.80030521 -30.67907786 57.51937258 C-30.68769547 59.83977711 -30.68926716 62.16012964 -30.69076538 64.48054886 C-30.69539836 66.15168745 -30.70042366 67.822825 -30.70581055 69.49396133 C-30.71888748 74.02086586 -30.72536989 78.54775559 -30.72982121 83.07467604 C-30.73275861 85.90586767 -30.73686459 88.73705532 -30.74132538 91.56824493 C-30.75498583 100.4353141 -30.76466046 109.30237407 -30.76852727 118.16945302 C-30.77300926 128.38936262 -30.79056981 138.60913855 -30.81952786 148.82900751 C-30.84116505 156.74090388 -30.85123258 164.65276269 -30.85256839 172.56468832 C-30.85361464 177.28494836 -30.85948465 182.00508251 -30.877388 186.72531128 C-30.8939047 191.16589609 -30.89600678 195.60626082 -30.88724899 200.04686546 C-30.88648063 201.67177992 -30.89079469 203.2967064 -30.90070724 204.92159081 C-31.02050302 219.6363006 -31.02050302 219.6363006 -24.52963257 232.56892776 C-24.03463257 233.2070137 -23.53963257 233.84509964 -23.02963257 234.50252151 C-21.42964036 236.36876055 -21.42964036 236.36876055 -18.52963257 238.13142776 C-18.52963257 238.79142776 -18.52963257 239.45142776 -18.52963257 240.13142776 C-16.92088257 240.56455276 -16.92088257 240.56455276 -15.27963257 241.00642776 C-11.52963257 242.13142776 -11.52963257 242.13142776 -9.59310913 243.16218948 C-7.24011683 244.26741658 -5.34800736 244.53234285 -2.76400757 244.76424026 C-1.87455444 244.84802933 -0.98510132 244.93181839 -0.06869507 245.01814651 C0.85169556 245.09677933 1.77208618 245.17541214 2.72036743 245.25642776 C4.12415649 245.38597855 4.12415649 245.38597855 5.55630493 245.51814651 C7.86044097 245.72975084 10.16498787 245.93391453 12.47036743 246.13142776 C12.65001743 247.547448 12.82323355 248.96428528 12.99380493 250.38142776 C13.09096802 251.17033401 13.1881311 251.95924026 13.28823853 252.77205276 C13.54373483 256.08186014 13.14659267 258.88554664 12.47036743 262.13142776 C10.52181353 264.07998167 6.93326644 263.37075297 4.28286743 263.38142776 C-11.55699762 263.37254294 -24.65385375 259.52011634 -36.26791382 248.52595901 C-48.97298072 235.07482601 -49.83280434 218.88865096 -49.82015991 201.25569534 C-49.82615541 199.57561828 -49.83296328 197.89554396 -49.84051514 196.21547318 C-49.85807944 191.680056 -49.86286648 187.14471443 -49.86414671 182.60926652 C-49.86557443 179.76727225 -49.86985575 176.92529683 -49.87514114 174.08330727 C-49.89361052 164.14450117 -49.90181573 154.2057485 -49.90023804 144.26692581 C-49.89903783 135.04142408 -49.9201245 125.81615675 -49.95172536 116.59071428 C-49.97798429 108.63785555 -49.9886013 100.68507292 -49.98732722 92.73217124 C-49.98682036 87.99662524 -49.99234916 83.26128777 -50.01368332 78.52578545 C-50.03322844 74.06618514 -50.03308056 69.60698881 -50.01865005 65.1473732 C-50.01658078 63.52378299 -50.02114848 61.90016639 -50.03337097 60.27662086 C-50.14558562 44.31942435 -48.22925809 28.16306659 -36.90463257 16.00642776 C-26.84465597 6.531553 -13.98342616 0.01827028 0 0 Z " fill="#F0C714" transform="translate(152.52963256835938,47.86857223510742)"/>
<path d="M0 0 C5.99199669 4.98472138 9.60332658 9.97068088 10.38031673 17.86317158 C10.39791562 19.28850138 10.39945338 20.71409076 10.38768005 22.13948059 C10.39306559 22.93061506 10.39845113 23.72174954 10.40399987 24.53685778 C10.41824292 27.17292606 10.41118482 29.80848957 10.40405273 32.44458008 C10.4097583 34.34069725 10.41672328 36.23681098 10.42485046 38.13291931 C10.44277856 43.27355778 10.44161385 48.4140255 10.43590808 53.55468583 C10.43281504 57.85123949 10.43891013 62.14776041 10.44494683 66.44430941 C10.45898996 76.58440135 10.45743314 86.72440904 10.44604492 96.86450195 C10.43456996 107.31245476 10.44862948 117.76015068 10.4754414 128.20806962 C10.4976231 137.1892028 10.50423002 146.17025548 10.49836498 155.1514141 C10.4949994 160.51055437 10.4973838 165.86953008 10.51461601 171.22864723 C10.53012186 176.27092845 10.52608915 181.31283039 10.50731087 186.35509682 C10.50363475 188.20050486 10.50670482 190.04594122 10.51719666 191.89132309 C10.62467839 212.36727569 10.62467839 212.36727569 4.69434261 219.59025288 C-1.21135113 225.09893817 -8.33744124 226.55727412 -16.16796875 226.37109375 C-20.79387975 225.76493989 -24.82818468 224.02708597 -29 222 C-29 221.34 -29 220.68 -29 220 C-29.99 219.67 -30.98 219.34 -32 219 C-36.12354637 212.57211889 -37.1491059 207.94373206 -37.14717102 200.29721069 C-37.15084771 199.5168066 -37.1545244 198.7364025 -37.1583125 197.9323498 C-37.16933409 195.31475648 -37.17319061 192.69720288 -37.17700195 190.07958984 C-37.18326781 188.20362218 -37.18991472 186.32765575 -37.19691467 184.45169067 C-37.21794481 178.28811506 -37.22831681 172.12453922 -37.23828125 165.9609375 C-37.24232934 163.83760185 -37.24644628 161.71426633 -37.25063133 159.59093094 C-37.26968153 149.61379879 -37.28391233 139.63667402 -37.2922433 129.65952718 C-37.30201226 118.15081728 -37.32832369 106.64229989 -37.36874419 95.13365781 C-37.39892882 86.23328057 -37.41371445 77.33295843 -37.41702431 68.432531 C-37.41937232 63.11915267 -37.42830026 57.80598003 -37.45348549 52.49265671 C-37.47681188 47.49066458 -37.48098103 42.48901292 -37.47072411 37.48698044 C-37.47022973 35.6560757 -37.47652106 33.82515395 -37.49028015 31.99430084 C-37.56978296 20.78352024 -37.46191725 11.00546882 -29.875 2.0625 C-21.7013795 -5.30944344 -9.13504576 -6.09003051 0 0 Z " fill="#F1C711" transform="translate(425,125)"/>
<path d="M0 0 C5.91885372 3.4969428 10.4605783 8.5220536 12.27486229 15.20482254 C13.19964063 20.34863357 12.97247311 25.61079761 12.9621582 30.81982422 C12.96651084 32.16584555 12.97169582 33.51186442 12.97764587 34.85787964 C12.99098848 38.49847732 12.99161981 42.13897087 12.98908257 45.77958822 C12.98800954 48.82611198 12.99290476 51.87261497 12.997688 54.91913426 C13.008767 62.11065623 13.00922978 69.30212597 13.00317383 76.49365234 C12.99713605 83.8957867 13.00944369 91.29773088 13.0307439 98.6998328 C13.04839696 105.07035016 13.05435539 111.44080718 13.05110615 117.81134808 C13.0492989 121.60940103 13.05187336 125.40731832 13.06582069 129.20534897 C13.07845481 132.77922749 13.07640271 136.35281101 13.06340981 139.92668533 C13.05994089 141.85123728 13.07118101 143.77579847 13.08297729 145.70031738 C13.03255527 154.06342341 12.11993879 160.70825718 7.5625 167.8125 C2.21196724 172.81408497 -2.99909201 174.7205067 -10.3125 175 C-18.20769527 174.67897554 -23.76342817 172.48493517 -29.25 166.75 C-35.43049261 159.79511943 -34.60049169 150.16712784 -34.57128906 141.44970703 C-34.5747937 140.15762329 -34.57829834 138.86553955 -34.58190918 137.53430176 C-34.59098172 134.00938445 -34.58750978 130.48458499 -34.58115101 126.95966578 C-34.57606214 123.25678869 -34.58079065 119.55392121 -34.58392334 115.8510437 C-34.58755551 109.63228559 -34.58278453 103.41357509 -34.57324219 97.19482422 C-34.56236865 90.02618752 -34.56587821 82.85766469 -34.576895 75.68903077 C-34.58600072 69.51465675 -34.58723686 63.34031683 -34.58201766 57.16593826 C-34.57891473 53.4869506 -34.57844195 49.80801627 -34.58509064 46.12903214 C-34.5919946 42.02231468 -34.58239794 37.91579027 -34.57128906 33.80908203 C-34.57533752 32.60460419 -34.57938599 31.40012634 -34.58355713 30.15914917 C-34.50364507 14.15190846 -34.50364507 14.15190846 -30.625 7.6875 C-22.17106885 -0.30946189 -11.50737502 -5.07942726 0 0 Z " fill="#F1C711" transform="translate(283.3125,176.5)"/>
<path d="M0 0 C6.24418287 5.98931827 9.6968295 11.29253845 10.0945797 20.09251785 C10.13692187 22.58835976 10.14654148 25.08240958 10.14526367 27.57861328 C10.14862228 28.52581741 10.1519809 29.47302155 10.15544128 30.44892883 C10.16492015 33.57273683 10.16689312 36.69649102 10.16796875 39.8203125 C10.17118437 42.00259421 10.17454867 44.18487572 10.17805481 46.36715698 C10.18403907 50.9417165 10.18589552 55.51625715 10.18530273 60.09082031 C10.18520136 65.92769896 10.19883094 71.76445528 10.21607494 77.60130501 C10.22724407 82.11057074 10.22922041 86.6198074 10.22869301 91.12908554 C10.2298666 93.27947281 10.23425316 95.42986099 10.24202538 97.58023453 C10.33183086 125.00257566 10.33183086 125.00257566 6.25 132 C-0.99887447 138.44344397 -7.37488556 140.45536972 -16.94140625 140.3359375 C-21.44832202 139.84092504 -25.08344265 138.21542638 -29 136 C-29 135.34 -29 134.68 -29 134 C-29.66 134 -30.32 134 -31 134 C-36.78997557 126.76253054 -37.29935337 118.95003395 -37.2746582 109.99487305 C-37.27976913 109.02626343 -37.28488007 108.05765381 -37.29014587 107.05969238 C-37.3039766 103.87697057 -37.3030898 100.69446693 -37.30078125 97.51171875 C-37.30467213 95.2850588 -37.30900761 93.05839959 -37.31376648 90.83174133 C-37.32121498 86.17076204 -37.32094761 81.50985851 -37.31567383 76.84887695 C-37.30988519 70.89754423 -37.32680249 64.94652333 -37.3500185 58.99524212 C-37.36480413 54.39765125 -37.3656209 49.80013462 -37.36250877 45.20252419 C-37.36301969 43.0094421 -37.36821401 40.8163556 -37.37832069 38.62329674 C-37.39075973 35.54643312 -37.38384844 32.47016577 -37.37231445 29.39331055 C-37.38378006 28.05484825 -37.38378006 28.05484825 -37.39547729 26.68934631 C-37.3134932 16.71483032 -35.33346479 8.04894772 -28.234375 0.8203125 C-20.03877209 -5.85652484 -8.86851499 -5.18724462 0 0 Z " fill="#F2C810" transform="translate(356,211)"/>
<path d="M0 0 C5.45842613 2.70612328 9.2939911 6.84128971 12.24609375 12.14453125 C13.32572546 15.52097057 13.39090744 18.69132637 13.4230957 22.22314453 C13.44234856 24.06623703 13.44234856 24.06623703 13.46199036 25.94656372 C13.47016135 27.28598626 13.47760439 28.6254134 13.484375 29.96484375 C13.48845053 30.64374538 13.49252605 31.32264702 13.49672508 32.02212143 C13.51755602 35.61923666 13.53186764 39.21631415 13.54125977 42.81347656 C13.55228719 46.50523409 13.58665205 50.19638274 13.62643147 53.8879261 C13.65274596 56.74664325 13.66096485 59.60521891 13.66454124 62.46404648 C13.67170338 64.47905866 13.69808115 66.49397354 13.72492981 68.50881958 C13.70740649 75.98183518 13.24084043 82.64361173 9.24609375 89.14453125 C3.41105188 94.9494618 -2.45526792 97.1917663 -10.62890625 97.51953125 C-17.19721429 97.38133665 -21.53756747 95.97256489 -26.46875 91.63671875 C-33.8244942 83.90329575 -34.20042246 74.74867974 -34.1171875 64.55078125 C-34.117686 63.36407837 -34.11818451 62.17737549 -34.11869812 60.95471191 C-34.11636772 58.45693275 -34.10670068 55.95915079 -34.09008789 53.46142578 C-34.06647964 49.65635999 -34.06953761 45.85199558 -34.07617188 42.046875 C-34.07059464 39.61067294 -34.06348447 37.17447381 -34.0546875 34.73828125 C-34.05559891 33.60990845 -34.05651031 32.48153564 -34.05744934 31.31896973 C-33.96085328 20.46142973 -32.80784124 11.30352368 -24.953125 3.3125 C-17.8029972 -2.43722612 -8.58468082 -2.66673064 0 0 Z " fill="#F1C815" transform="translate(213.75390625,253.85546875)"/>
<path d="M0 0 C3.62894849 2.41929899 3.64829848 3.44640073 4.625 7.5625 C5.23713942 11.07903271 5.23713942 11.07903271 7 14 C8.35729238 22.58399456 8.14098675 31.23389943 8.12939453 39.89916992 C8.13075125 41.60502662 8.13253271 43.31088303 8.13470459 45.01673889 C8.13924566 49.62803934 8.13750336 54.2393173 8.1343255 58.85061812 C8.13178592 63.68445504 8.13414378 68.51829008 8.13571167 73.35212708 C8.13752818 81.46481673 8.13514011 89.57749727 8.13037109 97.69018555 C8.12492397 107.06457981 8.12669649 116.43895234 8.1321975 125.81334609 C8.13673683 133.87215523 8.13737532 141.93095784 8.13475883 149.98976785 C8.13320129 154.798721 8.13298809 159.60766394 8.13629532 164.41661644 C8.13918612 168.9351357 8.13717606 173.45362694 8.13140106 177.97214317 C8.1300802 179.62895155 8.13045614 181.2857623 8.13266373 182.94256973 C8.13540156 185.20618559 8.13196198 187.46971197 8.12698364 189.73332214 C8.12660662 190.99923785 8.12622959 192.26515356 8.12584114 193.56943035 C8.00721783 196.80323399 7.61337993 199.82650194 7 203 C6.34 203 5.68 203 5 203 C5.05542969 203.87140625 5.11085938 204.7428125 5.16796875 205.640625 C5.20897149 213.21793141 4.22033001 218.03156276 -0.9375 223.5 C-10.92354818 233.58296821 -22.70580438 238.663863 -36.828125 239.125 C-40.22118828 239.125 -43.60819458 239.08912773 -47 239 C-48.52491129 235.95017742 -48.14361434 232.77877461 -48.125 229.4375 C-48.12886719 228.73947266 -48.13273437 228.04144531 -48.13671875 227.32226562 C-48.12663994 222.12663994 -48.12663994 222.12663994 -47 221 C-45.26070874 220.92382666 -43.52098723 220.85302096 -41.78051758 220.81176758 C-33.33791969 220.56984015 -24.69984557 219.76999252 -18.4296875 213.40625 C-17.28550513 211.93824244 -16.14268838 210.46917077 -15 209 C-11.6875 207.625 -11.6875 207.625 -9 207 C-8.67 204.69 -8.34 202.38 -8 200 C-7.34 200 -6.68 200 -6 200 C-5.99668985 199.10069448 -5.99337971 198.20138897 -5.98996925 197.27483177 C-5.90858885 175.34702272 -5.81644763 153.41928161 -5.71247292 131.49156761 C-5.66244747 120.88729658 -5.61600374 110.28303289 -5.578125 99.67871094 C-5.5450833 90.43112339 -5.50518565 81.18359456 -5.45720994 71.93607199 C-5.43206552 67.04401722 -5.41024928 62.15200078 -5.39665604 57.25989914 C-5.38372544 52.64538516 -5.3615552 48.03100351 -5.33261681 43.41656303 C-5.32362623 41.7324982 -5.31787101 40.04841211 -5.31578636 38.36432457 C-5.2779506 12.4169259 -5.2779506 12.4169259 -1 6 C-0.60986284 4.0103005 -0.26797351 2.00980131 0 0 Z " fill="#F2C710" transform="translate(498,72)"/>
<path d="M0 0 C10.24718834 2.62748419 17.32806463 9.31846627 23 18 C29.36004612 29.98406316 29.29681865 43.09234869 29.2746582 56.30639648 C29.27901305 58.0323712 29.28419876 59.758344 29.29014587 61.48431396 C29.30346281 66.14343266 29.30412282 70.80246988 29.30158257 75.46160388 C29.30050806 79.36299663 29.30540837 83.26437322 29.310188 87.16576248 C29.32125753 96.37492508 29.32173474 105.58404687 29.31567383 114.79321289 C29.30963323 124.26869064 29.32195313 133.74401992 29.3432439 143.21947235 C29.36089941 151.37948403 29.36685511 159.53944862 29.36360615 167.69947869 C29.36179973 172.56228654 29.36436532 177.42498843 29.37832069 182.28777885 C29.39095921 186.86222364 29.38889837 191.43643799 29.37590981 196.01087952 C29.37355769 197.68129621 29.37622927 199.35172944 29.38453293 201.02212715 C29.43673568 212.34747646 28.3776771 222.4262632 24 233 C22.62567543 229.18243176 23.32024961 225.92744671 24 222 C24.66 222 25.32 222 26 222 C26.02337495 198.68635329 26.04100176 175.37270852 26.05181217 152.05905247 C26.05696536 141.23378164 26.06398945 130.4085181 26.07543945 119.58325195 C26.08541614 110.14641071 26.09186054 100.70957475 26.09408849 91.27272838 C26.09539053 86.27742448 26.09844428 81.28213568 26.10573006 76.28683662 C26.11253735 71.58129513 26.11460739 66.87577491 26.11310768 62.17022896 C26.11338189 60.44695927 26.115359 58.72368885 26.11920547 57.00042343 C26.4885549 42.37946875 26.4885549 42.37946875 23.5625 28.1875 C23.19318359 27.12595703 23.19318359 27.12595703 22.81640625 26.04296875 C21.98507515 23.96265216 21.03176548 21.98760017 20 20 C19.71125 20.86625 19.4225 21.7325 19.125 22.625 C18.43942821 24.68171537 17.71883423 26.72772316 16.9375 28.75 C14.13928562 38.45047651 14.83664817 48.93979596 14.81054688 58.95263672 C14.80259159 60.65203551 14.79420264 62.35143233 14.78541565 64.05082703 C14.76745059 67.69185681 14.7524032 71.33288249 14.73963928 74.97393417 C14.71932102 80.7307084 14.69168589 86.48743356 14.66296387 92.24417114 C14.59795532 105.49398953 14.54230661 118.743844 14.48697662 131.99370575 C14.43611205 144.15837426 14.38326286 156.32302473 14.32245111 168.48764813 C14.29411392 174.21176609 14.27051546 179.93587815 14.25052643 185.66003108 C14.23714747 189.21438902 14.21973598 192.76871884 14.20121574 196.32305336 C14.19345649 197.97263313 14.18738831 199.62222184 14.18312263 201.27181435 C14.17707898 203.52076555 14.16503239 205.76960746 14.15148926 208.01852417 C14.14633553 209.2776103 14.14118179 210.53669643 14.13587189 211.83393669 C14.02459585 214.42687182 13.77164671 216.54023885 13 219 C12.34 219 11.68 219 11 219 C11 221.31 11 223.62 11 226 C9.35 226.66 7.7 227.32 6 228 C7.8076724 222.31874388 7.8076724 222.31874388 9.05317783 220.25457191 C10.38190244 217.09061433 10.28597288 214.05179807 10.27415466 210.67684937 C10.27939134 209.93728079 10.28462802 209.19771222 10.29002339 208.43573248 C10.30503094 205.95628654 10.30572871 203.47704685 10.30639648 200.99755859 C10.31401769 199.22010957 10.32244512 197.44266385 10.33161926 195.66522217 C10.35358029 190.8343568 10.3623658 186.00355474 10.36744571 181.17264509 C10.37108864 178.15267276 10.37732851 175.13271702 10.3844471 172.11275101 C10.40895117 161.57141644 10.4219947 151.03013112 10.42553711 140.48876953 C10.42916886 130.67306532 10.45903597 120.85767448 10.50094169 111.04206598 C10.5356796 102.60876694 10.55108619 94.17557152 10.55178314 85.74220145 C10.55257503 80.7082358 10.56127248 75.67458902 10.58978081 70.64069748 C10.61602001 65.90127295 10.61813404 61.16243022 10.60212517 56.422966 C10.60031508 54.6888133 10.60696144 52.95462672 10.62294388 51.22054672 C10.70504475 41.72962399 10.32574619 34.20325577 5 26 C4.47908862 24.91289262 4.47908862 24.91289262 3.94765377 23.80382347 C2.68754941 21.405262 1.45940594 21.09306931 -1 20 C-1.9075 19.34 -2.815 18.68 -3.75 18 C-11.29207071 13.35872572 -19.24520863 13.71210277 -27.83990479 13.73930359 C-29.12459239 13.73547804 -30.40927999 13.73165249 -31.73289752 13.72771102 C-35.28318209 13.71745545 -38.83336539 13.7196066 -42.38365817 13.72389162 C-46.21883141 13.72636334 -50.05398055 13.71733906 -53.8891449 13.70985413 C-61.39721241 13.69711676 -68.90524414 13.69531229 -76.41332063 13.69765439 C-82.51858041 13.69943905 -88.62382935 13.69768472 -94.72908783 13.69342995 C-95.59877803 13.69283476 -96.46846822 13.69223957 -97.36451267 13.69162634 C-99.13144662 13.69041456 -100.89838057 13.68920042 -102.66531453 13.68798397 C-119.2296446 13.6771118 -135.7939543 13.67926919 -152.35828552 13.68536881 C-167.49753406 13.69053573 -182.63671822 13.6792879 -197.77595404 13.66027059 C-213.33428207 13.64087726 -228.89257967 13.63263894 -244.45091987 13.63639385 C-253.1803167 13.63830387 -261.90965876 13.63583786 -270.63904572 13.62167931 C-278.07191731 13.60974535 -285.50470043 13.60838304 -292.93757328 13.62046947 C-296.72642156 13.62634451 -300.51510818 13.62749599 -304.30394554 13.61546707 C-308.42014438 13.6025513 -312.53596106 13.61310557 -316.65216064 13.6257782 C-318.43001713 13.61471677 -318.43001713 13.61471677 -320.24378991 13.60343188 C-327.88512296 13.6527655 -334.67869606 14.81593102 -342 17 C-342 16.01 -342 15.02 -342 14 C-340.35 14 -338.7 14 -337 14 C-337 13.34 -337 12.68 -337 12 C-295.62273566 11.93132846 -254.24547789 11.87846845 -212.86816785 11.84680401 C-207.98283121 11.84305191 -203.09749468 11.83916894 -198.2121582 11.83520508 C-197.23957858 11.83441815 -196.26699896 11.83363122 -195.26494723 11.83282044 C-179.51855142 11.8197677 -163.77218847 11.79611457 -148.02581216 11.76854161 C-131.86772343 11.74048376 -115.70965192 11.72382293 -99.55153984 11.71773452 C-89.58169755 11.71361887 -79.61194817 11.70062139 -69.64213448 11.6762506 C-62.80479949 11.66038874 -55.96751251 11.65560067 -49.13016046 11.65949587 C-45.18578776 11.66141671 -41.24157739 11.6584789 -37.29723358 11.64238358 C-33.68280061 11.62774246 -30.06863853 11.62707475 -26.45419287 11.63730332 C-24.53416778 11.63916316 -22.61414569 11.62626221 -20.6941672 11.61275607 C-13.80157158 11.64844766 -8.40530083 12.41351947 -2 15 C0.12038635 12.38485683 2.13091744 9.80362384 4 7 C4.99 7 5.98 7 7 7 C7 6.01 7 5.02 7 4 C6.21625 3.896875 5.4325 3.79375 4.625 3.6875 C2 3 2 3 0 0 Z " fill="#F0D543" transform="translate(479,53)"/>
<path d="M0 0 C0.66 0 1.32 0 2 0 C2.495 1.485 2.495 1.485 3 3 C1.02 3.66 -0.96 4.32 -3 5 C-3 5.99 -3 6.98 -3 8 C-4.32 8.33 -5.64 8.66 -7 9 C-7 9.66 -7 10.32 -7 11 C-10.08809695 12.76462683 -11.23312136 13 -15 13 C-15 13.66 -15 14.32 -15 15 C-14.01 15.1546875 -14.01 15.1546875 -13 15.3125 C-9.16158991 16.19213564 -5.66903309 17.56969896 -2 19 C-2.99 20.32 -3.98 21.64 -5 23 C-3.02 23 -1.04 23 1 23 C1 22.34 1 21.68 1 21 C1.66 20.34 2.32 19.68 3 19 C3.99 19 4.98 19 6 19 C6 18.34 6 17.68 6 17 C5.34 16.67 4.68 16.34 4 16 C4.66 15.67 5.32 15.34 6 15 C6.99 15.33 7.98 15.66 9 16 C8.505 13.03 8.505 13.03 8 10 C8.99 10 9.98 10 11 10 C11 10.66 11 11.32 11 12 C11.99 12 12.98 12 14 12 C14.33 10.68 14.66 9.36 15 8 C15.66 8 16.32 8 17 8 C17.33 6.68 17.66 5.36 18 4 C18.80078125 5.6328125 18.80078125 5.6328125 19 8 C17.46819614 10.19527978 16.02237164 11.96230346 14.1875 13.875 C13.68847168 14.40657715 13.18944336 14.9381543 12.67529297 15.48583984 C3.23801538 25.20322608 -8.39362191 29.68632235 -21.828125 30.125 C-25.22118828 30.125 -28.60819458 30.08912773 -32 30 C-33.52491129 26.95017742 -33.14361434 23.77877461 -33.125 20.4375 C-33.12886719 19.73947266 -33.13273437 19.04144531 -33.13671875 18.32226562 C-33.12663994 13.12663994 -33.12663994 13.12663994 -32 12 C-30.26070874 11.92382666 -28.52098723 11.85302096 -26.78051758 11.81176758 C-18.17470396 11.56516311 -9.77850386 10.64758595 -3.2890625 4.3359375 C-2.13886489 2.93309533 -1.06088239 1.47154654 0 0 Z " fill="#EFC711" transform="translate(483,281)"/>
<path d="M0 0 C1.11419164 -0.00199105 2.22838328 -0.0039821 3.3763383 -0.00603348 C5.20463791 -0.00166422 5.20463791 -0.00166422 7.06987286 0.00279331 C8.36863108 0.00193889 9.6673893 0.00108446 11.00550383 0.00020415 C14.60851713 -0.00203207 18.21150071 0.00196855 21.81451023 0.00698221 C25.70062088 0.01129903 29.58672984 0.00983941 33.47284222 0.00907993 C40.20516959 0.00855548 46.93748727 0.01169408 53.6698122 0.01731777 C63.40363426 0.02544341 73.13745162 0.02804909 82.8712767 0.02930576 C98.66360824 0.03149461 114.45593462 0.03815016 130.24826336 0.04760838 C145.58940893 0.05678682 160.9305531 0.06386554 176.27170086 0.06811619 C177.21726484 0.06837891 178.16282882 0.06864164 179.13704626 0.06891232 C183.88064366 0.07021735 188.62424108 0.07148106 193.3678385 0.07272422 C232.72324741 0.08309162 272.07865055 0.10070539 311.43405437 0.12304783 C311.43405437 0.45304783 311.43405437 0.78304783 311.43405437 1.12304783 C294.20494134 1.27533615 276.97576822 1.42015935 259.74655437 1.56054783 C259.07069916 1.56606206 258.39484394 1.5715763 257.69850826 1.57725763 C197.44434732 2.06826209 137.18944157 2.38789403 76.93405437 2.68554783 C75.81153412 2.69109731 74.68901387 2.6966468 73.53247786 2.70236444 C44.49968548 2.84583126 15.46687831 2.98611957 -13.56594563 3.12304783 C-9.13901552 0.17176109 -5.23035688 -0.00206652 0 0 Z " fill="#EDD369" transform="translate(152.56594562530518,47.876952171325684)"/>
<path d="M0 0 C7.86277063 6.55230886 9.75909644 16.22276389 11 26 C11.2881077 31.7697466 11.28434437 37.53063329 11.2746582 43.30639648 C11.27901305 45.0323712 11.28419876 46.758344 11.29014587 48.48431396 C11.30346281 53.14343266 11.30412282 57.80246988 11.30158257 62.46160388 C11.30050806 66.36299663 11.30540837 70.26437322 11.310188 74.16576248 C11.32125753 83.37492508 11.32173474 92.58404687 11.31567383 101.79321289 C11.30963323 111.26869064 11.32195313 120.74401992 11.3432439 130.21947235 C11.36089941 138.37948403 11.36685511 146.53944862 11.36360615 154.69947869 C11.36179973 159.56228654 11.36436532 164.42498843 11.37832069 169.28777885 C11.39095921 173.86222364 11.38889837 178.43643799 11.37590981 183.01087952 C11.37355769 184.68129621 11.37622927 186.35172944 11.38453293 188.02212715 C11.43673568 199.34747646 10.3776771 209.4262632 6 220 C4.62567543 216.18243176 5.32024961 212.92744671 6 209 C6.66 209 7.32 209 8 209 C8.02337495 185.68635329 8.04100176 162.37270852 8.05181217 139.05905247 C8.05696536 128.23378164 8.06398945 117.4085181 8.07543945 106.58325195 C8.08541614 97.14641071 8.09186054 87.70957475 8.09408849 78.27272838 C8.09539053 73.27742448 8.09844428 68.28213568 8.10573006 63.28683662 C8.11253735 58.58129513 8.11460739 53.87577491 8.11310768 49.17022896 C8.11338189 47.44695927 8.115359 45.72368885 8.11920547 44.00042343 C8.38958027 24.86158076 8.38958027 24.86158076 1.8125 7.1875 C0 4 0 4 0 0 Z " fill="#E2BE26" transform="translate(497,66)"/>
<path d="M0 0 C2 1 2 1 3 3 C1.68 3 0.36 3 -1 3 C-1.226875 3.556875 -1.45375 4.11375 -1.6875 4.6875 C-3.35475652 7.62504721 -5.61811438 9.61811438 -8 12 C-8.69748583 13.31747324 -9.36959957 14.64914193 -10 16 C-10.47824219 16.41636719 -10.95648438 16.83273438 -11.44921875 17.26171875 C-13.513465 19.57554641 -13.9479338 21.69401776 -14.6875 24.6875 C-14.93886719 25.68136719 -15.19023438 26.67523438 -15.44921875 27.69921875 C-15.63097656 28.45847656 -15.81273438 29.21773437 -16 30 C-16.66 30 -17.32 30 -18 30 C-17.67 92.37 -17.34 154.74 -17 219 C-19.99823383 213.00353233 -20.12449797 207.32222713 -20.14717102 200.69813538 C-20.15084771 199.9969889 -20.1545244 199.29584242 -20.1583125 198.57344908 C-20.16925861 196.24174811 -20.17317766 193.91009184 -20.17700195 191.57836914 C-20.18327363 189.89888368 -20.18992105 188.2193996 -20.19691467 186.53991699 C-20.21787964 181.03833976 -20.22831233 175.53676251 -20.23828125 170.03515625 C-20.24233211 168.13390018 -20.24644913 166.23264426 -20.25063133 164.33138847 C-20.2696691 155.39329391 -20.28390116 146.4552075 -20.2922433 137.51709658 C-20.30200033 127.23552728 -20.32828568 116.95417413 -20.36874419 106.67268091 C-20.39901794 98.70292714 -20.41372293 90.73323492 -20.41702431 82.76342481 C-20.41936259 78.01439162 -20.42816206 73.26558969 -20.45348549 68.51661873 C-20.47696825 64.04067403 -20.48091937 59.56510957 -20.47072411 55.08911896 C-20.47023345 53.45907505 -20.47641256 51.8290111 -20.49028015 50.19902611 C-20.62044686 33.97289509 -18.67500588 17.68668186 -6.875 5.5625 C-4.63962767 3.40975817 -2.59675025 1.73116683 0 0 Z " fill="#E6D06F" transform="translate(123,58)"/>
<path d="M0 0 C0.66 0.33 1.32 0.66 2 1 C2.07017518 18.83750506 2.12302979 36.67497414 2.15543652 54.51258755 C2.17088549 62.79546672 2.19193722 71.07825997 2.22631836 79.36108398 C2.25628118 86.58294184 2.27558931 93.80473744 2.28226548 101.02665573 C2.28616612 104.84831296 2.29529176 108.66979214 2.31719017 112.49139214 C2.3376643 116.09387114 2.34381194 119.6961 2.33932304 123.29863167 C2.34053236 125.23997323 2.35661704 127.181288 2.3732605 129.12255859 C2.3442442 137.37944936 1.72324618 144.77183801 -3.4375 151.5 C-5.79374911 153.79877962 -6.78109121 154.76156231 -10 155 C-9.67 154.01 -9.34 153.02 -9 152 C-8.01 152 -7.02 152 -6 152 C-6 151.01 -6 150.02 -6 149 C-5.34 149 -4.68 149 -4 149 C-4 148.34 -4 147.68 -4 147 C-3.34 146.67 -2.68 146.34 -2 146 C-1.99576806 145.33868796 -1.99153612 144.67737593 -1.98717594 143.99602413 C-1.88349535 127.84276033 -1.77480488 111.68953859 -1.66066074 95.53634548 C-1.60557821 87.72452114 -1.55213976 79.91269225 -1.50268555 72.10083008 C-1.45953516 65.28540911 -1.41318407 58.47001837 -1.36312145 51.65464455 C-1.33676619 48.05197878 -1.311924 44.44931805 -1.29092598 40.84661674 C-1.26732179 36.80712347 -1.23656579 32.76771291 -1.20532227 28.72827148 C-1.1995668 27.55725388 -1.19381134 26.38623627 -1.18788147 25.17973328 C-1.1144142 16.75231136 -0.6349946 8.40113423 0 0 Z " fill="#E8C739" transform="translate(294,193)"/>
<path d="M0 0 C0.33 0 0.66 0 1 0 C1.125 5.75 1.125 5.75 0 8 C-0.09766585 10.4952118 -0.13456838 12.96249133 -0.12698364 15.45796204 C-0.12854363 16.23610156 -0.13010362 17.01424108 -0.13171089 17.81596059 C-0.13571685 20.43762875 -0.13253275 23.05923955 -0.12939453 25.6809082 C-0.13074878 27.55484043 -0.13252885 29.4287724 -0.13470459 31.30270386 C-0.13927701 36.40400473 -0.13748989 41.50528545 -0.1343255 46.60658669 C-0.1317998 51.9387494 -0.13414014 57.27091035 -0.13571167 62.60307312 C-0.13753322 71.56212678 -0.13512793 80.5211722 -0.13037109 89.48022461 C-0.12493348 99.84117268 -0.12668755 110.20210107 -0.1321975 120.56304866 C-0.13673497 129.45056874 -0.13737591 138.33808289 -0.13475883 147.22560376 C-0.13319892 152.53709211 -0.13299441 157.84857121 -0.13629532 163.16005898 C-0.13918304 168.15617291 -0.13718169 173.15226146 -0.13140106 178.14837265 C-0.1300781 179.98297648 -0.13045973 181.81758245 -0.13266373 183.65218544 C-0.13539352 186.15518153 -0.13197156 188.65809615 -0.12698364 191.16108704 C-0.12921436 191.88832971 -0.13144509 192.61557239 -0.13374341 193.36485273 C-0.11954142 197.03578072 0.12606548 200.42999798 1 204 C1.99 204.33 2.98 204.66 4 205 C4.33 207.31 4.66 209.62 5 212 C1.3297936 210.77659787 0.70074059 209.16295121 -1.1328125 205.88671875 C-3.17618835 201.44099562 -3.14616672 197.10653754 -3.14044189 192.28375244 C-3.14341302 191.50193722 -3.14638414 190.72012199 -3.1494453 189.91461539 C-3.15812352 187.29234996 -3.15963981 184.67013022 -3.16113281 182.04785156 C-3.16576162 180.16863915 -3.17078636 178.28942767 -3.17617798 176.41021729 C-3.18929823 171.30264223 -3.19574625 166.19508031 -3.20018864 161.08749104 C-3.20312005 157.89601019 -3.207225 154.70453293 -3.21169281 151.51305389 C-3.22536695 141.52631276 -3.23503393 131.53957983 -3.2388947 121.55282998 C-3.24337495 110.0271551 -3.26092168 98.50159883 -3.2898953 86.97596002 C-3.31151689 78.06542221 -3.32159924 69.15491777 -3.32293582 60.24435401 C-3.32398353 54.92325515 -3.32988418 49.60226782 -3.34775543 44.28119659 C-3.36424424 39.27432683 -3.36638763 34.26765233 -3.35761642 29.26076508 C-3.35684648 27.42580136 -3.36118316 25.59082711 -3.37107468 23.75588989 C-3.3838129 21.24508937 -3.37790742 18.73497846 -3.36749268 16.22418213 C-3.37554908 15.50315127 -3.38360548 14.7821204 -3.39190602 14.03924012 C-3.34054087 8.72119598 -2.04475056 4.82587959 0 0 Z " fill="#EFDF7B" transform="translate(391,133)"/>
<path d="M0 0 C-1.00313062 2.23775292 -1.84476835 3.8507388 -3.625 5.5625 C-5.34561132 7.02978279 -5.34561132 7.02978279 -5 10 C-6.50219631 11.13628387 -6.50219631 11.13628387 -8.448349 12.35339355 C-10.96576329 14.42927823 -11.89006599 15.53669478 -12.65139961 18.74525452 C-12.87661294 22.29500647 -12.88815597 25.7891346 -12.82641602 29.34570312 C-12.82771682 30.70629984 -12.83207472 32.06689655 -12.83924866 33.42747498 C-12.84977793 37.11189024 -12.81691612 40.79476655 -12.7756207 44.47891808 C-12.73920695 48.33978224 -12.74105471 52.20063744 -12.73826599 56.06164551 C-12.72813437 62.54478234 -12.69196109 69.02734081 -12.63793945 75.51025391 C-12.56878131 83.82290091 -12.54102598 92.13513427 -12.52694798 100.44803619 C-12.51464885 107.605478 -12.48491689 114.76283144 -12.4515636 121.92020226 C-12.44141962 124.21572423 -12.4333428 126.51124737 -12.42541695 128.80677795 C-12.41169546 132.41840548 -12.38712959 136.02981108 -12.35426903 139.64131355 C-12.33861935 141.5938375 -12.33245762 143.54643031 -12.32659912 145.49900818 C-12.31373367 146.66815262 -12.30086823 147.83729706 -12.28761292 149.04187012 C-12.28036477 150.05358025 -12.27311663 151.06529037 -12.26564884 152.10765839 C-11.96837753 155.34430037 -11.23569718 157.99720216 -10 161 C-9.34 161.33 -8.68 161.66 -8 162 C-7.71382813 162.79792969 -7.42765625 163.59585938 -7.1328125 164.41796875 C-5.77401838 167.51508223 -4.95443572 168.04419004 -1.875 169.3125 C5.21030257 171.90697109 12.57814834 171.3314971 20 171 C16.79165144 174.20834856 13.72715503 174.20566415 9.375 174.3125 C2.36860297 174.21953213 -2.69722137 172.85987728 -8.0390625 168.234375 C-15.62868937 160.30118477 -15.29380634 151.40288723 -15.25878906 140.94970703 C-15.2622937 139.65762329 -15.26579834 138.36553955 -15.26940918 137.03430176 C-15.27848172 133.50938445 -15.27500978 129.98458499 -15.26865101 126.45966578 C-15.26356214 122.75678869 -15.26829065 119.05392121 -15.27142334 115.3510437 C-15.27505551 109.13228559 -15.27028453 102.91357509 -15.26074219 96.69482422 C-15.24986865 89.52618752 -15.25337821 82.35766469 -15.264395 75.18903077 C-15.27350072 69.01465675 -15.27473686 62.84031683 -15.26951766 56.66593826 C-15.26641473 52.9869506 -15.26594195 49.30801627 -15.27259064 45.62903214 C-15.2794946 41.52231468 -15.26989794 37.41579027 -15.25878906 33.30908203 C-15.26283752 32.10460419 -15.26688599 30.90012634 -15.27105713 29.65914917 C-15.19114507 13.65190846 -15.19114507 13.65190846 -11.3125 7.1875 C-3.71428571 0 -3.71428571 0 0 0 Z " fill="#EECD56" transform="translate(264,177)"/>
<path d="M0 0 C2.44679408 3.67019113 2.28520517 6.41457002 2.26742554 10.65846252 C2.27195665 11.4461793 2.27648776 12.23389607 2.28115618 13.04548305 C2.29385007 15.69387395 2.29217658 18.3420605 2.29052734 20.99047852 C2.29650973 22.88600429 2.3033146 24.78152762 2.31088257 26.67704773 C2.32858531 31.83441481 2.33323991 36.99171556 2.33451414 42.14911008 C2.33641191 46.45539901 2.34376854 50.76167246 2.35085833 55.06795543 C2.36715825 65.23289296 2.37202605 75.39779505 2.37060547 85.56274414 C2.36940551 96.04014074 2.39047461 106.51733085 2.4220928 116.99467522 C2.44827687 125.99270424 2.45897178 134.99066595 2.45769465 143.98873276 C2.45718538 149.36135763 2.46284827 154.73379931 2.48405075 160.10638618 C2.50346739 165.16501332 2.50353408 170.22328329 2.48901749 175.28192329 C2.48693212 177.13378422 2.49161396 178.98566768 2.5037384 180.83749008 C2.62162931 200.09904363 2.62162931 200.09904363 -2 207 C-3.485 207.99 -3.485 207.99 -5 209 C-4.67 207.35 -4.34 205.7 -4 204 C-3.34 204 -2.68 204 -2 204 C-1.27594083 198.13546009 -0.84966681 192.4200963 -0.84178162 186.51475525 C-0.83437465 185.30878145 -0.83437465 185.30878145 -0.82681805 184.07844454 C-0.81158342 181.41159187 -0.80312094 178.744763 -0.79467773 176.07788086 C-0.78508814 174.15539342 -0.77507744 172.23290804 -0.76467896 170.3104248 C-0.73774092 165.11072361 -0.71667154 159.91101344 -0.69667697 154.71128154 C-0.67474862 149.27003407 -0.64739356 143.8288139 -0.62062073 138.3875885 C-0.5707862 128.09248151 -0.52581323 117.79735928 -0.48259836 107.5022226 C-0.43314684 95.77791418 -0.37825815 84.05363318 -0.32291877 72.32935131 C-0.20924063 48.21959313 -0.10237095 24.10980865 0 0 Z " fill="#E9D269" transform="translate(433,136)"/>
<path d="M0 0 C41.37726434 -0.06867154 82.75452211 -0.12153155 124.13183215 -0.15319599 C129.01716879 -0.15694809 133.90250532 -0.16083106 138.7878418 -0.16479492 C139.76042142 -0.16558185 140.73300104 -0.16636878 141.73505277 -0.16717956 C157.48144858 -0.1802323 173.22781153 -0.20388543 188.97418784 -0.23145839 C205.13227657 -0.25951624 221.29034808 -0.27617707 237.44846016 -0.28226548 C247.41830245 -0.28638113 257.38805183 -0.29937861 267.35786552 -0.3237494 C274.19520051 -0.33961126 281.03248749 -0.34439933 287.86983954 -0.34050413 C291.81421224 -0.33858329 295.75842261 -0.3415211 299.70276642 -0.35761642 C303.31719939 -0.37225754 306.93136147 -0.37292525 310.54580713 -0.36269668 C312.46583222 -0.36083684 314.38585431 -0.37373779 316.3058328 -0.38724393 C331.42177787 -0.30896977 331.42177787 -0.30896977 336.97265625 4.82421875 C337.98177083 6.54947917 338.99088542 8.27473958 340 10 C337.51909864 8.8549686 335.47330759 7.61695097 333.25 6 C325.70792929 1.35872572 317.75479137 1.71210277 309.16009521 1.73930359 C307.87540761 1.73547804 306.59072001 1.73165249 305.26710248 1.72771102 C301.71681791 1.71745545 298.16663461 1.7196066 294.61634183 1.72389162 C290.78116859 1.72636334 286.94601945 1.71733906 283.1108551 1.70985413 C275.60278759 1.69711676 268.09475586 1.69531229 260.58667937 1.69765439 C254.48141959 1.69943905 248.37617065 1.69768472 242.27091217 1.69342995 C241.40122197 1.69283476 240.53153178 1.69223957 239.63548733 1.69162634 C237.86855338 1.69041456 236.10161943 1.68920042 234.33468547 1.68798397 C217.7703554 1.6771118 201.2060457 1.67926919 184.64171448 1.68536881 C169.50246594 1.69053573 154.36328178 1.6792879 139.22404596 1.66027059 C123.66571793 1.64087726 108.10742033 1.63263894 92.54908013 1.63639385 C83.8196833 1.63830387 75.09034124 1.63583786 66.36095428 1.62167931 C58.92808269 1.60974535 51.49529957 1.60838304 44.06242672 1.62046947 C40.27357844 1.62634451 36.48489182 1.62749599 32.69605446 1.61546707 C28.57985562 1.6025513 24.46403894 1.61310557 20.34783936 1.6257782 C18.56998287 1.61471677 18.56998287 1.61471677 16.75621009 1.60343188 C9.11487704 1.6527655 2.32130394 2.81593102 -5 5 C-5 4.01 -5 3.02 -5 2 C-3.35 2 -1.7 2 0 2 C0 1.34 0 0.68 0 0 Z " fill="#EDDA81" transform="translate(142,65)"/>
<path d="M0 0 C5.43777518 3.18058549 9.91477673 8.04626138 12.3125 13.9375 C13.43298132 19.14821353 13.46047734 24.21496972 13.45776367 29.51611328 C13.46112228 30.46331741 13.4644809 31.41052155 13.46794128 32.38642883 C13.47742015 35.51023683 13.47939312 38.63399102 13.48046875 41.7578125 C13.48368437 43.94009421 13.48704867 46.12237572 13.49055481 48.30465698 C13.49653907 52.8792165 13.49839552 57.45375715 13.49780273 62.02832031 C13.49770136 67.86519896 13.51133094 73.70195528 13.52857494 79.53880501 C13.53974407 84.04807074 13.54172041 88.5573074 13.54119301 93.06658554 C13.5423666 95.21697281 13.54675316 97.36736099 13.55452538 99.51773453 C13.63608849 124.42324572 13.63608849 124.42324572 11.3125 130.9375 C9.8275 131.9275 9.8275 131.9275 8.3125 132.9375 C8.46606964 132.41063095 8.61963928 131.8837619 8.77786255 131.34092712 C11.49077309 119.14521813 10.46055361 105.6326842 10.4453125 93.21484375 C10.44598785 91.25525399 10.44695979 89.29566431 10.44821167 87.33607483 C10.44967464 83.26090688 10.44757747 79.18576106 10.44287109 75.1105957 C10.4371403 69.89557378 10.44048273 64.68060296 10.44644356 59.46558285 C10.45005806 55.43267939 10.44890707 51.39978805 10.44631577 47.36688423 C10.44565073 45.44320227 10.44646007 43.5195192 10.44879532 41.59583855 C10.4513402 38.91404165 10.44745689 36.23232783 10.44189453 33.55053711 C10.44391876 32.76345871 10.44594299 31.97638031 10.44802856 31.16545105 C10.4768625 23.83882328 10.4768625 23.83882328 8.3125 16.9375 C8.75 14.8125 8.75 14.8125 9.3125 12.9375 C8.6525 12.9375 7.9925 12.9375 7.3125 12.9375 C7.065 11.968125 6.8175 10.99875 6.5625 10 C6.15 8.989375 5.7375 7.97875 5.3125 6.9375 C3.30677359 6.12303891 3.30677359 6.12303891 1.3125 5.9375 C0.9825 5.2775 0.6525 4.6175 0.3125 3.9375 C-1.67473268 3.23368843 -3.67527953 2.5663189 -5.6875 1.9375 C-6.0175 1.6075 -6.3475 1.2775 -6.6875 0.9375 C-8.53641946 0.70386119 -10.39238031 0.52446365 -12.25 0.375 C-13.26191406 0.29121094 -14.27382813 0.20742187 -15.31640625 0.12109375 C-16.49009766 0.03021484 -16.49009766 0.03021484 -17.6875 -0.0625 C-12.01890784 -3.4375928 -6.04948132 -1.74307089 0 0 Z " fill="#E7C73F" transform="translate(352.6875,209.0625)"/>
<path d="M0 0 C4.35345227 4.00975867 6.72102088 6.94789584 7.26742554 12.92570496 C7.27504913 14.00362808 7.28267273 15.08155121 7.29052734 16.19213867 C7.30328705 17.42079147 7.31604675 18.64944427 7.32919312 19.91532898 C7.33225202 21.24954062 7.33447911 22.5837544 7.3359375 23.91796875 C7.34237276 25.29934321 7.34910166 26.68071634 7.35610962 28.06208801 C7.36806699 30.95621901 7.3717923 33.85023082 7.37060547 36.74438477 C7.37040294 40.42831244 7.39764172 44.11146289 7.43214989 47.79520702 C7.4545458 50.64965728 7.45843909 53.50392469 7.45738602 56.35845375 C7.46085307 58.36900693 7.48244372 60.37950302 7.50448608 62.38993835 C7.46434344 70.50824597 7.13424883 78.88650263 1.0574646 84.93278503 C-6.26148136 90.86839785 -13.76326387 91.96013441 -23 91 C-29.13334317 89.29288615 -33.6155235 85.34021205 -37 80 C-37.66015625 77.78125 -37.66015625 77.78125 -38 76 C-37.34 76 -36.68 76 -36 76 C-36 76.99 -36 77.98 -36 79 C-34.02 79.33 -32.04 79.66 -30 80 C-30 79.34 -30 78.68 -30 78 C-29.01 78.33 -28.02 78.66 -27 79 C-27.495 79.61875 -27.99 80.2375 -28.5 80.875 C-30.19222773 82.83880904 -30.19222773 82.83880904 -30 85 C-28.576875 85.4640625 -28.576875 85.4640625 -27.125 85.9375 C-24 87 -24 87 -22 88 C-15.6582418 88.50686915 -10.07426803 87.79978312 -4 86 C-3.89816406 85.36578125 -3.79632813 84.7315625 -3.69140625 84.078125 C-3.46324219 83.39234375 -3.23507813 82.7065625 -3 82 C0.0625 80.75 0.0625 80.75 3 80 C4.18196831 72.52323988 4.16385573 65.09798428 4.16796875 57.54296875 C4.17118704 56.14911363 4.17455153 54.75525885 4.17805481 53.36140442 C4.1840109 50.45585343 4.18589801 47.55033205 4.18530273 44.64477539 C4.18520053 40.92125152 4.19892805 37.19791583 4.21607494 33.47443676 C4.22717889 30.60314558 4.22922255 27.73190044 4.22869301 24.86058998 C4.22987264 23.48705704 4.23429353 22.1135229 4.24202538 20.74001122 C4.25180569 18.82564116 4.24768804 16.91121527 4.24291992 14.99682617 C4.24434494 13.90842941 4.24576996 12.82003265 4.24723816 11.69865417 C4.19571114 8.77738419 4.19571114 8.77738419 2 6 C0 2.33333333 0 2.33333333 0 0 Z " fill="#E5CA4E" transform="translate(220,260)"/>
<path d="M0 0 C17.3159722 -0.07018166 34.6318998 -0.12303293 51.94798183 -0.15543652 C59.9887258 -0.17088413 68.02938123 -0.19193322 76.07006836 -0.22631836 C83.08097538 -0.25628538 90.09181826 -0.2755903 97.10278755 -0.28226548 C100.81266446 -0.28616542 104.5223579 -0.29528648 108.23217583 -0.31719017 C112.38069562 -0.3414838 116.52889948 -0.34196532 120.67749023 -0.34057617 C121.89813171 -0.351362 123.11877319 -0.36214783 124.37640381 -0.3732605 C131.24802425 -0.34839929 136.6134423 0.42486813 143 3 C139.62747853 4.12417382 138.38878716 3.74776427 135 3 C133.42969585 2.89222251 131.85616916 2.82540653 130.2824707 2.79467773 C129.35778992 2.77472748 128.43310913 2.75477722 127.48040771 2.73422241 C126.47238098 2.71751495 125.46435425 2.7008075 124.42578125 2.68359375 C123.34532532 2.66285797 122.26486938 2.64212219 121.15167236 2.62075806 C117.5386901 2.55413628 113.9256301 2.49551255 110.3125 2.4375 C109.06999481 2.41565643 107.82748962 2.39381287 106.54733276 2.37130737 C89.96281565 2.08330277 73.38380823 1.97027223 56.796875 2.0078125 C55.53108392 2.01026443 55.53108392 2.01026443 54.2397213 2.01276588 C45.85122802 2.02925762 37.46294551 2.0541935 29.07461357 2.10990143 C25.93735691 2.12904209 22.80010196 2.14045691 19.66280365 2.15024948 C18.19374247 2.15680106 16.72469258 2.16700724 15.2556839 2.18104935 C13.24156614 2.20012489 11.22733619 2.20600129 9.21313477 2.21118164 C7.51363426 2.22236778 7.51363426 2.22236778 5.77980042 2.23377991 C3 2 3 2 0 0 Z " fill="#E4C333" transform="translate(336,49)"/>
<path d="M0 0 C0.33 0 0.66 0 1 0 C1.33 36.63 1.66 73.26 2 111 C3.32 111.66 4.64 112.32 6 113 C6 114.65 6 116.3 6 118 C6.66 118 7.32 118 8 118 C8.33 119.32 8.66 120.64 9 122 C8.34 122 7.68 122 7 122 C7 121.34 7 120.68 7 120 C6.34 120 5.68 120 5 120 C-0.81969499 112.72538126 -1.29861558 104.89705263 -1.24291992 95.8996582 C-1.24481827 94.92141083 -1.24671661 93.94316345 -1.24867249 92.93527222 C-1.25235677 89.72369193 -1.24171083 86.5123412 -1.23046875 83.30078125 C-1.22927567 81.0597486 -1.22882406 78.81871545 -1.2290802 76.5776825 C-1.22751947 71.89151865 -1.21925984 67.20543164 -1.20581055 62.51928711 C-1.18879194 56.51365508 -1.18499732 50.50810713 -1.18575573 44.5024538 C-1.18548384 39.87938129 -1.18000007 35.25632714 -1.17275429 30.63326073 C-1.1695738 28.4184807 -1.16760166 26.20369859 -1.16686058 23.9889164 C-1.16469214 20.89662757 -1.15593771 17.80442787 -1.14526367 14.7121582 C-1.14571686 13.79827835 -1.14617004 12.8843985 -1.14663696 11.94282532 C-1.12589768 7.83316723 -1.03929275 4.00751001 0 0 Z " fill="#E2CB64" transform="translate(320,225)"/>
<path d="M0 0 C0.8971875 0.309375 0.8971875 0.309375 1.8125 0.625 C1.22082031 1.08648437 0.62914062 1.54796875 0.01953125 2.0234375 C-8.11285852 8.73630736 -11.93011689 15.14468242 -13.1875 25.625 C-13.28334949 28.0555623 -13.33313381 30.48822011 -13.34571838 32.92063904 C-13.35065636 33.62082391 -13.35559434 34.32100879 -13.36068195 35.04241139 C-13.37594287 37.36998754 -13.38438633 39.69753637 -13.39282227 42.02514648 C-13.40240978 43.70103695 -13.41242037 45.37692505 -13.42282104 47.05281067 C-13.44978157 51.58942631 -13.47083889 56.12605226 -13.49082303 60.66270328 C-13.51273738 65.4086231 -13.54009934 70.15451147 -13.56687927 74.90040588 C-13.61673262 83.88164483 -13.66169867 92.86290131 -13.70490164 101.84417444 C-13.754337 112.07149065 -13.80923172 122.29877529 -13.86458123 132.52606094 C-13.97828829 153.55901119 -14.08515176 174.59199161 -14.1875 195.625 C-14.5175 195.625 -14.8475 195.625 -15.1875 195.625 C-15.23424219 173.33716091 -15.26949974 151.04932991 -15.29112434 128.76145172 C-15.30143236 118.41256572 -15.31548364 108.06371019 -15.33837891 97.71484375 C-15.35832728 88.69368771 -15.37121989 79.67255374 -15.37567699 70.65137625 C-15.37828191 65.87573609 -15.38439478 61.10015908 -15.39896011 56.32453918 C-15.41256687 51.82663925 -15.41671638 47.32882829 -15.41371536 42.83090973 C-15.41426414 41.18300645 -15.41822312 39.5351001 -15.42591095 37.88721466 C-15.43592075 35.63030894 -15.43344712 33.37373534 -15.42800903 31.11682129 C-15.43077441 29.22530209 -15.43077441 29.22530209 -15.43359566 27.29557037 C-15.01992667 21.12560724 -13.22703474 15.45224212 -11.1875 9.625 C-10.5275 9.625 -9.8675 9.625 -9.1875 9.625 C-9.1875 8.305 -9.1875 6.985 -9.1875 5.625 C-8.5275 5.625 -7.8675 5.625 -7.1875 5.625 C-6.919375 5.00625 -6.65125 4.3875 -6.375 3.75 C-4.77615771 0.8889138 -3.38774371 -0.58075607 0 0 Z " fill="#ECE097" transform="translate(135.1875,70.375)"/>
<path d="M0 0 C0.66 0.33 1.32 0.66 2 1 C1.7882172 1.79049901 1.7882172 1.79049901 1.57215595 2.5969677 C-0.40111855 10.96379483 -0.28931117 19.26153418 -0.2746582 27.79736328 C-0.27901212 29.48042017 -0.28419752 31.16347509 -0.29014587 32.8465271 C-0.30346989 37.39180424 -0.30412224 41.9369979 -0.30158257 46.48229074 C-0.30050898 50.28459742 -0.30540582 54.08688746 -0.310188 57.88919055 C-0.32125903 66.85989634 -0.32173328 75.83056023 -0.31567383 84.80126953 C-0.30962704 94.04334407 -0.32196845 103.28526664 -0.3432439 112.52731526 C-0.36087154 120.47832905 -0.36685966 128.4292945 -0.36360615 136.38032711 C-0.36179599 141.122298 -0.36440345 145.86416031 -0.37832069 150.60611343 C-0.39091439 155.06316385 -0.38894039 159.51997722 -0.37590981 163.97702408 C-0.37354834 165.60880616 -0.37626328 167.24060502 -0.38453293 168.87236786 C-0.44529321 180.26094347 -0.44529321 180.26094347 3 191 C3 191.66 3 192.32 3 193 C-0.875 191.25 -0.875 191.25 -2 189 C-2.09746141 186.63529153 -2.13458901 184.3000845 -2.12698364 181.93513489 C-2.12854363 181.19924202 -2.13010362 180.46334916 -2.13171089 179.70515651 C-2.13571611 177.22635056 -2.13253301 174.74760529 -2.12939453 172.26879883 C-2.13074884 170.49663253 -2.13252894 168.72446651 -2.13470459 166.95230103 C-2.13927704 162.12771617 -2.13748969 157.30315261 -2.1343255 152.47856736 C-2.13179896 147.43295117 -2.13414045 142.38733684 -2.13571167 137.34172058 C-2.13753334 128.86184359 -2.135128 120.38197529 -2.13037109 111.90209961 C-2.12493724 102.10241173 -2.12668476 92.30274467 -2.1321975 82.5030573 C-2.13673917 74.09278428 -2.13737374 65.68251753 -2.13475883 57.27224368 C-2.13320074 52.24797295 -2.13298933 47.22371201 -2.13629532 42.19944191 C-2.13918901 37.47089415 -2.13717077 32.74237315 -2.13140106 28.01382828 C-2.13008113 26.2800431 -2.13045455 24.54625566 -2.13266373 22.81247139 C-2.1354056 20.44154519 -2.13195695 18.07070414 -2.12698364 15.69978333 C-2.12921436 15.01727581 -2.13144509 14.3347683 -2.13374341 13.63157874 C-2.08693747 2.08693747 -2.08693747 2.08693747 0 0 Z " fill="#D9BF37" transform="translate(121,83)"/>
<path d="M0 0 C0.33 0.99 0.66 1.98 1 3 C1.66 3 2.32 3 3 3 C3.02334505 25.87846505 3.04098709 48.75692814 3.05181217 71.63540268 C3.05697171 82.25791573 3.06400791 92.88042138 3.07543945 103.50292969 C3.08539672 112.75990181 3.09185592 122.01686858 3.09408849 131.27384591 C3.09539382 136.1767698 3.09846849 141.07967837 3.10573006 145.98259735 C3.11250669 150.59537569 3.11461359 155.20813237 3.11310768 159.82091522 C3.11338327 161.51564654 3.11537866 163.21037857 3.11920547 164.90510559 C3.12416834 167.21587761 3.12298865 169.52656745 3.12025452 171.83734131 C3.12117631 173.13153866 3.1220981 174.42573601 3.12304783 175.75915146 C3.02315953 178.39002154 2.79023407 180.50914374 2 183 C1.34 183 0.68 183 0 183 C0 185.31 0 187.62 0 190 C-2.475 190.99 -2.475 190.99 -5 192 C-3.7677465 187.92408457 -2.19619973 184.6285039 0 181 C1.23922466 177.35065049 1.13879854 173.77971702 1.15821838 169.95123291 C1.16315636 169.24136065 1.16809434 168.53148839 1.17318195 167.80010486 C1.18853853 165.42175192 1.19691257 163.04342595 1.20532227 160.66503906 C1.21490224 158.96003482 1.22491239 157.25503295 1.23532104 155.55003357 C1.26236327 150.92026795 1.28337655 146.29049215 1.30332303 141.66069126 C1.32518677 136.82266444 1.35257357 131.98466899 1.37937927 127.14666748 C1.42930089 117.98470712 1.47424171 108.82272933 1.51740164 99.66073489 C1.56677853 89.23034829 1.62169499 78.79999317 1.67708123 68.36963701 C1.79089314 46.91312067 1.89773392 25.45657427 2 4 C1.34 4 0.68 4 0 4 C0 2.68 0 1.36 0 0 Z " fill="#E5C11D" transform="translate(490,89)"/>
<path d="M0 0 C0.33 0 0.66 0 1 0 C1.07018378 22.87066287 1.12303404 45.7413079 1.15543652 68.61205673 C1.17088365 79.23213051 1.1919319 89.85213724 1.22631836 100.47216797 C1.25628675 109.73214745 1.27559065 118.99207836 1.28226548 128.252105 C1.28616515 133.15198485 1.29528483 138.05172579 1.31719017 142.95156097 C1.33767299 147.57097609 1.34381013 152.19019611 1.33932304 156.80965233 C1.340143 158.49780783 1.34603798 160.18597039 1.35761642 161.87408638 C1.43182359 173.25945818 0.39969732 183.36827755 -4 194 C-5.37432457 190.18243176 -4.67975039 186.92744671 -4 183 C-3.34 183 -2.68 183 -2 183 C-2.020625 182.05125 -2.04125 181.1025 -2.0625 180.125 C-2 177 -2 177 -1 175 C-0.89327817 172.70714779 -0.85327456 170.41112 -0.84178162 168.11581421 C-0.83437465 167.04131844 -0.83437465 167.04131844 -0.82681805 165.94511569 C-0.81139931 163.53291157 -0.80307063 161.12073415 -0.79467773 158.70849609 C-0.78510264 156.98408267 -0.77509279 155.25967162 -0.76467896 153.53526306 C-0.73758381 148.84339746 -0.71659925 144.15152176 -0.69667697 139.45962095 C-0.67484579 134.56018947 -0.6474431 129.6607893 -0.62062073 124.76138306 C-0.57065497 115.47894174 -0.52573057 106.19648309 -0.48259836 96.91400778 C-0.43325913 86.34824092 -0.37832874 75.78250548 -0.32291877 65.21676898 C-0.20903913 43.47787524 -0.10221315 21.73895152 0 0 Z " fill="#ECD66A" transform="translate(507,92)"/>
<path d="M0 0 C0.66 0.33 1.32 0.66 2 1 C1.195625 1.763125 0.39125 2.52625 -0.4375 3.3125 C-3.16799024 5.79430898 -3.16799024 5.79430898 -4 9 C-4.825 9.61875 -5.65 10.2375 -6.5 10.875 C-9.45083638 13.38321092 -9.51138311 14.27429623 -10 18 C-10.07746272 19.60083384 -10.10799057 21.20445531 -10.09765625 22.80712891 C-10.09439331 23.74505783 -10.09113037 24.68298676 -10.08776855 25.64933777 C-10.07942993 26.66482193 -10.07109131 27.68030609 -10.0625 28.7265625 C-10.05391044 30.9556473 -10.04545284 33.18473262 -10.03710938 35.41381836 C-10.03090576 36.58975555 -10.02470215 37.76569275 -10.01831055 38.9772644 C-9.91292969 59.97071083 -10.0502888 80.94858803 -10.5 101.9375 C-10.52400879 103.06029358 -10.54801758 104.18308716 -10.57275391 105.33990479 C-10.70752025 111.56012772 -10.85009465 117.78012424 -11 124 C-11.33 124 -11.66 124 -12 124 C-12.16385777 109.55264817 -12.28665834 95.10544139 -12.3626852 80.65734959 C-12.39870949 73.94808872 -12.44778133 67.23940675 -12.52807617 60.53051758 C-12.60426884 54.05304273 -12.64601923 47.57616842 -12.6641407 41.09827995 C-12.67705066 38.62992845 -12.70226139 36.16160893 -12.7401104 33.69351387 C-12.79111097 30.22928605 -12.7979157 26.76752281 -12.79467773 23.30297852 C-12.81984467 22.28805328 -12.8450116 21.27312805 -12.87094116 20.22744751 C-12.79445398 12.63840587 -10.33737906 8.34016751 -5 3 C-2.1875 0.875 -2.1875 0.875 0 0 Z " fill="#ECC41C" transform="translate(333,209)"/>
<path d="M0 0 C6.74233419 -0.12910853 13.30386804 0.202163 20 1 C20.82369618 6.58846175 21.1568099 11.4473125 20 17 C17.82919708 19.17080292 12.65054759 18.24792118 9.6472168 18.25537109 C0.77476239 18.13969883 -7.81049002 16.49459609 -16 13 C-16 12.67 -16 12.34 -16 12 C-13.03 12 -10.06 12 -7 12 C-7 12.33 -7 12.66 -7 13 C-4.69 13.33 -2.38 13.66 0 14 C0 14.66 0 15.32 0 16 C5.94 16 11.88 16 18 16 C18 11.71 18 7.42 18 3 C16.86820313 2.95101563 15.73640625 2.90203125 14.5703125 2.8515625 C13.08851661 2.77653486 11.606747 2.70098703 10.125 2.625 C9.37863281 2.5940625 8.63226563 2.563125 7.86328125 2.53125 C2.2265625 2.2265625 2.2265625 2.2265625 0 0 Z " fill="#E5C848" transform="translate(145,293)"/>
<path d="M0 0 C0.66 1.32 1.32 2.64 2 4 C-8.41580295 16.23757837 -18.56648406 24.07607618 -35 26 C-39.67270619 26.15257816 -44.32693884 26.12279577 -49 26 C-49 25.67 -49 25.34 -49 25 C-47.77023437 24.87882812 -46.54046875 24.75765625 -45.2734375 24.6328125 C-43.6405882 24.46389705 -42.00777768 24.29460636 -40.375 24.125 C-39.56675781 24.04636719 -38.75851562 23.96773438 -37.92578125 23.88671875 C-33.34697332 23.4027797 -29.35514383 22.57414837 -25 21 C-22.125 20.875 -22.125 20.875 -20 21 C-20 20.34 -20 19.68 -20 19 C-18.68 19 -17.36 19 -16 19 C-16 18.34 -16 17.68 -16 17 C-15.34 16.34 -14.68 15.68 -14 15 C-13.01 15 -12.02 15 -11 15 C-11 14.34 -11 13.68 -11 13 C-11.66 12.67 -12.32 12.34 -13 12 C-12.34 11.67 -11.68 11.34 -11 11 C-10.01 11.33 -9.02 11.66 -8 12 C-8.495 9.03 -8.495 9.03 -9 6 C-8.01 6 -7.02 6 -6 6 C-6 6.66 -6 7.32 -6 8 C-5.01 8 -4.02 8 -3 8 C-2.67 6.68 -2.34 5.36 -2 4 C-1.34 4 -0.68 4 0 4 C0 2.68 0 1.36 0 0 Z " fill="#EBCE47" transform="translate(500,285)"/>
<path d="M0 0 C0.8971875 0.309375 0.8971875 0.309375 1.8125 0.625 C1.22082031 1.08648437 0.62914062 1.54796875 0.01953125 2.0234375 C-7.97600258 8.62333982 -12.14938617 15.25021449 -13.1875 25.625 C-13.37279811 29.1329982 -13.44200313 32.64024171 -13.50390625 36.15234375 C-13.52468735 37.14126114 -13.54546844 38.13017853 -13.56687927 39.14906311 C-13.63190554 42.28680938 -13.69104018 45.42463446 -13.75 48.5625 C-13.79322991 50.69857563 -13.83684558 52.8346435 -13.88085938 54.97070312 C-13.98753838 60.18872043 -14.08938913 65.40681494 -14.1875 70.625 C-14.5175 70.625 -14.8475 70.625 -15.1875 70.625 C-15.23841755 64.07799621 -15.27332467 57.53104395 -15.29736328 50.98388672 C-15.30738997 48.75893241 -15.32101472 46.53399117 -15.33837891 44.30908203 C-15.36277392 41.10185509 -15.37401671 37.89480315 -15.3828125 34.6875 C-15.39313507 33.70072266 -15.40345764 32.71394531 -15.41409302 31.69726562 C-15.41537272 23.73101091 -13.82378037 17.15722961 -11.1875 9.625 C-10.5275 9.625 -9.8675 9.625 -9.1875 9.625 C-9.1875 8.305 -9.1875 6.985 -9.1875 5.625 C-8.5275 5.625 -7.8675 5.625 -7.1875 5.625 C-6.919375 5.00625 -6.65125 4.3875 -6.375 3.75 C-4.77615771 0.8889138 -3.38774371 -0.58075607 0 0 Z " fill="#E5D57F" transform="translate(135.1875,70.375)"/>
<path d="M0 0 C2 1 2 1 3 3 C1.68 3 0.36 3 -1 3 C-1.226875 3.556875 -1.45375 4.11375 -1.6875 4.6875 C-3.35475652 7.62504721 -5.61811438 9.61811438 -8 12 C-8.69748583 13.31747324 -9.36959957 14.64914193 -10 16 C-10.47824219 16.41636719 -10.95648438 16.83273438 -11.44921875 17.26171875 C-13.513465 19.57554641 -13.9479338 21.69401776 -14.6875 24.6875 C-14.93886719 25.68136719 -15.19023438 26.67523438 -15.44921875 27.69921875 C-15.63097656 28.45847656 -15.81273438 29.21773437 -16 30 C-16.66 30 -17.32 30 -18 30 C-18 32.31 -18 34.62 -18 37 C-18.33 37 -18.66 37 -19 37 C-19.59939144 26.21095411 -16.19038116 15.90139228 -9.00390625 7.73046875 C-6.13457068 4.80848482 -3.41427442 2.27618295 0 0 Z " fill="#E5CD58" transform="translate(123,58)"/>
<path d="M0 0 C0.66 0.99 1.32 1.98 2 3 C0.68 3 -0.64 3 -2 3 C-2 2.34 -2 1.68 -2 1 C-7.32932432 -0.70084819 -12.43109483 -1.52013969 -18 -2 C-18 -1.34 -18 -0.68 -18 0 C-19.299375 0.309375 -19.299375 0.309375 -20.625 0.625 C-24.33917956 2.13818427 -26.02901485 3.7909868 -28.60546875 6.7578125 C-30 8 -30 8 -33 8 C-30.75815494 2.97217273 -27.14538917 -0.56080537 -22.11328125 -2.86328125 C-14.69518875 -5.07516684 -6.51061326 -4.23189862 0 0 Z " fill="#EBD15C" transform="translate(425,125)"/>
<path d="M0 0 C0.33 0 0.66 0 1 0 C1.02533375 7.75959578 1.04286004 15.51918092 1.05493164 23.27880859 C1.05996357 25.91911213 1.06678971 28.55941287 1.07543945 31.19970703 C1.08755479 34.99252002 1.0932397 38.7852962 1.09765625 42.578125 C1.10281754 43.76053772 1.10797882 44.94295044 1.11329651 46.16119385 C1.11337204 47.26203308 1.11344757 48.36287231 1.11352539 49.49707031 C1.115746 50.46525696 1.11796661 51.4334436 1.12025452 52.43096924 C1.01048862 54.77592875 0.66739034 56.75769409 0 59 C-0.66 59 -1.32 59 -2 59 C-2 61.31 -2 63.62 -2 66 C-4.475 66.99 -4.475 66.99 -7 68 C-5.7677465 63.92408457 -4.19619973 60.6285039 -2 57 C-1.00527433 53.86938276 -0.84924859 50.95491538 -0.79467773 47.68066406 C-0.77473251 46.61986633 -0.75478729 45.5590686 -0.73423767 44.46612549 C-0.70916893 42.75812775 -0.70916893 42.75812775 -0.68359375 41.015625 C-0.66281265 39.84489441 -0.64203156 38.67416382 -0.62062073 37.46795654 C-0.55524372 33.72869731 -0.49629509 29.98936795 -0.4375 26.25 C-0.39430353 23.7148365 -0.35068888 21.17968009 -0.30664062 18.64453125 C-0.19957441 12.4297616 -0.0977859 6.21492222 0 0 Z " fill="#E5C21D" transform="translate(492,213)"/>
<path d="M0 0 C0.33 0 0.66 0 1 0 C1.0154612 0.90415901 1.0154612 0.90415901 1.03123474 1.82658386 C1.13948009 8.10462902 1.25406324 14.38253589 1.37231445 20.66040039 C1.4156055 23.00281885 1.45728469 25.34526768 1.49731445 27.68774414 C1.55515813 31.05624541 1.61881219 34.42459464 1.68359375 37.79296875 C1.70030624 38.83897751 1.71701874 39.88498627 1.73423767 40.96269226 C1.75418289 41.94333145 1.77412811 42.92397064 1.79467773 43.93432617 C1.81022202 44.79370285 1.8257663 45.65307953 1.84178162 46.53849792 C2.00637917 49.09924472 2.44174063 51.49798318 3 54 C3.99 54.33 4.98 54.66 6 55 C6.33 57.31 6.66 59.62 7 62 C3.50315224 60.83438408 2.51876596 59.49780014 0.81164551 56.29489136 C-0.875756 51.52383909 -0.48076426 46.50335926 -0.390625 41.50390625 C-0.38496521 40.31522446 -0.37930542 39.12654266 -0.37347412 37.90184021 C-0.35116226 34.12164293 -0.30097263 30.3424087 -0.25 26.5625 C-0.22992842 23.99285227 -0.21167881 21.42318962 -0.1953125 18.85351562 C-0.15131431 12.56868427 -0.08445283 6.28441096 0 0 Z " fill="#D5BB3A" transform="translate(389,283)"/>
<path d="M0 0 C0.99 0.495 0.99 0.495 2 1 C2.66666667 3 3.33333333 5 4 7 C4.66 7.33 5.32 7.66 6 8 C6.28617187 8.79792969 6.57234375 9.59585937 6.8671875 10.41796875 C8.22598162 13.51508223 9.04556428 14.04419004 12.125 15.3125 C19.21030257 17.90697109 26.57814834 17.3314971 34 17 C30.79165144 20.20834856 27.72715503 20.20566415 23.375 20.3125 C16.33807267 20.21912702 11.31951299 18.82564948 5.92578125 14.234375 C1.50001305 9.67394854 0.11300851 6.32847673 0 0 Z " fill="#E9CF54" transform="translate(250,331)"/>
<path d="M0 0 C0.33 0 0.66 0 1 0 C1.125 5.75 1.125 5.75 0 8 C-0.12005547 9.93971378 -0.17733344 11.88343616 -0.20532227 13.82666016 C-0.22526749 15.04777496 -0.24521271 16.26888977 -0.26576233 17.52700806 C-0.28274656 18.86435823 -0.29962537 20.20170975 -0.31640625 21.5390625 C-0.33697603 22.90384553 -0.35797251 24.26862218 -0.37937927 25.63339233 C-0.43459759 29.22707973 -0.48400787 32.8208246 -0.53222656 36.41461182 C-0.58244337 40.08114746 -0.63812849 43.74759956 -0.69335938 47.4140625 C-0.800938 54.60930426 -0.90238357 61.80461546 -1 69 C-1.33 69 -1.66 69 -2 69 C-2.04635 60.59414954 -2.08188271 52.18835253 -2.10362434 43.78240585 C-2.11405948 39.8791426 -2.12821371 35.97596682 -2.15087891 32.07275391 C-2.17261699 28.305607 -2.18457066 24.5385442 -2.18975449 20.77133942 C-2.19344851 19.33443121 -2.20066203 17.89752759 -2.21146011 16.46065521 C-2.225987 14.44744866 -2.22681703 12.43415739 -2.22705078 10.42089844 C-2.231492 9.27506287 -2.23593323 8.12922729 -2.24050903 6.94866943 C-2.00622983 4.07637846 -1.4968852 2.42750915 0 0 Z " fill="#D4B93C" transform="translate(391,133)"/>
<path d="M0 0 C0.33 0 0.66 0 1 0 C1.10178049 6.97415644 1.17162496 13.94811989 1.21972656 20.92285156 C1.23978826 23.29336709 1.26704426 25.66383345 1.30175781 28.03417969 C1.35051418 31.44999351 1.37302399 34.86515055 1.390625 38.28125 C1.41127014 39.33364868 1.43191528 40.38604736 1.45318604 41.47033691 C1.45518753 48.09795966 0.5579814 52.3594995 -3 58 C-3.99 58.495 -3.99 58.495 -5 59 C-4.67 57.35 -4.34 55.7 -4 54 C-3.34 54 -2.68 54 -2 54 C-1.17316975 47.40595519 -0.80194876 40.9191672 -0.68359375 34.27734375 C-0.66281265 33.29125626 -0.64203156 32.30516876 -0.62062073 31.28919983 C-0.55579082 28.17203015 -0.49655316 25.05478392 -0.4375 21.9375 C-0.39425131 19.8105393 -0.35063511 17.68358603 -0.30664062 15.55664062 C-0.20017873 10.37117006 -0.09872843 5.18562334 0 0 Z " fill="#DCBE2F" transform="translate(433,286)"/>
<path d="M0 0 C6.48868869 5.40724057 8.95496337 12.75352286 10 21 C10.06522873 23.29083289 10.0858841 25.58335794 10.0625 27.875 C10.05347656 29.02742188 10.04445313 30.17984375 10.03515625 31.3671875 C10.02355469 32.23601562 10.01195312 33.10484375 10 34 C9.67 34 9.34 34 9 34 C8.89042969 33.09378906 8.78085937 32.18757813 8.66796875 31.25390625 C7.54087201 22.5945045 6.32693094 14.74877303 1.8125 7.1875 C0 4 0 4 0 0 Z " fill="#E4C43B" transform="translate(497,66)"/>
<path d="M0 0 C4.40018883 2.57369535 7.19907504 5.95345165 10.3125 9.9375 C9.3125 11.9375 9.3125 11.9375 7.3125 12.9375 C7.065 11.968125 6.8175 10.99875 6.5625 10 C6.15 8.989375 5.7375 7.97875 5.3125 6.9375 C3.30677359 6.12303891 3.30677359 6.12303891 1.3125 5.9375 C0.9825 5.2775 0.6525 4.6175 0.3125 3.9375 C-1.67473268 3.23368843 -3.67527953 2.5663189 -5.6875 1.9375 C-6.0175 1.6075 -6.3475 1.2775 -6.6875 0.9375 C-8.53641946 0.70386119 -10.39238031 0.52446365 -12.25 0.375 C-13.26191406 0.29121094 -14.27382813 0.20742187 -15.31640625 0.12109375 C-16.49009766 0.03021484 -16.49009766 0.03021484 -17.6875 -0.0625 C-12.01890784 -3.4375928 -6.04948132 -1.74307089 0 0 Z " fill="#EBD051" transform="translate(352.6875,209.0625)"/>
<path d="M0 0 C0.33 0 0.66 0 1 0 C1.19472998 4.7643423 1.37301222 9.52893769 1.53710938 14.29443359 C1.59493992 15.91015482 1.65699871 17.52573118 1.72363281 19.14111328 C2.55701982 39.50858671 2.55701982 39.50858671 0 47 C-0.99 47.66 -1.98 48.32 -3 49 C-2.8453125 48.46117187 -2.690625 47.92234375 -2.53125 47.3671875 C0.82196319 32.42566403 -0.46172474 15.29927148 0 0 Z " fill="#E3C232" transform="translate(364,293)"/>
<path d="M0 0 C0.66 0.33 1.32 0.66 2 1 C1.195625 1.763125 0.39125 2.52625 -0.4375 3.3125 C-3.16799024 5.79430898 -3.16799024 5.79430898 -4 9 C-4.825 9.61875 -5.65 10.2375 -6.5 10.875 C-9.31924232 13.27135597 -9.69973137 14.3967764 -10 18 C-12 16 -12 16 -12.125 13.4375 C-10.43404079 8.2706802 -6.96095047 4.66041142 -3 1 C-2.01 0.67 -1.02 0.34 0 0 Z " fill="#E8CB3E" transform="translate(333,209)"/>
<path d="M0 0 C1.32 0.33 2.64 0.66 4 1 C-6.64486246 7.02539384 -16.94193056 7.31685438 -29 7 C-29 6.67 -29 6.34 -29 6 C-27.15535156 5.81824219 -27.15535156 5.81824219 -25.2734375 5.6328125 C-23.6405882 5.46389705 -22.00777768 5.29460636 -20.375 5.125 C-19.56675781 5.04636719 -18.75851562 4.96773438 -17.92578125 4.88671875 C-13.34697332 4.4027797 -9.35514383 3.57414837 -5 2 C-2.125 1.875 -2.125 1.875 0 2 C0 1.34 0 0.68 0 0 Z " fill="#E9C958" transform="translate(480,304)"/>
<path d="M0 0 C3.31232698 -0.08834684 6.62434435 -0.14083584 9.9375 -0.1875 C10.86369141 -0.21263672 11.78988281 -0.23777344 12.74414062 -0.26367188 C19.56866159 -0.33550894 26.72594445 -0.02769097 31.97265625 4.82421875 C32.98177083 6.54947917 33.99088542 8.27473958 35 10 C32.51909864 8.8549686 30.47330759 7.61695097 28.25 6 C21.96945346 2.13504829 15.20329644 1.67461718 8 1.375 C7.22527344 1.33632812 6.45054687 1.29765625 5.65234375 1.2578125 C3.76856585 1.16478643 1.88431744 1.08136825 0 1 C0 0.67 0 0.34 0 0 Z " fill="#ECD675" transform="translate(447,65)"/>
<path d="M0 0 C11.22 0 22.44 0 34 0 C34 0.33 34 0.66 34 1 C33.24493164 1.01458252 32.48986328 1.02916504 31.71191406 1.04418945 C28.22414657 1.11958192 24.73724308 1.2159358 21.25 1.3125 C20.06277344 1.33505859 18.87554687 1.35761719 17.65234375 1.38085938 C9.73758527 1.61873463 2.59075803 2.74109511 -5 5 C-5 4.01 -5 3.02 -5 2 C-3.35 2 -1.7 2 0 2 C0 1.34 0 0.68 0 0 Z " fill="#EDD579" transform="translate(142,65)"/>
<path d="M0 0 C0.33 0 0.66 0 1 0 C1.17501567 4.52034057 1.28110321 9.03980447 1.375 13.5625 C1.45041016 15.47772461 1.45041016 15.47772461 1.52734375 17.43164062 C1.69315975 28.07150044 1.69315975 28.07150044 -1.7734375 32.33984375 C-4.03354353 34.60318158 -5.86405761 35.41802427 -9 36 C-8.67 35.01 -8.34 34.02 -8 33 C-7.01 33 -6.02 33 -5 33 C-5 32.01 -5 31.02 -5 30 C-4.34 30 -3.68 30 -3 30 C-3 29.34 -3 28.68 -3 28 C-2.34 27.67 -1.68 27.34 -1 27 C-0.67 18.09 -0.34 9.18 0 0 Z " fill="#EAC522" transform="translate(293,312)"/>
<path d="M0 0 C0 0.66 0 1.32 0 2 C-0.99 2 -1.98 2 -3 2 C-3 3.32 -3 4.64 -3 6 C-4.32 6 -5.64 6 -7 6 C-6.34 7.65 -5.68 9.3 -5 11 C-6.1446875 11.2165625 -6.1446875 11.2165625 -7.3125 11.4375 C-10.08172908 11.9632594 -10.08172908 11.9632594 -13 13 C-11.73189061 7.08215617 -8.7151965 4.41406916 -4 1 C-2 0 -2 0 0 0 Z " fill="#ECC83B" transform="translate(196,254)"/>
<path d="M0 0 C0.66 0 1.32 0 2 0 C2.49506774 8.00359514 2.19482248 14.95718768 -2 22 C-2.99 22.66 -3.98 23.32 -5 24 C-4.67 22.35 -4.34 20.7 -4 19 C-3.34 19 -2.68 19 -2 19 C-1.34 12.73 -0.68 6.46 0 0 Z " fill="#E7CE58" transform="translate(225,321)"/>
<path d="M0 0 C5.44432256 -0.04958399 10.88851249 -0.08580666 16.33300781 -0.10986328 C18.18361706 -0.11989631 20.03421055 -0.13352586 21.88476562 -0.15087891 C24.5508209 -0.17524608 27.21666584 -0.18651023 29.8828125 -0.1953125 C30.70492218 -0.20563507 31.52703186 -0.21595764 32.37405396 -0.22659302 C36.98755336 -0.2274861 40.65633804 0.23443276 45 2 C41.55336867 3.14887711 40.4929068 2.71390717 37 2 C34.13383424 1.85154614 31.28579506 1.74476426 28.41796875 1.68359375 C27.60378983 1.66281265 26.7896109 1.64203156 25.95075989 1.62062073 C23.36308821 1.55550537 20.77531947 1.49641792 18.1875 1.4375 C16.42772455 1.39427858 14.66795872 1.35066315 12.90820312 1.30664062 C8.60556691 1.1998632 4.30283357 1.09848982 0 1 C0 0.67 0 0.34 0 0 Z " fill="#E9C833" transform="translate(434,50)"/>
<path d="M0 0 C1.48831242 0.00667405 2.97660807 0.01863442 4.46484375 0.03515625 C5.22345703 0.03966797 5.98207031 0.04417969 6.76367188 0.04882812 C8.64326246 0.06064945 10.52281274 0.07858547 12.40234375 0.09765625 C12.07234375 0.75765625 11.74234375 1.41765625 11.40234375 2.09765625 C8.2421875 2.51171875 8.2421875 2.51171875 4.33984375 2.72265625 C3.04949219 2.79742187 1.75914062 2.8721875 0.4296875 2.94921875 C-0.56933594 2.99820312 -1.56835938 3.0471875 -2.59765625 3.09765625 C-2.92765625 7.38765625 -3.25765625 11.67765625 -3.59765625 16.09765625 C-3.92765625 16.09765625 -4.25765625 16.09765625 -4.59765625 16.09765625 C-4.6245072 13.61841824 -4.64442172 11.13946785 -4.66015625 8.66015625 C-4.67272461 7.59958008 -4.67272461 7.59958008 -4.68554688 6.51757812 C-4.69419213 4.71072066 -4.64985636 2.90378022 -4.59765625 1.09765625 C-3.59765625 0.09765625 -3.59765625 0.09765625 0 0 Z " fill="#E7D466" transform="translate(454.59765625,292.90234375)"/>
<path d="M0 0 C0.66 0.33 1.32 0.66 2 1 C1.86287598 1.56380371 1.72575195 2.12760742 1.58447266 2.70849609 C-0.04877611 10.01498138 -0.42518087 17.15676004 -0.625 24.625 C-0.66367188 25.81996094 -0.70234375 27.01492187 -0.7421875 28.24609375 C-0.83555786 31.16391736 -0.92133578 34.08174921 -1 37 C-1.33 37 -1.66 37 -2 37 C-2.02489435 32.99813807 -2.04295127 28.99630672 -2.05493164 24.99438477 C-2.05993113 23.63565281 -2.06673291 22.27692615 -2.07543945 20.91821289 C-2.08769842 18.95461415 -2.09273487 16.99097459 -2.09765625 15.02734375 C-2.10289307 13.84906006 -2.10812988 12.67077637 -2.11352539 11.45678711 C-1.79626114 1.79626114 -1.79626114 1.79626114 0 0 Z " fill="#E1C02E" transform="translate(121,83)"/>
<path d="M0 0 C0.8971875 0.309375 0.8971875 0.309375 1.8125 0.625 C1.20921875 1.12128906 0.6059375 1.61757812 -0.015625 2.12890625 C-4.90402855 6.28404927 -8.40934894 9.82711952 -11.1875 15.625 C-12.1875 12.625 -12.1875 12.625 -11.1875 9.625 C-10.5275 9.625 -9.8675 9.625 -9.1875 9.625 C-9.1875 8.305 -9.1875 6.985 -9.1875 5.625 C-8.5275 5.625 -7.8675 5.625 -7.1875 5.625 C-6.919375 5.00625 -6.65125 4.3875 -6.375 3.75 C-4.77615771 0.8889138 -3.38774371 -0.58075607 0 0 Z " fill="#E4CE53" transform="translate(135.1875,70.375)"/>
<path d="M0 0 C0.33 0 0.66 0 1 0 C1.268125 1.051875 1.53625 2.10375 1.8125 3.1875 C3.11252751 7.36127252 4.45797429 10.62319133 7.75 13.5625 C8.36875 14.2740625 8.36875 14.2740625 9 15 C8.578125 17.08984375 8.578125 17.08984375 8 19 C-1.24097874 7.21700445 -1.24097874 7.21700445 -0.6875 2.125 C-0.460625 1.42375 -0.23375 0.7225 0 0 Z " fill="#E5CD5D" transform="translate(107,276)"/>
<path d="M0 0 C5.886881 0.08500911 9.44110417 1.20985928 14.375 4.375 C14.705 5.035 15.035 5.695 15.375 6.375 C12.9 5.88 12.9 5.88 10.375 5.375 C10.375 4.715 10.375 4.055 10.375 3.375 C4.435 3.045 -1.505 2.715 -7.625 2.375 C-4.98965495 -0.26034505 -3.67340007 0.04649874 0 0 Z " fill="#EAD25F" transform="translate(272.625,174.625)"/>
<path d="M0 0 C0 0.66 0 1.32 0 2 C-0.86625 2.20625 -1.7325 2.4125 -2.625 2.625 C-6.33917956 4.13818427 -8.02901485 5.7909868 -10.60546875 8.7578125 C-12 10 -12 10 -15 10 C-13.43231431 6.15204421 -11.16775443 3.6637935 -8 1 C-5.21103591 0.28908759 -2.85992907 0 0 0 Z " fill="#E6CB3F" transform="translate(407,123)"/>
<path d="M0 0 C2 2 2 2 2 5 C3.32 5.66 4.64 6.32 6 7 C6 8.65 6 10.3 6 12 C6.66 12 7.32 12 8 12 C8.33 13.32 8.66 14.64 9 16 C8.34 16 7.68 16 7 16 C7 15.34 7 14.68 7 14 C6.34 14 5.68 14 5 14 C1.18890008 9.38048494 0.40919538 5.93333307 0 0 Z " fill="#E6CD50" transform="translate(320,331)"/>
<path d="M0 0 C-0.66 0 -1.32 0 -2 0 C-2 0.99 -2 1.98 -2 3 C-9.28571429 6.42857143 -9.28571429 6.42857143 -14 6 C-10.31063898 1.88494347 -5.74338985 -2.42989571 0 0 Z " fill="#EAD05C" transform="translate(139,52)"/>
<path d="M0 0 C1.47968324 0.14049518 2.95874516 0.28754826 4.4375 0.4375 C5.67306641 0.55931641 5.67306641 0.55931641 6.93359375 0.68359375 C9 1 9 1 10 2 C11.84599688 2.39454223 13.70225822 2.74176866 15.5625 3.0625 C17.08037109 3.32740234 17.08037109 3.32740234 18.62890625 3.59765625 C19.41136719 3.73042969 20.19382812 3.86320312 21 4 C21 4.33 21 4.66 21 5 C13.0412201 5.54470737 7.18052459 4.48901845 0 1 C0 0.67 0 0.34 0 0 Z " fill="#EACD58" transform="translate(396,346)"/>
<path d="M0 0 C0.66 0 1.32 0 2 0 C2 0.99 2 1.98 2 3 C4.97 3.495 4.97 3.495 8 4 C8 3.34 8 2.68 8 2 C8.99 2.33 9.98 2.66 11 3 C10.505 3.61875 10.01 4.2375 9.5 4.875 C7.80777227 6.83880904 7.80777227 6.83880904 8 9 C6.25 8.875 6.25 8.875 4 8 C0 2.77777778 0 2.77777778 0 0 Z " fill="#E8CA3F" transform="translate(182,336)"/>
<path d="M0 0 C0.33 0 0.66 0 1 0 C1.39569925 6.06738846 0.25411205 11.34403994 -2 17 C-2.66 17.66 -3.32 18.32 -4 19 C-3.67 15.37 -3.34 11.74 -3 8 C-2.34 8 -1.68 8 -1 8 C-1.020625 7.05125 -1.04125 6.1025 -1.0625 5.125 C-1 2 -1 2 0 0 Z " fill="#E8CE59" transform="translate(506,267)"/>
<path d="M0 0 C0.99 0.495 0.99 0.495 2 1 C2.66666667 3 3.33333333 5 4 7 C4.66 7.33 5.32 7.66 6 8 C6.67441131 9.6635479 7.3400321 11.33066942 8 13 C8.95824253 14.36365283 9.94721175 15.70794169 11 17 C6.49309645 14.98606913 3.61107681 12.17933965 1 8 C0.24986265 5.2269116 0.10172351 2.89912016 0 0 Z " fill="#E8CF5A" transform="translate(250,331)"/>
<path d="M0 0 C1.32 0 2.64 0 4 0 C4 0.99 4 1.98 4 3 C4.7425 3.2475 5.485 3.495 6.25 3.75 C9.20124062 5.09147301 10.84814974 6.60905526 13 9 C12.01 9.495 12.01 9.495 11 10 C9.53737408 8.9015258 8.08004497 7.7959964 6.625 6.6875 C5.81289062 6.07261719 5.00078125 5.45773437 4.1640625 4.82421875 C2 3 2 3 0 0 Z " fill="#E6CA57" transform="translate(116,295)"/>
<path d="M0 0 C0.433125 0.639375 0.86625 1.27875 1.3125 1.9375 C2.91239177 4.26746003 2.91239177 4.26746003 6 5 C6.33 7.31 6.66 9.62 7 12 C3.33663903 10.77887968 2.64957986 9.13279518 0.76953125 5.88671875 C0 4 0 4 0 0 Z " fill="#E9CF58" transform="translate(389,333)"/>
<path d="M0 0 C3.35281942 3.08812315 5.82230601 5.52476282 7 10 C6.67 10.99 6.34 11.98 6 13 C4.98868775 11.59138651 3.99133233 10.17274547 3 8.75 C2.1646875 7.56664063 2.1646875 7.56664063 1.3125 6.359375 C0 4 0 4 0 0 Z " fill="#E6CA50" transform="translate(497,66)"/>
<path d="M0 0 C1.65 0 3.3 0 5 0 C3.63792042 4.08623873 1.73386836 4.9894555 -2 7 C-4.875 6.75 -4.875 6.75 -7 6 C-7 5.67 -7 5.34 -7 5 C-5.5459375 4.5978125 -5.5459375 4.5978125 -4.0625 4.1875 C-3.051875 3.795625 -2.04125 3.40375 -1 3 C-0.67 2.01 -0.34 1.02 0 0 Z " fill="#EBCF57" transform="translate(356,342)"/>
<path d="M0 0 C0.66 0 1.32 0 2 0 C2.33 0.99 2.66 1.98 3 3 C1.02 3.66 -0.96 4.32 -3 5 C-3 5.99 -3 6.98 -3 8 C-5.35438733 9.42944945 -6.48032433 10.08661261 -9.25 9.625 C-9.8275 9.41875 -10.405 9.2125 -11 9 C-9.6696875 8.443125 -9.6696875 8.443125 -8.3125 7.875 C-5.38277137 6.21666304 -4.23982998 5.32503159 -2.25 2.8125 C-1.5075 1.884375 -0.765 0.95625 0 0 Z " fill="#EBD968" transform="translate(483,281)"/>
<path d="M0 0 C2.7710688 2.34591852 3.52059284 4.14776201 4.1875 7.6875 C4.34605469 8.49574219 4.50460938 9.30398438 4.66796875 10.13671875 C4.77753906 10.75160156 4.88710937 11.36648438 5 12 C1.125 10.25 1.125 10.25 0 8 C-0.13415472 5.3276379 -0.04318541 2.67749512 0 0 Z " fill="#E1CB4C" transform="translate(119,264)"/>
<path d="M0 0 C2.31 0 4.62 0 7 0 C7 0.66 7 1.32 7 2 C10.96 2.33 14.92 2.66 19 3 C19 3.33 19 3.66 19 4 C11.90370975 4.31461385 6.31715405 4.44572039 0 1 C0 0.67 0 0.34 0 0 Z " fill="#E8D264" transform="translate(329,347)"/>
<path d="M0 0 C-1.15173355 2.46800047 -2.04783565 4.04783565 -4 6 C-5.32 6 -6.64 6 -8 6 C-8 6.66 -8 7.32 -8 8 C-8.66 8 -9.32 8 -10 8 C-8.89904638 4.69713914 -8.3103981 4.21489099 -5.5625 2.3125 C-4.94503906 1.87550781 -4.32757813 1.43851563 -3.69140625 0.98828125 C-2 0 -2 0 0 0 Z " fill="#E7CD4F" transform="translate(264,177)"/>
<path d="M0 0 C0.33 0 0.66 0 1 0 C1.125 5.75 1.125 5.75 0 8 C-0.2275015 9.87056791 -0.40962811 11.74685958 -0.5625 13.625 C-0.64628906 14.62789062 -0.73007812 15.63078125 -0.81640625 16.6640625 C-0.87699219 17.43492187 -0.93757813 18.20578125 -1 19 C-1.33 19 -1.66 19 -2 19 C-2.05411124 16.58303128 -2.09372278 14.16728213 -2.125 11.75 C-2.14175781 11.06808594 -2.15851563 10.38617188 -2.17578125 9.68359375 C-2.21213482 5.9391765 -2.07944349 3.17647273 0 0 Z " fill="#E2CA51" transform="translate(391,133)"/>
<path d="M0 0 C2.31 0 4.62 0 7 0 C7 0.66 7 1.32 7 2 C3.04 2.99 -0.92 3.98 -5 5 C-5 4.01 -5 3.02 -5 2 C-3.35 2 -1.7 2 0 2 C0 1.34 0 0.68 0 0 Z " fill="#E4CE55" transform="translate(142,65)"/>
<path d="M0 0 C0.66 0.33 1.32 0.66 2 1 C1.09515208 2.15518918 0.1755794 3.29885406 -0.75 4.4375 C-1.26046875 5.07558594 -1.7709375 5.71367187 -2.296875 6.37109375 C-4.19667629 8.18810554 -5.43586908 8.60423197 -8 9 C-7.67 8.01 -7.34 7.02 -7 6 C-6.01 6 -5.02 6 -4 6 C-4 5.01 -4 4.02 -4 3 C-3.34 3 -2.68 3 -2 3 C-2 2.34 -2 1.68 -2 1 C-1.34 0.67 -0.68 0.34 0 0 Z " fill="#EDCC5C" transform="translate(292,339)"/>
<path d="M0 0 C1.32 0 2.64 0 4 0 C4.66 2.64 5.32 5.28 6 8 C6.66 8 7.32 8 8 8 C8 9.65 8 11.3 8 13 C5.47159861 9.86959828 3.76503694 6.60681461 2 3 C1.34 2.01 0.68 1.02 0 0 Z " fill="#EBD268" transform="translate(482,76)"/>
<path d="M0 0 C5.26170694 1.41167747 8.72171358 3.74850232 13 7 C10.50907189 8.24546405 9.58919267 7.7767578 7 7 C7 6.01 7 5.02 7 4 C6.21625 3.896875 5.4325 3.79375 4.625 3.6875 C2 3 2 3 0 0 Z " fill="#E9D15D" transform="translate(479,53)"/>
<path d="M0 0 C0.33 0 0.66 0 1 0 C1 2.64 1 5.28 1 8 C-0.65 8.66 -2.3 9.32 -4 10 C-2.8905928 6.51329166 -1.73662334 3.22515763 0 0 Z " fill="#ECD556" transform="translate(489,271)"/>
<path d="M0 0 C0 0.66 0 1.32 0 2 C-0.99 2 -1.98 2 -3 2 C-3 3.32 -3 4.64 -3 6 C-4.98 6 -6.96 6 -9 6 C-3.15384615 0 -3.15384615 0 0 0 Z " fill="#E9CF51" transform="translate(196,254)"/>
<path d="M0 0 C2.61527381 2.36620011 4.26440562 4.942048 6 8 C4.68 8 3.36 8 2 8 C2 7.34 2 6.68 2 6 C1.34 6 0.68 6 0 6 C0 4.02 0 2.04 0 0 Z " fill="#E4CD58" transform="translate(124,276)"/>
<path d="M0 0 C1.65 0.33 3.3 0.66 5 1 C5 1.66 5 2.32 5 3 C0.71 3 -3.58 3 -8 3 C-8 2.67 -8 2.34 -8 2 C-5.36 2 -2.72 2 0 2 C0 1.34 0 0.68 0 0 Z " fill="#E4C533" transform="translate(346,347)"/>
<path d="M0 0 C1.32 0.33 2.64 0.66 4 1 C2.73581754 1.69965443 1.46334598 2.38434763 0.1875 3.0625 C-0.52019531 3.44535156 -1.22789062 3.82820313 -1.95703125 4.22265625 C-4 5 -4 5 -7 4 C-5 2 -5 2 -2.375 1.875 C-1.59125 1.91625 -0.8075 1.9575 0 2 C0 1.34 0 0.68 0 0 Z " fill="#E9D466" transform="translate(480,304)"/>
<path d="M0 0 C2.97 0 5.94 0 9 0 C9.33 1.32 9.66 2.64 10 4 C6.7 3.01 3.4 2.02 0 1 C0 0.67 0 0.34 0 0 Z " fill="#E8CA5F" transform="translate(129,305)"/>
<path d="M0 0 C3.53586014 3.17320782 5.58578031 5.16743695 6 10 C2.73318509 8.36659254 1.45297603 5.21730407 0 2 C0 1.34 0 0.68 0 0 Z " fill="#E6CE60" transform="translate(220,260)"/>
<path d="M0 0 C4.87685861 1.35468295 6.48592381 3.71675909 9 8 C5.18284914 6.44486447 2.77292558 4.00400272 0 1 C0 0.67 0 0.34 0 0 Z " fill="#EBD562" transform="translate(473,67)"/>
<path d="M0 0 C1.27875 0.28875 2.5575 0.5775 3.875 0.875 C4.95394531 1.11863281 4.95394531 1.11863281 6.0546875 1.3671875 C8 2 8 2 10 4 C7.03 3.67 4.06 3.34 1 3 C0.67 2.01 0.34 1.02 0 0 Z " fill="#E6CA38" transform="translate(260,346)"/>
<path d="M0 0 C0.99 0.33 1.98 0.66 3 1 C1.35 3.64 -0.3 6.28 -2 9 C-2.33 7.68 -2.66 6.36 -3 5 C-2.01 4.67 -1.02 4.34 0 4 C0 2.68 0 1.36 0 0 Z " fill="#E8D56A" transform="translate(223,336)"/>
<path d="M0 0 C0.66 0 1.32 0 2 0 C1.5206753 4.31392226 0.2542015 6.16569547 -3 9 C-2.67 7.35 -2.34 5.7 -2 4 C-1.34 4 -0.68 4 0 4 C0 2.68 0 1.36 0 0 Z " fill="#E7D16B" transform="translate(431,336)"/>
<path d="M0 0 C-3.20336822 2.83374881 -5.78087253 3.5205537 -10 4 C-9.67 3.01 -9.34 2.02 -9 1 C-5.8035914 -0.06546953 -3.34252724 -0.07427838 0 0 Z " fill="#E4C43B" transform="translate(476,291)"/>
<path d="M0 0 C1.32 0.33 2.64 0.66 4 1 C1.69 2.65 -0.62 4.3 -3 6 C-3 4.68 -3 3.36 -3 2 C-2.01 1.34 -1.02 0.68 0 0 Z " fill="#E4CD67" transform="translate(133,70)"/>
<path d="M0 0 C0.99 0.33 1.98 0.66 3 1 C3 3.64 3 6.28 3 9 C1.5 7.875 1.5 7.875 0 6 C-0.1875 2.8125 -0.1875 2.8125 0 0 Z " fill="#E3C123" transform="translate(106,272)"/>
</svg>
