<?xml version="1.0" encoding="UTF-8"?>
<svg version="1.1" xmlns="http://www.w3.org/2000/svg" width="497" height="502">
<path d="M0 0 C0.66 0 1.32 0 2 0 C2.12686439 6.74418027 2.21437811 13.48805244 2.2746582 20.2331543 C2.29978928 22.52721658 2.33389969 24.8211989 2.37719727 27.11499023 C2.43790832 30.41410049 2.46622437 33.71215146 2.48828125 37.01171875 C2.51408768 38.03585373 2.5398941 39.05998871 2.56648254 40.11515808 C2.56930086 47.28394654 2.56930086 47.28394654 -0.40942383 51.03051758 C-1.26431396 51.68044678 -2.1192041 52.33037598 -3 53 C-3.639375 53.825 -4.27875 54.65 -4.9375 55.5 C-7.34914516 58.42320625 -10.0672892 60.60595036 -13 63 C-14.68711423 64.6459651 -16.3545622 66.31237149 -18 68 C-28 78 -28 78 -30.05859375 80.0234375 C-30.78175781 80.73757812 -31.50492187 81.45171875 -32.25 82.1875 C-32.93578125 82.86167969 -33.6215625 83.53585938 -34.328125 84.23046875 C-36.07449111 85.90798995 -36.07449111 85.90798995 -37 88 C-37.66 88 -38.32 88 -39 88 C-39 88.66 -39 89.32 -39 90 C-40.71484375 91.65625 -40.71484375 91.65625 -42.9375 93.5 C-45.92045179 95.88926999 -45.92045179 95.88926999 -48 99 C-48.66 99 -49.32 99 -50 99 C-50 99.66 -50 100.32 -50 101 C-51.3203125 102.26171875 -51.3203125 102.26171875 -53.125 103.6875 C-56.34251721 106.34065431 -58.93789414 109.18328698 -61.58203125 112.39453125 C-63.49445029 114.55983214 -65.71841998 116.23992399 -68 118 C-68.33 118.66 -68.66 119.32 -69 120 C-69.66 120 -70.32 120 -71 120 C-71 120.66 -71 121.32 -71 122 C-71.66 122 -72.32 122 -73 122 C-73 122.66 -73 123.32 -73 124 C-73.66 124 -74.32 124 -75 124 C-75.26167969 124.72832031 -75.52335937 125.45664063 -75.79296875 126.20703125 C-77.02262868 129.05236086 -78.46396536 131.2077584 -80.3125 133.6875 C-91.81191066 149.81530416 -96.60524209 168.65497628 -96.4375 188.3125 C-96.42920166 189.57924561 -96.42090332 190.84599121 -96.41235352 192.15112305 C-95.99767973 215.22675986 -87.91205277 234.20104759 -73.41796875 252.0546875 C-72 254 -72 254 -71 257 C-70.34 257 -69.68 257 -69 257 C-69 257.66 -69 258.32 -69 259 C-68.34 259 -67.68 259 -67 259 C-67 259.66 -67 260.32 -67 261 C-66.42507812 261.26296875 -65.85015625 261.5259375 -65.2578125 261.796875 C-62.86944984 263.06956652 -60.9669732 264.53628026 -58.875 266.25 C-43.11344952 278.64874411 -24.11641489 286.21580078 -4 287 C-3.15695313 287.03996094 -2.31390625 287.07992188 -1.4453125 287.12109375 C22.15325879 287.70250783 45.23387433 280.0972051 63.36328125 265.1015625 C65.5531694 263.35614054 67.44777923 262.10333534 70 261 C70 260.34 70 259.68 70 259 C70.66 259 71.32 259 72 259 C72 258.34 72 257.68 72 257 C72.66 257 73.32 257 74 257 C74.25394531 256.43023437 74.50789062 255.86046875 74.76953125 255.2734375 C76.14615829 252.72995515 77.79152332 250.80779437 79.6875 248.625 C84.57604158 242.60288356 87.80683356 236.0109131 91 229 C91.47566406 227.98679687 91.95132813 226.97359375 92.44140625 225.9296875 C97.84312004 213.83629842 99.52794616 201.7281762 99.375 188.5625 C99.36484863 187.29132324 99.35469727 186.02014648 99.34423828 184.71044922 C99.06241342 167.67206117 95.81261539 150.6580405 85 137 C84.31364679 135.82376874 83.64703541 134.63580959 83 133.4375 C81.49618338 130.85281518 80.16822444 128.90746761 78.25 126.6875 C76 124 76 124 76 122 C75.34 122 74.68 122 74 122 C74 121.34 74 120.68 74 120 C73.34 120 72.68 120 72 120 C72.37596209 117.21788056 72.67318459 115.4120716 74.4375 113.1875 C76 112 76 112 78 112 C78.3403125 111.1646875 78.3403125 111.1646875 78.6875 110.3125 C81.40154131 105.53061769 85.77001719 102.38398625 90 99 C91.68528688 97.35216394 93.35697047 95.68997323 95 94 C105.98281253 98.36337473 114.36187036 115.41850066 119.640625 125.45703125 C120.9574426 128.00003385 120.9574426 128.00003385 122.484375 130.3203125 C124.43724867 133.77307369 125.70909177 137.32045263 127 141.0625 C127.26200195 141.81619873 127.52400391 142.56989746 127.79394531 143.34643555 C132.8032486 158.00161082 135.39470867 172.50068496 135.375 188 C135.37411377 189.26440918 135.37322754 190.52881836 135.37231445 191.83154297 C135.23742285 202.62424106 133.71250287 212.58657233 131 223 C130.74992187 224.08152344 130.49984375 225.16304687 130.2421875 226.27734375 C127.41043649 237.88101313 121.36645843 248.40627081 116 259 C115.34 259 114.68 259 114 259 C113.61134766 260.07894531 113.61134766 260.07894531 113.21484375 261.1796875 C108.94100665 271.10158585 100.65706356 278.65196591 93 286 C92.10667969 286.93070312 91.21335937 287.86140625 90.29296875 288.8203125 C88 291 88 291 86 291 C86 291.66 86 292.32 86 293 C82.71960503 295.51792478 79.20216571 297.67976395 75.71435547 299.89892578 C74.10894718 300.93002681 72.52428662 301.99323238 70.94140625 303.05859375 C50.60934559 316.34566014 25.85272719 322.4223473 1.75 322.3125 C0.47092773 322.30758545 -0.80814453 322.3026709 -2.12597656 322.29760742 C-11.44589597 322.18214463 -19.96966943 321.43349817 -29 319 C-29.67353516 318.82839355 -30.34707031 318.65678711 -31.04101562 318.47998047 C-46.16340193 314.60235667 -60.13206905 308.92675761 -73 300 C-74.43279297 299.04673828 -74.43279297 299.04673828 -75.89453125 298.07421875 C-81.12893454 294.53825121 -81.12893454 294.53825121 -83 293 C-83 292.34 -83 291.68 -83 291 C-83.87591797 290.59587891 -83.87591797 290.59587891 -84.76953125 290.18359375 C-96.19022418 284.12322605 -103.98457235 271.43944332 -111 261 C-111.45503906 260.35522705 -111.91007812 259.7104541 -112.37890625 259.04614258 C-116.16269802 253.5835333 -119.05287985 248.05749021 -121.625 241.9375 C-122.01179932 241.02427979 -122.39859863 240.11105957 -122.79711914 239.17016602 C-126.05358392 231.26949526 -128.42357562 223.40074691 -130 215 C-130.25946411 213.69857056 -130.25946411 213.69857056 -130.52416992 212.37084961 C-136.13300598 182.16537442 -131.14966529 148.37508151 -115 122 C-114.46632812 121.10023438 -113.93265625 120.20046875 -113.3828125 119.2734375 C-107.90222868 110.30750545 -101.43354194 102.40863895 -94 95 C-93.443125 94.236875 -92.88625 93.47375 -92.3125 92.6875 C-91.879375 92.130625 -91.44625 91.57375 -91 91 C-90.34 91 -89.68 91 -89 91 C-88.34 89.68 -87.68 88.36 -87 87 C-86.34 87 -85.68 87 -85 87 C-85 86.34 -85 85.68 -85 85 C-84.34 85 -83.68 85 -83 85 C-82.34 83.68 -81.68 82.36 -81 81 C-80.34 81 -79.68 81 -79 81 C-79 80.34 -79 79.68 -79 79 C-78.34 79 -77.68 79 -77 79 C-76.505 77.515 -76.505 77.515 -76 76 C-75.34 76 -74.68 76 -74 76 C-74 75.34 -74 74.68 -74 74 C-73.34 74 -72.68 74 -72 74 C-71.62875 73.071875 -71.62875 73.071875 -71.25 72.125 C-69.79371361 69.64931313 -68.62187494 69.04874998 -66 68 C-66 67.34 -66 66.68 -66 66 C-65.34 66 -64.68 66 -64 66 C-63.773125 65.443125 -63.54625 64.88625 -63.3125 64.3125 C-61.62449964 61.33840412 -59.53323483 59.27991135 -57 57 C-56.34 57 -55.68 57 -55 57 C-55 56.34 -55 55.68 -55 55 C-54.34 55 -53.68 55 -53 55 C-52.62875 54.071875 -52.62875 54.071875 -52.25 53.125 C-50.76259631 50.59641373 -49.56321991 50.28160996 -47 49 C-46.31513275 47.67592331 -45.65129797 46.34090759 -45 45 C-42.24222165 41.95192919 -39.83342935 39.56176751 -36 38 C-36 37.34 -36 36.68 -36 36 C-35.34 36 -34.68 36 -34 36 C-33.34 34.68 -32.68 33.36 -32 32 C-31.34 32 -30.68 32 -30 32 C-30 31.34 -30 30.68 -30 30 C-28.35546875 28.4140625 -28.35546875 28.4140625 -26.1875 26.625 C-23.93749143 24.76433718 -22.09649715 23.13127297 -20.36328125 20.7734375 C-19.91339844 20.18820313 -19.46351563 19.60296875 -19 19 C-18.34 19 -17.68 19 -17 19 C-17 18.34 -17 17.68 -17 17 C-16.34 17 -15.68 17 -15 17 C-14.773125 16.443125 -14.54625 15.88625 -14.3125 15.3125 C-11.88579746 11.03688123 -8.56749627 7.86083181 -4 6 C-4 5.34 -4 4.68 -4 4 C-3.34 4 -2.68 4 -2 4 C-1.34 2.68 -0.68 1.36 0 0 Z " fill="#EC4C2D" transform="translate(247,90)"/>
<path d="M0 0 C5.64598925 3.16671253 7.81790798 8.70796819 9.75 14.625 C9.75 19.3843791 7.85163319 23.35923363 5.75 27.5625 C5.09 27.5625 4.43 27.5625 3.75 27.5625 C3.564375 28.160625 3.37875 28.75875 3.1875 29.375 C1.09462383 32.55981157 -1.70580899 33.57041408 -5.25 34.5625 C-10.72040254 35.14861456 -14.45920112 34.26276846 -19.25 31.5625 C-22.83866701 28.22899051 -26.20742123 24.42786759 -27.25 19.5625 C-27.45440569 12.93209039 -25.74495771 7.50360736 -21.25 2.5625 C-14.88192311 -2.36270108 -7.3822549 -3.01118292 0 0 Z " fill="#EB4D30" transform="translate(304.25,144.4375)"/>
<path d="M0 0 C5.64598925 3.16671253 7.81790798 8.70796819 9.75 14.625 C9.75 18.7912586 8.39571958 21.74443057 6.75 25.5625 C6.42 25.5625 6.09 25.5625 5.75 25.5625 C5.76160156 24.52609375 5.77320313 23.4896875 5.78515625 22.421875 C5.79453837 21.05208514 5.80363812 19.68229332 5.8125 18.3125 C5.82506836 17.28962891 5.82506836 17.28962891 5.83789062 16.24609375 C5.85428392 12.86907446 5.80628768 9.78958361 4.75 6.5625 C4.09 6.5625 3.43 6.5625 2.75 6.5625 C2.75 5.9025 2.75 5.2425 2.75 4.5625 C-1.54 3.9025 -5.83 3.2425 -10.25 2.5625 C-11.24 4.0475 -11.24 4.0475 -12.25 5.5625 C-12.8275 5.376875 -13.405 5.19125 -14 5 C-16.51019347 4.51190683 -17.89247837 4.58697381 -20.25 5.5625 C-20.58 6.5525 -20.91 7.5425 -21.25 8.5625 C-21.91 8.5625 -22.57 8.5625 -23.25 8.5625 C-23.31058594 9.38234375 -23.37117188 10.2021875 -23.43359375 11.046875 C-23.51738281 12.12453125 -23.60117187 13.2021875 -23.6875 14.3125 C-23.76871094 15.37984375 -23.84992188 16.4471875 -23.93359375 17.546875 C-24.19090773 19.99929962 -24.56812218 22.20171291 -25.25 24.5625 C-27.84324727 19.83363733 -27.53720226 15.64356157 -26.25 10.5625 C-24.00013168 5.05420169 -20.93819476 1.51016095 -15.421875 -0.8125 C-10.04174158 -2.36073983 -5.18766207 -2.11602005 0 0 Z " fill="#E24E36" transform="translate(304.25,144.4375)"/>
<path d="M0 0 C3 1 3 1 4.28125 3.1171875 C8.16430919 11.90385349 10.75862033 20.4827559 12 30 C12.33 30.33 12.66 30.66 13 31 C13.10028446 33.24429055 13.13081419 35.49175214 13.1328125 37.73828125 C13.13376923 38.415457 13.13472595 39.09263275 13.13571167 39.79032898 C13.13639357 41.22700086 13.1345386 42.6636758 13.13037109 44.1003418 C13.12504764 46.29287726 13.1303028 48.48520554 13.13671875 50.67773438 C13.13605748 52.07291712 13.13477532 53.46809973 13.1328125 54.86328125 C13.13168457 56.13469971 13.13055664 57.40611816 13.12939453 58.71606445 C13.02507693 61.36356656 12.79298886 63.49385597 12 66 C11.34 66 10.68 66 10 66 C10.01571045 65.07888428 10.0314209 64.15776855 10.04760742 63.20874023 C10.09945351 59.71405141 10.13669158 56.21978478 10.16479492 52.72485352 C10.17966572 51.22674008 10.19996866 49.7286684 10.22631836 48.23071289 C10.4560179 34.81355756 9.25471346 22.23958602 3.875 9.75 C3.351165 8.51579364 2.82771194 7.28142508 2.3046875 6.046875 C1.87414062 5.04140625 1.44359375 4.0359375 1 3 C0.67 2.01 0.34 1.02 0 0 Z " fill="#DE7F6D" transform="translate(336,231)"/>
<path d="M0 0 C0.6875 1.6875 0.6875 1.6875 1 4 C-0.3125 6.5625 -0.3125 6.5625 -2 9 C-2.99 10.485 -2.99 10.485 -4 12 C-7.035651 13.92257897 -8.21850924 14 -12 14 C-12.3403125 15.175625 -12.3403125 15.175625 -12.6875 16.375 C-14 19 -14 19 -16.4375 20.3125 C-19 21 -19 21 -22 21 C-22 21.66 -22 22.32 -22 23 C-23.98 23 -25.96 23 -28 23 C-25.11830118 20.80725906 -22.17458028 18.73376759 -19.1875 16.6875 C-15.96946425 14.45341314 -12.93383695 12.15805386 -10 9.5625 C-7 7 -7 7 -5 7 C-5 6.34 -5 5.68 -5 5 C-4.34 5 -3.68 5 -3 5 C-3 4.34 -3 3.68 -3 3 C-2.34 3 -1.68 3 -1 3 C-0.67 2.01 -0.34 1.02 0 0 Z " fill="#E26751" transform="translate(322,344)"/>
<path d="M0 0 C8.24526477 3.25323372 13.69633414 13.64211965 18 21 C16.35 21.33 14.7 21.66 13 22 C10.70986347 18.5647952 10.82157027 17.014669 11 13 C9.68 13 8.36 13 7 13 C6.54625 12.05125 6.0925 11.1025 5.625 10.125 C4.19761746 6.99686321 4.19761746 6.99686321 2 5 C-1.22716073 4.65539312 -1.22716073 4.65539312 -3.5625 7.4375 C-4.7690625 8.7059375 -4.7690625 8.7059375 -6 10 C-6.99 10.495 -6.99 10.495 -8 11 C-8.33 10.01 -8.66 9.02 -9 8 C-6.14723863 5.06799526 -3.34920216 2.35684596 0 0 Z " fill="#E35F46" transform="translate(342,184)"/>
<path d="M0 0 C0.6875 1.6875 0.6875 1.6875 1 4 C-0.5218818 7.1198577 -2.23293724 9.87149018 -5 12 C-7.6875 12.6875 -7.6875 12.6875 -10 13 C-10 13.66 -10 14.32 -10 15 C-10.66 15 -11.32 15 -12 15 C-12.33 16.65 -12.66 18.3 -13 20 C-14.65 20 -16.3 20 -18 20 C-18 20.66 -18 21.32 -18 22 C-18.66 22 -19.32 22 -20 22 C-20 22.99 -20 23.98 -20 25 C-21.32 25.33 -22.64 25.66 -24 26 C-22.625 23.5 -22.625 23.5 -21 21 C-20.34 21 -19.68 21 -19 21 C-18.34 19.68 -17.68 18.36 -17 17 C-16.34 17 -15.68 17 -15 17 C-15 16.34 -15 15.68 -15 15 C-14.34 15 -13.68 15 -13 15 C-12.34 13.68 -11.68 12.36 -11 11 C-10.34 11 -9.68 11 -9 11 C-9 10.34 -9 9.68 -9 9 C-8.34 9 -7.68 9 -7 9 C-6.67 8.01 -6.34 7.02 -6 6 C-5.34 6 -4.68 6 -4 6 C-4 5.34 -4 4.68 -4 4 C-3.34 4 -2.68 4 -2 4 C-1.34 2.68 -0.68 1.36 0 0 Z " fill="#DD755F" transform="translate(177,160)"/>
<path d="M0 0 C0.99 0 1.98 0 3 0 C6.9686142 9.57476339 6.9686142 9.57476339 8.0625 14.0625 C8.371875 15.031875 8.68125 16.00125 9 17 C9.99 17.33 10.98 17.66 12 18 C13.16513114 20.96578836 13.08762121 23.84563636 13 27 C8.94593178 22.49547975 6.55191891 17.43389673 4 12 C3.60167969 11.16082031 3.20335938 10.32164062 2.79296875 9.45703125 C0 3.40724382 0 3.40724382 0 0 Z " fill="#E37861" transform="translate(122,321)"/>
<path d="M0 0 C2 1 2 1 3.18359375 4.0703125 C3.61229616 5.41850882 4.02950312 6.77039393 4.4375 8.125 C4.65486816 8.83841553 4.87223633 9.55183105 5.09619141 10.28686523 C10.77811011 29.43961346 10.77811011 29.43961346 9 39 C8.67 39 8.34 39 8 39 C7.66191314 36.93827387 7.32972639 34.8755797 7 32.8125 C6.814375 31.66394531 6.62875 30.51539063 6.4375 29.33203125 C6.06510523 26.49584607 5.91403979 23.85280436 6 21 C5.34 21 4.68 21 4 21 C3.87882812 20.19175781 3.75765625 19.38351563 3.6328125 18.55078125 C3.46523438 17.48214844 3.29765625 16.41351563 3.125 15.3125 C2.96257812 14.25675781 2.80015625 13.20101562 2.6328125 12.11328125 C2.10393469 9.02485832 2.10393469 9.02485832 0.9296875 6.35546875 C0 4 0 4 0 0 Z " fill="#DD755F" transform="translate(371,227)"/>
<path d="M0 0 C6.42238764 -0.53519897 11.8511401 -0.20658489 17 4 C20.34569543 8.37514018 23 13.41664405 23 19 C22.19083696 21.79390259 21.15632673 24.31732198 20 27 C19.67 27 19.34 27 19 27 C19.01160156 25.96359375 19.02320313 24.9271875 19.03515625 23.859375 C19.04453837 22.48958514 19.05363812 21.11979332 19.0625 19.75 C19.07087891 19.06808594 19.07925781 18.38617188 19.08789062 17.68359375 C19.10428392 14.30657446 19.05628768 11.22708361 18 8 C17.34 8 16.68 8 16 8 C16 7.34 16 6.68 16 6 C15.13375 5.71125 14.2675 5.4225 13.375 5.125 C12.26125 4.75375 11.1475 4.3825 10 4 C8.96875 3.67 7.9375 3.34 6.875 3 C4.43981695 2.15297981 2.28372243 1.17616606 0 0 Z " fill="#D76C5A" transform="translate(291,143)"/>
<path d="M0 0 C-7.26391315 7.26391315 -25.13457311 6.26217012 -34.84448242 6.27685547 C-40.56462218 6.23814167 -46.28182755 6.15585752 -52 6 C-52 5.67 -52 5.34 -52 5 C-51.31599121 4.98018066 -50.63198242 4.96036133 -49.92724609 4.93994141 C-28.80138267 4.99354179 -28.80138267 4.99354179 -8.4375 0.3125 C-4.94033003 -1.02278308 -3.48151066 -1.19676929 0 0 Z " fill="#E88A7B" transform="translate(286,406)"/>
<path d="M0 0 C1 3 1 3 0 6 C-3 8 -3 8 -6 8 C-6 8.99 -6 9.98 -6 11 C-6.66 11 -7.32 11 -8 11 C-8 13.31 -8 15.62 -8 18 C-7.34 18 -6.68 18 -6 18 C-5.67 19.32 -5.34 20.64 -5 22 C-5.99 22 -6.98 22 -8 22 C-8.33 21.01 -8.66 20.02 -9 19 C-9.66 19 -10.32 19 -11 19 C-11 18.34 -11 17.68 -11 17 C-11.66 17 -12.32 17 -13 17 C-12.62403791 14.21788056 -12.32681541 12.4120716 -10.5625 10.1875 C-9 9 -9 9 -7 9 C-6.773125 8.443125 -6.54625 7.88625 -6.3125 7.3125 C-4.64103234 4.36753316 -2.44723648 2.31843456 0 0 Z " fill="#E16E5B" transform="translate(332,193)"/>
<path d="M0 0 C0.33 0 0.66 0 1 0 C0.83344651 7.58575445 -0.47777646 14.68433397 -2.375 22 C-2.58406982 22.8247583 -2.79313965 23.6495166 -3.00854492 24.49926758 C-4.10449468 28.56820579 -5.06052784 31.8370592 -8 35 C-8.33 33.35 -8.66 31.7 -9 30 C-8.34 29.67 -7.68 29.34 -7 29 C-4.51073401 21.21062221 -3.47284674 13.1362249 -3 5 C-2.34 5 -1.68 5 -1 5 C-0.67 3.35 -0.34 1.7 0 0 Z " fill="#D9624E" transform="translate(380,293)"/>
<path d="M0 0 C3 1 3 1 4.28125 3.1171875 C8.68547104 13.0831492 11.643424 22.01413099 11 33 C9.17176014 29.75584671 8.42079911 26.70200296 7.6875 23.0625 C6.14538721 16.0636804 3.68538648 9.62652924 1 3 C0.67 2.01 0.34 1.02 0 0 Z " fill="#E3786B" transform="translate(336,231)"/>
<path d="M0 0 C2 1 2 1 3 3 C1.865625 3.28875 0.73125 3.5775 -0.4375 3.875 C-1.613125 4.24625 -2.78875 4.6175 -4 5 C-4.33 5.66 -4.66 6.32 -5 7 C-7.51781038 7.45002919 -9.96234974 7.79476626 -12.5 8.0625 C-17.12673931 8.18808995 -17.12673931 8.18808995 -21 10 C-23.35313555 10.07271741 -25.70833668 10.08370868 -28.0625 10.0625 C-29.35285156 10.05347656 -30.64320313 10.04445313 -31.97265625 10.03515625 C-32.97167969 10.02355469 -33.97070312 10.01195312 -35 10 C-35 9.67 -35 9.34 -35 9 C-33.74509766 8.85304688 -33.74509766 8.85304688 -32.46484375 8.703125 C-22.45757764 7.41758472 -11.75555557 5.93886269 -2.6875 1.30859375 C-1.800625 0.87675781 -0.91375 0.44492187 0 0 Z " fill="#E0806D" transform="translate(289,368)"/>
<path d="M0 0 C0.66 0 1.32 0 2 0 C2.12686439 6.74418027 2.21437811 13.48805244 2.2746582 20.2331543 C2.29978928 22.52721658 2.33389969 24.8211989 2.37719727 27.11499023 C2.43790832 30.41410049 2.46622437 33.71215146 2.48828125 37.01171875 C2.51408768 38.03585373 2.5398941 39.05998871 2.56648254 40.11515808 C2.56960611 48.06039656 2.56960611 48.06039656 -0.53051758 51.18676758 C-1.75291138 52.08431763 -1.75291138 52.08431763 -3 53 C-3.33 51.68 -3.66 50.36 -4 49 C-3.01 49 -2.02 49 -1 49 C-1 48.34 -1 47.68 -1 47 C-0.34 47 0.32 47 1 47 C1 32.15 1 17.3 1 2 C0.34 1.67 -0.32 1.34 -1 1 C-0.67 0.67 -0.34 0.34 0 0 Z " fill="#DE887E" transform="translate(247,90)"/>
<path d="M0 0 C0.66 0.99 1.32 1.98 2 3 C0.625 4.5 0.625 4.5 -1 6 C-1.66 6 -2.32 6 -3 6 C-2.34 7.65 -1.68 9.3 -1 11 C-1.63808594 11.19335938 -2.27617187 11.38671875 -2.93359375 11.5859375 C-3.75988281 11.84632813 -4.58617187 12.10671875 -5.4375 12.375 C-6.26121094 12.63023437 -7.08492187 12.88546875 -7.93359375 13.1484375 C-10.17798016 13.80882227 -10.17798016 13.80882227 -11 16 C-13.0625 16.625 -13.0625 16.625 -15 17 C-15 16.34 -15 15.68 -15 15 C-14.34 15 -13.68 15 -13 15 C-12.7525 14.38125 -12.505 13.7625 -12.25 13.125 C-10.76259631 10.59641373 -9.56321991 10.28160996 -7 9 C-6.31513275 7.67592331 -5.65129797 6.34090759 -5 5 C-3.37253306 3.29503463 -1.71108689 1.62102968 0 0 Z " fill="#E2745F" transform="translate(207,130)"/>
<path d="M0 0 C0 3.48961209 -0.90379374 5.11480295 -2.5 8.1875 C-2.9640625 9.08855469 -3.428125 9.98960937 -3.90625 10.91796875 C-4.2671875 11.60503906 -4.628125 12.29210937 -5 13 C-5.66 13 -6.32 13 -7 13 C-7.226875 13.680625 -7.45375 14.36125 -7.6875 15.0625 C-9.35572357 18.79614324 -11.55729608 21.72163421 -14 25 C-15.04449911 21.86650268 -14.93423645 21.01031744 -14 18 C-13.01 18 -12.02 18 -11 18 C-11 17.34 -11 16.68 -11 16 C-10.34 16 -9.68 16 -9 16 C-9 14.68 -9 13.36 -9 12 C-8.01 12 -7.02 12 -6 12 C-5.97873047 11.07767578 -5.97873047 11.07767578 -5.95703125 10.13671875 C-5.81117256 7.66500527 -5.60506817 5.40322852 -5 3 C-2.4375 0.9375 -2.4375 0.9375 0 0 Z " fill="#DF6B5A" transform="translate(368,336)"/>
<path d="M0 0 C0.92111572 0.12846313 0.92111572 0.12846313 1.86083984 0.25952148 C4.69862378 0.65414665 7.53680585 1.04583649 10.375 1.4375 C11.34050781 1.57220703 12.30601562 1.70691406 13.30078125 1.84570312 C19.52359716 2.70186236 25.74498886 3.42394833 32 4 C32 4.33 32 4.66 32 5 C28.16692831 5.11719175 24.33432392 5.18758077 20.5 5.25 C19.42234375 5.28351563 18.3446875 5.31703125 17.234375 5.3515625 C10.30419508 5.43607689 5.92364015 4.65195291 0 1 C0 0.67 0 0.34 0 0 Z " fill="#E07E6C" transform="translate(221,374)"/>
<path d="M0 0 C0.33 0 0.66 0 1 0 C1.51262464 6.69259947 0.75511969 11.65002333 -2.02734375 17.7734375 C-2.93240302 19.84525992 -3.52188903 21.79565678 -4 24 C-4.66 24 -5.32 24 -6 24 C-5.43189471 18.20140805 -4.26320265 13.02313406 -2.4375 7.5 C-2.08655273 6.40945312 -2.08655273 6.40945312 -1.72851562 5.296875 C-1.15867219 3.52919739 -0.58024596 1.76429031 0 0 Z " fill="#DF7560" transform="translate(124,228)"/>
<path d="M0 0 C2.26316991 3.39475487 2.17045826 4.06801512 1.6875 7.9375 C1.58824219 8.79214844 1.48898438 9.64679688 1.38671875 10.52734375 C1 13 1 13 0.49560547 14.78833008 C-0.11220125 17.50070498 -0.21719037 20.0813303 -0.31640625 22.859375 C-0.35830078 23.97441406 -0.40019531 25.08945312 -0.44335938 26.23828125 C-0.48267578 27.39714844 -0.52199219 28.55601562 -0.5625 29.75 C-0.60568359 30.92433594 -0.64886719 32.09867187 -0.69335938 33.30859375 C-0.79934794 36.20561451 -0.90141638 39.10271935 -1 42 C-1.33 42 -1.66 42 -2 42 C-2.02465392 37.46102295 -2.04283789 32.92208457 -2.05493164 28.38305664 C-2.0599714 26.83780234 -2.0668032 25.29255284 -2.07543945 23.74731445 C-2.08752076 21.53074971 -2.09323173 19.31424782 -2.09765625 17.09765625 C-2.10281754 16.4028566 -2.10797882 15.70805695 -2.11329651 14.99220276 C-2.11349277 13.3277067 -2.06189129 11.66334501 -2 10 C-1.67 9.67 -1.34 9.34 -1 9 C-0.76807135 7.48530552 -0.58784762 5.96245438 -0.4375 4.4375 C-0.35371094 3.61121094 -0.26992187 2.78492188 -0.18359375 1.93359375 C-0.12300781 1.29550781 -0.06242188 0.65742188 0 0 Z " fill="#EA9383" transform="translate(151,247)"/>
<path d="M0 0 C0.66 0.99 1.32 1.98 2 3 C0.25 6 0.25 6 -2 9 C-3.32 9 -4.64 9 -6 9 C-6.33 9.99 -6.66 10.98 -7 12 C-8.31647119 12.69937532 -9.65022151 13.36729133 -11 14 C-11.33 14.66 -11.66 15.32 -12 16 C-12.66 15.67 -13.32 15.34 -14 15 C-12.625 13 -12.625 13 -11 11 C-10.34 11 -9.68 11 -9 11 C-9 10.34 -9 9.68 -9 9 C-8.34 9 -7.68 9 -7 9 C-6.773125 8.443125 -6.54625 7.88625 -6.3125 7.3125 C-4.64103234 4.36753316 -2.44723648 2.31843456 0 0 Z " fill="#E25D4A" transform="translate(239,98)"/>
<path d="M0 0 C1.9375 0.8125 1.9375 0.8125 4 2 C4.33 2.99 4.66 3.98 5 5 C3 5 1 5 -1 5 C-2.70779973 6.62449243 -4.37550757 8.29220027 -6 10 C-6.99 10.495 -6.99 10.495 -8 11 C-8.33 10.01 -8.66 9.02 -9 8 C-6.14723863 5.06799526 -3.34920216 2.35684596 0 0 Z " fill="#DC7A69" transform="translate(342,184)"/>
<path d="M0 0 C-0.33 0.99 -0.66 1.98 -1 3 C-1.66 3 -2.32 3 -3 3 C-3 3.66 -3 4.32 -3 5 C-4.78398614 6.28006797 -6.62853906 7.47660351 -8.5 8.625 C-9.5209375 9.25664062 -10.541875 9.88828125 -11.59375 10.5390625 C-12.3878125 11.02117187 -13.181875 11.50328125 -14 12 C-14.33 10.68 -14.66 9.36 -15 8 C-13.865625 7.566875 -12.73125 7.13375 -11.5625 6.6875 C-10.386875 6.130625 -9.21125 5.57375 -8 5 C-7.67 4.01 -7.34 3.02 -7 2 C-4.39757586 0.35179805 -3.13751221 0 0 0 Z " fill="#DF6B53" transform="translate(336,378)"/>
<path d="M0 0 C0.33 0.66 0.66 1.32 1 2 C0.34 2 -0.32 2 -1 2 C-1.309375 2.94875 -1.61875 3.8975 -1.9375 4.875 C-3 8 -3 8 -4 10 C-5.33333333 10.33333333 -6.66666667 10.66666667 -8 11 C-8.33 11.66 -8.66 12.32 -9 13 C-11.0625 13.625 -11.0625 13.625 -13 14 C-13 13.34 -13 12.68 -13 12 C-12.34 12 -11.68 12 -11 12 C-10.34 10.68 -9.68 9.36 -9 8 C-8.34 8 -7.68 8 -7 8 C-7 7.34 -7 6.68 -7 6 C-5.46875 4.4921875 -5.46875 4.4921875 -3.5 2.875 C-2.8503125 2.33617188 -2.200625 1.79734375 -1.53125 1.2421875 C-0.77328125 0.62730469 -0.77328125 0.62730469 0 0 Z " fill="#E07D68" transform="translate(224,114)"/>
<path d="M0 0 C4.22869476 4.22869476 4.37980821 8.46756036 4.625 14.25 C4.66367188 14.99507813 4.70234375 15.74015625 4.7421875 16.5078125 C4.83605108 18.3381524 4.91909718 20.16904143 5 22 C3.23823164 18.7981775 2.26648671 15.66393208 1.375 12.125 C0.98441406 10.61292969 0.98441406 10.61292969 0.5859375 9.0703125 C-0.00582246 5.9694903 -0.10338133 3.14843131 0 0 Z " fill="#DC7B67" transform="translate(117,299)"/>
<path d="M0 0 C4.18068011 4.66306628 7.62513556 10.20533077 10 16 C9.66796875 18.33984375 9.66796875 18.33984375 9 20 C8.54625 19.21625 8.0925 18.4325 7.625 17.625 C6.11571258 14.96301969 6.11571258 14.96301969 4 13 C3.30341637 11.34561387 2.63903117 9.67745682 2 8 C1.62875 7.319375 1.2575 6.63875 0.875 5.9375 C0 4 0 4 0 0 Z " fill="#DF7264" transform="translate(361,207)"/>
<path d="M0 0 C0.66 0.33 1.32 0.66 2 1 C-0.3626943 6.72020725 -0.3626943 6.72020725 -3.5625 8.125 C-4.366875 8.41375 -5.17125 8.7025 -6 9 C-7.34410262 11.01735205 -7.34410262 11.01735205 -8 13 C-9.32 12.67 -10.64 12.34 -12 12 C-11.01 11.67 -10.02 11.34 -9 11 C-9 10.34 -9 9.68 -9 9 C-8.34 9 -7.68 9 -7 9 C-6.773125 8.443125 -6.54625 7.88625 -6.3125 7.3125 C-4.64103234 4.36753316 -2.44723648 2.31843456 0 0 Z " fill="#DE7967" transform="translate(190,147)"/>
<path d="M0 0 C1.32 0.33 2.64 0.66 4 1 C-7.52164009 7.51936219 -7.52164009 7.51936219 -13 9 C-13.33 8.01 -13.66 7.02 -14 6 C-12.02 6 -10.04 6 -8 6 C-8 5.34 -8 4.68 -8 4 C-4.77208445 1.8480563 -3.71599191 1.79913557 0 2 C0 1.34 0 0.68 0 0 Z " fill="#E17C66" transform="translate(312,393)"/>
<path d="M0 0 C1.49828872 3.88235819 0.43110582 6.43449288 -0.9375 10.25 C-1.31777344 11.32765625 -1.69804687 12.4053125 -2.08984375 13.515625 C-2.39019531 14.33546875 -2.69054687 15.1553125 -3 16 C-4.32 16 -5.64 16 -7 16 C-5.56835889 12.34061828 -4.01065704 8.76011932 -2.375 5.1875 C-1.92898438 4.21167969 -1.48296875 3.23585938 -1.0234375 2.23046875 C-0.51683594 1.12638672 -0.51683594 1.12638672 0 0 Z " fill="#E27B6B" transform="translate(341,313)"/>
<path d="M0 0 C1.32 0 2.64 0 4 0 C4 0.66 4 1.32 4 2 C3.34 2 2.68 2 2 2 C2 2.66 2 3.32 2 4 C1.34 4 0.68 4 0 4 C0 4.66 0 5.32 0 6 C-0.66 6 -1.32 6 -2 6 C-2.4021875 7.175625 -2.4021875 7.175625 -2.8125 8.375 C-4 11 -4 11 -7 13 C-7 12.01 -7 11.02 -7 10 C-6.34 10 -5.68 10 -5 10 C-5 8.35 -5 6.7 -5 5 C-4.01 5 -3.02 5 -2 5 C-2.33 4.01 -2.66 3.02 -3 2 C-2.01 2 -1.02 2 0 2 C0 1.34 0 0.68 0 0 Z " fill="#E0705A" transform="translate(174,208)"/>
<path d="M0 0 C0.88751953 0.30744141 0.88751953 0.30744141 1.79296875 0.62109375 C5.83660816 1.9997571 9.76855249 3.31750847 14 4 C14 4.33 14 4.66 14 5 C10.7 5.66 7.4 6.32 4 7 C4.33 6.34 4.66 5.68 5 5 C2.69 4.34 0.38 3.68 -2 3 C-1.34 2.67 -0.68 2.34 0 2 C0 1.34 0 0.68 0 0 Z " fill="#E0705A" transform="translate(207,369)"/>
<path d="M0 0 C0.99 0 1.98 0 3 0 C3 3.96 3 7.92 3 12 C2.67 12 2.34 12 2 12 C1.67 9.69 1.34 7.38 1 5 C0.01 5.66 -0.98 6.32 -2 7 C-2.99 6.34 -3.98 5.68 -5 5 C-4.01 4.67 -3.02 4.34 -2 4 C-2 3.34 -2 2.68 -2 2 C-1.34 2 -0.68 2 0 2 C0 1.34 0 0.68 0 0 Z " fill="#DB6451" transform="translate(245,92)"/>
<path d="M0 0 C0.33 0.66 0.66 1.32 1 2 C0.0625 4.625 0.0625 4.625 -1 7 C-1.66 7 -2.32 7 -3 7 C-3.226875 7.94875 -3.45375 8.8975 -3.6875 9.875 C-5 13 -5 13 -7.58203125 14.1953125 C-8.37996094 14.46085937 -9.17789062 14.72640625 -10 15 C-9.08333333 13.625 -8.16666667 12.25 -7.25 10.875 C-6.70601563 10.05902344 -6.16203125 9.24304688 -5.6015625 8.40234375 C-3.734375 5.6015625 -1.8671875 2.80078125 0 0 Z " fill="#E38675" transform="translate(333,329)"/>
<path d="M0 0 C1 3 1 3 0 6 C-3 8 -3 8 -6 8 C-6 8.99 -6 9.98 -6 11 C-7.65 11.33 -9.3 11.66 -11 12 C-10.34 11.01 -9.68 10.02 -9 9 C-8.34 9 -7.68 9 -7 9 C-6.773125 8.443125 -6.54625 7.88625 -6.3125 7.3125 C-4.64103234 4.36753316 -2.44723648 2.31843456 0 0 Z " fill="#E47F6F" transform="translate(332,193)"/>
<path d="M0 0 C1.36223546 2.72447091 0.35357753 4.07597535 -0.51953125 6.84765625 C-1.41283816 10.84938072 -1.14764334 14.92340344 -1 19 C-4.02346764 14.46479854 -4.09620547 12.54946525 -3.45703125 7.265625 C-2.87988065 4.40453655 -1.73102664 2.33312287 0 0 Z " fill="#E3897A" transform="translate(281,150)"/>
<path d="M0 0 C1.485 0.99 1.485 0.99 3 2 C3 2.66 3 3.32 3 4 C3.66 4 4.32 4 5 4 C5 4.66 5 5.32 5 6 C5.66 6 6.32 6 7 6 C7 6.66 7 7.32 7 8 C7.99 8.33 8.98 8.66 10 9 C8 10 8 10 4.4375 9 C3.303125 8.34 2.16875 7.68 1 7 C0.0625 3.3125 0.0625 3.3125 0 0 Z " fill="#E17968" transform="translate(173,343)"/>
<path d="M0 0 C1.37245106 2.74490212 0.93580311 4.12060581 0 7 C-1.9375 8.0625 -1.9375 8.0625 -4 9 C-5.26804566 11.0335948 -5.26804566 11.0335948 -6 13 C-6.66 12.67 -7.32 12.34 -8 12 C-6.59023295 8.96147295 -4.91129772 6.4060405 -2.875 3.75 C-2.06675781 2.69039062 -2.06675781 2.69039062 -1.2421875 1.609375 C-0.83226562 1.07828125 -0.42234375 0.5471875 0 0 Z " fill="#E27561" transform="translate(144,195)"/>
<path d="M0 0 C4.55015893 1.51671964 6.50057264 5.16891053 9 9 C8.01 9.495 8.01 9.495 7 10 C7 9.34 7 8.68 7 8 C5.68 8 4.36 8 3 8 C0 2.25 0 2.25 0 0 Z " fill="#DA6753" transform="translate(346,189)"/>
<path d="M0 0 C1.1811027 3.54330811 0.73184189 4.89035553 -0.25 8.4375 C-0.50265625 9.38496094 -0.7553125 10.33242188 -1.015625 11.30859375 C-2.0004327 14.00118306 -3.16404016 15.81850839 -5 18 C-5.33 16.35 -5.66 14.7 -6 13 C-5.34 12.67 -4.68 12.34 -4 12 C-3.12484152 9.7231187 -3.12484152 9.7231187 -2.4375 7.0625 C-1.07119741 2.14239482 -1.07119741 2.14239482 0 0 Z " fill="#E38772" transform="translate(377,310)"/>
<path d="M0 0 C3 1 3 1 4.16796875 2.671875 C7.55343511 9.57251908 7.55343511 9.57251908 7 14 C4.44736912 11.725306 3.15855185 9.56797307 1.8125 6.4375 C1.46832031 5.65246094 1.12414062 4.86742187 0.76953125 4.05859375 C0 2 0 2 0 0 Z " fill="#DC6D5A" transform="translate(336,231)"/>
<path d="M0 0 C2.97 0.495 2.97 0.495 6 1 C6.33 2.98 6.66 4.96 7 7 C7.99 7.33 8.98 7.66 10 8 C9.34 8.66 8.68 9.32 8 10 C6.66370254 8.52351062 5.33103329 7.0437367 4 5.5625 C3.2575 4.73878906 2.515 3.91507812 1.75 3.06640625 C0 1 0 1 0 0 Z " fill="#E57660" transform="translate(142,359)"/>
<path d="M0 0 C5.94 3.465 5.94 3.465 12 7 C8 8 8 8 5 7 C5 6.34 5 5.68 5 5 C3.02 4.34 1.04 3.68 -1 3 C-0.67 2.01 -0.34 1.02 0 0 Z " fill="#E1725D" transform="translate(189,358)"/>
<path d="M0 0 C5.94 0.99 5.94 0.99 12 2 C12 2.99 12 3.98 12 5 C7.61110675 4.33501617 4.0188515 2.81242323 0 1 C0 0.67 0 0.34 0 0 Z " fill="#DF7161" transform="translate(221,374)"/>
<path d="M0 0 C0 3.48961209 -0.90379374 5.11480295 -2.5 8.1875 C-2.9640625 9.08855469 -3.428125 9.98960937 -3.90625 10.91796875 C-4.2671875 11.60503906 -4.628125 12.29210937 -5 13 C-6.04005517 9.2958035 -6.11721356 6.75064551 -5 3 C-2.4375 1.125 -2.4375 1.125 0 0 Z " fill="#E17B67" transform="translate(368,336)"/>
<path d="M0 0 C0.33 0 0.66 0 1 0 C1.36363636 5.45454545 1.36363636 5.45454545 -0.25 7.875 C-2 9 -2 9 -6 9 C-4.47300326 5.56425733 -2.44973747 2.84485642 0 0 Z " fill="#E16F5E" transform="translate(151,186)"/>
<path d="M0 0 C0.33 0 0.66 0 1 0 C1 1.65 1 3.3 1 5 C0.01 5.495 0.01 5.495 -1 6 C-2.05352843 8.30965848 -3.05719096 10.6429774 -4 13 C-4.66 12.67 -5.32 12.34 -6 12 C-4.43358249 7.69235185 -2.31663844 3.93828536 0 0 Z " fill="#DD8473" transform="translate(135,207)"/>
<path d="M0 0 C0.6875 1.6875 0.6875 1.6875 1 4 C-0.1875 6.6875 -0.1875 6.6875 -2 9 C-4.1875 9.8125 -4.1875 9.8125 -6 10 C-5.34 8.02 -4.68 6.04 -4 4 C-3.34 4 -2.68 4 -2 4 C-1.34 2.68 -0.68 1.36 0 0 Z " fill="#E16B57" transform="translate(177,160)"/>
<path d="M0 0 C0.99 0.33 1.98 0.66 3 1 C4.16513114 3.96578836 4.08762121 6.84563636 4 10 C0.06153846 5.69230769 0.06153846 5.69230769 -0.25 2.1875 C-0.1675 1.465625 -0.085 0.74375 0 0 Z " fill="#E3624F" transform="translate(131,338)"/>
<path d="M0 0 C0.5534764 2.07553648 1 3.84365964 1 6 C0.195625 6.12375 -0.60875 6.2475 -1.4375 6.375 C-2.7059375 6.684375 -2.7059375 6.684375 -4 7 C-4.33 7.66 -4.66 8.32 -5 9 C-5.66 8.34 -6.32 7.68 -7 7 C-5.68 6.34 -4.36 5.68 -3 5 C-3 4.34 -3 3.68 -3 3 C-2.34 3 -1.68 3 -1 3 C-0.67 2.01 -0.34 1.02 0 0 Z " fill="#E57A64" transform="translate(171,166)"/>
<path d="M0 0 C0.66 0 1.32 0 2 0 C1.39301257 4.12751449 -0.03810791 7.3321148 -2 11 C-2.33 11 -2.66 11 -3 11 C-3 8.69 -3 6.38 -3 4 C-2.34 4 -1.68 4 -1 4 C-0.67 2.68 -0.34 1.36 0 0 Z " fill="#DE6C5E" transform="translate(160,228)"/>
<path d="M0 0 C5.841744 -0.35050464 9.8531808 -0.16727335 15 3 C11.34142468 4.31534494 8.91973519 3.65468309 5.25 2.5625 C4.26515625 2.27503906 3.2803125 1.98757812 2.265625 1.69140625 C1.51796875 1.46324219 0.7703125 1.23507813 0 1 C0 0.67 0 0.34 0 0 Z " fill="#E28A7B" transform="translate(291,143)"/>
<path d="M0 0 C2.97 0.495 2.97 0.495 6 1 C5.67 1.99 5.34 2.98 5 4 C4.34 4 3.68 4 3 4 C3 4.66 3 5.32 3 6 C2.34 6 1.68 6 1 6 C0.67 4.02 0.34 2.04 0 0 Z " fill="#E56B56" transform="translate(194,185)"/>
<path d="M0 0 C0.66 0.33 1.32 0.66 2 1 C0.10019993 4.51463012 -1.56635317 6.89550678 -5 9 C-5.66 9 -6.32 9 -7 9 C-7 8.01 -7 7.02 -7 6 C-5.35 5.67 -3.7 5.34 -2 5 C-2 4.01 -2 3.02 -2 2 C-1.34 2 -0.68 2 0 2 C0 1.34 0 0.68 0 0 Z " fill="#E34E36" transform="translate(159,180)"/>
<path d="M0 0 C0.33 0.66 0.66 1.32 1 2 C1.99 2.33 2.98 2.66 4 3 C2.71937515 4.7074998 1.38232443 6.37373596 0 8 C-0.66 8 -1.32 8 -2 8 C-1.125 1.125 -1.125 1.125 0 0 Z " fill="#DF6852" transform="translate(227,153)"/>
<path d="M0 0 C0.33 0.66 0.66 1.32 1 2 C0.08189308 4.67085649 -0.55583997 5.75773089 -3.0625 7.125 C-3.701875 7.41375 -4.34125 7.7025 -5 8 C-5.33 8.66 -5.66 9.32 -6 10 C-6.66 9.67 -7.32 9.34 -8 9 C-6.625 7 -6.625 7 -5 5 C-4.34 5 -3.68 5 -3 5 C-3 4.34 -3 3.68 -3 3 C-2.34 3 -1.68 3 -1 3 C-0.67 2.01 -0.34 1.02 0 0 Z " fill="#E38376" transform="translate(233,104)"/>
<path d="M0 0 C0.99 0.33 1.98 0.66 3 1 C1.68 2.65 0.36 4.3 -1 6 C-2.32 5.67 -3.64 5.34 -5 5 C-3.625 3.5 -3.625 3.5 -2 2 C-1.34 2 -0.68 2 0 2 C0 1.34 0 0.68 0 0 Z " fill="#E17662" transform="translate(317,349)"/>
<path d="M0 0 C0.33 0 0.66 0 1 0 C1.25 6.625 1.25 6.625 -1 10 C-1.66 9.67 -2.32 9.34 -3 9 C-2.01 6.03 -1.02 3.06 0 0 Z " fill="#E1816E" transform="translate(128,219)"/>
<path d="M0 0 C0.66 0.33 1.32 0.66 2 1 C-2.75 5.875 -2.75 5.875 -5 7 C-5.33 6.01 -5.66 5.02 -6 4 C-4.02 2.68 -2.04 1.36 0 0 Z " fill="#E16D56" transform="translate(339,188)"/>
<path d="M0 0 C3.3 0 6.6 0 10 0 C7.04816899 2.95183101 4.04488053 3.08663988 0 4 C0 2.68 0 1.36 0 0 Z " fill="#E07760" transform="translate(288,402)"/>
<path d="M0 0 C1 3 1 3 1 5 C1.99 5.33 2.98 5.66 4 6 C1.69 6.33 -0.62 6.66 -3 7 C-3 6.34 -3 5.68 -3 5 C-2.34 5 -1.68 5 -1 5 C-0.67 3.35 -0.34 1.7 0 0 Z " fill="#E75D43" transform="translate(316,386)"/>
<path d="M0 0 C2.625 0.375 2.625 0.375 5 1 C3.35 2.65 1.7 4.3 0 6 C-0.66 4.68 -1.32 3.36 -2 2 C-1.34 1.34 -0.68 0.68 0 0 Z " fill="#E0674D" transform="translate(179,202)"/>
<path d="M0 0 C0.99 0 1.98 0 3 0 C2.01 3.3 1.02 6.6 0 10 C-0.33 10 -0.66 10 -1 10 C-1.125 3.375 -1.125 3.375 0 0 Z " fill="#E17A6B" transform="translate(154,240)"/>
<path d="M0 0 C1.65 0 3.3 0 5 0 C5.33 0.99 5.66 1.98 6 3 C5.34 3 4.68 3 4 3 C3.67 4.32 3.34 5.64 3 7 C2.01 4.69 1.02 2.38 0 0 Z " fill="#E2715B" transform="translate(329,220)"/>
<path d="M0 0 C0 0.66 0 1.32 0 2 C-4.455 2.495 -4.455 2.495 -9 3 C-4.5 -1.5 -4.5 -1.5 0 0 Z " fill="#DE7664" transform="translate(292,145)"/>
<path d="M0 0 C2.97 0.495 2.97 0.495 6 1 C6.33 2.65 6.66 4.3 7 6 C6.34 6 5.68 6 5 6 C5 5.34 5 4.68 5 4 C4.360625 3.71125 3.72125 3.4225 3.0625 3.125 C1 2 1 2 0 0 Z " fill="#E27B61" transform="translate(159,377)"/>
<path d="M0 0 C1.32 0.33 2.64 0.66 4 1 C2.35 2.98 0.7 4.96 -1 7 C-1.33 6.01 -1.66 5.02 -2 4 C-1.34 4 -0.68 4 0 4 C0 2.68 0 1.36 0 0 Z " fill="#E27A66" transform="translate(349,361)"/>
<path d="M0 0 C-1.65 1.32 -3.3 2.64 -5 4 C-5 3.34 -5 2.68 -5 2 C-5.66 2 -6.32 2 -7 2 C-7 1.34 -7 0.68 -7 0 C-3.86650268 -1.04449911 -3.01031744 -0.93423645 0 0 Z " fill="#DF604A" transform="translate(215,172)"/>
<path d="M0 0 C1.32 0.66 2.64 1.32 4 2 C2.35 3.65 0.7 5.3 -1 7 C-1.99 6.01 -2.98 5.02 -4 4 C-2.68 4.33 -1.36 4.66 0 5 C0 3.35 0 1.7 0 0 Z " fill="#DE6C59" transform="translate(220,161)"/>
<path d="M0 0 C1.65 0 3.3 0 5 0 C3.02 2.97 3.02 2.97 1 6 C-0.0625 4.125 -0.0625 4.125 -1 2 C-0.67 1.34 -0.34 0.68 0 0 Z " fill="#DD6C57" transform="translate(188,193)"/>
</svg>
