<?xml version="1.0" encoding="UTF-8"?>
<svg version="1.1" xmlns="http://www.w3.org/2000/svg" width="632" height="395">
<path d="M0 0 C17.45385253 16.67812575 25.80547026 38.37203708 26.92822266 62.13696289 C27.02045688 68.37384089 26.41706313 74.45273582 25.5625 80.625 C25.42900146 81.59501953 25.29550293 82.56503906 25.15795898 83.56445312 C24.29898957 89.39229814 23.12950201 94.70036502 20.83984375 100.15234375 C19.63008328 103.13764621 18.78916069 106.14373548 17.9375 109.25 C16.60428497 114.08356842 15.10081158 118.79994277 13.44335938 123.53149414 C10.85875832 130.93292181 8.84745061 137.7537125 8.8125 145.6875 C10.06970278 145.14128811 11.31799748 144.57456047 12.5625 144 C13.25859375 143.68675781 13.9546875 143.37351563 14.671875 143.05078125 C18.42449869 140.6608804 20.43722559 137.97151066 21.68359375 133.70703125 C21.87050781 132.64871094 22.05742187 131.59039062 22.25 130.5 C23.54993462 124.44051639 24.85839712 118.60578068 28.8125 113.6875 C33.76381032 110.65369713 37.13619292 110.55223858 42.8125 111.6875 C42.1525 114.9875 41.4925 118.2875 40.8125 121.6875 C41.1425 121.3575 41.4725 121.0275 41.8125 120.6875 C43.38523814 119.36232249 44.97067505 118.05218816 46.5625 116.75 C47.42359375 116.03972656 48.2846875 115.32945312 49.171875 114.59765625 C53.05322528 111.7899931 55.62739643 110.64663436 60.4375 110.8125 C63.8125 111.6875 63.8125 111.6875 65.52734375 113.4296875 C67.92942503 117.64975735 66.69509725 122.08747329 65.8125 126.6875 C64.88005883 129.78913486 63.83086298 132.82396954 62.734375 135.87109375 C61.54395218 139.50793635 61.10521006 142.88226928 60.8125 146.6875 C61.740625 146.048125 62.66875 145.40875 63.625 144.75 C66.8125 142.6875 66.8125 142.6875 69.8125 141.6875 C70.1425 140.6975 70.4725 139.7075 70.8125 138.6875 C72.1325 138.6875 73.4525 138.6875 74.8125 138.6875 C75.12890625 141.36328125 75.12890625 141.36328125 74.8125 144.6875 C69.69000033 151.01420394 62.92946622 156.69117596 54.75 158.0234375 C52.625 158.1875 52.625 158.1875 48.8125 157.6875 C45.06276761 154.41850254 44.31237147 151.5195909 43.8125 146.6875 C44.23046875 143.8984375 44.23046875 143.8984375 45 141.0625 C45.41765625 139.51949219 45.41765625 139.51949219 45.84375 137.9453125 C47.36961211 132.81398588 49.04732693 127.74109193 50.8125 122.6875 C42.65256404 129.53131726 36.68031812 134.64504601 35.4765625 145.80078125 C35.21907782 148.76185504 34.9975949 151.72111066 34.8125 154.6875 C26.43317997 158.36774726 26.43317997 158.36774726 21.8125 156.6875 C19.84427114 154.71927114 20.15001619 151.33941291 19.8125 148.6875 C19.19503906 149.15800781 18.57757813 149.62851563 17.94140625 150.11328125 C7.32949207 157.91473414 7.32949207 157.91473414 0.8125 158.6875 C-2.92989177 157.25424358 -3.95689139 156.03341291 -6.1875 152.6875 C-6.1875 151.6975 -6.1875 150.7075 -6.1875 149.6875 C-9.40216996 152.38337596 -12.57097945 155.05431673 -15.5 158.0625 C-40.55550957 182.5353233 -74.981675 188.11480557 -108.6953125 187.83984375 C-116.64162906 187.70093819 -124.3595894 187.04278547 -132.1875 185.6875 C-132.97237793 185.55327637 -133.75725586 185.41905273 -134.56591797 185.28076172 C-160.54287414 180.68581727 -160.54287414 180.68581727 -169.1875 170.6875 C-185.79646488 146.05086876 -183.56660039 106.52745959 -178.5078125 78.859375 C-174.58019879 59.51693331 -167.09571498 41.75752769 -154.1875 26.6875 C-153.69765625 26.07777344 -153.2078125 25.46804687 -152.703125 24.83984375 C-148.9564651 20.25723553 -144.72531581 16.47163014 -140.1875 12.6875 C-139.33929688 11.96304688 -138.49109375 11.23859375 -137.6171875 10.4921875 C-98.22741884 -22.61317362 -42.79683905 -31.04868715 0 0 Z " fill="#F59738" transform="translate(432.1875,96.3125)"/>
<path d="M0 0 C17.74438013 -0.54391356 32.76236782 5.04949707 47.3125 15.1484375 C48.075625 15.67179688 48.83875 16.19515625 49.625 16.734375 C50.181875 17.20101562 50.73875 17.66765625 51.3125 18.1484375 C51.3125 18.8084375 51.3125 19.4684375 51.3125 20.1484375 C51.89386719 20.40238281 52.47523438 20.65632813 53.07421875 20.91796875 C63.18174207 26.47446063 67.97436028 38.97985527 71.37890625 49.41796875 C75.991719 67.84693564 77.4834198 94.00646093 67.6875 110.9609375 C57.13546936 120.67991309 41.53857768 121.82048697 27.75 121.4921875 C13.00080015 120.53798788 -1.10168807 118.18412643 -13.6875 110.1484375 C-14.49832031 109.64828125 -15.30914062 109.148125 -16.14453125 108.6328125 C-32.47248444 97.30904811 -42.59212203 76.3673792 -46.4375 57.4609375 C-47.61529508 41.85515267 -44.61839274 26.53628338 -34.2421875 14.25390625 C-24.19746931 4.48739454 -13.63965863 0.54905406 0 0 Z " fill="#3398CB" transform="translate(171.6875,160.8515625)"/>
<path d="M0 0 C0.51056987 12.89188916 0.53075823 23.77456396 -7.78515625 34.390625 C-9.023716 36.03141798 -9.97122142 37.68772649 -10.9375 39.5 C-12.39638397 42.21964789 -14.0377897 44.04782118 -16.25 46.1875 C-19.8283304 50.17348829 -19.60334445 54.06631168 -19.50390625 59.23046875 C-18.94319703 62.31219615 -18.17373273 63.76906378 -16 66 C-13.21717469 66.83752425 -13.21717469 66.83752425 -10 66 C-7.83905741 64.63431759 -5.89489467 63.14153894 -3.9296875 61.5078125 C-2 60 -2 60 0.21875 59.08984375 C0.8065625 58.73019531 1.394375 58.37054688 2 58 C2.48049815 55.87581359 2.48049815 55.87581359 2.375 53.4375 C2.92921022 45.06410645 7.69637228 39.99268153 13.6875 34.5 C18.47233879 30.33495898 22.24183402 29.57794876 28.48046875 29.66015625 C32.77095338 30.23887278 34.2797813 31.63551898 37 35 C37.60083908 39.28097846 37.34744837 42.33211192 35 46 C34.34 46 33.68 46 33 46 C32.67 46.99 32.34 47.98 32 49 C26.75501444 53.03924175 21.63530736 55.71150838 15 56 C16.15361263 59.90453505 17.21515314 62.99261972 20 66 C23.46608251 67.15112098 26.48407723 66.87898069 30 66 C37.49696245 61.56899184 40.91134207 55.86429851 43.79296875 47.87109375 C46.89086636 40.50230818 53.36429568 34.92074945 60.3125 31.25 C64.7530293 29.74473583 67.3409151 29.47397428 72 30 C72.86625 30.70125 73.7325 31.4025 74.625 32.125 C75.40875 32.74375 76.1925 33.3625 77 34 C80.66251847 33.26749631 82.89105807 32.07262795 86 30 C87.32 30 88.64 30 90 30 C89.24896694 37.51033058 89.24896694 37.51033058 88.05859375 39.8515625 C84.25450576 47.57203629 83.56883338 57.48711425 83 66 C87.9287712 64.70484844 90.63911991 62.88090056 94.1875 59.25 C95.44626953 57.98929688 95.44626953 57.98929688 96.73046875 56.703125 C99.05031201 53.94007589 100.52736978 51.28103932 102 48 C101.34 48 100.68 48 100 48 C98.2513833 44.5027666 98.4429859 40.81586672 99 37 C100.32359866 34.12725672 101.47866264 33.14581903 104 31 C107.6875 30 107.6875 30 111 30 C113 32 113 32 113.23046875 33.875 C113.21628906 34.57625 113.20210937 35.2775 113.1875 36 C113.17783203 37.051875 113.17783203 37.051875 113.16796875 38.125 C113 40 113 40 112 42 C117.75084495 39.97029002 120.46499371 37.99059711 124 33 C124.33 32.01 124.66 31.02 125 30 C126.65 30 128.3 30 130 30 C129.6657576 35.45929246 128.32888566 40.17740266 126.5 45.3125 C124.29638532 51.53712747 123.15111197 57.39228571 123 64 C124.25720278 63.45378811 125.50549748 62.88706047 126.75 62.3125 C127.44609375 61.99925781 128.1421875 61.68601563 128.859375 61.36328125 C132.61199869 58.9733804 134.62472559 56.28401066 135.87109375 52.01953125 C136.05800781 50.96121094 136.24492187 49.90289062 136.4375 48.8125 C137.73743462 42.75301639 139.04589712 36.91828068 143 32 C147.95131032 28.96619713 151.32369292 28.86473858 157 30 C156.01 34.95 156.01 34.95 155 40 C155.33 39.67 155.66 39.34 156 39 C157.57273814 37.67482249 159.15817505 36.36468816 160.75 35.0625 C161.61109375 34.35222656 162.4721875 33.64195312 163.359375 32.91015625 C167.24072528 30.1024931 169.81489643 28.95913436 174.625 29.125 C178 30 178 30 179.71484375 31.7421875 C182.11692503 35.96225735 180.88259725 40.39997329 180 45 C179.06755883 48.10163486 178.01836298 51.13646954 176.921875 54.18359375 C175.73145218 57.82043635 175.29271006 61.19476928 175 65 C175.928125 64.360625 176.85625 63.72125 177.8125 63.0625 C181 61 181 61 184 60 C184.33 59.01 184.66 58.02 185 57 C186.32 57 187.64 57 189 57 C189.31640625 59.67578125 189.31640625 59.67578125 189 63 C183.87750033 69.32670394 177.11696622 75.00367596 168.9375 76.3359375 C166.8125 76.5 166.8125 76.5 163 76 C159.25026761 72.73100254 158.49987147 69.8320909 158 65 C158.41796875 62.2109375 158.41796875 62.2109375 159.1875 59.375 C159.4659375 58.34632813 159.744375 57.31765625 160.03125 56.2578125 C161.55711211 51.12648588 163.23482693 46.05359193 165 41 C156.84006404 47.84381726 150.86781812 52.95754601 149.6640625 64.11328125 C149.40657782 67.07435504 149.1850949 70.03361066 149 73 C140.62067997 76.68024726 140.62067997 76.68024726 136 75 C134.03177114 73.03177114 134.33751619 69.65191291 134 67 C133.38253906 67.47050781 132.76507813 67.94101563 132.12890625 68.42578125 C121.51699207 76.22723414 121.51699207 76.22723414 115 77 C111.25760823 75.56674358 110.23060861 74.34591291 108 71 C106.92900281 62.58502206 110.37238787 54.94141819 115 48 C112.36 48.33 109.72 48.66 107 49 C106.61134766 50.09054688 106.61134766 50.09054688 106.21484375 51.203125 C102.15840067 60.54207434 93.90961712 66.99409508 86 73 C84.93845703 73.85271484 84.93845703 73.85271484 83.85546875 74.72265625 C81.06961144 76.64049907 79.30011043 76.53879354 76 76 C72.28180527 73.27332387 71.15500269 71.72732031 70.1875 67.1875 C70.125625 66.135625 70.06375 65.08375 70 64 C67.32088015 66.0667496 64.86597232 68.13737837 62.5 70.5625 C58.85523552 74.11614537 56.06799493 76.14846609 50.9375 76.5 C47 76 47 76 44.5 73.6875 C43 71 43 71 43 68 C42.34 68 41.68 68 41 68 C41 66.68 41 65.36 41 64 C40.34773438 64.54269531 39.69546875 65.08539063 39.0234375 65.64453125 C30.69965385 72.45824795 24.27132706 76.39700263 13.40625 76.28515625 C8.9855373 75.76127309 7.0249012 73.13092546 4.1875 70 C3 68 3 68 3 64 C-0.45234086 66.00874637 -3.66528406 68.18854076 -6.875 70.5625 C-12.82837264 74.74309057 -18.61708511 77.09376517 -26 76 C-30.93700703 71.06299297 -33.24845039 67.41486335 -33.32885742 60.58935547 C-33.32345947 59.75549316 -33.31806152 58.92163086 -33.3125 58.0625 C-33.30903564 57.2080127 -33.30557129 56.35352539 -33.30200195 55.47314453 C-33.18521038 48.63728836 -32.16389876 42.50162241 -30 36 C-29.76023437 35.22785156 -29.52046875 34.45570313 -29.2734375 33.66015625 C-28.55791557 31.42316737 -27.78603701 29.2131139 -27 27 C-26.71382813 26.14921875 -26.42765625 25.2984375 -26.1328125 24.421875 C-19.70190157 5.82006652 -19.70190157 5.82006652 -14.94140625 2.61328125 C-12.8125 1.8125 -12.8125 1.8125 -9 1 C-5.8035914 -0.06546953 -3.34252724 -0.07427838 0 0 Z " fill="#0A0402" transform="translate(318,178)"/>
<path d="M0 0 C-0.66 3.3 -1.32 6.6 -2 10 C-1.67 9.67 -1.34 9.34 -1 9 C0.57273814 7.67482249 2.15817505 6.36468816 3.75 5.0625 C4.61109375 4.35222656 5.4721875 3.64195312 6.359375 2.91015625 C10.24072528 0.1024931 12.81489643 -1.04086564 17.625 -0.875 C21 0 21 0 22.71484375 1.7421875 C25.11692503 5.96225735 23.88259725 10.39997329 23 15 C22.06755883 18.10163486 21.01836298 21.13646954 19.921875 24.18359375 C18.73145218 27.82043635 18.29271006 31.19476928 18 35 C18.928125 34.360625 19.85625 33.72125 20.8125 33.0625 C24 31 24 31 27 30 C27.495 28.515 27.495 28.515 28 27 C29.32 27 30.64 27 32 27 C32.31640625 29.67578125 32.31640625 29.67578125 32 33 C26.87750033 39.32670394 20.11696622 45.00367596 11.9375 46.3359375 C9.8125 46.5 9.8125 46.5 6 46 C2.25026761 42.73100254 1.49987147 39.8320909 1 35 C1.41796875 32.2109375 1.41796875 32.2109375 2.1875 29.375 C2.4659375 28.34632813 2.744375 27.31765625 3.03125 26.2578125 C4.55711211 21.12648588 6.23482693 16.05359193 8 11 C-0.15993596 17.84381726 -6.13218188 22.95754601 -7.3359375 34.11328125 C-7.59342218 37.07435504 -7.8149051 40.03361066 -8 43 C-16.37932003 46.68024726 -16.37932003 46.68024726 -21 45 C-22.96822886 43.03177114 -22.66248381 39.65191291 -23 37 C-23.61746094 37.47050781 -24.23492187 37.94101563 -24.87109375 38.42578125 C-35.48300793 46.22723414 -35.48300793 46.22723414 -42 47 C-45.74239177 45.56674358 -46.76939139 44.34591291 -49 41 C-50.07099719 32.58502206 -46.62761213 24.94141819 -42 18 C-43.32 17.67 -44.64 17.34 -46 17 C-45.34 17 -44.68 17 -44 17 C-44 16.34 -44 15.68 -44 15 C-44.66 15 -45.32 15 -46 15 C-46 13.35 -46 11.7 -46 10 C-45.67 10.66 -45.34 11.32 -45 12 C-39.24915505 9.97029002 -36.53500629 7.99059711 -33 3 C-32.67 2.01 -32.34 1.02 -32 0 C-30.35 0 -28.7 0 -27 0 C-27.3342424 5.45929246 -28.67111434 10.17740266 -30.5 15.3125 C-32.70361468 21.53712747 -33.84888803 27.39228571 -34 34 C-32.74279722 33.45378811 -31.49450252 32.88706047 -30.25 32.3125 C-29.55390625 31.99925781 -28.8578125 31.68601563 -28.140625 31.36328125 C-24.38800131 28.9733804 -22.37527441 26.28401066 -21.12890625 22.01953125 C-20.94199219 20.96121094 -20.75507813 19.90289062 -20.5625 18.8125 C-19.26256538 12.75301639 -17.95410288 6.91828068 -14 2 C-9.04868968 -1.03380287 -5.67630708 -1.13526142 0 0 Z " fill="#131010" transform="translate(475,208)"/>
<path d="M0 0 C0.86625 0.70125 1.7325 1.4025 2.625 2.125 C3.40875 2.74375 4.1925 3.3625 5 4 C8.66251847 3.26749631 10.89105807 2.07262795 14 0 C15.32 0 16.64 0 18 0 C17.24896694 7.51033058 17.24896694 7.51033058 16.05859375 9.8515625 C12.25450576 17.57203629 11.56883338 27.48711425 11 36 C15.9287712 34.70484844 18.63911991 32.88090056 22.1875 29.25 C23.44626953 27.98929688 23.44626953 27.98929688 24.73046875 26.703125 C27.05031201 23.94007589 28.52736978 21.28103932 30 18 C29.34 18 28.68 18 28 18 C26.2513833 14.5027666 26.4429859 10.81586672 27 7 C28.32359866 4.12725672 29.47866264 3.14581903 32 1 C35.6875 0 35.6875 0 39 0 C41 2 41 2 41.1953125 3.9453125 C41.13020833 5.96354167 41.06510417 7.98177083 41 10 C40.34 10 39.68 10 39 10 C39 11.65 39 13.3 39 15 C39.66 15 40.32 15 41 15 C41 15.66 41 16.32 41 17 C40.34 17 39.68 17 39 17 C39 17.66 39 18.32 39 19 C37.68 19 36.36 19 35 19 C34.74089844 19.72703125 34.48179687 20.4540625 34.21484375 21.203125 C30.15840067 30.54207434 21.90961712 36.99409508 14 43 C13.29230469 43.56847656 12.58460938 44.13695312 11.85546875 44.72265625 C9.06961144 46.64049907 7.30011043 46.53879354 4 46 C0.28180527 43.27332387 -0.84499731 41.72732031 -1.8125 37.1875 C-1.874375 36.135625 -1.93625 35.08375 -2 34 C-4.81939117 36.20979308 -7.53058944 38.40062046 -10 41 C-10 39.68 -10 38.36 -10 37 C-10.94875 37.020625 -11.8975 37.04125 -12.875 37.0625 C-16 37 -16 37 -18 36 C-18 35.34 -18 34.68 -18 34 C-18.66 34 -19.32 34 -20 34 C-20.125 27.25 -20.125 27.25 -19 25 C-18.34 25 -17.68 25 -17 25 C-17.05220703 24.1646875 -17.05220703 24.1646875 -17.10546875 23.3125 C-17.35793737 16.19528926 -16.01320161 11.01980242 -12 5 C-14.31 5.66 -16.62 6.32 -19 7 C-13.80339116 0.97193374 -7.68375463 -0.86752068 0 0 Z " fill="#0E0602" transform="translate(390,208)"/>
<path d="M0 0 C-0.66 3.3 -1.32 6.6 -2 10 C-2.66 10 -3.32 10 -4 10 C-4.66 12.31 -5.32 14.62 -6 17 C-5.01 17.33 -4.02 17.66 -3 18 C-3.6424991 20.76768843 -4.49456029 23.34563917 -5.5 26 C-7.40415405 31.56384524 -7.71345956 37.16050343 -8 43 C-16.261959 46.62870159 -16.261959 46.62870159 -21 45 C-21 41.7 -21 38.4 -21 35 C-22.32 34.34 -23.64 33.68 -25 33 C-24.67 32.01 -24.34 31.02 -24 30 C-22.68 30 -21.36 30 -20 30 C-19.95729943 27.08651314 -19.95729943 27.08651314 -20.2109375 24.5390625 C-20.68864277 16.05410702 -18.99901319 8.9884164 -14 2 C-9.14617387 -1.31252344 -5.68392121 -1.13678424 0 0 Z " fill="#141213" transform="translate(475,208)"/>
<path d="M0 0 C-1.84037559 5.65258216 -1.84037559 5.65258216 -3.0625 8.3125 C-4.39606005 12.13537214 -4.66730033 15.98133816 -5 20 C-5.66 20 -6.32 20 -7 20 C-7.33 22.97 -7.66 25.94 -8 29 C-7.34 29 -6.68 29 -6 29 C-6 29.66 -6 30.32 -6 31 C-3.36 31.33 -0.72 31.66 2 32 C1.79570164 35.6773705 1.22067989 36.80084985 -1.5625 39.3125 C-6.00155135 41.49167066 -8.10739575 41.71021675 -13 41 C-16.88554222 38.13696889 -17.47280936 34.60164664 -18.375 30.0625 C-19.03242531 25.38620517 -18.93453005 22.37814695 -17 18 C-16.95875 16.906875 -16.9175 15.81375 -16.875 14.6875 C-15.47348593 8.78111926 -11.13222692 3.96448407 -5.98828125 0.73828125 C-4 0 -4 0 0 0 Z " fill="#090303" transform="translate(378,213)"/>
<path d="M0 0 C1.63671875 1.19140625 1.63671875 1.19140625 4.01171875 4.12890625 C4.61255783 8.40988471 4.35916712 11.46101817 2.01171875 15.12890625 C1.35171875 15.12890625 0.69171875 15.12890625 0.01171875 15.12890625 C-0.31828125 16.11890625 -0.64828125 17.10890625 -0.98828125 18.12890625 C-6.23326681 22.168148 -11.35297389 24.84041463 -17.98828125 25.12890625 C-16.87887405 28.61561459 -15.72490459 31.90374862 -13.98828125 35.12890625 C-15.86328125 34.81640625 -15.86328125 34.81640625 -17.98828125 34.12890625 C-20.27841778 30.69370145 -20.16671098 29.14357525 -19.98828125 25.12890625 C-18.33828125 24.79890625 -16.68828125 24.46890625 -14.98828125 24.12890625 C-14.98828125 23.46890625 -14.98828125 22.80890625 -14.98828125 22.12890625 C-16.30828125 22.12890625 -17.62828125 22.12890625 -18.98828125 22.12890625 C-19.28697921 16.35407896 -18.84705731 13.27470317 -15.98828125 8.12890625 C-15.28920711 5.3931804 -15.28920711 5.3931804 -14.98828125 3.12890625 C-16.30828125 4.11890625 -17.62828125 5.10890625 -18.98828125 6.12890625 C-19.64828125 5.79890625 -20.30828125 5.46890625 -20.98828125 5.12890625 C-14.8998689 -0.14771779 -8.13147409 -3.56251223 0 0 Z " fill="#110702" transform="translate(350.98828125,208.87109375)"/>
<path d="M0 0 C0.50970235 12.86998425 0.54738143 23.7786402 -7.7734375 34.37109375 C-9.08367777 36.1111262 -10.09379079 37.89571036 -11.125 39.8125 C-13 43 -13 43 -16 45 C-16 44.01 -16 43.02 -16 42 C-16.99 42 -17.98 42 -19 42 C-18.71937057 39.51911645 -18.42609401 37.04090815 -18.125 34.5625 C-18.00705078 33.50192383 -18.00705078 33.50192383 -17.88671875 32.41992188 C-17.66072324 30.60326568 -17.33699273 28.79937478 -17 27 C-16.34 26.67 -15.68 26.34 -15 26 C-14.07756063 23.62885776 -13.26270277 21.29715909 -12.5 18.875 C-12.28730469 18.22273438 -12.07460938 17.57046875 -11.85546875 16.8984375 C-10.47339581 12.62503405 -9.21301938 8.32418947 -8 4 C-13.96351455 5.27789598 -16.48417174 8.33716394 -20 13 C-20 9.08045346 -19.17860377 7.26790565 -17 4 C-14.43382328 2.60464141 -11.80430929 1.78588506 -9 1 C-5.8035914 -0.06546953 -3.34252724 -0.07427838 0 0 Z " fill="#391B08" transform="translate(318,178)"/>
<path d="M0 0 C0.66 0.33 1.32 0.66 2 1 C2.97680804 11.20221736 0.71757799 18.54436697 -5.3359375 26.828125 C-7.88091852 29.64867722 -10.22400866 30.79589236 -14 31 C-16 30 -16 30 -17 27 C-17.82699644 19.39163278 -15.62429487 11.04355639 -11.46875 4.640625 C-7.55127934 -0.00657059 -5.8454976 -1.4613744 0 0 Z " fill="#F5993B" transform="translate(389,213)"/>
<path d="M0 0 C1.32 0.99 2.64 1.98 4 3 C3.01796129 4.93021402 2.03550713 6.86021799 1.05078125 8.7890625 C-0.1318604 11.15670443 -0.1318604 11.15670443 -1.125 14.4375 C-3.46122192 19.89289388 -8.10468602 23.84708591 -13 27 C-16.61381688 28.04445574 -19.40450701 28.13273939 -23 27 C-25.62390998 25.19569336 -26.36303497 23.89197156 -28 21 C-28.3125 18.125 -28.3125 18.125 -28 16 C-26.865625 15.608125 -25.73125 15.21625 -24.5625 14.8125 C-16.08067362 11.88963614 -16.08067362 11.88963614 -10 6 C-9.34 6 -8.68 6 -8 6 C-7.34 4.68 -6.68 3.36 -6 2 C-6 2.66 -6 3.32 -6 4 C-5.34 4 -4.68 4 -4 4 C-3.34 4.66 -2.68 5.32 -2 6 C-1.34 6 -0.68 6 0 6 C-0.185625 5.195625 -0.37125 4.39125 -0.5625 3.5625 C-0.706875 2.716875 -0.85125 1.87125 -1 1 C-0.67 0.67 -0.34 0.34 0 0 Z " fill="#F59838" transform="translate(361,218)"/>
<path d="M0 0 C0.99 0.66 1.98 1.32 3 2 C6.13781149 2.16702442 6.13781149 2.16702442 9.5625 2 C13.06640625 1.875 13.06640625 1.875 16 2 C18 4 18 4 18 7 C15.36 6.67 12.72 6.34 10 6 C10 9.63 10 13.26 10 17 C11.32 17 12.64 17 14 17 C14 17.66 14 18.32 14 19 C11.36 18.67 8.72 18.34 6 18 C6 17.34 6 16.68 6 16 C5.34 16 4.68 16 4 16 C4 16.66 4 17.32 4 18 C3.34 18 2.68 18 2 18 C2 18.66 2 19.32 2 20 C0.58456585 20.19658808 -0.83244031 20.38187546 -2.25 20.5625 C-3.03890625 20.66691406 -3.8278125 20.77132812 -4.640625 20.87890625 C-7.00532874 21.00027349 -8.7511037 20.69633257 -11 20 C-10.67 18.02 -10.34 16.04 -10 14 C-7.36 14.33 -4.72 14.66 -2 15 C-2 14.01 -2 13.02 -2 12 C-3.11375 11.71125 -4.2275 11.4225 -5.375 11.125 C-9 10 -9 10 -11 8 C-10.79278074 5.30614961 -10.30158239 3.48588274 -8.875 1.1875 C-5.9215864 -0.68299528 -3.40385613 -0.30391573 0 0 Z " fill="#EAA764" transform="translate(348,172)"/>
<path d="M0 0 C1.32 0 2.64 0 4 0 C4 0.66 4 1.32 4 2 C4.969375 1.814375 5.93875 1.62875 6.9375 1.4375 C8.4534375 1.2209375 8.4534375 1.2209375 10 1 C11.66342837 2.66342837 11.36048097 4.7825709 11.5625 7.0625 C11.64628906 7.98160156 11.73007812 8.90070313 11.81640625 9.84765625 C11.87699219 10.55792969 11.93757813 11.26820313 12 12 C12.5775 11.34 13.155 10.68 13.75 10 C16 8 16 8 20 8 C19.67 8.99 19.34 9.98 19 11 C18.34 11 17.68 11 17 11 C17 14.3 17 17.6 17 21 C15.35 20.67 13.7 20.34 12 20 C11.01 22.475 11.01 22.475 10 25 C9.01 25 8.02 25 7 25 C6.67 22.69 6.34 20.38 6 18 C5.34 20.31 4.68 22.62 4 25 C2.68 25 1.36 25 0 25 C0 16.75 0 8.5 0 0 Z " fill="#E3984B" transform="translate(369,166)"/>
<path d="M0 0 C0.99 0 1.98 0 3 0 C3 1.65 3 3.3 3 5 C3.66 5 4.32 5 5 5 C5 5.66 5 6.32 5 7 C4.34 7 3.68 7 3 7 C3 10.96 3 14.92 3 19 C3.99 19 4.98 19 6 19 C6 19.99 6 20.98 6 22 C4.33388095 22.042721 2.66617115 22.04063832 1 22 C0 21 0 21 -0.09765625 18.05859375 C-0.08605469 16.86363281 -0.07445312 15.66867188 -0.0625 14.4375 C-0.05347656 13.23996094 -0.04445313 12.04242188 -0.03515625 10.80859375 C-0.02355469 9.88175781 -0.01195312 8.95492187 0 8 C-0.99 8 -1.98 8 -3 8 C-3 12.62 -3 17.24 -3 22 C-4.32 22.33 -5.64 22.66 -7 23 C-8 22 -8 22 -8.11352539 20.23413086 C-8.10828857 19.48526611 -8.10305176 18.73640137 -8.09765625 17.96484375 C-8.09443359 17.15595703 -8.09121094 16.34707031 -8.08789062 15.51367188 C-8.07951172 14.66353516 -8.07113281 13.81339844 -8.0625 12.9375 C-8.05798828 12.08349609 -8.05347656 11.22949219 -8.04882812 10.34960938 C-8.03700373 8.23304337 -8.01906769 6.11651315 -8 4 C-5.36 4 -2.72 4 0 4 C0 2.68 0 1.36 0 0 Z " fill="#EBAA61" transform="translate(400,169)"/>
<path d="M0 0 C5.11531484 5.11531484 5.71319143 14.05345094 6.6875 20.9375 C6.81705078 21.76701172 6.94660156 22.59652344 7.08007812 23.45117188 C8.49920064 33.11472044 8.08562055 42.28629244 6.75 51.9375 C6.61722656 52.90606934 6.48445313 53.87463867 6.34765625 54.87255859 C5.48714586 60.72738443 4.29794131 66.0548696 1.984375 71.52734375 C0.12817533 76.18994054 -0.87545228 81.11844056 -2 86 C-3.74565111 82.78360346 -4.204437 80.67986596 -4 77 C-3.34 77 -2.68 77 -2 77 C-2.061875 76.278125 -2.12375 75.55625 -2.1875 74.8125 C-1.96201538 71.43023074 -0.74809119 69.86686955 1 67 C1.71401232 63.80604974 1.71401232 63.80604974 2 61 C2.66 61 3.32 61 4 61 C6.68162874 36.64981105 6.68162874 36.64981105 1.375 13.3125 C-0.4895103 8.82072518 -0.26059311 4.79684363 0 0 Z " fill="#E4AE79" transform="translate(451,125)"/>
<path d="M0 0 C0.66 0 1.32 0 2 0 C1.67 3.96 1.34 7.92 1 12 C0.34 12 -0.32 12 -1 12 C-2.07525194 14.65228812 -3.09456151 17.28368454 -4 20 C-5.9914056 20.38133299 -7.99279077 20.71325582 -10 21 C-11.70336001 19.29663999 -11.17182498 17.13553774 -11.1875 14.8125 C-11.15939308 10.4952776 -10.73473512 7.01157497 -9 3 C-7.88625 2.87625 -6.7725 2.7525 -5.625 2.625 C-1.96896323 2.3534187 -1.96896323 2.3534187 0 0 Z " fill="#F59837" transform="translate(385,221)"/>
<path d="M0 0 C0.99 0 1.98 0 3 0 C3.49363133 8.103781 3.01607129 13.9224019 -1 21 C-1.57878906 22.051875 -2.15757812 23.10375 -2.75390625 24.1875 C-7.62612983 32.81306491 -7.62612983 32.81306491 -10 34 C-8.84629642 22.00148278 -5.48528889 10.72678717 0 0 Z " fill="#E49541" transform="translate(311,184)"/>
<path d="M0 0 C1.46015291 0.28241641 2.91809793 0.57626614 4.375 0.875 C5.18710938 1.03742188 5.99921875 1.19984375 6.8359375 1.3671875 C9 2 9 2 11 4 C14.34890602 5.00039731 17.8096273 5.52399456 21.25 6.125 C22.26964844 6.30313232 23.28929687 6.48126465 24.33984375 6.66479492 C37.17577948 8.73010961 50.14070374 8.95650643 63 7 C64.64485066 6.93943849 66.29172957 6.91218045 67.9375 6.9375 C68.70964844 6.94652344 69.48179687 6.95554687 70.27734375 6.96484375 C70.84582031 6.97644531 71.41429687 6.98804688 72 7 C66.58932515 12.41067485 52.65338994 12.23279528 45.375 12.4375 C29.33730118 12.05565003 13.77952479 9.50175187 0 1 C0 0.67 0 0.34 0 0 Z " fill="#5096BC" transform="translate(158,270)"/>
<path d="M0 0 C0.33 0 0.66 0 1 0 C1.12161444 9.01298127 1.15699833 18.04397586 0 27 C-0.33 27.33 -0.66 27.66 -1 28 C-1.2538237 32.28556793 -1.185229 36.58280853 -1.1875 40.875 C-1.19974609 42.08542969 -1.21199219 43.29585937 -1.22460938 44.54296875 C-1.22654297 45.70183594 -1.22847656 46.86070312 -1.23046875 48.0546875 C-1.23457764 49.12187012 -1.23868652 50.18905273 -1.24291992 51.28857422 C-1.19805257 54.22101483 -1.19805257 54.22101483 1 57 C1.35553677 59.84142695 1.60155747 62.5859668 1.75 65.4375 C1.80542969 66.20126953 1.86085938 66.96503906 1.91796875 67.75195312 C1.96050781 68.49251953 2.00304687 69.23308594 2.046875 69.99609375 C2.08651367 70.66825928 2.12615234 71.3404248 2.16699219 72.03295898 C1.96672699 74.39193072 1.16339889 75.95835459 0 78 C-5.25302845 51.29826961 -5.01129244 26.72578238 0 0 Z " fill="#E6AF73" transform="translate(255,169)"/>
<path d="M0 0 C-0.66 0.99 -1.32 1.98 -2 3 C-2.886875 2.401875 -3.77375 1.80375 -4.6875 1.1875 C-9.45280706 -1.95940089 -13.25241059 -4.27325322 -18.875 -5.5 C-22.24051765 -6.2381292 -25.01644639 -7.0080887 -28.11987305 -8.53442383 C-32.48273383 -10.42662749 -36.51975482 -10.38195611 -41.21484375 -10.29296875 C-42.07058487 -10.28872391 -42.92632599 -10.28447906 -43.80799866 -10.28010559 C-46.5181642 -10.26342789 -49.22756248 -10.22579705 -51.9375 -10.1875 C-53.7844944 -10.17243902 -55.63150056 -10.1587531 -57.47851562 -10.14648438 C-61.98596884 -10.11356026 -66.49285472 -10.06185469 -71 -10 C-71 -9.34 -71 -8.68 -71 -8 C-76.94 -7.505 -76.94 -7.505 -83 -7 C-79.77463028 -9.15024648 -77.44878268 -9.73388986 -73.6875 -10.5625 C-72.57761719 -10.81128906 -71.46773438 -11.06007813 -70.32421875 -11.31640625 C-68.67873047 -11.65478516 -68.67873047 -11.65478516 -67 -12 C-66.10667969 -12.18949219 -65.21335937 -12.37898438 -64.29296875 -12.57421875 C-41.69521614 -15.49611084 -19.41977639 -12.17913319 0 0 Z " fill="#E5AC76" transform="translate(423,90)"/>
<path d="M0 0 C1.62490954 -0.02698189 3.24994633 -0.04638757 4.875 -0.0625 C5.77992188 -0.07410156 6.68484375 -0.08570313 7.6171875 -0.09765625 C10 0 10 0 12 1 C12 6.28 12 11.56 12 17 C10.68 17.33 9.36 17.66 8 18 C7.34 18.33 6.68 18.66 6 19 C2.5 19.1875 2.5 19.1875 -1 19 C-1.66 18.34 -2.32 17.68 -3 17 C-0.36 17.33 2.28 17.66 5 18 C5 17.34 5 16.68 5 16 C3.68 16 2.36 16 1 16 C1 12.37 1 8.74 1 5 C3.64 5.33 6.28 5.66 9 6 C8.34 4.68 7.68 3.36 7 2 C4.36 2 1.72 2 -1 2 C-0.67 1.34 -0.34 0.68 0 0 Z " fill="#E9A158" transform="translate(357,173)"/>
<path d="M0 0 C1.8125 0.75 1.8125 0.75 2.8125 1.75 C3.39389535 8.72674419 3.39389535 8.72674419 1.25 12.5 C-1.86328445 15.37380103 -5.76955533 18.75 -10.1875 18.75 C-10.64363261 12.36414346 -9.77747396 8.11037208 -6.1875 2.75 C-3.16957327 -0.36223694 -3.16957327 -0.36223694 0 0 Z " fill="#C48440" transform="translate(342.1875,212.25)"/>
<path d="M0 0 C0.33 1.65 0.66 3.3 1 5 C1.99 4.67 2.98 4.34 4 4 C4 4.99 4 5.98 4 7 C1.36 7 -1.28 7 -4 7 C-4 12.61 -4 18.22 -4 24 C-5.98 24.33 -7.96 24.66 -10 25 C-10 24.34 -10 23.68 -10 23 C-10.66 23 -11.32 23 -12 23 C-12 22.34 -12 21.68 -12 21 C-11.34 21 -10.68 21 -10 21 C-10.03480469 20.31292969 -10.06960938 19.62585938 -10.10546875 18.91796875 C-10.13253906 18.01691406 -10.15960938 17.11585938 -10.1875 16.1875 C-10.22230469 15.29417969 -10.25710938 14.40085938 -10.29296875 13.48046875 C-9.95081002 10.58352485 -9.24606427 9.77444972 -7 8 C-7.99 8 -8.98 8 -10 8 C-8.24128406 2.72385219 -5.60301382 0 0 0 Z " fill="#EEA65F" transform="translate(396,166)"/>
<path d="M0 0 C-0.99792467 2.50599917 -2.00322261 5.0077829 -3.03515625 7.5 C-3.37417969 8.325 -3.71320313 9.15 -4.0625 10 C-4.40410156 10.825 -4.74570312 11.65 -5.09765625 12.5 C-5.99670133 14.99086083 -6.54864675 17.39424927 -7 20 C-7.99 20 -8.98 20 -10 20 C-10 19.34 -10 18.68 -10 18 C-11.32 18 -12.64 18 -14 18 C-14.66 17.01 -15.32 16.02 -16 15 C-16.99 15.495 -16.99 15.495 -18 16 C-16.34540386 12.08913641 -13.70698566 9.23517798 -11 6 C-10.484375 5.071875 -9.96875 4.14375 -9.4375 3.1875 C-8 1 -8 1 -6.0625 0.1875 C-4.04900352 0.00445487 -2.0217996 0 0 0 Z " fill="#DD9042" transform="translate(433,226)"/>
<path d="M0 0 C1.678298 1.31866272 3.34614767 2.65080468 5 4 C8.24293584 3.86382428 8.24293584 3.86382428 11 3 C11 3.66 11 4.32 11 5 C8.36 5.66 5.72 6.32 3 7 C2.96261719 7.81984375 2.92523438 8.6396875 2.88671875 9.484375 C2.82097656 10.56203125 2.75523437 11.6396875 2.6875 12.75 C2.62949219 13.81734375 2.57148438 14.8846875 2.51171875 15.984375 C2 19 2 19 -1 23 C-0.34 17.39 0.32 11.78 1 6 C-5.44891256 4.39206232 -5.44891256 4.39206232 -8.6875 6.375 C-11.34123502 9.38734787 -12.65600556 12.26346957 -14.10546875 15.9765625 C-15 18 -15 18 -17 20 C-16.56826496 13.84777564 -15.34594658 10.18082051 -12 5 C-14.31 5.66 -16.62 6.32 -19 7 C-13.80339116 0.97193374 -7.68375463 -0.86752068 0 0 Z " fill="#281003" transform="translate(390,208)"/>
<path d="M0 0 C0.66 1.32 1.32 2.64 2 4 C0.625 6 0.625 6 -1 8 C-1.66 8 -2.32 8 -3 8 C-3.3403125 8.9590625 -3.3403125 8.9590625 -3.6875 9.9375 C-4.3371875 10.9584375 -4.3371875 10.9584375 -5 12 C-6.66321482 12.35015049 -8.33034549 12.68197057 -10 13 C-12.29289472 14.95809523 -12.29289472 14.95809523 -14 17 C-13.34 17.66 -12.68 18.32 -12 19 C-12 20.32 -12 21.64 -12 23 C-8.04 22.505 -8.04 22.505 -4 22 C-6 25 -6 25 -8.20703125 25.50390625 C-15.00814906 25.65685493 -15.00814906 25.65685493 -17.76953125 23.828125 C-19.96461983 21.37367437 -20.95766347 19.38949607 -21.3125 16.125 C-21.209375 15.42375 -21.10625 14.7225 -21 14 C-19.865625 13.608125 -18.73125 13.21625 -17.5625 12.8125 C-9.08067362 9.88963614 -9.08067362 9.88963614 -3 4 C-2.34 4 -1.68 4 -1 4 C-0.67 2.68 -0.34 1.36 0 0 Z " fill="#F69A38" transform="translate(354,220)"/>
<path d="M0 0 C1.1449292 0.04543945 1.1449292 0.04543945 2.31298828 0.09179688 C24.93369223 0.97343127 47.39075243 1.46202987 70 0 C70 0.33 70 0.66 70 1 C46.46653124 5.19705175 23.53802466 5.00724039 0 1 C0 0.67 0 0.34 0 0 Z " fill="#ECB77E" transform="translate(294,280)"/>
<path d="M0 0 C3.5625 0.3125 3.5625 0.3125 5.5 1.625 C6.5625 3.3125 6.5625 3.3125 6.5625 6.3125 C3.5925 5.3225 0.6225 4.3325 -2.4375 3.3125 C-2.1075 4.6325 -1.7775 5.9525 -1.4375 7.3125 C0.2640625 7.7765625 0.2640625 7.7765625 2 8.25 C5.5625 9.3125 5.5625 9.3125 6.5625 10.3125 C6.75 13.25 6.75 13.25 6.5625 16.3125 C4.5625 18.3125 4.5625 18.3125 2.6875 18.578125 C1.98625 18.57296875 1.285 18.5678125 0.5625 18.5625 C-0.489375 18.57023437 -0.489375 18.57023437 -1.5625 18.578125 C-3.4375 18.3125 -3.4375 18.3125 -5.4375 16.3125 C-5.4375 15.3225 -5.4375 14.3325 -5.4375 13.3125 C-2.7975 13.6425 -0.1575 13.9725 2.5625 14.3125 C2.5625 13.3225 2.5625 12.3325 2.5625 11.3125 C1.44875 11.02375 0.335 10.735 -0.8125 10.4375 C-4.4375 9.3125 -4.4375 9.3125 -6.4375 7.3125 C-5.95143637 2.45186374 -5.14496774 0.46772434 0 0 Z " fill="#FCD9A7" transform="translate(343.4375,172.6875)"/>
<path d="M0 0 C-3 1 -3 1 -6 0 C-6 0.66 -6 1.32 -6 2 C-4.68 2.33 -3.36 2.66 -2 3 C-3.65 3 -5.3 3 -7 3 C-7 2.34 -7 1.68 -7 1 C-7.680625 0.87625 -8.36125 0.7525 -9.0625 0.625 C-12 0 -12 0 -15.0625 -1.0625 C-22.37276054 -3.20598996 -30.60835031 -2.27932399 -38 -1 C-39.37428675 -0.82755089 -40.7493356 -0.66109081 -42.125 -0.5 C-45.12929861 -0.11234857 -48.04399066 0.35337296 -51 1 C-37.80708615 -9.74978165 -14.5449905 -6.02765372 0 0 Z " fill="#5B9EBF" transform="translate(201,166)"/>
<path d="M0 0 C2.84573212 1.42286606 4.76707908 3.76707908 7 6 C3.33517473 11.71281586 -0.83691261 15.77243143 -6.125 19.9375 C-6.7348877 20.4219458 -7.34477539 20.9063916 -7.97314453 21.40551758 C-10.94849969 23.6925929 -13.32665892 25.26203865 -17 26 C-17 24.68 -17 23.36 -17 22 C-16.28972656 21.74605469 -15.57945312 21.49210937 -14.84765625 21.23046875 C-13.92855469 20.88628906 -13.00945312 20.54210937 -12.0625 20.1875 C-11.14597656 19.85105469 -10.22945313 19.51460938 -9.28515625 19.16796875 C-6.6659576 18.16590906 -6.6659576 18.16590906 -6 15 C-5.34 15 -4.68 15 -4 15 C-4 14.34 -4 13.68 -4 13 C-3.34 13 -2.68 13 -2 13 C-2.165 12.4225 -2.33 11.845 -2.5 11.25 C-3.40615079 7.17232146 -3.06806114 4.527869 -1 1 C-0.67 0.67 -0.34 0.34 0 0 Z " fill="#F39940" transform="translate(417,240)"/>
<path d="M0 0 C0.66 0.33 1.32 0.66 2 1 C0.68 3.31 -0.64 5.62 -2 8 C-1.34 8.33 -0.68 8.66 0 9 C0.36923077 14.41538462 0.36923077 14.41538462 -1.5 17.375 C-2.2425 18.179375 -2.2425 18.179375 -3 19 C-2.4118332 15.97514219 -1.75929472 12.98613386 -1 10 C-1.54269531 10.48210937 -2.08539063 10.96421875 -2.64453125 11.4609375 C-3.35996094 12.09257812 -4.07539063 12.72421875 -4.8125 13.375 C-5.52019531 14.00148437 -6.22789062 14.62796875 -6.95703125 15.2734375 C-9 17 -9 17 -12 19 C-12.99 18.01 -13.98 17.02 -15 16 C-14.34 13.69 -13.68 11.38 -13 9 C-12.01 9.33 -11.02 9.66 -10 10 C-9.75507813 9.40703125 -9.51015625 8.8140625 -9.2578125 8.203125 C-7.79047891 5.63301274 -6.27707775 4.45470034 -3.875 2.75 C-3.15054687 2.22921875 -2.42609375 1.7084375 -1.6796875 1.171875 C-1.12539063 0.78515625 -0.57109375 0.3984375 0 0 Z " fill="#373034" transform="translate(484,209)"/>
<path d="M0 0 C1.98 0.99 1.98 0.99 4 2 C4 2.66 4 3.32 4 4 C4.58136719 4.25394531 5.16273438 4.50789062 5.76171875 4.76953125 C12.75873294 8.61605738 16.74513727 15.82461134 20.0625 22.8125 C20.37356689 23.45856201 20.68463379 24.10462402 21.00512695 24.77026367 C22.22940728 27.49376413 23.07159652 29.44578992 22.68359375 32.44921875 C22.45800781 32.96097656 22.23242188 33.47273438 22 34 C21.34 34 20.68 34 20 34 C18.39644899 30.49223216 17.77963136 27.85645121 18 24 C17.34 24 16.68 24 16 24 C16 23.34 16 22.68 16 22 C15.34 22 14.68 22 14 22 C13.67 19.69 13.34 17.38 13 15 C12.34 15 11.68 15 11 15 C11 14.34 11 13.68 11 13 C10.34 13 9.68 13 9 13 C9 12.34 9 11.68 9 11 C8.01 10.67 7.02 10.34 6 10 C4.90234375 8.40625 4.90234375 8.40625 3.9375 6.5 C2.57554472 3.66980932 2.57554472 3.66980932 0 2 C0 1.34 0 0.68 0 0 Z " fill="#5399BC" transform="translate(219,177)"/>
<path d="M0 0 C0.33 0 0.66 0 1 0 C1.07478624 5.08623122 1.12889926 10.17213442 1.16479492 15.25878906 C1.17977675 16.98508284 1.20016939 18.71133926 1.22631836 20.4375 C1.53653773 41.45942423 1.53653773 41.45942423 -3.875 49.9375 C-6.17083318 52.16580867 -8.06328416 53.71071012 -11 55 C-13.8125 54.6875 -13.8125 54.6875 -16 54 C-16 53.67 -16 53.34 -16 53 C-15.071875 52.79375 -14.14375 52.5875 -13.1875 52.375 C-9.14638238 50.63177279 -8.81286225 48.87293299 -7 45 C-4.9140625 44.31640625 -4.9140625 44.31640625 -3 44 C-0.66611061 29.40752655 -0.38243219 14.7500674 0 0 Z " fill="#488DAF" transform="translate(243,222)"/>
<path d="M0 0 C2.475 0.99 2.475 0.99 5 2 C0.03791591 10.31940907 -5.57909494 16.77601511 -13 23 C-13.83403992 20.66468823 -14.13602451 19.40726865 -13.33984375 17.0234375 C-11.68528411 14.52471477 -9.74977388 12.67220216 -7.5625 10.625 C-4.09085206 7.24823633 -1.73388647 4.50810482 0 0 Z " fill="#2A1204" transform="translate(420,226)"/>
<path d="M0 0 C0.57234375 0.21527344 1.1446875 0.43054688 1.734375 0.65234375 C1.734375 1.31234375 1.734375 1.97234375 1.734375 2.65234375 C3.384375 2.32234375 5.034375 1.99234375 6.734375 1.65234375 C6.404375 2.64234375 6.074375 3.63234375 5.734375 4.65234375 C5.074375 4.65234375 4.414375 4.65234375 3.734375 4.65234375 C3.734375 5.64234375 3.734375 6.63234375 3.734375 7.65234375 C2.744375 7.65234375 1.754375 7.65234375 0.734375 7.65234375 C1.064375 8.64234375 1.394375 9.63234375 1.734375 10.65234375 C-0.905625 10.98234375 -3.545625 11.31234375 -6.265625 11.65234375 C-6.554375 10.86859375 -6.843125 10.08484375 -7.140625 9.27734375 C-8.11474754 6.55562743 -8.11474754 6.55562743 -10.265625 4.65234375 C-9.02618224 3.78292881 -7.77355441 2.93228918 -6.515625 2.08984375 C-5.81953125 1.61417969 -5.1234375 1.13851562 -4.40625 0.6484375 C-2.265625 -0.34765625 -2.265625 -0.34765625 0 0 Z " fill="#F79737" transform="translate(348.265625,231.34765625)"/>
<path d="M0 0 C0.33 0 0.66 0 1 0 C1 3.3 1 6.6 1 10 C1.66 10 2.32 10 3 10 C3 9.34 3 8.68 3 8 C3.99 8 4.98 8 6 8 C4.53167985 12.40496044 1.55481956 13.44016221 -2.34375 15.703125 C-5.70288352 17.34317254 -8.29104646 17.83874115 -12 18 C-10.8905928 21.48670834 -9.73662334 24.77484237 -8 28 C-9.875 27.6875 -9.875 27.6875 -12 27 C-14.29013653 23.5647952 -14.17842973 22.014669 -14 18 C-12.35 17.67 -10.7 17.34 -9 17 C-9 16.34 -9 15.68 -9 15 C-9.66 14.67 -10.32 14.34 -11 14 C-9.906875 13.4225 -8.81375 12.845 -7.6875 12.25 C-4.69277427 10.51971402 -2.65553913 9.12712947 -1 6 C-0.27954633 2.84881675 -0.27954633 2.84881675 0 0 Z " fill="#250F03" transform="translate(345,216)"/>
<path d="M0 0 C0.33 0 0.66 0 1 0 C1.33 2.97 1.66 5.94 2 9 C2.66 9 3.32 9 4 9 C3.10382713 14.23737393 -0.49112373 17.23894576 -4 21 C-4.53496094 21.61101562 -5.06992187 22.22203125 -5.62109375 22.8515625 C-9.37242057 26.96340645 -9.37242057 26.96340645 -12.6796875 27.15625 C-13.82824219 27.07890625 -13.82824219 27.07890625 -15 27 C-15.2361959 20.59646678 -14.823321 15.15370839 -13 9 C-12.67 9 -12.34 9 -12 9 C-11.81548975 19.55808656 -11.81548975 19.55808656 -13 24 C-11.68 24 -10.36 24 -9 24 C-8.67 21.69 -8.34 19.38 -8 17 C-7.67 17.66 -7.34 18.32 -7 19 C-5.05000871 18.80528889 -5.05000871 18.80528889 -3 18 C-1.71563266 16.0162233 -1.71563266 16.0162233 -1 14 C-0.34 14 0.32 14 1 14 C0.7525 12.7625 0.7525 12.7625 0.5 11.5 C-0.05896045 7.58727683 -0.06807187 3.94816827 0 0 Z " fill="#E69A4B" transform="translate(416,217)"/>
<path d="M0 0 C0.05397335 2.4377963 0.09365616 4.87439685 0.125 7.3125 C0.15013672 8.34793945 0.15013672 8.34793945 0.17578125 9.40429688 C0.21217794 13.17135396 0.14378864 14.78431704 -2 18 C-2.33 14.04 -2.66 10.08 -3 6 C-3.99 6 -4.98 6 -6 6 C-6.33 6.66 -6.66 7.32 -7 8 C-7 6.68 -7 5.36 -7 4 C-12.96351455 5.27789598 -15.48417174 8.33716394 -19 13 C-19 9.08045346 -18.17860377 7.26790565 -16 4 C-13.43382328 2.60464141 -10.80430929 1.78588506 -8 1 C-5.07175348 0.02391783 -3.04386724 -0.08226668 0 0 Z " fill="#1A0802" transform="translate(317,178)"/>
<path d="M0 0 C0.33 0 0.66 0 1 0 C0.62897948 4.67485859 0.23645079 8.66384975 -1.5625 13 C-3.22622513 17.59155515 -3.29976404 21.98302518 -3.3125 26.8125 C-3.32035522 27.9252832 -3.32035522 27.9252832 -3.32836914 29.06054688 C-3.2786509 32.92889018 -2.95804596 35.6683994 -1 39 C-0.60100234 40.55165755 -0.24670629 42.11548481 0.0625 43.6875 C0.47713272 46.62766119 0.47713272 46.62766119 2 49 C2.04063832 50.66617115 2.042721 52.33388095 2 54 C-5.39504957 45.31609893 -6.87283957 31.04065486 -6 20 C-4.79387098 13.00445167 -3.11936022 6.3872614 0 0 Z " fill="#7FAFC8" transform="translate(131,185)"/>
<path d="M0 0 C0.66 0.33 1.32 0.66 2 1 C1.23091787 3.02150045 0.45964511 5.04216752 -0.3125 7.0625 C-0.74175781 8.18785156 -1.17101562 9.31320313 -1.61328125 10.47265625 C-2.53678098 12.82172738 -3.52173766 15.14756263 -4.56640625 17.4453125 C-6.12724307 21.31550735 -6.88034706 24.70872581 -7.625 28.8125 C-8.89093323 35.78186646 -8.89093323 35.78186646 -10 38 C-10.2907415 41.05539244 -10.27792869 44.11987231 -10.3125 47.1875 C-10.34150391 48.02603516 -10.37050781 48.86457031 -10.40039062 49.72851562 C-10.46088115 55.68915911 -9.37709382 59.07756937 -6 64 C-7.875 63.6875 -7.875 63.6875 -10 63 C-12.21312879 59.68030681 -12.25632983 58.60673116 -12.265625 54.73828125 C-12.26820313 53.70123047 -12.27078125 52.66417969 -12.2734375 51.59570312 C-12.26570313 50.51224609 -12.25796875 49.42878906 -12.25 48.3125 C-12.25773437 47.24837891 -12.26546875 46.18425781 -12.2734375 45.08789062 C-12.258428 39.01279577 -11.73229117 33.81921515 -10 28 C-9.61690135 26.33517623 -9.2400655 24.66887086 -8.875 23 C-8.62363281 21.8553125 -8.62363281 21.8553125 -8.3671875 20.6875 C-8.24601562 20.130625 -8.12484375 19.57375 -8 19 C-7.34 19 -6.68 19 -6 19 C-5.938125 18.0925 -5.87625 17.185 -5.8125 16.25 C-5.02898202 10.49232998 -2.34237281 5.26385624 0 0 Z " fill="#D38F49" transform="translate(296,188)"/>
<path d="M0 0 C1.31226563 -0.01417969 2.62453125 -0.02835938 3.9765625 -0.04296875 C7.375 0.1875 7.375 0.1875 10.375 2.1875 C10.045 3.1775 9.715 4.1675 9.375 5.1875 C8.446875 4.445 8.446875 4.445 7.5 3.6875 C3.05617962 1.55446622 -0.77788557 1.53207258 -5.625 2.1875 C-12.70584398 4.99542089 -18.63786238 10.80254965 -21.796875 17.7734375 C-22.50842777 19.90138303 -23.1286111 22.00028641 -23.625 24.1875 C-23.955 24.1875 -24.285 24.1875 -24.625 24.1875 C-24.76004138 22.25190687 -24.85701129 20.313628 -24.9375 18.375 C-24.99550781 17.29605469 -25.05351562 16.21710938 -25.11328125 15.10546875 C-24.95214844 14.14253906 -24.79101562 13.17960938 -24.625 12.1875 C-22.20703125 10.46484375 -22.20703125 10.46484375 -19.625 9.1875 C-18.60195052 7.53488161 -17.59883946 5.86958635 -16.625 4.1875 C-15.635 3.8575 -14.645 3.5275 -13.625 3.1875 C-13.295 2.5275 -12.965 1.8675 -12.625 1.1875 C-8.47104578 -0.03379366 -4.30390146 0.02122239 0 0 Z " fill="#DB9348" transform="translate(344.625,206.8125)"/>
<path d="M0 0 C0.99 0 1.98 0 3 0 C3.33 3.3 3.66 6.6 4 10 C4.5775 9.34 5.155 8.68 5.75 8 C8 6 8 6 12 6 C11 9 11 9 8 11 C7.7497843 14.08365871 7.7497843 14.08365871 8 17 C6.35 16.67 4.7 16.34 3 16 C2.67 16.66 2.34 17.32 2 18 C1.34 18 0.68 18 0 18 C0 12.06 0 6.12 0 0 Z " fill="#F7D7A8" transform="translate(377,168)"/>
<path d="M0 0 C3.82266234 0.04795455 3.82266234 0.04795455 6.125 2.0625 C7.125 4.3125 7.125 4.3125 7.125 8.3125 C7.785 8.6425 8.445 8.9725 9.125 9.3125 C9.125 8.3225 9.125 7.3325 9.125 6.3125 C9.785 6.3125 10.445 6.3125 11.125 6.3125 C11.269375 5.69375 11.41375 5.075 11.5625 4.4375 C12.125 2.3125 12.125 2.3125 13.125 0.3125 C15.435 0.3125 17.745 0.3125 20.125 0.3125 C20.125 0.6425 20.125 0.9725 20.125 1.3125 C18.475 1.3125 16.825 1.3125 15.125 1.3125 C15.00125 1.910625 14.8775 2.50875 14.75 3.125 C14.125 5.3125 14.125 5.3125 12.125 8.3125 C11.465 8.3125 10.805 8.3125 10.125 8.3125 C9.795 9.3025 9.465 10.2925 9.125 11.3125 C6.125 13.3125 6.125 13.3125 2.125 13.3125 C2.125 10.0125 2.125 6.7125 2.125 3.3125 C0.949375 3.0959375 0.949375 3.0959375 -0.25 2.875 C-2.875 2.3125 -2.875 2.3125 -4.875 1.3125 C-3.875 0.3125 -3.875 0.3125 0 0 Z " fill="#E29446" transform="translate(427.875,206.6875)"/>
<path d="M0 0 C0.66 0.33 1.32 0.66 2 1 C2.31461385 8.09629025 2.44572039 13.68284595 -1 20 C-2.1893558 16.43193259 -1.6255153 14.68359009 -1 11 C-0.91328345 8.32623986 -0.95385714 5.67628601 -1 3 C-2.98 3.33 -4.96 3.66 -7 4 C-7.2475 4.969375 -7.495 5.93875 -7.75 6.9375 C-8.1625 7.948125 -8.575 8.95875 -9 10 C-11.125 10.875 -11.125 10.875 -13 11 C-12.55396127 5.94489444 -10.35299176 3.59833262 -7 0 C-4.30919898 -1.34540051 -2.86443593 -0.71610898 0 0 Z " fill="#CB8945" transform="translate(389,213)"/>
<path d="M0 0 C0.99 0 1.98 0 3 0 C3 1.65 3 3.3 3 5 C3.66 5 4.32 5 5 5 C5 5.66 5 6.32 5 7 C4.34 7 3.68 7 3 7 C3 10.96 3 14.92 3 19 C3.99 19 4.98 19 6 19 C6 19.99 6 20.98 6 22 C4.33388095 22.042721 2.66617115 22.04063832 1 22 C-0.84072496 20.15927504 -0.34547994 17.16809877 -0.5 14.6875 C-0.73088724 11.00567306 -0.94941694 7.54571783 -2 4 C-1.34 4 -0.68 4 0 4 C0 2.68 0 1.36 0 0 Z " fill="#FCDAAC" transform="translate(400,169)"/>
<path d="M0 0 C0.66 0.33 1.32 0.66 2 1 C3.11421833 4.64653273 2.94296589 7.33291043 2 11 C1.34 11 0.68 11 0 11 C0 11.66 0 12.32 0 13 C-0.66 13 -1.32 13 -2 13 C-2.33 14.32 -2.66 15.64 -3 17 C-4.0625 15.1875 -4.0625 15.1875 -5 13 C-4.67 12.01 -4.34 11.02 -4 10 C-5.98 10 -7.96 10 -10 10 C-6.66666667 6.66666667 -3.33333333 3.33333333 0 0 Z M0 8 C1 10 1 10 1 10 Z " fill="#E7913D" transform="translate(413,242)"/>
<path d="M0 0 C1.32646643 3.6267943 0.65982318 5.52812411 -0.875 9 C-2.88761941 13.36950458 -2.88761941 13.36950458 -4 18 C-3.63132812 18.80824219 -3.26265625 19.61648437 -2.8828125 20.44921875 C-2 23 -2 23 -3.1171875 25.45703125 C-3.98730469 26.62298828 -3.98730469 26.62298828 -4.875 27.8125 C-5.73738281 28.99779297 -5.73738281 28.99779297 -6.6171875 30.20703125 C-7.07351563 30.79871094 -7.52984375 31.39039063 -8 32 C-9.60213595 27.96881922 -8.37934578 24.38656504 -7.3125 20.375 C-7.12969482 19.66585449 -6.94688965 18.95670898 -6.75854492 18.22607422 C-5.07886609 11.90806894 -2.92701467 5.85402935 0 0 Z " fill="#C4813F" transform="translate(310,186)"/>
<path d="M0 0 C0.66 1.32 1.32 2.64 2 4 C0.5 6 0.5 6 -1 8 C-1.7115625 9.11375 -1.7115625 9.11375 -2.4375 10.25 C-2.953125 10.8275 -3.46875 11.405 -4 12 C-5.32 12 -6.64 12 -8 12 C-8 13.32 -8 14.64 -8 16 C-8.66 16 -9.32 16 -10 16 C-10.33 18.31 -10.66 20.62 -11 23 C-11.66 23 -12.32 23 -13 23 C-13 23.99 -13 24.98 -13 26 C-13.99 26 -14.98 26 -16 26 C-13.49401077 16.47724093 -6.93319963 6.93319963 0 0 Z " fill="#E9B17C" transform="translate(279,122)"/>
<path d="M0 0 C1.02804642 3.17759803 0.92333644 5.16796229 0.0625 8.375 C-0.83157786 12.00531616 -1.19280737 15.24025629 -1 19 C-1.33 17.68 -1.66 16.36 -2 15 C-2.7425 15.495 -3.485 15.99 -4.25 16.5 C-7 18 -7 18 -11 18 C-11.33 18.33 -11.66 18.66 -12 19 C-13.68608966 19.07205511 -15.37500659 19.08386068 -17.0625 19.0625 C-17.98160156 19.05347656 -18.90070313 19.04445312 -19.84765625 19.03515625 C-20.55792969 19.02355469 -21.26820313 19.01195312 -22 19 C-22 18.67 -22 18.34 -22 18 C-20.72125 18.020625 -19.4425 18.04125 -18.125 18.0625 C-11.42128439 17.31999985 -7.20714877 12.98625039 -3 8 C-1.511326 5.27375363 -0.77251602 3.03488436 0 0 Z " fill="#301504" transform="translate(361,227)"/>
<path d="M0 0 C6.0268833 6.0268833 7.11057867 18.5250263 7.125 26.6875 C7.08375 27.780625 7.0425 28.87375 7 30 C6.34 30 5.68 30 5 30 C4.89042969 29.14277344 4.78085937 28.28554687 4.66796875 27.40234375 C3.81147658 20.13631489 3.81147658 20.13631489 1.375 13.3125 C-0.4895103 8.82072518 -0.26059311 4.79684363 0 0 Z " fill="#E3A160" transform="translate(451,125)"/>
<path d="M0 0 C0.33 0 0.66 0 1 0 C1.33 3.3 1.66 6.6 2 10 C5.34252724 10.07427838 7.8035914 10.06546953 11 9 C12.20882096 6.99983534 12.20882096 6.99983534 13 5 C13.33 5.66 13.66 6.32 14 7 C15.32 7 16.64 7 18 7 C18 8.98 18 10.96 18 13 C17.67 11.68 17.34 10.36 17 9 C14.18060883 11.20979308 11.46941056 13.40062046 9 16 C9 14.68 9 13.36 9 12 C8.05125 12.020625 7.1025 12.04125 6.125 12.0625 C3 12 3 12 1 11 C1 10.34 1 9.68 1 9 C0.34 9 -0.32 9 -1 9 C-1.125 2.25 -1.125 2.25 0 0 Z " fill="#3C1F0A" transform="translate(371,233)"/>
<path d="M0 0 C0.99 0 1.98 0 3 0 C3 5.94 3 11.88 3 18 C1.68 18 0.36 18 -1 18 C-1.02684312 15.18743719 -1.04676188 12.37512759 -1.0625 9.5625 C-1.07087891 8.76005859 -1.07925781 7.95761719 -1.08789062 7.13085938 C-1.0965143 5.08704779 -1.0522815 3.04316098 -1 1 C-0.67 0.67 -0.34 0.34 0 0 Z " fill="#F9CF9A" transform="translate(370,173)"/>
<path d="M0 0 C1.65 0 3.3 0 5 0 C4.48378772 6.83981276 2.51409031 12.63876684 0 19 C-1.7824918 15.66688525 -2.48792856 12.75519057 -3 9 C-2.34 9 -1.68 9 -1 9 C0.57273568 6.1575146 0.57273568 6.1575146 1 3 C0.67 2.01 0.34 1.02 0 0 Z " fill="#2B2222" transform="translate(443,208)"/>
<path d="M0 0 C0.66 1.32 1.32 2.64 2 4 C0.625 6 0.625 6 -1 8 C-1.66 8 -2.32 8 -3 8 C-3.3403125 8.9590625 -3.3403125 8.9590625 -3.6875 9.9375 C-5 12 -5 12 -7.375 12.625 C-8.24125 12.74875 -9.1075 12.8725 -10 13 C-10.639375 13.350625 -11.27875 13.70125 -11.9375 14.0625 C-14.68621982 15.3119181 -17.01865753 15.13551557 -20 15 C-20.33 16.32 -20.66 17.64 -21 19 C-21 17.35 -21 15.7 -21 14 C-19.865625 13.608125 -18.73125 13.21625 -17.5625 12.8125 C-9.08067362 9.88963614 -9.08067362 9.88963614 -3 4 C-2.34 4 -1.68 4 -1 4 C-0.67 2.68 -0.34 1.36 0 0 Z " fill="#CC8841" transform="translate(354,220)"/>
<path d="M0 0 C1.33332095 2.6666419 0.67102033 4.16680303 0 7 C-0.66 7 -1.32 7 -2 7 C-2.226875 7.763125 -2.45375 8.52625 -2.6875 9.3125 C-4 12 -4 12 -6.53125 13.1875 C-9.39043592 14.85863184 -9.39043592 14.85863184 -9.70703125 18.57421875 C-9.76660733 19.94446863 -9.80097482 21.31600403 -9.8125 22.6875 C-9.83763672 23.38939453 -9.86277344 24.09128906 -9.88867188 24.81445312 C-9.94744448 26.54236781 -9.9766097 28.2712443 -10 30 C-12.56935725 27.43064275 -12.47753932 26.15049467 -12.6875 22.5625 C-12.62165269 15.71437972 -9.8212751 12.34058839 -5.26171875 7.47265625 C-3.09749559 5.10658844 -1.54645061 2.79762424 0 0 Z " fill="#BE7D3E" transform="translate(310,212)"/>
<path d="M0 0 C0.33 0 0.66 0 1 0 C1 2.64 1 5.28 1 8 C1.928125 7.360625 2.85625 6.72125 3.8125 6.0625 C7 4 7 4 10 3 C10.33 2.01 10.66 1.02 11 0 C12.32 0 13.64 0 15 0 C15 1.98 15 3.96 15 6 C14.01 6.495 14.01 6.495 13 7 C12.67 6.01 12.34 5.02 12 4 C9.36 6.31 6.72 8.62 4 11 C1.525 10.01 1.525 10.01 -1 9 C-1.09765625 2.84765625 -1.09765625 2.84765625 -1 1 C-0.67 0.67 -0.34 0.34 0 0 Z " fill="#645E62" transform="translate(492,235)"/>
<path d="M0 0 C1.125 3.75 1.125 3.75 0 6 C-0.07033769 7.87379605 -0.0843022 9.75001102 -0.0625 11.625 C-0.05347656 12.62789062 -0.04445313 13.63078125 -0.03515625 14.6640625 C-0.02355469 15.43492187 -0.01195312 16.20578125 0 17 C1.98 17 3.96 17 6 17 C6.12375 16.4225 6.2475 15.845 6.375 15.25 C7.00648824 12.97664233 7.88858191 11.0746471 9 9 C9.99 9 10.98 9 12 9 C10.60402929 13.441725 8.56492876 16.01540848 5 19 C0.76056338 20.38028169 0.76056338 20.38028169 -2 19 C-4.2867601 12.13971971 -2.46900882 6.48114816 0 0 Z " fill="#C88846" transform="translate(375,224)"/>
<path d="M0 0 C6.25719025 -0.42421629 8.09162675 -0.00419923 13 4 C16.24293584 3.86382428 16.24293584 3.86382428 19 3 C19 3.66 19 4.32 19 5 C16.36 5.66 13.72 6.32 11 7 C10.96261719 7.81984375 10.92523438 8.6396875 10.88671875 9.484375 C10.82097656 10.56203125 10.75523437 11.6396875 10.6875 12.75 C10.62949219 13.81734375 10.57148438 14.8846875 10.51171875 15.984375 C10 19 10 19 7 23 C7.66 17.39 8.32 11.78 9 6 C8.01 5.67 7.02 5.34 6 5 C6 3.68 6 2.36 6 1 C4.02 1 2.04 1 0 1 C0 0.67 0 0.34 0 0 Z " fill="#3C1B08" transform="translate(382,208)"/>
<path d="M0 0 C0.33 0 0.66 0 1 0 C1.28325543 3.70749887 1.43361141 7.30058113 1 11 C-1.125 12.9375 -1.125 12.9375 -4 14 C-6.00580329 15.32458708 -8.00715862 16.6559907 -10 18 C-9.835 17.401875 -9.67 16.80375 -9.5 16.1875 C-8.8885876 13.88655664 -8.8885876 13.88655664 -9 11 C-7.5390625 9.39453125 -7.5390625 9.39453125 -5.625 7.8125 C-4.99851562 7.28269531 -4.37203125 6.75289062 -3.7265625 6.20703125 C-2 5 -2 5 0 5 C0 3.35 0 1.7 0 0 Z " fill="#2D1406" transform="translate(320,231)"/>
<path d="M0 0 C-0.33 3.3 -0.66 6.6 -1 10 C-1.99 10 -2.98 10 -4 10 C-4 10.66 -4 11.32 -4 12 C-5.32 11.67 -6.64 11.34 -8 11 C-8.08226668 7.95613276 -7.97608217 5.92824652 -7 3 C-2.66666667 0 -2.66666667 0 0 0 Z " fill="#F5993D" transform="translate(342,215)"/>
<path d="M0 0 C0.99 0.33 1.98 0.66 3 1 C2.34 1 1.68 1 1 1 C1 6.94 1 12.88 1 19 C1.66 19 2.32 19 3 19 C3.33 18.01 3.66 17.02 4 16 C6.475 16.99 6.475 16.99 9 18 C8.67 16.02 8.34 14.04 8 12 C8.66 11.67 9.32 11.34 10 11 C10 13.97 10 16.94 10 20 C8.35 19.67 6.7 19.34 5 19 C4.01 21.475 4.01 21.475 3 24 C2.01 24 1.02 24 0 24 C0 16.08 0 8.16 0 0 Z " fill="#ECB67A" transform="translate(376,167)"/>
<path d="M0 0 C2 2 2 2 2 5 C1.01 5 0.02 5 -1 5 C-1 4.01 -1 3.02 -1 2 C-2.98 2.66 -4.96 3.32 -7 4 C-7.33 6.97 -7.66 9.94 -8 13 C-8.99 12.67 -9.98 12.34 -11 12 C-11.28780552 8.94926153 -11.42606559 6.04178472 -11 3 C-7.67646278 -0.22578613 -4.51021549 -0.50113505 0 0 Z " fill="#FDE5BC" transform="translate(364,174)"/>
<path d="M0 0 C1.32 0 2.64 0 4 0 C4.33 1.65 4.66 3.3 5 5 C5.99 4.67 6.98 4.34 8 4 C8 4.99 8 5.98 8 7 C6.41870971 7.22331199 4.83478911 7.42804644 3.25 7.625 C1.92742187 7.79902344 1.92742187 7.79902344 0.578125 7.9765625 C-2.22859878 8.00207817 -3.63384866 7.44843844 -6 6 C-5.195625 5.38125 -4.39125 4.7625 -3.5625 4.125 C-0.96125481 2.25835959 -0.96125481 2.25835959 0 0 Z " fill="#EA9B49" transform="translate(392,166)"/>
<path d="M0 0 C1.98 0.99 1.98 0.99 4 2 C4 2.66 4 3.32 4 4 C4.57234375 4.23460937 5.1446875 4.46921875 5.734375 4.7109375 C8.51684301 6.29406585 10.17070214 8.1991525 12.25 10.625 C12.95640625 11.44226563 13.6628125 12.25953125 14.390625 13.1015625 C14.92171875 13.72804687 15.4528125 14.35453125 16 15 C15.01 17.475 15.01 17.475 14 20 C13.67 20 13.34 20 13 20 C13 18.35 13 16.7 13 15 C12.34 15 11.68 15 11 15 C11 14.34 11 13.68 11 13 C10.34 13 9.68 13 9 13 C9 12.34 9 11.68 9 11 C8.01 10.67 7.02 10.34 6 10 C4.90234375 8.40625 4.90234375 8.40625 3.9375 6.5 C2.57554472 3.66980932 2.57554472 3.66980932 0 2 C0 1.34 0 0.68 0 0 Z " fill="#559AC1" transform="translate(219,177)"/>
<path d="M0 0 C0.18175781 0.61488281 0.36351562 1.22976562 0.55078125 1.86328125 C0.92783203 3.07564453 0.92783203 3.07564453 1.3125 4.3125 C1.67794922 5.51326172 1.67794922 5.51326172 2.05078125 6.73828125 C3.04182023 9.09964573 4.08074943 10.33879993 6 12 C1.67408367 11.10498283 -0.4899806 9.76502911 -3 6 C-3.391875 6.474375 -3.78375 6.94875 -4.1875 7.4375 C-6.40808374 9.35179633 -8.13375709 9.61266988 -11 10 C-10.06409496 8.8944811 -9.12620142 7.79064547 -8.1875 6.6875 C-7.66542969 6.07261719 -7.14335937 5.45773438 -6.60546875 4.82421875 C-2.35974304 0 -2.35974304 0 0 0 Z " fill="#D59046" transform="translate(388,242)"/>
<path d="M0 0 C3 1 3 1 4 3 C4.28676744 5.79815498 4.51276109 8.569858 4.6875 11.375 C4.74744141 12.14328125 4.80738281 12.9115625 4.86914062 13.703125 C5.31031734 20.68943032 5.31031734 20.68943032 3 24 C2.49387936 21.1259578 1.99493459 18.25097127 1.5 15.375 C1.35691406 14.56675781 1.21382812 13.75851563 1.06640625 12.92578125 C0.32123749 8.56122136 -0.17272306 4.44761871 0 0 Z " fill="#E6A561" transform="translate(252,223)"/>
<path d="M0 0 C0.66 0.33 1.32 0.66 2 1 C-9.29411765 12.64705882 -9.29411765 12.64705882 -16 16 C-16.66 16 -17.32 16 -18 16 C-18 14.68 -18 13.36 -18 12 C-17.28972656 11.74605469 -16.57945312 11.49210937 -15.84765625 11.23046875 C-14.92855469 10.88628906 -14.00945312 10.54210937 -13.0625 10.1875 C-12.14597656 9.85105469 -11.22945313 9.51460938 -10.28515625 9.16796875 C-7.6659576 8.16590906 -7.6659576 8.16590906 -7 5 C-6.34 5 -5.68 5 -5 5 C-5 4.34 -5 3.68 -5 3 C-3.68 3 -2.36 3 -1 3 C-0.67 2.01 -0.34 1.02 0 0 Z " fill="#EAB681" transform="translate(418,250)"/>
<path d="M0 0 C1.32 0 2.64 0 4 0 C4.28875 0.804375 4.5775 1.60875 4.875 2.4375 C5.73262568 5.1326468 5.73262568 5.1326468 8 6 C8 7.32 8 8.64 8 10 C7.01 10.495 7.01 10.495 6 11 C5.53248212 13.35599235 5.53248212 13.35599235 5.375 16.0625 C5.30023438 16.98160156 5.22546875 17.90070313 5.1484375 18.84765625 C5.09945313 19.55792969 5.05046875 20.26820313 5 21 C4.34 21 3.68 21 3 21 C3 17.04 3 13.08 3 9 C3.66 9 4.32 9 5 9 C5 8.34 5 7.68 5 7 C4.34 7 3.68 7 3 7 C3 5.35 3 3.7 3 2 C2.01 2 1.02 2 0 2 C0 1.34 0 0.68 0 0 Z " fill="#E5A154" transform="translate(400,167)"/>
<path d="M0 0 C2.475 0.495 2.475 0.495 5 1 C5 1.66 5 2.32 5 3 C6.32 3 7.64 3 9 3 C9 3.99 9 4.98 9 6 C5.98155093 7.25768711 3.1921126 8.20197185 0 9 C0 6.03 0 3.06 0 0 Z " fill="#F49537" transform="translate(358,178)"/>
<path d="M0 0 C0.78375 0.04125 1.5675 0.0825 2.375 0.125 C2.045 1.115 1.715 2.105 1.375 3.125 C0.055 2.795 -1.265 2.465 -2.625 2.125 C-2.625 5.755 -2.625 9.385 -2.625 13.125 C-1.305 13.125 0.015 13.125 1.375 13.125 C1.375 13.785 1.375 14.445 1.375 15.125 C-1.265 14.795 -3.905 14.465 -6.625 14.125 C-6.955 12.805 -7.285 11.485 -7.625 10.125 C-6.635 10.455 -5.645 10.785 -4.625 11.125 C-4.64820313 10.49851563 -4.67140625 9.87203125 -4.6953125 9.2265625 C-4.71335937 8.40929687 -4.73140625 7.59203125 -4.75 6.75 C-4.77320313 5.93789062 -4.79640625 5.12578125 -4.8203125 4.2890625 C-4.51136441 0.86591762 -3.34090594 0.15909076 0 0 Z " fill="#E7A96D" transform="translate(360.625,175.875)"/>
<path d="M0 0 C0.33 0.99 0.66 1.98 1 3 C0.21625 3.2475 -0.5675 3.495 -1.375 3.75 C-4.43941457 5.20924503 -4.61725761 6.05014956 -6 9 C-7.875 10.3125 -7.875 10.3125 -10 11 C-12.1328125 10.54296875 -12.1328125 10.54296875 -14 10 C-9.59398317 5.98235547 -5.27112904 2.79692561 0 0 Z " fill="#EDAD64" transform="translate(310,96)"/>
<path d="M0 0 C1.32 0.99 2.64 1.98 4 3 C3.401875 4.175625 2.80375 5.35125 2.1875 6.5625 C0.30526646 10.32026874 -1.38379436 14.12110647 -3 18 C-3.33 18 -3.66 18 -4 18 C-4.17835515 13.45194365 -3.99785435 10.1205746 -2 6 C-1.34 6 -0.68 6 0 6 C-0.2784375 4.7934375 -0.2784375 4.7934375 -0.5625 3.5625 C-0.706875 2.716875 -0.85125 1.87125 -1 1 C-0.67 0.67 -0.34 0.34 0 0 Z " fill="#DE9143" transform="translate(361,218)"/>
<path d="M0 0 C0.33 0 0.66 0 1 0 C1.125 2.875 1.125 2.875 1 6 C-1 8 -1 8 -2.875 8.265625 C-3.57625 8.26046875 -4.2775 8.2553125 -5 8.25 C-5.70125 8.25515625 -6.4025 8.2603125 -7.125 8.265625 C-9 8 -9 8 -11 6 C-11 5.01 -11 4.02 -11 3 C-8.36 3.33 -5.72 3.66 -3 4 C-2.67 3.01 -2.34 2.02 -2 1 C-1.34 1.33 -0.68 1.66 0 2 C0 1.34 0 0.68 0 0 Z " fill="#F8D7AB" transform="translate(349,183)"/>
<path d="M0 0 C0.53625 0.78375 1.0725 1.5675 1.625 2.375 C4.32595738 5.36026869 6.23694188 5.82927081 10 7 C10.33 7.99 10.66 8.98 11 10 C10 11 10 11 7.625 11.1875 C5 11 5 11 2 9 C1.67 9.99 1.34 10.98 1 12 C1.020625 10.948125 1.04125 9.89625 1.0625 8.8125 C1.01103198 5.67295096 0.73482813 3.03116604 0 0 Z " fill="#E69B51" transform="translate(336,177)"/>
<path d="M0 0 C0.99 0 1.98 0 3 0 C3 5.28 3 10.56 3 16 C2.01 16 1.02 16 0 16 C0 10.72 0 5.44 0 0 Z " fill="#FEE3B8" transform="translate(392,174)"/>
<path d="M0 0 C2.1875 0.0625 2.1875 0.0625 5 1 C6.45026445 2.68281414 7.61619974 4.42335461 8.7890625 6.30859375 C10.0613426 8.29629704 10.0613426 8.29629704 13 10 C13.6875 12.125 13.6875 12.125 14 14 C7.93816016 11.53036155 3.97210352 5.99350157 0 1 C0 0.67 0 0.34 0 0 Z " fill="#5694B9" transform="translate(143,255)"/>
<path d="M0 0 C0.66 0 1.32 0 2 0 C2 3.96 2 7.92 2 12 C3.32 11.67 4.64 11.34 6 11 C6 11.99 6 12.98 6 14 C5.01 14 4.02 14 3 14 C2.67 15.32 2.34 16.64 2 18 C1.34 18 0.68 18 0 18 C0 12.06 0 6.12 0 0 Z " fill="#FEF0CB" transform="translate(377,168)"/>
<path d="M0 0 C0.66 0.33 1.32 0.66 2 1 C0.01599058 3.5675416 -1.06230492 4.01410677 -4.3125 4.75 C-9.10117411 6.37327936 -11.08694717 9.00922433 -14 13 C-14 9.08045346 -13.17860377 7.26790565 -11 4 C-8.43382328 2.60464141 -5.80430929 1.78588506 -3 1 C-2.01 0.67 -1.02 0.34 0 0 Z " fill="#432009" transform="translate(312,178)"/>
<path d="M0 0 C0.66 0.33 1.32 0.66 2 1 C-1.50830973 5.18344837 -5.08406729 9.18711815 -9 13 C-10.1446875 14.1446875 -10.1446875 14.1446875 -11.3125 15.3125 C-11.869375 15.869375 -12.42625 16.42625 -13 17 C-13 13.03926603 -11.47490036 10.92960647 -9 8 C-6.09184196 5.22198328 -3.07620314 2.58979495 0 0 Z " fill="#70A5C1" transform="translate(146,168)"/>
<path d="M0 0 C0.33 0 0.66 0 1 0 C1.33 7.92 1.66 15.84 2 24 C-1 21 -1 21 -1.35644531 18.94702148 C-1.34709961 18.17946533 -1.33775391 17.41190918 -1.328125 16.62109375 C-1.32296875 15.78255859 -1.3178125 14.94402344 -1.3125 14.08007812 C-1.291875 13.20802734 -1.27125 12.33597656 -1.25 11.4375 C-1.24226563 10.12362305 -1.24226563 10.12362305 -1.234375 8.78320312 C-1.15463447 2.30926894 -1.15463447 2.30926894 0 0 Z " fill="#3E2006" transform="translate(286,224)"/>
<path d="M0 0 C1.46015291 0.28241641 2.91809793 0.57626614 4.375 0.875 C5.18710938 1.03742188 5.99921875 1.19984375 6.8359375 1.3671875 C9 2 9 2 11 4 C13.28876507 4.57646135 15.57889902 4.95069253 17.90625 5.33984375 C20 6 20 6 22 9 C13.71602066 8.83432041 7.12502726 4.83270427 0 1 C0 0.67 0 0.34 0 0 Z " fill="#71A7C2" transform="translate(158,270)"/>
<path d="M0 0 C0.33 1.32 0.66 2.64 1 4 C-1.64 6.31 -4.28 8.62 -7 11 C-8 7 -8 7 -7.4375 4.9375 C-5.43427975 2.23750749 -3.03882186 1.3212269 0 0 Z " fill="#331807" transform="translate(414,238)"/>
<path d="M0 0 C0.66 0.33 1.32 0.66 2 1 C1.54625 1.391875 1.0925 1.78375 0.625 2.1875 C-1.17366094 3.96382139 -1.17366094 3.96382139 -1.9375 6.625 C-2.288125 7.40875 -2.63875 8.1925 -3 9 C-4.32488113 9.36548445 -5.66018514 9.6937566 -7 10 C-9.7295585 12.47906969 -9.7295585 12.47906969 -12 15 C-12.66 14.67 -13.32 14.34 -14 14 C-11.03750349 9.92656729 -7.61640648 6.79433834 -3.8046875 3.55078125 C-1.92288746 1.97318991 -1.92288746 1.97318991 0 0 Z " fill="#E9B47B" transform="translate(294,107)"/>
<path d="M0 0 C0 0.99 0 1.98 0 3 C0.66 3.66 1.32 4.32 2 5 C-0.31 5.33 -2.62 5.66 -5 6 C-3.8905928 9.48670834 -2.73662334 12.77484237 -1 16 C-2.875 15.6875 -2.875 15.6875 -5 15 C-7.29013653 11.5647952 -7.17842973 10.014669 -7 6 C-5.35 5.67 -3.7 5.34 -2 5 C-2 4.34 -2 3.68 -2 3 C-2.66 2.67 -3.32 2.34 -4 2 C-2.68 1.34 -1.36 0.68 0 0 Z " fill="#3F1F09" transform="translate(338,228)"/>
<path d="M0 0 C0.33 0 0.66 0 1 0 C1 4.62 1 9.24 1 14 C0.67 13.34 0.34 12.68 0 12 C-0.66 12 -1.32 12 -2 12 C-3.40457737 9.19084526 -3.24895157 7.11189466 -3 4 C-1.5625 1.625 -1.5625 1.625 0 0 Z " fill="#EF953A" transform="translate(390,175)"/>
<path d="M0 0 C0.33 0 0.66 0 1 0 C0.5464821 7.02952752 -1.12059087 12.5849443 -4 19 C-5.53311546 15.06047546 -4.40433339 12.28358409 -3.125 8.375 C-2.75632813 7.22773438 -2.38765625 6.08046875 -2.0078125 4.8984375 C-1 2 -1 2 0 0 Z " fill="#64A2BE" transform="translate(131,185)"/>
<path d="M0 0 C1.98 0 3.96 0 6 0 C6 0.66 6 1.32 6 2 C5.31292969 2.14695313 4.62585938 2.29390625 3.91796875 2.4453125 C-2.07605128 3.80820166 -2.07605128 3.80820166 -6.125 8.1875 C-6.41375 9.115625 -6.7025 10.04375 -7 11 C-7.33 11 -7.66 11 -8 11 C-8.36190476 5.57142857 -8.36190476 5.57142857 -6.8125 3.125 C-4.43963721 1.65218861 -2.74086056 1.77776806 0 2 C0 1.34 0 0.68 0 0 Z " fill="#DC9448" transform="translate(306,177)"/>
<path d="M0 0 C0.66 1.32 1.32 2.64 2 4 C-1 8 -1 8 -4 12 C-4.66 11.67 -5.32 11.34 -6 11 C-4.88059018 6.14922412 -3.8665284 3.222107 0 0 Z " fill="#EDA45D" transform="translate(279,122)"/>
<path d="M0 0 C4.39291786 3.31909349 6.8227865 5.79887886 9 11 C8.38125 11.144375 7.7625 11.28875 7.125 11.4375 C4.96741678 11.93152225 4.96741678 11.93152225 3 13 C3 11.02 3 9.04 3 7 C2.34 6.67 1.68 6.34 1 6 C0.375 2.9375 0.375 2.9375 0 0 Z " fill="#E8A364" transform="translate(435,101)"/>
<path d="M0 0 C0.99 0 1.98 0 3 0 C3.28875 0.7425 3.5775 1.485 3.875 2.25 C4.82302644 4.56739797 5.84845911 6.77917115 7 9 C5.0625 8.6875 5.0625 8.6875 3 8 C2.67 7.01 2.34 6.02 2 5 C-0.64 5.33 -3.28 5.66 -6 6 C-4 4 -2 2 0 0 Z " fill="#C18241" transform="translate(318,242)"/>
<path d="M0 0 C2 3 2 3 1.625 5.6875 C1.41875 6.450625 1.2125 7.21375 1 8 C0.34 8 -0.32 8 -1 8 C-1 8.66 -1 9.32 -1 10 C-2.41543415 10.19658808 -3.83244031 10.38187546 -5.25 10.5625 C-6.03890625 10.66691406 -6.8278125 10.77132812 -7.640625 10.87890625 C-10.00532874 11.00027349 -11.7511037 10.69633257 -14 10 C-13.67 9.01 -13.34 8.02 -13 7 C-12.34 7.33 -11.68 7.66 -11 8 C-5.39296787 8.21377721 -5.39296787 8.21377721 0 7 C0 4.69 0 2.38 0 0 Z " fill="#EA9F54" transform="translate(351,182)"/>
<path d="M0 0 C4.31226893 2.36752019 8.33715165 4.67013786 12 8 C12 8.66 12 9.32 12 10 C6.49411765 9.51058824 6.49411765 9.51058824 4.125 7.0625 C3 5 3 5 3 3 C2.01 2.67 1.02 2.34 0 2 C0 1.34 0 0.68 0 0 Z " fill="#E6A86D" transform="translate(423,91)"/>
<path d="M0 0 C0 0.66 0 1.32 0 2 C-1.98 2.33 -3.96 2.66 -6 3 C-6.33 3.99 -6.66 4.98 -7 6 C-10.21451269 7.60725635 -13.43612536 7.05748185 -17 7 C-14.42033404 4.42033404 -11.90692108 3.66390156 -8.5 2.375 C-7.3346875 1.92898437 -6.169375 1.48296875 -4.96875 1.0234375 C-2 0 -2 0 0 0 Z " fill="#E8B16E" transform="translate(339,83)"/>
<path d="M0 0 C0.33 0 0.66 0 1 0 C1.33 2.97 1.66 5.94 2 9 C0.8553125 9.1546875 0.8553125 9.1546875 -0.3125 9.3125 C-3.04354896 9.7598463 -3.04354896 9.7598463 -4.5625 11.625 C-5.036875 12.07875 -5.51125 12.5325 -6 13 C-8.08984375 12.5859375 -8.08984375 12.5859375 -10 12 C-9.16855469 11.45472656 -9.16855469 11.45472656 -8.3203125 10.8984375 C-3.77513112 7.74430808 -1.08760541 5.70992843 0 0 Z " fill="#504C4E" transform="translate(454,229)"/>
<path d="M0 0 C0.90105469 0.00902344 1.80210937 0.01804688 2.73046875 0.02734375 C3.41753906 0.03894531 4.10460937 0.05054688 4.8125 0.0625 C4.8125 0.3925 4.8125 0.7225 4.8125 1.0625 C4.19761719 1.07667969 3.58273437 1.09085938 2.94921875 1.10546875 C0.47750527 1.25132744 -1.78427148 1.45743183 -4.1875 2.0625 C-6.3261077 4.45237933 -6.3261077 4.45237933 -7.1875 7.0625 C-7.5175 6.0725 -7.8475 5.0825 -8.1875 4.0625 C-9.5075 5.0525 -10.8275 6.0425 -12.1875 7.0625 C-12.8475 6.7325 -13.5075 6.4025 -14.1875 6.0625 C-9.33255997 1.85488531 -6.62430208 -0.0860299 0 0 Z " fill="#4A250B" transform="translate(344.1875,207.9375)"/>
<path d="M0 0 C0.33 0 0.66 0 1 0 C1.22084624 6.09781001 1.01167675 11.21642935 -1 17 C0.32 17.33 1.64 17.66 3 18 C1.35 18 -0.3 18 -2 18 C-2.2361959 11.59646678 -1.823321 6.15370839 0 0 Z " fill="#C0813E" transform="translate(403,226)"/>
<path d="M0 0 C0 3.93154432 -1.25327015 6.5065403 -3 10 C-3.99 10.33 -4.98 10.66 -6 11 C-6 11.66 -6 12.32 -6 13 C-6.66 13 -7.32 13 -8 13 C-6.63589551 7.40717158 -3.84616474 4.08806189 0 0 Z " fill="#341B06" transform="translate(329,215)"/>
<path d="M0 0 C-3.85940746 3.85940746 -10.35985738 3.94344336 -15.625 4.125 C-16.40875 4.08375 -17.1925 4.0425 -18 4 C-12.09876585 0.0658439 -6.88057626 -0.27522305 0 0 Z " fill="#689FBE" transform="translate(230,277)"/>
<path d="M0 0 C0.8971875 0.309375 0.8971875 0.309375 1.8125 0.625 C-2.48654015 4.36329578 -8.43678075 7.625 -14.1875 7.625 C-14.1875 6.965 -14.1875 6.305 -14.1875 5.625 C-13.57261719 5.35945313 -12.95773437 5.09390625 -12.32421875 4.8203125 C-11.51597656 4.46710938 -10.70773437 4.11390625 -9.875 3.75 C-9.07449219 3.40195312 -8.27398437 3.05390625 -7.44921875 2.6953125 C-1.28731629 -0.22068279 -1.28731629 -0.22068279 0 0 Z " fill="#E4AD7D" transform="translate(398.1875,266.375)"/>
<path d="M0 0 C0.33 0.66 0.66 1.32 1 2 C0.34 2 -0.32 2 -1 2 C-1.268125 2.639375 -1.53625 3.27875 -1.8125 3.9375 C-3 6 -3 6 -6 7 C-7.56118428 7.06740865 -9.1250252 7.08514456 -10.6875 7.0625 C-11.89986328 7.04896484 -11.89986328 7.04896484 -13.13671875 7.03515625 C-14.05904297 7.01775391 -14.05904297 7.01775391 -15 7 C-11.75821647 4.83881098 -8.84400869 3.91216266 -5.15625 2.78125 C-2.75305559 2.00732212 -2.75305559 2.00732212 0 0 Z " fill="#C07D3B" transform="translate(311,248)"/>
<path d="M0 0 C-0.51949219 0.38671875 -1.03898437 0.7734375 -1.57421875 1.171875 C-5.4342631 4.05442199 -9.26026958 6.96146903 -13 10 C-13 8.68 -13 7.36 -13 6 C-12.34 6 -11.68 6 -11 6 C-10.67 5.01 -10.34 4.02 -10 3 C-9.01 3 -8.02 3 -7 3 C-7 2.34 -7 1.68 -7 1 C-3.375 -1.125 -3.375 -1.125 0 0 Z " fill="#D58E48" transform="translate(378,210)"/>
<path d="M0 0 C0.33 0 0.66 0 1 0 C1.03738281 0.67546875 1.07476562 1.3509375 1.11328125 2.046875 C1.17902344 2.93890625 1.24476563 3.8309375 1.3125 4.75 C1.37050781 5.63171875 1.42851562 6.5134375 1.48828125 7.421875 C2.08098128 10.40799729 2.83039981 11.86984709 5 14 C7.0488648 14.48057715 7.0488648 14.48057715 9.1875 14.25 C11.0746875 14.12625 11.0746875 14.12625 13 14 C12.67 14.66 12.34 15.32 12 16 C10.7625 16.04125 9.525 16.0825 8.25 16.125 C7.55390625 16.14820313 6.8578125 16.17140625 6.140625 16.1953125 C4 16 4 16 0 14 C0 9.38 0 4.76 0 0 Z " fill="#47270A" transform="translate(297,230)"/>
<path d="M0 0 C0.33 0.66 0.66 1.32 1 2 C1.99 2 2.98 2 4 2 C3.50168276 5.68754757 2.89932357 7.60490662 0 10 C-2.21538462 4.58461538 -2.21538462 4.58461538 -1.125 1.625 C-0.75375 1.08875 -0.3825 0.5525 0 0 Z " fill="#EC9A46" transform="translate(307,198)"/>
<path d="M0 0 C0.66 0.33 1.32 0.66 2 1 C1.73445313 1.59167969 1.46890625 2.18335938 1.1953125 2.79296875 C-0.61136615 6.8349177 -2.40126853 10.8699437 -4 15 C-4.66 15 -5.32 15 -6 15 C-5.68950274 13.56206608 -5.3765224 12.1246682 -5.0625 10.6875 C-4.88847656 9.88699219 -4.71445312 9.08648437 -4.53515625 8.26171875 C-4 6 -4 6 -3 3 C-2.01 3 -1.02 3 0 3 C0 2.01 0 1.02 0 0 Z " fill="#EA984A" transform="translate(266,145)"/>
<path d="M0 0 C0.99 0 1.98 0 3 0 C1.8288318 4.55454298 -0.41075937 6.59788966 -4.1796875 9.12890625 C-6 10 -6 10 -8.9375 9.8125 C-9.618125 9.544375 -10.29875 9.27625 -11 9 C-11 8.67 -11 8.34 -11 8 C-10.113125 7.71125 -9.22625 7.4225 -8.3125 7.125 C-5.49617576 6.16851252 -2.74916844 5.13201054 0 4 C-0.33 3.01 -0.66 2.02 -1 1 C-0.67 0.67 -0.34 0.34 0 0 Z " fill="#61A1BF" transform="translate(238,267)"/>
<path d="M0 0 C0.66 0.33 1.32 0.66 2 1 C0.68 3.31 -0.64 5.62 -2 8 C-2.66 8 -3.32 8 -4 8 C-4 8.66 -4 9.32 -4 10 C-5.32 10.33 -6.64 10.66 -8 11 C-6.69386058 7.08158173 -5.16870152 4.67359191 -2 2 C-1.34 2 -0.68 2 0 2 C0 1.34 0 0.68 0 0 Z " fill="#230F03" transform="translate(444,209)"/>
<path d="M0 0 C0.350625 0.61875 0.70125 1.2375 1.0625 1.875 C3.68887702 4.75554253 6.26627537 5.15462838 10 6 C10 6.99 10 7.98 10 9 C8.51988629 8.69201674 7.04092675 8.378482 5.5625 8.0625 C4.73878906 7.88847656 3.91507812 7.71445313 3.06640625 7.53515625 C1 7 1 7 0 6 C-0.04080783 4.00041636 -0.04254356 1.99954746 0 0 Z " fill="#FDE9BE" transform="translate(339,176)"/>
<path d="M0 0 C0.36923077 5.41538462 0.36923077 5.41538462 -1.5 8.375 C-1.995 8.91125 -2.49 9.4475 -3 10 C-2.41070989 6.96936513 -1.74955438 3.9982175 -1 1 C-3.64 2.98 -6.28 4.96 -9 7 C-9 6.01 -9 5.02 -9 4 C-8.34 4 -7.68 4 -7 4 C-7 3.01 -7 2.02 -7 1 C-4.53721199 -0.231394 -2.7204945 -0.07159196 0 0 Z " fill="#544F52" transform="translate(484,218)"/>
<path d="M0 0 C4.29 0 8.58 0 13 0 C13.33 1.32 13.66 2.64 14 4 C15.32 4.33 16.64 4.66 18 5 C16.3125 5.75 16.3125 5.75 14 6 C13.29875 5.360625 12.5975 4.72125 11.875 4.0625 C7.71350433 1.0770792 3.96456631 1.65296236 -1 2 C-0.67 1.34 -0.34 0.68 0 0 Z " fill="#D48D44" transform="translate(381,207)"/>
<path d="M0 0 C4.62 0 9.24 0 14 0 C13.01 1.485 13.01 1.485 12 3 C9.6875 3.3984375 9.6875 3.3984375 7 3.375 C6.113125 3.38273438 5.22625 3.39046875 4.3125 3.3984375 C3.1678125 3.20121094 3.1678125 3.20121094 2 3 C1.34 2.01 0.68 1.02 0 0 Z " fill="#C98643" transform="translate(336,242)"/>
<path d="M0 0 C0.33 0.66 0.66 1.32 1 2 C3.02463255 2.65213292 3.02463255 2.65213292 5 3 C4.01 4.485 4.01 4.485 3 6 C3.99 6 4.98 6 6 6 C5.67 7.65 5.34 9.3 5 11 C4.34 10.67 3.68 10.34 3 10 C3.33 9.34 3.66 8.68 4 8 C2.68 7.67 1.36 7.34 0 7 C0.66 7 1.32 7 2 7 C2 6.34 2 5.68 2 5 C1.34 5 0.68 5 0 5 C0 3.35 0 1.7 0 0 Z " fill="#412B16" transform="translate(429,218)"/>
<path d="M0 0 C-3.13498292 1.85776765 -5.37471432 2.20140476 -9 2 C-9 2.66 -9 3.32 -9 4 C-14.94 4.495 -14.94 4.495 -21 5 C-17.77038428 2.84692286 -15.38872346 2.22765131 -11.625 1.375 C-10.50351562 1.11460938 -9.38203125 0.85421875 -8.2265625 0.5859375 C-5.3847292 0.06986608 -2.87555316 -0.11846848 0 0 Z " fill="#E9B480" transform="translate(361,78)"/>
<path d="M0 0 C1.75032844 0.14183696 3.50025534 0.28863429 5.25 0.4375 C6.71179688 0.55931641 6.71179688 0.55931641 8.203125 0.68359375 C10.56461753 0.95074584 12.71901065 1.35371968 15 2 C15 2.66 15 3.32 15 4 C4.44191344 3.22095672 4.44191344 3.22095672 0 1 C0 0.67 0 0.34 0 0 Z " fill="#E6AA76" transform="translate(279,276)"/>
<path d="M0 0 C0.99 0.33 1.98 0.66 3 1 C-2.91684902 5.90153173 -2.91684902 5.90153173 -7.4375 6.3125 C-8.283125 6.209375 -9.12875 6.10625 -10 6 C-9.34 4.68 -8.68 3.36 -8 2 C-7.05125 2.04125 -6.1025 2.0825 -5.125 2.125 C-1.89755144 2.34973818 -1.89755144 2.34973818 0 0 Z " fill="#D99046" transform="translate(312,239)"/>
<path d="M0 0 C0.33 0 0.66 0 1 0 C1.33 2.97 1.66 5.94 2 9 C2.66 9 3.32 9 4 9 C3.45773019 12.79588866 1.79872437 14.47211993 -1 17 C-1 16.01 -1 15.02 -1 14 C-0.34 14 0.32 14 1 14 C0.835 13.175 0.67 12.35 0.5 11.5 C-0.05896045 7.58727683 -0.06807187 3.94816827 0 0 Z " fill="#CC8A44" transform="translate(416,217)"/>
<path d="M0 0 C2.65262179 1.32631089 3.21099749 2.85343108 4.625 5.4375 C5.07101562 6.24058594 5.51703125 7.04367188 5.9765625 7.87109375 C7 10 7 10 7 12 C6.01 12 5.02 12 4 12 C3.32332002 10.75539217 2.65905281 9.50403104 2 8.25 C1.62875 7.55390625 1.2575 6.8578125 0.875 6.140625 C0 4 0 4 0 0 Z " fill="#E6AE75" transform="translate(444,112)"/>
<path d="M0 0 C0.66 0 1.32 0 2 0 C2 1.32 2 2.64 2 4 C2.66 4 3.32 4 4 4 C4.33 5.32 4.66 6.64 5 8 C2.03 7.505 2.03 7.505 -1 7 C-1 6.01 -1 5.02 -1 4 C-2.98 4.99 -2.98 4.99 -5 6 C-3.38405168 3.95880212 -1.7143618 1.95927063 0 0 Z " fill="#B8793C" transform="translate(357,242)"/>
<path d="M0 0 C0.33 0 0.66 0 1 0 C1.02578125 0.71285156 1.0515625 1.42570313 1.078125 2.16015625 C1.45766258 8.56916582 2.34901282 12.7001799 6 18 C4.125 17.6875 4.125 17.6875 2 17 C-0.49118953 13.2632157 -0.2065226 11.25548181 -0.125 6.8125 C-0.10695313 5.54019531 -0.08890625 4.26789063 -0.0703125 2.95703125 C-0.04710937 1.98121094 -0.02390625 1.00539062 0 0 Z " fill="#C3813D" transform="translate(284,234)"/>
<path d="M0 0 C0.25 2.25 0.25 2.25 0 5 C-1.875 7.3125 -1.875 7.3125 -4 9 C-4.66 9 -5.32 9 -6 9 C-5.63668534 5.73016809 -4.2451062 0 0 0 Z " fill="#211C1D" transform="translate(505,238)"/>
<path d="M0 0 C3 1 3 1 4.203125 2.7421875 C4.54859375 3.44601563 4.8940625 4.14984375 5.25 4.875 C5.60578125 5.57367188 5.9615625 6.27234375 6.328125 6.9921875 C7 9 7 9 6 12 C4.99466333 10.37829621 3.99588093 8.75252763 3 7.125 C2.443125 6.22007812 1.88625 5.31515625 1.3125 4.3828125 C0 2 0 2 0 0 Z " fill="#589BB7" transform="translate(133,239)"/>
<path d="M0 0 C0 3.66666667 0 7.33333333 0 11 C0.66 11 1.32 11 2 11 C2 11.66 2 12.32 2 13 C0.02 13 -1.96 13 -4 13 C-4 12.34 -4 11.68 -4 11 C-3.34 11 -2.68 11 -2 11 C-2 7.7 -2 4.4 -2 1 C-1.34 0.67 -0.68 0.34 0 0 Z " fill="#E29C5A" transform="translate(388,176)"/>
<path d="M0 0 C0.99 0.495 0.99 0.495 2 1 C2 1.99 2 2.98 2 4 C3.32 4.33 4.64 4.66 6 5 C3.03 7.475 3.03 7.475 0 10 C0 6.7 0 3.4 0 0 Z " fill="#E79948" transform="translate(380,169)"/>
<path d="M0 0 C4.43090471 1.20842856 6.98112756 2.51668565 10 6 C5.76907828 6.36265043 3.37362154 5.60250805 0 3 C0 2.01 0 1.02 0 0 Z " fill="#63A1BE" transform="translate(209,171)"/>
<path d="M0 0 C-2.41407698 1.60938465 -4.34044437 2.65490738 -7 3.6875 C-8.0209375 4.09548828 -8.0209375 4.09548828 -9.0625 4.51171875 C-11 5 -11 5 -14 4 C-9.09075703 0.07260562 -6.26079448 -0.43177893 0 0 Z " fill="#E8B985" transform="translate(384,274)"/>
<path d="M0 0 C1.66611905 -0.042721 3.33382885 -0.04063832 5 0 C5.33 0.33 5.66 0.66 6 1 C8.32817964 1.36760731 10.6618385 1.70241581 13 2 C11 4 11 4 7.0625 4.375 C3.30683919 4.30683919 3.30683919 4.30683919 1 2 C0.67 1.34 0.34 0.68 0 0 Z " fill="#48230C" transform="translate(362,250)"/>
<path d="M0 0 C0.33 0 0.66 0 1 0 C0.22602467 6.70778622 -0.85768588 13.34574301 -2 20 C-2.33 20 -2.66 20 -3 20 C-2.88581333 17.41577541 -2.75907638 14.83320487 -2.625 12.25 C-2.5940625 11.52039063 -2.563125 10.79078125 -2.53125 10.0390625 C-2.3251506 6.26057344 -2.08487157 3.22053332 0 0 Z " fill="#47240B" transform="translate(403,221)"/>
<path d="M0 0 C1.299375 0.2475 1.299375 0.2475 2.625 0.5 C-2.125 4.5 -2.125 4.5 -4.375 4.5 C-5.035 5.82 -5.695 7.14 -6.375 8.5 C-7.365 8.5 -8.355 8.5 -9.375 8.5 C-4.43845733 0.65754923 -4.43845733 0.65754923 0 0 Z " fill="#4394BC" transform="translate(151.375,166.5)"/>
<path d="M0 0 C2.67289025 3.87671106 2.01875653 7.79267603 1.625 12.25 C1.53992188 13.36761719 1.53992188 13.36761719 1.453125 14.5078125 C1.31223742 16.33935108 1.15748116 18.16981352 1 20 C0.67 20 0.34 20 0 20 C-0.74464946 13.12631267 -1.18225237 6.83079148 0 0 Z " fill="#479BBC" transform="translate(242,213)"/>
<path d="M0 0 C0.33 0 0.66 0 1 0 C1.33 5.94 1.66 11.88 2 18 C1.01 18 0.02 18 -1 18 C-0.505 9.09 -0.505 9.09 0 0 Z " fill="#E8913D" transform="translate(374,172)"/>
<path d="M0 0 C2.4375 0.8125 2.4375 0.8125 5 2 C5.33 2.99 5.66 3.98 6 5 C4.68 5.99 3.36 6.98 2 8 C2 7.01 2 6.02 2 5 C1.34 4.67 0.68 4.34 0 4 C-0.33 3.01 -0.66 2.02 -1 1 C-0.67 0.67 -0.34 0.34 0 0 Z " fill="#F2A45C" transform="translate(418,242)"/>
<path d="M0 0 C-0.33 0.99 -0.66 1.98 -1 3 C-4.4375 4.125 -4.4375 4.125 -8 5 C-8.99 5.495 -8.99 5.495 -10 6 C-9.25 3.5625 -9.25 3.5625 -8 1 C-5.20408963 -0.21156116 -3.12576931 0 0 0 Z " fill="#B07C46" transform="translate(433,226)"/>
<path d="M0 0 C0.33 0 0.66 0 1 0 C1.31461385 7.09629025 1.44572039 12.68284595 -2 19 C-3.15941038 15.52176885 -2.70820884 13.54104422 -2 10 C-1.34 10 -0.68 10 0 10 C0 6.7 0 3.4 0 0 Z " fill="#A87039" transform="translate(390,214)"/>
<path d="M0 0 C3.63 0 7.26 0 11 0 C11 0.33 11 0.66 11 1 C8.69 1 6.38 1 4 1 C4.33 2.32 4.66 3.64 5 5 C2.03 4.505 2.03 4.505 -1 4 C-0.67 2.68 -0.34 1.36 0 0 Z " fill="#280D02" transform="translate(340,209)"/>
<path d="M0 0 C5.65394631 -0.34615998 9.03006806 0.56574762 14 3 C13.34 4.32 12.68 5.64 12 7 C11.34 7 10.68 7 10 7 C10 6.01 10 5.02 10 4 C6.73454239 2.11608215 3.71888239 1.50712033 0 1 C0 0.67 0 0.34 0 0 Z " fill="#E69D4E" transform="translate(341,172)"/>
<path d="M0 0 C0 0.99 0 1.98 0 3 C-4.22222222 6 -4.22222222 6 -7 6 C-7 4.68 -7 3.36 -7 2 C-2.25 0 -2.25 0 0 0 Z " fill="#E5A668" transform="translate(407,260)"/>
<path d="M0 0 C0.66 0 1.32 0 2 0 C2 0.99 2 1.98 2 3 C2.66 3 3.32 3 4 3 C4 5.97 4 8.94 4 12 C2.09681116 9.14521674 1.5380901 7.58058692 0.875 4.3125 C0.70742188 3.50425781 0.53984375 2.69601563 0.3671875 1.86328125 C0.24601562 1.24839844 0.12484375 0.63351563 0 0 Z " fill="#E5AD72" transform="translate(256,247)"/>
<path d="M0 0 C2.31 0 4.62 0 7 0 C6.01 0.33 5.02 0.66 4 1 C2.77479736 4.00847418 2.77479736 4.00847418 2 7 C0 5 0 5 -0.125 2.375 C-0.08375 1.59125 -0.0425 0.8075 0 0 Z " fill="#EA9A41" transform="translate(334,235)"/>
<path d="M0 0 C0.33 0 0.66 0 1 0 C1 2.64 1 5.28 1 8 C-0.32 8.33 -1.64 8.66 -3 9 C-2.25 2.25 -2.25 2.25 0 0 Z " fill="#F7983E" transform="translate(426,231)"/>
<path d="M0 0 C0.5775 0.78375 1.155 1.5675 1.75 2.375 C3.82897637 4.80047244 5.09040333 5.85694417 8 7 C6.68 7 5.36 7 4 7 C4 7.66 4 8.32 4 9 C3.34 9 2.68 9 2 9 C1.67 9.99 1.34 10.98 1 12 C1.020625 10.948125 1.04125 9.89625 1.0625 8.8125 C1.01103198 5.67295096 0.73482813 3.03116604 0 0 Z " fill="#F0AC67" transform="translate(336,177)"/>
<path d="M0 0 C0.33 0.99 0.66 1.98 1 3 C-0.8253125 3.2165625 -0.8253125 3.2165625 -2.6875 3.4375 C-5.82670377 3.82780953 -8.9075134 4.32351856 -12 5 C-8.24532309 1.94063363 -4.91886939 0 0 0 Z " fill="#83B7CD" transform="translate(162,162)"/>
<path d="M0 0 C-1.03491649 2.82249951 -1.69915265 3.83374226 -4.375 5.3125 C-7.16653942 6.04361747 -8.30861211 5.79596365 -11 5 C-9.54462432 4.16151196 -8.08559627 3.32936066 -6.625 2.5 C-5.81289063 2.0359375 -5.00078125 1.571875 -4.1640625 1.09375 C-2 0 -2 0 0 0 Z " fill="#ECBB86" transform="translate(322,90)"/>
<path d="M0 0 C0.66 0.33 1.32 0.66 2 1 C0.82421875 2.953125 0.82421875 2.953125 -1 5 C-3.48046875 5.609375 -3.48046875 5.609375 -6.1875 5.75 C-7.08855469 5.80671875 -7.98960937 5.8634375 -8.91796875 5.921875 C-9.60503906 5.94765625 -10.29210937 5.9734375 -11 6 C-10.41476562 5.71511719 -9.82953125 5.43023437 -9.2265625 5.13671875 C-7.21159575 4.1080252 -5.30499399 2.9900514 -3.375 1.8125 C-2.26125 1.214375 -1.1475 0.61625 0 0 Z " fill="#B37638" transform="translate(350,248)"/>
<path d="M0 0 C0.5775 0.45375 1.155 0.9075 1.75 1.375 C4.73646821 3.53189371 7.38476502 3.65238125 11 4 C11 4.33 11 4.66 11 5 C1.82713348 5.63019694 1.82713348 5.63019694 -1.625 3 C-2.07875 2.34 -2.5325 1.68 -3 1 C-2.01 0.67 -1.02 0.34 0 0 Z " fill="#502D0B" transform="translate(328,249)"/>
<path d="M0 0 C0 2.62113708 -0.31292445 4.50935112 -1 7 C-3.31 7.66 -5.62 8.32 -8 9 C-7.04270084 7.87411986 -6.08412105 6.7493285 -5.125 5.625 C-4.59132813 4.99851563 -4.05765625 4.37203125 -3.5078125 3.7265625 C-2.38567993 2.44163349 -1.20628025 1.20628025 0 0 Z " fill="#B77D36" transform="translate(385,243)"/>
<path d="M0 0 C1.65 0 3.3 0 5 0 C3.35 1.98 1.7 3.96 0 6 C-0.99 5.67 -1.98 5.34 -3 5 C-3 4.34 -3 3.68 -3 3 C-2.01 3 -1.02 3 0 3 C0 2.01 0 1.02 0 0 Z " fill="#DD9247" transform="translate(352,236)"/>
<path d="M0 0 C2 3 2 3 1.875 5.4375 C0.83687696 8.47771747 -0.60145094 9.91094114 -3 12 C-2.67 10.02 -2.34 8.04 -2 6 C-1.34 6 -0.68 6 0 6 C0 4.02 0 2.04 0 0 Z " fill="#D39551" transform="translate(304,206)"/>
<path d="M0 0 C1.32 0 2.64 0 4 0 C5.5625 2.8125 5.5625 2.8125 7 6 C6.67 6.99 6.34 7.98 6 9 C5.67 8.34 5.34 7.68 5 7 C4.34 7 3.68 7 3 7 C3 5.35 3 3.7 3 2 C2.01 2 1.02 2 0 2 C0 1.34 0 0.68 0 0 Z " fill="#EDA65C" transform="translate(400,167)"/>
<path d="M0 0 C0.33 0.66 0.66 1.32 1 2 C0.67 2.66 0.34 3.32 0 4 C0.66 4.33 1.32 4.66 2 5 C-1 7 -1 7 -4 7 C-4.66 6.67 -5.32 6.34 -6 6 C-4.02 4.02 -2.04 2.04 0 0 Z " fill="#41200A" transform="translate(416,233)"/>
<path d="M0 0 C0.33 0 0.66 0 1 0 C1.2295711 3.36704285 1.33943529 5.41370268 -0.375 8.375 C-0.91125 8.91125 -1.4475 9.4475 -2 10 C-2.66 10 -3.32 10 -4 10 C-2.66666667 6.66666667 -1.33333333 3.33333333 0 0 Z " fill="#C17F3E" transform="translate(315,202)"/>
<path d="M0 0 C0.66 0 1.32 0 2 0 C2.06058594 0.90363281 2.12117188 1.80726563 2.18359375 2.73828125 C2.26738281 3.91777344 2.35117187 5.09726563 2.4375 6.3125 C2.55931641 8.07013672 2.55931641 8.07013672 2.68359375 9.86328125 C2.8867371 13.02590958 2.8867371 13.02590958 4 16 C3.01 15.67 2.02 15.34 1 15 C0.67 10.05 0.34 5.1 0 0 Z " fill="#FFF4D7" transform="translate(400,174)"/>
<path d="M0 0 C0.33 1.32 0.66 2.64 1 4 C-1.475 5.485 -1.475 5.485 -4 7 C-4.33 6.01 -4.66 5.02 -5 4 C-3.36587557 2.29159719 -2.13093906 1.06546953 0 0 Z " fill="#1F0A00" transform="translate(414,238)"/>
<path d="M0 0 C0.99 0 1.98 0 3 0 C1.68775452 3.93673644 0.08089673 6.22719294 -3 9 C-2.44271087 5.65626525 -1.64826111 2.96687001 0 0 Z " fill="#DD954A" transform="translate(384,233)"/>
<path d="M0 0 C1.07694171 2.80004844 0.95876997 4.1911574 0.3125 7.1875 C-0.3371875 8.5796875 -0.3371875 8.5796875 -1 10 C-3.08203125 10.67578125 -3.08203125 10.67578125 -5 11 C-4.35474023 9.5414128 -3.7087728 8.08313863 -3.0625 6.625 C-2.70285156 5.81289062 -2.34320313 5.00078125 -1.97265625 4.1640625 C-1.3430097 2.76316215 -0.68687358 1.37374716 0 0 Z " fill="#3D1F09" transform="translate(361,227)"/>
<path d="M0 0 C0.99 0 1.98 0 3 0 C3 0.66 3 1.32 3 2 C3.99 2.33 4.98 2.66 6 3 C6.33 3.99 6.66 4.98 7 6 C6.01 6 5.02 6 4 6 C4 5.34 4 4.68 4 4 C2.68 3.67 1.36 3.34 0 3 C0 2.01 0 1.02 0 0 Z " fill="#3C8BB7" transform="translate(216,177)"/>
<path d="M0 0 C0.33 0.99 0.66 1.98 1 3 C-1.30368736 4.06652192 -3.64018187 5.06421005 -6 6 C-6.66 5.67 -7.32 5.34 -8 5 C-4.04 2.525 -4.04 2.525 0 0 Z " fill="#EDB984" transform="translate(310,96)"/>
<path d="M0 0 C0.33 0 0.66 0 1 0 C1.1875 2.375 1.1875 2.375 1 5 C0.01 5.66 -0.98 6.32 -2 7 C-2 7.66 -2 8.32 -2 9 C-2.99 9.33 -3.98 9.66 -5 10 C-4.67 8.35 -4.34 6.7 -4 5 C-2.68 4.67 -1.36 4.34 0 4 C0 2.68 0 1.36 0 0 Z " fill="#3E8CB5" transform="translate(240,262)"/>
<path d="M0 0 C0.66 0 1.32 0 2 0 C3.6875 1.75 3.6875 1.75 5 4 C4.6875 6.25 4.6875 6.25 4 8 C0 3.375 0 3.375 0 0 Z " fill="#E9B282" transform="translate(260,259)"/>
<path d="M0 0 C0.99 0.33 1.98 0.66 3 1 C2.690625 2.051875 2.38125 3.10375 2.0625 4.1875 C1.24314906 7.12752396 0.54516069 10.00161623 0 13 C-0.33 13 -0.66 13 -1 13 C-1.02686553 11.02090602 -1.04633375 9.04171029 -1.0625 7.0625 C-1.07410156 5.96035156 -1.08570313 4.85820312 -1.09765625 3.72265625 C-1 1 -1 1 0 0 Z " fill="#E19042" transform="translate(321,218)"/>
<path d="M0 0 C1 2 1 2 0.875 4.5 C0 7 0 7 -2.5625 8.3125 C-3.7690625 8.6528125 -3.7690625 8.6528125 -5 9 C-3.50163895 5.88801935 -1.80066242 2.9465385 0 0 Z " fill="#B7773E" transform="translate(310,212)"/>
<path d="M0 0 C-0.33 2.64 -0.66 5.28 -1 8 C-1.33 8 -1.66 8 -2 8 C-2 6.02 -2 4.04 -2 2 C-3.65 2.33 -5.3 2.66 -7 3 C-4.49955934 -0.00052879 -4.2621484 0 0 0 Z " fill="#4C2709" transform="translate(408,208)"/>
<path d="M0 0 C0.66 0 1.32 0 2 0 C1.67 2.31 1.34 4.62 1 7 C0.01 7 -0.98 7 -2 7 C-1.34 4.69 -0.68 2.38 0 0 Z " fill="#1C0901" transform="translate(314,197)"/>
<path d="M0 0 C1.32 0 2.64 0 4 0 C4 1.65 4 3.3 4 5 C2.68 5 1.36 5 0 5 C0 3.35 0 1.7 0 0 Z " fill="#F6BF75" transform="translate(392,166)"/>
<path d="M0 0 C1.32 0 2.64 0 4 0 C4 1.65 4 3.3 4 5 C2.68 5 1.36 5 0 5 C0 3.35 0 1.7 0 0 Z " fill="#F9C17C" transform="translate(369,166)"/>
<path d="M0 0 C2.9375 0.375 2.9375 0.375 6 1 C6.33 1.66 6.66 2.32 7 3 C6.34 3.66 5.68 4.32 5 5 C2.5 3.625 2.5 3.625 0 2 C0 1.34 0 0.68 0 0 Z " fill="#EAA962" transform="translate(416,88)"/>
<path d="M0 0 C1.43836751 0.11458693 2.87570966 0.24209116 4.3125 0.375 C5.51326172 0.47941406 5.51326172 0.47941406 6.73828125 0.5859375 C9 1 9 1 12 3 C9.36 3 6.72 3 4 3 C4 2.34 4 1.68 4 1 C2.68 0.67 1.36 0.34 0 0 Z " fill="#E99748" transform="translate(290,277)"/>
<path d="M0 0 C2.05078125 0.03255208 4.1015625 0.06510417 6.15234375 0.09765625 C6.15234375 2.40765625 6.15234375 4.71765625 6.15234375 7.09765625 C5.92546875 6.45828125 5.69859375 5.81890625 5.46484375 5.16015625 C4.31320682 2.84111884 4.31320682 2.84111884 1.65234375 2.41015625 C0.41484375 2.25546875 0.41484375 2.25546875 -0.84765625 2.09765625 C-1.50765625 1.76765625 -2.16765625 1.43765625 -2.84765625 1.09765625 C-1.84765625 0.09765625 -1.84765625 0.09765625 0 0 Z " fill="#CA803E" transform="translate(425.84765625,206.90234375)"/>
<path d="M0 0 C0.33 1.32 0.66 2.64 1 4 C1.66 4.33 2.32 4.66 3 5 C2.67 5.99 2.34 6.98 2 8 C1.34 7.67 0.68 7.34 0 7 C-0.33 7.99 -0.66 8.98 -1 10 C-0.67 6.7 -0.34 3.4 0 0 Z " fill="#E09240" transform="translate(317,196)"/>
<path d="M0 0 C1.98 0.99 1.98 0.99 4 2 C4 2.66 4 3.32 4 4 C5.32 4.66 6.64 5.32 8 6 C7.67 6.66 7.34 7.32 7 8 C4 7 4 7 2.9375 5 C2.628125 4.34 2.31875 3.68 2 3 C1.34 2.67 0.68 2.34 0 2 C0 1.34 0 0.68 0 0 Z " fill="#82B2C9" transform="translate(219,177)"/>
<path d="M0 0 C2.26185454 2.26185454 3.03921617 3.96983561 4 7 C3.67 7.99 3.34 8.98 3 10 C2.34 9.67 1.68 9.34 1 9 C0.5859375 6.93359375 0.5859375 6.93359375 0.375 4.4375 C0.30023438 3.61121094 0.22546875 2.78492187 0.1484375 1.93359375 C0.09945313 1.29550781 0.05046875 0.65742187 0 0 Z " fill="#E9B992" transform="translate(451,125)"/>
<path d="M0 0 C2.97 0 5.94 0 9 0 C8.01 1.485 8.01 1.485 7 3 C4.69 2.67 2.38 2.34 0 2 C0 1.34 0 0.68 0 0 Z " fill="#3691C1" transform="translate(223,274)"/>
<path d="M0 0 C3.91211733 1.15585285 6.8745041 2.35534962 10 5 C6.87709365 4.51421457 4.00419641 4.0013988 1 3 C0.67 2.01 0.34 1.02 0 0 Z " fill="#428CB5" transform="translate(156,267)"/>
<path d="M0 0 C1.65 0 3.3 0 5 0 C5.33 1.65 5.66 3.3 6 5 C2.83884224 3.63016497 2.0072908 3.0109362 0 0 Z " fill="#E9A56C" transform="translate(264,267)"/>
<path d="M0 0 C2.31 0.66 4.62 1.32 7 2 C7.33 3.32 7.66 4.64 8 6 C4.63408134 4.55746343 2.48952921 2.66735273 0 0 Z " fill="#6CA3C5" transform="translate(149,263)"/>
<path d="M0 0 C3.3 0.99 6.6 1.98 10 3 C9.34 3.66 8.68 4.32 8 5 C4.55834679 4.64700993 2.93127462 3.95418308 0 2 C0 1.34 0 0.68 0 0 Z " fill="#E89846" transform="translate(290,252)"/>
<path d="M0 0 C0 3.52809907 -0.64276511 4.46815512 -3 7 C-3.99 7 -4.98 7 -6 7 C-4.77065985 3.31197956 -3.06140622 2.27643027 0 0 Z " fill="#F19D48" transform="translate(357,244)"/>
<path d="M0 0 C1.98 0.99 1.98 0.99 4 2 C4 4.97 4 7.94 4 11 C3.67 11 3.34 11 3 11 C2.67 8.69 2.34 6.38 2 4 C1.01 4.495 1.01 4.495 0 5 C0 3.35 0 1.7 0 0 Z " fill="#6C6869" transform="translate(450,241)"/>
<path d="M0 0 C1.65 0.33 3.3 0.66 5 1 C4.34 2.32 3.68 3.64 3 5 C1.68 4.34 0.36 3.68 -1 3 C-0.67 2.01 -0.34 1.02 0 0 Z " fill="#0C0809" transform="translate(451,238)"/>
<path d="M0 0 C1.0326802 2.78823655 1.04509293 3.8677274 0.0625 6.75 C-0.288125 7.4925 -0.63875 8.235 -1 9 C-1.66 9 -2.32 9 -3 9 C-2.44271087 5.65626525 -1.64826111 2.96687001 0 0 Z " fill="#331605" transform="translate(388,231)"/>
<path d="M0 0 C1.46534385 3.80989402 0.55203911 6.3241179 -1 10 C-1.99 10.495 -1.99 10.495 -3 11 C-2.32829194 7.1936543 -1.27253436 3.64793184 0 0 Z " fill="#552F10" transform="translate(292,202)"/>
<path d="M0 0 C1.32 0.33 2.64 0.66 4 1 C2.02 3.31 0.04 5.62 -2 8 C-2.33 7.34 -2.66 6.68 -3 6 C-2.67 5.01 -2.34 4.02 -2 3 C-1.34 3 -0.68 3 0 3 C0 2.01 0 1.02 0 0 Z " fill="#E1974A" transform="translate(420,207)"/>
<path d="M0 0 C0.99928333 2.698065 1.03624754 3.88010429 0.1875 6.6875 C-1 9 -1 9 -3 10 C-2.39009109 6.44219804 -1.4216319 3.3171411 0 0 Z " fill="#4A270A" transform="translate(296,192)"/>
<path d="M0 0 C1.98 0 3.96 0 6 0 C5 2 5 2 1.9375 3.125 C0.968125 3.41375 -0.00125 3.7025 -1 4 C-0.67 2.68 -0.34 1.36 0 0 Z " fill="#E8994E" transform="translate(369,275)"/>
<path d="M0 0 C3.125 -0.1875 3.125 -0.1875 6 0 C5.01 1.485 5.01 1.485 4 3 C0.875 3.1875 0.875 3.1875 -2 3 C-1.34 2.01 -0.68 1.02 0 0 Z " fill="#D98939" transform="translate(405,249)"/>
<path d="M0 0 C0 0.99 0 1.98 0 3 C0.66 3.33 1.32 3.66 2 4 C1.34 5.32 0.68 6.64 0 8 C0 7.34 0 6.68 0 6 C-0.99 6.33 -1.98 6.66 -3 7 C-1.125 1.125 -1.125 1.125 0 0 Z " fill="#4D2B0A" transform="translate(310,204)"/>
</svg>
