<?xml version="1.0" encoding="UTF-8"?>
<svg version="1.1" xmlns="http://www.w3.org/2000/svg" width="107" height="102">
<path d="M0 0 C4.55555556 0.55555556 4.55555556 0.55555556 6 2 C6.07244053 4.01964199 6.08377188 6.04167124 6.0625 8.0625 C6.05347656 9.16722656 6.04445313 10.27195312 6.03515625 11.41015625 C6.02355469 12.26480469 6.01195313 13.11945312 6 14 C6.69867188 13.98839844 7.39734375 13.97679687 8.1171875 13.96484375 C9.02726562 13.95582031 9.93734375 13.94679688 10.875 13.9375 C12.23238281 13.92009766 12.23238281 13.92009766 13.6171875 13.90234375 C16 14 16 14 18 15 C18.042721 16.66611905 18.04063832 18.33382885 18 20 C17 21 17 21 14.49609375 21.09765625 C13.48675781 21.08605469 12.47742188 21.07445313 11.4375 21.0625 C10.42558594 21.05347656 9.41367187 21.04445313 8.37109375 21.03515625 C7.19740234 21.01775391 7.19740234 21.01775391 6 21 C6.01160156 21.77085938 6.02320312 22.54171875 6.03515625 23.3359375 C6.04417969 24.33882812 6.05320312 25.34171875 6.0625 26.375 C6.07410156 27.37273438 6.08570312 28.37046875 6.09765625 29.3984375 C6 32 6 32 5 34 C0.52459016 35.26229508 0.52459016 35.26229508 -2 34 C-2 30.04 -2 26.08 -2 22 C-4.660625 22.0928125 -4.660625 22.0928125 -7.375 22.1875 C-10.3984375 22.29296875 -10.3984375 22.29296875 -13 22 C-13.66 21.01 -14.32 20.02 -15 19 C-14.67 17.35 -14.34 15.7 -14 14 C-8.555 13.505 -8.555 13.505 -3 13 C-2.87625 11.22625 -2.7525 9.4525 -2.625 7.625 C-2.25 2.25 -2.25 2.25 0 0 Z " fill="#D8783C" transform="translate(52,31)"/>
<path d="M0 0 C2.5 0.125 2.5 0.125 3.5 1.125 C3.57205511 2.81108966 3.58386068 4.50000659 3.5625 6.1875 C3.55347656 7.10660156 3.54445313 8.02570312 3.53515625 8.97265625 C3.52355469 9.68292969 3.51195313 10.39320312 3.5 11.125 C4.593125 11.08375 5.68625 11.0425 6.8125 11 C10.5 11.125 10.5 11.125 13.5 13.125 C13.5 14.445 13.5 15.765 13.5 17.125 C10.28548731 18.73225635 7.06387464 18.18248185 3.5 18.125 C3.51160156 18.83527344 3.52320312 19.54554687 3.53515625 20.27734375 C3.54417969 21.19644531 3.55320312 22.11554687 3.5625 23.0625 C3.57410156 23.97902344 3.58570312 24.89554688 3.59765625 25.83984375 C3.5 28.125 3.5 28.125 2.5 29.125 C0.83382885 29.16563832 -0.83388095 29.167721 -2.5 29.125 C-4.82590854 25.49076791 -4.66265833 22.35411669 -4.5 18.125 C-7.8 18.125 -11.1 18.125 -14.5 18.125 C-14.83 16.805 -15.16 15.485 -15.5 14.125 C-12.78817788 11.52165076 -11.60866187 11.13043309 -7.75 10.9375 C-6.6775 10.999375 -5.605 11.06125 -4.5 11.125 C-4.43941406 10.41472656 -4.37882812 9.70445313 -4.31640625 8.97265625 C-4.23261719 8.05355469 -4.14882813 7.13445313 -4.0625 6.1875 C-3.98128906 5.27097656 -3.90007813 4.35445312 -3.81640625 3.41015625 C-3.37541715 0.22523499 -3.24219597 0.1621098 0 0 Z " fill="#D9A96A" transform="translate(31.5,12.875)"/>
<path d="M0 0 C1.8335687 2.45864895 1.68060853 3.99979762 1.5625 7.03125 C1.53542969 7.93230469 1.50835937 8.83335938 1.48046875 9.76171875 C1.44566406 10.44878906 1.41085938 11.13585937 1.375 11.84375 C2.2825 11.658125 3.19 11.4725 4.125 11.28125 C7.05814324 10.88640379 8.6394657 10.89683428 11.375 11.84375 C12 13.71875 12 13.71875 12.375 15.84375 C10.375 17.84375 10.375 17.84375 8.2109375 18.0390625 C7.39882813 18.01585938 6.58671875 17.99265625 5.75 17.96875 C4.93273437 17.95070313 4.11546875 17.93265625 3.2734375 17.9140625 C2.64695312 17.89085938 2.02046875 17.86765625 1.375 17.84375 C1.38660156 18.55402344 1.39820312 19.26429687 1.41015625 19.99609375 C1.41917969 20.91519531 1.42820312 21.83429688 1.4375 22.78125 C1.44910156 23.69777344 1.46070312 24.61429688 1.47265625 25.55859375 C1.375 27.84375 1.375 27.84375 0.375 28.84375 C-2.125 28.96875 -2.125 28.96875 -4.625 28.84375 C-5.625 27.84375 -5.625 27.84375 -5.72265625 25.33984375 C-5.71105469 24.33050781 -5.69945312 23.32117188 -5.6875 22.28125 C-5.67847656 21.26933594 -5.66945313 20.25742188 -5.66015625 19.21484375 C-5.64855469 18.43238281 -5.63695312 17.64992188 -5.625 16.84375 C-7.61067708 17.13671875 -9.59635417 17.4296875 -11.58203125 17.72265625 C-13.625 17.84375 -13.625 17.84375 -16.625 16.84375 C-17.4375 14.90625 -17.4375 14.90625 -17.625 12.84375 C-15.625 10.84375 -15.625 10.84375 -13.6796875 10.6484375 C-11.66145833 10.71354167 -9.64322917 10.77864583 -7.625 10.84375 C-6.78313297 8.31814892 -6.36248686 6.27042123 -6.0625 3.65625 C-5.8459375 1.7690625 -5.8459375 1.7690625 -5.625 -0.15625 C-2.09916413 -1.49363602 -2.09916413 -1.49363602 0 0 Z " fill="#AA3346" transform="translate(33.625,55.15625)"/>
<path d="M0 0 C1.67542976 0.28604898 3.34385343 0.61781233 5 1 C5.72795155 5.20594226 6.04973814 7.80104745 5 12 C8.3 11.67 11.6 11.34 15 11 C15.99 12.485 15.99 12.485 17 14 C16.67 14.99 16.34 15.98 16 17 C12.7 17 9.4 17 6 17 C6.01160156 17.78246094 6.02320312 18.56492187 6.03515625 19.37109375 C6.04417969 20.38300781 6.05320312 21.39492187 6.0625 22.4375 C6.07410156 23.44683594 6.08570312 24.45617187 6.09765625 25.49609375 C6 28 6 28 5 29 C2.5 29.125 2.5 29.125 0 29 C-1 28 -1 28 -1.09765625 25.49609375 C-1.08605469 24.48675781 -1.07445313 23.47742188 -1.0625 22.4375 C-1.05347656 21.42558594 -1.04445313 20.41367188 -1.03515625 19.37109375 C-1.02355469 18.58863281 -1.01195313 17.80617188 -1 17 C-1.75667969 17.18433594 -2.51335937 17.36867188 -3.29296875 17.55859375 C-6.70094439 18.11429541 -8.82975764 17.25335163 -12 16 C-11.625 14.0625 -11.625 14.0625 -11 12 C-7.7169902 10.3584951 -4.57454967 11.48111376 -1 12 C-1.01160156 11.21753906 -1.02320312 10.43507813 -1.03515625 9.62890625 C-1.04417969 8.61699219 -1.05320312 7.60507812 -1.0625 6.5625 C-1.07410156 5.55316406 -1.08570312 4.54382812 -1.09765625 3.50390625 C-1 1 -1 1 0 0 Z " fill="#223D5D" transform="translate(74,55)"/>
<path d="M0 0 C2.5 0.125 2.5 0.125 3.5 1.125 C3.57226502 2.97787502 3.5838122 4.83333878 3.5625 6.6875 C3.55347656 7.69941406 3.54445313 8.71132813 3.53515625 9.75390625 C3.52355469 10.53636719 3.51195313 11.31882812 3.5 12.125 C6.8 12.125 10.1 12.125 13.5 12.125 C13.5 13.775 13.5 15.425 13.5 17.125 C9.48195309 17.96598656 6.48196457 18.17904945 2.5 17.125 C2.685625 18.3625 2.87125 19.6 3.0625 20.875 C3.44711223 23.88779577 3.5874594 26.22510827 2.5 29.125 C0.83388095 29.167721 -0.83382885 29.16563832 -2.5 29.125 C-3.5 28.125 -3.5 28.125 -3.59765625 25.83984375 C-3.58605469 24.92332031 -3.57445313 24.00679687 -3.5625 23.0625 C-3.55347656 22.14339844 -3.54445313 21.22429688 -3.53515625 20.27734375 C-3.52355469 19.56707031 -3.51195313 18.85679688 -3.5 18.125 C-4.77875 18.145625 -6.0575 18.16625 -7.375 18.1875 C-11.25 18.25 -11.25 18.25 -13.5 17.125 C-14.1875 15.125 -14.1875 15.125 -14.5 13.125 C-13.5 12.125 -13.5 12.125 -11.21484375 12.02734375 C-9.84005859 12.04474609 -9.84005859 12.04474609 -8.4375 12.0625 C-7.51839844 12.07152344 -6.59929687 12.08054687 -5.65234375 12.08984375 C-4.94207031 12.10144531 -4.23179688 12.11304688 -3.5 12.125 C-3.51160156 11.34253906 -3.52320312 10.56007813 -3.53515625 9.75390625 C-3.54417969 8.74199219 -3.55320312 7.73007812 -3.5625 6.6875 C-3.57410156 5.67816406 -3.58570312 4.66882813 -3.59765625 3.62890625 C-3.46606923 0.25501505 -3.37011816 0.16850591 0 0 Z " fill="#55757D" transform="translate(76.5,12.875)"/>
<path d="M0 0 C1.67542976 0.28604898 3.34385343 0.61781233 5 1 C5 3.31 5 5.62 5 8 C7.31 8 9.62 8 12 8 C11.67 9.65 11.34 11.3 11 13 C10.195625 12.979375 9.39125 12.95875 8.5625 12.9375 C6.06645115 12.70366379 6.06645115 12.70366379 5 14 C5 14.99 5 15.98 5 17 C5 17.99 5 18.98 5 20 C4 21 4 21 1.4375 21.0625 C0.633125 21.041875 -0.17125 21.02125 -1 21 C-1.33 18.36 -1.66 15.72 -2 13 C-3.175625 13.0928125 -3.175625 13.0928125 -4.375 13.1875 C-5.674375 13.0946875 -5.674375 13.0946875 -7 13 C-7.66 12.01 -8.32 11.02 -9 10 C-8.67 9.34 -8.34 8.68 -8 8 C-5.69 8 -3.38 8 -1 8 C-1.020625 6.865625 -1.04125 5.73125 -1.0625 4.5625 C-1 1 -1 1 0 0 Z " fill="#414D67" transform="translate(52,72)"/>
<path d="M0 0 C2.0625 0.4375 2.0625 0.4375 4 1 C4.33 3.31 4.66 5.62 5 8 C7.31 8.33 9.62 8.66 12 9 C11.67 10.32 11.34 11.64 11 13 C8.69 13 6.38 13 4 13 C4.20625 13.556875 4.4125 14.11375 4.625 14.6875 C5.10695211 17.659538 4.26565028 19.31979941 3 22 C0.525 21.01 0.525 21.01 -2 20 C-1.67 17.69 -1.34 15.38 -1 13 C-1.5775 13.20625 -2.155 13.4125 -2.75 13.625 C-5.51967567 14.08661261 -6.64561267 13.42944945 -9 12 C-8.67 10.68 -8.34 9.36 -8 8 C-6.02 8 -4.04 8 -2 8 C-1.855625 6.865625 -1.71125 5.73125 -1.5625 4.5625 C-1 1 -1 1 0 0 Z " fill="#4D5365" transform="translate(87,38)"/>
<path d="M0 0 C4.55555556 0.55555556 4.55555556 0.55555556 6 2 C6.07244053 4.01964199 6.08377188 6.04167124 6.0625 8.0625 C6.05347656 9.16722656 6.04445313 10.27195312 6.03515625 11.41015625 C6.02355469 12.26480469 6.01195313 13.11945312 6 14 C6.69867188 13.98839844 7.39734375 13.97679687 8.1171875 13.96484375 C9.02726562 13.95582031 9.93734375 13.94679688 10.875 13.9375 C12.23238281 13.92009766 12.23238281 13.92009766 13.6171875 13.90234375 C16 14 16 14 18 15 C18 16.65 18 18.3 18 20 C16.68 20.33 15.36 20.66 14 21 C14.33 19.35 14.66 17.7 15 16 C11.04 16 7.08 16 3 16 C3 11.71 3 7.42 3 3 C2.01 3 1.02 3 0 3 C0 7.29 0 11.58 0 16 C-3.96 16 -7.92 16 -12 16 C-12 17.65 -12 19.3 -12 21 C-8.37 21 -4.74 21 -1 21 C-1 24.3 -1 27.6 -1 31 C-1.33 31 -1.66 31 -2 31 C-2 28.03 -2 25.06 -2 22 C-3.15628906 22.05220703 -3.15628906 22.05220703 -4.3359375 22.10546875 C-5.33882812 22.13253906 -6.34171875 22.15960938 -7.375 22.1875 C-8.87160156 22.23970703 -8.87160156 22.23970703 -10.3984375 22.29296875 C-11.25695313 22.19628906 -12.11546875 22.09960938 -13 22 C-13.66 21.01 -14.32 20.02 -15 19 C-14.67 17.35 -14.34 15.7 -14 14 C-8.555 13.505 -8.555 13.505 -3 13 C-2.87625 11.22625 -2.7525 9.4525 -2.625 7.625 C-2.25 2.25 -2.25 2.25 0 0 Z " fill="#D79165" transform="translate(52,31)"/>
<path d="M0 0 C1.32 0.33 2.64 0.66 4 1 C4 3.31 4 5.62 4 8 C6.31 8 8.62 8 11 8 C10.67 9.32 10.34 10.64 10 12 C8.02 12 6.04 12 4 12 C4 14.31 4 16.62 4 19 C2.0625 19.5625 2.0625 19.5625 0 20 C-1 19 -1 19 -1.0625 15.4375 C-1.041875 14.303125 -1.02125 13.16875 -1 12 C-3.31 12 -5.62 12 -8 12 C-8 10.68 -8 9.36 -8 8 C-6.02 7.67 -4.04 7.34 -2 7 C-1.34 4.69 -0.68 2.38 0 0 Z " fill="#67858B" transform="translate(17,39)"/>
<path d="M0 0 C1.32 0 2.64 0 4 0 C4 2.31 4 4.62 4 7 C6.31 7.66 8.62 8.32 11 9 C11 9.99 11 10.98 11 12 C8.69 12 6.38 12 4 12 C4.33 12.99 4.66 13.98 5 15 C4.5625 17.6875 4.5625 17.6875 4 20 C2.35 19.67 0.7 19.34 -1 19 C-1 17.02 -1 15.04 -1 13 C-3.31 12.34 -5.62 11.68 -8 11 C-7.67 10.01 -7.34 9.02 -7 8 C-5.02 7.67 -3.04 7.34 -1 7 C-0.67 4.69 -0.34 2.38 0 0 Z " fill="#59717E" transform="translate(52,5)"/>
<path d="M0 0 C2.5 0.125 2.5 0.125 3.5 1.125 C3.73363881 2.97391946 3.91303635 4.82988031 4.0625 6.6875 C4.14628906 7.69941406 4.23007813 8.71132813 4.31640625 9.75390625 C4.37699219 10.53636719 4.43757813 11.31882812 4.5 12.125 C6.975 13.115 6.975 13.115 9.5 14.125 C6.41190305 15.88962683 5.26687864 16.125 1.5 16.125 C1.5 16.785 1.5 17.445 1.5 18.125 C0.84 18.125 0.18 18.125 -0.5 18.125 C-0.5 17.465 -0.5 16.805 -0.5 16.125 C-3.14 16.125 -5.78 16.125 -8.5 16.125 C-7.53126953 15.83302734 -7.53126953 15.83302734 -6.54296875 15.53515625 C-4.15819283 14.24182234 -4.15819283 14.24182234 -3.92578125 11.12109375 C-3.88839844 9.94675781 -3.85101563 8.77242187 -3.8125 7.5625 C-3.52935528 0.17646776 -3.52935528 0.17646776 0 0 Z " fill="#5C7D92" transform="translate(76.5,12.875)"/>
<path d="M0 0 C0.33 1.32 0.66 2.64 1 4 C4.3 4 7.6 4 11 4 C11.66 5.98 12.32 7.96 13 10 C13.66 8.02 14.32 6.04 15 4 C15.99 4 16.98 4 18 4 C17.85966889 5.97956441 17.7125877 7.95865141 17.5625 9.9375 C17.48128906 11.03964844 17.40007813 12.14179687 17.31640625 13.27734375 C17 16 17 16 16 17 C14.33382885 17.04063832 12.66611905 17.042721 11 17 C8.67409146 13.36576791 8.83734167 10.22911669 9 6 C5.7 6 2.4 6 -1 6 C-1.33 4.68 -1.66 3.36 -2 2 C-1.34 1.34 -0.68 0.68 0 0 Z " fill="#CDA070" transform="translate(18,25)"/>
<path d="M0 0 C0.928125 0.2784375 0.928125 0.2784375 1.875 0.5625 C4.04160178 1.23686176 4.04160178 1.23686176 6 0 C7.87379605 -0.07033769 9.75001102 -0.0843022 11.625 -0.0625 C13.12933594 -0.04896484 13.12933594 -0.04896484 14.6640625 -0.03515625 C15.43492188 -0.02355469 16.20578125 -0.01195312 17 0 C17 0.33 17 0.66 17 1 C14.36 1 11.72 1 9 1 C9.01160156 1.77085938 9.02320313 2.54171875 9.03515625 3.3359375 C9.04869141 4.84027344 9.04869141 4.84027344 9.0625 6.375 C9.07410156 7.37273438 9.08570313 8.37046875 9.09765625 9.3984375 C9 12 9 12 8 14 C3.52459016 15.26229508 3.52459016 15.26229508 1 14 C1.33 9.71 1.66 5.42 2 1 C1.34 0.67 0.68 0.34 0 0 Z " fill="#CC7947" transform="translate(49,51)"/>
<path d="M0 0 C2.0625 0.4375 2.0625 0.4375 4 1 C4.33 3.31 4.66 5.62 5 8 C5.99 8 6.98 8 8 8 C8.33 9.32 8.66 10.64 9 12 C7.35 12 5.7 12 4 12 C3.67 12.66 3.34 13.32 3 14 C2.01 14 1.02 14 0 14 C0 13.34 0 12.68 0 12 C-1.32 11.67 -2.64 11.34 -4 11 C-4 10.34 -4 9.68 -4 9 C-3.34 8.67 -2.68 8.34 -2 8 C-1.62599214 5.67284 -1.29235267 3.33882138 -1 1 C-0.67 0.67 -0.34 0.34 0 0 Z " fill="#585F7F" transform="translate(87,38)"/>
<path d="M0 0 C1.84378639 2.44967653 1.68444055 3.98998411 1.56640625 7.01953125 C1.53933594 7.92058594 1.51226562 8.82164063 1.484375 9.75 C1.44957031 10.43707031 1.41476563 11.12414062 1.37890625 11.83203125 C3.35890625 11.50203125 5.33890625 11.17203125 7.37890625 10.83203125 C7.70890625 11.49203125 8.03890625 12.15203125 8.37890625 12.83203125 C5.40890625 12.83203125 2.43890625 12.83203125 -0.62109375 12.83203125 C-0.62109375 9.20203125 -0.62109375 5.57203125 -0.62109375 1.83203125 C-1.61109375 1.83203125 -2.60109375 1.83203125 -3.62109375 1.83203125 C-3.62109375 5.46203125 -3.62109375 9.09203125 -3.62109375 12.83203125 C-4.61109375 12.83203125 -5.60109375 12.83203125 -6.62109375 12.83203125 C-6.64817942 11.22795797 -6.66752858 9.62375275 -6.68359375 8.01953125 C-6.69519531 7.12621094 -6.70679687 6.23289062 -6.71875 5.3125 C-6.62109375 2.83203125 -6.62109375 2.83203125 -5.62109375 -0.16796875 C-3.18236428 -1.3060425 -2.23140228 -1.60768501 0 0 Z " fill="#B25F68" transform="translate(33.62109375,55.16796875)"/>
<path d="M0 0 C1.67542976 0.28604898 3.34385343 0.61781233 5 1 C5 2.98 5 4.96 5 7 C4.01 7.495 4.01 7.495 3 8 C3 7.34 3 6.68 3 6 C2.34 6 1.68 6 1 6 C-0.20628008 8.33214148 -1.1654738 10.49642139 -2 13 C-4.375 13.1875 -4.375 13.1875 -7 13 C-7.66 12.01 -8.32 11.02 -9 10 C-8.67 9.34 -8.34 8.68 -8 8 C-5.69 8 -3.38 8 -1 8 C-1.020625 6.865625 -1.04125 5.73125 -1.0625 4.5625 C-1 1 -1 1 0 0 Z " fill="#3C4251" transform="translate(52,72)"/>
<path d="M0 0 C0 0.66 0 1.32 0 2 C-2.64 2.33 -5.28 2.66 -8 3 C-8.33 4.98 -8.66 6.96 -9 9 C-9.66 8.67 -10.32 8.34 -11 8 C-11.625 5.4375 -11.625 5.4375 -12 3 C-16.455 2.01 -16.455 2.01 -21 1 C-21 0.67 -21 0.34 -21 0 C-5.46875 -1.75 -5.46875 -1.75 0 0 Z " fill="#CE9549" transform="translate(41,27)"/>
<path d="M0 0 C0.33 1.32 0.66 2.64 1 4 C1.71027344 3.98839844 2.42054687 3.97679687 3.15234375 3.96484375 C4.07144531 3.95582031 4.99054687 3.94679688 5.9375 3.9375 C6.85402344 3.92589844 7.77054688 3.91429687 8.71484375 3.90234375 C11 4 11 4 12 5 C12.07179964 6.51928038 12.08392007 8.04167482 12.0625 9.5625 C12.05347656 10.38878906 12.04445313 11.21507812 12.03515625 12.06640625 C12.02355469 12.70449219 12.01195312 13.34257813 12 14 C11.01 13.67 10.02 13.34 9 13 C9 10.69 9 8.38 9 6 C5.7 6 2.4 6 -1 6 C-1.33 4.68 -1.66 3.36 -2 2 C-1.34 1.34 -0.68 0.68 0 0 Z " fill="#EBB88B" transform="translate(18,25)"/>
<path d="M0 0 C0.33 0.99 0.66 1.98 1 3 C-1.31 3 -3.62 3 -6 3 C-5.67 3.99 -5.34 4.98 -5 6 C-5.4375 8.6875 -5.4375 8.6875 -6 11 C-7.65 10.67 -9.3 10.34 -11 10 C-11 8.02 -11 6.04 -11 4 C-12.32 3.34 -13.64 2.68 -15 2 C-14.00097656 1.93941406 -13.00195312 1.87882813 -11.97265625 1.81640625 C-10.68230469 1.73261719 -9.39195313 1.64882812 -8.0625 1.5625 C-6.77472656 1.48128906 -5.48695312 1.40007813 -4.16015625 1.31640625 C-1.13976043 1.35080812 -1.13976043 1.35080812 0 0 Z " fill="#4F6B71" transform="translate(62,14)"/>
<path d="M0 0 C0.33 0.99 0.66 1.98 1 3 C3.31 3 5.62 3 8 3 C7.67 4.32 7.34 5.64 7 7 C5.02 7 3.04 7 1 7 C1 9.31 1 11.62 1 14 C-0.9375 14.5625 -0.9375 14.5625 -3 15 C-4 14 -4 14 -4.0625 10.9375 C-4.041875 9.968125 -4.02125 8.99875 -4 8 C-3.67 9.32 -3.34 10.64 -3 12 C-2.01 12 -1.02 12 0 12 C0 8.04 0 4.08 0 0 Z " fill="#62797C" transform="translate(20,44)"/>
<path d="M0 0 C2.97 0 5.94 0 9 0 C9 1.65 9 3.3 9 5 C4.98195309 5.84098656 1.98196457 6.05404945 -2 5 C-2 6.98 -2 8.96 -2 11 C-3.0625 9.1875 -3.0625 9.1875 -4 7 C-3.67 6.01 -3.34 5.02 -3 4 C-1.02 3.67 0.96 3.34 3 3 C2.01 2.01 1.02 1.02 0 0 Z " fill="#4C6069" transform="translate(81,25)"/>
<path d="M0 0 C1.485 0.99 1.485 0.99 3 2 C3 2.99 3 3.98 3 5 C2.67 5.33 2.34 5.66 2 6 C3.65 6.33 5.3 6.66 7 7 C6.67 8.65 6.34 10.3 6 12 C4.33388095 12.042721 2.66617115 12.04063832 1 12 C0 11 0 11 -0.09765625 8.49609375 C-0.08605469 7.48675781 -0.07445313 6.47742188 -0.0625 5.4375 C-0.05347656 4.42558594 -0.04445313 3.41367188 -0.03515625 2.37109375 C-0.02355469 1.58863281 -0.01195313 0.80617188 0 0 Z " fill="#1E334D" transform="translate(73,72)"/>
<path d="M0 0 C0.66 0 1.32 0 2 0 C2.625 1.875 2.625 1.875 3 4 C1 6 1 6 -1.1640625 6.1953125 C-2.38222656 6.16050781 -2.38222656 6.16050781 -3.625 6.125 C-4.44226562 6.10695313 -5.25953125 6.08890625 -6.1015625 6.0703125 C-6.72804688 6.04710938 -7.35453125 6.02390625 -8 6 C-8 8.64 -8 11.28 -8 14 C-8.66 14 -9.32 14 -10 14 C-11.125 7.375 -11.125 7.375 -10 4 C-6.7 3.67 -3.4 3.34 0 3 C0 2.01 0 1.02 0 0 Z " fill="#BB5568" transform="translate(43,67)"/>
<path d="M0 0 C2.5 0.125 2.5 0.125 3.5 1.125 C3.57205511 2.81108966 3.58386068 4.50000659 3.5625 6.1875 C3.55347656 7.10660156 3.54445313 8.02570312 3.53515625 8.97265625 C3.52355469 9.68292969 3.51195313 10.39320312 3.5 11.125 C1.54783565 9.17283565 0.65173355 7.59300047 -0.5 5.125 C-1.49 5.785 -2.48 6.445 -3.5 7.125 C-3.54254356 5.12545254 -3.54080783 3.12458364 -3.5 1.125 C-2.5 0.125 -2.5 0.125 0 0 Z " fill="#546872" transform="translate(76.5,12.875)"/>
<path d="M0 0 C2.30142435 1.78174788 3.80034391 3.16304165 4.48828125 6.046875 C4.72323102 8.0246611 4.86751458 10.01271872 5 12 C3.35 12.33 1.7 12.66 0 13 C0.66 12.01 1.32 11.02 2 10 C1.484375 9.46375 0.96875 8.9275 0.4375 8.375 C-1 6 -1 6 -0.6875 2.75 C-0.460625 1.8425 -0.23375 0.935 0 0 Z " fill="#26456F" transform="translate(74,66)"/>
<path d="M0 0 C2.0625 0.4375 2.0625 0.4375 4 1 C4 3.31 4 5.62 4 8 C2.02 8.33 0.04 8.66 -2 9 C-1.125 1.125 -1.125 1.125 0 0 Z " fill="#505764" transform="translate(87,38)"/>
<path d="M0 0 C2.51083114 1.25541557 2.87125446 2.50063488 4 5 C4.66 4.34 5.32 3.68 6 3 C6.04254356 4.99954746 6.04080783 7.00041636 6 9 C5.67 9.33 5.34 9.66 5 10 C3.35 10 1.7 10 0 10 C0 6.7 0 3.4 0 0 Z " fill="#434B5A" transform="translate(51,83)"/>
<path d="M0 0 C1.67542976 0.28604898 3.34385343 0.61781233 5 1 C4.67 3.64 4.34 6.28 4 9 C3.67 9 3.34 9 3 9 C3 7.35 3 5.7 3 4 C2.34 4 1.68 4 1 4 C1 5.98 1 7.96 1 10 C0.34 9.67 -0.32 9.34 -1 9 C-1.09765625 2.84765625 -1.09765625 2.84765625 -1 1 C-0.67 0.67 -0.34 0.34 0 0 Z " fill="#2E4258" transform="translate(74,55)"/>
<path d="M0 0 C2.24606427 1.77444972 2.95081002 2.58352485 3.29296875 5.48046875 C3.25816406 6.37378906 3.22335938 7.26710938 3.1875 8.1875 C3.16042969 9.08855469 3.13335937 9.98960938 3.10546875 10.91796875 C3.07066406 11.60503906 3.03585938 12.29210937 3 13 C4.98 12.67 6.96 12.34 9 12 C9.33 12.66 9.66 13.32 10 14 C7.03 14 4.06 14 1 14 C0.83165067 12.22932584 0.66538091 10.45845388 0.5 8.6875 C0.4071875 7.70136719 0.314375 6.71523438 0.21875 5.69921875 C0 3 0 3 0 0 Z " fill="#B56570" transform="translate(32,54)"/>
<path d="M0 0 C3.63 0 7.26 0 11 0 C9.515 1.485 9.515 1.485 8 3 C6.68 3 5.36 3 4 3 C5.32 3.66 6.64 4.32 8 5 C5.36 5 2.72 5 0 5 C0 3.35 0 1.7 0 0 Z " fill="#D17D48" transform="translate(40,47)"/>
<path d="M0 0 C2.31 0.33 4.62 0.66 7 1 C7.33 2.65 7.66 4.3 8 6 C5.04335481 7.4783226 2.25770263 7.06032783 -1 7 C-1 6.34 -1 5.68 -1 5 C0.65 5 2.3 5 4 5 C4 3.68 4 2.36 4 1 C2.68 0.67 1.36 0.34 0 0 Z " fill="#BFA66F" transform="translate(37,24)"/>
<path d="M0 0 C3.625 0.375 3.625 0.375 7 1 C7 1.66 7 2.32 7 3 C6.01 3 5.02 3 4 3 C4 3.99 4 4.98 4 6 C2.35 6 0.7 6 -1 6 C-1.625 4.125 -1.625 4.125 -2 2 C-1.34 1.34 -0.68 0.68 0 0 Z " fill="#253C4F" transform="translate(64,66)"/>
<path d="M0 0 C1.50433594 0.01353516 1.50433594 0.01353516 3.0390625 0.02734375 C3.80992188 0.03894531 4.58078125 0.05054688 5.375 0.0625 C5.375 0.3925 5.375 0.7225 5.375 1.0625 C2.735 1.0625 0.095 1.0625 -2.625 1.0625 C-2.604375 2.01125 -2.58375 2.96 -2.5625 3.9375 C-2.625 7.0625 -2.625 7.0625 -3.625 9.0625 C-4.285 9.0625 -4.945 9.0625 -5.625 9.0625 C-6.75 5.3125 -6.75 5.3125 -5.625 3.0625 C-6.285 2.4025 -6.945 1.7425 -7.625 1.0625 C-4.98041621 -0.25979189 -2.94738699 -0.03427194 0 0 Z " fill="#DD8653" transform="translate(60.625,50.9375)"/>
<path d="M0 0 C0.99 0 1.98 0 3 0 C3 3.3 3 6.6 3 10 C2.34 10 1.68 10 1 10 C0.67 10.99 0.34 11.98 0 13 C0 8.71 0 4.42 0 0 Z " fill="#CC7D46" transform="translate(52,34)"/>
<path d="M0 0 C0.33 0 0.66 0 1 0 C1.061875 0.94875 1.12375 1.8975 1.1875 2.875 C1.455625 3.90625 1.72375 4.9375 2 6 C4.46255685 7.45291273 4.46255685 7.45291273 7 8 C6.67 8.99 6.34 9.98 6 11 C4.33388095 11.042721 2.66617115 11.04063832 1 11 C0 10 0 10 -0.09765625 7.71484375 C-0.08605469 6.79832031 -0.07445313 5.88179688 -0.0625 4.9375 C-0.05347656 4.01839844 -0.04445313 3.09929687 -0.03515625 2.15234375 C-0.02355469 1.44207031 -0.01195313 0.73179688 0 0 Z " fill="#893441" transform="translate(28,73)"/>
<path d="M0 0 C0.66 0 1.32 0 2 0 C2.36 5.4 2.36 5.4 0.875 7.875 C-1.78034983 9.4682099 -3.96789518 9.20214032 -7 9 C-7.33 8.34 -7.66 7.68 -8 7 C-5.69 7 -3.38 7 -1 7 C-0.67 4.69 -0.34 2.38 0 0 Z " fill="#E2B07A" transform="translate(28,17)"/>
<path d="M0 0 C6.75 -0.125 6.75 -0.125 9 1 C9 2.65 9 4.3 9 6 C7.68 6.33 6.36 6.66 5 7 C5.33 5.35 5.66 3.7 6 2 C4.02 2 2.04 2 0 2 C0 1.34 0 0.68 0 0 Z " fill="#C4936C" transform="translate(61,45)"/>
<path d="M0 0 C0.33 0.99 0.66 1.98 1 3 C1.66 3.66 2.32 4.32 3 5 C0.03 5 -2.94 5 -6 5 C-6 3.68 -6 2.36 -6 1 C-4 0 -4 0 0 0 Z " fill="#596B71" transform="translate(15,46)"/>
<path d="M0 0 C0.33 0 0.66 0 1 0 C0.67 2.31 0.34 4.62 0 7 C-4.75 8.125 -4.75 8.125 -7 7 C-7 6.01 -7 5.02 -7 4 C-4.525 4.495 -4.525 4.495 -2 5 C-2 4.01 -2 3.02 -2 2 C-1.34 2 -0.68 2 0 2 C0 1.34 0 0.68 0 0 Z " fill="#BB7C5D" transform="translate(57,58)"/>
<path d="M0 0 C0.99 0 1.98 0 3 0 C3 2.97 3 5.94 3 9 C2.01 9 1.02 9 0 9 C0 6.03 0 3.06 0 0 Z " fill="#9B3440" transform="translate(30,57)"/>
<path d="M0 0 C-0.33 0.99 -0.66 1.98 -1 3 C-3.31 3 -5.62 3 -8 3 C-8.33 2.01 -8.66 1.02 -9 0 C-2.25 -1.125 -2.25 -1.125 0 0 Z " fill="#97303E" transform="translate(44,68)"/>
<path d="M0 0 C2.31 0 4.62 0 7 0 C6.67 1.65 6.34 3.3 6 5 C4.125 4.75 4.125 4.75 2 4 C0.75 1.9375 0.75 1.9375 0 0 Z " fill="#353951" transform="translate(57,80)"/>
<path d="M0 0 C0.66 0 1.32 0 2 0 C2 1.32 2 2.64 2 4 C2.99 3.01 3.98 2.02 5 1 C5.66 1.33 6.32 1.66 7 2 C6.34 3.65 5.68 5.3 5 7 C2.525 6.01 2.525 6.01 0 5 C0 3.35 0 1.7 0 0 Z " fill="#3E4756" transform="translate(85,53)"/>
<path d="M0 0 C2.97 0 5.94 0 9 0 C9 1.32 9 2.64 9 4 C6.75 4.25 6.75 4.25 4 4 C1.6875 2 1.6875 2 0 0 Z " fill="#556A74" transform="translate(81,25)"/>
<path d="M0 0 C0.33 0.515625 0.66 1.03125 1 1.5625 C0.67 2.5525 0.34 3.5425 0 4.5625 C-0.99 4.2325 -1.98 3.9025 -3 3.5625 C-3 2.9025 -3 2.2425 -3 1.5625 C-3.99 1.8925 -4.98 2.2225 -6 2.5625 C-6 1.9025 -6 1.2425 -6 0.5625 C-7.32 0.2325 -8.64 -0.0975 -10 -0.4375 C-2.49230769 -1.79134615 -2.49230769 -1.79134615 0 0 Z " fill="#23364B" transform="translate(90,67.4375)"/>
<path d="M0 0 C3.3 0 6.6 0 10 0 C10 0.33 10 0.66 10 1 C8.329375 1.12375 8.329375 1.12375 6.625 1.25 C2.94246056 1.57873787 2.94246056 1.57873787 1.5625 4.0625 C1.376875 4.701875 1.19125 5.34125 1 6 C0.34 5.67 -0.32 5.34 -1 5 C-0.67 3.35 -0.34 1.7 0 0 Z " fill="#CDA085" transform="translate(38,45)"/>
<path d="M0 0 C0.33 0 0.66 0 1 0 C1 2.97 1 5.94 1 9 C-2.63 9 -6.26 9 -10 9 C-10 8.67 -10 8.34 -10 8 C-8.906875 7.855625 -7.81375 7.71125 -6.6875 7.5625 C-3.06877013 7.11711896 -3.06877013 7.11711896 0 6 C0 4.02 0 2.04 0 0 Z " fill="#E6945F" transform="translate(51,38)"/>
<path d="M0 0 C0.99 0 1.98 0 3 0 C2.67 3.63 2.34 7.26 2 11 C1.34 11 0.68 11 0 11 C0 7.37 0 3.74 0 0 Z " fill="#EBC289" transform="translate(33,29)"/>
<path d="M0 0 C1.98 0 3.96 0 6 0 C5.67 1.32 5.34 2.64 5 4 C3.35 4 1.7 4 0 4 C0 2.68 0 1.36 0 0 Z " fill="#5A6469" transform="translate(22,47)"/>
<path d="M0 0 C0.99 0 1.98 0 3 0 C2.25 4.75 2.25 4.75 0 7 C-0.66 6.67 -1.32 6.34 -2 6 C-1.125 1.125 -1.125 1.125 0 0 Z " fill="#5F8286" transform="translate(75,17)"/>
<path d="M0 0 C1.32 0 2.64 0 4 0 C4 1.98 4 3.96 4 6 C2.68 6 1.36 6 0 6 C0 4.02 0 2.04 0 0 Z " fill="#5A6F6D" transform="translate(52,5)"/>
<path d="M0 0 C0.66 0 1.32 0 2 0 C2.625 1.875 2.625 1.875 3 4 C1 6 1 6 -2.625 6.125 C-3.73875 6.08375 -4.8525 6.0425 -6 6 C-6 5.34 -6 4.68 -6 4 C-4.02 3.67 -2.04 3.34 0 3 C0 2.01 0 1.02 0 0 Z " fill="#96555F" transform="translate(43,67)"/>
<path d="M0 0 C0.33 0.66 0.66 1.32 1 2 C1.66 2.33 2.32 2.66 3 3 C2.01 3 1.02 3 0 3 C-0.33 6.3 -0.66 9.6 -1 13 C-1.33 13 -1.66 13 -2 13 C-2.05391993 11.20866022 -2.09275571 9.41686101 -2.125 7.625 C-2.14820313 6.62726562 -2.17140625 5.62953125 -2.1953125 4.6015625 C-2 2 -2 2 0 0 Z " fill="#D29F7A" transform="translate(52,31)"/>
<path d="M0 0 C1.32 0 2.64 0 4 0 C4 1.65 4 3.3 4 5 C2.35 4.67 0.7 4.34 -1 4 C-0.67 2.68 -0.34 1.36 0 0 Z " fill="#C29E75" transform="translate(29,13)"/>
<path d="M0 0 C1.32 0.66 2.64 1.32 4 2 C4 2.99 4 3.98 4 5 C2.35 4.67 0.7 4.34 -1 4 C-1 1 -1 1 0 0 Z " fill="#6A8A8F" transform="translate(53,10)"/>
<path d="M0 0 C1.5 1.375 1.5 1.375 3 3 C3 3.66 3 4.32 3 5 C0.0625 4.625 0.0625 4.625 -3 4 C-3.33 3.34 -3.66 2.68 -4 2 C-2.68 1.34 -1.36 0.68 0 0 Z " fill="#425470" transform="translate(56,79)"/>
<path d="M0 0 C1.32 0 2.64 0 4 0 C4 1.32 4 2.64 4 4 C2.35 4 0.7 4 -1 4 C-0.67 2.68 -0.34 1.36 0 0 Z " fill="#CF773A" transform="translate(63,47)"/>
<path d="M0 0 C0.66 0 1.32 0 2 0 C2.33 0.99 2.66 1.98 3 3 C3.66 3.33 4.32 3.66 5 4 C5 4.66 5 5.32 5 6 C3.02 5.34 1.04 4.68 -1 4 C-0.67 2.68 -0.34 1.36 0 0 Z " fill="#3E4763" transform="translate(79,46)"/>
<path d="M0 0 C1.24546405 2.49092811 0.7767578 3.41080733 0 6 C-1.65 6 -3.3 6 -5 6 C-5.33 4.68 -5.66 3.36 -6 2 C-3.525 2.99 -3.525 2.99 -1 4 C-0.67 2.68 -0.34 1.36 0 0 Z " fill="#506268" transform="translate(79,36)"/>
<path d="M0 0 C0.0825 0.61875 0.165 1.2375 0.25 1.875 C0.81258459 4.18437567 0.81258459 4.18437567 3.0625 5.25 C3.701875 5.4975 4.34125 5.745 5 6 C3.02 6 1.04 6 -1 6 C-1.625 4.125 -1.625 4.125 -2 2 C-1.34 1.34 -0.68 0.68 0 0 Z " fill="#D1AB8A" transform="translate(18,25)"/>
<path d="M0 0 C0.99 0 1.98 0 3 0 C4.125 1.6875 4.125 1.6875 5 4 C4.125 6.75 4.125 6.75 3 9 C2.67 9 2.34 9 2 9 C2 6.36 2 3.72 2 1 C1.34 0.67 0.68 0.34 0 0 Z " fill="#DF8050" transform="translate(49,51)"/>
<path d="M0 0 C2.475 0.99 2.475 0.99 5 2 C5 3.65 5 5.3 5 7 C4.67 6.34 4.34 5.68 4 5 C3.34 5 2.68 5 2 5 C2 4.01 2 3.02 2 2 C1.34 2 0.68 2 0 2 C0 1.34 0 0.68 0 0 Z " fill="#B69667" transform="translate(53,31)"/>
</svg>
