<?xml version="1.0" encoding="UTF-8"?>
<svg version="1.1" xmlns="http://www.w3.org/2000/svg" width="564" height="442">
<path d="M0 0 C3.90466984 0.89438885 6.2958923 2.14151408 9.62109375 4.34375 C10.7585592 5.07840475 11.8979724 5.81005039 13.0390625 6.5390625 C13.63251465 6.9196582 14.2259668 7.30025391 14.83740234 7.69238281 C17.97256237 9.64760824 21.20223995 11.42861406 24.43359375 13.21875 C30.06343908 16.35164525 35.64024556 19.56023586 41.18359375 22.84375 C49.28137238 27.63564863 57.46359503 32.26537464 65.68359375 36.84375 C67.13378906 37.65392578 67.13378906 37.65392578 68.61328125 38.48046875 C72.61621389 40.72288757 72.61621389 40.72288757 76.68359375 42.84375 C76.68359375 43.50375 76.68359375 44.16375 76.68359375 44.84375 C77.41191406 44.95203125 78.14023437 45.0603125 78.890625 45.171875 C81.87562999 45.88994613 83.79630616 46.94248126 86.37109375 48.59375 C91.32803482 51.67972535 96.42433579 54.31483021 101.68359375 56.84375 C101.68359375 57.50375 101.68359375 58.16375 101.68359375 58.84375 C102.19535156 58.93140625 102.70710938 59.0190625 103.234375 59.109375 C106.68636556 60.14442161 109.72415208 61.87260714 112.87109375 63.59375 C113.54672363 63.95936035 114.22235352 64.3249707 114.91845703 64.70166016 C116.8425401 65.74473759 118.76326673 66.79377936 120.68359375 67.84375 C121.47121094 68.26914063 122.25882812 68.69453125 123.0703125 69.1328125 C126.66430372 71.09573894 130.20245207 73.14522956 133.7265625 75.23046875 C134.46793457 75.66891113 135.20930664 76.10735352 135.97314453 76.55908203 C137.44847419 77.43350406 138.9222075 78.31062719 140.39404297 79.19091797 C141.08900879 79.6035791 141.78397461 80.01624023 142.5 80.44140625 C143.18594238 80.85664551 143.87188477 81.27188477 144.57861328 81.69970703 C146.6610167 82.90151105 146.6610167 82.90151105 148.95654297 83.65576172 C151.26827469 84.5090786 152.81634332 85.2307363 154.68359375 86.84375 C155.23452759 89.07115173 155.23452759 89.07115173 155.38134766 91.76147461 C155.44057907 92.74900223 155.49981049 93.73652985 155.56083679 94.75398254 C155.60134659 95.7736058 155.64185638 96.79322906 155.68359375 97.84375 C155.72744705 98.78526413 155.77130035 99.72677826 155.81648254 100.69682312 C156.06172637 106.97712145 156.09857174 113.25698671 156.10083008 119.54150391 C156.11436223 121.83023132 156.1548272 124.11895456 156.22192383 126.40673828 C156.74644555 144.95223283 156.74644555 144.95223283 153.32617188 149.74645996 C149.5989952 153.2087736 145.37267793 155.0046269 140.68359375 156.84375 C138.87850837 157.81931969 137.08345698 158.814221 135.30859375 159.84375 C134.43589844 160.3078125 133.56320312 160.771875 132.6640625 161.25 C128.95542926 163.23312236 125.28775462 165.28434003 121.62109375 167.34375 C120.93370117 167.72635986 120.24630859 168.10896973 119.53808594 168.50317383 C114.83787553 171.13535922 110.31364363 173.95597147 105.89453125 177.04296875 C102.53254877 178.26064792 100.93516896 177.27567155 97.68359375 175.84375 C94.53106845 174.26045377 91.44891529 172.56714055 88.37109375 170.84375 C87.05310791 170.11333496 87.05310791 170.11333496 85.70849609 169.36816406 C79.30856653 165.80303294 72.99959473 162.09781333 66.71118164 158.34057617 C61.23036865 155.09420348 55.61884449 152.28101207 49.890625 149.4921875 C45.97191915 147.47794405 42.32310006 145.17558534 38.671875 142.71484375 C35.11931196 140.49042846 31.46238914 138.5148994 27.77563477 136.52270508 C22.31862391 133.55958912 16.91111513 130.50770764 11.49609375 127.46875 C5.64890625 124.189375 5.64890625 124.189375 -0.31640625 120.84375 C-0.31640625 139.65375 -0.31640625 158.46375 -0.31640625 177.84375 C1.33359375 178.17375 2.98359375 178.50375 4.68359375 178.84375 C6.96713274 180.18286237 9.12752983 181.54444872 11.30859375 183.03125 C17.27180692 186.98322047 23.358024 190.49719475 29.68359375 193.84375 C31.41510187 194.79784631 33.14443341 195.75590826 34.87109375 196.71875 C35.60714844 197.12867188 36.34320313 197.53859375 37.1015625 197.9609375 C37.88466797 198.39792969 37.88466797 198.39792969 38.68359375 198.84375 C38.68359375 199.50375 38.68359375 200.16375 38.68359375 200.84375 C39.34359375 200.905625 40.00359375 200.9675 40.68359375 201.03125 C45.05780127 202.2159312 48.56223996 203.43447236 51.68359375 206.84375 C52.92842589 211.28782011 52.82853949 215.65434492 52.78125 220.24609375 C52.79127548 221.55655167 52.80130096 222.86700958 52.81163025 224.21717834 C52.82790851 226.98756998 52.81486554 229.75589907 52.78149414 232.52612305 C52.7415304 236.06642204 52.77809786 239.60107589 52.8372736 243.14093685 C52.88258873 246.53053904 52.85987681 249.9187236 52.84375 253.30859375 C52.86510513 254.57436752 52.88646027 255.8401413 52.90846252 257.14427185 C52.72613071 265.73555852 52.72613071 265.73555852 49.69894409 268.9533844 C47.41654107 270.49198183 45.18296628 271.70031454 42.68359375 272.84375 C41.32234375 273.69646484 41.32234375 273.69646484 39.93359375 274.56640625 C35.31684977 277.31561317 30.66684457 279.98014034 25.95703125 282.56640625 C23.54258975 283.9229739 21.1757094 285.34380596 18.80859375 286.78125 C12.89711224 290.35778897 6.86476555 293.7531641 0.68359375 296.84375 C0.72880157 297.5621254 0.7740094 298.28050079 0.82058716 299.02064514 C3.93542276 351.4331972 3.93542276 351.4331972 -2.64160156 360.99658203 C-7.93890094 366.78111012 -15.62707786 368.97271839 -23.00634766 370.88232422 C-27.87765976 372.29722517 -31.78501326 374.78237147 -36.00390625 377.53125 C-37.27448437 378.29214874 -38.54897363 379.04657247 -39.828125 379.79296875 C-41.62766719 380.84743117 -43.42065743 381.90755215 -45.19970703 382.99633789 C-48.34564149 384.88398138 -50.07577137 385.83945295 -53.81640625 385.90625 C-57.44988908 384.80322843 -59.5683332 383.45394655 -62.515625 381.16015625 C-64.31277916 379.84640147 -66.05517739 378.91496969 -68.06640625 377.96875 C-72.43361102 375.88191612 -76.39026159 373.27275236 -80.4453125 370.640625 C-83.26598961 368.87530327 -86.12962315 367.28181151 -89.06640625 365.71875 C-93.43880377 363.385973 -97.32714619 360.77463494 -101.31640625 357.84375 C-102.10015625 357.555 -102.88390625 357.26625 -103.69140625 356.96875 C-105.31640625 355.84375 -105.31640625 355.84375 -105.91045284 352.72466946 C-106.30128663 348.98829373 -106.43946962 345.3794817 -106.43666077 341.6240387 C-106.43751519 340.93202093 -106.43836962 340.24000316 -106.43924993 339.52701515 C-106.44088637 337.22704883 -106.43541369 334.92715677 -106.42993164 332.62719727 C-106.42964935 330.9710134 -106.42980833 329.31482942 -106.43037415 327.65864563 C-106.43066047 323.17572102 -106.42479038 318.69282329 -106.41780019 314.20990491 C-106.41153921 309.52005987 -106.41096068 304.83021418 -106.40977478 300.1403656 C-106.40666956 291.26535139 -106.39846707 282.39034953 -106.38842529 273.51534075 C-106.37723904 263.40896368 -106.37174737 253.30258602 -106.36672986 243.1962043 C-106.35628378 222.41204598 -106.3387 201.62789877 -106.31640625 180.84375 C-109.37423364 182.04964052 -112.27043855 183.28198832 -115.12890625 184.90625 C-115.89847656 185.34066406 -116.66804688 185.77507812 -117.4609375 186.22265625 C-118.40324219 186.75761719 -119.34554687 187.29257813 -120.31640625 187.84375 C-122.27880217 188.94933254 -124.24216847 190.05318044 -126.20556641 191.15698242 C-127.61560608 191.94974241 -129.02543607 192.74287545 -130.43505859 193.53637695 C-139.46022424 198.61662037 -139.46022424 198.61662037 -143.3046875 200.7109375 C-144.76207041 201.53159972 -146.19444415 202.39719808 -147.609375 203.2890625 C-148.76373047 203.99675781 -148.76373047 203.99675781 -149.94140625 204.71875 C-150.61429688 205.14929688 -151.2871875 205.57984375 -151.98046875 206.0234375 C-155.94876925 207.41698784 -159.41998288 206.7109096 -163.21289062 204.9765625 C-165.26998316 203.84774589 -167.26213416 202.64662944 -169.25390625 201.40625 C-170.35436279 200.74061035 -170.35436279 200.74061035 -171.47705078 200.06152344 C-177.25531695 196.55077212 -182.97541284 192.9430821 -188.69018555 189.33007812 C-193.38313298 186.37763559 -198.16133513 183.65733513 -203.08203125 181.09765625 C-205.42876058 179.78069801 -207.34923077 178.69316572 -209.31640625 176.84375 C-209.8445282 174.23880005 -209.8445282 174.23880005 -209.8815918 171.07470703 C-209.90388351 169.88982697 -209.92617523 168.7049469 -209.94914246 167.48416138 C-209.9504567 166.20290375 -209.95177094 164.92164612 -209.953125 163.6015625 C-209.96406693 162.28590302 -209.97500885 160.97024353 -209.98628235 159.61471558 C-210.00571788 156.82876943 -210.00913577 154.04332524 -210.00268555 151.25732422 C-209.99669318 147.69318665 -210.04088578 144.13165731 -210.09857464 140.56805611 C-210.14452572 137.1624877 -210.13954465 133.75743951 -210.140625 130.3515625 C-210.16420578 129.07435333 -210.18778656 127.79714417 -210.21208191 126.48123169 C-210.12231257 117.84519446 -210.12231257 117.84519446 -207.79386902 114.95179749 C-206.00968981 113.65443138 -204.33300906 112.72489878 -202.31640625 111.84375 C-201.45917969 111.34230469 -200.60195312 110.84085937 -199.71875 110.32421875 C-198.49865234 109.68419922 -198.49865234 109.68419922 -197.25390625 109.03125 C-192.89831865 106.707075 -188.59455035 104.30695918 -184.31640625 101.84375 C-179.30068444 98.96145506 -174.24774174 96.15953156 -169.16015625 93.40625 C-164.76021951 90.98870234 -160.41477578 88.47742473 -156.06640625 85.96875 C-149.37049085 82.14304635 -142.56095246 78.51794236 -135.78125 74.84375 C-134.86923828 74.34875 -133.95722656 73.85375 -133.01757812 73.34375 C-131.1721121 72.34211191 -129.32575359 71.34211647 -127.47851562 70.34375 C-121.32461155 66.99895288 -115.30246806 63.47911182 -109.31640625 59.84375 C-107.34025368 58.67198517 -105.36162669 57.50436684 -103.37890625 56.34375 C-102.48300781 55.8178125 -101.58710938 55.291875 -100.6640625 54.75 C-96.92759802 52.62235162 -93.15599796 50.56618331 -89.37866211 48.51220703 C-83.92803173 45.54245434 -78.49585107 42.53952355 -73.06640625 39.53125 C-72.47546173 39.20392883 -71.88451721 38.87660767 -71.27566528 38.53936768 C-63.75820095 34.37105491 -56.30910951 30.11843059 -48.97705078 25.63134766 C-45.11148111 23.27814685 -41.17638402 21.24042963 -37.1015625 19.28125 C-32.50769798 16.91022315 -28.09813219 14.22623116 -23.65625 11.58422852 C-18.6374673 8.60376615 -13.57090595 5.74397894 -8.41796875 3 C-2.73136974 -0.12868644 -2.73136974 -0.12868644 0 0 Z " fill="#EC8C09" transform="translate(310.31640625,27.15625)"/>
<path d="M0 0 C3.90466984 0.89438885 6.2958923 2.14151408 9.62109375 4.34375 C10.7585592 5.07840475 11.8979724 5.81005039 13.0390625 6.5390625 C13.63251465 6.9196582 14.2259668 7.30025391 14.83740234 7.69238281 C17.97256237 9.64760824 21.20223995 11.42861406 24.43359375 13.21875 C30.06343908 16.35164525 35.64024556 19.56023586 41.18359375 22.84375 C49.28137238 27.63564863 57.46359503 32.26537464 65.68359375 36.84375 C67.13378906 37.65392578 67.13378906 37.65392578 68.61328125 38.48046875 C72.61621389 40.72288757 72.61621389 40.72288757 76.68359375 42.84375 C76.68359375 43.50375 76.68359375 44.16375 76.68359375 44.84375 C77.41191406 44.95203125 78.14023437 45.0603125 78.890625 45.171875 C81.87562999 45.88994613 83.79630616 46.94248126 86.37109375 48.59375 C91.32803482 51.67972535 96.42433579 54.31483021 101.68359375 56.84375 C101.68359375 57.50375 101.68359375 58.16375 101.68359375 58.84375 C102.19535156 58.93140625 102.70710938 59.0190625 103.234375 59.109375 C106.68636556 60.14442161 109.72415208 61.87260714 112.87109375 63.59375 C113.54672363 63.95936035 114.22235352 64.3249707 114.91845703 64.70166016 C116.8425401 65.74473759 118.76326673 66.79377936 120.68359375 67.84375 C121.47121094 68.26914063 122.25882812 68.69453125 123.0703125 69.1328125 C126.66430372 71.09573894 130.20245207 73.14522956 133.7265625 75.23046875 C134.46793457 75.66891113 135.20930664 76.10735352 135.97314453 76.55908203 C137.44847419 77.43350406 138.9222075 78.31062719 140.39404297 79.19091797 C145.06384248 81.9637806 149.80049249 84.4653666 154.68359375 86.84375 C153.68359375 89.84375 153.68359375 89.84375 151.03125 91.44921875 C149.94714844 91.97128906 148.86304688 92.49335937 147.74609375 93.03125 C146.66457031 93.56105469 145.58304687 94.09085937 144.46875 94.63671875 C141.68359375 95.84375 141.68359375 95.84375 139.68359375 95.84375 C139.68359375 96.50375 139.68359375 97.16375 139.68359375 97.84375 C138.73097656 98.30265625 137.77835937 98.7615625 136.796875 99.234375 C135.52978803 99.85383974 134.26286985 100.47364981 132.99609375 101.09375 C132.37025391 101.39410156 131.74441406 101.69445312 131.09960938 102.00390625 C127.21373975 103.91632376 124.04495649 106.07931892 120.68359375 108.84375 C118.35878201 109.86340427 116.02564676 110.86434602 113.68359375 111.84375 C112.3372755 112.82619845 110.99918078 113.82051564 109.68359375 114.84375 C109.02359375 114.84375 108.36359375 114.84375 107.68359375 114.84375 C107.68359375 115.50375 107.68359375 116.16375 107.68359375 116.84375 C101.76554405 118.17229177 98.90630244 117.50839729 93.68359375 114.84375 C93.68359375 114.18375 93.68359375 113.52375 93.68359375 112.84375 C92.92046875 112.6375 92.15734375 112.43125 91.37109375 112.21875 C82.43001156 108.88478715 74.24485905 103.47237095 65.98046875 98.7265625 C63.26900641 97.17807334 60.54640632 95.65732655 57.80859375 94.15625 C55.01598224 92.61799079 52.30844671 90.99658168 49.62109375 89.28125 C47.07317341 87.66304418 44.52415912 86.22321757 41.80859375 84.90625 C37.81689969 82.96921968 34.05558863 80.72210959 30.2734375 78.40625 C27.10798623 76.49647548 23.90005596 74.66565348 20.68359375 72.84375 C20.02560791 72.47088867 19.36762207 72.09802734 18.68969727 71.71386719 C16.62639189 70.54663569 14.56145736 69.38233513 12.49609375 68.21875 C11.79806641 67.82429688 11.10003906 67.42984375 10.38085938 67.0234375 C9.70345703 66.641875 9.02605469 66.2603125 8.328125 65.8671875 C7.72331299 65.52606934 7.11850098 65.18495117 6.49536133 64.83349609 C5.89747803 64.50687988 5.29959473 64.18026367 4.68359375 63.84375 C4.01158936 63.47330566 3.33958496 63.10286133 2.6472168 62.72119141 C-0.54124954 61.29643099 -3.13168068 61.71765919 -6.31640625 62.84375 C-9.16931981 64.524406 -11.90185363 66.33876492 -14.6484375 68.1875 C-17.88029715 70.19380819 -20.61309283 71.10308732 -24.31640625 71.84375 C-24.31640625 72.50375 -24.31640625 73.16375 -24.31640625 73.84375 C-25.37859375 74.36324219 -26.44078125 74.88273437 -27.53515625 75.41796875 C-34.68099561 78.93594644 -41.65046012 82.4701018 -48.31640625 86.84375 C-53.60635865 90.12215092 -58.9003369 93.20933118 -64.51171875 95.90234375 C-66.60216102 96.94324405 -66.60216102 96.94324405 -69.44140625 99.03125 C-72.50385358 100.96192332 -74.74364654 101.50348717 -78.31640625 101.84375 C-78.31640625 102.50375 -78.31640625 103.16375 -78.31640625 103.84375 C-79.63640625 104.17375 -80.95640625 104.50375 -82.31640625 104.84375 C-82.31640625 105.50375 -82.31640625 106.16375 -82.31640625 106.84375 C-83.02023438 107.1840625 -83.7240625 107.524375 -84.44921875 107.875 C-91.04762191 111.11390286 -97.44803276 114.55512139 -103.77001953 118.30273438 C-108.10782544 120.84375 -108.10782544 120.84375 -110.31640625 120.84375 C-110.31640625 121.50375 -110.31640625 122.16375 -110.31640625 122.84375 C-110.90808594 123.09769531 -111.49976563 123.35164063 -112.109375 123.61328125 C-116.36723751 125.46784779 -120.34028141 127.43397737 -124.31640625 129.84375 C-124.97640625 129.84375 -125.63640625 129.84375 -126.31640625 129.84375 C-126.31640625 130.50375 -126.31640625 131.16375 -126.31640625 131.84375 C-129.4045032 133.60837683 -130.54952761 133.84375 -134.31640625 133.84375 C-134.31640625 134.50375 -134.31640625 135.16375 -134.31640625 135.84375 C-140.94140625 139.84375 -140.94140625 139.84375 -144.31640625 139.84375 C-144.31640625 140.50375 -144.31640625 141.16375 -144.31640625 141.84375 C-154.83492477 147.76967593 -154.83492477 147.76967593 -161.31640625 146.84375 C-162.30640625 146.18375 -163.29640625 145.52375 -164.31640625 144.84375 C-164.31640625 144.18375 -164.31640625 143.52375 -164.31640625 142.84375 C-164.88488281 142.67359375 -165.45335937 142.5034375 -166.0390625 142.328125 C-171.24861765 140.69307263 -175.67003766 138.71065828 -180.31640625 135.84375 C-180.31640625 135.18375 -180.31640625 134.52375 -180.31640625 133.84375 C-181.26515625 133.534375 -182.21390625 133.225 -183.19140625 132.90625 C-186.31640625 131.84375 -186.31640625 131.84375 -188.31640625 130.84375 C-188.31640625 130.18375 -188.31640625 129.52375 -188.31640625 128.84375 C-189.01636719 128.57304687 -189.71632813 128.30234375 -190.4375 128.0234375 C-193.47906863 126.77709594 -196.42486872 125.41029044 -199.37890625 123.96875 C-200.40113281 123.47632813 -201.42335938 122.98390625 -202.4765625 122.4765625 C-205.26187976 120.87510086 -207.17390139 119.21746042 -209.31640625 116.84375 C-204.55077067 113.24304756 -199.67297896 110.32208578 -194.40625 107.51171875 C-191.00999607 105.67834273 -187.66079727 103.76933606 -184.31640625 101.84375 C-179.30068444 98.96145506 -174.24774174 96.15953156 -169.16015625 93.40625 C-164.76021951 90.98870234 -160.41477578 88.47742473 -156.06640625 85.96875 C-149.37049085 82.14304635 -142.56095246 78.51794236 -135.78125 74.84375 C-134.86923828 74.34875 -133.95722656 73.85375 -133.01757812 73.34375 C-131.1721121 72.34211191 -129.32575359 71.34211647 -127.47851562 70.34375 C-121.32461155 66.99895288 -115.30246806 63.47911182 -109.31640625 59.84375 C-107.34025368 58.67198517 -105.36162669 57.50436684 -103.37890625 56.34375 C-102.48300781 55.8178125 -101.58710938 55.291875 -100.6640625 54.75 C-96.92759802 52.62235162 -93.15599796 50.56618331 -89.37866211 48.51220703 C-83.92803173 45.54245434 -78.49585107 42.53952355 -73.06640625 39.53125 C-72.47546173 39.20392883 -71.88451721 38.87660767 -71.27566528 38.53936768 C-63.75820095 34.37105491 -56.30910951 30.11843059 -48.97705078 25.63134766 C-45.11148111 23.27814685 -41.17638402 21.24042963 -37.1015625 19.28125 C-32.50769798 16.91022315 -28.09813219 14.22623116 -23.65625 11.58422852 C-18.6374673 8.60376615 -13.57090595 5.74397894 -8.41796875 3 C-2.73136974 -0.12868644 -2.73136974 -0.12868644 0 0 Z " fill="#F7C029" transform="translate(310.31640625,27.15625)"/>
<path d="M0 0 C0.33 0 0.66 0 1 0 C1 19.8 1 39.6 1 60 C3.97 60.495 3.97 60.495 7 61 C9.875 62.4375 9.875 62.4375 12 64 C12 64.66 12 65.32 12 66 C13.09634766 66.42732422 13.09634766 66.42732422 14.21484375 66.86328125 C22.91135022 70.41262681 30.93358063 75.22879876 39 80 C40.24818045 80.71153473 41.49784441 81.42048421 42.75 82.125 C43.8225 82.74375 44.895 83.3625 46 84 C46.67317261 84.26850266 47.34634521 84.53700531 48.03991699 84.81364441 C50.51612096 85.96141377 52.13883271 86.98808345 54 89 C55.14486841 93.38632436 54.93096854 97.66912544 54.78125 102.17578125 C54.76993042 103.45607712 54.75861084 104.73637299 54.74694824 106.0554657 C54.71650039 109.44823697 54.63801654 112.8382379 54.54931641 116.22991943 C54.46725669 119.69521604 54.43089482 123.16096356 54.390625 126.62695312 C54.30244508 133.41916677 54.16859707 140.20933237 54 147 C48.44561369 147 43.74649362 143.32611778 39.0625 140.5625 C35.80297106 138.64536646 32.54487661 136.7307351 29.25 134.875 C25.44329063 132.67882152 21.72677996 130.32923748 18 128 C12.39 124.7 6.78 121.4 1 118 C1 156.94 1 195.88 1 236 C-7.99828013 234.20034397 -15.29985238 228.5868546 -22.97363281 223.73583984 C-27.76907028 220.72037317 -32.65260143 217.96311548 -37.66015625 215.3125 C-39.89423666 214.05932635 -41.93438698 212.69913365 -44 211.1875 C-46.83880634 208.88516268 -46.83880634 208.88516268 -50 208 C-50.33 148.93 -50.66 89.86 -51 29 C-40 23 -40 23 -34.75 20.4375 C-31.70155746 18.94458185 -29.01156432 17.36835746 -26.3125 15.3125 C-23.02079789 12.82021126 -20.01267726 11.9008051 -16 11 C-16 10.34 -16 9.68 -16 9 C-14.39318359 8.15115234 -14.39318359 8.15115234 -12.75390625 7.28515625 C-11.3567202 6.54436633 -9.95958753 5.80347571 -8.5625 5.0625 C-7.85544922 4.68931641 -7.14839844 4.31613281 -6.41992188 3.93164062 C-2.99521342 2.27507665 -2.99521342 2.27507665 0 0 Z " fill="#E45520" transform="translate(256,176)"/>
<path d="M0 0 C0.99 0.33 1.98 0.66 3 1 C2.34 1 1.68 1 1 1 C1 19.81 1 38.62 1 58 C2.65 58.33 4.3 58.66 6 59 C8.28353899 60.33911237 10.44393608 61.70069872 12.625 63.1875 C18.58821317 67.13947047 24.67443025 70.65344475 31 74 C32.73150812 74.95409631 34.46083966 75.91215826 36.1875 76.875 C36.92355469 77.28492188 37.65960938 77.69484375 38.41796875 78.1171875 C38.94003906 78.40851563 39.46210938 78.69984375 40 79 C40 79.66 40 80.32 40 81 C40.99 81.0928125 40.99 81.0928125 42 81.1875 C46.37420752 82.3721812 49.87864621 83.59072236 53 87 C54.24483214 91.44407011 54.14494574 95.81059492 54.09765625 100.40234375 C54.10768173 101.71280167 54.11770721 103.02325958 54.1280365 104.37342834 C54.14431476 107.14381998 54.13127179 109.91214907 54.09790039 112.68237305 C54.05793665 116.22267204 54.09450411 119.75732589 54.15367985 123.29718685 C54.19899498 126.68678904 54.17628306 130.0749736 54.16015625 133.46484375 C54.18151138 134.73061752 54.20286652 135.9963913 54.22486877 137.30052185 C54.04253696 145.89180852 54.04253696 145.89180852 51.01535034 149.1096344 C48.73294732 150.64823183 46.49937253 151.85656454 44 153 C42.63875 153.85271484 42.63875 153.85271484 41.25 154.72265625 C36.63325602 157.47186317 31.98325082 160.13639034 27.2734375 162.72265625 C24.858996 164.0792239 22.49211565 165.50005596 20.125 166.9375 C14.21351849 170.51403897 8.1811718 173.9094141 2 177 C2.04520782 177.7183754 2.09041565 178.43675079 2.13699341 179.17689514 C5.25182901 231.5894472 5.25182901 231.5894472 -1.32519531 241.15283203 C-6.62249469 246.93736012 -14.31067161 249.12896839 -21.68994141 251.03857422 C-26.56125351 252.45347517 -30.46860701 254.93862147 -34.6875 257.6875 C-35.95807812 258.44839874 -37.23256738 259.20282247 -38.51171875 259.94921875 C-40.31372069 261.00720564 -42.11294098 262.0680109 -43.90307617 263.14599609 C-47.4741406 265.26131921 -49.79235863 266.51001714 -54 266 C-53.34 265.67 -52.68 265.34 -52 265 C-52 226.06 -52 187.12 -52 147 C-48.7984411 148.28062356 -46.31538731 149.28700522 -43.4765625 151.0234375 C-42.53296875 151.59578125 -42.53296875 151.59578125 -41.5703125 152.1796875 C-40.92835938 152.57414063 -40.28640625 152.96859375 -39.625 153.375 C-38.34680567 154.15438679 -37.06816157 154.93303643 -35.7890625 155.7109375 C-34.85030273 156.28255615 -34.85030273 156.28255615 -33.89257812 156.86572266 C-32.00802657 157.99518944 -30.1067193 159.08857769 -28.1953125 160.171875 C-25 162 -25 162 -22.25 163.875 C-15.16364857 168.50838363 -7.56447407 172.21776297 0 176 C0 156.86 0 137.72 0 118 C-6.435 114.535 -6.435 114.535 -13 111 C-16.6875 108.375 -16.6875 108.375 -18.27734375 107.17578125 C-21.11529555 105.23876653 -24.20046367 103.82796832 -27.2890625 102.3359375 C-31.94094114 100.04351316 -36.46289665 97.51007049 -41 95 C-41 94.34 -41 93.68 -41 93 C-41.721875 92.71125 -42.44375 92.4225 -43.1875 92.125 C-45.79166667 91.08333333 -48.39583333 90.04166667 -51 89 C-51 88.34 -51 87.68 -51 87 C-46.00379139 82.91219295 -40.58610367 80.19237273 -34.76953125 77.4296875 C-32.26547597 76.13704401 -30.21679346 74.72099449 -28 73 C-26 72 -24 71 -22 70 C-21.05125 69.360625 -20.1025 68.72125 -19.125 68.0625 C-16.14227264 66.09389994 -13.16881372 64.5642549 -9.9609375 63.015625 C-8.07516074 62.03892787 -6.3692291 60.95819772 -4.625 59.75 C-2 58 -2 58 0 58 C0 38.86 0 19.72 0 0 Z " fill="#EC8C08" transform="translate(309,147)"/>
<path d="M0 0 C3.96596691 1.32198897 6.85416001 2.30835631 10.34765625 4.27734375 C11.11787109 4.70853516 11.88808594 5.13972656 12.68164062 5.58398438 C13.46732422 6.03064453 14.25300781 6.47730469 15.0625 6.9375 C15.85205078 7.38029297 16.64160156 7.82308594 17.45507812 8.27929688 C22.34072096 11.02721501 27.16585379 13.84534957 31.91015625 16.83203125 C38.24493853 20.81187588 44.58673583 24.43649836 51.34375 27.67578125 C53.99040122 28.99521473 56.47651411 30.4595899 59 32 C61.08086578 33.19181863 63.16445906 34.37888139 65.25 35.5625 C69.36144654 37.89805557 73.45428014 40.26054892 77.51953125 42.67578125 C78.27524414 43.12429443 79.03095703 43.57280762 79.80957031 44.03491211 C81.28339844 44.91157472 82.75548129 45.79117985 84.22558594 46.67407227 C87.73979162 48.7631834 91.12867078 50.62654597 95 52 C95 52.66 95 53.32 95 54 C96.5823006 54.33820166 98.16589375 54.67035939 99.75 55 C101.07257813 55.2784375 101.07257813 55.2784375 102.421875 55.5625 C105.22143965 56.11153675 105.22143965 56.11153675 109 56 C109 55.34 109 54.68 109 54 C113.88728925 50.02145841 119.2435304 47.4670584 125 45 C126.51507344 44.00167482 128.01428133 42.97900887 129.5 41.9375 C133.30309611 39.30860166 136.49322337 37.95888864 141 37 C141 36.34 141 35.68 141 35 C145.62 32.69 150.24 30.38 155 28 C156.91593693 31.83187386 157.27042078 33.2707716 157.35742188 37.36010742 C157.38243774 38.43189743 157.40745361 39.50368744 157.43322754 40.60795593 C157.48299025 45.50755233 157.50699463 50.40605961 157.49267578 55.3059082 C157.49754211 57.88489761 157.53088364 60.46399681 157.59326172 63.04223633 C158.08718548 83.88181436 158.08718548 83.88181436 154.63934326 89.03277588 C150.94472136 92.5885134 146.76164157 94.27037761 142 96 C140.19203911 96.97023031 138.3962223 97.96421961 136.625 99 C135.75230469 99.4640625 134.87960937 99.928125 133.98046875 100.40625 C130.27183551 102.38937236 126.60416087 104.44059003 122.9375 106.5 C122.25010742 106.88260986 121.56271484 107.26521973 120.85449219 107.65942383 C116.15428178 110.29160922 111.63004988 113.11222147 107.2109375 116.19921875 C103.84895502 117.41689792 102.25157521 116.43192155 99 115 C95.8474747 113.41670377 92.76532154 111.72339055 89.6875 110 C88.80884277 109.51305664 87.93018555 109.02611328 87.02490234 108.52441406 C80.62497278 104.95928294 74.31600098 101.25406333 68.02758789 97.49682617 C62.5467749 94.25045348 56.93525074 91.43726207 51.20703125 88.6484375 C47.2883254 86.63419405 43.63950631 84.33183534 39.98828125 81.87109375 C36.41616816 79.63443732 32.73655977 77.65084957 29.02954102 75.64770508 C23.92180552 72.86971274 18.87015818 69.99284467 13.8125 67.125 C12.76513672 66.53203125 11.71777344 65.9390625 10.63867188 65.328125 C8.09201341 63.8861814 5.54579719 62.44346348 3 61 C3 60.34 3 59.68 3 59 C2.01 59 1.02 59 0 59 C0 39.53 0 20.06 0 0 Z " fill="#E45521" transform="translate(309,88)"/>
<path d="M0 0 C1.43707278 0.29882309 2.872969 0.60330788 4.30834961 0.91015625 C5.10808701 1.079104 5.9078244 1.24805176 6.73179626 1.42211914 C9.66716889 2.16997773 12.00161926 3.39694477 14.5625 5 C15.40941406 5.515625 16.25632812 6.03125 17.12890625 6.5625 C17.74636719 7.036875 18.36382812 7.51125 19 8 C19 8.66 19 9.32 19 10 C19.65484375 10.13535156 20.3096875 10.27070313 20.984375 10.41015625 C28.91463884 12.28071283 35.15578901 15.66149627 42 20 C42.66574539 20.26722366 43.33149078 20.53444733 44.01741028 20.80976868 C46.51232745 21.95315206 48.13008282 22.97505856 50 25 C51.148553 29.45795355 50.9306791 33.81742675 50.78125 38.39453125 C50.76993042 39.69702316 50.75861084 40.99951508 50.74694824 42.34147644 C50.71649741 45.79340903 50.63801005 49.24261969 50.54931641 52.69348145 C50.46726369 56.2191078 50.43089626 59.74517708 50.390625 63.27148438 C50.30499796 70.18210317 50.16858522 77.09092071 50 84 C48.35 84 46.7 84 45 84 C45 84.66 45 85.32 45 86 C43.68 86 42.36 86 41 86 C41 86.99 41 87.98 41 89 C37.535 89.495 37.535 89.495 34 90 C33.505 91.98 33.505 91.98 33 94 C31.68 94 30.36 94 29 94 C28.67 94.66 28.34 95.32 28 96 C26.515 95.505 26.515 95.505 25 95 C24.67 95.99 24.34 96.98 24 98 C23.34 98 22.68 98 22 98 C22 98.66 22 99.32 22 100 C20.35 100 18.7 100 17 100 C17 100.99 17 101.98 17 103 C13.535 103.495 13.535 103.495 10 104 C10 104.66 10 105.32 10 106 C7.23776722 108.76223278 4.79293383 108.57856291 1 109 C0.00953976 103.24271031 -0.13611483 97.67657086 -0.11352539 91.84204102 C-0.11367142 90.84615463 -0.11381744 89.85026825 -0.1139679 88.82420349 C-0.11327433 85.55074849 -0.10550805 82.27735124 -0.09765625 79.00390625 C-0.09579009 76.72704601 -0.09436712 74.45018537 -0.09336853 72.17332458 C-0.08955892 66.19421267 -0.07974195 60.21512523 -0.06866455 54.23602295 C-0.05841694 48.12935721 -0.05386374 42.0226875 -0.04882812 35.91601562 C-0.03811826 23.94399969 -0.02106057 11.97200189 0 0 Z " fill="#EC8C07" transform="translate(259,299)"/>
<path d="M0 0 C0.99 0.33 1.98 0.66 3 1 C2.34 1 1.68 1 1 1 C1 19.81 1 38.62 1 58 C2.65 58.33 4.3 58.66 6 59 C8.28353899 60.33911237 10.44393608 61.70069872 12.625 63.1875 C18.58821317 67.13947047 24.67443025 70.65344475 31 74 C32.73150812 74.95409631 34.46083966 75.91215826 36.1875 76.875 C36.92355469 77.28492188 37.65960938 77.69484375 38.41796875 78.1171875 C38.94003906 78.40851563 39.46210938 78.69984375 40 79 C40 79.66 40 80.32 40 81 C40.99 81.0928125 40.99 81.0928125 42 81.1875 C46.18657836 82.32136497 49.42550992 84.59631064 53 87 C51.59265319 89.81469362 49.90792051 89.87409206 47 91 C45.02371185 92.09315121 43.06605788 93.22044869 41.125 94.375 C40.07441406 94.99632812 39.02382813 95.61765625 37.94140625 96.2578125 C36.97074219 96.83273438 36.00007813 97.40765625 35 98 C33.68954647 98.75357003 32.37748268 99.50436147 31.0625 100.25 C29.30019729 101.25703012 27.54441795 102.27611034 25.80859375 103.328125 C21.54757881 105.86458452 17.21092828 108.26400135 12.8828125 110.68359375 C12.19960938 111.06644531 11.51640625 111.44929688 10.8125 111.84375 C10.15121094 112.20984375 9.48992187 112.5759375 8.80859375 112.953125 C6.82229948 114.06764693 6.82229948 114.06764693 4.375 115.84375 C1.08950533 117.44326714 -0.51927657 117.03422244 -4 116 C-6.44374682 114.77400328 -8.73290702 113.53335632 -11.0625 112.125 C-11.9606543 111.59712891 -11.9606543 111.59712891 -12.87695312 111.05859375 C-14.59045988 110.04888221 -16.29543415 109.02473315 -18 108 C-18.86882812 107.48050781 -19.73765625 106.96101563 -20.6328125 106.42578125 C-22.22339019 105.46776003 -23.81059659 104.50412117 -25.39453125 103.53515625 C-30.49445157 100.42906584 -35.61967622 97.59052626 -41 95 C-41 94.34 -41 93.68 -41 93 C-41.721875 92.71125 -42.44375 92.4225 -43.1875 92.125 C-45.79166667 91.08333333 -48.39583333 90.04166667 -51 89 C-51 88.34 -51 87.68 -51 87 C-46.00379139 82.91219295 -40.58610367 80.19237273 -34.76953125 77.4296875 C-32.26547597 76.13704401 -30.21679346 74.72099449 -28 73 C-26 72 -24 71 -22 70 C-21.05125 69.360625 -20.1025 68.72125 -19.125 68.0625 C-16.14227264 66.09389994 -13.16881372 64.5642549 -9.9609375 63.015625 C-8.07516074 62.03892787 -6.3692291 60.95819772 -4.625 59.75 C-2 58 -2 58 0 58 C0 38.86 0 19.72 0 0 Z " fill="#F7BF2A" transform="translate(309,147)"/>
<path d="M0 0 C1.91593693 3.83187386 2.27042078 5.2707716 2.35742188 9.36010742 C2.39494568 10.96779243 2.39494568 10.96779243 2.43322754 12.60795593 C2.48299025 17.50755233 2.50699463 22.40605961 2.49267578 27.3059082 C2.49754211 29.88489761 2.53088364 32.46399681 2.59326172 35.04223633 C3.08718548 55.88181436 3.08718548 55.88181436 -0.36065674 61.03277588 C-4.05527864 64.5885134 -8.23835843 66.27037761 -13 68 C-14.80796089 68.97023031 -16.6037777 69.96421961 -18.375 71 C-19.68404297 71.69609375 -19.68404297 71.69609375 -21.01953125 72.40625 C-24.72815455 74.38936705 -28.39604928 76.44022972 -32.0625 78.5 C-32.74844238 78.88260986 -33.43438477 79.26521973 -34.14111328 79.65942383 C-38.88349697 82.31968826 -43.47874974 85.15083243 -47.984375 88.19921875 C-50 89 -50 89 -52.265625 88.14453125 C-52.83796875 87.76683594 -53.4103125 87.38914062 -54 87 C-53.34 87 -52.68 87 -52 87 C-52 67.86 -52 48.72 -52 29 C-50.02 28.67 -48.04 28.34 -46 28 C-46 27.34 -46 26.68 -46 26 C-41.11271075 22.02145841 -35.7564696 19.4670584 -30 17 C-28.48492656 16.00167482 -26.98571867 14.97900887 -25.5 13.9375 C-21.69690389 11.30860166 -18.50677663 9.95888864 -14 9 C-14 8.34 -14 7.68 -14 7 C-9.38 4.69 -4.76 2.38 0 0 Z " fill="#EC8C08" transform="translate(464,116)"/>
<path d="M0 0 C0.75622147 0.413638 1.51244293 0.827276 2.2915802 1.25344849 C3.28308578 1.79516693 4.27459137 2.33688538 5.29614258 2.89501953 C6.27923904 3.43240753 7.26233551 3.96979553 8.27522278 4.52346802 C11.05380963 6.02915895 13.85266371 7.47812414 16.6875 8.875 C17.51636719 9.28492188 18.34523438 9.69484375 19.19921875 10.1171875 C19.79347656 10.40851563 20.38773438 10.69984375 21 11 C21 11.66 21 12.32 21 13 C21.94875 13.309375 22.8975 13.61875 23.875 13.9375 C27 15 27 15 29 16 C29 16.66 29 17.32 29 18 C29.78375 18.226875 30.5675 18.45375 31.375 18.6875 C36.12301625 20.40660933 40.52102552 22.68084721 45 25 C45 25.66 45 26.32 45 27 C45.78375 27.309375 46.5675 27.61875 47.375 27.9375 C50 29 50 29 52 30 C52 49.14 52 68.28 52 88 C47.68270719 87.13654144 45.48452577 86.36957477 41.796875 84.26953125 C40.81589844 83.71330078 39.83492187 83.15707031 38.82421875 82.58398438 C37.80972656 81.99939453 36.79523438 81.41480469 35.75 80.8125 C34.75097656 80.24724609 33.75195312 79.68199219 32.72265625 79.09960938 C27.32445312 76.01945818 22.09623044 72.79000407 16.95654297 69.29711914 C14.44902275 67.63472147 11.85265484 66.20556044 9.1875 64.8125 C2.36728892 61.24000848 2.36728892 61.24000848 0 59 C-0.48101807 56.39936829 -0.48101807 56.39936829 -0.45410156 53.2434082 C-0.45379944 52.06241043 -0.45349731 50.88141266 -0.45318604 49.66462708 C-0.43254089 48.38955795 -0.41189575 47.11448883 -0.390625 45.80078125 C-0.38213531 43.84279854 -0.38213531 43.84279854 -0.37347412 41.84526062 C-0.35821392 38.37781054 -0.31893032 34.91103251 -0.2746582 31.44384766 C-0.23371291 27.90471488 -0.21546479 24.36547332 -0.1953125 20.82617188 C-0.15243532 13.88383881 -0.08418015 6.94195168 0 0 Z " fill="#E45521" transform="translate(101,145)"/>
<path d="M0 0 C3.2015589 1.28062356 5.68461269 2.28700522 8.5234375 4.0234375 C9.46703125 4.59578125 9.46703125 4.59578125 10.4296875 5.1796875 C11.07164062 5.57414062 11.71359375 5.96859375 12.375 6.375 C13.65319433 7.15438679 14.93183843 7.93303643 16.2109375 8.7109375 C17.14824707 9.28473145 17.14824707 9.28473145 18.10449219 9.87011719 C19.9957618 10.99747367 21.9178716 12.04909791 23.8515625 13.1015625 C27 15 27 15 29 18 C23.25 16.125 23.25 16.125 21 15 C21 14.34 21 13.68 21 13 C20.278125 12.731875 19.55625 12.46375 18.8125 12.1875 C16 11 16 11 13.75 9.5625 C11.25022952 8.14217586 9.04736162 7.28339605 6.328125 6.40234375 C5.51762695 6.13800537 4.70712891 5.87366699 3.87207031 5.60131836 C3.25428711 5.4028833 2.63650391 5.20444824 2 5 C2.00791911 5.54353024 2.01583822 6.08706049 2.02399731 6.64706135 C2.21556214 19.86671429 2.39021022 33.08649725 2.54658794 46.30661488 C2.62272423 52.69974812 2.70450923 59.09270636 2.79907227 65.4855957 C2.89007424 71.65164325 2.9664098 77.81771188 3.03244972 83.98407555 C3.06028496 86.3401336 3.09346253 88.69613462 3.13199425 91.05204201 C3.18494103 94.34435678 3.2191248 97.63635989 3.2487793 100.92895508 C3.26891586 101.90934753 3.28905243 102.88973999 3.30979919 103.89984131 C3.31408936 104.79586563 3.31837952 105.69188995 3.32279968 106.61506653 C3.33293941 107.3939816 3.34307913 108.17289667 3.35352612 108.97541523 C3 111 3 111 0 114 C0 76.38 0 38.76 0 0 Z " fill="#EF8018" transform="translate(257,294)"/>
<path d="M0 0 C0.66 0.33 1.32 0.66 2 1 C5.41996379 55.34496923 5.41996379 55.34496923 -1.32519531 65.15283203 C-6.62249469 70.93736012 -14.31067161 73.12896839 -21.68994141 75.03857422 C-26.56125351 76.45347517 -30.46860701 78.93862147 -34.6875 81.6875 C-35.95807812 82.44839874 -37.23256738 83.20282247 -38.51171875 83.94921875 C-40.31372069 85.00720564 -42.11294098 86.0680109 -43.90307617 87.14599609 C-47.4741406 89.26131921 -49.79235863 90.51001714 -54 90 C-53.01 89.505 -53.01 89.505 -52 89 C-51.835 88.01 -51.67 87.02 -51.5 86 C-51.335 85.01 -51.17 84.02 -51 83 C-50.01 82.505 -50.01 82.505 -49 82 C-48.67 82.66 -48.34 83.32 -48 84 C-45.23723823 83.47731534 -42.6739124 82.89130413 -40 82 C-40 81.34 -40 80.68 -40 80 C-36.535 79.505 -36.535 79.505 -33 79 C-33 78.01 -33 77.02 -33 76 C-31.35 76 -29.7 76 -28 76 C-28 75.34 -28 74.68 -28 74 C-27 72.4375 -27 72.4375 -25 71 C-22.3212381 70.43994327 -19.73839339 70.22445847 -17 70 C-16.505 68.02 -16.505 68.02 -16 66 C-13.69 65.67 -11.38 65.34 -9 65 C-9 64.01 -9 63.02 -9 62 C-7.68 62 -6.36 62 -5 62 C-5 61.34 -5 60.68 -5 60 C-3.35 60 -1.7 60 0 60 C0 40.2 0 20.4 0 0 Z " fill="#DCA246" transform="translate(309,323)"/>
<path d="M0 0 C0.99 0.495 0.99 0.495 2 1 C2 59.08 2 117.16 2 177 C4.97 177.66 7.94 178.32 11 179 C11.33 180.32 11.66 181.64 12 183 C12.66 183 13.32 183 14 183 C14.33 183.99 14.66 184.98 15 186 C10.98069562 184.66023187 7.97930242 182.66068985 4.6484375 180.12109375 C2.87939685 178.80867708 2.87939685 178.80867708 0 178 C0 119.26 0 60.52 0 0 Z " fill="#D45728" transform="translate(206,206)"/>
<path d="M0 0 C1.89753338 3.22310537 2.27056506 5.6560908 2.32568359 9.37597656 C2.34424408 10.45099426 2.36280457 11.52601196 2.38192749 12.63360596 C2.40503938 17.54298146 2.41270588 22.45147456 2.3828125 27.36083984 C2.37761841 29.94652285 2.39734168 32.53237988 2.44238281 35.11767578 C2.83088775 57.82202026 2.83088775 57.82202026 -1.69433594 62.51757812 C-5.27038609 64.94437449 -8.57810828 67 -13 67 C-13 65.68 -13 64.36 -13 63 C-11.35 63 -9.7 63 -8 63 C-8 62.34 -8 61.68 -8 61 C-7.01 61 -6.02 61 -5 61 C-5 60.34 -5 59.68 -5 59 C-4.01 59 -3.02 59 -2 59 C-1.9845388 57.91338829 -1.9845388 57.91338829 -1.96876526 56.80482483 C-1.87095232 49.99148098 -1.76846141 43.178222 -1.66066074 36.36502934 C-1.60540045 32.86195645 -1.55197566 29.35887527 -1.50268555 25.85571289 C-1.44599332 21.83209856 -1.38142599 17.80864469 -1.31640625 13.78515625 C-1.29969376 12.52163834 -1.28298126 11.25812042 -1.26576233 9.95631409 C-1.24581711 8.795186 -1.22587189 7.63405792 -1.20532227 6.43774414 C-1.18977798 5.40960098 -1.1742337 4.38145782 -1.15821838 3.32215881 C-1 1 -1 1 0 0 Z " fill="#D69533" transform="translate(464,116)"/>
<path d="M0 0 C0.66 0.33 1.32 0.66 2 1 C2.11591144 8.4929782 2.20472371 15.98586332 2.25906086 23.47953415 C2.28514222 26.95933474 2.32051044 30.43852147 2.37719727 33.91796875 C2.44197819 37.91933033 2.46619212 41.92004839 2.48828125 45.921875 C2.51408768 47.16990906 2.5398941 48.41794312 2.56648254 49.70379639 C2.5668602 50.86469788 2.56723785 52.02559937 2.56762695 53.22167969 C2.57873001 54.24316101 2.58983307 55.26464233 2.60127258 56.31707764 C1.78751463 59.94812529 0.02440318 60.98883696 -3 63 C-4.32 62.34 -5.64 61.68 -7 61 C-6.01 61 -5.02 61 -4 61 C-4 59.02 -4 57.04 -4 55 C-3.01 55 -2.02 55 -1 55 C-0.67 36.85 -0.34 18.7 0 0 Z " fill="#D9972D" transform="translate(360,235)"/>
<path d="M0 0 C2.31 0.33 4.62 0.66 7 1 C1.220634 5.57533141 -5.20903224 9.15477794 -11.65625 12.6875 C-14.09585233 14.0536773 -16.48548761 15.48564437 -18.875 16.9375 C-33.89285714 26 -33.89285714 26 -37 26 C-36.375 24.0625 -36.375 24.0625 -35 22 C-31.875 21.25 -31.875 21.25 -29 21 C-29 20.01 -29 19.02 -29 18 C-27.68 18 -26.36 18 -25 18 C-25 17.34 -25 16.68 -25 16 C-22.03 15.01 -19.06 14.02 -16 13 C-16 12.34 -16 11.68 -16 11 C-15.01 10.34 -14.02 9.68 -13 9 C-12.67 8.34 -12.34 7.68 -12 7 C-11 5 -11 5 -8 3 C-5.66800612 2.92094936 -3.33167378 2.91201231 -1 3 C-0.67 2.01 -0.34 1.02 0 0 Z " fill="#DD9E3D" transform="translate(348,297)"/>
<path d="M0 0 C2.60556168 2.60556168 2.26999371 3.73619883 2.31884766 7.36767578 C2.33871735 8.48868683 2.35858704 9.60969788 2.37905884 10.76467896 C2.39638565 12.58659256 2.39638565 12.58659256 2.4140625 14.4453125 C2.43342865 15.68546112 2.4527948 16.92560974 2.4727478 18.20333862 C2.5224881 21.50111779 2.56372477 24.79886139 2.60089111 28.09680176 C2.64089002 31.46177334 2.69200103 34.82657392 2.7421875 38.19140625 C2.83839787 44.79416107 2.92340383 51.39699011 3 58 C5.31 58 7.62 58 10 58 C9.67 58.66 9.34 59.32 9 60 C9.39938767 62.09821215 9.39938767 62.09821215 10 64 C6.11112365 62.85101381 2.92620398 61.86257703 0 59 C-0.48101807 56.39936829 -0.48101807 56.39936829 -0.45410156 53.2434082 C-0.45379944 52.06241043 -0.45349731 50.88141266 -0.45318604 49.66462708 C-0.43254089 48.38955795 -0.41189575 47.11448883 -0.390625 45.80078125 C-0.38213531 43.84279854 -0.38213531 43.84279854 -0.37347412 41.84526062 C-0.35821392 38.37781054 -0.31893032 34.91103251 -0.2746582 31.44384766 C-0.23371291 27.90471488 -0.21546479 24.36547332 -0.1953125 20.82617188 C-0.15243532 13.88383881 -0.08418015 6.94195168 0 0 Z " fill="#CC6F4C" transform="translate(101,145)"/>
<path d="M0 0 C0.33 0 0.66 0 1 0 C1 38.94 1 77.88 1 118 C-4 117 -4 117 -7 115 C-7 114.34 -7 113.68 -7 113 C-6.01 113 -5.02 113 -4 113 C-3.01 113.99 -2.02 114.98 -1 116 C-0.67 77.72 -0.34 39.44 0 0 Z " fill="#DB5E14" transform="translate(256,294)"/>
<path d="M0 0 C0.66 0.33 1.32 0.66 2 1 C0.6875 2.5 0.6875 2.5 -1 4 C-1.99 4 -2.98 4 -4 4 C-4 4.66 -4 5.32 -4 6 C-4.78375 6.2475 -5.5675 6.495 -6.375 6.75 C-9.12307434 7.69929975 -9.12307434 7.69929975 -9.78515625 9.89453125 C-11.56503526 12.97927333 -13.82054701 13.5686754 -17.0625 14.9375 C-26.69997799 18.90146518 -26.69997799 18.90146518 -35 25 C-38.84131602 26.58663053 -41.04158091 27.20808894 -45 26 C-37.35633657 21.35809913 -29.71357425 16.76933595 -21.83203125 12.5390625 C-15.20702173 8.9387125 -8.54433837 5.28843136 -2.2109375 1.19921875 C-1.48132813 0.80347656 -0.75171875 0.40773438 0 0 Z " fill="#ECCE67" transform="translate(163,108)"/>
<path d="M0 0 C4.875 0.875 4.875 0.875 6 2 C6.09376053 3.81055025 6.1174411 5.62477201 6.11352539 7.43774414 C6.11344986 8.59887222 6.11337433 9.76000031 6.11329651 10.95631409 C6.10813522 12.219832 6.10297394 13.48334991 6.09765625 14.78515625 C6.0962413 16.07111191 6.09482635 17.35706757 6.09336853 18.68199158 C6.08954418 22.10643443 6.07971462 25.53083509 6.06866455 28.95526123 C6.05844864 32.44738189 6.05387053 35.93950934 6.04882812 39.43164062 C6.03809227 46.28777778 6.02101684 53.14388687 6 60 C5.01 60 4.02 60 3 60 C2.67 59.34 2.34 58.68 2 58 C2.66 58 3.32 58 4 58 C3.88250606 50.36438593 3.75767262 42.7289174 3.62768555 35.09350586 C3.58431862 32.49490087 3.54264485 29.89626705 3.50268555 27.29760742 C3.44502577 23.56680608 3.38131871 19.83615006 3.31640625 16.10546875 C3.29969376 14.93976852 3.28298126 13.7740683 3.26576233 12.57304382 C3.24581711 11.49214981 3.22587189 10.4112558 3.20532227 9.29760742 C3.18977798 8.34496506 3.1742337 7.39232269 3.15821838 6.41081238 C3.09281922 3.85608802 3.09281922 3.85608802 2 1 C1.34 0.67 0.68 0.34 0 0 Z " fill="#E36612" transform="translate(304,263)"/>
<path d="M0 0 C5.07693209 1.6923107 7.20559694 2.6519973 11 6 C7.63672037 5.43945339 5.00887781 4.58158962 2 3 C2.00222061 3.55408539 2.00444122 4.10817078 2.00672913 4.67904663 C2.02898903 10.48735911 2.04399231 16.29565931 2.05493164 22.10400391 C2.0599358 24.26676934 2.06674117 26.42953143 2.07543945 28.59228516 C2.08767762 31.7151777 2.09326764 34.83802521 2.09765625 37.9609375 C2.10281754 38.91551849 2.10797882 39.87009949 2.11329651 40.85360718 C2.11379783 46.96119054 1.72564921 52.93573035 1 59 C0.67 59 0.34 59 0 59 C0 39.53 0 20.06 0 0 Z " fill="#E16515" transform="translate(309,88)"/>
<path d="M0 0 C-0.66 0.66 -1.32 1.32 -2 2 C-2.31734284 4.33034339 -2.31734284 4.33034339 -2.28710938 7.06054688 C-2.30052368 8.11504028 -2.31393799 9.16953369 -2.32775879 10.25598145 C-2.33303589 11.39869507 -2.33831299 12.54140869 -2.34375 13.71875 C-2.3583728 14.88756714 -2.37299561 16.05638428 -2.38806152 17.26062012 C-2.43470271 21.00704531 -2.46883042 24.75341597 -2.5 28.5 C-2.54099238 33.42728445 -2.59460863 38.35418551 -2.65625 43.28125 C-2.6615271 44.42396362 -2.6668042 45.56667725 -2.67224121 46.74401855 C-2.68565552 47.79851196 -2.69906982 48.85300537 -2.71289062 49.93945312 C-2.72018188 50.8705188 -2.72747314 51.80158447 -2.73498535 52.76086426 C-3 55 -3 55 -5 57 C-5 38.52 -5 20.04 -5 1 C-5.66 0.67 -6.32 0.34 -7 0 C-2.25 -1.125 -2.25 -1.125 0 0 Z " fill="#F08217" transform="translate(158,174)"/>
<path d="M0 0 C-0.6875 1.9375 -0.6875 1.9375 -2 4 C-4.625 4.75 -4.625 4.75 -7 5 C-7.33 5.99 -7.66 6.98 -8 8 C-9.64551962 8.71727778 -11.31422289 9.38325228 -13 10 C-13.66 10.66 -14.32 11.32 -15 12 C-17.65537372 12.56520003 -20.29144713 12.73788198 -23 13 C-23.04125 13.5775 -23.0825 14.155 -23.125 14.75 C-24.50031033 18.28651229 -26.69114596 19.31435737 -30 21 C-33.375 20.75 -33.375 20.75 -36 20 C-32.97082028 17.62809512 -29.83355003 15.66768738 -26.5 13.75 C-25.44554687 13.1415625 -24.39109375 12.533125 -23.3046875 11.90625 C-22.21414062 11.2771875 -21.12359375 10.648125 -20 10 C-16.92876725 8.19426315 -13.85817461 6.38746382 -10.7890625 4.578125 C-2.6980198 0 -2.6980198 0 0 0 Z " fill="#E8C653" transform="translate(221,77)"/>
<path d="M0 0 C0.33 0 0.66 0 1 0 C1.33 19.47 1.66 38.94 2 59 C4.97 59.66 7.94 60.32 11 61 C11.33 62.32 11.66 63.64 12 65 C12.66 65 13.32 65 14 65 C14.33 65.99 14.66 66.98 15 68 C10.98069562 66.66023187 7.97930242 64.66068985 4.6484375 62.12109375 C2.87939685 60.80867708 2.87939685 60.80867708 0 60 C0 40.2 0 20.4 0 0 Z " fill="#D3582A" transform="translate(206,324)"/>
<path d="M0 0 C-1.47922931 3.99047907 -3.51792286 5.1237645 -7.25 7 C-10.35864518 8.60889569 -13.27093965 10.18062643 -16.1875 12.125 C-21.02546622 15.35031082 -25.10286834 18 -31 18 C-31 18.66 -31 19.32 -31 20 C-36.45769231 23.10096154 -36.45769231 23.10096154 -39.203125 22.58984375 C-39.79609375 22.39519531 -40.3890625 22.20054687 -41 22 C-35.63477264 19.03178486 -30.27208752 16.10509305 -24.75 13.4375 C-21.70155746 11.94458185 -19.01156432 10.36835746 -16.3125 8.3125 C-13.02079789 5.82021126 -10.01267726 4.9008051 -6 4 C-6 3.34 -6 2.68 -6 2 C-2.25 0 -2.25 0 0 0 Z " fill="#DF5F15" transform="translate(246,183)"/>
<path d="M0 0 C4.35522853 0.50642192 7.44239635 1.38411497 11 4 C11 4.66 11 5.32 11 6 C12.09634766 6.42732422 12.09634766 6.42732422 13.21484375 6.86328125 C21.91084451 10.41242041 29.93527973 15.22677145 38 20 C40.32816122 21.34271693 42.66323611 22.67229324 45 24 C45 24.66 45 25.32 45 26 C43.5164999 25.57742724 42.03823576 25.13643678 40.5625 24.6875 C39.73878906 24.44386719 38.91507812 24.20023437 38.06640625 23.94921875 C37.38449219 23.63597656 36.70257813 23.32273437 36 23 C35.505 21.515 35.505 21.515 35 20 C33.01617226 19.28664738 31.01201294 18.62948261 29 18 C26.64471059 16.75069609 24.35318843 15.48076499 22.0625 14.125 C21.48048828 13.78597656 20.89847656 13.44695312 20.29882812 13.09765625 C19.12338547 12.41295765 17.94914611 11.72618913 16.77612305 11.03735352 C14.96971067 9.98230937 13.15433137 8.94439368 11.3359375 7.91015625 C8.71965757 6.41207559 6.12678379 4.89705743 3.5625 3.3125 C2.88316406 2.89613281 2.20382812 2.47976562 1.50390625 2.05078125 C1.00761719 1.70402344 0.51132812 1.35726562 0 1 C0 0.67 0 0.34 0 0 Z " fill="#DB6415" transform="translate(257,236)"/>
<path d="M0 0 C2.31 0 4.62 0 7 0 C3.60170483 2.85976752 0.24909499 5.07694143 -3.6875 7.125 C-10.18437421 10.54832433 -16.59829127 14.10424656 -22.99487305 17.71142578 C-23.73133057 18.12376465 -24.46778809 18.53610352 -25.2265625 18.9609375 C-26.21003662 19.51467041 -26.21003662 19.51467041 -27.21337891 20.07958984 C-29 21 -29 21 -32 22 C-32.66 21.34 -33.32 20.68 -34 20 C-31.69 19.34 -29.38 18.68 -27 18 C-27 17.34 -27 16.68 -27 16 C-25.68 16 -24.36 16 -23 16 C-23 15.34 -23 14.68 -23 14 C-20.35261084 12.5393715 -19.10551666 12 -16 12 C-16 11.01 -16 10.02 -16 9 C-12.535 8.505 -12.535 8.505 -9 8 C-9 7.34 -9 6.68 -9 6 C-6.03 4.68 -3.06 3.36 0 2 C0 1.34 0 0.68 0 0 Z " fill="#DFA44F" transform="translate(444,183)"/>
<path d="M0 0 C3.34373475 0.55728913 6.03312999 1.35173889 9 3 C9 3.66 9 4.32 9 5 C10.175625 5.4640625 10.175625 5.4640625 11.375 5.9375 C14 7 14 7 16 8 C16 26.81 16 45.62 16 65 C15.67 65 15.34 65 15 65 C15 46.52 15 28.04 15 9 C13.68 8.67 12.36 8.34 11 8 C10.01 7.34 9.02 6.68 8 6 C8 5.34 8 4.68 8 4 C7.236875 4.04125 6.47375 4.0825 5.6875 4.125 C3 4 3 4 0 2 C0 1.34 0 0.68 0 0 Z " fill="#E06315" transform="translate(137,167)"/>
<path d="M0 0 C10.37727459 4.97344035 20.48097338 10.52417734 30 17 C26.06329512 18.31223496 23.87511856 17.24296256 20 16 C20 15.34 20 14.68 20 14 C19.071875 13.731875 18.14375 13.46375 17.1875 13.1875 C14 12 14 12 12.5625 10.4375 C10.07551406 8.14947293 7.261901 8.30772651 4 8 C3.896875 7.38125 3.79375 6.7625 3.6875 6.125 C3.12474627 3.63473516 3.12474627 3.63473516 0 2 C0 1.34 0 0.68 0 0 Z " fill="#ECCC5E" transform="translate(352,51)"/>
<path d="M0 0 C0.66 0 1.32 0 2 0 C1.690625 1.36125 1.690625 1.36125 1.375 2.75 C0.97755237 6.1945461 0.94081965 7.2856259 3 10 C4.65261839 11.02304948 6.31791365 12.02616054 8 13 C8 13.66 8 14.32 8 15 C3.8189444 13.49450797 0.25957473 11.42101826 -3.5 9.0625 C-5.15515625 8.02802734 -5.15515625 8.02802734 -6.84375 6.97265625 C-7.8853125 6.32167969 -8.926875 5.67070312 -10 5 C-11.66409557 3.99572727 -13.32976963 2.99403636 -15 2 C-13 1 -13 1 -9 1 C-9 1.99 -9 2.98 -9 4 C-7.68628013 3.52418802 -6.37405454 3.04424851 -5.0625 2.5625 C-4.33160156 2.29566406 -3.60070312 2.02882812 -2.84765625 1.75390625 C-1.01694322 1.14613052 -1.01694322 1.14613052 0 0 Z " fill="#DE613B" transform="translate(126,208)"/>
<path d="M0 0 C0.33 2.97 0.66 5.94 1 9 C-4.85272256 8.54979057 -9.08220119 5.96160773 -14 3 C-12.68 2.67 -11.36 2.34 -10 2 C-10.33 1.34 -10.66 0.68 -11 0 C-7.18243176 -1.37432457 -3.92744671 -0.67975039 0 0 Z " fill="#DE6537" transform="translate(411,194)"/>
<path d="M0 0 C0 0.66 0 1.32 0 2 C-0.66 2 -1.32 2 -2 2 C-2 2.66 -2 3.32 -2 4 C-2.71027344 4.32613281 -3.42054688 4.65226562 -4.15234375 4.98828125 C-5.07144531 5.42527344 -5.99054688 5.86226562 -6.9375 6.3125 C-7.85402344 6.74175781 -8.77054687 7.17101563 -9.71484375 7.61328125 C-12.30969412 8.85078661 -12.30969412 8.85078661 -13 12 C-17.0916861 13.80795432 -20.55719328 14.21156222 -25 14 C-22.71201004 11.48813988 -20.37297959 9.93437964 -17.40234375 8.30078125 C-16.51869141 7.81416016 -15.63503906 7.32753906 -14.72460938 6.82617188 C-13.80486328 6.32666016 -12.88511719 5.82714844 -11.9375 5.3125 C-10.55208008 4.54583008 -10.55208008 4.54583008 -9.13867188 3.76367188 C-2.25954398 0 -2.25954398 0 0 0 Z " fill="#EFC039" transform="translate(301,32)"/>
<path d="M0 0 C0.33 0 0.66 0 1 0 C1 19.8 1 39.6 1 60 C0.67 60 0.34 60 0 60 C0 41.52 0 23.04 0 4 C-1.98 4.99 -3.96 5.98 -6 7 C-8.375 6.6875 -8.375 6.6875 -10 6 C-9.36191406 5.65066406 -8.72382813 5.30132812 -8.06640625 4.94140625 C-7.24011719 4.48636719 -6.41382813 4.03132812 -5.5625 3.5625 C-4.73878906 3.11003906 -3.91507813 2.65757812 -3.06640625 2.19140625 C-1.07691202 1.16337603 -1.07691202 1.16337603 0 0 Z " fill="#DD6212" transform="translate(256,176)"/>
<path d="M0 0 C6.66666667 3.33333333 13.33333333 6.66666667 20 10 C20 10.66 20 11.32 20 12 C20.94875 12.309375 21.8975 12.61875 22.875 12.9375 C26 14 26 14 28 15 C28 15.66 28 16.32 28 17 C28.969375 17.28875 29.93875 17.5775 30.9375 17.875 C34 19 34 19 35 21 C31.05879291 20.43697042 28.2491277 19.3208055 25 17 C25 16.34 25 15.68 25 15 C24.27554688 14.89429688 23.55109375 14.78859375 22.8046875 14.6796875 C19.75403013 13.9403917 17.75771813 12.81565924 15.125 11.125 C11.16958088 8.66174498 7.33426385 6.69601629 3 5 C3 4.34 3 3.68 3 3 C2.34 3 1.68 3 1 3 C0.67 2.01 0.34 1.02 0 0 Z " fill="#DB6616" transform="translate(102,146)"/>
<path d="M0 0 C3.89150141 0.99782087 6.86249326 2.47991334 10.125 4.75 C14.60959396 7.85588433 19.29794051 10.23471529 24.1953125 12.62109375 C29.07643766 15.02086698 33.73823341 17.59058673 38 21 C32.81804373 20.23794761 28.85259786 18.03131538 24.3125 15.50390625 C22.8584375 14.69759766 22.8584375 14.69759766 21.375 13.875 C20.45460938 13.35679688 19.53421875 12.83859375 18.5859375 12.3046875 C16.32727079 11.16511849 14.42591305 10.59984283 12 10 C10.66666667 8.66666667 9.33333333 7.33333333 8 6 C5.36777038 4.74563813 5.36777038 4.74563813 3 4 C3 3.34 3 2.68 3 2 C2.01 2 1.02 2 0 2 C0 1.34 0 0.68 0 0 Z " fill="#DC6617" transform="translate(320,94)"/>
<path d="M0 0 C2.31 0.33 4.62 0.66 7 1 C5.69325696 2.03450491 4.34935074 3.02172071 3 4 C2.40574219 4.433125 1.81148438 4.86625 1.19921875 5.3125 C-3.46925804 8.50338122 -6.35007443 9.58853391 -12 9 C-11.6875 7.125 -11.6875 7.125 -11 5 C-7.3558226 2.5705484 -5.28758728 2.83820425 -1 3 C-0.67 2.01 -0.34 1.02 0 0 Z " fill="#E58E11" transform="translate(348,297)"/>
<path d="M0 0 C-2.66702964 2.07703211 -5.34152837 3.82800383 -8.3125 5.4375 C-11.00328854 6.90520284 -13.6660229 8.38956057 -16.3125 9.9375 C-21.40927148 12.87237078 -26.72637486 15.4021551 -32 18 C-31.78515625 16.109375 -31.78515625 16.109375 -31 14 C-28.93359375 12.953125 -28.93359375 12.953125 -26.4375 12.25 C-25.19806641 11.88648438 -25.19806641 11.88648438 -23.93359375 11.515625 C-23.29550781 11.34546875 -22.65742188 11.1753125 -22 11 C-22 10.34 -22 9.68 -22 9 C-20.02 8.67 -18.04 8.34 -16 8 C-16 7.34 -16 6.68 -16 6 C-14.27843904 4.98696238 -12.54738194 3.99005152 -10.8125 3 C-9.36810547 2.1646875 -9.36810547 2.1646875 -7.89453125 1.3125 C-4.95111257 -0.02216758 -3.18119943 -0.27915461 0 0 Z " fill="#F08016" transform="translate(240,186)"/>
<path d="M0 0 C-0.5625 1.8125 -0.5625 1.8125 -2 4 C-4.31979381 5.03101947 -6.65429915 6.02936517 -9 7 C-9.66 7.66 -10.32 8.32 -11 9 C-14.34883564 12.34883564 -18.23678415 13.88745431 -22.9375 14.1875 C-23.618125 14.125625 -24.29875 14.06375 -25 14 C-20.69806123 10.67066816 -16.07656444 8.03168839 -11.375 5.3125 C-10.50359375 4.80138672 -9.6321875 4.29027344 -8.734375 3.76367188 C-7.48527344 3.03954102 -7.48527344 3.03954102 -6.2109375 2.30078125 C-5.45087402 1.85903564 -4.69081055 1.41729004 -3.90771484 0.9621582 C-2 0 -2 0 0 0 Z " fill="#ECCE62" transform="translate(265,52)"/>
<path d="M0 0 C0.33 0 0.66 0 1 0 C1 18.48 1 36.96 1 56 C0.67 56 0.34 56 0 56 C0 53.36 0 50.72 0 48 C-1.98 48.495 -1.98 48.495 -4 49 C-4 48.01 -4 47.02 -4 46 C-2.515 45.505 -2.515 45.505 -1 45 C-0.67 30.15 -0.34 15.3 0 0 Z " fill="#DD5B12" transform="translate(411,146)"/>
<path d="M0 0 C3.421875 1.7421875 3.421875 1.7421875 6.75 3.875 C8.41289062 4.92300781 8.41289062 4.92300781 10.109375 5.9921875 C12.36030698 7.55567269 14.18765205 8.97068082 16 11 C15.01 11.495 15.01 11.495 14 12 C14 11.34 14 10.68 14 10 C11.36 9.67 8.72 9.34 6 9 C5.67 8.01 5.34 7.02 5 6 C2.49552484 4.78130071 2.49552484 4.78130071 0 4 C0 3.34 0 2.68 0 2 C-4.7897321 1.76571687 -4.7897321 1.76571687 -9 4 C-11.1875 3.625 -11.1875 3.625 -13 3 C-8.2145282 -0.85172121 -5.94567981 -1.38461037 0 0 Z " fill="#ECCA63" transform="translate(314,28)"/>
<path d="M0 0 C1.43931117 0.45261358 2.87638999 0.91232979 4.3125 1.375 C5.11300781 1.63023437 5.91351563 1.88546875 6.73828125 2.1484375 C9 3 9 3 12 5 C12 5.66 12 6.32 12 7 C12.9075 6.9175 13.815 6.835 14.75 6.75 C18 7 18 7 20.375 8.875 C22 11 22 11 22 13 C22.99 13 23.98 13 25 13 C24.67 13.66 24.34 14.32 24 15 C18.2450248 12.28538906 12.94848367 9.15031717 7.61328125 5.68359375 C5.82384722 4.53075957 4.00654957 3.42037306 2.16796875 2.34765625 C1.45253906 1.90292969 0.73710937 1.45820313 0 1 C0 0.67 0 0.34 0 0 Z " fill="#DA7D5B" transform="translate(222,392)"/>
<path d="M0 0 C4.64557387 1.68515915 8.8339069 4.0183865 13.125 6.4375 C13.84042969 6.83259766 14.55585938 7.22769531 15.29296875 7.63476562 C15.98261719 8.02212891 16.67226563 8.40949219 17.3828125 8.80859375 C18.00559082 9.15720459 18.62836914 9.50581543 19.27001953 9.86499023 C21.09955812 11.06531833 22.50924931 12.40497104 24 14 C19.8015641 14.34986966 18.22530013 13.60104849 15 11 C12.85266073 10.29485154 12.85266073 10.29485154 11 10 C11 9.01 11 8.02 11 7 C8.69 6.67 6.38 6.34 4 6 C3.67 5.01 3.34 4.02 3 3 C2.01 2.67 1.02 2.34 0 2 C0 1.34 0 0.68 0 0 Z " fill="#ECD278" transform="translate(321,211)"/>
<path d="M0 0 C4.73474097 1.6996506 8.96167111 4.13659027 13.3125 6.625 C14.05306641 7.04523438 14.79363281 7.46546875 15.55664062 7.8984375 C17.37269011 8.92948495 19.18656533 9.96436046 21 11 C20.34 11.66 19.68 12.32 19 13 C14.57933544 11.14332089 10.27065717 9.18740977 6 7 C6 6.34 6 5.68 6 5 C5.01 4.67 4.02 4.34 3 4 C3 3.34 3 2.68 3 2 C2.01 2 1.02 2 0 2 C0 1.34 0 0.68 0 0 Z " fill="#EBCD67" transform="translate(431,96)"/>
<path d="M0 0 C0.33 0 0.66 0 1 0 C1 9.24 1 18.48 1 28 C-4 27 -4 27 -7 25 C-7 24.34 -7 23.68 -7 23 C-6.01 23 -5.02 23 -4 23 C-3.01 23.99 -2.02 24.98 -1 26 C-0.67 17.42 -0.34 8.84 0 0 Z " fill="#D96627" transform="translate(256,384)"/>
<path d="M0 0 C-0.5625 3.3125 -0.5625 3.3125 -2 7 C-4.29468783 8.5368579 -6.32672237 9.1584126 -9 10 C-8.42655063 7.13275314 -8.1385485 6.1385485 -6 4 C-6 2.68 -6 1.36 -6 0 C-3.50907189 -1.24546405 -2.58919267 -0.7767578 0 0 Z " fill="#F08B0F" transform="translate(207,200)"/>
<path d="M0 0 C1.32 0 2.64 0 4 0 C4.66 1.32 5.32 2.64 6 4 C5.34 4 4.68 4 4 4 C4 4.66 4 5.32 4 6 C4.99 6 5.98 6 7 6 C7 6.66 7 7.32 7 8 C8.32 8.33 9.64 8.66 11 9 C11 9.66 11 10.32 11 11 C11.66 11 12.32 11 13 11 C12.67 11.66 12.34 12.32 12 13 C5.07 9.04 5.07 9.04 -2 5 C-2 4.67 -2 4.34 -2 4 C-0.35 4 1.3 4 3 4 C2.01 2.68 1.02 1.36 0 0 Z " fill="#DA643B" transform="translate(314,144)"/>
<path d="M0 0 C6.30742049 -0.49469965 6.30742049 -0.49469965 9.625 1.875 C10.40875 2.57625 11.1925 3.2775 12 4 C14.6794645 5.24016669 14.6794645 5.24016669 17 6 C17 6.66 17 7.32 17 8 C19.475 8.495 19.475 8.495 22 9 C20.33203125 9.671875 20.33203125 9.671875 18 10 C15.44921875 8.890625 15.44921875 8.890625 12.6875 7.25 C8.52472146 4.8505432 4.45704072 2.78281629 0 1 C0 0.67 0 0.34 0 0 Z " fill="#FBAE32" transform="translate(308,87)"/>
<path d="M0 0 C2.16874252 0.50603992 3.99967627 0.99983813 6 2 C6 2.66 6 3.32 6 4 C6.94875 4.12375 7.8975 4.2475 8.875 4.375 C12 5 12 5 14 7 C15.64991582 7.70710678 17.31562256 8.37943989 19 9 C19 9.66 19 10.32 19 11 C20.32 11.66 21.64 12.32 23 13 C19.1763019 13 17.51009646 11.71929685 14.25 9.75 C13.18652344 9.11191406 12.12304688 8.47382812 11.02734375 7.81640625 C10.02832031 7.21699219 9.02929688 6.61757812 8 6 C6.60679528 5.2244258 5.21155442 4.45247154 3.8125 3.6875 C1 2 1 2 0 0 Z " fill="#FAA731" transform="translate(330,98)"/>
<path d="M0 0 C1.32 0.33 2.64 0.66 4 1 C4 1.66 4 2.32 4 3 C4.66 3.061875 5.32 3.12375 6 3.1875 C10.18657836 4.32136497 13.42550992 6.59631064 17 9 C16.67 9.66 16.34 10.32 16 11 C14.68 11 13.36 11 12 11 C11.67 9.68 11.34 8.36 11 7 C10.01 7 9.02 7 8 7 C8 6.34 8 5.68 8 5 C6.8553125 5.1546875 6.8553125 5.1546875 5.6875 5.3125 C4.800625 5.209375 3.91375 5.10625 3 5 C1.1875 2.5 1.1875 2.5 0 0 Z " fill="#ECCC72" transform="translate(345,225)"/>
<path d="M0 0 C0.66 0.33 1.32 0.66 2 1 C-8.25 10 -8.25 10 -15 10 C-12.0761589 6.81980317 -9.16598831 4.74648691 -5.375 2.6875 C-4.41335937 2.15511719 -3.45171875 1.62273437 -2.4609375 1.07421875 C-1.64882812 0.71972656 -0.83671875 0.36523438 0 0 Z " fill="#E9D07C" transform="translate(116,135)"/>
<path d="M0 0 C1.32 0.66 2.64 1.32 4 2 C-1.28 4.97 -6.56 7.94 -12 11 C-12.33 10.01 -12.66 9.02 -13 8 C-12.01 8 -11.02 8 -10 8 C-9.67 7.01 -9.34 6.02 -9 5 C-7.68 5 -6.36 5 -5 5 C-5 4.34 -5 3.68 -5 3 C-3.35 3 -1.7 3 0 3 C0 2.01 0 1.02 0 0 Z " fill="#E0A54F" transform="translate(181,216)"/>
<path d="M0 0 C7.75 0.875 7.75 0.875 10 2 C10 2.66 10 3.32 10 4 C10.99 4 11.98 4 13 4 C13 4.66 13 5.32 13 6 C13.99 6.33 14.98 6.66 16 7 C16 7.66 16 8.32 16 9 C12.20950293 7.57250019 8.72877544 5.83763458 5.1875 3.875 C4.21167969 3.33617187 3.23585938 2.79734375 2.23046875 2.2421875 C1.49441406 1.83226562 0.75835937 1.42234375 0 1 C0 0.67 0 0.34 0 0 Z " fill="#DA7E5D" transform="translate(381,187)"/>
<path d="M0 0 C2.86724686 0.57344937 3.8614515 0.8614515 6 3 C6.804375 3.144375 7.60875 3.28875 8.4375 3.4375 C11.31068656 4.06819949 12.10889862 4.83874128 14 7 C14.66 7.33 15.32 7.66 16 8 C16 8.66 16 9.32 16 10 C10.65697176 8.49299203 5.53804169 6.21962115 1 3 C0.67 2.01 0.34 1.02 0 0 Z " fill="#FCB233" transform="translate(104,145)"/>
<path d="M0 0 C1.32 0 2.64 0 4 0 C4 0.66 4 1.32 4 2 C4.62648438 2.13277344 5.25296875 2.26554688 5.8984375 2.40234375 C6.71570313 2.57894531 7.53296875 2.75554687 8.375 2.9375 C9.18710937 3.11152344 9.99921875 3.28554687 10.8359375 3.46484375 C13 4 13 4 15 5 C15 5.66 15 6.32 15 7 C15.99 7.33 16.98 7.66 18 8 C13.82412255 9.39195915 11.86525224 7.82323219 8 6 C8 5.34 8 4.68 8 4 C7.05125 3.71125 6.1025 3.4225 5.125 3.125 C2 2 2 2 0 0 Z " fill="#FAAB31" transform="translate(396,136)"/>
<path d="M0 0 C8.57142857 0.85714286 8.57142857 0.85714286 12 3 C12 3.99 12 4.98 12 6 C12.66 6 13.32 6 14 6 C14.33 6.99 14.66 7.98 15 9 C11.016281 7.67209367 7.98380483 5.69386422 4.6484375 3.21875 C3.13296843 2.09830841 1.56815234 1.04543489 0 0 Z " fill="#DC7A56" transform="translate(206,383)"/>
<path d="M0 0 C4.35400809 0.5618075 7.97331467 2.23334742 11.9140625 4.0625 C14.11913072 5.09552485 14.11913072 5.09552485 17 6 C16.67 6.66 16.34 7.32 16 8 C9.78310074 7.67279478 4.99100726 4.47200505 0 1 C0 0.67 0 0.34 0 0 Z " fill="#FCAE34" transform="translate(295,256)"/>
<path d="M0 0 C-2.4299987 1.61999913 -4.85435584 3.15390733 -7.375 4.625 C-8.12523437 5.07101563 -8.87546875 5.51703125 -9.6484375 5.9765625 C-12.28333943 7.12331384 -14.15680761 7.19088571 -17 7 C-16.34 6.67 -15.68 6.34 -15 6 C-15 5.34 -15 4.68 -15 4 C-13.02 3.67 -11.04 3.34 -9 3 C-9 2.34 -9 1.68 -9 1 C-6.04335481 -0.4783226 -3.25770263 -0.06032783 0 0 Z " fill="#E09E45" transform="translate(168,227)"/>
<path d="M0 0 C0.99 0 1.98 0 3 0 C3 0.66 3 1.32 3 2 C3.60328125 2.17015625 4.2065625 2.3403125 4.828125 2.515625 C9.51063372 3.93548248 12.85311149 5.03218406 16 9 C15.01 9.495 15.01 9.495 14 10 C11.50390625 8.85546875 11.50390625 8.85546875 8.5625 7.1875 C7.11037109 6.37345703 7.11037109 6.37345703 5.62890625 5.54296875 C3.71687298 4.42075011 1.84468495 3.22978996 0 2 C0 1.34 0 0.68 0 0 Z " fill="#FAA932" transform="translate(370,120)"/>
<path d="M0 0 C0.556875 0.226875 1.11375 0.45375 1.6875 0.6875 C-3.0625 5.5625 -3.0625 5.5625 -5.3125 6.6875 C-7.32050456 6.40637936 -9.32264051 6.07682033 -11.3125 5.6875 C-3.40789474 -0.46052632 -3.40789474 -0.46052632 0 0 Z " fill="#ECCB5A" transform="translate(196.3125,91.3125)"/>
<path d="M0 0 C1.32 0.66 2.64 1.32 4 2 C3.67 3.65 3.34 5.3 3 7 C0.69 7.33 -1.62 7.66 -4 8 C-3.34 7.67 -2.68 7.34 -2 7 C-1.62633887 5.00714063 -1.29259485 3.00636471 -1 1 C-0.67 0.67 -0.34 0.34 0 0 Z " fill="#E59332" transform="translate(259,405)"/>
<path d="M0 0 C0.66 0.99 1.32 1.98 2 3 C0.21190303 4.17213045 -1.58059125 5.33755526 -3.375 6.5 C-4.37273437 7.1496875 -5.37046875 7.799375 -6.3984375 8.46875 C-9 10 -9 10 -11 10 C-11 8.68 -11 7.36 -11 6 C-9.35 6 -7.7 6 -6 6 C-6 5.34 -6 4.68 -6 4 C-5.01 4 -4.02 4 -3 4 C-3 3.34 -3 2.68 -3 2 C-2.01 2 -1.02 2 0 2 C0 1.34 0 0.68 0 0 Z " fill="#DE9F45" transform="translate(462,173)"/>
<path d="M0 0 C1.81612488 0.95144598 3.62781081 1.91136933 5.4375 2.875 C6.44683594 3.40867187 7.45617187 3.94234375 8.49609375 4.4921875 C11 6 11 6 12 8 C8.7 7.34 5.4 6.68 2 6 C2 5.34 2 4.68 2 4 C1.01 3.67 0.02 3.34 -1 3 C-0.67 2.01 -0.34 1.02 0 0 Z " fill="#E8D06F" transform="translate(370,61)"/>
<path d="M0 0 C0 0.66 0 1.32 0 2 C-2.484375 3.796875 -2.484375 3.796875 -5.75 5.75 C-6.81734375 6.40484375 -7.8846875 7.0596875 -8.984375 7.734375 C-12 9 -12 9 -14.390625 8.203125 C-14.92171875 7.80609375 -15.4528125 7.4090625 -16 7 C-13.69 6.34 -11.38 5.68 -9 5 C-9 4.34 -9 3.68 -9 3 C-7.68 3 -6.36 3 -5 3 C-5 2.34 -5 1.68 -5 1 C-2 0 -2 0 0 0 Z " fill="#DC9D4C" transform="translate(426,196)"/>
<path d="M0 0 C0.70125 0.144375 1.4025 0.28875 2.125 0.4375 C5.07556141 1.01478375 8.03270151 1.51695141 11 2 C11 2.99 11 3.98 11 5 C11.99 5.33 12.98 5.66 14 6 C12.328125 6.6796875 12.328125 6.6796875 10 7 C7.421875 5.8203125 7.421875 5.8203125 4.75 4.125 C3.85796875 3.57070312 2.9659375 3.01640625 2.046875 2.4453125 C1.37140625 1.96835938 0.6959375 1.49140625 0 1 C0 0.67 0 0.34 0 0 Z " fill="#D97D5B" transform="translate(362,176)"/>
<path d="M0 0 C0 0.66 0 1.32 0 2 C-0.66 2 -1.32 2 -2 2 C-2 2.66 -2 3.32 -2 4 C-5.71973879 6.84450614 -8.37390802 7.3227506 -13 7 C-4.79310345 0 -4.79310345 0 0 0 Z " fill="#EAD36A" transform="translate(301,32)"/>
<path d="M0 0 C4.87664009 -0.34833144 7.77050005 0.58314288 12 3 C12 4.32 12 5.64 12 7 C7.69235185 5.43358249 3.93828536 3.31663844 0 1 C0 0.67 0 0.34 0 0 Z " fill="#DB7550" transform="translate(139,226)"/>
<path d="M0 0 C-1.78881736 1.00508801 -3.58114696 2.00392736 -5.375 3 C-6.37273437 3.556875 -7.37046875 4.11375 -8.3984375 4.6875 C-11 6 -11 6 -13 6 C-13 5.01 -13 4.02 -13 3 C-9.01257099 -0.83974645 -5.18776909 -1.45081678 0 0 Z " fill="#E1A14D" transform="translate(198,211)"/>
<path d="M0 0 C2.475 0.495 2.475 0.495 5 1 C5 1.66 5 2.32 5 3 C6.11375 3.1546875 6.11375 3.1546875 7.25 3.3125 C10.17014018 4.04253504 11.73187554 5.06789398 14 7 C7.25 7.125 7.25 7.125 5 6 C5 5.34 5 4.68 5 4 C4.34 4 3.68 4 3 4 C3 3.34 3 2.68 3 2 C2.01 2 1.02 2 0 2 C0 1.34 0 0.68 0 0 Z " fill="#EDD16B" transform="translate(382,69)"/>
<path d="M0 0 C-1.37302958 3.36179923 -2.61885209 4.7212881 -5.875 6.3125 C-6.55304688 6.65925781 -7.23109375 7.00601563 -7.9296875 7.36328125 C-10.35737246 8.10990889 -11.63265545 7.82273185 -14 7 C-12.04480616 5.82807953 -10.0857461 4.6626071 -8.125 3.5 C-7.03445313 2.8503125 -5.94390625 2.200625 -4.8203125 1.53125 C-2 0 -2 0 0 0 Z " fill="#ECD57D" transform="translate(265,52)"/>
<path d="M0 0 C4.99213851 0.46801299 9.12963993 2.91715737 13 6 C13 6.66 13 7.32 13 8 C8.27626146 6.37621488 4.05818166 3.89006982 0 1 C0 0.67 0 0.34 0 0 Z " fill="#D8805A" transform="translate(121,215)"/>
<path d="M0 0 C4.97209562 1.76429199 9.43438061 4.3939166 14 7 C14 7.33 14 7.66 14 8 C8.25 8.125 8.25 8.125 6 7 C6 6.34 6 5.68 6 5 C5.01 5 4.02 5 3 5 C3 4.34 3 3.68 3 3 C2.34 3 1.68 3 1 3 C0.67 2.01 0.34 1.02 0 0 Z " fill="#EBD36E" transform="translate(338,43)"/>
<path d="M0 0 C1.98 0 3.96 0 6 0 C3.38928701 2.06681445 0.66162161 3.93109607 -2.125 5.75 C-2.80820312 6.19859375 -3.49140625 6.6471875 -4.1953125 7.109375 C-5.08863281 7.55023438 -5.08863281 7.55023438 -6 8 C-6.66 7.67 -7.32 7.34 -8 7 C-7.67 6.34 -7.34 5.68 -7 5 C-6.01 5 -5.02 5 -4 5 C-4 4.34 -4 3.68 -4 3 C-3.01 3 -2.02 3 -1 3 C-0.67 2.01 -0.34 1.02 0 0 Z " fill="#E1AF58" transform="translate(349,298)"/>
<path d="M0 0 C4.75481646 0.57634139 7.97048212 2.55068521 12 5 C12 5.99 12 6.98 12 8 C11.34 8 10.68 8 10 8 C10 7.34 10 6.68 10 6 C9.278125 5.71125 8.55625 5.4225 7.8125 5.125 C5.20833333 4.08333333 2.60416667 3.04166667 0 2 C0 1.34 0 0.68 0 0 Z " fill="#FCAC33" transform="translate(258,234)"/>
<path d="M0 0 C0.33 0.66 0.66 1.32 1 2 C-0.093125 1.95875 -1.18625 1.9175 -2.3125 1.875 C-6.08892229 1.67925334 -6.08892229 1.67925334 -9 4 C-11.1875 3.625 -11.1875 3.625 -13 3 C-8.35512125 -0.73856095 -5.81333628 -1.5958178 0 0 Z " fill="#E9D483" transform="translate(314,28)"/>
<path d="M0 0 C0 1.66666667 0 3.33333333 0 5 C-3.77545388 3.90931332 -6.47043472 3.0916909 -9 0 C-3.375 -1.125 -3.375 -1.125 0 0 Z " fill="#DA754F" transform="translate(111,204)"/>
<path d="M0 0 C4.36109605 0.50710419 7.45075299 1.36341651 11 4 C11.33 4.99 11.66 5.98 12 7 C7.69235185 5.43358249 3.93828536 3.31663844 0 1 C0 0.67 0 0.34 0 0 Z " fill="#FBAB33" transform="translate(283,249)"/>
<path d="M0 0 C1.93607846 2.8471742 1.98954766 4.15417196 1.75 7.6875 C1.5025 8.780625 1.255 9.87375 1 11 C0.01 11.495 0.01 11.495 -1 12 C-1.02687279 10.18757948 -1.04633715 8.37504767 -1.0625 6.5625 C-1.07410156 5.55316406 -1.08570313 4.54382813 -1.09765625 3.50390625 C-1 1 -1 1 0 0 Z " fill="#DD9C2A" transform="translate(464,116)"/>
<path d="M0 0 C0 0.99 0 1.98 0 3 C-2.90092502 4.93395001 -3.89674737 5.30131941 -7.1875 5.625 C-8.445625 5.74875 -9.70375 5.8725 -11 6 C-8.24029211 2.78034079 -4.3526723 0 0 0 Z " fill="#ECCC62" transform="translate(177,102)"/>
<path d="M0 0 C4.30764815 1.56641751 8.06171464 3.68336156 12 6 C10.4375 6.75 10.4375 6.75 8 7 C5.45280141 5.97667131 3.13666413 4.72727704 1 3 C0.67 2.01 0.34 1.02 0 0 Z " fill="#FAA831" transform="translate(129,160)"/>
<path d="M0 0 C3.0831351 1.19899698 6.06279492 2.47700477 9 4 C9 4.66 9 5.32 9 6 C5.64566891 5.05066101 2.30753495 4.10251165 -1 3 C-0.67 2.01 -0.34 1.02 0 0 Z " fill="#EFD373" transform="translate(403,80)"/>
<path d="M0 0 C-2.06185207 3.0927781 -2.90369802 3.68076198 -6.125 5.1875 C-7.21167969 5.70376953 -7.21167969 5.70376953 -8.3203125 6.23046875 C-8.87460937 6.48441406 -9.42890625 6.73835938 -10 7 C-10 6.01 -10 5.02 -10 4 C-9.34 4 -8.68 4 -8 4 C-8 3.34 -8 2.68 -8 2 C-4.77208445 -0.1519437 -3.71599191 -0.20086443 0 0 Z " fill="#E2AB5D" transform="translate(340,306)"/>
<path d="M0 0 C4.75 1.875 4.75 1.875 7 3 C7 3.66 7 4.32 7 5 C7.66 5.33 8.32 5.66 9 6 C4.2482602 5.56802365 2.07999946 4.67230705 -1 1 C-0.67 0.67 -0.34 0.34 0 0 Z " fill="#E0721D" transform="translate(115,153)"/>
<path d="M0 0 C0.66 0.33 1.32 0.66 2 1 C0.6875 2.5 0.6875 2.5 -1 4 C-1.99 4 -2.98 4 -4 4 C-4 4.66 -4 5.32 -4 6 C-7 8 -7 8 -9.1875 7.625 C-9.785625 7.41875 -10.38375 7.2125 -11 7 C-10.28972656 6.57847656 -9.57945312 6.15695313 -8.84765625 5.72265625 C-7.92855469 5.17480469 -7.00945312 4.62695312 -6.0625 4.0625 C-5.14597656 3.51722656 -4.22945312 2.97195312 -3.28515625 2.41015625 C-1.11587323 1.19267827 -1.11587323 1.19267827 0 0 Z " fill="#EDD37E" transform="translate(163,108)"/>
<path d="M0 0 C4.09305456 1.65296434 7.58983503 3.13546142 11 6 C6.94393835 5.53199289 3.53411321 5.12046792 0 3 C0 2.01 0 1.02 0 0 Z " fill="#ECD371" transform="translate(420,90)"/>
<path d="M0 0 C1.32 0 2.64 0 4 0 C4 0.99 4 1.98 4 3 C0.535 4.485 0.535 4.485 -3 6 C-2.42655063 3.13275314 -2.1385485 2.1385485 0 0 Z " fill="#E19B3E" transform="translate(201,204)"/>
<path d="M0 0 C3.59391114 1.33488128 6.75490696 2.96022723 10 5 C9.67 5.66 9.34 6.32 9 7 C7.35 6.67 5.7 6.34 4 6 C3.67 5.01 3.34 4.02 3 3 C2.01 2.67 1.02 2.34 0 2 C0 1.34 0 0.68 0 0 Z " fill="#E8D066" transform="translate(321,211)"/>
<path d="M0 0 C0.66 0.33 1.32 0.66 2 1 C1.34 1.66 0.68 2.32 0 3 C-0.99 3 -1.98 3 -3 3 C-3 3.66 -3 4.32 -3 5 C-6 7 -6 7 -8.1875 6.625 C-8.785625 6.41875 -9.38375 6.2125 -10 6 C-8.3811004 4.96951963 -6.75467511 3.95085322 -5.125 2.9375 C-4.22007812 2.36902344 -3.31515625 1.80054688 -2.3828125 1.21484375 C-1.20332031 0.61349609 -1.20332031 0.61349609 0 0 Z " fill="#ECD97C" transform="translate(286,39)"/>
<path d="M0 0 C-6.75 4 -6.75 4 -9 4 C-8.1875 2.0625 -8.1875 2.0625 -7 0 C-3.86650268 -1.04449911 -3.01031744 -0.93423645 0 0 Z " fill="#E4A150" transform="translate(320,319)"/>
<path d="M0 0 C4.50802601 1.25805377 7.4912812 2.90407165 11 6 C4.08571429 5.05714286 4.08571429 5.05714286 1 3 C0.67 2.01 0.34 1.02 0 0 Z " fill="#EF8315" transform="translate(287,312)"/>
<path d="M0 0 C-2.77079887 3.80984844 -6.62868145 4.06840752 -11 5 C-8.10998474 1.78887193 -4.47884754 -2.23942377 0 0 Z " fill="#F8B222" transform="translate(288,219)"/>
<path d="M0 0 C0.66 0.33 1.32 0.66 2 1 C-0.77079887 4.80984844 -4.62868145 5.06840752 -9 6 C-7.73295613 3.46591226 -6.56876843 3.06790028 -4.0625 1.8125 C-3.35222656 1.44769531 -2.64195312 1.08289063 -1.91015625 0.70703125 C-1.27980469 0.47371094 -0.64945313 0.24039063 0 0 Z " fill="#EAD87E" transform="translate(205,85)"/>
<path d="M0 0 C-0.5625 1.9375 -0.5625 1.9375 -2 4 C-5.625 4.75 -5.625 4.75 -9 5 C-7.36885863 1.73771726 -3.62038485 0 0 0 Z " fill="#E9D371" transform="translate(221,77)"/>
<path d="M0 0 C0.66 0.33 1.32 0.66 2 1 C1.67 1.66 1.34 2.32 1 3 C0.34 3 -0.32 3 -1 3 C-1 3.66 -1 4.32 -1 5 C-3.31 5.33 -5.62 5.66 -8 6 C-5.63404067 3.38499232 -3.13950774 1.61000397 0 0 Z " fill="#EFD678" transform="translate(238,66)"/>
<path d="M0 0 C0 0.66 0 1.32 0 2 C-0.99 2 -1.98 2 -3 2 C-3.33 2.99 -3.66 3.98 -4 5 C-6.31 5.33 -8.62 5.66 -11 6 C-9.73083275 3.46166551 -8.58375191 3.10599099 -6.0625 1.875 C-5.35222656 1.52179687 -4.64195312 1.16859375 -3.91015625 0.8046875 C-2 0 -2 0 0 0 Z " fill="#EAD57F" transform="translate(276,46)"/>
<path d="M0 0 C4.83256305 0.41421969 6.82679218 2.46413986 10 6 C6.40992874 4.66654496 3.20429093 3.1056769 0 1 C0 0.67 0 0.34 0 0 Z " fill="#E06014" transform="translate(264,297)"/>
<path d="M0 0 C4.87362847 0.45336079 7.39042389 1.7089159 11 5 C6.62886504 4.49172849 3.61004338 3.54826592 0 1 C0 0.67 0 0.34 0 0 Z " fill="#DD6919" transform="translate(257,236)"/>
<path d="M0 0 C2.31 0 4.62 0 7 0 C1.85714286 4.42857143 1.85714286 4.42857143 -2 5 C-2 4.34 -2 3.68 -2 3 C-1.34 2.67 -0.68 2.34 0 2 C0 1.34 0 0.68 0 0 Z " fill="#E2B059" transform="translate(444,183)"/>
<path d="M0 0 C2.31 0.33 4.62 0.66 7 1 C7.33 1.99 7.66 2.98 8 4 C8.66 4 9.32 4 10 4 C9.67 4.66 9.34 5.32 9 6 C6.03 4.35 3.06 2.7 0 1 C0 0.67 0 0.34 0 0 Z " fill="#DA8868" transform="translate(317,151)"/>
<path d="M0 0 C3.99500618 1.3697164 6.80009492 3.25722422 10 6 C5.8333396 5.52651586 3.07115285 4.95303159 0 2 C0 1.34 0 0.68 0 0 Z " fill="#DF6C18" transform="translate(358,115)"/>
<path d="M0 0 C0.33 0 0.66 0 1 0 C1 1.98 1 3.96 1 6 C-0.98 6.99 -2.96 7.98 -5 9 C-5 7.68 -5 6.36 -5 5 C-3.35 5 -1.7 5 0 5 C0 3.35 0 1.7 0 0 Z " fill="#DEAF58" transform="translate(309,378)"/>
<path d="M0 0 C2.64 0.33 5.28 0.66 8 1 C8 1.99 8 2.98 8 4 C4.41465407 4 2.92504174 2.97637955 0 1 C0 0.67 0 0.34 0 0 Z " fill="#DC8868" transform="translate(332,159)"/>
<path d="M0 0 C1.32 0 2.64 0 4 0 C4 0.66 4 1.32 4 2 C5.32 2.66 6.64 3.32 8 4 C6.68 4.33 5.36 4.66 4 5 C3.71125 4.360625 3.4225 3.72125 3.125 3.0625 C2.17176549 0.84793921 2.17176549 0.84793921 0 0 Z " fill="#D06842" transform="translate(325,154)"/>
<path d="M0 0 C2.25 0.25 2.25 0.25 4 1 C1.6875 3.0625 1.6875 3.0625 -1 5 C-1.99 4.67 -2.98 4.34 -4 4 C-2.25 1.9375 -2.25 1.9375 0 0 Z " fill="#ECC86E" transform="translate(105,141)"/>
<path d="M0 0 C-0.33 0.66 -0.66 1.32 -1 2 C-3.32156597 2.40729228 -5.6568787 2.74438677 -8 3 C-7.67 2.01 -7.34 1.02 -7 0 C-3.86650268 -1.04449911 -3.01031744 -0.93423645 0 0 Z " fill="#F0C033" transform="translate(205,90)"/>
<path d="M0 0 C0 0.66 0 1.32 0 2 C-4.15267176 5.11450382 -4.15267176 5.11450382 -7.3125 4.6875 C-7.869375 4.460625 -8.42625 4.23375 -9 4 C-2.25 0 -2.25 0 0 0 Z " fill="#ECD27B" transform="translate(230,72)"/>
<path d="M0 0 C6.75 0.875 6.75 0.875 9 2 C8.67 2.99 8.34 3.98 8 5 C5.36 3.68 2.72 2.36 0 1 C0 0.67 0 0.34 0 0 Z " fill="#F8A72F" transform="translate(273,244)"/>
<path d="M0 0 C3.68754757 0.49831724 5.60490662 1.10067643 8 4 C4.28400809 4.20086443 3.22791555 4.1519437 0 2 C0 1.34 0 0.68 0 0 Z " fill="#FBAD34" transform="translate(146,170)"/>
<path d="M0 0 C0.66 0.33 1.32 0.66 2 1 C0.25 3.0625 0.25 3.0625 -2 5 C-4.25 4.75 -4.25 4.75 -6 4 C-4.02 2.68 -2.04 1.36 0 0 Z " fill="#EBD276" transform="translate(183,97)"/>
<path d="M0 0 C1.65 0.33 3.3 0.66 5 1 C4.67 1.66 4.34 2.32 4 3 C0.9375 3.625 0.9375 3.625 -2 4 C-1.34 2.68 -0.68 1.36 0 0 Z " fill="#EEC235" transform="translate(185,97)"/>
<path d="M0 0 C3.35595828 0.59927826 5.37801226 1.84622436 8 4 C5.69 3.67 3.38 3.34 1 3 C0.67 2.01 0.34 1.02 0 0 Z " fill="#ECD179" transform="translate(330,39)"/>
<path d="M0 0 C0.66 0 1.32 0 2 0 C2 0.66 2 1.32 2 2 C3.175625 2.185625 3.175625 2.185625 4.375 2.375 C7 3 7 3 9 5 C7.68 5.33 6.36 5.66 5 6 C4.67 5.01 4.34 4.02 4 3 C3.01 3 2.02 3 1 3 C0.67 2.01 0.34 1.02 0 0 Z " fill="#ECC03C" transform="translate(312,30)"/>
</svg>
